<svg width="1282" height="723" xmlns="http://www.w3.org/2000/svg" xmlns:xlink="http://www.w3.org/1999/xlink" overflow="hidden"><defs><clipPath id="clip0"><rect x="-1" y="-2" width="1282" height="723"/></clipPath></defs><g clip-path="url(#clip0)" transform="translate(1 2)"><rect x="0" y="0" width="1280" height="720" fill="#FFFFFF"/><rect x="0.500053" y="0.500053" width="321" height="37" stroke="#7F7F7F" stroke-width="1.33333" stroke-miterlimit="8" fill="#D9D9D9"/><text fill="#A6A6A6" font-family="Arial,Arial_MSFontService,sans-serif" font-weight="700" font-size="21" transform="translate(98.3799 27)">Introduction</text><rect x="320.5" y="0.500053" width="321" height="37" stroke="#7F7F7F" stroke-width="1.33333" stroke-miterlimit="8" fill="#D9D9D9"/><text fill="#A6A6A6" font-family="Arial,Arial_MSFontService,sans-serif" font-weight="700" font-size="21" transform="translate(376.718 27)">Materials &amp; Methods</text><rect x="639.5" y="0.500053" width="321" height="37" stroke="#7F7F7F" stroke-width="1.33333" stroke-miterlimit="8" fill="#4B5E68"/><text fill="#FFFFFF" font-family="Arial,Arial_MSFontService,sans-serif" font-weight="700" font-size="21" transform="translate(690.449 27)">Results &amp; Discussion</text><rect x="959.5" y="0.500053" width="321" height="37" stroke="#7F7F7F" stroke-width="1.33333" stroke-miterlimit="8" fill="#D9D9D9"/><text fill="#A6A6A6" font-family="Arial,Arial_MSFontService,sans-serif" font-weight="700" font-size="21" transform="translate(1061.32 27)">Conclusion</text><text fill="#4B5E68" font-family="Arial,Arial_MSFontService,sans-serif" font-weight="700" font-size="32" transform="translate(199.527 85)">The impact of multiple level shedding load variability</text><path d="M66.5001 226.5 1215.48 226.5" stroke="#4B5E68" stroke-miterlimit="8" stroke-dasharray="8 3" fill="none" fill-rule="evenodd"/><path d="M715.5 579.5 1185.5 579.5" stroke="#EBEBEB" stroke-width="0.710971" stroke-linejoin="round" stroke-miterlimit="10" fill="none" fill-rule="evenodd"/><path d="M715.5 527.5 1185.5 527.5" stroke="#EBEBEB" stroke-width="0.710971" stroke-linejoin="round" stroke-miterlimit="10" fill="none" fill-rule="evenodd"/><path d="M715.5 476.5 1185.5 476.5" stroke="#EBEBEB" stroke-width="0.710971" stroke-linejoin="round" stroke-miterlimit="10" fill="none" fill-rule="evenodd"/><path d="M715.5 424.5 1185.5 424.5" stroke="#EBEBEB" stroke-width="0.710971" stroke-linejoin="round" stroke-miterlimit="10" fill="none" fill-rule="evenodd"/><path d="M715.5 373.5 1185.5 373.5" stroke="#EBEBEB" stroke-width="0.710971" stroke-linejoin="round" stroke-miterlimit="10" fill="none" fill-rule="evenodd"/><path d="M715.5 321.5 1185.5 321.5" stroke="#EBEBEB" stroke-width="0.710971" stroke-linejoin="round" stroke-miterlimit="10" fill="none" fill-rule="evenodd"/><path d="M767.5 621.5 767.5 274.5" stroke="#EBEBEB" stroke-width="0.710971" stroke-linejoin="round" stroke-miterlimit="10" fill="none" fill-rule="evenodd"/><path d="M828.5 621.5 828.5 274.5" stroke="#EBEBEB" stroke-width="0.710971" stroke-linejoin="round" stroke-miterlimit="10" fill="none" fill-rule="evenodd"/><path d="M889.5 621.5 889.5 274.5" stroke="#EBEBEB" stroke-width="0.710971" stroke-linejoin="round" stroke-miterlimit="10" fill="none" fill-rule="evenodd"/><path d="M950.5 621.5 950.5 274.5" stroke="#EBEBEB" stroke-width="0.710971" stroke-linejoin="round" stroke-miterlimit="10" fill="none" fill-rule="evenodd"/><path d="M1011.5 621.5 1011.5 274.5" stroke="#EBEBEB" stroke-width="0.710971" stroke-linejoin="round" stroke-miterlimit="10" fill="none" fill-rule="evenodd"/><path d="M1072.5 621.5 1072.5 274.5" stroke="#EBEBEB" stroke-width="0.710971" stroke-linejoin="round" stroke-miterlimit="10" fill="none" fill-rule="evenodd"/><path d="M1133.5 621.5 1133.5 274.5" stroke="#EBEBEB" stroke-width="0.710971" stroke-linejoin="round" stroke-miterlimit="10" fill="none" fill-rule="evenodd"/><path d="M715.5 605.5 1185.5 605.5" stroke="#EBEBEB" stroke-width="1.42184" stroke-linejoin="round" stroke-miterlimit="10" fill="none" fill-rule="evenodd"/><path d="M715.5 553.5 1185.5 553.5" stroke="#EBEBEB" stroke-width="1.42184" stroke-linejoin="round" stroke-miterlimit="10" fill="none" fill-rule="evenodd"/><path d="M715.5 502.5 1185.5 502.5" stroke="#EBEBEB" stroke-width="1.42184" stroke-linejoin="round" stroke-miterlimit="10" fill="none" fill-rule="evenodd"/><path d="M715.5 450.5 1185.5 450.5" stroke="#000000" stroke-width="1.42184" stroke-linejoin="round" stroke-miterlimit="10" fill="none" fill-rule="evenodd"/><path d="M715.5 398.5 1185.5 398.5" stroke="#EBEBEB" stroke-width="1.42184" stroke-linejoin="round" stroke-miterlimit="10" fill="none" fill-rule="evenodd"/><path d="M715.5 347.5 1185.5 347.5" stroke="#EBEBEB" stroke-width="1.42184" stroke-linejoin="round" stroke-miterlimit="10" fill="none" fill-rule="evenodd"/><path d="M715.5 295.5 1185.5 295.5" stroke="#EBEBEB" stroke-width="1.42184" stroke-linejoin="round" stroke-miterlimit="10" fill="none" fill-rule="evenodd"/><path d="M737.5 621.5 737.5 274.5" stroke="#EBEBEB" stroke-width="1.42184" stroke-linejoin="round" stroke-miterlimit="10" fill="none" fill-rule="evenodd"/><path d="M798.5 621.5 798.5 274.5" stroke="#EBEBEB" stroke-width="1.42184" stroke-linejoin="round" stroke-miterlimit="10" fill="none" fill-rule="evenodd"/><path d="M859.5 621.5 859.5 274.5" stroke="#EBEBEB" stroke-width="1.42184" stroke-linejoin="round" stroke-miterlimit="10" fill="none" fill-rule="evenodd"/><path d="M920.5 621.5 920.5 274.5" stroke="#EBEBEB" stroke-width="1.42184" stroke-linejoin="round" stroke-miterlimit="10" fill="none" fill-rule="evenodd"/><path d="M981.5 621.5 981.5 274.5" stroke="#EBEBEB" stroke-width="1.42184" stroke-linejoin="round" stroke-miterlimit="10" fill="none" fill-rule="evenodd"/><path d="M1042.5 621.5 1042.5 274.5" stroke="#EBEBEB" stroke-width="1.42184" stroke-linejoin="round" stroke-miterlimit="10" fill="none" fill-rule="evenodd"/><path d="M1103.5 621.5 1103.5 274.5" stroke="#EBEBEB" stroke-width="1.42184" stroke-linejoin="round" stroke-miterlimit="10" fill="none" fill-rule="evenodd"/><path d="M1164.5 621.5 1164.5 274.5" stroke="#EBEBEB" stroke-width="1.42184" stroke-linejoin="round" stroke-miterlimit="10" fill="none" fill-rule="evenodd"/><path d="M737.5 605.5 859.499 605.5 889.997 587.784 920.503 575.973 981.498 552.351 1012 540.54 1042.5 522.824 1073 511.893 1103.51 496.298 1134 465.095 1164.5 449.5" stroke="#01665E" stroke-width="1.42184" stroke-linejoin="round" stroke-miterlimit="10" stroke-dasharray="4.5512 4.5512" fill="none" fill-rule="evenodd"/><path d="M737.5 605.5 798.495 605.5 829.001 587.855 889.997 564.327 920.503 552.563 951 540.8 981.498 523.154 1012 511.402 1042.5 493.757 1073 465.656 1103.51 450.123 1134 434.578 1164.5 403.5" stroke="#02818A" stroke-width="1.42184" stroke-linejoin="round" stroke-miterlimit="10" fill="none" fill-rule="evenodd"/><path d="M737.5 605.5 767.998 605.5 798.495 587.827 829.001 570.154 859.499 558.372 889.997 540.698 920.503 528.916 951 511.255 981.498 493.582 1012 475.909 1042.5 458.235 1073 434.31 1103.51 403.184 1134 387.627 1164.5 356.5" stroke="#DE77AE" stroke-width="1.42184" stroke-linejoin="round" stroke-miterlimit="10" stroke-dasharray="4.5512 4.5512" fill="none" fill-rule="evenodd"/><path d="M737.5 605.5 767.998 605.5 798.495 576.107 829.001 564.349 859.499 546.714 889.997 534.956 920.503 517.332 951 493.818 981.498 476.181 1012 458.546 1042.5 435.031 1073 403.61 1103.51 388.085 1134 357.024 1164.5 341.5" stroke="#FEB24C" stroke-width="1.42184" stroke-linejoin="round" stroke-miterlimit="10" fill="none" fill-rule="evenodd"/><path d="M737.5 605.5 767.998 576.069 798.495 564.296 829.001 540.751 859.499 528.979 889.997 511.332 920.503 493.673 951 470.128 981.498 452.469 1012 428.924 1042.5 405.379 1073 372.247 1103.51 356.702 1164.5 294.5" stroke="#8C510A" stroke-width="1.42184" stroke-linejoin="round" stroke-miterlimit="10" stroke-dasharray="4.5512 4.5512" fill="none" fill-rule="evenodd"/><path d="M741.5 605.5C741.5 613.5 732.5 613.5 732.5 605.5 732.5 597.5 741.5 597.5 741.5 605.5" stroke="#01665E" stroke-width="0.944357" stroke-linecap="round" stroke-linejoin="round" stroke-miterlimit="10" fill="#01665E" fill-rule="evenodd"/><path d="M771.5 605.5C771.5 613.5 763.5 613.5 763.5 605.5 763.5 597.5 771.5 597.5 771.5 605.5" stroke="#01665E" stroke-width="0.944357" stroke-linecap="round" stroke-linejoin="round" stroke-miterlimit="10" fill="#01665E" fill-rule="evenodd"/><path d="M802.5 605.5C802.5 613.5 793.5 613.5 793.5 605.5 793.5 597.5 802.5 597.5 802.5 605.5" stroke="#01665E" stroke-width="0.944357" stroke-linecap="round" stroke-linejoin="round" stroke-miterlimit="10" fill="#01665E" fill-rule="evenodd"/><path d="M832.5 605.5C832.5 613.5 824.5 613.5 824.5 605.5 824.5 597.5 832.5 597.5 832.5 605.5" stroke="#01665E" stroke-width="0.944357" stroke-linecap="round" stroke-linejoin="round" stroke-miterlimit="10" fill="#01665E" fill-rule="evenodd"/><path d="M863.5 605.5C863.5 613.5 854.5 613.5 854.5 605.5 854.5 597.5 863.5 597.5 863.5 605.5" stroke="#01665E" stroke-width="0.944357" stroke-linecap="round" stroke-linejoin="round" stroke-miterlimit="10" fill="#01665E" fill-rule="evenodd"/><path d="M893.5 587.5C893.5 595.5 885.5 595.5 885.5 587.5 885.5 579.5 893.5 579.5 893.5 587.5" stroke="#01665E" stroke-width="0.944357" stroke-linecap="round" stroke-linejoin="round" stroke-miterlimit="10" fill="#01665E" fill-rule="evenodd"/><path d="M924.5 575.5C924.5 583.5 915.5 583.5 915.5 575.5 915.5 567.5 924.5 567.5 924.5 575.5" stroke="#01665E" stroke-width="0.944357" stroke-linecap="round" stroke-linejoin="round" stroke-miterlimit="10" fill="#01665E" fill-rule="evenodd"/><path d="M954.5 564.5C954.5 572.5 946.5 572.5 946.5 564.5 946.5 556.5 954.5 556.5 954.5 564.5" stroke="#01665E" stroke-width="0.944357" stroke-linecap="round" stroke-linejoin="round" stroke-miterlimit="10" fill="#01665E" fill-rule="evenodd"/><path d="M985.5 552.496C985.5 560.502 976.5 560.502 976.5 552.496 976.5 544.502 985.5 544.502 985.5 552.496" stroke="#01665E" stroke-width="0.944357" stroke-linecap="round" stroke-linejoin="round" stroke-miterlimit="10" fill="#01665E" fill-rule="evenodd"/><path d="M1015.5 540.496C1015.5 548.502 1007.5 548.502 1007.5 540.496 1007.5 532.502 1015.5 532.502 1015.5 540.496" stroke="#01665E" stroke-width="0.944357" stroke-linecap="round" stroke-linejoin="round" stroke-miterlimit="10" fill="#01665E" fill-rule="evenodd"/><path d="M1046.5 522.496C1046.5 530.502 1037.5 530.502 1037.5 522.496 1037.5 514.502 1046.5 514.502 1046.5 522.496" stroke="#01665E" stroke-width="0.944357" stroke-linecap="round" stroke-linejoin="round" stroke-miterlimit="10" fill="#01665E" fill-rule="evenodd"/><path d="M1076.5 512.496C1076.5 520.502 1068.5 520.502 1068.5 512.496 1068.5 504.501 1076.5 504.501 1076.5 512.496" stroke="#01665E" stroke-width="0.944357" stroke-linecap="round" stroke-linejoin="round" stroke-miterlimit="10" fill="#01665E" fill-rule="evenodd"/><path d="M1107.5 496.5C1107.5 504.5 1098.5 504.5 1098.5 496.5 1098.5 488.5 1107.5 488.5 1107.5 496.5" stroke="#01665E" stroke-width="0.944357" stroke-linecap="round" stroke-linejoin="round" stroke-miterlimit="10" fill="#01665E" fill-rule="evenodd"/><path d="M1137.5 465.5C1137.5 473.5 1129.5 473.5 1129.5 465.5 1129.5 457.5 1137.5 457.5 1137.5 465.5" stroke="#01665E" stroke-width="0.944357" stroke-linecap="round" stroke-linejoin="round" stroke-miterlimit="10" fill="#01665E" fill-rule="evenodd"/><path d="M1168.5 449.505C1168.5 457.499 1159.5 457.499 1159.5 449.505 1159.5 441.499 1168.5 441.499 1168.5 449.505" stroke="#01665E" stroke-width="0.944357" stroke-linecap="round" stroke-linejoin="round" stroke-miterlimit="10" fill="#01665E" fill-rule="evenodd"/><path d="M741.5 605.5C741.5 613.5 732.5 613.5 732.5 605.5 732.5 597.5 741.5 597.5 741.5 605.5" stroke="#02818A" stroke-width="0.944357" stroke-linecap="round" stroke-linejoin="round" stroke-miterlimit="10" fill="#02818A" fill-rule="evenodd"/><path d="M771.5 605.5C771.5 613.5 763.5 613.5 763.5 605.5 763.5 597.5 771.5 597.5 771.5 605.5" stroke="#02818A" stroke-width="0.944357" stroke-linecap="round" stroke-linejoin="round" stroke-miterlimit="10" fill="#02818A" fill-rule="evenodd"/><path d="M802.5 605.5C802.5 613.5 793.5 613.5 793.5 605.5 793.5 597.5 802.5 597.5 802.5 605.5" stroke="#02818A" stroke-width="0.944357" stroke-linecap="round" stroke-linejoin="round" stroke-miterlimit="10" fill="#02818A" fill-rule="evenodd"/><path d="M832.5 587.5C832.5 595.5 824.5 595.5 824.5 587.5 824.5 579.5 832.5 579.5 832.5 587.5" stroke="#02818A" stroke-width="0.944357" stroke-linecap="round" stroke-linejoin="round" stroke-miterlimit="10" fill="#02818A" fill-rule="evenodd"/><path d="M863.5 575.5C863.5 583.5 854.5 583.5 854.5 575.5 854.5 567.5 863.5 567.5 863.5 575.5" stroke="#02818A" stroke-width="0.944357" stroke-linecap="round" stroke-linejoin="round" stroke-miterlimit="10" fill="#02818A" fill-rule="evenodd"/><path d="M893.5 564.5C893.5 572.5 885.5 572.5 885.5 564.5 885.5 556.5 893.5 556.5 893.5 564.5" stroke="#02818A" stroke-width="0.944357" stroke-linecap="round" stroke-linejoin="round" stroke-miterlimit="10" fill="#02818A" fill-rule="evenodd"/><path d="M924.5 552.496C924.5 560.502 915.5 560.502 915.5 552.496 915.5 544.502 924.5 544.502 924.5 552.496" stroke="#02818A" stroke-width="0.944357" stroke-linecap="round" stroke-linejoin="round" stroke-miterlimit="10" fill="#02818A" fill-rule="evenodd"/><path d="M954.5 540.496C954.5 548.502 946.5 548.502 946.5 540.496 946.5 532.502 954.5 532.502 954.5 540.496" stroke="#02818A" stroke-width="0.944357" stroke-linecap="round" stroke-linejoin="round" stroke-miterlimit="10" fill="#02818A" fill-rule="evenodd"/><path d="M985.5 522.496C985.5 530.502 976.5 530.502 976.5 522.496 976.5 514.502 985.5 514.502 985.5 522.496" stroke="#02818A" stroke-width="0.944357" stroke-linecap="round" stroke-linejoin="round" stroke-miterlimit="10" fill="#02818A" fill-rule="evenodd"/><path d="M1015.5 511.505C1015.5 519.499 1007.5 519.499 1007.5 511.505 1007.5 503.499 1015.5 503.499 1015.5 511.505" stroke="#02818A" stroke-width="0.944357" stroke-linecap="round" stroke-linejoin="round" stroke-miterlimit="10" fill="#02818A" fill-rule="evenodd"/><path d="M1046.5 493.505C1046.5 501.499 1037.5 501.499 1037.5 493.505 1037.5 485.499 1046.5 485.499 1046.5 493.505" stroke="#02818A" stroke-width="0.944357" stroke-linecap="round" stroke-linejoin="round" stroke-miterlimit="10" fill="#02818A" fill-rule="evenodd"/><path d="M1076.5 465.5C1076.5 473.5 1068.5 473.5 1068.5 465.5 1068.5 457.5 1076.5 457.5 1076.5 465.5" stroke="#02818A" stroke-width="0.944357" stroke-linecap="round" stroke-linejoin="round" stroke-miterlimit="10" fill="#02818A" fill-rule="evenodd"/><path d="M1107.5 449.505C1107.5 457.499 1098.5 457.499 1098.5 449.505 1098.5 441.499 1107.5 441.499 1107.5 449.505" stroke="#02818A" stroke-width="0.944357" stroke-linecap="round" stroke-linejoin="round" stroke-miterlimit="10" fill="#02818A" fill-rule="evenodd"/><path d="M1137.5 434.5C1137.5 442.5 1129.5 442.5 1129.5 434.5 1129.5 426.5 1137.5 426.5 1137.5 434.5" stroke="#02818A" stroke-width="0.944357" stroke-linecap="round" stroke-linejoin="round" stroke-miterlimit="10" fill="#02818A" fill-rule="evenodd"/><path d="M1168.5 403.496C1168.5 411.502 1159.5 411.502 1159.5 403.496 1159.5 395.501 1168.5 395.501 1168.5 403.496" stroke="#02818A" stroke-width="0.944357" stroke-linecap="round" stroke-linejoin="round" stroke-miterlimit="10" fill="#02818A" fill-rule="evenodd"/><path d="M741.5 605.5C741.5 613.5 732.5 613.5 732.5 605.5 732.5 597.5 741.5 597.5 741.5 605.5" stroke="#DE77AE" stroke-width="0.944357" stroke-linecap="round" stroke-linejoin="round" stroke-miterlimit="10" fill="#DE77AE" fill-rule="evenodd"/><path d="M771.5 605.5C771.5 613.5 763.5 613.5 763.5 605.5 763.5 597.5 771.5 597.5 771.5 605.5" stroke="#DE77AE" stroke-width="0.944357" stroke-linecap="round" stroke-linejoin="round" stroke-miterlimit="10" fill="#DE77AE" fill-rule="evenodd"/><path d="M802.5 587.5C802.5 595.5 793.5 595.5 793.5 587.5 793.5 579.5 802.5 579.5 802.5 587.5" stroke="#DE77AE" stroke-width="0.944357" stroke-linecap="round" stroke-linejoin="round" stroke-miterlimit="10" fill="#DE77AE" fill-rule="evenodd"/><path d="M832.5 570C832.5 578.667 824.5 578.667 824.5 570 824.5 561.333 832.5 561.333 832.5 570" stroke="#DE77AE" stroke-width="0.944357" stroke-linecap="round" stroke-linejoin="round" stroke-miterlimit="10" fill="#DE77AE" fill-rule="evenodd"/><path d="M863.5 558.5C863.5 566.5 854.5 566.5 854.5 558.5 854.5 550.5 863.5 550.5 863.5 558.5" stroke="#DE77AE" stroke-width="0.944357" stroke-linecap="round" stroke-linejoin="round" stroke-miterlimit="10" fill="#DE77AE" fill-rule="evenodd"/><path d="M893.5 540.496C893.5 548.502 885.5 548.502 885.5 540.496 885.5 532.502 893.5 532.502 893.5 540.496" stroke="#DE77AE" stroke-width="0.944357" stroke-linecap="round" stroke-linejoin="round" stroke-miterlimit="10" fill="#DE77AE" fill-rule="evenodd"/><path d="M924.5 528.496C924.5 536.502 915.5 536.502 915.5 528.496 915.5 520.502 924.5 520.502 924.5 528.496" stroke="#DE77AE" stroke-width="0.944357" stroke-linecap="round" stroke-linejoin="round" stroke-miterlimit="10" fill="#DE77AE" fill-rule="evenodd"/><path d="M954.5 511.505C954.5 519.499 946.5 519.499 946.5 511.505 946.5 503.499 954.5 503.499 954.5 511.505" stroke="#DE77AE" stroke-width="0.944357" stroke-linecap="round" stroke-linejoin="round" stroke-miterlimit="10" fill="#DE77AE" fill-rule="evenodd"/><path d="M985.5 493.505C985.5 501.499 976.5 501.499 976.5 493.505 976.5 485.499 985.5 485.499 985.5 493.505" stroke="#DE77AE" stroke-width="0.944357" stroke-linecap="round" stroke-linejoin="round" stroke-miterlimit="10" fill="#DE77AE" fill-rule="evenodd"/><path d="M1015.5 475.5C1015.5 483.5 1007.5 483.5 1007.5 475.5 1007.5 467.5 1015.5 467.5 1015.5 475.5" stroke="#DE77AE" stroke-width="0.944357" stroke-linecap="round" stroke-linejoin="round" stroke-miterlimit="10" fill="#DE77AE" fill-rule="evenodd"/><path d="M1046.5 458.5C1046.5 466.5 1037.5 466.5 1037.5 458.5 1037.5 450.5 1046.5 450.5 1046.5 458.5" stroke="#DE77AE" stroke-width="0.944357" stroke-linecap="round" stroke-linejoin="round" stroke-miterlimit="10" fill="#DE77AE" fill-rule="evenodd"/><path d="M1076.5 434.5C1076.5 442.5 1068.5 442.5 1068.5 434.5 1068.5 426.5 1076.5 426.5 1076.5 434.5" stroke="#DE77AE" stroke-width="0.944357" stroke-linecap="round" stroke-linejoin="round" stroke-miterlimit="10" fill="#DE77AE" fill-rule="evenodd"/><path d="M1107.5 403.496C1107.5 411.502 1098.5 411.502 1098.5 403.496 1098.5 395.501 1107.5 395.501 1107.5 403.496" stroke="#DE77AE" stroke-width="0.944357" stroke-linecap="round" stroke-linejoin="round" stroke-miterlimit="10" fill="#DE77AE" fill-rule="evenodd"/><path d="M1137.5 387.5C1137.5 395.5 1129.5 395.5 1129.5 387.5 1129.5 379.5 1137.5 379.5 1137.5 387.5" stroke="#DE77AE" stroke-width="0.944357" stroke-linecap="round" stroke-linejoin="round" stroke-miterlimit="10" fill="#DE77AE" fill-rule="evenodd"/><path d="M1168.5 356.5C1168.5 364.5 1159.5 364.5 1159.5 356.5 1159.5 348.5 1168.5 348.5 1168.5 356.5" stroke="#DE77AE" stroke-width="0.944357" stroke-linecap="round" stroke-linejoin="round" stroke-miterlimit="10" fill="#DE77AE" fill-rule="evenodd"/><path d="M741.5 605.5C741.5 613.5 732.5 613.5 732.5 605.5 732.5 597.5 741.5 597.5 741.5 605.5" stroke="#FEB24C" stroke-width="0.944357" stroke-linecap="round" stroke-linejoin="round" stroke-miterlimit="10" fill="#FEB24C" fill-rule="evenodd"/><path d="M771.5 605.5C771.5 613.5 763.5 613.5 763.5 605.5 763.5 597.5 771.5 597.5 771.5 605.5" stroke="#FEB24C" stroke-width="0.944357" stroke-linecap="round" stroke-linejoin="round" stroke-miterlimit="10" fill="#FEB24C" fill-rule="evenodd"/><path d="M802.5 575.5C802.5 583.5 793.5 583.5 793.5 575.5 793.5 567.5 802.5 567.5 802.5 575.5" stroke="#FEB24C" stroke-width="0.944357" stroke-linecap="round" stroke-linejoin="round" stroke-miterlimit="10" fill="#FEB24C" fill-rule="evenodd"/><path d="M832.5 564.5C832.5 572.5 824.5 572.5 824.5 564.5 824.5 556.5 832.5 556.5 832.5 564.5" stroke="#FEB24C" stroke-width="0.944357" stroke-linecap="round" stroke-linejoin="round" stroke-miterlimit="10" fill="#FEB24C" fill-rule="evenodd"/><path d="M863.5 546.496C863.5 554.502 854.5 554.502 854.5 546.496 854.5 538.502 863.5 538.502 863.5 546.496" stroke="#FEB24C" stroke-width="0.944357" stroke-linecap="round" stroke-linejoin="round" stroke-miterlimit="10" fill="#FEB24C" fill-rule="evenodd"/><path d="M893.5 534.496C893.5 542.502 885.5 542.502 885.5 534.496 885.5 526.502 893.5 526.502 893.5 534.496" stroke="#FEB24C" stroke-width="0.944357" stroke-linecap="round" stroke-linejoin="round" stroke-miterlimit="10" fill="#FEB24C" fill-rule="evenodd"/><path d="M924.5 517.505C924.5 525.499 915.5 525.499 915.5 517.505 915.5 509.499 924.5 509.499 924.5 517.505" stroke="#FEB24C" stroke-width="0.944357" stroke-linecap="round" stroke-linejoin="round" stroke-miterlimit="10" fill="#FEB24C" fill-rule="evenodd"/><path d="M954.5 493.505C954.5 501.499 946.5 501.499 946.5 493.505 946.5 485.499 954.5 485.499 954.5 493.505" stroke="#FEB24C" stroke-width="0.944357" stroke-linecap="round" stroke-linejoin="round" stroke-miterlimit="10" fill="#FEB24C" fill-rule="evenodd"/><path d="M985.5 475.5C985.5 483.5 976.5 483.5 976.5 475.5 976.5 467.5 985.5 467.5 985.5 475.5" stroke="#FEB24C" stroke-width="0.944357" stroke-linecap="round" stroke-linejoin="round" stroke-miterlimit="10" fill="#FEB24C" fill-rule="evenodd"/><path d="M1015.5 458.5C1015.5 466.5 1007.5 466.5 1007.5 458.5 1007.5 450.5 1015.5 450.5 1015.5 458.5" stroke="#FEB24C" stroke-width="0.944357" stroke-linecap="round" stroke-linejoin="round" stroke-miterlimit="10" fill="#FEB24C" fill-rule="evenodd"/><path d="M1046.5 434.5C1046.5 442.5 1037.5 442.5 1037.5 434.5 1037.5 426.5 1046.5 426.5 1046.5 434.5" stroke="#FEB24C" stroke-width="0.944357" stroke-linecap="round" stroke-linejoin="round" stroke-miterlimit="10" fill="#FEB24C" fill-rule="evenodd"/><path d="M1076.5 403.496C1076.5 411.502 1068.5 411.502 1068.5 403.496 1068.5 395.501 1076.5 395.501 1076.5 403.496" stroke="#FEB24C" stroke-width="0.944357" stroke-linecap="round" stroke-linejoin="round" stroke-miterlimit="10" fill="#FEB24C" fill-rule="evenodd"/><path d="M1107.5 387.5C1107.5 395.5 1098.5 395.5 1098.5 387.5 1098.5 379.5 1107.5 379.5 1107.5 387.5" stroke="#FEB24C" stroke-width="0.944357" stroke-linecap="round" stroke-linejoin="round" stroke-miterlimit="10" fill="#FEB24C" fill-rule="evenodd"/><path d="M1137.5 356.5C1137.5 364.5 1129.5 364.5 1129.5 356.5 1129.5 348.5 1137.5 348.5 1137.5 356.5" stroke="#FEB24C" stroke-width="0.944357" stroke-linecap="round" stroke-linejoin="round" stroke-miterlimit="10" fill="#FEB24C" fill-rule="evenodd"/><path d="M1168.5 341.505C1168.5 349.499 1159.5 349.499 1159.5 341.505 1159.5 333.499 1168.5 333.499 1168.5 341.505" stroke="#FEB24C" stroke-width="0.944357" stroke-linecap="round" stroke-linejoin="round" stroke-miterlimit="10" fill="#FEB24C" fill-rule="evenodd"/><path d="M741.5 605.5C741.5 613.5 732.5 613.5 732.5 605.5 732.5 597.5 741.5 597.5 741.5 605.5" stroke="#8C510A" stroke-width="0.944357" stroke-linecap="round" stroke-linejoin="round" stroke-miterlimit="10" fill="#8C510A" fill-rule="evenodd"/><path d="M771.5 575.5C771.5 583.5 763.5 583.5 763.5 575.5 763.5 567.5 771.5 567.5 771.5 575.5" stroke="#8C510A" stroke-width="0.944357" stroke-linecap="round" stroke-linejoin="round" stroke-miterlimit="10" fill="#8C510A" fill-rule="evenodd"/><path d="M802.5 564.5C802.5 572.5 793.5 572.5 793.5 564.5 793.5 556.5 802.5 556.5 802.5 564.5" stroke="#8C510A" stroke-width="0.944357" stroke-linecap="round" stroke-linejoin="round" stroke-miterlimit="10" fill="#8C510A" fill-rule="evenodd"/><path d="M832.5 540.496C832.5 548.502 824.5 548.502 824.5 540.496 824.5 532.502 832.5 532.502 832.5 540.496" stroke="#8C510A" stroke-width="0.944357" stroke-linecap="round" stroke-linejoin="round" stroke-miterlimit="10" fill="#8C510A" fill-rule="evenodd"/><path d="M863.5 528.496C863.5 536.502 854.5 536.502 854.5 528.496 854.5 520.502 863.5 520.502 863.5 528.496" stroke="#8C510A" stroke-width="0.944357" stroke-linecap="round" stroke-linejoin="round" stroke-miterlimit="10" fill="#8C510A" fill-rule="evenodd"/><path d="M893.5 511.505C893.5 519.499 885.5 519.499 885.5 511.505 885.5 503.499 893.5 503.499 893.5 511.505" stroke="#8C510A" stroke-width="0.944357" stroke-linecap="round" stroke-linejoin="round" stroke-miterlimit="10" fill="#8C510A" fill-rule="evenodd"/><path d="M924.5 493.505C924.5 501.499 915.5 501.499 915.5 493.505 915.5 485.499 924.5 485.499 924.5 493.505" stroke="#8C510A" stroke-width="0.944357" stroke-linecap="round" stroke-linejoin="round" stroke-miterlimit="10" fill="#8C510A" fill-rule="evenodd"/><path d="M954.5 470.5C954.5 478.5 946.5 478.5 946.5 470.5 946.5 462.5 954.5 462.5 954.5 470.5" stroke="#8C510A" stroke-width="0.944357" stroke-linecap="round" stroke-linejoin="round" stroke-miterlimit="10" fill="#8C510A" fill-rule="evenodd"/><path d="M985.5 452.5C985.5 460.5 976.5 460.5 976.5 452.5 976.5 444.5 985.5 444.5 985.5 452.5" stroke="#8C510A" stroke-width="0.944357" stroke-linecap="round" stroke-linejoin="round" stroke-miterlimit="10" fill="#8C510A" fill-rule="evenodd"/><path d="M1015.5 428.5C1015.5 436.5 1007.5 436.5 1007.5 428.5 1007.5 420.5 1015.5 420.5 1015.5 428.5" stroke="#8C510A" stroke-width="0.944357" stroke-linecap="round" stroke-linejoin="round" stroke-miterlimit="10" fill="#8C510A" fill-rule="evenodd"/><path d="M1046.5 405.496C1046.5 413.502 1037.5 413.502 1037.5 405.496 1037.5 397.501 1046.5 397.501 1046.5 405.496" stroke="#8C510A" stroke-width="0.944357" stroke-linecap="round" stroke-linejoin="round" stroke-miterlimit="10" fill="#8C510A" fill-rule="evenodd"/><path d="M1076.5 372.496C1076.5 380.502 1068.5 380.502 1068.5 372.496 1068.5 364.501 1076.5 364.501 1076.5 372.496" stroke="#8C510A" stroke-width="0.944357" stroke-linecap="round" stroke-linejoin="round" stroke-miterlimit="10" fill="#8C510A" fill-rule="evenodd"/><path d="M1107.5 356.5C1107.5 364.5 1098.5 364.5 1098.5 356.5 1098.5 348.5 1107.5 348.5 1107.5 356.5" stroke="#8C510A" stroke-width="0.944357" stroke-linecap="round" stroke-linejoin="round" stroke-miterlimit="10" fill="#8C510A" fill-rule="evenodd"/><path d="M1137.5 325.5C1137.5 333.5 1129.5 333.5 1129.5 325.5 1129.5 317.5 1137.5 317.5 1137.5 325.5" stroke="#8C510A" stroke-width="0.944357" stroke-linecap="round" stroke-linejoin="round" stroke-miterlimit="10" fill="#8C510A" fill-rule="evenodd"/><path d="M1168.5 294.496C1168.5 302.502 1159.5 302.502 1159.5 294.496 1159.5 286.501 1168.5 286.501 1168.5 294.496" stroke="#8C510A" stroke-width="0.944357" stroke-linecap="round" stroke-linejoin="round" stroke-miterlimit="10" fill="#8C510A" fill-rule="evenodd"/><path d="M715.5 621.5 715.5 274.5" stroke="#000000" stroke-width="1.42184" stroke-linecap="square" stroke-linejoin="round" stroke-miterlimit="10" fill="none" fill-rule="evenodd"/><path d="M727.5 605.5 715.5 605.5" stroke="#000000" stroke-width="1.42184" stroke-linejoin="round" stroke-miterlimit="10" fill="none" fill-rule="evenodd"/><path d="M727.5 553.5 715.5 553.5" stroke="#000000" stroke-width="1.42184" stroke-linejoin="round" stroke-miterlimit="10" fill="none" fill-rule="evenodd"/><path d="M727.5 502.5 715.5 502.5" stroke="#000000" stroke-width="1.42184" stroke-linejoin="round" stroke-miterlimit="10" fill="none" fill-rule="evenodd"/><path d="M727.5 450.5 715.5 450.5" stroke="#000000" stroke-width="1.42184" stroke-linejoin="round" stroke-miterlimit="10" fill="none" fill-rule="evenodd"/><path d="M727.5 398.5 715.5 398.5" stroke="#000000" stroke-width="1.42184" stroke-linejoin="round" stroke-miterlimit="10" fill="none" fill-rule="evenodd"/><path d="M727.5 347.5 715.5 347.5" stroke="#000000" stroke-width="1.42184" stroke-linejoin="round" stroke-miterlimit="10" fill="none" fill-rule="evenodd"/><path d="M727.5 295.5 715.5 295.5" stroke="#000000" stroke-width="1.42184" stroke-linejoin="round" stroke-miterlimit="10" fill="none" fill-rule="evenodd"/><path d="M715.5 621.5 1185.5 621.5" stroke="#000000" stroke-width="1.42184" stroke-linecap="square" stroke-linejoin="round" stroke-miterlimit="10" fill="none" fill-rule="evenodd"/><path d="M737.5 603.5 737.5 621.5" stroke="#000000" stroke-width="1.42184" stroke-linejoin="round" stroke-miterlimit="10" fill="none" fill-rule="evenodd"/><path d="M798.5 603.5 798.5 621.5" stroke="#000000" stroke-width="1.42184" stroke-linejoin="round" stroke-miterlimit="10" fill="none" fill-rule="evenodd"/><path d="M859.5 603.5 859.5 621.5" stroke="#000000" stroke-width="1.42184" stroke-linejoin="round" stroke-miterlimit="10" fill="none" fill-rule="evenodd"/><path d="M920.5 603.5 920.5 621.5" stroke="#000000" stroke-width="1.42184" stroke-linejoin="round" stroke-miterlimit="10" fill="none" fill-rule="evenodd"/><path d="M981.5 603.5 981.5 621.5" stroke="#000000" stroke-width="1.42184" stroke-linejoin="round" stroke-miterlimit="10" fill="none" fill-rule="evenodd"/><path d="M1042.5 603.5 1042.5 621.5" stroke="#000000" stroke-width="1.42184" stroke-linejoin="round" stroke-miterlimit="10" fill="none" fill-rule="evenodd"/><path d="M1103.5 603.5 1103.5 621.5" stroke="#000000" stroke-width="1.42184" stroke-linejoin="round" stroke-miterlimit="10" fill="none" fill-rule="evenodd"/><path d="M1164.5 603.5 1164.5 621.5" stroke="#000000" stroke-width="1.42184" stroke-linejoin="round" stroke-miterlimit="10" fill="none" fill-rule="evenodd"/><text fill="#4B5E68" font-family="Arial,Arial_MSFontService,sans-serif" font-weight="400" font-size="21" transform="translate(671.126 611)">10</text><text fill="#4B5E68" font-family="Arial,Arial_MSFontService,sans-serif" font-weight="400" font-size="14" transform="translate(694.792 605)">0</text><text fill="#4B5E68" font-family="Arial,Arial_MSFontService,sans-serif" font-weight="400" font-size="21" transform="translate(671.126 514)">10</text><text fill="#4B5E68" font-family="Arial,Arial_MSFontService,sans-serif" font-weight="400" font-size="14" transform="translate(694.792 508)">2</text><text fill="#4B5E68" font-family="Arial,Arial_MSFontService,sans-serif" font-weight="400" font-size="21" transform="translate(671.126 412)">10</text><text fill="#4B5E68" font-family="Arial,Arial_MSFontService,sans-serif" font-weight="400" font-size="14" transform="translate(694.792 406)">4</text><text fill="#4B5E68" font-family="Arial,Arial_MSFontService,sans-serif" font-weight="400" font-size="21" transform="translate(671.126 309)">10</text><text fill="#4B5E68" font-family="Arial,Arial_MSFontService,sans-serif" font-weight="400" font-size="14" transform="translate(694.792 303)">6</text><text fill="#4B5E68" font-family="Arial,Arial_MSFontService,sans-serif" font-style="italic" font-weight="400" font-size="21" transform="matrix(-1.83697e-16 -1 1 -1.83697e-16 662.446 456)">I</text><text fill="#4B5E68" font-family="Arial,Arial_MSFontService,sans-serif" font-weight="400" font-size="14" transform="matrix(-1.83697e-16 -1 1 -1.83697e-16 666.446 450)">shed</text><text fill="#4B5E68" font-family="Arial,Arial_MSFontService,sans-serif" font-weight="400" font-size="21" transform="translate(722.336 651)">0.1</text><text fill="#4B5E68" font-family="Arial,Arial_MSFontService,sans-serif" font-weight="400" font-size="21" transform="translate(787.085 651)">0.3</text><text fill="#4B5E68" font-family="Arial,Arial_MSFontService,sans-serif" font-weight="400" font-size="21" transform="translate(845.697 651)">0.5</text><text fill="#4B5E68" font-family="Arial,Arial_MSFontService,sans-serif" font-weight="400" font-size="21" transform="translate(901.569 651)">0.7</text><text fill="#4B5E68" font-family="Arial,Arial_MSFontService,sans-serif" font-weight="400" font-size="21" transform="translate(965.92 651)">0.9</text><text fill="#4B5E68" font-family="Arial,Arial_MSFontService,sans-serif" font-weight="400" font-size="21" transform="translate(1024.99 651)">1.1</text><text fill="#4B5E68" font-family="Arial,Arial_MSFontService,sans-serif" font-weight="400" font-size="21" transform="translate(1086.14 651)">1.3</text><text fill="#4B5E68" font-family="Arial,Arial_MSFontService,sans-serif" font-weight="400" font-size="21" transform="translate(1141.99 651)">1.5</text><text fill="#4B5E68" font-family="Arial,Arial_MSFontService,sans-serif" font-weight="400" font-size="21" transform="translate(824.63 681)">Shedding load variability, σ</text><text fill="#4B5E68" font-family="Arial,Arial_MSFontService,sans-serif" font-weight="400" font-size="14" transform="translate(1078.88 685)">v</text><text font-family="Arial,Arial_MSFontService,sans-serif" font-weight="400" font-size="21" transform="translate(1155.73 329)">&lt;</text><text fill="#E46C0A" font-family="Arial,Arial_MSFontService,sans-serif" font-weight="400" font-size="21" transform="translate(1168.23 329)">10%</text><text font-family="Arial,Arial_MSFontService,sans-serif" font-weight="400" font-size="21" transform="translate(1167.56 271)">&lt;</text><text fill="#984807" font-family="Arial,Arial_MSFontService,sans-serif" font-weight="400" font-size="21" transform="translate(1180.06 271)">5%</text><text font-family="Arial,Arial_MSFontService,sans-serif" font-weight="400" font-size="21" transform="translate(1155.7 437)">&lt;</text><text fill="#31859C" font-family="Arial,Arial_MSFontService,sans-serif" font-weight="400" font-size="21" transform="translate(1168.2 437)">30%</text><text font-family="Arial,Arial_MSFontService,sans-serif" font-weight="400" font-size="21" transform="translate(1155.7 390)">&lt;</text><text fill="#E485A5" font-family="Arial,Arial_MSFontService,sans-serif" font-weight="400" font-size="21" transform="translate(1168.2 390)">15%</text><text font-family="Arial,Arial_MSFontService,sans-serif" font-weight="400" font-size="21" transform="translate(1155.66 487)">&lt;</text><text fill="#007033" font-family="Arial,Arial_MSFontService,sans-serif" font-weight="400" font-size="21" transform="translate(1168.16 487)">50%</text><text fill="#4B5E68" font-family="Arial,Arial_MSFontService,sans-serif" font-style="italic" font-weight="400" font-size="24" transform="translate(1015.06 268)">Relative error</text><text fill="#4B5E68" font-family="Cambria Math,Cambria Math_MSFontService,sans-serif" font-weight="400" font-size="24" transform="translate(240.547 387)">𝑙𝑜𝑔</text><text fill="#4B5E68" font-family="Cambria Math,Cambria Math_MSFontService,sans-serif" font-weight="400" font-size="18" transform="translate(274.174 392)">10</text><text fill="#4B5E68" font-family="Cambria Math,Cambria Math_MSFontService,sans-serif" font-weight="400" font-size="24" transform="translate(295.5 387)">(</text><text fill="#4B5E68" font-family="Cambria Math,Cambria Math_MSFontService,sans-serif" font-weight="400" font-size="24" transform="translate(305.5 387)">𝐴</text><text fill="#4B5E68" font-family="Cambria Math,Cambria Math_MSFontService,sans-serif" font-weight="400" font-size="18" transform="translate(320.667 392)">𝑖</text><text fill="#4B5E68" font-family="Cambria Math,Cambria Math_MSFontService,sans-serif" font-weight="400" font-size="24" transform="translate(328.427 387)">)</text><text fill="#4B5E68" font-family="Cambria Math,Cambria Math_MSFontService,sans-serif" font-weight="400" font-size="24" transform="translate(338.427 387)"></text><text fill="#4B5E68" font-family="Cambria Math,Cambria Math_MSFontService,sans-serif" font-weight="400" font-size="24" transform="translate(343.76 387)"></text><text fill="#4B5E68" font-family="Cambria Math,Cambria Math_MSFontService,sans-serif" font-weight="400" font-size="24" transform="translate(349.094 387)">~</text><text fill="#4B5E68" font-family="Cambria Math,Cambria Math_MSFontService,sans-serif" font-weight="400" font-size="24" transform="translate(366.26 387)"></text><text fill="#4B5E68" font-family="Cambria Math,Cambria Math_MSFontService,sans-serif" font-weight="400" font-size="24" transform="translate(371.594 387)"></text><text fill="#4B5E68" font-family="Cambria Math,Cambria Math_MSFontService,sans-serif" font-weight="400" font-size="24" transform="translate(376.927 387)">𝑁</text><path d="M454.635 369.071C456.917 369.673 458.669 370.971 459.891 372.967 461.114 374.964 461.725 377.372 461.725 380.192 461.725 383.02 461.116 385.428 459.897 387.417 458.678 389.405 456.924 390.7 454.635 391.301L454.354 390.399C456.159 389.798 457.501 388.61 458.38 386.837 459.258 385.063 459.698 382.809 459.698 380.075 459.698 377.434 459.26 375.241 458.385 373.495 457.51 371.749 456.155 370.575 454.319 369.973ZM404.213 369.071 404.529 369.973C402.701 370.575 401.348 371.749 400.469 373.495 399.59 375.241 399.15 377.434 399.15 380.075 399.15 382.809 399.59 385.063 400.469 386.837 401.348 388.61 402.689 389.798 404.494 390.399L404.213 391.301C401.924 390.7 400.17 389.405 398.951 387.417 397.732 385.428 397.123 383.02 397.123 380.192 397.123 377.372 397.734 374.964 398.957 372.967 400.18 370.971 401.932 369.673 404.213 369.071Z" fill="#4B5E68" fill-rule="evenodd"/><text fill="#4B5E68" font-family="Cambria Math,Cambria Math_MSFontService,sans-serif" font-weight="400" font-size="24" transform="translate(404.974 387)">5</text><text fill="#4B5E68" font-family="Cambria Math,Cambria Math_MSFontService,sans-serif" font-weight="400" font-size="24" transform="translate(418.307 387)">,</text><text fill="#4B5E68" font-family="Cambria Math,Cambria Math_MSFontService,sans-serif" font-weight="400" font-size="24" transform="translate(427.307 387)">𝜎</text><text fill="#4B5E68" font-family="Cambria Math,Cambria Math_MSFontService,sans-serif" font-weight="400" font-size="18" transform="translate(439.667 392)">𝑣</text><text fill="#4B5E68" font-family="Cambria Math,Cambria Math_MSFontService,sans-serif" font-weight="400" font-size="18" transform="translate(442.714 378)">2</text><text fill="#4B5E68" font-family="Cambria Math,Cambria Math_MSFontService,sans-serif" font-weight="400" font-size="24" transform="translate(463.834 387)"></text><text fill="#4B5E68" font-family="Cambria Math,Cambria Math_MSFontService,sans-serif" font-weight="400" font-size="24" transform="translate(469.167 387)"></text><text fill="#4B5E68" font-family="Cambria Math,Cambria Math_MSFontService,sans-serif" font-weight="400" font-size="24" transform="translate(474.5 387)"></text><text fill="#4B5E68" font-family="Cambria Math,Cambria Math_MSFontService,sans-serif" font-weight="400" font-size="24" transform="translate(479.834 387)"></text><text fill="#4B5E68" font-family="Cambria Math,Cambria Math_MSFontService,sans-serif" font-weight="400" font-size="24" transform="translate(485.167 387)"></text><text fill="#4B5E68" font-family="Cambria Math,Cambria Math_MSFontService,sans-serif" font-weight="400" font-size="24" transform="translate(490.5 387)"></text><text fill="#4B5E68" font-family="Cambria Math,Cambria Math_MSFontService,sans-serif" font-weight="400" font-size="24" transform="translate(495.834 387)"></text><text fill="#4B5E68" font-family="Arial,Arial_MSFontService,sans-serif" font-weight="400" font-size="24" transform="translate(102.292 587)">3. Compare with population</text><text fill="#4B5E68" font-family="Arial,Arial_MSFontService,sans-serif" font-weight="400" font-size="24" transform="translate(394.292 587)">-</text><text fill="#4B5E68" font-family="Arial,Arial_MSFontService,sans-serif" font-weight="400" font-size="24" transform="translate(402.292 587)">level mean</text><text fill="#4B5E68" font-family="Cambria Math,Cambria Math_MSFontService,sans-serif" font-weight="400" font-size="24" transform="translate(226.122 507)">μ</text><text fill="#4B5E68" font-family="Cambria Math,Cambria Math_MSFontService,sans-serif" font-weight="400" font-size="18" transform="translate(239.289 511)">𝑠𝑎𝑚𝑝𝑙𝑒</text><text fill="#4B5E68" font-family="Cambria Math,Cambria Math_MSFontService,sans-serif" font-weight="400" font-size="24" transform="translate(309.976 507)">=</text><text fill="#4B5E68" font-family="Cambria Math,Cambria Math_MSFontService,sans-serif" font-weight="400" font-size="24" transform="translate(331.309 507)"></text><text fill="#4B5E68" font-family="Cambria Math,Cambria Math_MSFontService,sans-serif" font-weight="400" font-size="24" transform="translate(340.429 488)">1</text><text fill="#4B5E68" font-family="Cambria Math,Cambria Math_MSFontService,sans-serif" font-weight="400" font-size="24" transform="translate(339.976 523)">𝑛</text><path d="M340.209 498.526 354.209 498.526 354.209 500.526 340.209 500.526Z" fill="#4B5E68" fill-rule="evenodd"/><path d="M5.47266-28.2305 19.4531-9.24609 19.4531-7.82812 4.35938 12.6562 24.6914 12.6562C25.5898 12.6562 26.2773 12.3398 26.7539 11.707 27.2305 11.0742 27.6406 9.66016 27.9844 7.46484L29.7188 7.46484 29.1211 16.0547 0.304688 16.0547 0.304688 14.8945 16.7227-7.35938 0.785156-28.6523 0.785156-29.7656 29.0859-29.7656 29.0859-22.8281 27.5391-22.8281C27.3594-24.4922 26.9961-25.8086 26.4492-26.7773 25.9023-27.7461 25.0742-28.2305 23.9648-28.2305Z" fill="#4B5E68" transform="translate(358.222 507)"/><text fill="#000000" fill-opacity="0" font-family="Arial,Arial_MSFontService,sans-serif" font-size="45.8203" x="0.304688" y="10.3271">෍</text><text fill="#4B5E68" font-family="Cambria Math,Cambria Math_MSFontService,sans-serif" font-weight="400" font-size="24" transform="translate(394.036 507)">𝐴</text><text fill="#4B5E68" font-family="Cambria Math,Cambria Math_MSFontService,sans-serif" font-weight="400" font-size="18" transform="translate(409.202 511)">𝑖</text><text fill="#4B5E68" font-family="Cambria Math,Cambria Math_MSFontService,sans-serif" font-weight="400" font-size="18" transform="translate(368.309 471)">𝑛</text><text fill="#4B5E68" font-family="Cambria Math,Cambria Math_MSFontService,sans-serif" font-weight="400" font-size="18" transform="translate(359.329 537)">𝑖</text><text fill="#4B5E68" font-family="Cambria Math,Cambria Math_MSFontService,sans-serif" font-weight="400" font-size="18" transform="translate(366.096 537)">=</text><text fill="#4B5E68" font-family="Cambria Math,Cambria Math_MSFontService,sans-serif" font-weight="400" font-size="18" transform="translate(378.762 537)">1</text><text fill="#4B5E68" font-family="Arial,Arial_MSFontService,sans-serif" font-weight="400" font-size="24" transform="translate(102.292 445)">2. Calculate samples mean</text><text fill="#4B5E68" font-family="Cambria Math,Cambria Math_MSFontService,sans-serif" font-weight="400" font-size="24" transform="translate(159.396 654)">𝑅𝑒𝑙𝑎𝑡𝑖𝑣𝑒</text><text fill="#4B5E68" font-family="Cambria Math,Cambria Math_MSFontService,sans-serif" font-weight="400" font-size="24" transform="translate(249.922 654)"></text><text fill="#4B5E68" font-family="Cambria Math,Cambria Math_MSFontService,sans-serif" font-weight="400" font-size="24" transform="translate(255.256 654)">𝑒𝑟𝑟𝑜𝑟</text><text fill="#4B5E68" font-family="Cambria Math,Cambria Math_MSFontService,sans-serif" font-weight="400" font-size="24" transform="translate(321.116 654)">=</text><text fill="#4B5E68" font-family="Cambria Math,Cambria Math_MSFontService,sans-serif" font-weight="400" font-size="24" transform="translate(342.449 654)"></text><text fill="#4B5E68" font-family="Cambria Math,Cambria Math_MSFontService,sans-serif" font-weight="400" font-size="24" transform="translate(351.116 636)">μ</text><text fill="#4B5E68" font-family="Cambria Math,Cambria Math_MSFontService,sans-serif" font-weight="400" font-size="18" transform="translate(364.282 640)">𝑝𝑜𝑝</text><text fill="#4B5E68" font-family="Cambria Math,Cambria Math_MSFontService,sans-serif" font-weight="400" font-size="24" transform="translate(403.156 636)">−</text><text fill="#4B5E68" font-family="Cambria Math,Cambria Math_MSFontService,sans-serif" font-weight="400" font-size="24" transform="translate(426.489 636)">μ</text><text fill="#4B5E68" font-family="Cambria Math,Cambria Math_MSFontService,sans-serif" font-weight="400" font-size="18" transform="translate(439.656 640)">𝑠𝑎𝑚𝑝𝑙𝑒</text><text fill="#4B5E68" font-family="Cambria Math,Cambria Math_MSFontService,sans-serif" font-weight="400" font-size="24" transform="translate(404.042 671)">μ</text><text fill="#4B5E68" font-family="Cambria Math,Cambria Math_MSFontService,sans-serif" font-weight="400" font-size="18" transform="translate(417.209 675)">𝑝𝑜𝑝</text><path d="M350.622 646.479 427.122 646.479 503.622 646.479 503.622 648.479 427.122 648.479 350.622 648.479Z" fill="#4B5E68" fill-rule="evenodd"/><text fill="#4B5E68" font-family="Cambria Math,Cambria Math_MSFontService,sans-serif" font-weight="400" font-size="24" transform="translate(506.342 654)"></text><text fill="#4B5E68" font-family="Cambria Math,Cambria Math_MSFontService,sans-serif" font-weight="400" font-size="24" transform="translate(511.676 654)"></text><text fill="#4B5E68" font-family="Cambria Math,Cambria Math_MSFontService,sans-serif" font-weight="400" font-size="24" transform="translate(519.676 654)">×</text><text fill="#4B5E68" font-family="Cambria Math,Cambria Math_MSFontService,sans-serif" font-weight="400" font-size="24" transform="translate(542.176 654)">100</text><text fill="#4B5E68" font-family="Arial,Arial_MSFontService,sans-serif" font-weight="400" font-size="24" transform="translate(102.292 312)">1. Draw</text><text fill="#4B5E68" font-family="Arial,Arial_MSFontService,sans-serif" font-style="italic" font-weight="400" font-size="24" transform="translate(191.625 312)">n</text><text fill="#4B5E68" font-family="Arial,Arial_MSFontService,sans-serif" font-weight="400" font-size="24" transform="translate(211.625 312)">samples from the distribution</text><text fill="#FFFFFF" font-family="Arial,Arial_MSFontService,sans-serif" font-weight="400" font-size="24" transform="translate(164.106 347)">‘(</text><text fill="#4B5E68" font-family="Arial,Arial_MSFontService,sans-serif" font-style="italic" font-weight="400" font-size="24" transform="translate(184.106 347)">(n</text><text fill="#4B5E68" font-family="Arial,Arial_MSFontService,sans-serif" font-weight="400" font-size="24" transform="translate(212.106 347)">corresponds to</text><text fill="#4B5E68" font-family="Arial,Arial_MSFontService,sans-serif" font-style="italic" font-weight="400" font-size="24" transform="translate(377.439 347)">I</text><text fill="#4B5E68" font-family="Arial,Arial_MSFontService,sans-serif" font-weight="400" font-size="16" transform="translate(384.106 352)">shed</text><text fill="#4B5E68" font-family="Arial,Arial_MSFontService,sans-serif" font-weight="400" font-size="24" transform="translate(418.606 347)">)</text><text fill="#4B5E68" font-family="Arial,Arial_MSFontService,sans-serif" font-weight="400" font-size="24" transform="translate(80.4518 137)">Apporximately 3,000 infected individuals are required to keep the relative error below 15%,</text><text fill="#4B5E68" font-family="Arial,Arial_MSFontService,sans-serif" font-weight="400" font-size="24" transform="translate(1048.45 137)">if σ</text><text fill="#4B5E68" font-family="Arial,Arial_MSFontService,sans-serif" font-weight="400" font-size="16" transform="translate(1081.95 142)">v</text><text fill="#4B5E68" font-family="Arial,Arial_MSFontService,sans-serif" font-weight="400" font-size="24" transform="translate(1096.62 137)">= 1.2.</text><text fill="#4B5E68" font-family="Arial,Arial_MSFontService,sans-serif" font-weight="400" font-size="24" transform="translate(75.1118 198)">Results highlight the importance of accounting for shedding load variability in wastewater</text><text fill="#4B5E68" font-family="Arial,Arial_MSFontService,sans-serif" font-weight="400" font-size="24" transform="translate(1016.45 198)">-</text><text fill="#4B5E68" font-family="Arial,Arial_MSFontService,sans-serif" font-weight="400" font-size="24" transform="translate(1024.45 198)">based estimation.</text><text fill="#4B5E68" font-family="Wingdings,Wingdings_MSFontService,sans-serif" font-weight="400" font-size="24" transform="translate(75.1118 267)"></text><text fill="#4B5E68" font-family="Arial,Arial_MSFontService,sans-serif" font-weight="400" font-size="24" transform="translate(105.112 267)">Simulation analysis</text><path d="M105.112 269.292 173.445 269.292 241.778 269.292 310.112 269.292 310.112 270.292 241.778 270.292 173.445 270.292 105.112 270.292Z" fill="#4B5E68" fill-rule="evenodd"/></g></svg>