<svg width="1282" height="723" xmlns="http://www.w3.org/2000/svg" xmlns:xlink="http://www.w3.org/1999/xlink" overflow="hidden"><g transform="translate(1 2)"><rect x="0" y="0" width="1280" height="720" fill="#FFFFFF"/><rect x="0.500053" y="0.500053" width="321" height="37" stroke="#7F7F7F" stroke-width="1.33333" stroke-miterlimit="8" fill="#D9D9D9"/><text fill="#A6A6A6" font-family="Arial,Arial_MSFontService,sans-serif" font-weight="700" font-size="21" transform="translate(98.3799 27)">Introduction</text><rect x="320.5" y="0.500053" width="321" height="37" stroke="#7F7F7F" stroke-width="1.33333" stroke-miterlimit="8" fill="#4B5E68"/><text fill="#FFFFFF" font-family="Arial,Arial_MSFontService,sans-serif" font-weight="700" font-size="21" transform="translate(376.718 27)">Materials &amp; Methods</text><rect x="639.5" y="0.500053" width="321" height="37" stroke="#7F7F7F" stroke-width="1.33333" stroke-miterlimit="8" fill="#D9D9D9"/><text fill="#A6A6A6" font-family="Arial,Arial_MSFontService,sans-serif" font-weight="700" font-size="21" transform="translate(690.449 27)">Results &amp; Discussion</text><rect x="959.5" y="0.500053" width="321" height="37" stroke="#7F7F7F" stroke-width="1.33333" stroke-miterlimit="8" fill="#D9D9D9"/><text fill="#A6A6A6" font-family="Arial,Arial_MSFontService,sans-serif" font-weight="700" font-size="21" transform="translate(1061.32 27)">Conclusion</text><rect x="799" y="321" width="441" height="379" fill="#FBF4D8"/><rect x="799" y="163" width="441" height="159" fill="#E0EBF6" fill-opacity="0.6"/><path d="M810.5 254C810.5 226.11 834.677 203.5 864.5 203.5 894.323 203.5 918.5 226.11 918.5 254 918.5 281.89 894.323 304.5 864.5 304.5 834.677 304.5 810.5 281.89 810.5 254Z" stroke="#000000" stroke-width="1.33333" stroke-miterlimit="8" stroke-dasharray="5.33333 4" fill="#E0EBF6" fill-rule="evenodd"/><path d="M964.5 254C964.5 226.11 988.901 203.5 1019 203.5 1049.1 203.5 1073.5 226.11 1073.5 254 1073.5 281.89 1049.1 304.5 1019 304.5 988.901 304.5 964.5 281.89 964.5 254Z" stroke="#264980" stroke-width="1.33333" stroke-miterlimit="8" fill="#DBEEF4" fill-rule="evenodd"/><path d="M1119.5 254C1119.5 226.11 1143.9 203.5 1174 203.5 1204.1 203.5 1228.5 226.11 1228.5 254 1228.5 281.89 1204.1 304.5 1174 304.5 1143.9 304.5 1119.5 281.89 1119.5 254Z" stroke="#000000" stroke-width="1.33333" stroke-miterlimit="8" stroke-dasharray="5.33333 4" fill="#E0EBF6" fill-rule="evenodd"/><path d="M963.5 633C963.5 605.11 987.901 582.5 1018 582.5 1048.1 582.5 1072.5 605.11 1072.5 633 1072.5 660.89 1048.1 683.5 1018 683.5 987.901 683.5 963.5 660.89 963.5 633Z" stroke="#000000" stroke-width="1.33333" stroke-miterlimit="8" fill="#EBC73B" fill-rule="evenodd"/><path d="M809.5 633C809.5 605.11 833.677 582.5 863.5 582.5 893.323 582.5 917.5 605.11 917.5 633 917.5 660.89 893.323 683.5 863.5 683.5 833.677 683.5 809.5 660.89 809.5 633Z" stroke="#000000" stroke-width="1.33333" stroke-miterlimit="8" stroke-dasharray="5.33333 4" fill="#F2F2F2" fill-rule="evenodd"/><path d="M1021 314 1021 342.49 1017 342.49 1017 314ZM1025 340.49 1019 352.49 1013 340.49Z" fill="#3261AB"/><path d="M1008 313 1008 544.437 1004 544.437 1004 313ZM1012 542.438 1006 554.438 1000 542.438Z" fill="#3261AB"/><path d="M1118.5 633C1118.5 605.11 1142.68 582.5 1172.5 582.5 1202.32 582.5 1226.5 605.11 1226.5 633 1226.5 660.89 1202.32 683.5 1172.5 683.5 1142.68 683.5 1118.5 660.89 1118.5 633Z" stroke="#000000" stroke-width="1.33333" stroke-miterlimit="8" stroke-dasharray="5.33333 4" fill="#F2F2F2" fill-rule="evenodd"/><path d="M866 314 866 342.49 862 342.49 862 314ZM870 340.49 864 352.49 858 340.49Z" fill="#595959"/><path d="M1175 314 1175 342.49 1171 342.49 1171 314ZM1179 340.49 1173 352.49 1167 340.49Z" fill="#595959"/><path d="M1076 251 1101.2 251 1101.2 255 1076 255ZM1099.2 247 1111.2 253 1099.2 259Z" fill="#3261AB"/><path d="M923 251 948.202 251 948.202 255 923 255ZM946.202 247 958.202 253 946.202 259Z" fill="#3261AB"/><text font-family="Arial,Arial_MSFontService,sans-serif" font-weight="400" font-size="19" transform="translate(996.682 639)">N</text><text font-family="Arial,Arial_MSFontService,sans-serif" font-weight="400" font-size="12" transform="translate(1010.18 643)">m</text><text font-family="Arial,Arial_MSFontService,sans-serif" font-weight="400" font-size="19" transform="translate(1020.52 639)">(t)</text><text font-family="Arial,Arial_MSFontService,sans-serif" font-weight="400" font-size="19" transform="translate(1139.2 639)">N</text><text font-family="Arial,Arial_MSFontService,sans-serif" font-weight="400" font-size="12" transform="translate(1152.7 643)">m</text><text font-family="Arial,Arial_MSFontService,sans-serif" font-weight="400" font-size="19" transform="translate(1166.53 639)">(t+1)</text><text font-family="Arial,Arial_MSFontService,sans-serif" font-weight="400" font-size="19" transform="translate(834.201 639)">N</text><text font-family="Arial,Arial_MSFontService,sans-serif" font-weight="400" font-size="12" transform="translate(847.701 643)">m</text><text font-family="Arial,Arial_MSFontService,sans-serif" font-weight="400" font-size="19" transform="translate(858.034 639)">(t</text><text font-family="Arial,Arial_MSFontService,sans-serif" font-weight="400" font-size="19" transform="translate(869.368 639)">-</text><text font-family="Arial,Arial_MSFontService,sans-serif" font-weight="400" font-size="19" transform="translate(875.534 639)">1)</text><text font-family="Arial,Arial_MSFontService,sans-serif" font-weight="400" font-size="19" transform="translate(1000.92 260)">W(t)</text><text font-family="Arial,Arial_MSFontService,sans-serif" font-weight="400" font-size="19" transform="translate(838.443 260)">W(t</text><text font-family="Arial,Arial_MSFontService,sans-serif" font-weight="400" font-size="19" transform="translate(867.443 260)">-</text><text font-family="Arial,Arial_MSFontService,sans-serif" font-weight="400" font-size="19" transform="translate(873.61 260)">1)</text><text font-family="Arial,Arial_MSFontService,sans-serif" font-weight="400" font-size="19" transform="translate(1142.58 260)">W(t+1)</text><text font-family="Arial,Arial_MSFontService,sans-serif" font-weight="400" font-size="19" transform="translate(878.318 192)">W(t) ~ Normal(2</text><text font-family="Meiryo,Meiryo_MSFontService,sans-serif" font-weight="400" font-size="19" transform="translate(1011.15 192)">×</text><text font-family="Arial,Arial_MSFontService,sans-serif" font-weight="400" font-size="19" transform="translate(1026.15 192)">W(t</text><text font-family="Arial,Arial_MSFontService,sans-serif" font-weight="400" font-size="19" transform="translate(1055.15 192)">-</text><text font-family="Arial,Arial_MSFontService,sans-serif" font-weight="400" font-size="19" transform="translate(1061.32 192)">1)</text><text font-family="Arial,Arial_MSFontService,sans-serif" font-weight="400" font-size="19" transform="translate(1077.82 192)">-</text><text font-family="Arial,Arial_MSFontService,sans-serif" font-weight="400" font-size="19" transform="translate(1083.98 192)">W(t</text><text font-family="Arial,Arial_MSFontService,sans-serif" font-weight="400" font-size="19" transform="translate(1112.98 192)">-</text><text font-family="Arial,Arial_MSFontService,sans-serif" font-weight="400" font-size="19" transform="translate(1119.15 192)">2), σ</text><text font-family="Arial,Arial_MSFontService,sans-serif" font-weight="400" font-size="12" transform="translate(1157.48 196)">1</text><text font-family="Arial,Arial_MSFontService,sans-serif" font-weight="400" font-size="12" transform="translate(1164.48 186)">2</text><text font-family="Arial,Arial_MSFontService,sans-serif" font-weight="400" font-size="19" transform="translate(1171.48 192)">)</text><rect x="891" y="555" width="255" height="23" fill="#FBF4D8"/><text font-family="Arial,Arial_MSFontService,sans-serif" font-weight="400" font-size="19" transform="translate(909.673 574)">N</text><text font-family="Arial,Arial_MSFontService,sans-serif" font-weight="400" font-size="12" transform="translate(923.173 578)">m</text><text font-family="Arial,Arial_MSFontService,sans-serif" font-weight="400" font-size="19" transform="translate(933.507 574)">(t) ~ Binomial(N(t), P(t))</text><rect x="902" y="355" width="238" height="27" fill="#FBF4D8"/><text font-family="Arial,Arial_MSFontService,sans-serif" font-weight="400" font-size="19" transform="translate(915.593 375)">W</text><text font-family="Arial,Arial_MSFontService,sans-serif" font-weight="400" font-size="12" transform="translate(933.259 379)">m</text><text font-family="Arial,Arial_MSFontService,sans-serif" font-weight="400" font-size="19" transform="translate(943.593 375)">(t) ~ Normal(W(t), σ</text><text font-family="Arial,Arial_MSFontService,sans-serif" font-weight="400" font-size="12" transform="translate(1105.43 379)">2</text><text font-family="Arial,Arial_MSFontService,sans-serif" font-weight="400" font-size="12" transform="translate(1112.43 369)">2</text><text font-family="Arial,Arial_MSFontService,sans-serif" font-weight="400" font-size="19" transform="translate(1119.43 375)">)</text><rect x="880" y="494" width="279" height="35" fill="#FBF4D8"/><text font-family="Arial,Arial_MSFontService,sans-serif" font-weight="400" font-size="19" transform="translate(892.838 517)">P(t) = 1/(1+exp(</text><text font-family="Arial,Arial_MSFontService,sans-serif" font-weight="400" font-size="19" transform="translate(1023 517)">-</text><text font-family="Arial,Arial_MSFontService,sans-serif" font-weight="400" font-size="19" transform="translate(1029.17 517)">K</text><text font-family="Arial,Arial_MSFontService,sans-serif" font-weight="400" font-size="12" transform="translate(1041.67 521)">1</text><text font-family="Arial,Arial_MSFontService,sans-serif" font-weight="400" font-size="19" transform="translate(1053.84 517)">-</text><text font-family="Arial,Arial_MSFontService,sans-serif" font-weight="400" font-size="19" transform="translate(1065.17 517)">K</text><text font-family="Arial,Arial_MSFontService,sans-serif" font-weight="400" font-size="12" transform="translate(1077.67 521)">2</text><text font-family="Meiryo,Meiryo_MSFontService,sans-serif" font-weight="400" font-size="19" transform="translate(1084.67 517)">×</text><text font-family="Arial,Arial_MSFontService,sans-serif" font-weight="400" font-size="19" transform="translate(1104.84 517)">W(t))</text><path d="M849 314 849 545.437 845 545.437 845 314ZM853 543.438 847 555.438 841 543.438Z" fill="#595959"/><path d="M1165 314 1165 545.437 1161 545.437 1161 314ZM1169 543.438 1163 555.438 1157 543.438Z" fill="#595959"/><path d="M810.5 437C810.5 409.11 834.677 386.5 864.5 386.5 894.323 386.5 918.5 409.11 918.5 437 918.5 464.89 894.323 487.5 864.5 487.5 834.677 487.5 810.5 464.89 810.5 437Z" stroke="#000000" stroke-width="1.33333" stroke-miterlimit="8" stroke-dasharray="5.33333 4" fill="#F2F2F2" fill-rule="evenodd"/><text font-family="Arial,Arial_MSFontService,sans-serif" font-weight="400" font-size="19" transform="translate(833.276 444)">W</text><text font-family="Arial,Arial_MSFontService,sans-serif" font-weight="400" font-size="12" transform="translate(850.943 448)">m</text><text font-family="Arial,Arial_MSFontService,sans-serif" font-weight="400" font-size="19" transform="translate(861.276 444)">(t</text><text font-family="Arial,Arial_MSFontService,sans-serif" font-weight="400" font-size="19" transform="translate(872.61 444)">-</text><text font-family="Arial,Arial_MSFontService,sans-serif" font-weight="400" font-size="19" transform="translate(878.776 444)">1)</text><path d="M964.5 437C964.5 409.11 988.901 386.5 1019 386.5 1049.1 386.5 1073.5 409.11 1073.5 437 1073.5 464.89 1049.1 487.5 1019 487.5 988.901 487.5 964.5 464.89 964.5 437Z" stroke="#000000" stroke-width="1.33333" stroke-miterlimit="8" fill="#F7E9B1" fill-rule="evenodd"/><text font-family="Arial,Arial_MSFontService,sans-serif" font-weight="400" font-size="19" transform="translate(995.757 444)">W</text><text font-family="Arial,Arial_MSFontService,sans-serif" font-weight="400" font-size="12" transform="translate(1013.42 448)">m</text><text font-family="Arial,Arial_MSFontService,sans-serif" font-weight="400" font-size="19" transform="translate(1023.76 444)">(t)</text><path d="M1119.5 437C1119.5 409.11 1143.9 386.5 1174 386.5 1204.1 386.5 1228.5 409.11 1228.5 437 1228.5 464.89 1204.1 487.5 1174 487.5 1143.9 487.5 1119.5 464.89 1119.5 437Z" stroke="#000000" stroke-width="1.33333" stroke-miterlimit="8" stroke-dasharray="5.33333 4" fill="#F2F2F2" fill-rule="evenodd"/><text font-family="Arial,Arial_MSFontService,sans-serif" font-weight="400" font-size="19" transform="translate(1137.32 444)">W</text><text font-family="Arial,Arial_MSFontService,sans-serif" font-weight="400" font-size="12" transform="translate(1154.98 448)">m</text><text font-family="Arial,Arial_MSFontService,sans-serif" font-weight="400" font-size="19" transform="translate(1165.32 444)">(t+1)</text><text fill="#4B5E68" font-family="Arial,Arial_MSFontService,sans-serif" font-weight="700" font-size="37" transform="translate(153.88 89)">A simple state</text><text fill="#4B5E68" font-family="Arial,Arial_MSFontService,sans-serif" font-weight="700" font-size="37" transform="translate(405.993 89)">-</text><text fill="#4B5E68" font-family="Arial,Arial_MSFontService,sans-serif" font-weight="700" font-size="37" transform="translate(418.493 89)">space model including logistic model</text><text fill="#4B5E68" font-family="Arial,Arial_MSFontService,sans-serif" font-weight="400" font-size="24" transform="translate(87.2753 242)">State formula</text><text fill="#4B5E68" font-family="Arial,Arial_MSFontService,sans-serif" font-weight="400" font-size="24" transform="translate(43.1475 243)">1.</text><text fill="#264980" font-family="Cambria Math,Cambria Math_MSFontService,sans-serif" font-weight="400" font-size="24" transform="translate(93.6078 292)">𝑊</text><path d="M138.19 274.173C140.471 274.775 142.223 276.073 143.445 278.07 144.668 280.066 145.279 282.474 145.279 285.294 145.279 288.122 144.67 290.53 143.451 292.519 142.233 294.507 140.479 295.802 138.19 296.404L137.908 295.501C139.713 294.9 141.055 293.712 141.934 291.939 142.813 290.165 143.252 287.911 143.252 285.177 143.252 282.536 142.815 280.343 141.94 278.597 141.065 276.851 139.709 275.677 137.873 275.075ZM126.58 274.173 126.897 275.075C125.069 275.677 123.715 276.851 122.836 278.597 121.957 280.343 121.518 282.536 121.518 285.177 121.518 287.911 121.957 290.165 122.836 291.939 123.715 293.712 125.057 294.9 126.862 295.501L126.58 296.404C124.291 295.802 122.537 294.507 121.319 292.519 120.1 290.53 119.491 288.122 119.491 285.294 119.491 282.474 120.102 280.066 121.325 278.07 122.547 276.073 124.299 274.775 126.58 274.173Z" fill="#264980" fill-rule="evenodd"/><text fill="#264980" font-family="Cambria Math,Cambria Math_MSFontService,sans-serif" font-weight="400" font-size="24" transform="translate(127.341 292)">𝑡</text><text fill="#264980" font-family="Cambria Math,Cambria Math_MSFontService,sans-serif" font-weight="400" font-size="24" transform="translate(147.388 292)"></text><text fill="#264980" font-family="Cambria Math,Cambria Math_MSFontService,sans-serif" font-weight="400" font-size="24" transform="translate(152.721 292)">~</text><text fill="#264980" font-family="Cambria Math,Cambria Math_MSFontService,sans-serif" font-weight="400" font-size="24" transform="translate(169.888 292)"></text><text fill="#264980" font-family="Cambria Math,Cambria Math_MSFontService,sans-serif" font-weight="400" font-size="24" transform="translate(175.221 292)">𝑁𝑜𝑟𝑚𝑎𝑙</text><text fill="#264980" font-family="Cambria Math,Cambria Math_MSFontService,sans-serif" font-weight="400" font-size="24" transform="translate(258.648 292)">(</text><text fill="#264980" font-family="Cambria Math,Cambria Math_MSFontService,sans-serif" font-weight="400" font-size="24" transform="translate(268.648 292)">2𝑊</text><path d="M368.563 274.173C370.844 274.775 372.596 276.073 373.819 278.07 375.041 280.066 375.653 282.474 375.653 285.294 375.653 288.122 375.043 290.53 373.825 292.519 372.606 294.507 370.852 295.802 368.563 296.404L368.282 295.501C370.086 294.9 371.428 293.712 372.307 291.939 373.186 290.165 373.625 287.911 373.625 285.177 373.625 282.536 373.188 280.343 372.313 278.597 371.438 276.851 370.082 275.677 368.246 275.075ZM314.954 274.173 315.27 275.075C313.442 275.677 312.088 276.851 311.21 278.597 310.331 280.343 309.891 282.536 309.891 285.177 309.891 287.911 310.331 290.165 311.21 291.939 312.088 293.712 313.43 294.9 315.235 295.501L314.954 296.404C312.665 295.802 310.911 294.507 309.692 292.519 308.473 290.53 307.864 288.122 307.864 285.294 307.864 282.474 308.475 280.066 309.698 278.07 310.921 276.073 312.672 274.775 314.954 274.173Z" fill="#264980" fill-rule="evenodd"/><text fill="#264980" font-family="Cambria Math,Cambria Math_MSFontService,sans-serif" font-weight="400" font-size="24" transform="translate(315.715 292)">𝑡</text><text fill="#264980" font-family="Cambria Math,Cambria Math_MSFontService,sans-serif" font-weight="400" font-size="24" transform="translate(331.134 292)">−</text><text fill="#264980" font-family="Cambria Math,Cambria Math_MSFontService,sans-serif" font-weight="400" font-size="24" transform="translate(354.468 292)">1</text><text fill="#264980" font-family="Cambria Math,Cambria Math_MSFontService,sans-serif" font-weight="400" font-size="24" transform="translate(383.094 292)">−</text><text fill="#264980" font-family="Cambria Math,Cambria Math_MSFontService,sans-serif" font-weight="400" font-size="24" transform="translate(406.428 292)">𝑊</text><path d="M493.01 274.173C495.291 274.775 497.043 276.073 498.265 278.07 499.488 280.066 500.099 282.474 500.099 285.294 500.099 288.122 499.49 290.53 498.271 292.519 497.053 294.507 495.299 295.802 493.01 296.404L492.728 295.501C494.533 294.9 495.875 293.712 496.754 291.939 497.633 290.165 498.072 287.911 498.072 285.177 498.072 282.536 497.635 280.343 496.76 278.597 495.885 276.851 494.529 275.677 492.693 275.075ZM439.4 274.173 439.717 275.075C437.889 275.677 436.535 276.851 435.656 278.597 434.777 280.343 434.338 282.536 434.338 285.177 434.338 287.911 434.777 290.165 435.656 291.939 436.535 293.712 437.877 294.9 439.682 295.501L439.4 296.404C437.111 295.802 435.357 294.507 434.139 292.519 432.92 290.53 432.311 288.122 432.311 285.294 432.311 282.474 432.922 280.066 434.145 278.07 435.367 276.073 437.119 274.775 439.4 274.173Z" fill="#264980" fill-rule="evenodd"/><text fill="#264980" font-family="Cambria Math,Cambria Math_MSFontService,sans-serif" font-weight="400" font-size="24" transform="translate(440.161 292)">𝑡</text><text fill="#264980" font-family="Cambria Math,Cambria Math_MSFontService,sans-serif" font-weight="400" font-size="24" transform="translate(455.581 292)">−</text><text fill="#264980" font-family="Cambria Math,Cambria Math_MSFontService,sans-serif" font-weight="400" font-size="24" transform="translate(478.914 292)">2</text><text fill="#264980" font-family="Cambria Math,Cambria Math_MSFontService,sans-serif" font-weight="400" font-size="24" transform="translate(502.208 292)">,</text><text fill="#264980" font-family="Cambria Math,Cambria Math_MSFontService,sans-serif" font-weight="400" font-size="24" transform="translate(511.208 292)">σ</text><text fill="#264980" font-family="Cambria Math,Cambria Math_MSFontService,sans-serif" font-weight="400" font-size="18" transform="translate(524.321 297)">1</text><text fill="#264980" font-family="Cambria Math,Cambria Math_MSFontService,sans-serif" font-weight="400" font-size="18" transform="translate(524.875 283)">2</text><text fill="#264980" font-family="Cambria Math,Cambria Math_MSFontService,sans-serif" font-weight="400" font-size="24" transform="translate(536.034 292)">)</text><text fill="#4B5E68" font-family="Arial,Arial_MSFontService,sans-serif" font-weight="400" font-size="24" transform="translate(88.596 358)">Observation formula</text><text fill="#4B5E68" font-family="Arial,Arial_MSFontService,sans-serif" font-weight="400" font-size="24" transform="translate(43.8112 358)">2.</text><text fill="#264980" font-family="Cambria Math,Cambria Math_MSFontService,sans-serif" font-weight="400" font-size="24" transform="translate(90.7692 452)">𝑊</text><text fill="#264980" font-family="Cambria Math,Cambria Math_MSFontService,sans-serif" font-weight="400" font-size="18" transform="translate(108.449 457)">𝑚</text><path d="M146.884 434.218C149.166 434.82 150.917 436.119 152.14 438.115 153.363 440.111 153.974 442.519 153.974 445.339 153.974 448.168 153.365 450.576 152.146 452.564 150.927 454.552 149.173 455.847 146.884 456.449L146.603 455.546C148.408 454.945 149.75 453.757 150.628 451.984 151.507 450.21 151.947 447.957 151.947 445.222 151.947 442.582 151.509 440.388 150.634 438.642 149.759 436.896 148.404 435.722 146.568 435.121ZM135.275 434.218 135.592 435.121C133.763 435.722 132.41 436.896 131.531 438.642 130.652 440.388 130.213 442.582 130.213 445.222 130.213 447.957 130.652 450.21 131.531 451.984 132.41 453.757 133.752 454.945 135.556 455.546L135.275 456.449C132.986 455.847 131.232 454.552 130.013 452.564 128.795 450.576 128.185 448.168 128.185 445.339 128.185 442.519 128.797 440.111 130.019 438.115 131.242 436.119 132.994 434.82 135.275 434.218Z" fill="#264980" fill-rule="evenodd"/><text fill="#264980" font-family="Cambria Math,Cambria Math_MSFontService,sans-serif" font-weight="400" font-size="24" transform="translate(136.036 452)">𝑡</text><text fill="#264980" font-family="Cambria Math,Cambria Math_MSFontService,sans-serif" font-weight="400" font-size="24" transform="translate(156.083 452)"></text><text fill="#264980" font-family="Cambria Math,Cambria Math_MSFontService,sans-serif" font-weight="400" font-size="24" transform="translate(161.416 452)">~</text><text fill="#264980" font-family="Cambria Math,Cambria Math_MSFontService,sans-serif" font-weight="400" font-size="24" transform="translate(178.583 452)"></text><text fill="#264980" font-family="Cambria Math,Cambria Math_MSFontService,sans-serif" font-weight="400" font-size="24" transform="translate(183.916 452)">𝑁𝑜𝑟𝑚𝑎𝑙</text><text fill="#264980" font-family="Cambria Math,Cambria Math_MSFontService,sans-serif" font-weight="400" font-size="24" transform="translate(267.343 452)">(</text><text fill="#264980" font-family="Cambria Math,Cambria Math_MSFontService,sans-serif" font-weight="400" font-size="24" transform="translate(277.343 452)">𝑊</text><path d="M321.924 434.218C324.206 434.82 325.958 436.119 327.18 438.115 328.403 440.111 329.014 442.519 329.014 445.339 329.014 448.168 328.405 450.576 327.186 452.564 325.967 454.552 324.213 455.847 321.924 456.449L321.643 455.546C323.448 454.945 324.79 453.757 325.668 451.984 326.547 450.21 326.987 447.957 326.987 445.222 326.987 442.582 326.549 440.388 325.674 438.642 324.799 436.896 323.444 435.722 321.608 435.121ZM310.315 434.218 310.632 435.121C308.803 435.722 307.45 436.896 306.571 438.642 305.692 440.388 305.253 442.582 305.253 445.222 305.253 447.957 305.692 450.21 306.571 451.984 307.45 453.757 308.792 454.945 310.596 455.546L310.315 456.449C308.026 455.847 306.272 454.552 305.053 452.564 303.835 450.576 303.225 448.168 303.225 445.339 303.225 442.519 303.837 440.111 305.059 438.115 306.282 436.119 308.034 434.82 310.315 434.218Z" fill="#264980" fill-rule="evenodd"/><text fill="#264980" font-family="Cambria Math,Cambria Math_MSFontService,sans-serif" font-weight="400" font-size="24" transform="translate(311.076 452)">𝑡</text><text fill="#264980" font-family="Cambria Math,Cambria Math_MSFontService,sans-serif" font-weight="400" font-size="24" transform="translate(331.123 452)">,</text><text fill="#264980" font-family="Cambria Math,Cambria Math_MSFontService,sans-serif" font-weight="400" font-size="24" transform="translate(340.123 452)">σ</text><text fill="#264980" font-family="Cambria Math,Cambria Math_MSFontService,sans-serif" font-weight="400" font-size="18" transform="translate(353.789 458)">2</text><text fill="#264980" font-family="Cambria Math,Cambria Math_MSFontService,sans-serif" font-weight="400" font-size="18" transform="translate(353.789 443)">2</text><text fill="#264980" font-family="Cambria Math,Cambria Math_MSFontService,sans-serif" font-weight="400" font-size="24" transform="translate(364.949 452)">)</text><text fill="#4B5E68" font-family="Arial,Arial_MSFontService,sans-serif" font-weight="400" font-size="24" transform="translate(88.6521 401)">(A) Observed wastewater concentration</text><text fill="#4B5E68" font-family="Arial,Arial_MSFontService,sans-serif" font-weight="400" font-size="24" transform="translate(88.9941 548)">(B) Observed detection rate (or the number of positive samples)</text><text fill="#264980" font-family="Cambria Math,Cambria Math_MSFontService,sans-serif" font-weight="400" font-size="24" transform="translate(104.47 669)">𝑁</text><text fill="#264980" font-family="Cambria Math,Cambria Math_MSFontService,sans-serif" font-weight="400" font-size="18" transform="translate(119.976 674)">𝑚</text><path d="M158.411 650.744C160.693 651.345 162.445 652.644 163.667 654.64 164.89 656.636 165.501 659.044 165.501 661.865 165.501 664.693 164.892 667.101 163.673 669.089 162.454 671.078 160.701 672.373 158.411 672.974L158.13 672.072C159.935 671.47 161.277 670.283 162.156 668.509 163.035 666.736 163.474 664.482 163.474 661.748 163.474 659.107 163.036 656.914 162.161 655.168 161.286 653.421 159.931 652.248 158.095 651.646ZM146.802 650.744 147.119 651.646C145.291 652.248 143.937 653.421 143.058 655.168 142.179 656.914 141.74 659.107 141.74 661.748 141.74 664.482 142.179 666.736 143.058 668.509 143.937 670.283 145.279 671.47 147.084 672.072L146.802 672.974C144.513 672.373 142.759 671.078 141.541 669.089 140.322 667.101 139.712 664.693 139.712 661.865 139.712 659.044 140.324 656.636 141.546 654.64 142.769 652.644 144.521 651.345 146.802 650.744Z" fill="#264980" fill-rule="evenodd"/><text fill="#264980" font-family="Cambria Math,Cambria Math_MSFontService,sans-serif" font-weight="400" font-size="24" transform="translate(147.563 669)">𝑡</text><text fill="#264980" font-family="Cambria Math,Cambria Math_MSFontService,sans-serif" font-weight="400" font-size="24" transform="translate(167.61 669)"></text><text fill="#264980" font-family="Cambria Math,Cambria Math_MSFontService,sans-serif" font-weight="400" font-size="24" transform="translate(172.943 669)">~</text><text fill="#264980" font-family="Cambria Math,Cambria Math_MSFontService,sans-serif" font-weight="400" font-size="24" transform="translate(190.11 669)"></text><text fill="#264980" font-family="Cambria Math,Cambria Math_MSFontService,sans-serif" font-weight="400" font-size="24" transform="translate(195.443 669)">𝐵𝑖𝑛𝑜𝑚𝑖𝑎𝑙</text><text fill="#264980" font-family="Cambria Math,Cambria Math_MSFontService,sans-serif" font-weight="400" font-size="24" transform="translate(295.036 669)">(</text><text fill="#264980" font-family="Cambria Math,Cambria Math_MSFontService,sans-serif" font-weight="400" font-size="24" transform="translate(305.036 669)">𝑁</text><path d="M343.931 650.744C346.213 651.345 347.965 652.644 349.187 654.64 350.41 656.636 351.021 659.044 351.021 661.865 351.021 664.693 350.412 667.101 349.193 669.089 347.974 671.078 346.221 672.373 343.931 672.974L343.65 672.072C345.455 671.47 346.797 670.283 347.676 668.509 348.555 666.736 348.994 664.482 348.994 661.748 348.994 659.107 348.556 656.914 347.681 655.168 346.806 653.421 345.451 652.248 343.615 651.646ZM332.322 650.744 332.639 651.646C330.811 652.248 329.457 653.421 328.578 655.168 327.699 656.914 327.26 659.107 327.26 661.748 327.26 664.482 327.699 666.736 328.578 668.509 329.457 670.283 330.799 671.47 332.604 672.072L332.322 672.974C330.033 672.373 328.279 671.078 327.061 669.089 325.842 667.101 325.232 664.693 325.232 661.865 325.232 659.044 325.844 656.636 327.066 654.64 328.289 652.644 330.041 651.345 332.322 650.744Z" fill="#264980" fill-rule="evenodd"/><text fill="#264980" font-family="Cambria Math,Cambria Math_MSFontService,sans-serif" font-weight="400" font-size="24" transform="translate(333.083 669)">𝑡</text><text fill="#264980" font-family="Cambria Math,Cambria Math_MSFontService,sans-serif" font-weight="400" font-size="24" transform="translate(353.13 669)">,</text><text fill="#264980" font-family="Cambria Math,Cambria Math_MSFontService,sans-serif" font-weight="400" font-size="24" transform="translate(362.13 669)">𝑃</text><text fill="#264980" font-family="Cambria Math,Cambria Math_MSFontService,sans-serif" font-weight="400" font-size="24" transform="translate(377.55 669)">(</text><text fill="#264980" font-family="Cambria Math,Cambria Math_MSFontService,sans-serif" font-weight="400" font-size="24" transform="translate(387.55 669)">𝑡</text><text fill="#264980" font-family="Cambria Math,Cambria Math_MSFontService,sans-serif" font-weight="400" font-size="24" transform="translate(397.636 669)">)</text><text fill="#264980" font-family="Cambria Math,Cambria Math_MSFontService,sans-serif" font-weight="400" font-size="24" transform="translate(407.636 669)">)</text><text fill="#264980" font-family="Cambria Math,Cambria Math_MSFontService,sans-serif" font-weight="400" font-size="24" transform="translate(96.1193 605)">ln</text><path d="M222.47 567.966C225.681 570.716 228.23 574.818 230.117 580.271 232.003 585.724 232.947 591.81 232.947 598.529 232.947 605.146 232.003 611.222 230.117 616.757 228.23 622.292 225.681 626.427 222.47 629.161L221.919 628.294C224.693 625.474 226.83 621.392 228.33 616.048 229.83 610.704 230.58 604.868 230.58 598.54 230.58 592.064 229.826 586.2 228.318 580.95 226.81 575.7 224.677 571.665 221.919 568.845ZM132.398 567.966 132.949 568.845C130.183 571.665 128.048 575.7 126.544 580.95 125.04 586.2 124.289 592.064 124.289 598.54 124.289 604.868 125.039 610.704 126.539 616.048 128.039 621.392 130.175 625.474 132.949 628.294L132.398 629.161C129.187 626.427 126.638 622.292 124.751 616.757 122.865 611.222 121.921 605.146 121.921 598.529 121.921 591.81 122.865 585.724 124.751 580.271 126.638 574.818 129.187 570.716 132.398 567.966Z" fill="#264980" fill-rule="evenodd"/><text fill="#264980" font-family="Cambria Math,Cambria Math_MSFontService,sans-serif" font-weight="400" font-size="24" transform="translate(154.719 587)">𝑃</text><path d="M190.948 569.277C193.229 569.879 194.981 571.178 196.204 573.174 197.426 575.17 198.038 577.578 198.038 580.398 198.038 583.227 197.428 585.635 196.209 587.623 194.991 589.611 193.237 590.906 190.948 591.508L190.666 590.605C192.471 590.004 193.813 588.816 194.692 587.043 195.571 585.269 196.01 583.016 196.01 580.281 196.01 577.641 195.573 575.447 194.698 573.701 193.823 571.955 192.467 570.781 190.631 570.18ZM179.338 569.277 179.655 570.18C177.827 570.781 176.473 571.955 175.594 573.701 174.715 575.447 174.276 577.641 174.276 580.281 174.276 583.016 174.715 585.269 175.594 587.043 176.473 588.816 177.815 590.004 179.62 590.605L179.338 591.508C177.049 590.906 175.296 589.611 174.077 587.623 172.858 585.635 172.249 583.227 172.249 580.398 172.249 577.578 172.86 575.17 174.083 573.174 175.305 571.178 177.057 569.879 179.338 569.277Z" fill="#264980" fill-rule="evenodd"/><text fill="#264980" font-family="Cambria Math,Cambria Math_MSFontService,sans-serif" font-weight="400" font-size="24" transform="translate(180.099 587)">𝑡</text><text fill="#264980" font-family="Cambria Math,Cambria Math_MSFontService,sans-serif" font-weight="400" font-size="24" transform="translate(133.719 621)">1</text><text fill="#264980" font-family="Cambria Math,Cambria Math_MSFontService,sans-serif" font-weight="400" font-size="24" transform="translate(152.386 621)">−</text><text fill="#264980" font-family="Cambria Math,Cambria Math_MSFontService,sans-serif" font-weight="400" font-size="24" transform="translate(175.719 621)">𝑃</text><path d="M211.948 603.497C214.229 604.099 215.981 605.398 217.204 607.394 218.426 609.39 219.038 611.798 219.038 614.618 219.038 617.447 218.428 619.855 217.209 621.843 215.991 623.831 214.237 625.126 211.948 625.728L211.666 624.825C213.471 624.224 214.813 623.036 215.692 621.263 216.571 619.49 217.01 617.236 217.01 614.501 217.01 611.861 216.573 609.667 215.698 607.921 214.823 606.175 213.467 605.001 211.631 604.4ZM200.338 603.497 200.655 604.4C198.827 605.001 197.473 606.175 196.594 607.921 195.715 609.667 195.276 611.861 195.276 614.501 195.276 617.236 195.715 619.49 196.594 621.263 197.473 623.036 198.815 624.224 200.62 624.825L200.338 625.728C198.049 625.126 196.296 623.831 195.077 621.843 193.858 619.855 193.249 617.447 193.249 614.618 193.249 611.798 193.86 609.39 195.083 607.394 196.305 605.398 198.057 604.099 200.338 603.497Z" fill="#264980" fill-rule="evenodd"/><text fill="#264980" font-family="Cambria Math,Cambria Math_MSFontService,sans-serif" font-weight="400" font-size="24" transform="translate(201.099 621)">𝑡</text><path d="M133.746 597.411 177.246 597.411 220.746 597.411 220.746 599.411 177.246 599.411 133.746 599.411Z" fill="#264980" fill-rule="evenodd"/><text fill="#264980" font-family="Cambria Math,Cambria Math_MSFontService,sans-serif" font-weight="400" font-size="24" transform="translate(241.579 605)">=</text><text fill="#264980" font-family="Cambria Math,Cambria Math_MSFontService,sans-serif" font-weight="400" font-size="24" transform="translate(266.246 605)">𝐾</text><text fill="#264980" font-family="Cambria Math,Cambria Math_MSFontService,sans-serif" font-weight="400" font-size="18" transform="translate(280.606 610)">1</text><text fill="#264980" font-family="Cambria Math,Cambria Math_MSFontService,sans-serif" font-weight="400" font-size="24" transform="translate(297.099 605)">+</text><text fill="#264980" font-family="Cambria Math,Cambria Math_MSFontService,sans-serif" font-weight="400" font-size="24" transform="translate(320.433 605)">𝐾</text><text fill="#264980" font-family="Cambria Math,Cambria Math_MSFontService,sans-serif" font-weight="400" font-size="18" transform="translate(335.346 610)">2</text><text fill="#264980" font-family="Cambria Math,Cambria Math_MSFontService,sans-serif" font-weight="400" font-size="24" transform="translate(351.839 605)">×</text><text fill="#264980" font-family="Cambria Math,Cambria Math_MSFontService,sans-serif" font-weight="400" font-size="24" transform="translate(374.339 605)">𝑊</text><text fill="#264980" font-family="Cambria Math,Cambria Math_MSFontService,sans-serif" font-weight="400" font-size="24" transform="translate(398.113 605)">(</text><text fill="#264980" font-family="Cambria Math,Cambria Math_MSFontService,sans-serif" font-weight="400" font-size="24" transform="translate(408.113 605)">𝑡</text><text fill="#264980" font-family="Cambria Math,Cambria Math_MSFontService,sans-serif" font-weight="400" font-size="24" transform="translate(418.199 605)">)</text><text fill="#4B5E68" font-family="MS Gothic,MS Gothic_MSFontService,sans-serif" font-weight="400" font-size="19" transform="translate(331.256 323)">※</text><text fill="#4B5E68" font-family="Arial,Arial_MSFontService,sans-serif" font-weight="400" font-size="19" transform="translate(349.923 323)">W(t): log</text><text fill="#4B5E68" font-family="Arial,Arial_MSFontService,sans-serif" font-weight="400" font-size="19" transform="translate(420.256 323)">-</text><text fill="#4B5E68" font-family="Arial,Arial_MSFontService,sans-serif" font-weight="400" font-size="19" transform="translate(426.423 323)">transformed wastewater concentration</text><path d="M87.5001 150.5 1183.56 150.5" stroke="#4B5E68" stroke-miterlimit="8" stroke-dasharray="8 3" fill="none" fill-rule="evenodd"/><text fill="#4B5E68" font-family="Arial,Arial_MSFontService,sans-serif" font-weight="700" font-size="24" transform="translate(81.2771 208)">Model 1</text><text fill="#4B5E68" font-family="Arial,Arial_MSFontService,sans-serif" font-weight="400" font-size="24" transform="translate(211.267 133)">Logistic model is used to link wastewater concentration with detection rate</text></g></svg>