<svg width="1283" height="723" xmlns="http://www.w3.org/2000/svg" xmlns:xlink="http://www.w3.org/1999/xlink" overflow="hidden"><g transform="translate(1 2)"><rect x="1" y="0" width="1280" height="720" fill="#FFFFFF"/><text fill="#4B5E68" font-family="Arial,Arial_MSFontService,sans-serif" font-weight="700" font-size="37" transform="translate(202.148 85)">Model application to real</text><text fill="#4B5E68" font-family="Arial,Arial_MSFontService,sans-serif" font-weight="700" font-size="37" transform="translate(640.315 85)">-</text><text fill="#4B5E68" font-family="Arial,Arial_MSFontService,sans-serif" font-weight="700" font-size="37" transform="translate(652.815 85)">world data from USA</text><rect x="0.500053" y="0.500053" width="321" height="37" stroke="#7F7F7F" stroke-width="1.33333" stroke-miterlimit="8" fill="#D9D9D9"/><text fill="#A6A6A6" font-family="Arial,Arial_MSFontService,sans-serif" font-weight="700" font-size="21" transform="translate(98.3799 27)">Introduction</text><rect x="320.5" y="0.500053" width="321" height="37" stroke="#7F7F7F" stroke-width="1.33333" stroke-miterlimit="8" fill="#4B5E68"/><text fill="#FFFFFF" font-family="Arial,Arial_MSFontService,sans-serif" font-weight="700" font-size="21" transform="translate(376.718 27)">Materials &amp; Methods</text><rect x="639.5" y="0.500053" width="321" height="37" stroke="#7F7F7F" stroke-width="1.33333" stroke-miterlimit="8" fill="#D9D9D9"/><text fill="#A6A6A6" font-family="Arial,Arial_MSFontService,sans-serif" font-weight="700" font-size="21" transform="translate(690.449 27)">Results &amp; Discussion</text><rect x="959.5" y="0.500053" width="321" height="37" stroke="#7F7F7F" stroke-width="1.33333" stroke-miterlimit="8" fill="#D9D9D9"/><text fill="#A6A6A6" font-family="Arial,Arial_MSFontService,sans-serif" font-weight="700" font-size="21" transform="translate(1061.32 27)">Conclusion</text><text font-family="Arial,Arial_MSFontService,sans-serif" font-weight="400" font-size="21" transform="translate(171.649 694)">Jun</text><text font-family="Arial,Arial_MSFontService,sans-serif" font-weight="400" font-size="21" transform="translate(289.89 694)">Oct</text><text font-family="Arial,Arial_MSFontService,sans-serif" font-weight="400" font-size="21" transform="translate(409.372 694)">Feb</text><text font-family="Arial,Arial_MSFontService,sans-serif" font-weight="400" font-size="21" transform="translate(516.785 694)">Jun</text><path d="M136 671 557 671 557 465 136 465Z" fill="#FFFFFF" fill-rule="evenodd"/><path d="M136.5 635.5 557.5 635.5" stroke="#EBEBEB" stroke-width="0.710656" stroke-linejoin="round" stroke-miterlimit="10" fill="none" fill-rule="evenodd"/><path d="M136.5 581.5 557.5 581.5" stroke="#EBEBEB" stroke-width="0.710656" stroke-linejoin="round" stroke-miterlimit="10" fill="none" fill-rule="evenodd"/><path d="M136.5 528.5 557.5 528.5" stroke="#EBEBEB" stroke-width="0.710656" stroke-linejoin="round" stroke-miterlimit="10" fill="none" fill-rule="evenodd"/><path d="M136.5 475.5 557.5 475.5" stroke="#EBEBEB" stroke-width="0.710656" stroke-linejoin="round" stroke-miterlimit="10" fill="none" fill-rule="evenodd"/><path d="M156.5 671.5 156.5 465.5" stroke="#EBEBEB" stroke-width="0.710656" stroke-linejoin="round" stroke-miterlimit="10" fill="none" fill-rule="evenodd"/><path d="M215.5 671.5 215.5 465.5" stroke="#EBEBEB" stroke-width="0.710656" stroke-linejoin="round" stroke-miterlimit="10" fill="none" fill-rule="evenodd"/><path d="M274.5 671.5 274.5 465.5" stroke="#EBEBEB" stroke-width="0.710656" stroke-linejoin="round" stroke-miterlimit="10" fill="none" fill-rule="evenodd"/><path d="M333.5 671.5 333.5 465.5" stroke="#EBEBEB" stroke-width="0.710656" stroke-linejoin="round" stroke-miterlimit="10" fill="none" fill-rule="evenodd"/><path d="M392.5 671.5 392.5 465.5" stroke="#EBEBEB" stroke-width="0.710656" stroke-linejoin="round" stroke-miterlimit="10" fill="none" fill-rule="evenodd"/><path d="M450.5 671.5 450.5 465.5" stroke="#EBEBEB" stroke-width="0.710656" stroke-linejoin="round" stroke-miterlimit="10" fill="none" fill-rule="evenodd"/><path d="M508.5 671.5 508.5 465.5" stroke="#EBEBEB" stroke-width="0.710656" stroke-linejoin="round" stroke-miterlimit="10" fill="none" fill-rule="evenodd"/><path d="M136.5 661.5 557.5 661.5" stroke="#EBEBEB" stroke-width="1.42131" stroke-linejoin="round" stroke-miterlimit="10" fill="none" fill-rule="evenodd"/><path d="M136.5 608.5 557.5 608.5" stroke="#EBEBEB" stroke-width="1.42131" stroke-linejoin="round" stroke-miterlimit="10" fill="none" fill-rule="evenodd"/><path d="M136.5 555.5 557.5 555.5" stroke="#EBEBEB" stroke-width="1.42131" stroke-linejoin="round" stroke-miterlimit="10" fill="none" fill-rule="evenodd"/><path d="M136.5 501.5 557.5 501.5" stroke="#EBEBEB" stroke-width="1.42131" stroke-linejoin="round" stroke-miterlimit="10" fill="none" fill-rule="evenodd"/><path d="M186.5 671.5 186.5 465.5" stroke="#EBEBEB" stroke-width="1.42131" stroke-linejoin="round" stroke-miterlimit="10" fill="none" fill-rule="evenodd"/><path d="M244.5 671.5 244.5 465.5" stroke="#EBEBEB" stroke-width="1.42131" stroke-linejoin="round" stroke-miterlimit="10" fill="none" fill-rule="evenodd"/><path d="M303.5 671.5 303.5 465.5" stroke="#EBEBEB" stroke-width="1.42131" stroke-linejoin="round" stroke-miterlimit="10" fill="none" fill-rule="evenodd"/><path d="M362.5 671.5 362.5 465.5" stroke="#EBEBEB" stroke-width="1.42131" stroke-linejoin="round" stroke-miterlimit="10" fill="none" fill-rule="evenodd"/><path d="M422.5 671.5 422.5 465.5" stroke="#EBEBEB" stroke-width="1.42131" stroke-linejoin="round" stroke-miterlimit="10" fill="none" fill-rule="evenodd"/><path d="M479.5 671.5 479.5 465.5" stroke="#EBEBEB" stroke-width="1.42131" stroke-linejoin="round" stroke-miterlimit="10" fill="none" fill-rule="evenodd"/><path d="M538.5 671.5 538.5 465.5" stroke="#EBEBEB" stroke-width="1.42131" stroke-linejoin="round" stroke-miterlimit="10" fill="none" fill-rule="evenodd"/><path d="M174 549C174 553 166 553 166 549 166 545 174 545 174 549" fill="#FEC44F" fill-rule="evenodd"/><path d="M175 545.502C175 548.833 167 548.833 167 545.502 167 542.166 175 542.166 175 545.502" fill="#FEC44F" fill-rule="evenodd"/><path d="M172.5 620.5 177.5 626.5 167.5 626.5Z" stroke="#0570B0" stroke-width="0.943937" stroke-linecap="round" stroke-linejoin="round" stroke-miterlimit="10" fill="none" fill-rule="evenodd"/><path d="M180 572.5C180 575.833 173 575.833 173 572.5 173 569.167 180 569.167 180 572.5" fill="#FEC44F" fill-rule="evenodd"/><path d="M181 568.5C181 571.833 174 571.833 174 568.5 174 565.167 181 565.167 181 568.5" fill="#FEC44F" fill-rule="evenodd"/><path d="M182 535.498C182 538.834 175 538.834 175 535.498 175 532.167 182 532.167 182 535.498" fill="#FEC44F" fill-rule="evenodd"/><path d="M188 564.998C188 569.001 181 569.001 181 564.998 181 561.001 188 561.001 188 564.998" fill="#FEC44F" fill-rule="evenodd"/><path d="M189 540C189 544 182 544 182 540 182 536 189 536 189 540" fill="#FEC44F" fill-rule="evenodd"/><path d="M186.997 580.5 191.5 586.5 182.5 586.5Z" stroke="#0570B0" stroke-width="0.943937" stroke-linecap="round" stroke-linejoin="round" stroke-miterlimit="10" fill="#0570B0" fill-rule="evenodd"/><path d="M190.5 583.5 195.5 590.5 185.5 590.5Z" stroke="#0570B0" stroke-width="0.943937" stroke-linecap="round" stroke-linejoin="round" stroke-miterlimit="10" fill="#0570B0" fill-rule="evenodd"/><path d="M191.5 596.5 196.5 602.5 186.5 602.5Z" stroke="#0570B0" stroke-width="0.943937" stroke-linecap="round" stroke-linejoin="round" stroke-miterlimit="10" fill="#0570B0" fill-rule="evenodd"/><path d="M192.5 620.5 197.5 626.5 187.5 626.5Z" stroke="#0570B0" stroke-width="0.943937" stroke-linecap="round" stroke-linejoin="round" stroke-miterlimit="10" fill="none" fill-rule="evenodd"/><path d="M197.5 620.5 202.5 626.5 192.5 626.5Z" stroke="#0570B0" stroke-width="0.943937" stroke-linecap="round" stroke-linejoin="round" stroke-miterlimit="10" fill="none" fill-rule="evenodd"/><path d="M198.5 581.5 203.5 587.5 193.5 587.5Z" stroke="#0570B0" stroke-width="0.943937" stroke-linecap="round" stroke-linejoin="round" stroke-miterlimit="10" fill="#0570B0" fill-rule="evenodd"/><path d="M199.5 620.5 204.5 626.5 194.5 626.5Z" stroke="#0570B0" stroke-width="0.943937" stroke-linecap="round" stroke-linejoin="round" stroke-miterlimit="10" fill="none" fill-rule="evenodd"/><path d="M204.5 620.5 209.5 626.5 199.5 626.5Z" stroke="#0570B0" stroke-width="0.943937" stroke-linecap="round" stroke-linejoin="round" stroke-miterlimit="10" fill="none" fill-rule="evenodd"/><path d="M205.5 592.5 210.5 599.5 200.5 599.5Z" stroke="#0570B0" stroke-width="0.943937" stroke-linecap="round" stroke-linejoin="round" stroke-miterlimit="10" fill="#0570B0" fill-rule="evenodd"/><path d="M206.5 620.5 211.5 626.5 201.5 626.5Z" stroke="#0570B0" stroke-width="0.943937" stroke-linecap="round" stroke-linejoin="round" stroke-miterlimit="10" fill="none" fill-rule="evenodd"/><path d="M211 620.5 215.5 626.5 206.5 626.5Z" stroke="#0570B0" stroke-width="0.943937" stroke-linecap="round" stroke-linejoin="round" stroke-miterlimit="10" fill="none" fill-rule="evenodd"/><path d="M212 620.5 216.5 626.5 207.5 626.5Z" stroke="#0570B0" stroke-width="0.943937" stroke-linecap="round" stroke-linejoin="round" stroke-miterlimit="10" fill="none" fill-rule="evenodd"/><path d="M213 620.5 217.5 626.5 208.5 626.5Z" stroke="#0570B0" stroke-width="0.943937" stroke-linecap="round" stroke-linejoin="round" stroke-miterlimit="10" fill="none" fill-rule="evenodd"/><path d="M218.5 620.5 223.5 626.5 213.5 626.5Z" stroke="#0570B0" stroke-width="0.943937" stroke-linecap="round" stroke-linejoin="round" stroke-miterlimit="10" fill="none" fill-rule="evenodd"/><path d="M219.504 620.5 224.5 626.5 214.5 626.5Z" stroke="#0570B0" stroke-width="0.943937" stroke-linecap="round" stroke-linejoin="round" stroke-miterlimit="10" fill="none" fill-rule="evenodd"/><path d="M220.5 620.5 225.5 626.5 215.5 626.5Z" stroke="#0570B0" stroke-width="0.943937" stroke-linecap="round" stroke-linejoin="round" stroke-miterlimit="10" fill="none" fill-rule="evenodd"/><path d="M224.5 620.5 229.5 626.5 219.5 626.5Z" stroke="#0570B0" stroke-width="0.943937" stroke-linecap="round" stroke-linejoin="round" stroke-miterlimit="10" fill="none" fill-rule="evenodd"/><path d="M225.5 620.5 230.5 626.5 220.5 626.5Z" stroke="#0570B0" stroke-width="0.943937" stroke-linecap="round" stroke-linejoin="round" stroke-miterlimit="10" fill="none" fill-rule="evenodd"/><path d="M226.5 620.5 231.5 626.5 221.5 626.5Z" stroke="#0570B0" stroke-width="0.943937" stroke-linecap="round" stroke-linejoin="round" stroke-miterlimit="10" fill="none" fill-rule="evenodd"/><path d="M231.5 620.5 236.5 626.5 226.5 626.5Z" stroke="#0570B0" stroke-width="0.943937" stroke-linecap="round" stroke-linejoin="round" stroke-miterlimit="10" fill="none" fill-rule="evenodd"/><path d="M232.5 620.5 237.5 626.5 227.5 626.5Z" stroke="#0570B0" stroke-width="0.943937" stroke-linecap="round" stroke-linejoin="round" stroke-miterlimit="10" fill="none" fill-rule="evenodd"/><path d="M233.5 620.5 238.5 626.5 228.5 626.5Z" stroke="#0570B0" stroke-width="0.943937" stroke-linecap="round" stroke-linejoin="round" stroke-miterlimit="10" fill="none" fill-rule="evenodd"/><path d="M238.5 620.5 243.5 626.5 233.5 626.5Z" stroke="#0570B0" stroke-width="0.943937" stroke-linecap="round" stroke-linejoin="round" stroke-miterlimit="10" fill="none" fill-rule="evenodd"/><path d="M239 620.5 243.5 626.5 234.5 626.5Z" stroke="#0570B0" stroke-width="0.943937" stroke-linecap="round" stroke-linejoin="round" stroke-miterlimit="10" fill="none" fill-rule="evenodd"/><path d="M240 620.5 244.5 626.5 235.5 626.5Z" stroke="#0570B0" stroke-width="0.943937" stroke-linecap="round" stroke-linejoin="round" stroke-miterlimit="10" fill="none" fill-rule="evenodd"/><path d="M245 620.5 249.5 626.5 240.5 626.5Z" stroke="#0570B0" stroke-width="0.943937" stroke-linecap="round" stroke-linejoin="round" stroke-miterlimit="10" fill="none" fill-rule="evenodd"/><path d="M245.5 620.5 250.5 626.5 240.5 626.5Z" stroke="#0570B0" stroke-width="0.943937" stroke-linecap="round" stroke-linejoin="round" stroke-miterlimit="10" fill="none" fill-rule="evenodd"/><path d="M246.5 620.5 251.5 626.5 241.5 626.5Z" stroke="#0570B0" stroke-width="0.943937" stroke-linecap="round" stroke-linejoin="round" stroke-miterlimit="10" fill="none" fill-rule="evenodd"/><path d="M251.5 620.5 256.5 626.5 246.5 626.5Z" stroke="#0570B0" stroke-width="0.943937" stroke-linecap="round" stroke-linejoin="round" stroke-miterlimit="10" fill="none" fill-rule="evenodd"/><path d="M252.504 620.5 257.5 626.5 247.5 626.5Z" stroke="#0570B0" stroke-width="0.943937" stroke-linecap="round" stroke-linejoin="round" stroke-miterlimit="10" fill="none" fill-rule="evenodd"/><path d="M253.5 620.5 258.5 626.5 248.5 626.5Z" stroke="#0570B0" stroke-width="0.943937" stroke-linecap="round" stroke-linejoin="round" stroke-miterlimit="10" fill="none" fill-rule="evenodd"/><path d="M258.496 620.5 263.5 626.5 253.5 626.5Z" stroke="#0570B0" stroke-width="0.943937" stroke-linecap="round" stroke-linejoin="round" stroke-miterlimit="10" fill="none" fill-rule="evenodd"/><path d="M259.5 620.5 264.5 626.5 254.5 626.5Z" stroke="#0570B0" stroke-width="0.943937" stroke-linecap="round" stroke-linejoin="round" stroke-miterlimit="10" fill="none" fill-rule="evenodd"/><path d="M260.5 620.5 265.5 626.5 255.5 626.5Z" stroke="#0570B0" stroke-width="0.943937" stroke-linecap="round" stroke-linejoin="round" stroke-miterlimit="10" fill="none" fill-rule="evenodd"/><path d="M265.5 620.5 270.5 626.5 260.5 626.5Z" stroke="#0570B0" stroke-width="0.943937" stroke-linecap="round" stroke-linejoin="round" stroke-miterlimit="10" fill="none" fill-rule="evenodd"/><path d="M266.5 585.5 271.5 591.5 261.5 591.5Z" stroke="#0570B0" stroke-width="0.943937" stroke-linecap="round" stroke-linejoin="round" stroke-miterlimit="10" fill="#0570B0" fill-rule="evenodd"/><path d="M267 620.5 271.5 626.5 262.5 626.5Z" stroke="#0570B0" stroke-width="0.943937" stroke-linecap="round" stroke-linejoin="round" stroke-miterlimit="10" fill="none" fill-rule="evenodd"/><path d="M272 620.5 276.5 626.5 267.5 626.5Z" stroke="#0570B0" stroke-width="0.943937" stroke-linecap="round" stroke-linejoin="round" stroke-miterlimit="10" fill="none" fill-rule="evenodd"/><path d="M273 620.5 277.5 626.5 268.5 626.5Z" stroke="#0570B0" stroke-width="0.943937" stroke-linecap="round" stroke-linejoin="round" stroke-miterlimit="10" fill="none" fill-rule="evenodd"/><path d="M273.5 620.5 278.5 626.5 268.5 626.5Z" stroke="#0570B0" stroke-width="0.943937" stroke-linecap="round" stroke-linejoin="round" stroke-miterlimit="10" fill="none" fill-rule="evenodd"/><path d="M279.5 620.5 284.5 626.5 274.5 626.5Z" stroke="#0570B0" stroke-width="0.943937" stroke-linecap="round" stroke-linejoin="round" stroke-miterlimit="10" fill="none" fill-rule="evenodd"/><path d="M280.5 620.5 285.5 626.5 275.5 626.5Z" stroke="#0570B0" stroke-width="0.943937" stroke-linecap="round" stroke-linejoin="round" stroke-miterlimit="10" fill="none" fill-rule="evenodd"/><path d="M285.5 620.5 290.5 626.5 280.5 626.5Z" stroke="#0570B0" stroke-width="0.943937" stroke-linecap="round" stroke-linejoin="round" stroke-miterlimit="10" fill="none" fill-rule="evenodd"/><path d="M286.5 620.5 291.5 626.5 281.5 626.5Z" stroke="#0570B0" stroke-width="0.943937" stroke-linecap="round" stroke-linejoin="round" stroke-miterlimit="10" fill="none" fill-rule="evenodd"/><path d="M287.5 620.5 292.5 626.5 282.5 626.5Z" stroke="#0570B0" stroke-width="0.943937" stroke-linecap="round" stroke-linejoin="round" stroke-miterlimit="10" fill="none" fill-rule="evenodd"/><path d="M292.5 620.5 297.5 626.5 287.5 626.5Z" stroke="#0570B0" stroke-width="0.943937" stroke-linecap="round" stroke-linejoin="round" stroke-miterlimit="10" fill="none" fill-rule="evenodd"/><path d="M293.5 620.5 298.5 626.5 288.5 626.5Z" stroke="#0570B0" stroke-width="0.943937" stroke-linecap="round" stroke-linejoin="round" stroke-miterlimit="10" fill="none" fill-rule="evenodd"/><path d="M294 587.5 298.5 593.5 289.5 593.5Z" stroke="#0570B0" stroke-width="0.943937" stroke-linecap="round" stroke-linejoin="round" stroke-miterlimit="10" fill="#0570B0" fill-rule="evenodd"/><path d="M299 620.5 303.5 626.5 294.5 626.5Z" stroke="#0570B0" stroke-width="0.943937" stroke-linecap="round" stroke-linejoin="round" stroke-miterlimit="10" fill="none" fill-rule="evenodd"/><path d="M300 620.5 304.5 626.5 295.5 626.5Z" stroke="#0570B0" stroke-width="0.943937" stroke-linecap="round" stroke-linejoin="round" stroke-miterlimit="10" fill="none" fill-rule="evenodd"/><path d="M301 620.5 305.5 626.5 296.5 626.5Z" stroke="#0570B0" stroke-width="0.943937" stroke-linecap="round" stroke-linejoin="round" stroke-miterlimit="10" fill="none" fill-rule="evenodd"/><path d="M305.5 620.5 310.5 626.5 300.5 626.5Z" stroke="#0570B0" stroke-width="0.943937" stroke-linecap="round" stroke-linejoin="round" stroke-miterlimit="10" fill="none" fill-rule="evenodd"/><path d="M306.5 593.5 311.5 599.5 301.5 599.5Z" stroke="#0570B0" stroke-width="0.943937" stroke-linecap="round" stroke-linejoin="round" stroke-miterlimit="10" fill="#0570B0" fill-rule="evenodd"/><path d="M311 545.998C311 550.001 304 550.001 304 545.998 304 542.001 311 542.001 311 545.998" fill="#FEC44F" fill-rule="evenodd"/><path d="M312.5 620.5 317.5 626.5 307.5 626.5Z" stroke="#0570B0" stroke-width="0.943937" stroke-linecap="round" stroke-linejoin="round" stroke-miterlimit="10" fill="none" fill-rule="evenodd"/><path d="M313.5 600.5 318.5 606.5 308.5 606.5Z" stroke="#0570B0" stroke-width="0.943937" stroke-linecap="round" stroke-linejoin="round" stroke-miterlimit="10" fill="#0570B0" fill-rule="evenodd"/><path d="M314.5 579.5 319.5 586.5 309.5 586.5Z" stroke="#0570B0" stroke-width="0.943937" stroke-linecap="round" stroke-linejoin="round" stroke-miterlimit="10" fill="#0570B0" fill-rule="evenodd"/><path d="M319.5 580.5 324.5 587.5 314.5 587.5Z" stroke="#0570B0" stroke-width="0.943937" stroke-linecap="round" stroke-linejoin="round" stroke-miterlimit="10" fill="#0570B0" fill-rule="evenodd"/><path d="M320.5 620.5 325.5 626.5 315.5 626.5Z" stroke="#0570B0" stroke-width="0.943937" stroke-linecap="round" stroke-linejoin="round" stroke-miterlimit="10" fill="none" fill-rule="evenodd"/><path d="M321.504 620.5 326.5 626.5 316.5 626.5Z" stroke="#0570B0" stroke-width="0.943937" stroke-linecap="round" stroke-linejoin="round" stroke-miterlimit="10" fill="none" fill-rule="evenodd"/><path d="M326 620.5 330.5 626.5 321.5 626.5Z" stroke="#0570B0" stroke-width="0.943937" stroke-linecap="round" stroke-linejoin="round" stroke-miterlimit="10" fill="none" fill-rule="evenodd"/><path d="M326.997 602.5 331.5 608.5 322.5 608.5Z" stroke="#0570B0" stroke-width="0.943937" stroke-linecap="round" stroke-linejoin="round" stroke-miterlimit="10" fill="#0570B0" fill-rule="evenodd"/><path d="M328 594.5 332.5 601.5 323.5 601.5Z" stroke="#0570B0" stroke-width="0.943937" stroke-linecap="round" stroke-linejoin="round" stroke-miterlimit="10" fill="#0570B0" fill-rule="evenodd"/><path d="M336 544.5C336 547.833 329 547.833 329 544.5 329 541.167 336 541.167 336 544.5" fill="#FEC44F" fill-rule="evenodd"/><path d="M337 543.998C337 548.001 330 548.001 330 543.998 330 540.001 337 540.001 337 543.998" fill="#FEC44F" fill-rule="evenodd"/><path d="M338 555.498C338 558.834 331 558.834 331 555.498 331 552.167 338 552.167 338 555.498" fill="#FEC44F" fill-rule="evenodd"/><path d="M339.5 581.5 344.5 588.5 334.5 588.5Z" stroke="#0570B0" stroke-width="0.943937" stroke-linecap="round" stroke-linejoin="round" stroke-miterlimit="10" fill="#0570B0" fill-rule="evenodd"/><path d="M344 543.002C344 546.999 336 546.999 336 543.002 336 538.999 344 538.999 344 543.002" fill="#FEC44F" fill-rule="evenodd"/><path d="M345 503.5C345 506.833 337 506.833 337 503.5 337 500.167 345 500.167 345 503.5" fill="#FEC44F" fill-rule="evenodd"/><path d="M349 543.002C349 546.999 342 546.999 342 543.002 342 538.999 349 538.999 349 543.002" fill="#FEC44F" fill-rule="evenodd"/><path d="M350 535.498C350 538.834 343 538.834 343 535.498 343 532.167 350 532.167 350 535.498" fill="#FEC44F" fill-rule="evenodd"/><path d="M351 518C351 522 344 522 344 518 344 514 351 514 351 518" fill="#FEC44F" fill-rule="evenodd"/><path d="M356 537.002C356 540.999 349 540.999 349 537.002 349 532.999 356 532.999 356 537.002" fill="#FEC44F" fill-rule="evenodd"/><path d="M357 519.5C357 522.833 350 522.833 350 519.5 350 516.167 357 516.167 357 519.5" fill="#FEC44F" fill-rule="evenodd"/><path d="M358 520C358 524 351 524 351 520 351 516 358 516 358 520" fill="#FEC44F" fill-rule="evenodd"/><path d="M363 525.5C363 528.833 356 528.833 356 525.5 356 522.167 363 522.167 363 525.5" fill="#FEC44F" fill-rule="evenodd"/><path d="M364 506.5C364 509.833 357 509.833 357 506.5 357 503.167 364 503.167 364 506.5" fill="#FEC44F" fill-rule="evenodd"/><path d="M365 500C365 504 358 504 358 500 358 496 365 496 365 500" fill="#FEC44F" fill-rule="evenodd"/><path d="M370 542.498C370 545.834 362 545.834 362 542.498 362 539.167 370 539.167 370 542.498" fill="#FEC44F" fill-rule="evenodd"/><path d="M371 508.502C371 511.833 363 511.833 363 508.502 363 505.166 371 505.166 371 508.502" fill="#FEC44F" fill-rule="evenodd"/><path d="M372 503.002C372 506.999 364 506.999 364 503.002 364 498.999 372 498.999 372 503.002" fill="#FEC44F" fill-rule="evenodd"/><path d="M376 529.502C376 532.833 369 532.833 369 529.502 369 526.166 376 526.166 376 529.502" fill="#FEC44F" fill-rule="evenodd"/><path d="M377 495.998C377 500.001 370 500.001 370 495.998 370 492.001 377 492.001 377 495.998" fill="#FEC44F" fill-rule="evenodd"/><path d="M378 508.998C378 513.001 371 513.001 371 508.998 371 505.001 378 505.001 378 508.998" fill="#FEC44F" fill-rule="evenodd"/><path d="M383 520.498C383 523.834 376 523.834 376 520.498 376 517.167 383 517.167 383 520.498" fill="#FEC44F" fill-rule="evenodd"/><path d="M384 491.5C384 494.833 377 494.833 377 491.5 377 488.167 384 488.167 384 491.5" fill="#FEC44F" fill-rule="evenodd"/><path d="M385 512C385 516 378 516 378 512 378 508 385 508 385 512" fill="#FEC44F" fill-rule="evenodd"/><path d="M391 532.5C391 535.833 384 535.833 384 532.5 384 529.167 391 529.167 391 532.5" fill="#FEC44F" fill-rule="evenodd"/><path d="M392 533C392 537 385 537 385 533 385 529 392 529 392 533" fill="#FEC44F" fill-rule="evenodd"/><path d="M398 542.502C398 545.833 390 545.833 390 542.502 390 539.166 398 539.166 398 542.502" fill="#FEC44F" fill-rule="evenodd"/><path d="M399 515.502C399 518.833 391 518.833 391 515.502 391 512.166 399 512.166 399 515.502" fill="#FEC44F" fill-rule="evenodd"/><path d="M403 549.5C403 552.833 396 552.833 396 549.5 396 546.167 403 546.167 403 549.5" fill="#FEC44F" fill-rule="evenodd"/><path d="M404 520.002C404 523.999 397 523.999 397 520.002 397 515.999 404 515.999 404 520.002" fill="#FEC44F" fill-rule="evenodd"/><path d="M405 551.5C405 554.833 398 554.833 398 551.5 398 548.167 405 548.167 405 551.5" fill="#FEC44F" fill-rule="evenodd"/><path d="M411 580.498C411 583.834 404 583.834 404 580.498 404 577.167 411 577.167 411 580.498" fill="#FEC44F" fill-rule="evenodd"/><path d="M412 559.502C412 562.833 405 562.833 405 559.502 405 556.166 412 556.166 412 559.502" fill="#FEC44F" fill-rule="evenodd"/><path d="M410 592.5 414.5 598.5 405.5 598.5Z" stroke="#0570B0" stroke-width="0.943937" stroke-linecap="round" stroke-linejoin="round" stroke-miterlimit="10" fill="#0570B0" fill-rule="evenodd"/><path d="M414 552.5C414 555.833 407 555.833 407 552.5 407 549.167 414 549.167 414 552.5" fill="#FEC44F" fill-rule="evenodd"/><path d="M413.5 620.5 418.5 626.5 408.5 626.5Z" stroke="#0570B0" stroke-width="0.943937" stroke-linecap="round" stroke-linejoin="round" stroke-miterlimit="10" fill="none" fill-rule="evenodd"/><path d="M414.5 620.5 419.5 626.5 409.5 626.5Z" stroke="#0570B0" stroke-width="0.943937" stroke-linecap="round" stroke-linejoin="round" stroke-miterlimit="10" fill="none" fill-rule="evenodd"/><path d="M415.5 620.5 420.5 626.5 410.5 626.5Z" stroke="#0570B0" stroke-width="0.943937" stroke-linecap="round" stroke-linejoin="round" stroke-miterlimit="10" fill="none" fill-rule="evenodd"/><path d="M420.5 620.5 425.5 626.5 415.5 626.5Z" stroke="#0570B0" stroke-width="0.943937" stroke-linecap="round" stroke-linejoin="round" stroke-miterlimit="10" fill="none" fill-rule="evenodd"/><path d="M425 569C425 573 417 573 417 569 417 565 425 565 425 569" fill="#FEC44F" fill-rule="evenodd"/><path d="M426 552.502C426 555.833 418 555.833 418 552.502 418 549.166 426 549.166 426 552.502" fill="#FEC44F" fill-rule="evenodd"/><path d="M427.5 620.5 432.5 626.5 422.5 626.5Z" stroke="#0570B0" stroke-width="0.943937" stroke-linecap="round" stroke-linejoin="round" stroke-miterlimit="10" fill="none" fill-rule="evenodd"/><path d="M428.504 620.5 433.5 626.5 423.5 626.5Z" stroke="#0570B0" stroke-width="0.943937" stroke-linecap="round" stroke-linejoin="round" stroke-miterlimit="10" fill="none" fill-rule="evenodd"/><path d="M429.5 620.5 434.5 626.5 424.5 626.5Z" stroke="#0570B0" stroke-width="0.943937" stroke-linecap="round" stroke-linejoin="round" stroke-miterlimit="10" fill="none" fill-rule="evenodd"/><path d="M434 620.5 438.5 626.5 429.5 626.5Z" stroke="#0570B0" stroke-width="0.943937" stroke-linecap="round" stroke-linejoin="round" stroke-miterlimit="10" fill="none" fill-rule="evenodd"/><path d="M438 566.502C438 569.833 431 569.833 431 566.502 431 563.166 438 563.166 438 566.502" fill="#FEC44F" fill-rule="evenodd"/><path d="M436 620.5 440.5 626.5 431.5 626.5Z" stroke="#0570B0" stroke-width="0.943937" stroke-linecap="round" stroke-linejoin="round" stroke-miterlimit="10" fill="none" fill-rule="evenodd"/><path d="M441.5 584.5 446.5 590.5 436.5 590.5Z" stroke="#0570B0" stroke-width="0.943937" stroke-linecap="round" stroke-linejoin="round" stroke-miterlimit="10" fill="#0570B0" fill-rule="evenodd"/><path d="M442.5 587.5 447.5 593.5 437.5 593.5Z" stroke="#0570B0" stroke-width="0.943937" stroke-linecap="round" stroke-linejoin="round" stroke-miterlimit="10" fill="#0570B0" fill-rule="evenodd"/><path d="M443.5 595.5 448.5 601.5 438.5 601.5Z" stroke="#0570B0" stroke-width="0.943937" stroke-linecap="round" stroke-linejoin="round" stroke-miterlimit="10" fill="#0570B0" fill-rule="evenodd"/><path d="M447.5 620.5 452.5 626.5 442.5 626.5Z" stroke="#0570B0" stroke-width="0.943937" stroke-linecap="round" stroke-linejoin="round" stroke-miterlimit="10" fill="none" fill-rule="evenodd"/><path d="M448.5 620.5 453.5 626.5 443.5 626.5Z" stroke="#0570B0" stroke-width="0.943937" stroke-linecap="round" stroke-linejoin="round" stroke-miterlimit="10" fill="none" fill-rule="evenodd"/><path d="M449.5 620.5 454.5 626.5 444.5 626.5Z" stroke="#0570B0" stroke-width="0.943937" stroke-linecap="round" stroke-linejoin="round" stroke-miterlimit="10" fill="none" fill-rule="evenodd"/><path d="M454.5 620.5 459.5 626.5 449.5 626.5Z" stroke="#0570B0" stroke-width="0.943937" stroke-linecap="round" stroke-linejoin="round" stroke-miterlimit="10" fill="none" fill-rule="evenodd"/><path d="M455.5 620.5 460.5 626.5 450.5 626.5Z" stroke="#0570B0" stroke-width="0.943937" stroke-linecap="round" stroke-linejoin="round" stroke-miterlimit="10" fill="none" fill-rule="evenodd"/><path d="M456.5 620.5 461.5 626.5 451.5 626.5Z" stroke="#0570B0" stroke-width="0.943937" stroke-linecap="round" stroke-linejoin="round" stroke-miterlimit="10" fill="none" fill-rule="evenodd"/><path d="M461.003 620.5 465.5 626.5 456.5 626.5Z" stroke="#0570B0" stroke-width="0.943937" stroke-linecap="round" stroke-linejoin="round" stroke-miterlimit="10" fill="none" fill-rule="evenodd"/><path d="M462 620.5 466.5 626.5 457.5 626.5Z" stroke="#0570B0" stroke-width="0.943937" stroke-linecap="round" stroke-linejoin="round" stroke-miterlimit="10" fill="none" fill-rule="evenodd"/><path d="M463 620.5 467.5 626.5 458.5 626.5Z" stroke="#0570B0" stroke-width="0.943937" stroke-linecap="round" stroke-linejoin="round" stroke-miterlimit="10" fill="none" fill-rule="evenodd"/><path d="M467.5 620.5 472.5 626.5 462.5 626.5Z" stroke="#0570B0" stroke-width="0.943937" stroke-linecap="round" stroke-linejoin="round" stroke-miterlimit="10" fill="none" fill-rule="evenodd"/><path d="M468.5 620.5 473.5 626.5 463.5 626.5Z" stroke="#0570B0" stroke-width="0.943937" stroke-linecap="round" stroke-linejoin="round" stroke-miterlimit="10" fill="none" fill-rule="evenodd"/><path d="M473 567C473 571 466 571 466 567 466 563 473 563 473 567" fill="#FEC44F" fill-rule="evenodd"/><path d="M474.5 620.5 479.5 626.5 469.5 626.5Z" stroke="#0570B0" stroke-width="0.943937" stroke-linecap="round" stroke-linejoin="round" stroke-miterlimit="10" fill="none" fill-rule="evenodd"/><path d="M475.5 594.5 480.5 601.5 470.5 601.5Z" stroke="#0570B0" stroke-width="0.943937" stroke-linecap="round" stroke-linejoin="round" stroke-miterlimit="10" fill="#0570B0" fill-rule="evenodd"/><path d="M476.5 620.5 481.5 626.5 471.5 626.5Z" stroke="#0570B0" stroke-width="0.943937" stroke-linecap="round" stroke-linejoin="round" stroke-miterlimit="10" fill="none" fill-rule="evenodd"/><path d="M481.5 620.5 486.5 626.5 476.5 626.5Z" stroke="#0570B0" stroke-width="0.943937" stroke-linecap="round" stroke-linejoin="round" stroke-miterlimit="10" fill="none" fill-rule="evenodd"/><path d="M482.5 620.5 487.5 626.5 477.5 626.5Z" stroke="#0570B0" stroke-width="0.943937" stroke-linecap="round" stroke-linejoin="round" stroke-miterlimit="10" fill="none" fill-rule="evenodd"/><path d="M483.5 595.5 488.5 602.5 478.5 602.5Z" stroke="#0570B0" stroke-width="0.943937" stroke-linecap="round" stroke-linejoin="round" stroke-miterlimit="10" fill="#0570B0" fill-rule="evenodd"/><path d="M488.5 620.5 493.5 626.5 483.5 626.5Z" stroke="#0570B0" stroke-width="0.943937" stroke-linecap="round" stroke-linejoin="round" stroke-miterlimit="10" fill="none" fill-rule="evenodd"/><path d="M489 620.5 493.5 626.5 484.5 626.5Z" stroke="#0570B0" stroke-width="0.943937" stroke-linecap="round" stroke-linejoin="round" stroke-miterlimit="10" fill="none" fill-rule="evenodd"/><path d="M490 620.5 494.5 626.5 485.5 626.5Z" stroke="#0570B0" stroke-width="0.943937" stroke-linecap="round" stroke-linejoin="round" stroke-miterlimit="10" fill="none" fill-rule="evenodd"/><path d="M495 620.5 499.5 626.5 490.5 626.5Z" stroke="#0570B0" stroke-width="0.943937" stroke-linecap="round" stroke-linejoin="round" stroke-miterlimit="10" fill="none" fill-rule="evenodd"/><path d="M495.5 620.5 500.5 626.5 490.5 626.5Z" stroke="#0570B0" stroke-width="0.943937" stroke-linecap="round" stroke-linejoin="round" stroke-miterlimit="10" fill="none" fill-rule="evenodd"/><path d="M496.504 620.5 501.5 626.5 491.5 626.5Z" stroke="#0570B0" stroke-width="0.943937" stroke-linecap="round" stroke-linejoin="round" stroke-miterlimit="10" fill="none" fill-rule="evenodd"/><path d="M501.5 620.5 506.5 626.5 496.5 626.5Z" stroke="#0570B0" stroke-width="0.943937" stroke-linecap="round" stroke-linejoin="round" stroke-miterlimit="10" fill="none" fill-rule="evenodd"/><path d="M502.5 620.5 507.5 626.5 497.5 626.5Z" stroke="#0570B0" stroke-width="0.943937" stroke-linecap="round" stroke-linejoin="round" stroke-miterlimit="10" fill="none" fill-rule="evenodd"/><path d="M503.5 620.5 508.5 626.5 498.5 626.5Z" stroke="#0570B0" stroke-width="0.943937" stroke-linecap="round" stroke-linejoin="round" stroke-miterlimit="10" fill="none" fill-rule="evenodd"/><path d="M508.5 620.5 513.5 626.5 503.5 626.5Z" stroke="#0570B0" stroke-width="0.943937" stroke-linecap="round" stroke-linejoin="round" stroke-miterlimit="10" fill="none" fill-rule="evenodd"/><path d="M509.5 620.5 514.5 626.5 504.5 626.5Z" stroke="#0570B0" stroke-width="0.943937" stroke-linecap="round" stroke-linejoin="round" stroke-miterlimit="10" fill="none" fill-rule="evenodd"/><path d="M510.5 620.5 515.5 626.5 505.5 626.5Z" stroke="#0570B0" stroke-width="0.943937" stroke-linecap="round" stroke-linejoin="round" stroke-miterlimit="10" fill="none" fill-rule="evenodd"/><path d="M515.5 620.5 520.5 626.5 510.5 626.5Z" stroke="#0570B0" stroke-width="0.943937" stroke-linecap="round" stroke-linejoin="round" stroke-miterlimit="10" fill="none" fill-rule="evenodd"/><path d="M516.5 620.5 521.5 626.5 511.5 626.5Z" stroke="#0570B0" stroke-width="0.943937" stroke-linecap="round" stroke-linejoin="round" stroke-miterlimit="10" fill="none" fill-rule="evenodd"/><path d="M517 620.5 521.5 626.5 512.5 626.5Z" stroke="#0570B0" stroke-width="0.943937" stroke-linecap="round" stroke-linejoin="round" stroke-miterlimit="10" fill="none" fill-rule="evenodd"/><path d="M522 620.5 526.5 626.5 517.5 626.5Z" stroke="#0570B0" stroke-width="0.943937" stroke-linecap="round" stroke-linejoin="round" stroke-miterlimit="10" fill="none" fill-rule="evenodd"/><path d="M523 620.5 527.5 626.5 518.5 626.5Z" stroke="#0570B0" stroke-width="0.943937" stroke-linecap="round" stroke-linejoin="round" stroke-miterlimit="10" fill="none" fill-rule="evenodd"/><path d="M523.5 620.5 528.5 626.5 518.5 626.5Z" stroke="#0570B0" stroke-width="0.943937" stroke-linecap="round" stroke-linejoin="round" stroke-miterlimit="10" fill="none" fill-rule="evenodd"/><path d="M528.5 620.5 533.5 626.5 523.5 626.5Z" stroke="#0570B0" stroke-width="0.943937" stroke-linecap="round" stroke-linejoin="round" stroke-miterlimit="10" fill="none" fill-rule="evenodd"/><path d="M529.504 620.5 534.5 626.5 524.5 626.5Z" stroke="#0570B0" stroke-width="0.943937" stroke-linecap="round" stroke-linejoin="round" stroke-miterlimit="10" fill="none" fill-rule="evenodd"/><path d="M530.5 620.5 535.5 626.5 525.5 626.5Z" stroke="#0570B0" stroke-width="0.943937" stroke-linecap="round" stroke-linejoin="round" stroke-miterlimit="10" fill="none" fill-rule="evenodd"/><path d="M536.5 620.5 541.5 626.5 531.5 626.5Z" stroke="#0570B0" stroke-width="0.943937" stroke-linecap="round" stroke-linejoin="round" stroke-miterlimit="10" fill="none" fill-rule="evenodd"/><path d="M537.5 620.5 542.5 626.5 532.5 626.5Z" stroke="#0570B0" stroke-width="0.943937" stroke-linecap="round" stroke-linejoin="round" stroke-miterlimit="10" fill="none" fill-rule="evenodd"/><path d="M136 671 136 465" stroke="#000000" stroke-width="2" stroke-linecap="square" stroke-linejoin="round" stroke-miterlimit="10" fill="none" fill-rule="evenodd"/><path d="M147 661 136 661" stroke="#333333" stroke-width="2" stroke-linejoin="round" stroke-miterlimit="10" fill="none" fill-rule="evenodd"/><path d="M147 608 136 608" stroke="#333333" stroke-width="2" stroke-linejoin="round" stroke-miterlimit="10" fill="none" fill-rule="evenodd"/><path d="M147 555 136 555" stroke="#333333" stroke-width="2" stroke-linejoin="round" stroke-miterlimit="10" fill="none" fill-rule="evenodd"/><path d="M147 501 136 501" stroke="#333333" stroke-width="2" stroke-linejoin="round" stroke-miterlimit="10" fill="none" fill-rule="evenodd"/><path d="M136 671 557 671" stroke="#000000" stroke-width="2" stroke-linecap="square" stroke-linejoin="round" stroke-miterlimit="10" fill="none" fill-rule="evenodd"/><path d="M186 663 186 671" stroke="#333333" stroke-width="2" stroke-linejoin="round" stroke-miterlimit="10" fill="none" fill-rule="evenodd"/><path d="M244 663 244 671" stroke="#333333" stroke-width="2" stroke-linejoin="round" stroke-miterlimit="10" fill="none" fill-rule="evenodd"/><path d="M303 663 303 671" stroke="#333333" stroke-width="2" stroke-linejoin="round" stroke-miterlimit="10" fill="none" fill-rule="evenodd"/><path d="M362 663 362 671" stroke="#333333" stroke-width="2" stroke-linejoin="round" stroke-miterlimit="10" fill="none" fill-rule="evenodd"/><path d="M422 663 422 671" stroke="#333333" stroke-width="2" stroke-linejoin="round" stroke-miterlimit="10" fill="none" fill-rule="evenodd"/><path d="M479 663 479 671" stroke="#333333" stroke-width="2" stroke-linejoin="round" stroke-miterlimit="10" fill="none" fill-rule="evenodd"/><path d="M538 663 538 671" stroke="#333333" stroke-width="2" stroke-linejoin="round" stroke-miterlimit="10" fill="none" fill-rule="evenodd"/><text font-family="Arial,Arial_MSFontService,sans-serif" font-weight="400" font-size="21" transform="translate(108.617 504)">5</text><text font-family="Arial,Arial_MSFontService,sans-serif" font-weight="400" font-size="21" transform="translate(108.617 556)">4</text><text font-family="Arial,Arial_MSFontService,sans-serif" font-weight="400" font-size="21" transform="translate(108.617 613)">3</text><text font-family="Arial,Arial_MSFontService,sans-serif" font-weight="400" font-size="21" transform="translate(108.617 665)">2</text><text font-family="Arial,Arial_MSFontService,sans-serif" font-weight="400" font-size="21" transform="translate(158.853 503)">Colorado</text><path d="M752.36 377.864 757.247 377.864 757.118 378.439C756.766 378.462 756.491 378.565 756.292 378.749 756.092 378.933 755.954 379.183 755.876 379.499 755.797 379.815 755.758 380.263 755.758 380.841L755.758 381.239C755.758 381.38 755.762 381.524 755.77 381.673L755.876 386.255C755.883 386.591 755.887 387.423 755.887 388.751L755.876 391.2 755.993 391.2 762.473 377.864 764.243 377.864 764.243 385.681C764.243 386.97 764.208 388.81 764.137 391.2L764.254 391.2 769.001 382.024C769.18 381.681 769.37 381.276 769.569 380.812 769.768 380.347 769.868 379.946 769.868 379.61 769.868 378.954 769.477 378.564 768.696 378.439L768.825 377.864 773.618 377.864 773.489 378.439C773.129 378.485 772.786 378.683 772.458 379.03 772.129 379.378 771.692 380.056 771.145 381.064L764.102 394.013 762.297 394.013 762.297 385.435C762.297 384.044 762.333 382.595 762.403 381.087L762.286 381.087 756.016 394.013 754.176 394.013 753.626 380.981C753.594 380.333 753.526 379.837 753.42 379.493 753.315 379.149 753.172 378.899 752.993 378.743 752.813 378.587 752.559 378.485 752.231 378.439Z" fill="#4B5E68" fill-rule="evenodd"/><text fill="#000000" fill-opacity="0" font-family="Arial,Arial_MSFontService,sans-serif" font-size="16.1484" x="752.231" y="391.994">𝑊</text><path d="M776.728 375.485 778.92 375.485 778.92 376.153 776.096 382.95 775.1 382.657Z" fill="#4B5E68" fill-rule="evenodd"/><text fill="#000000" fill-opacity="0" font-family="Arial,Arial_MSFontService,sans-serif" font-size="7.46484" x="775.1" y="382.017">′</text><path d="M800.809 375.893C803.09 376.495 804.842 377.794 806.065 379.79 807.287 381.786 807.899 384.194 807.899 387.015 807.899 389.843 807.289 392.251 806.071 394.239 804.852 396.227 803.098 397.522 800.809 398.124L800.528 397.222C802.332 396.62 803.674 395.433 804.553 393.659 805.432 391.886 805.871 389.632 805.871 386.897 805.871 384.257 805.434 382.063 804.559 380.317 803.684 378.571 802.328 377.397 800.493 376.796ZM789.2 375.893 789.516 376.796C787.688 377.397 786.335 378.571 785.456 380.317 784.577 382.063 784.137 384.257 784.137 386.897 784.137 389.632 784.577 391.886 785.456 393.659 786.335 395.433 787.676 396.62 789.481 397.222L789.2 398.124C786.911 397.522 785.157 396.227 783.938 394.239 782.719 392.251 782.11 389.843 782.11 387.015 782.11 384.194 782.721 381.786 783.944 379.79 785.167 377.794 786.919 376.495 789.2 375.893Z" fill="#4B5E68" fill-rule="evenodd"/><path d="M794.543 379.763 796.16 379.763 795.515 382.657 799.078 382.657 798.82 383.841 795.257 383.841 794.214 388.388C794.011 389.271 793.882 389.905 793.828 390.292 793.773 390.679 793.746 390.989 793.746 391.224 793.746 392.192 794.148 392.677 794.953 392.677 795.297 392.677 795.662 392.546 796.048 392.284 796.435 392.022 796.894 391.575 797.425 390.942L798.105 391.646C797.425 392.466 796.771 393.071 796.142 393.462 795.513 393.853 794.855 394.048 794.168 394.048 792.535 394.048 791.718 393.224 791.718 391.575 791.718 391.052 791.785 390.501 791.918 389.923L793.3 383.841 791.332 383.841 791.507 383.032C791.968 383.024 792.318 382.989 792.556 382.927 792.795 382.864 792.994 382.778 793.154 382.669 793.314 382.56 793.461 382.403 793.593 382.2 793.726 381.997 793.855 381.737 793.98 381.421 794.105 381.105 794.293 380.552 794.543 379.763Z" fill="#4B5E68" fill-rule="evenodd"/><text fill="#000000" fill-opacity="0" font-family="Arial,Arial_MSFontService,sans-serif" font-size="14.2852" x="791.332" y="392.262">𝑡</text><path d="M818.42 388.657 832.857 388.657 832.857 390.216 818.42 390.216ZM818.42 383.794 832.857 383.794 832.857 385.353 818.42 385.353Z" fill="#4B5E68" fill-rule="evenodd"/><text fill="#000000" fill-opacity="0" font-family="Arial,Arial_MSFontService,sans-serif" font-size="6.42188" x="818.42" y="389.413">=</text><path d="M855.111 378.896C854.697 378.896 854.26 378.911 853.799 378.942L852.299 385.728 853.682 385.728C854.815 385.728 855.709 385.575 856.365 385.271 857.022 384.966 857.541 384.466 857.924 383.771 858.307 383.075 858.498 382.325 858.498 381.521 858.498 381.185 858.467 380.886 858.404 380.624 858.342 380.362 858.26 380.146 858.158 379.974 858.057 379.802 857.928 379.649 857.772 379.517 857.615 379.384 857.42 379.269 857.186 379.171 856.951 379.073 856.68 379.003 856.371 378.96 856.063 378.917 855.643 378.896 855.111 378.896ZM850.412 377.864 855.627 377.864C856.455 377.864 857.131 377.913 857.654 378.011 858.178 378.108 858.625 378.255 858.996 378.45 859.367 378.646 859.678 378.897 859.928 379.206 860.178 379.515 860.365 379.862 860.49 380.249 860.615 380.636 860.678 381.048 860.678 381.485 860.678 382.689 860.311 383.712 859.576 384.556 858.842 385.399 857.76 386.04 856.33 386.478L856.33 386.606C856.705 386.888 857.008 387.224 857.238 387.614 857.469 388.005 857.654 388.548 857.795 389.243L858.065 390.603C858.15 391.032 858.248 391.419 858.357 391.763 858.467 392.106 858.598 392.38 858.75 392.583 858.902 392.786 859.074 392.939 859.266 393.04 859.457 393.142 859.736 393.224 860.104 393.286L859.986 393.86 856.74 393.86C856.49 393.165 856.268 392.337 856.072 391.376L855.557 388.892C855.471 388.462 855.367 388.101 855.246 387.808 855.125 387.515 854.981 387.288 854.813 387.128 854.645 386.968 854.449 386.862 854.227 386.812 854.004 386.761 853.732 386.735 853.412 386.735L852.076 386.735 851.256 390.45C851.186 390.755 851.137 390.997 851.109 391.177 851.082 391.356 851.059 391.546 851.039 391.745 851.02 391.944 851.01 392.122 851.01 392.278 851.01 392.521 851.049 392.71 851.127 392.847 851.205 392.983 851.322 393.083 851.479 393.146 851.635 393.208 851.904 393.255 852.287 393.286L852.158 393.86 847.342 393.86 847.471 393.286C847.768 393.239 847.99 393.163 848.139 393.058 848.287 392.952 848.412 392.806 848.514 392.618 848.615 392.431 848.709 392.202 848.795 391.933 848.881 391.663 849.01 391.142 849.182 390.368L851.174 381.345C851.346 380.564 851.432 379.946 851.432 379.493 851.432 379.11 851.342 378.845 851.162 378.696 850.982 378.548 850.69 378.462 850.283 378.439Z" fill="#4B5E68" fill-rule="evenodd"/><text fill="#000000" fill-opacity="0" font-family="Arial,Arial_MSFontService,sans-serif" font-size="15.9961" x="847.342" y="391.861">𝑅</text><path d="M876.253 389.971 878.793 389.971 879.479 397.108C879.854 396.528 880.185 396.004 880.472 395.535 880.759 395.066 881.011 394.635 881.228 394.243 881.445 393.85 881.632 393.487 881.79 393.153 881.948 392.819 882.082 392.5 882.19 392.195 882.299 391.89 882.389 391.591 882.463 391.298 882.536 391.005 882.599 390.704 882.652 390.393L882.757 389.971 884.163 389.971 884.928 397.108C885.895 395.79 886.626 394.637 887.121 393.65 887.616 392.662 887.863 391.873 887.863 391.281 887.863 391.023 887.802 390.841 887.679 390.736 887.556 390.63 887.333 390.563 887.011 390.534L887.116 389.971 889.595 389.971 889.903 390.481C889.656 391.12 889.385 391.75 889.09 392.371 888.794 392.992 888.446 393.638 888.048 394.309 887.65 394.98 887.184 395.69 886.651 396.44 886.117 397.19 885.49 398.01 884.77 398.901L883.645 398.901 882.933 392.801C882.546 393.692 882.058 394.641 881.469 395.649 880.881 396.657 880.188 397.741 879.391 398.901L878.108 398.901 877.281 392.265C877.235 391.914 877.194 391.631 877.158 391.417 877.123 391.203 877.069 391.036 876.996 390.916 876.923 390.796 876.819 390.71 876.684 390.657 876.549 390.604 876.362 390.563 876.121 390.534ZM862.253 389.971 864.793 389.971 865.479 397.108C865.854 396.528 866.185 396.004 866.472 395.535 866.759 395.066 867.011 394.635 867.228 394.243 867.445 393.85 867.632 393.487 867.79 393.153 867.948 392.819 868.082 392.5 868.19 392.195 868.299 391.89 868.389 391.591 868.463 391.298 868.536 391.005 868.599 390.704 868.652 390.393L868.757 389.971 870.163 389.971 870.928 397.108C871.895 395.79 872.626 394.637 873.121 393.65 873.616 392.662 873.863 391.873 873.863 391.281 873.863 391.023 873.802 390.841 873.679 390.736 873.556 390.63 873.333 390.563 873.011 390.534L873.116 389.971 875.595 389.971 875.903 390.481C875.656 391.12 875.385 391.75 875.09 392.371 874.794 392.992 874.446 393.638 874.048 394.309 873.65 394.98 873.184 395.69 872.651 396.44 872.117 397.19 871.49 398.01 870.77 398.901L869.645 398.901 868.933 392.801C868.546 393.692 868.058 394.641 867.469 395.649 866.881 396.657 866.188 397.741 865.391 398.901L864.108 398.901 863.281 392.265C863.235 391.914 863.194 391.631 863.158 391.417 863.123 391.203 863.069 391.036 862.996 390.916 862.923 390.796 862.819 390.71 862.684 390.657 862.549 390.604 862.362 390.563 862.121 390.534Z" fill="#4B5E68" fill-rule="evenodd"/><text fill="#000000" fill-opacity="0" font-family="Arial,Arial_MSFontService,sans-serif" font-size="8.92969" x="862.121" y="397.785">𝑤𝑤</text><path d="M912.509 375.893C914.79 376.495 916.542 377.794 917.765 379.79 918.987 381.786 919.599 384.194 919.599 387.015 919.599 389.843 918.989 392.251 917.771 394.239 916.552 396.227 914.798 397.522 912.509 398.124L912.228 397.222C914.032 396.62 915.374 395.433 916.253 393.659 917.132 391.886 917.571 389.632 917.571 386.897 917.571 384.257 917.134 382.063 916.259 380.317 915.384 378.571 914.029 377.397 912.193 376.796ZM900.9 375.893 901.216 376.796C899.388 377.397 898.035 378.571 897.156 380.317 896.277 382.063 895.837 384.257 895.837 386.897 895.837 389.632 896.277 391.886 897.156 393.659 898.035 395.433 899.376 396.62 901.181 397.222L900.9 398.124C898.611 397.522 896.857 396.227 895.638 394.239 894.419 392.251 893.81 389.843 893.81 387.015 893.81 384.194 894.421 381.786 895.644 379.79 896.867 377.794 898.619 376.495 900.9 375.893Z" fill="#4B5E68" fill-rule="evenodd"/><path d="M906.243 379.763 907.86 379.763 907.215 382.657 910.778 382.657 910.52 383.841 906.957 383.841 905.914 388.388C905.711 389.271 905.582 389.905 905.528 390.292 905.473 390.679 905.446 390.989 905.446 391.224 905.446 392.192 905.848 392.677 906.653 392.677 906.997 392.677 907.362 392.546 907.748 392.284 908.135 392.022 908.594 391.575 909.125 390.942L909.805 391.646C909.125 392.466 908.471 393.071 907.842 393.462 907.213 393.853 906.555 394.048 905.868 394.048 904.235 394.048 903.418 393.224 903.418 391.575 903.418 391.052 903.485 390.501 903.618 389.923L905 383.841 903.032 383.841 903.207 383.032C903.668 383.024 904.018 382.989 904.256 382.927 904.495 382.864 904.694 382.778 904.854 382.669 905.014 382.56 905.161 382.403 905.293 382.2 905.426 381.997 905.555 381.737 905.68 381.421 905.805 381.105 905.993 380.552 906.243 379.763Z" fill="#4B5E68" fill-rule="evenodd"/><text fill="#000000" fill-opacity="0" font-family="Arial,Arial_MSFontService,sans-serif" font-size="14.2852" x="903.032" y="392.262">𝑡</text><path d="M931.032 364.101 959.333 364.101 959.333 371.039 957.786 371.039C957.607 369.375 957.243 368.058 956.696 367.09 956.15 366.121 955.321 365.637 954.212 365.637L935.72 365.637 949.7 384.621 949.7 386.039 934.607 406.523 954.939 406.523C955.837 406.523 956.525 406.207 957.001 405.574 957.478 404.941 957.888 403.527 958.232 401.332L959.966 401.332 959.368 409.922 930.552 409.922 930.552 408.762 946.97 386.508 931.032 365.215Z" fill="#4B5E68" fill-rule="evenodd"/><text fill="#000000" fill-opacity="0" font-family="Arial,Arial_MSFontService,sans-serif" font-size="45.8203" x="930.552" y="404.194">෍</text><path d="M979.565 383.384C978.769 383.384 978.054 383.706 977.421 384.351 976.788 384.995 976.29 385.864 975.927 386.958 975.563 388.052 975.382 389.142 975.382 390.228 975.382 391.04 975.499 391.647 975.733 392.05 975.968 392.452 976.335 392.653 976.835 392.653 977.233 392.653 977.63 392.517 978.024 392.243 978.419 391.97 978.841 391.536 979.29 390.942 979.739 390.349 980.089 389.782 980.339 389.243 980.589 388.704 980.802 388.032 980.978 387.228 981.153 386.423 981.241 385.724 981.241 385.13 981.241 384.521 981.112 384.077 980.854 383.8 980.597 383.522 980.167 383.384 979.565 383.384ZM979.378 382.458C979.87 382.458 980.335 382.517 980.772 382.634 981.21 382.751 981.651 382.95 982.097 383.231L983.175 382.458 983.925 382.646 982.718 388.106C982.632 388.489 982.437 389.454 982.132 391.001 981.812 392.642 981.552 393.802 981.353 394.481 981.153 395.161 980.905 395.78 980.608 396.339 980.312 396.897 979.929 397.384 979.46 397.798 978.991 398.212 978.423 398.532 977.755 398.759 977.087 398.985 976.296 399.099 975.382 399.099 972.429 399.099 970.952 398.239 970.952 396.521 970.952 396.083 971.085 395.685 971.351 395.325 971.616 394.966 972.042 394.587 972.628 394.189L973.472 394.868C973.323 395.048 973.198 395.226 973.097 395.401 972.995 395.577 972.923 395.747 972.88 395.911 972.837 396.075 972.815 396.271 972.815 396.497 972.815 397.083 973.026 397.511 973.448 397.78 973.87 398.05 974.507 398.185 975.358 398.185 976.319 398.185 977.091 397.968 977.673 397.534 978.255 397.101 978.753 396.403 979.167 395.442 979.581 394.481 979.983 393.028 980.374 391.083L980.21 391.048C979.452 392.087 978.749 392.845 978.101 393.321 977.452 393.798 976.753 394.036 976.003 394.036 975.151 394.036 974.489 393.716 974.017 393.075 973.544 392.435 973.308 391.521 973.308 390.333 973.308 388.997 973.569 387.714 974.093 386.483 974.616 385.253 975.343 384.274 976.272 383.548 977.202 382.821 978.237 382.458 979.378 382.458Z" fill="#4B5E68" fill-rule="evenodd"/><text fill="#000000" fill-opacity="0" font-family="Arial,Arial_MSFontService,sans-serif" font-size="16.6406" x="970.952" y="397.019">𝑔</text><path d="M1018.01 375.893C1020.29 376.495 1022.04 377.794 1023.26 379.79 1024.49 381.786 1025.1 384.194 1025.1 387.015 1025.1 389.843 1024.49 392.251 1023.27 394.239 1022.05 396.227 1020.3 397.522 1018.01 398.124L1017.73 397.222C1019.53 396.62 1020.87 395.433 1021.75 393.659 1022.63 391.886 1023.07 389.632 1023.07 386.897 1023.07 384.257 1022.63 382.063 1021.76 380.317 1020.88 378.571 1019.53 377.397 1017.69 376.796ZM994.88 375.893 995.196 376.796C993.368 377.397 992.015 378.571 991.136 380.317 990.257 382.063 989.817 384.257 989.817 386.897 989.817 389.632 990.257 391.886 991.136 393.659 992.015 395.433 993.356 396.62 995.161 397.222L994.88 398.124C992.591 397.522 990.837 396.227 989.618 394.239 988.399 392.251 987.79 389.843 987.79 387.015 987.79 384.194 988.401 381.786 989.624 379.79 990.847 377.794 992.599 376.495 994.88 375.893Z" fill="#4B5E68" fill-rule="evenodd"/><path d="M1000.33 382.657 1006.47 382.657 1006.12 384.204 1002.45 384.204 1001.12 390.075C1000.95 390.841 1000.87 391.419 1000.87 391.81 1000.87 392.122 1000.92 392.349 1001.02 392.489 1001.12 392.63 1001.28 392.7 1001.5 392.7 1001.77 392.7 1002.05 392.591 1002.37 392.372 1002.68 392.153 1003.04 391.806 1003.43 391.329L1004.11 391.962C1003.44 392.712 1002.84 393.247 1002.31 393.567 1001.79 393.888 1001.25 394.048 1000.69 394.048 1000.14 394.048 999.699 393.864 999.379 393.497 999.059 393.13 998.898 392.653 998.898 392.067 998.898 391.544 999.008 390.786 999.227 389.794L999.391 389.056C999.516 388.485 999.701 387.735 999.947 386.806 1000.19 385.876 1000.44 385.044 1000.69 384.31L1000.63 384.204 999.625 384.204C999.109 384.204 998.713 384.245 998.435 384.327 998.158 384.409 997.887 384.55 997.621 384.749 997.355 384.948 997.078 385.235 996.789 385.61L996.051 384.989C996.473 384.466 996.842 384.056 997.158 383.759 997.475 383.462 997.777 383.237 998.066 383.085 998.355 382.933 998.668 382.823 999.004 382.757 999.34 382.69 999.781 382.657 1000.33 382.657Z" fill="#4B5E68" fill-rule="evenodd"/><text fill="#000000" fill-opacity="0" font-family="Arial,Arial_MSFontService,sans-serif" font-size="11.3906" x="996.051" y="392.624">𝜏</text><path d="M1012.02 387.44 1012.56 387.44C1012.54 387.762 1012.54 388.051 1012.53 388.306 1012.52 388.561 1012.52 388.808 1012.52 389.048 1012.51 389.289 1012.51 389.526 1012.51 389.76L1012.51 396.44C1012.51 396.622 1012.52 396.778 1012.53 396.91 1012.54 397.042 1012.56 397.153 1012.59 397.244 1012.61 397.335 1012.65 397.413 1012.69 397.477 1012.74 397.542 1012.79 397.597 1012.85 397.644 1012.92 397.714 1013.01 397.769 1013.13 397.807 1013.24 397.845 1013.39 397.877 1013.58 397.903 1013.76 397.93 1013.98 397.95 1014.23 397.965 1014.49 397.98 1014.79 397.99 1015.15 397.996L1015.15 398.76 1008.18 398.76 1008.18 397.996C1008.52 397.984 1008.82 397.971 1009.06 397.956 1009.3 397.942 1009.5 397.921 1009.67 397.895 1009.84 397.868 1009.98 397.839 1010.08 397.807 1010.18 397.775 1010.27 397.735 1010.35 397.688 1010.43 397.635 1010.5 397.578 1010.56 397.517 1010.62 397.455 1010.67 397.378 1010.7 397.284 1010.74 397.19 1010.76 397.076 1010.79 396.941 1010.81 396.806 1010.82 396.639 1010.82 396.44L1010.82 390.138C1010.82 389.91 1010.77 389.749 1010.68 389.655 1010.6 389.561 1010.47 389.514 1010.31 389.514 1010.12 389.514 1009.85 389.608 1009.5 389.796 1009.14 389.983 1008.68 390.261 1008.11 390.63 1008.03 390.496 1007.96 390.361 1007.9 390.226 1007.83 390.091 1007.77 389.954 1007.7 389.813 1008.42 389.415 1009.14 389.018 1009.85 388.622 1010.57 388.227 1011.29 387.833 1012.02 387.44Z" fill="#4B5E68" fill-rule="evenodd"/><text fill="#000000" fill-opacity="0" font-family="Arial,Arial_MSFontService,sans-serif" font-size="11.3203" x="1007.7" y="397.345">1</text><path d="M1028.57 377.864 1033.45 377.864 1033.32 378.439C1032.97 378.462 1032.7 378.565 1032.5 378.749 1032.3 378.933 1032.16 379.183 1032.08 379.499 1032 379.815 1031.97 380.263 1031.97 380.841L1031.97 381.239C1031.97 381.38 1031.97 381.524 1031.98 381.673L1032.08 386.255C1032.09 386.591 1032.09 387.423 1032.09 388.751L1032.08 391.2 1032.2 391.2 1038.68 377.864 1040.45 377.864 1040.45 385.681C1040.45 386.97 1040.41 388.81 1040.34 391.2L1040.46 391.2 1045.21 382.024C1045.39 381.681 1045.58 381.276 1045.78 380.812 1045.97 380.347 1046.07 379.946 1046.07 379.61 1046.07 378.954 1045.68 378.564 1044.9 378.439L1045.03 377.864 1049.82 377.864 1049.7 378.439C1049.34 378.485 1048.99 378.683 1048.66 379.03 1048.34 379.378 1047.9 380.056 1047.35 381.064L1040.31 394.013 1038.5 394.013 1038.5 385.435C1038.5 384.044 1038.54 382.595 1038.61 381.087L1038.49 381.087 1032.22 394.013 1030.38 394.013 1029.83 380.981C1029.8 380.333 1029.73 379.837 1029.63 379.493 1029.52 379.149 1029.38 378.899 1029.2 378.743 1029.02 378.587 1028.77 378.485 1028.44 378.439Z" fill="#4B5E68" fill-rule="evenodd"/><text fill="#000000" fill-opacity="0" font-family="Arial,Arial_MSFontService,sans-serif" font-size="16.1484" x="1028.44" y="391.994">𝑊</text><path d="M1054.54 375.757 1056.81 375.757 1056.81 376.443 1053.88 383.483 1052.85 383.175Z" fill="#4B5E68" fill-rule="evenodd"/><text fill="#000000" fill-opacity="0" font-family="Arial,Arial_MSFontService,sans-serif" font-size="7.72559" x="1052.85" y="382.517">′</text><path d="M1129.78 375.893C1132.06 376.495 1133.82 377.794 1135.04 379.79 1136.26 381.786 1136.87 384.194 1136.87 387.015 1136.87 389.843 1136.26 392.251 1135.04 394.239 1133.83 396.227 1132.07 397.522 1129.78 398.124L1129.5 397.222C1131.31 396.62 1132.65 395.433 1133.53 393.659 1134.41 391.886 1134.84 389.632 1134.84 386.897 1134.84 384.257 1134.41 382.063 1133.53 380.317 1132.66 378.571 1131.3 377.397 1129.47 376.796ZM1067.9 375.893 1068.22 376.796C1066.39 377.397 1065.03 378.571 1064.16 380.317 1063.28 382.063 1062.84 384.257 1062.84 386.897 1062.84 389.632 1063.28 391.886 1064.16 393.659 1065.03 395.433 1066.38 396.62 1068.18 397.222L1067.9 398.124C1065.61 397.522 1063.86 396.227 1062.64 394.239 1061.42 392.251 1060.81 389.843 1060.81 387.015 1060.81 384.194 1061.42 381.786 1062.64 379.79 1063.87 377.794 1065.62 376.495 1067.9 375.893Z" fill="#4B5E68" fill-rule="evenodd"/><path d="M1073.24 379.763 1074.86 379.763 1074.22 382.657 1077.78 382.657 1077.52 383.841 1073.96 383.841 1072.91 388.388C1072.71 389.271 1072.58 389.905 1072.53 390.292 1072.47 390.679 1072.45 390.989 1072.45 391.224 1072.45 392.192 1072.85 392.677 1073.65 392.677 1074 392.677 1074.36 392.546 1074.75 392.284 1075.14 392.022 1075.59 391.575 1076.13 390.942L1076.81 391.646C1076.13 392.466 1075.47 393.071 1074.84 393.462 1074.21 393.853 1073.56 394.048 1072.87 394.048 1071.23 394.048 1070.42 393.224 1070.42 391.575 1070.42 391.052 1070.48 390.501 1070.62 389.923L1072 383.841 1070.03 383.841 1070.21 383.032C1070.67 383.024 1071.02 382.989 1071.26 382.927 1071.49 382.864 1071.69 382.778 1071.85 382.669 1072.01 382.56 1072.16 382.403 1072.29 382.2 1072.43 381.997 1072.56 381.737 1072.68 381.421 1072.81 381.105 1072.99 380.552 1073.24 379.763Z" fill="#4B5E68" fill-rule="evenodd"/><text fill="#000000" fill-opacity="0" font-family="Arial,Arial_MSFontService,sans-serif" font-size="14.2852" x="1070.03" y="392.262">𝑡</text><path d="M1085.83 386.22 1100.26 386.22 1100.26 387.778 1085.83 387.778Z" fill="#4B5E68" fill-rule="evenodd"/><text fill="#000000" fill-opacity="0" font-family="Arial,Arial_MSFontService,sans-serif" font-size="1.55859" x="1085.83" y="387.584">−</text><path d="M1112.1 382.657 1118.24 382.657 1117.89 384.204 1114.22 384.204 1112.9 390.075C1112.73 390.841 1112.64 391.419 1112.64 391.81 1112.64 392.122 1112.69 392.349 1112.79 392.489 1112.89 392.63 1113.05 392.7 1113.27 392.7 1113.54 392.7 1113.83 392.591 1114.14 392.372 1114.45 392.153 1114.81 391.806 1115.21 391.329L1115.89 391.962C1115.21 392.712 1114.62 393.247 1114.09 393.567 1113.56 393.888 1113.02 394.048 1112.46 394.048 1111.91 394.048 1111.47 393.864 1111.15 393.497 1110.83 393.13 1110.67 392.653 1110.67 392.067 1110.67 391.544 1110.78 390.786 1111 389.794L1111.16 389.056C1111.29 388.485 1111.47 387.735 1111.72 386.806 1111.97 385.876 1112.21 385.044 1112.46 384.31L1112.41 384.204 1111.4 384.204C1110.88 384.204 1110.49 384.245 1110.21 384.327 1109.93 384.409 1109.66 384.55 1109.39 384.749 1109.13 384.948 1108.85 385.235 1108.56 385.61L1107.82 384.989C1108.25 384.466 1108.62 384.056 1108.93 383.759 1109.25 383.462 1109.55 383.237 1109.84 383.085 1110.13 382.933 1110.44 382.823 1110.78 382.757 1111.11 382.69 1111.55 382.657 1112.1 382.657Z" fill="#4B5E68" fill-rule="evenodd"/><text fill="#000000" fill-opacity="0" font-family="Arial,Arial_MSFontService,sans-serif" font-size="11.3906" x="1107.82" y="392.624">𝜏</text><path d="M1123.79 387.44 1124.33 387.44C1124.32 387.762 1124.31 388.051 1124.3 388.306 1124.3 388.561 1124.29 388.808 1124.29 389.048 1124.29 389.289 1124.29 389.526 1124.29 389.76L1124.29 396.44C1124.29 396.622 1124.29 396.778 1124.3 396.91 1124.31 397.042 1124.33 397.153 1124.36 397.244 1124.39 397.335 1124.42 397.413 1124.47 397.477 1124.51 397.542 1124.56 397.597 1124.62 397.644 1124.69 397.714 1124.78 397.769 1124.9 397.807 1125.02 397.845 1125.17 397.877 1125.35 397.903 1125.53 397.93 1125.75 397.95 1126 397.965 1126.26 397.98 1126.56 397.99 1126.92 397.996L1126.92 398.76 1119.95 398.76 1119.95 397.996C1120.3 397.984 1120.59 397.971 1120.83 397.956 1121.07 397.942 1121.28 397.921 1121.45 397.895 1121.62 397.868 1121.75 397.839 1121.86 397.807 1121.96 397.775 1122.05 397.735 1122.12 397.688 1122.21 397.635 1122.28 397.578 1122.33 397.517 1122.39 397.455 1122.44 397.378 1122.47 397.284 1122.51 397.19 1122.54 397.076 1122.56 396.941 1122.58 396.806 1122.59 396.639 1122.59 396.44L1122.59 390.138C1122.59 389.91 1122.55 389.749 1122.46 389.655 1122.37 389.561 1122.24 389.514 1122.08 389.514 1121.9 389.514 1121.63 389.608 1121.27 389.796 1120.91 389.983 1120.45 390.261 1119.88 390.63 1119.81 390.496 1119.74 390.361 1119.67 390.226 1119.61 390.091 1119.54 389.954 1119.47 389.813 1120.2 389.415 1120.91 389.018 1121.63 388.622 1122.34 388.227 1123.06 387.833 1123.79 387.44Z" fill="#4B5E68" fill-rule="evenodd"/><text fill="#000000" fill-opacity="0" font-family="Arial,Arial_MSFontService,sans-serif" font-size="11.3203" x="1119.47" y="397.345">1</text><path d="M934.447 347.212 935.818 347.212 935.317 349.445 938.305 349.445 938.103 350.42 935.123 350.42 934.227 354.103C934.168 354.349 934.12 354.57 934.082 354.766 934.044 354.963 934.013 355.14 933.99 355.298 933.966 355.456 933.95 355.6 933.941 355.729 933.932 355.858 933.928 355.978 933.928 356.089 933.928 356.441 934.001 356.716 934.148 356.915 934.294 357.115 934.534 357.214 934.868 357.214 935.15 357.214 935.448 357.11 935.765 356.902 936.081 356.694 936.442 356.367 936.846 355.922L937.452 356.537C937.154 356.871 936.869 357.156 936.6 357.39 936.33 357.624 936.067 357.816 935.809 357.966 935.551 358.115 935.296 358.223 935.044 358.291 934.792 358.358 934.534 358.392 934.271 358.392 933.573 358.392 933.053 358.228 932.711 357.9 932.368 357.572 932.197 357.088 932.197 356.45 932.197 356.233 932.213 355.994 932.245 355.733 932.277 355.472 932.323 355.219 932.381 354.973L933.427 350.42 931.915 350.42 932.091 349.743C932.443 349.743 932.717 349.71 932.913 349.642 933.109 349.575 933.275 349.483 933.409 349.366 933.497 349.284 933.582 349.182 933.664 349.062 933.746 348.942 933.828 348.797 933.91 348.627 933.992 348.457 934.076 348.257 934.161 348.025 934.246 347.794 934.341 347.523 934.447 347.212Z" fill="#4B5E68" fill-rule="evenodd"/><text fill="#000000" fill-opacity="0" font-family="Arial,Arial_MSFontService,sans-serif" font-size="11.1797" x="931.915" y="356.994">𝑡</text><path d="M940.286 352.415 950.411 352.415 950.411 353.76 940.286 353.76Z" fill="#4B5E68" fill-rule="evenodd"/><text fill="#000000" fill-opacity="0" font-family="Arial,Arial_MSFontService,sans-serif" font-size="1.34473" x="940.286" y="353.592">−</text><path d="M957.4 346.913 957.936 346.913C957.924 347.236 957.915 347.524 957.91 347.779 957.904 348.034 957.899 348.282 957.896 348.522 957.893 348.762 957.892 348.999 957.892 349.234L957.892 355.913C957.892 356.095 957.898 356.252 957.91 356.384 957.921 356.515 957.94 356.627 957.967 356.718 957.993 356.808 958.028 356.886 958.072 356.951 958.116 357.015 958.167 357.071 958.226 357.117 958.296 357.188 958.39 357.242 958.507 357.28 958.624 357.318 958.774 357.35 958.956 357.377 959.137 357.403 959.355 357.424 959.61 357.438 959.865 357.453 960.171 357.463 960.529 357.469L960.529 358.234 953.559 358.234 953.559 357.469C953.905 357.457 954.198 357.444 954.438 357.43 954.678 357.415 954.883 357.394 955.053 357.368 955.223 357.342 955.359 357.312 955.462 357.28 955.564 357.248 955.654 357.208 955.73 357.161 955.812 357.109 955.882 357.052 955.941 356.99 955.999 356.929 956.046 356.851 956.081 356.757 956.117 356.663 956.144 356.549 956.165 356.414 956.185 356.28 956.196 356.113 956.196 355.913L956.196 349.612C956.196 349.383 956.152 349.222 956.064 349.128 955.976 349.034 955.85 348.988 955.686 348.988 955.504 348.988 955.235 349.081 954.877 349.269 954.52 349.456 954.057 349.735 953.489 350.104 953.413 349.969 953.342 349.834 953.278 349.7 953.213 349.565 953.146 349.427 953.076 349.286 953.802 348.888 954.521 348.491 955.233 348.096 955.945 347.7 956.667 347.306 957.4 346.913Z" fill="#4B5E68" fill-rule="evenodd"/><text fill="#000000" fill-opacity="0" font-family="Arial,Arial_MSFontService,sans-serif" font-size="11.3203" x="953.076" y="356.819">1</text><path d="M929.627 415.665 934.655 415.665 934.382 417.027 931.376 417.027C931.206 417.783 931.035 418.539 930.862 419.295 930.689 420.05 930.515 420.812 930.339 421.58 930.275 421.843 930.229 422.078 930.203 422.283 930.177 422.488 930.163 422.667 930.163 422.819 930.163 423.006 930.2 423.156 930.273 423.267 930.346 423.379 930.486 423.434 930.691 423.434 930.913 423.434 931.156 423.336 931.42 423.14 931.684 422.943 931.977 422.655 932.299 422.274L932.906 422.854C932.601 423.171 932.323 423.44 932.071 423.663 931.819 423.885 931.577 424.067 931.345 424.208 931.114 424.348 930.887 424.451 930.664 424.515 930.442 424.58 930.213 424.612 929.979 424.612 929.75 424.612 929.544 424.571 929.359 424.489 929.175 424.407 929.016 424.291 928.885 424.142 928.753 423.992 928.65 423.815 928.577 423.61 928.504 423.405 928.467 423.182 928.467 422.942 928.467 422.772 928.486 422.554 928.524 422.287 928.562 422.021 928.615 421.723 928.682 421.395 928.75 421.067 928.829 420.718 928.92 420.349 929.01 419.98 929.107 419.605 929.21 419.224 929.312 418.843 929.421 418.468 929.535 418.099 929.649 417.73 929.762 417.384 929.873 417.062 929.873 417.039 929.867 417.027 929.856 417.027L928.906 417.027C928.643 417.033 928.417 417.052 928.23 417.084 928.042 417.116 927.869 417.173 927.711 417.255 927.553 417.337 927.395 417.45 927.237 417.594 927.078 417.737 926.897 417.923 926.692 418.152L926.05 417.537C926.284 417.279 926.495 417.055 926.683 416.864 926.87 416.674 927.046 416.51 927.21 416.372 927.374 416.234 927.537 416.12 927.698 416.029 927.859 415.939 928.033 415.867 928.221 415.814 928.408 415.761 928.615 415.725 928.841 415.704 929.066 415.684 929.328 415.671 929.627 415.665Z" fill="#4B5E68" fill-rule="evenodd"/><text fill="#000000" fill-opacity="0" font-family="Arial,Arial_MSFontService,sans-serif" font-size="8.94727" x="926.05" y="423.493">𝜏</text><path d="M939.292 419.619 939.743 419.619C939.734 419.715 939.724 419.947 939.715 420.316 939.706 420.685 939.702 421.057 939.702 421.431L939.702 426.243C939.702 426.53 939.727 426.735 939.777 426.858 939.827 426.981 939.907 427.078 940.016 427.149 940.126 427.219 940.312 427.274 940.577 427.313 940.841 427.352 941.26 427.375 941.835 427.385L941.835 428.02 936.168 428.02 936.168 427.385C936.724 427.371 937.13 427.346 937.388 427.309 937.645 427.273 937.834 427.219 937.955 427.149 938.076 427.078 938.165 426.981 938.222 426.858 938.279 426.735 938.307 426.53 938.307 426.243L938.307 421.711C938.307 421.547 938.274 421.428 938.208 421.355 938.142 421.282 938.047 421.246 937.924 421.246 937.788 421.246 937.573 421.32 937.282 421.468 936.99 421.616 936.616 421.834 936.161 422.121L935.798 421.431Z" fill="#4B5E68" fill-rule="evenodd"/><text fill="#000000" fill-opacity="0" font-family="Arial,Arial_MSFontService,sans-serif" font-size="8.40137" x="935.798" y="426.97">1</text><path d="M945.253 420.551 955.378 420.551 955.378 421.896 945.253 421.896ZM945.253 416.728 955.378 416.728 955.378 418.073 945.253 418.073Z" fill="#4B5E68" fill-rule="evenodd"/><text fill="#000000" fill-opacity="0" font-family="Arial,Arial_MSFontService,sans-serif" font-size="5.16797" x="945.253" y="421.25">=</text><path d="M962.367 413.133 962.903 413.133C962.891 413.456 962.882 413.744 962.876 413.999 962.87 414.254 962.866 414.502 962.863 414.742 962.86 414.982 962.859 415.219 962.859 415.454L962.859 422.133C962.859 422.315 962.865 422.472 962.876 422.604 962.888 422.735 962.907 422.847 962.933 422.938 962.96 423.028 962.995 423.106 963.039 423.171 963.083 423.235 963.134 423.291 963.193 423.337 963.263 423.408 963.357 423.462 963.474 423.5 963.591 423.538 963.741 423.57 963.922 423.597 964.104 423.623 964.322 423.644 964.577 423.658 964.832 423.673 965.138 423.683 965.495 423.689L965.495 424.454 958.526 424.454 958.526 423.689C958.871 423.677 959.164 423.664 959.405 423.65 959.645 423.635 959.85 423.614 960.02 423.588 960.19 423.562 960.326 423.532 960.429 423.5 960.531 423.468 960.62 423.428 960.697 423.381 960.779 423.329 960.849 423.272 960.908 423.21 960.966 423.149 961.013 423.071 961.048 422.977 961.083 422.883 961.111 422.769 961.132 422.634 961.152 422.5 961.162 422.333 961.162 422.133L961.162 415.832C961.162 415.603 961.118 415.442 961.031 415.348 960.943 415.254 960.817 415.208 960.653 415.208 960.471 415.208 960.201 415.301 959.844 415.489 959.487 415.676 959.024 415.955 958.455 416.324 958.379 416.189 958.309 416.054 958.244 415.92 958.18 415.785 958.113 415.647 958.042 415.506 958.769 415.108 959.488 414.711 960.2 414.316 960.912 413.92 961.634 413.526 962.367 413.133Z" fill="#4B5E68" fill-rule="evenodd"/><text fill="#000000" fill-opacity="0" font-family="Arial,Arial_MSFontService,sans-serif" font-size="11.3203" x="958.042" y="423.039">1</text><text fill="#4B5E68" font-family="Arial,Arial_MSFontService,sans-serif" font-weight="400" font-size="24" transform="translate(703.045 515)">•</text><text fill="#4B5E68" font-family="Arial,Arial_MSFontService,sans-serif" font-weight="400" font-size="24" transform="translate(733.045 515)">W’(t): Wastewater concentration without log</text><text fill="#4B5E68" font-family="Arial,Arial_MSFontService,sans-serif" font-weight="400" font-size="24" transform="translate(733.045 544)">transformation.</text><text fill="#4B5E68" font-family="Arial,Arial_MSFontService,sans-serif" font-weight="400" font-size="24" transform="translate(703.097 612)">•</text><text fill="#4B5E68" font-family="Arial,Arial_MSFontService,sans-serif" font-weight="400" font-size="24" transform="translate(733.097 612)">g(t): generation interval</text><text fill="#4B5E68" font-family="Arial,Arial_MSFontService,sans-serif" font-weight="400" font-size="24" transform="translate(689.558 287)">Assessment of impacts of used approaches</text><text fill="#4B5E68" font-family="Arial,Arial_MSFontService,sans-serif" font-weight="400" font-size="24" transform="translate(689.558 316)">for left</text><text fill="#4B5E68" font-family="Arial,Arial_MSFontService,sans-serif" font-weight="400" font-size="24" transform="translate(756.225 316)">-</text><text fill="#4B5E68" font-family="Arial,Arial_MSFontService,sans-serif" font-weight="400" font-size="24" transform="translate(764.225 316)">censored data on epidemic characterization.</text><path d="M113.5 196.5 1164.21 196.5" stroke="#4B5E68" stroke-miterlimit="8" stroke-dasharray="8 3" fill="none" fill-rule="evenodd"/><text fill="#4B5E68" font-family="Arial,Arial_MSFontService,sans-serif" font-weight="400" font-size="21" transform="translate(157.112 396)">Non</text><text fill="#4B5E68" font-family="Arial,Arial_MSFontService,sans-serif" font-weight="400" font-size="21" transform="translate(196.112 396)">-</text><text fill="#4B5E68" font-family="Arial,Arial_MSFontService,sans-serif" font-weight="400" font-size="21" transform="translate(203.279 396)">detects were replaced with 500, which</text><text fill="#4B5E68" font-family="Arial,Arial_MSFontService,sans-serif" font-weight="400" font-size="21" transform="translate(157.112 421)">corresponds to LOD.</text><text fill="#5F696E" font-family="Arial,Arial_MSFontService,sans-serif" font-weight="400" font-size="16" transform="translate(297.161 450)">(Schoen</text><text fill="#5F696E" font-family="Arial,Arial_MSFontService,sans-serif" font-style="italic" font-weight="400" font-size="16" transform="translate(360.995 450)">et al</text><text fill="#5F696E" font-family="Arial,Arial_MSFontService,sans-serif" font-weight="400" font-size="16" transform="translate(391.161 450)">., 2023, Zulli</text><text fill="#5F696E" font-family="Arial,Arial_MSFontService,sans-serif" font-style="italic" font-weight="400" font-size="16" transform="translate(482.661 450)">et al</text><text fill="#5F696E" font-family="Arial,Arial_MSFontService,sans-serif" font-weight="400" font-size="16" transform="translate(512.828 450)">., 2024)</text><text fill="#4B5E68" font-family="Arial,Arial_MSFontService,sans-serif" font-weight="400" font-size="24" transform="translate(73.5329 134)">Wastewater data of IAV and RSV between 2022 and 2024 from California, Colorado, and Florida were used</text><text fill="#4B5E68" font-family="Arial,Arial_MSFontService,sans-serif" font-weight="700" font-size="24" transform="translate(76.0965 241)">1. Estimation of wastewater concentration</text><text fill="#4B5E68" font-family="Arial,Arial_MSFontService,sans-serif" font-weight="700" font-size="24" transform="translate(732.994 244)">2. Estimation of disease transmissibility</text><text fill="#4B5E68" font-family="Arial,Arial_MSFontService,sans-serif" font-weight="400" font-size="24" transform="translate(125.5 286)">•</text><text fill="#4B5E68" font-family="Arial,Arial_MSFontService,sans-serif" font-weight="400" font-size="24" transform="translate(155.5 286)">State</text><text fill="#4B5E68" font-family="Arial,Arial_MSFontService,sans-serif" font-weight="400" font-size="24" transform="translate(211.5 286)">-</text><text fill="#4B5E68" font-family="Arial,Arial_MSFontService,sans-serif" font-weight="400" font-size="24" transform="translate(219.5 286)">space models</text><text fill="#4B5E68" font-family="Arial,Arial_MSFontService,sans-serif" font-weight="400" font-size="24" transform="translate(125.5 355)">•</text><text fill="#4B5E68" font-family="Arial,Arial_MSFontService,sans-serif" font-weight="400" font-size="24" transform="translate(155.5 355)">Substitution method</text><text fill="#4B5E68" font-family="Arial,Arial_MSFontService,sans-serif" font-weight="400" font-size="19" transform="translate(620.505 166)">(</text><text fill="#5F696E" font-family="Arial,Arial_MSFontService,sans-serif" font-weight="400" font-size="19" transform="translate(626.672 166)">Zulli</text><text fill="#5F696E" font-family="Arial,Arial_MSFontService,sans-serif" font-style="italic" font-weight="400" font-size="19" transform="translate(666.005 166)">et al</text><text fill="#5F696E" font-family="Arial,Arial_MSFontService,sans-serif" font-weight="400" font-size="19" transform="translate(701.172 166)">., 2024,</text><text fill="#5F696E" font-family="Arial,Arial_MSFontService,sans-serif" font-style="italic" font-weight="400" font-size="19" transform="translate(768.338 166)">ACS ES&amp;T Water</text><text fill="#5F696E" font-family="Arial,Arial_MSFontService,sans-serif" font-weight="400" font-size="19" transform="translate(920.498 166)">and</text><text fill="#5F696E" font-family="Arial,Arial_MSFontService,sans-serif" font-weight="400" font-size="19" transform="translate(956.665 166)">Schoen</text><text fill="#5F696E" font-family="Arial,Arial_MSFontService,sans-serif" font-style="italic" font-weight="400" font-size="19" transform="translate(1025 166)">et al</text><text fill="#5F696E" font-family="Arial,Arial_MSFontService,sans-serif" font-weight="400" font-size="19" transform="translate(1060.16 166)">., 2023,</text><text fill="#5F696E" font-family="Arial,Arial_MSFontService,sans-serif" font-style="italic" font-weight="400" font-size="19" transform="translate(1127.33 166)">ES&amp;T)</text></g></svg>