<svg width="1282" height="723" xmlns="http://www.w3.org/2000/svg" xmlns:xlink="http://www.w3.org/1999/xlink" overflow="hidden"><g transform="translate(1 2)"><rect x="0" y="0" width="1280" height="720" fill="#FFFFFF"/><rect x="0.500053" y="0.500053" width="321" height="37" stroke="#7F7F7F" stroke-width="1.33333" stroke-miterlimit="8" fill="#D9D9D9"/><text fill="#A6A6A6" font-family="Arial,Arial_MSFontService,sans-serif" font-weight="700" font-size="21" transform="translate(98.3799 27)">Introduction</text><rect x="320.5" y="0.500053" width="321" height="37" stroke="#7F7F7F" stroke-width="1.33333" stroke-miterlimit="8" fill="#D9D9D9"/><text fill="#A6A6A6" font-family="Arial,Arial_MSFontService,sans-serif" font-weight="700" font-size="21" transform="translate(376.718 27)">Materials &amp; Methods</text><rect x="639.5" y="0.500053" width="321" height="37" stroke="#7F7F7F" stroke-width="1.33333" stroke-miterlimit="8" fill="#4B5E68"/><text fill="#FFFFFF" font-family="Arial,Arial_MSFontService,sans-serif" font-weight="700" font-size="21" transform="translate(690.449 27)">Results &amp; Discussion</text><rect x="959.5" y="0.500053" width="321" height="37" stroke="#7F7F7F" stroke-width="1.33333" stroke-miterlimit="8" fill="#D9D9D9"/><text fill="#A6A6A6" font-family="Arial,Arial_MSFontService,sans-serif" font-weight="700" font-size="21" transform="translate(1061.32 27)">Conclusion</text><text fill="#4B5E68" font-family="Arial,Arial_MSFontService,sans-serif" font-weight="700" font-size="32" transform="translate(96.1676 83)">Comparable logistic curves for different viruses within the same region</text><path d="M70.5001 155.5 1200.58 155.5" stroke="#4B5E68" stroke-miterlimit="8" stroke-dasharray="8 3" fill="none" fill-rule="evenodd"/><text fill="#4B5E68" font-family="Arial,Arial_MSFontService,sans-serif" font-weight="400" font-size="24" transform="translate(121.182 129)">Region</text><text fill="#4B5E68" font-family="Arial,Arial_MSFontService,sans-serif" font-weight="400" font-size="24" transform="translate(197.182 129)">-</text><text fill="#4B5E68" font-family="Arial,Arial_MSFontService,sans-serif" font-weight="400" font-size="24" transform="translate(205.182 129)">specific curves may be applicable for estimating the concentrations of other pathogens</text><path d="M335 631 956 631 956 215 335 215Z" fill="#FFFFFF" fill-rule="evenodd"/><path d="M335.5 565.5 956.5 565.5" stroke="#EBEBEB" stroke-width="0.711811" stroke-linejoin="round" stroke-miterlimit="10" fill="none" fill-rule="evenodd"/><path d="M335.5 470.5 956.5 470.5" stroke="#EBEBEB" stroke-width="0.711811" stroke-linejoin="round" stroke-miterlimit="10" fill="none" fill-rule="evenodd"/><path d="M335.5 376.5 956.5 376.5" stroke="#EBEBEB" stroke-width="0.711811" stroke-linejoin="round" stroke-miterlimit="10" fill="none" fill-rule="evenodd"/><path d="M335.5 281.5 956.5 281.5" stroke="#EBEBEB" stroke-width="0.711811" stroke-linejoin="round" stroke-miterlimit="10" fill="none" fill-rule="evenodd"/><path d="M419.5 631.5 419.5 215.5" stroke="#EBEBEB" stroke-width="0.711811" stroke-linejoin="round" stroke-miterlimit="10" fill="none" fill-rule="evenodd"/><path d="M532.5 631.5 532.5 215.5" stroke="#EBEBEB" stroke-width="0.711811" stroke-linejoin="round" stroke-miterlimit="10" fill="none" fill-rule="evenodd"/><path d="M645.5 631.5 645.5 215.5" stroke="#EBEBEB" stroke-width="0.711811" stroke-linejoin="round" stroke-miterlimit="10" fill="none" fill-rule="evenodd"/><path d="M758.5 631.5 758.5 215.5" stroke="#EBEBEB" stroke-width="0.711811" stroke-linejoin="round" stroke-miterlimit="10" fill="none" fill-rule="evenodd"/><path d="M871.5 631.5 871.5 215.5" stroke="#EBEBEB" stroke-width="0.711811" stroke-linejoin="round" stroke-miterlimit="10" fill="none" fill-rule="evenodd"/><path d="M335.5 612.5 956.5 612.5" stroke="#EBEBEB" stroke-width="1.42362" stroke-linejoin="round" stroke-miterlimit="10" fill="none" fill-rule="evenodd"/><path d="M335.5 517.5 956.5 517.5" stroke="#EBEBEB" stroke-width="1.42362" stroke-linejoin="round" stroke-miterlimit="10" fill="none" fill-rule="evenodd"/><path d="M335.5 423.5 956.5 423.5" stroke="#EBEBEB" stroke-width="1.42362" stroke-linejoin="round" stroke-miterlimit="10" fill="none" fill-rule="evenodd"/><path d="M335.5 329.5 956.5 329.5" stroke="#EBEBEB" stroke-width="1.42362" stroke-linejoin="round" stroke-miterlimit="10" fill="none" fill-rule="evenodd"/><path d="M335.5 234.5 956.5 234.5" stroke="#EBEBEB" stroke-width="1.42362" stroke-linejoin="round" stroke-miterlimit="10" fill="none" fill-rule="evenodd"/><path d="M363.5 631.5 363.5 215.5" stroke="#EBEBEB" stroke-width="1.42362" stroke-linejoin="round" stroke-miterlimit="10" fill="none" fill-rule="evenodd"/><path d="M476.5 631.5 476.5 215.5" stroke="#EBEBEB" stroke-width="1.42362" stroke-linejoin="round" stroke-miterlimit="10" fill="none" fill-rule="evenodd"/><path d="M589.5 631.5 589.5 215.5" stroke="#EBEBEB" stroke-width="1.42362" stroke-linejoin="round" stroke-miterlimit="10" fill="none" fill-rule="evenodd"/><path d="M702.5 631.5 702.5 215.5" stroke="#EBEBEB" stroke-width="1.42362" stroke-linejoin="round" stroke-miterlimit="10" fill="none" fill-rule="evenodd"/><path d="M815.5 631.5 815.5 215.5" stroke="#EBEBEB" stroke-width="1.42362" stroke-linejoin="round" stroke-miterlimit="10" fill="none" fill-rule="evenodd"/><path d="M927.5 631.5 927.5 215.5" stroke="#EBEBEB" stroke-width="1.42362" stroke-linejoin="round" stroke-miterlimit="10" fill="none" fill-rule="evenodd"/><path d="M363.5 612.5 396.225 612.5 400.901 612.495 428.95 612.495 433.626 612.49 442.978 612.49 447.647 612.485 452.323 612.485 471.027 612.466 475.703 612.456 480.372 612.447 485.048 612.437 489.724 612.422 494.4 612.403 499.076 612.379 503.752 612.35 508.428 612.316 513.096 612.272 517.773 612.224 522.449 612.156 527.125 612.078 531.801 611.981 536.477 611.86 541.153 611.709 545.822 611.525 550.498 611.302 555.174 611.025 559.85 610.681 564.526 610.259 569.202 609.745 573.878 609.109 578.554 608.323 583.223 607.363 587.899 606.184 592.575 604.748 597.251 602.982 601.927 600.838 606.603 598.223 611.279 595.041 615.947 591.17 620.623 586.513 625.3 580.895 629.976 574.186 634.652 566.313 639.328 557.12 644.004 546.501 648.672 534.364 653.348 520.694 658.024 505.471 662.701 488.861 667.377 471.023 672.053 452.211 676.729 432.948 681.405 413.5 686.073 394.149 690.75 375.346 695.426 357.567 700.102 340.928 704.778 325.671 709.454 311.967 714.13 299.795 718.798 289.167 723.474 279.979 728.15 272.188 732.827 265.615 737.503 260.109 742.179 255.51 746.855 251.702 751.523 248.568 756.199 245.987 760.875 243.863 765.551 242.126 770.228 240.705 774.904 239.545 779.58 238.599 784.256 237.828 788.924 237.202 793.6 236.693 798.276 236.28 802.952 235.946 807.629 235.669 812.305 235.451 816.981 235.271 821.649 235.121 826.325 235.005 831.001 234.908 835.677 234.83 840.354 234.767 845.029 234.713 849.706 234.675 854.374 234.641 859.05 234.612 868.402 234.573 877.755 234.544 882.431 234.534 887.107 234.529 891.775 234.519 896.451 234.515 901.127 234.515 910.479 234.505 915.155 234.505 919.832 234.5 924.5 234.5" stroke="#D23369" stroke-width="2.84714" stroke-linejoin="round" stroke-miterlimit="10" stroke-dasharray="18.227 18.227" fill="none" fill-rule="evenodd"/><path d="M363.5 612.5 414.922 612.5 419.598 612.495 447.647 612.495 452.323 612.49 456.999 612.49 461.675 612.485 466.351 612.485 475.703 612.476 480.372 612.471 485.048 612.466 494.4 612.447 503.752 612.418 508.428 612.398 513.096 612.374 517.773 612.345 522.449 612.306 527.125 612.258 531.801 612.199 536.477 612.127 541.153 612.034 545.822 611.923 550.498 611.782 555.174 611.607 559.85 611.389 564.526 611.117 569.202 610.783 573.878 610.366 578.554 609.847 583.223 609.206 587.899 608.406 592.575 607.421 597.251 606.194 601.927 604.685 606.603 602.812 611.279 600.513 615.947 597.685 620.623 594.241 625.3 590.02 629.976 584.941 634.652 578.8 639.328 571.475 644.004 562.796 648.672 552.565 653.348 540.729 658.024 527.179 662.701 511.918 667.377 495.075 672.053 476.859 676.729 457.508 681.405 437.444 686.073 417.046 690.75 396.933 695.426 377.408 700.102 358.823 704.778 341.626 709.454 325.904 714.13 311.807 718.798 299.407 723.474 288.565 728.15 279.275 732.827 271.383 737.503 264.742 742.179 259.197 746.855 254.603 751.523 250.814 756.199 247.719 760.875 245.182 765.551 243.13 770.228 241.456 774.904 240.103 779.58 239.012 784.256 238.129 788.924 237.416 793.6 236.843 798.276 236.382 802.952 236.014 807.629 235.713 812.305 235.475 816.981 235.281 821.649 235.126 826.325 235 831.001 234.903 835.677 234.82 840.354 234.757 845.029 234.704 849.706 234.665 854.374 234.631 859.05 234.602 868.402 234.563 873.078 234.553 877.755 234.539 882.431 234.529 887.107 234.524 891.775 234.519 905.803 234.505 910.479 234.505 915.155 234.5 924.5 234.5" stroke="#D23369" stroke-width="2.84714" stroke-linejoin="round" stroke-miterlimit="10" stroke-dasharray="2.84714 2.84714" fill="none" fill-rule="evenodd"/><path d="M363.5 612.5 419.598 612.5 424.274 612.495 447.647 612.495 452.323 612.49 461.675 612.49 475.703 612.476 480.372 612.471 494.4 612.442 503.752 612.403 508.428 612.374 513.096 612.34 517.773 612.296 522.449 612.238 527.125 612.17 531.801 612.078 536.477 611.957 541.153 611.806 545.822 611.617 550.498 611.37 555.174 611.059 559.85 610.662 564.526 610.152 569.202 609.502 573.878 608.678 578.554 607.635 583.223 606.301 587.899 604.612 592.575 602.483 597.251 599.79 601.927 596.409 606.603 592.174 611.279 586.906 615.947 580.406 620.623 572.421 625.3 562.777 629.976 551.188 634.652 537.518 639.328 521.738 644.004 503.755 648.672 483.885 653.348 462.337 658.024 439.799 662.701 416.781 667.377 393.987 672.053 372.036 676.729 351.54 681.405 332.883 686.073 316.244 690.75 301.72 695.426 289.297 700.102 278.814 704.778 270.116 709.454 262.941 714.13 257.125 718.798 252.424 723.474 248.665 728.15 245.672 732.827 243.3 737.503 241.418 742.179 239.933 746.855 238.764 751.523 237.842 756.199 237.12 760.875 236.552 765.551 236.106 770.228 235.756 774.904 235.48 779.58 235.267 784.256 235.097 788.924 234.966 793.6 234.864 798.276 234.786 802.952 234.723 807.629 234.675 812.305 234.636 816.981 234.607 821.649 234.583 826.325 234.563 831.001 234.549 840.354 234.529 849.706 234.519 854.374 234.515 859.05 234.51 863.726 234.51 868.402 234.505 882.431 234.505 887.107 234.5 924.5 234.5" stroke="#31859C" stroke-width="2.84714" stroke-linejoin="round" stroke-miterlimit="10" stroke-dasharray="18.227 18.227" fill="none" fill-rule="evenodd"/><path d="M363.5 612.5 447.647 612.5 452.323 612.495 475.703 612.495 480.372 612.49 485.048 612.49 489.724 612.486 494.4 612.486 503.752 612.476 508.428 612.466 513.096 612.456 517.773 612.447 522.449 612.432 531.801 612.393 541.153 612.326 545.822 612.277 550.498 612.214 555.174 612.136 559.85 612.034 564.526 611.908 569.202 611.743 573.878 611.535 578.554 611.273 583.223 610.933 587.899 610.506 592.575 609.963 597.251 609.264 601.927 608.382 606.603 607.261 611.279 605.84 615.947 604.05 620.623 601.775 625.3 598.922 629.976 595.337 634.652 590.855 639.328 585.325 644.004 578.524 648.672 570.209 653.348 560.182 658.024 548.283 662.701 534.219 667.377 518.08 672.053 499.942 676.729 479.956 681.405 458.534 686.073 436.161 690.75 413.381 695.426 390.896 700.102 369.339 704.778 349.202 709.454 330.894 714.13 314.551 718.798 300.314 723.474 288.138 728.15 277.883 732.827 269.345 737.503 262.354 742.179 256.679 746.855 252.104 751.523 248.432 756.199 245.502 760.875 243.174 765.551 241.325 770.228 239.87 774.904 238.716 779.58 237.813 784.256 237.1 788.924 236.537 793.6 236.101 798.276 235.756 802.952 235.485 807.629 235.271 812.305 235.106 816.981 234.975 821.649 234.874 826.325 234.791 831.001 234.728 835.677 234.68 840.354 234.641 845.029 234.612 849.706 234.587 854.374 234.568 863.726 234.539 868.402 234.534 873.078 234.524 887.107 234.51 891.775 234.51 896.451 234.505 910.479 234.505 915.155 234.5 924.5 234.5" stroke="#31859C" stroke-width="2.84714" stroke-linejoin="round" stroke-miterlimit="10" stroke-dasharray="2.84714 2.84714" fill="none" fill-rule="evenodd"/><path d="M363.5 612.5 428.95 612.5 433.626 612.495 452.323 612.495 456.999 612.49 461.675 612.49 475.703 612.476 480.372 612.471 489.724 612.442 494.4 612.423 499.076 612.398 503.752 612.364 508.428 612.316 513.096 612.253 517.773 612.165 522.449 612.049 527.125 611.889 531.801 611.675 536.477 611.384 541.153 610.996 545.822 610.472 550.498 609.764 555.174 608.813 559.85 607.538 564.526 605.825 569.202 603.535 573.878 600.484 578.554 596.443 583.223 591.122 587.899 584.18 592.575 575.215 597.251 563.796 601.927 549.534 606.603 532.119 611.279 511.444 615.947 487.659 620.623 461.372 625.3 433.445 629.976 405.081 634.652 377.551 639.328 351.933 644.004 329.056 648.672 309.38 653.348 292.93 658.024 279.551 662.701 268.898 667.377 260.564 672.053 254.137 676.729 249.228 681.405 245.507 686.073 242.713 690.75 240.607 695.426 239.041 700.102 237.872 704.778 236.998 709.454 236.353 714.13 235.873 718.798 235.519 723.474 235.252 728.15 235.058 732.827 234.912 737.503 234.806 742.179 234.728 746.855 234.665 751.523 234.621 756.199 234.592 760.875 234.568 765.551 234.549 779.58 234.519 784.256 234.515 788.924 234.51 793.6 234.51 798.276 234.505 807.629 234.505 812.305 234.5 924.5 234.5" stroke="#D23369" stroke-width="2.84714" stroke-linejoin="round" stroke-miterlimit="10" fill="none" fill-rule="evenodd"/><path d="M363.5 612.5 419.598 612.5 424.274 612.495 442.978 612.495 447.647 612.49 452.323 612.49 456.999 612.486 461.675 612.486 466.351 612.481 475.703 612.461 480.372 612.452 485.048 612.432 489.724 612.408 494.4 612.379 499.076 612.34 503.752 612.287 508.428 612.214 513.096 612.112 517.773 611.981 522.449 611.806 527.125 611.574 531.801 611.258 536.477 610.836 541.153 610.273 545.822 609.517 550.498 608.513 555.174 607.174 559.85 605.393 564.526 603.031 569.202 599.912 573.878 595.808 578.554 590.447 583.223 583.506 587.899 574.614 592.575 563.374 597.251 549.403 601.927 532.463 606.603 512.385 611.279 489.372 615.947 463.88 620.623 436.802 625.3 409.18 629.976 382.131 634.652 356.76 639.328 333.902 644.004 313.955 648.672 297.112 653.348 283.219 658.024 272.066 662.701 263.233 667.377 256.344 672.053 251.032 676.729 246.962 681.405 243.872 686.073 241.534 690.75 239.768 695.426 238.444 700.102 237.449 704.778 236.702 709.454 236.145 714.13 235.727 718.798 235.417 723.474 235.184 728.15 235.009 732.827 234.878 737.503 234.781 742.179 234.709 746.855 234.655 751.523 234.616 756.199 234.587 760.875 234.563 770.228 234.534 774.904 234.524 784.256 234.515 788.924 234.51 793.6 234.51 798.276 234.505 807.629 234.505 812.305 234.5 924.5 234.5" stroke="#31859C" stroke-width="2.84714" stroke-linejoin="round" stroke-miterlimit="10" fill="none" fill-rule="evenodd"/><path d="M335.5 631.5 335.5 215.5" stroke="#4B5E68" stroke-width="2.84714" stroke-linecap="square" stroke-linejoin="round" stroke-miterlimit="10" fill="none" fill-rule="evenodd"/><path d="M346 612 335 612" stroke="#333333" stroke-width="4.27076" stroke-linejoin="round" stroke-miterlimit="10" fill="none" fill-rule="evenodd"/><path d="M346 517 335 517" stroke="#333333" stroke-width="4.27076" stroke-linejoin="round" stroke-miterlimit="10" fill="none" fill-rule="evenodd"/><path d="M346 423 335 423" stroke="#333333" stroke-width="4.27076" stroke-linejoin="round" stroke-miterlimit="10" fill="none" fill-rule="evenodd"/><path d="M346 329 335 329" stroke="#333333" stroke-width="4.27076" stroke-linejoin="round" stroke-miterlimit="10" fill="none" fill-rule="evenodd"/><path d="M346 234 335 234" stroke="#333333" stroke-width="4.27076" stroke-linejoin="round" stroke-miterlimit="10" fill="none" fill-rule="evenodd"/><path d="M335.5 631.5 956.5 631.5" stroke="#4B5E68" stroke-width="2.84714" stroke-linecap="square" stroke-linejoin="round" stroke-miterlimit="10" fill="none" fill-rule="evenodd"/><path d="M363 624 363 631" stroke="#333333" stroke-width="4.27076" stroke-linejoin="round" stroke-miterlimit="10" fill="none" fill-rule="evenodd"/><path d="M476 624 476 631" stroke="#333333" stroke-width="4.27076" stroke-linejoin="round" stroke-miterlimit="10" fill="none" fill-rule="evenodd"/><path d="M589 624 589 631" stroke="#333333" stroke-width="4.27076" stroke-linejoin="round" stroke-miterlimit="10" fill="none" fill-rule="evenodd"/><path d="M702 624 702 631" stroke="#333333" stroke-width="4.27076" stroke-linejoin="round" stroke-miterlimit="10" fill="none" fill-rule="evenodd"/><path d="M815 624 815 631" stroke="#333333" stroke-width="4.27076" stroke-linejoin="round" stroke-miterlimit="10" fill="none" fill-rule="evenodd"/><path d="M927 624 927 631" stroke="#333333" stroke-width="4.27076" stroke-linejoin="round" stroke-miterlimit="10" fill="none" fill-rule="evenodd"/><text fill="#4B5E68" font-family="Arial,Arial_MSFontService,sans-serif" font-weight="400" font-size="21" transform="translate(357.452 657)">1</text><text fill="#4B5E68" font-family="Arial,Arial_MSFontService,sans-serif" font-weight="400" font-size="21" transform="translate(470.372 657)">2</text><text fill="#4B5E68" font-family="Arial,Arial_MSFontService,sans-serif" font-weight="400" font-size="21" transform="translate(584.245 657)">3</text><text fill="#4B5E68" font-family="Arial,Arial_MSFontService,sans-serif" font-weight="400" font-size="21" transform="translate(697.166 657)">4</text><text fill="#4B5E68" font-family="Arial,Arial_MSFontService,sans-serif" font-weight="400" font-size="21" transform="translate(809.125 657)">5</text><text fill="#4B5E68" font-family="Arial,Arial_MSFontService,sans-serif" font-weight="400" font-size="21" transform="translate(921.085 657)">6</text><text fill="#4B5E68" font-family="Arial,Arial_MSFontService,sans-serif" font-weight="400" font-size="21" transform="translate(280.272 241)">1.00</text><text fill="#4B5E68" font-family="Arial,Arial_MSFontService,sans-serif" font-weight="400" font-size="21" transform="translate(274.215 336)">0.75</text><text fill="#4B5E68" font-family="Arial,Arial_MSFontService,sans-serif" font-weight="400" font-size="21" transform="translate(274.215 431)">0.50</text><text fill="#4B5E68" font-family="Arial,Arial_MSFontService,sans-serif" font-weight="400" font-size="21" transform="translate(274.215 527)">0.25</text><text fill="#4B5E68" font-family="Arial,Arial_MSFontService,sans-serif" font-weight="400" font-size="21" transform="translate(274.215 622)">0.00</text><text fill="#4B5E68" font-family="Arial,Arial_MSFontService,sans-serif" font-weight="400" font-size="21" transform="matrix(-1.83697e-16 -1 1 -1.83697e-16 225.04 531)">Detection probability</text><text fill="#4B5E68" font-family="Arial,Arial_MSFontService,sans-serif" font-weight="400" font-size="21" transform="translate(447.423 691)">Wastewater concentration (log</text><text fill="#4B5E68" font-family="Arial,Arial_MSFontService,sans-serif" font-weight="400" font-size="14" transform="translate(734.796 695)">10</text><text fill="#4B5E68" font-family="Arial,Arial_MSFontService,sans-serif" font-weight="400" font-size="21" transform="translate(756.463 691)">copies/g)</text><text fill="#4B5E68" font-family="Arial,Arial_MSFontService,sans-serif" font-weight="400" font-size="24" transform="translate(499.849 315)">California</text><path d="M408.5 307.5 487.989 307.5" stroke="#000000" stroke-width="3" stroke-miterlimit="8" fill="none" fill-rule="evenodd"/><text fill="#4B5E68" font-family="Arial,Arial_MSFontService,sans-serif" font-weight="400" font-size="24" transform="translate(741.112 421)">Colorado</text><path d="M708.5 397.5 794.613 397.5" stroke="#000000" stroke-width="3" stroke-miterlimit="8" stroke-dasharray="3 3" fill="none" fill-rule="evenodd"/><text fill="#4B5E68" font-family="Arial,Arial_MSFontService,sans-serif" font-weight="400" font-size="24" transform="translate(489.614 465)">Florida</text><path d="M489.5 439.5 575.613 439.5" stroke="#000000" stroke-width="3" stroke-miterlimit="8" stroke-dasharray="12 9" fill="none" fill-rule="evenodd"/><path d="M579.094 449.123 632.304 472.077 631.116 474.832 577.906 451.877ZM632.115 468.728 638.597 476.425 628.55 476.992Z" fill="#5F696E"/><text fill="#31859C" font-family="Arial,Arial_MSFontService,sans-serif" font-weight="400" font-size="24" transform="translate(323.891 193)">Blue: IAV</text><text fill="#31859C" font-family="Arial,Arial_MSFontService,sans-serif" font-weight="400" font-size="24" transform="translate(420.784 193)">-</text><text fill="#31859C" font-family="Arial,Arial_MSFontService,sans-serif" font-weight="400" font-size="24" transform="translate(428.784 193)">derived</text><text fill="#31859C" font-family="Arial,Arial_MSFontService,sans-serif" font-weight="400" font-size="24" transform="translate(531.451 193)">curve</text><text fill="#A0234E" font-family="Arial,Arial_MSFontService,sans-serif" font-weight="400" font-size="24" transform="translate(680.434 195)">Red: RSV</text><text fill="#A0234E" font-family="Arial,Arial_MSFontService,sans-serif" font-weight="400" font-size="24" transform="translate(785.774 195)">-</text><text fill="#A0234E" font-family="Arial,Arial_MSFontService,sans-serif" font-weight="400" font-size="24" transform="translate(793.774 195)">derived curve</text><path d="M557.094 334.123 610.304 357.077 609.116 359.832 555.906 336.877ZM610.115 353.728 616.597 361.425 606.55 361.992Z" fill="#5F696E"/><path d="M755.331 386.621 717.184 353.547 719.149 351.28 757.297 384.355ZM716.352 356.796 712.5 347.5 722.248 349.996Z" fill="#5F696E"/></g></svg>