<svg width="1282" height="724" xmlns="http://www.w3.org/2000/svg" xmlns:xlink="http://www.w3.org/1999/xlink" overflow="hidden"><g transform="translate(1 3)"><rect x="0" y="0" width="1280" height="720" fill="#FFFFFF"/><rect x="0.500053" y="-1.50005" width="1280" height="37.0001" stroke="#7F7F7F" stroke-width="1.33333" stroke-miterlimit="8" fill="#D9D9D9"/><text fill="#4B5E68" font-family="Arial,Arial_MSFontService,sans-serif" font-weight="700" font-size="21" transform="translate(535.667 25)">Supplementary slide</text><path d="M404.5 549.5 849.5 549.5" stroke="#EBEBEB" stroke-width="1.12199" stroke-linejoin="round" stroke-miterlimit="10" fill="none" fill-rule="evenodd"/><path d="M404.5 460.5 849.5 460.5" stroke="#EBEBEB" stroke-width="1.12199" stroke-linejoin="round" stroke-miterlimit="10" fill="none" fill-rule="evenodd"/><path d="M404.5 371.5 849.5 371.5" stroke="#EBEBEB" stroke-width="1.12199" stroke-linejoin="round" stroke-miterlimit="10" fill="none" fill-rule="evenodd"/><path d="M404.5 282.5 849.5 282.5" stroke="#EBEBEB" stroke-width="1.12199" stroke-linejoin="round" stroke-miterlimit="10" fill="none" fill-rule="evenodd"/><path d="M465.5 612.5 465.5 220.5" stroke="#EBEBEB" stroke-width="1.12199" stroke-linejoin="round" stroke-miterlimit="10" fill="none" fill-rule="evenodd"/><path d="M546.5 612.5 546.5 220.5" stroke="#EBEBEB" stroke-width="1.12199" stroke-linejoin="round" stroke-miterlimit="10" fill="none" fill-rule="evenodd"/><path d="M627.5 612.5 627.5 220.5" stroke="#EBEBEB" stroke-width="1.12199" stroke-linejoin="round" stroke-miterlimit="10" fill="none" fill-rule="evenodd"/><path d="M707.5 612.5 707.5 220.5" stroke="#EBEBEB" stroke-width="1.12199" stroke-linejoin="round" stroke-miterlimit="10" fill="none" fill-rule="evenodd"/><path d="M788.5 612.5 788.5 220.5" stroke="#EBEBEB" stroke-width="1.12199" stroke-linejoin="round" stroke-miterlimit="10" fill="none" fill-rule="evenodd"/><path d="M404 594 849 594" stroke="#EBEBEB" stroke-width="2.24388" stroke-linejoin="round" stroke-miterlimit="10" fill="none" fill-rule="evenodd"/><path d="M404 505 849 505" stroke="#EBEBEB" stroke-width="2.24388" stroke-linejoin="round" stroke-miterlimit="10" fill="none" fill-rule="evenodd"/><path d="M404 416 849 416" stroke="#EBEBEB" stroke-width="2.24388" stroke-linejoin="round" stroke-miterlimit="10" fill="none" fill-rule="evenodd"/><path d="M404 327 849 327" stroke="#EBEBEB" stroke-width="2.24388" stroke-linejoin="round" stroke-miterlimit="10" fill="none" fill-rule="evenodd"/><path d="M404 238 849 238" stroke="#EBEBEB" stroke-width="2.24388" stroke-linejoin="round" stroke-miterlimit="10" fill="none" fill-rule="evenodd"/><path d="M424 612 424 220" stroke="#EBEBEB" stroke-width="2.24388" stroke-linejoin="round" stroke-miterlimit="10" fill="none" fill-rule="evenodd"/><path d="M505 612 505 220" stroke="#EBEBEB" stroke-width="2.24388" stroke-linejoin="round" stroke-miterlimit="10" fill="none" fill-rule="evenodd"/><path d="M586 612 586 220" stroke="#EBEBEB" stroke-width="2.24388" stroke-linejoin="round" stroke-miterlimit="10" fill="none" fill-rule="evenodd"/><path d="M667 612 667 220" stroke="#EBEBEB" stroke-width="2.24388" stroke-linejoin="round" stroke-miterlimit="10" fill="none" fill-rule="evenodd"/><path d="M748 612 748 220" stroke="#EBEBEB" stroke-width="2.24388" stroke-linejoin="round" stroke-miterlimit="10" fill="none" fill-rule="evenodd"/><path d="M829 612 829 220" stroke="#EBEBEB" stroke-width="2.24388" stroke-linejoin="round" stroke-miterlimit="10" fill="none" fill-rule="evenodd"/><path d="M425 593.72 428.308 593.679 431.624 593.638 435.178 593.588 438.396 593.531 441.786 593.473 445.061 593.399 448.426 593.317 451.816 593.218 455.05 593.111 458.423 592.987 461.74 592.848 465.097 592.691 468.47 592.51 471.819 592.312 475.127 592.074 478.533 591.81 481.841 591.506 485.174 591.168 488.506 590.773 491.855 590.329 495.196 589.835 498.545 589.258 501.877 588.625 505.234 587.875 508.715 587.052 511.768 586.097 515.372 585.027 518.647 583.817 521.856 582.426 525.197 580.895 528.611 579.15 531.886 577.157 535.334 574.951 538.601 572.457 541.974 569.683 545.266 566.546 548.688 563.064 551.996 559.179 555.353 554.84 558.727 550.206 562.01 544.872 565.392 538.821 568.716 532.408 572.057 525.642 575.398 517.813 578.755 509.622 582.095 501.086 585.428 491.825 588.802 481.856 592.2 471.179 595.565 460.14 598.881 448.747 602.123 436.835 605.464 424.668 608.805 412.254 612.145 399.627 615.494 386.809 618.835 373.918 622.176 360.772 625.516 347.452 628.857 333.911 632.198 320.221 635.539 306.885 638.879 294.447 642.22 283.309 645.561 273.784 648.901 265.89 652.242 259.527 655.591 254.464 658.932 250.529 662.272 247.475 665.613 245.137 668.954 243.367 672.295 242.025 675.635 241.021 678.976 240.256 682.317 239.688 685.657 239.26 688.998 238.938 692.339 238.7 695.68 238.519 699.028 238.387 702.369 238.288 705.71 238.214 709.051 238.165 712.391 238.124 715.732 238.091 719.073 238.066 725.754 238.033 732.436 238.016 735.776 238.016 739.117 238.008 749.147 238.008 752.488 238 826 238 826 238.082 822.659 238.099 819.31 238.107 809.288 238.156 799.266 238.231 795.925 238.263 789.244 238.346 782.563 238.445 779.214 238.51 775.873 238.576 772.532 238.659 769.192 238.749 765.851 238.856 762.51 238.971 759.169 239.111 755.829 239.268 752.488 239.441 749.147 239.638 745.807 239.869 742.466 240.124 739.117 240.412 735.776 240.741 732.436 241.12 729.095 241.556 725.754 242.042 722.413 242.602 719.073 243.227 715.732 243.952 712.391 244.767 709.051 245.68 705.71 246.726 702.369 247.919 699.028 249.261 695.68 250.776 692.339 252.496 688.998 254.439 685.657 256.637 682.317 259.107 678.976 261.906 675.635 265.026 672.295 268.557 668.954 272.525 665.613 276.978 662.272 281.942 658.932 287.532 655.591 293.747 652.242 300.736 648.901 308.63 645.561 317.57 642.22 327.745 638.879 339.607 635.539 353.733 632.198 370.568 628.857 390.045 625.516 411.793 622.176 434.81 618.835 458.115 615.494 480.448 612.145 501.053 608.805 519.204 605.464 534.722 602.123 547.637 598.881 558.043 595.565 566.439 592.2 572.992 588.802 578.088 585.428 581.998 582.095 584.953 578.755 587.233 575.398 588.946 572.057 590.222 568.716 591.168 565.392 591.893 562.01 592.428 558.727 592.823 555.353 593.127 551.996 593.35 548.688 593.514 545.266 593.638 541.974 593.728 538.601 593.794 535.334 593.852 531.886 593.885 528.611 593.918 525.197 593.934 521.856 593.951 518.647 593.967 515.372 593.975 511.768 593.975 508.715 593.984 505.234 593.984 501.877 593.992 478.533 593.992 475.127 594 425 594Z" fill="#7FCDBB" fill-rule="evenodd" fill-opacity="0.301961"/><path d="M425 594 438.396 594 441.786 593.992 451.816 593.992 455.05 593.984 458.423 593.984 461.74 593.975 465.097 593.967 468.47 593.959 471.819 593.951 475.127 593.934 478.533 593.918 481.841 593.901 488.506 593.852 491.855 593.819 495.196 593.778 498.545 593.728 501.877 593.663 505.234 593.589 508.715 593.49 511.768 593.383 515.372 593.243 518.647 593.078 521.856 592.872 525.197 592.617 528.611 592.312 531.886 591.942 535.334 591.481 538.601 590.929 541.974 590.271 545.266 589.448 548.688 588.452 551.996 587.242 555.353 585.743 558.727 583.965 562.01 581.833 565.392 579.265 568.716 576.136 572.057 572.432 575.398 567.978 578.755 562.751 582.095 556.626 585.428 549.151 588.802 540.96 592.2 530.991 595.565 519.96 598.881 507.496 602.123 493.922 605.464 478.914 608.805 462.804 612.145 445.854 615.494 428.311 618.835 410.546 622.176 392.913 625.516 375.724 628.857 359.318 632.198 343.94 635.539 329.747 638.879 316.815 642.22 305.232 645.561 294.991 648.901 286.043 652.242 278.305 655.591 271.67 658.932 266.03 662.272 261.281 665.613 257.28 668.954 253.929 672.295 251.147 675.635 248.834 678.976 246.915 682.317 245.327 685.657 244.018 688.998 242.939 692.339 242.058 695.68 241.326 699.028 240.725 702.369 240.239 705.71 239.836 709.051 239.498 712.391 239.235 715.732 239.013 719.073 238.823 722.413 238.675 725.754 238.552 729.095 238.453 732.436 238.37 735.776 238.305 739.117 238.247 742.466 238.206 745.807 238.165 755.829 238.091 762.51 238.058 775.873 238.025 779.214 238.025 782.563 238.016 789.244 238.016 792.585 238.008 805.948 238.008 809.288 238 826 238" stroke="#7FCDBB" stroke-width="4.48787" stroke-linejoin="round" stroke-miterlimit="10" fill="none" fill-rule="evenodd"/><path d="M425 593.992 448.426 593.992 451.816 593.984 458.423 593.984 461.74 593.975 465.097 593.975 468.47 593.967 471.819 593.967 475.127 593.959 478.533 593.951 481.841 593.942 488.506 593.926 491.855 593.909 495.196 593.893 498.545 593.876 501.877 593.852 505.234 593.827 508.715 593.794 511.768 593.753 515.372 593.704 518.647 593.654 521.856 593.588 525.197 593.506 528.611 593.416 531.886 593.309 535.334 593.177 538.601 593.029 541.974 592.839 545.266 592.617 548.688 592.362 551.996 592.049 555.353 591.679 558.727 591.234 562.01 590.707 565.392 590.082 568.716 589.341 572.057 588.46 575.398 587.406 578.755 586.155 582.095 584.673 585.428 582.912 588.802 580.829 592.2 578.376 595.565 575.453 598.881 572.037 602.123 567.995 605.464 563.237 608.805 557.73 612.145 551.243 615.494 543.661 618.835 535.092 622.176 525.197 625.516 514.026 628.857 501.399 632.198 487.165 635.539 471.508 638.879 454.295 642.22 436.037 645.561 416.593 648.901 396.671 652.242 376.355 655.591 356.351 658.932 337.269 662.272 319.702 665.613 303.988 668.954 290.462 672.295 279.053 675.635 269.685 678.976 262.177 682.317 256.209 685.657 251.574 688.998 248.059 692.339 245.401 695.68 243.425 699.028 241.96 702.369 240.881 705.71 240.091 709.051 239.515 712.391 239.087 715.732 238.782 719.073 238.56 722.413 238.403 725.754 238.288 729.095 238.206 732.436 238.148 735.776 238.107 739.117 238.074 742.466 238.058 749.147 238.025 752.488 238.016 755.829 238.016 759.169 238.008 765.851 238.008 769.192 238 826 238 826 238.058 822.659 238.074 819.31 238.082 815.97 238.099 812.629 238.124 809.288 238.14 805.948 238.173 802.607 238.198 799.266 238.239 792.585 238.338 789.244 238.403 785.903 238.477 782.563 238.568 779.214 238.675 775.873 238.807 772.532 238.955 769.192 239.136 765.851 239.35 762.51 239.613 759.169 239.918 755.829 240.28 752.488 240.717 749.147 241.243 745.807 241.853 742.466 242.585 739.117 243.466 735.776 244.503 732.436 245.746 729.095 247.228 725.754 248.99 722.413 251.081 719.073 253.575 715.732 256.506 712.391 260.012 709.051 264.145 705.71 269.043 702.369 274.813 699.028 281.555 695.68 289.417 692.339 298.612 688.998 309.355 685.657 321.752 682.317 336.191 678.976 352.457 675.635 370.65 672.295 390.695 668.954 412.287 665.613 434.687 662.272 457.415 658.932 479.386 655.591 500.032 652.242 518.554 648.901 534.647 645.561 548.181 642.22 559.138 638.879 567.748 635.539 574.466 632.198 579.578 628.857 583.389 625.516 586.245 622.176 588.361 618.835 589.917 615.494 591.053 612.145 591.876 608.805 592.477 605.464 592.905 602.123 593.218 598.881 593.44 595.565 593.597 592.2 593.712 588.802 593.794 585.428 593.852 582.095 593.893 578.755 593.926 575.398 593.942 572.057 593.959 568.716 593.967 565.392 593.975 562.01 593.984 558.727 593.984 555.353 593.992 538.601 593.992 535.334 594 425 594Z" fill="#3690C0" fill-rule="evenodd" fill-opacity="0.301961"/><path d="M425 594 478.533 594 481.841 593.992 511.768 593.992 515.372 593.984 518.647 593.984 521.856 593.975 525.197 593.975 528.611 593.967 531.886 593.959 535.334 593.951 538.601 593.934 541.974 593.918 545.266 593.893 548.688 593.868 551.996 593.835 555.353 593.786 558.727 593.728 562.01 593.654 565.392 593.564 568.716 593.44 572.057 593.284 575.398 593.094 578.755 592.839 582.095 592.526 585.428 592.123 588.802 591.604 592.2 590.954 595.565 590.123 598.881 589.061 602.123 587.727 605.464 586.04 608.805 583.899 612.145 581.208 615.494 577.832 618.835 573.618 622.176 568.407 625.516 561.994 628.857 554.166 632.198 544.723 635.539 533.52 638.879 520.274 642.22 505.078 645.561 487.997 648.901 469.17 652.242 448.994 655.591 427.928 658.932 406.467 662.272 385.295 665.613 364.986 668.954 346.028 672.295 328.782 675.635 313.388 678.976 299.979 682.317 288.511 685.657 278.855 688.998 270.821 692.339 264.235 695.68 258.893 699.028 254.579 702.369 251.122 705.71 248.364 709.051 246.174 712.391 244.429 715.732 243.063 719.073 241.976 722.413 241.12 725.754 240.453 729.095 239.918 732.436 239.506 735.776 239.185 739.117 238.93 742.466 238.724 745.807 238.568 749.147 238.445 752.488 238.354 755.829 238.272 759.169 238.214 765.851 238.132 772.532 238.082 779.214 238.049 782.563 238.041 792.585 238.016 795.925 238.016 799.266 238.008 812.629 238.008 815.97 238 826 238" stroke="#0570B0" stroke-width="4.48787" stroke-linejoin="round" stroke-miterlimit="10" fill="none" fill-rule="evenodd"/><path d="M425 593.992 431.624 593.992 435.178 593.984 445.061 593.984 448.426 593.975 451.816 593.975 455.05 593.967 458.423 593.959 461.74 593.959 465.097 593.951 468.47 593.942 471.819 593.926 475.127 593.918 478.533 593.901 481.841 593.876 485.174 593.86 488.506 593.827 491.855 593.802 495.196 593.761 498.545 593.72 501.877 593.663 505.234 593.605 508.715 593.523 511.768 593.432 515.372 593.333 518.647 593.202 521.856 593.053 525.197 592.872 528.611 592.658 531.886 592.403 535.334 592.098 538.601 591.744 541.974 591.316 545.266 590.806 548.688 590.205 551.996 589.481 555.353 588.633 558.727 587.62 562.01 586.418 565.392 584.994 568.716 583.315 572.057 581.323 575.398 578.977 578.755 576.227 582.095 573 585.428 569.172 588.802 564.744 592.2 559.607 595.565 553.663 598.881 546.765 602.123 538.87 605.464 529.881 608.805 519.756 612.145 508.412 615.494 495.826 618.835 482.111 622.176 467.228 625.516 451.291 628.857 434.415 632.198 416.938 635.539 398.993 638.879 380.973 642.22 363.126 645.561 345.699 648.901 329.21 652.242 313.874 655.591 299.946 658.932 287.688 662.272 277.135 665.613 268.31 668.954 261.124 672.295 255.419 675.635 250.974 678.976 247.574 682.317 245.014 685.657 243.096 688.998 241.696 692.339 240.667 695.68 239.885 699.028 239.243 702.369 238.659 705.71 238.98 709.051 238.7 712.391 238.502 715.732 238.354 719.073 238.255 722.413 238.181 725.754 238.132 729.095 238.091 732.436 238.066 739.117 238.033 742.466 238.025 749.147 238.008 759.169 238.008 762.51 238 826 238 826 238.025 822.659 238.033 819.31 238.033 805.948 238.066 795.925 238.115 789.244 238.165 785.903 238.198 782.563 238.239 779.214 238.28 772.532 238.395 769.192 238.477 765.851 238.568 762.51 238.675 759.169 238.798 755.829 238.955 752.488 239.136 749.147 239.358 745.807 239.613 742.466 239.926 739.117 240.288 735.776 240.733 732.436 241.252 729.095 241.877 725.754 242.618 722.413 243.507 719.073 244.561 715.732 245.82 712.391 247.319 709.051 249.097 705.71 251.221 702.369 251.204 699.028 253.748 695.68 256.736 692.339 260.309 688.998 264.573 685.657 269.644 682.317 275.661 678.976 282.881 675.635 291.491 672.295 301.74 668.954 313.973 665.613 328.642 662.272 345.946 658.932 365.933 655.591 388.785 652.242 413.761 648.901 439.823 645.561 465.573 642.22 489.866 638.879 511.639 635.539 530.169 632.198 545.448 628.857 557.623 625.516 567.073 622.176 574.301 618.835 579.693 615.494 583.685 612.145 586.575 608.805 588.674 605.464 590.197 602.123 591.283 598.881 592.065 595.565 592.625 592.2 593.02 588.802 593.3 585.428 593.506 582.095 593.646 578.755 593.753 575.398 593.819 572.057 593.876 568.716 593.909 565.392 593.934 562.01 593.951 558.727 593.967 555.353 593.975 551.996 593.984 548.688 593.984 545.266 593.992 525.197 593.992 521.856 594 425 594Z" fill="#CE1256" fill-rule="evenodd" fill-opacity="0.301961"/><path d="M425 594 468.47 594 471.819 593.992 498.545 593.992 501.877 593.984 508.715 593.984 511.768 593.975 515.372 593.967 518.647 593.967 521.856 593.951 525.197 593.942 528.611 593.926 531.886 593.909 535.334 593.876 538.601 593.844 541.974 593.802 545.266 593.753 548.688 593.679 551.996 593.597 555.353 593.481 558.727 593.333 562.01 593.144 565.392 592.905 568.716 592.601 572.057 592.205 575.398 591.703 578.755 591.061 582.095 590.238 585.428 589.193 588.802 587.851 592.2 586.155 595.565 583.998 598.881 581.265 602.123 577.824 605.464 573.519 608.805 568.152 612.145 561.508 615.494 553.383 618.835 543.53 622.176 531.783 625.516 517.961 628.857 502.082 632.198 484.161 635.539 464.445 638.879 443.38 642.22 421.557 645.561 399.594 648.901 378.158 652.242 357.874 655.591 339.13 658.932 322.271 662.272 307.42 665.613 294.595 668.954 283.729 672.295 274.682 675.635 267.232 678.976 261.198 682.317 256.333 685.657 252.447 688.998 249.352 692.339 246.907 695.68 245.005 699.028 243.622 702.369 242.668 705.71 242.272 709.051 241.334 712.391 240.601 715.732 240.033 719.073 239.589 722.413 239.235 725.754 238.963 729.095 238.749 732.436 238.584 735.776 238.461 739.117 238.354 742.466 238.28 745.807 238.214 752.488 238.132 755.829 238.099 765.851 238.049 779.214 238.016 782.563 238.016 785.903 238.008 799.266 238.008 802.607 238 826 238" stroke="#980043" stroke-width="4.48787" stroke-linejoin="round" stroke-miterlimit="10" fill="none" fill-rule="evenodd"/><path d="M404 612 404 220" stroke="#000000" stroke-width="4.48787" stroke-linecap="square" stroke-linejoin="round" stroke-miterlimit="10" fill="none" fill-rule="evenodd"/><path d="M355.003 593.527C354.994 591.565 355.2 589.983 355.619 588.775 356.022 587.582 356.63 586.658 357.444 586.001 358.25 585.352 359.269 585.019 360.502 585.019 361.398 585.019 362.196 585.206 362.887 585.563 363.569 585.928 364.136 586.447 364.58 587.12 365.024 587.801 365.369 588.62 365.624 589.594 365.871 590.567 365.994 591.881 366.002 593.527 365.994 595.482 365.797 597.056 365.394 598.256 364.983 599.456 364.375 600.389 363.569 601.038 362.763 601.695 361.736 602.011 360.502 602.019 358.866 602.011 357.592 601.443 356.671 600.292 355.553 598.913 354.994 596.658 355.003 593.527ZM357.132 593.527C357.132 596.261 357.452 598.078 358.102 598.986 358.751 599.894 359.549 600.349 360.502 600.34 361.448 600.349 362.253 599.894 362.903 598.978 363.544 598.078 363.865 596.261 363.873 593.527 363.865 590.794 363.544 588.977 362.903 588.069 362.253 587.177 361.44 586.723 360.478 586.714 359.524 586.723 358.768 587.12 358.2 587.907 357.485 588.921 357.132 590.794 357.132 593.527Z" fill-rule="evenodd"/><path d="M369.002 602.017 369.002 600.017 371.003 600.017 371.003 602.017Z" fill-rule="evenodd"/><path d="M374.003 593.527C373.995 591.565 374.201 589.983 374.62 588.775 375.023 587.582 375.631 586.658 376.445 586.001 377.251 585.352 378.27 585.019 379.503 585.019 380.399 585.019 381.197 585.206 381.887 585.563 382.57 585.928 383.137 586.447 383.581 587.12 384.025 587.801 384.37 588.62 384.625 589.594 384.872 590.567 384.995 591.881 385.003 593.527 384.995 595.482 384.798 597.056 384.395 598.256 383.984 599.456 383.375 600.389 382.57 601.038 381.764 601.695 380.737 602.011 379.503 602.019 377.867 602.011 376.593 601.443 375.672 600.292 374.554 598.913 373.995 596.658 374.003 593.527ZM376.133 593.527C376.133 596.261 376.453 598.078 377.103 598.986 377.752 599.894 378.55 600.349 379.503 600.34 380.449 600.349 381.254 599.894 381.904 598.978 382.545 598.078 382.866 596.261 382.874 593.527 382.866 590.794 382.545 588.977 381.904 588.069 381.254 587.177 380.441 586.723 379.479 586.714 378.525 586.723 377.769 587.12 377.201 587.907 376.486 588.921 376.133 590.794 376.133 593.527Z" fill-rule="evenodd"/><path d="M388.004 593.527C387.996 591.565 388.201 589.983 388.621 588.775 389.023 587.582 389.632 586.658 390.446 586.001 391.251 585.352 392.271 585.019 393.504 585.019 394.4 585.019 395.198 585.206 395.888 585.563 396.57 585.928 397.138 586.447 397.582 587.12 398.026 587.801 398.371 588.62 398.626 589.594 398.872 590.567 398.996 591.881 399.004 593.527 398.996 595.482 398.798 597.056 398.396 598.256 397.984 599.456 397.376 600.389 396.57 601.038 395.765 601.695 394.737 602.011 393.504 602.019 391.868 602.011 390.594 601.443 389.673 600.292 388.555 598.913 387.996 596.658 388.004 593.527ZM390.133 593.527C390.133 596.261 390.454 598.078 391.103 598.986 391.753 599.894 392.55 600.349 393.504 600.34 394.449 600.349 395.255 599.894 395.905 598.978 396.546 598.078 396.866 596.261 396.875 593.527 396.866 590.794 396.546 588.977 395.905 588.069 395.255 587.177 394.441 586.723 393.479 586.714 392.526 586.723 391.769 587.12 391.202 587.907 390.487 588.921 390.133 590.794 390.133 593.527Z" fill-rule="evenodd"/><path d="M355.003 504.523C354.994 502.56 355.2 500.979 355.619 499.77 356.022 498.578 356.63 497.653 357.444 496.996 358.25 496.347 359.269 496.015 360.502 496.015 361.398 496.015 362.196 496.201 362.887 496.558 363.569 496.923 364.136 497.442 364.58 498.116 365.024 498.797 365.369 499.616 365.624 500.589 365.871 501.563 365.994 502.877 366.002 504.523 365.994 506.478 365.797 508.051 365.394 509.252 364.983 510.452 364.375 511.385 363.569 512.034 362.763 512.691 361.736 513.007 360.502 513.015 358.866 513.007 357.592 512.439 356.671 511.287 355.553 509.909 354.994 507.654 355.003 504.523ZM357.132 504.523C357.132 507.256 357.452 509.073 358.102 509.982 358.751 510.89 359.549 511.344 360.502 511.336 361.448 511.344 362.253 510.89 362.903 509.973 363.544 509.073 363.865 507.256 363.873 504.523 363.865 501.79 363.544 499.973 362.903 499.065 362.253 498.172 361.44 497.718 360.478 497.71 359.524 497.718 358.768 498.116 358.2 498.902 357.485 499.916 357.132 501.79 357.132 504.523Z" fill-rule="evenodd"/><path d="M369.002 513.013 369.002 511.013 371.003 511.013 371.003 513.013Z" fill-rule="evenodd"/><path d="M385.003 511.019 385.003 513.015 374.005 513.015C373.989 512.52 374.062 512.042 374.241 511.572 374.516 510.813 374.97 510.062 375.587 509.32 376.203 508.586 377.095 507.728 378.263 506.755 380.064 505.253 381.281 504.066 381.929 503.175 382.562 502.301 382.886 501.459 382.886 500.667 382.886 499.851 382.594 499.158 382.01 498.589 381.427 498.028 380.672 497.747 379.748 497.739 378.758 497.747 377.971 498.044 377.387 498.638 376.795 499.24 376.495 500.073 376.487 501.129L374.387 500.915C374.524 499.323 375.068 498.11 376.009 497.269 376.941 496.436 378.207 496.015 379.796 496.015 381.386 496.015 382.643 496.469 383.584 497.368 384.509 498.275 384.979 499.389 384.987 500.717 384.979 501.393 384.841 502.061 384.573 502.713 384.298 503.373 383.843 504.066 383.219 504.783 382.578 505.509 381.532 506.499 380.064 507.761 378.839 508.809 378.053 509.518 377.704 509.889 377.355 510.269 377.063 510.648 376.844 511.019Z" fill-rule="evenodd"/><path d="M388.004 508.562 390.146 508.391C390.299 509.401 390.663 510.155 391.245 510.652 391.819 511.165 392.514 511.414 393.33 511.406 394.308 511.414 395.141 511.056 395.819 510.341 396.498 509.626 396.838 508.686 396.838 507.513 396.838 506.401 396.506 505.523 395.86 504.871 395.197 504.233 394.348 503.907 393.298 503.899 392.635 503.907 392.037 504.047 391.52 504.327 390.986 504.614 390.574 504.987 390.275 505.446L388.368 505.205 389.976 497.014 398.22 497.014 398.22 498.879 391.6 498.879 390.711 503.169C391.697 502.508 392.74 502.174 393.839 502.166 395.286 502.174 396.506 502.656 397.509 503.62 398.495 504.591 398.996 505.826 399.004 507.334 398.996 508.779 398.559 510.03 397.686 511.079 396.62 512.369 395.165 513.007 393.33 513.014 391.819 513.007 390.59 512.61 389.636 511.794 388.683 510.986 388.133 509.906 388.004 508.562Z" fill-rule="evenodd"/><path d="M355.003 416.02C354.994 413.942 355.2 412.267 355.619 410.987 356.022 409.725 356.63 408.746 357.444 408.05 358.25 407.363 359.269 407.011 360.502 407.011 361.398 407.011 362.196 407.209 362.887 407.587 363.569 407.973 364.136 408.523 364.58 409.236 365.024 409.957 365.369 410.824 365.624 411.855 365.871 412.885 365.994 414.276 366.002 416.02 365.994 418.089 365.797 419.756 365.394 421.026 364.983 422.298 364.375 423.285 363.569 423.972 362.763 424.668 361.736 425.003 360.502 425.011 358.866 425.003 357.592 424.402 356.671 423.182 355.553 421.722 354.994 419.335 355.003 416.02ZM357.132 416.02C357.132 418.914 357.452 420.838 358.102 421.799 358.751 422.761 359.549 423.242 360.502 423.234 361.448 423.242 362.253 422.761 362.903 421.791 363.544 420.838 363.865 418.914 363.873 416.02 363.865 413.126 363.544 411.202 362.903 410.24 362.253 409.296 361.44 408.815 360.478 408.806 359.524 408.815 358.768 409.236 358.2 410.069 357.485 411.142 357.132 413.126 357.132 416.02Z" fill-rule="evenodd"/><path d="M369.002 424.009 369.002 422.009 371.003 422.009 371.003 424.009Z" fill-rule="evenodd"/><path d="M374.003 420.28 376.34 420.098C376.507 421.172 376.904 421.972 377.539 422.501 378.165 423.046 378.923 423.31 379.814 423.302 380.881 423.31 381.789 422.93 382.529 422.171 383.27 421.411 383.64 420.412 383.64 419.165 383.64 417.985 383.279 417.052 382.574 416.358 381.851 415.681 380.925 415.334 379.779 415.326 379.056 415.334 378.403 415.483 377.839 415.78 377.257 416.086 376.807 416.482 376.481 416.969L374.4 416.713 376.155 408.011 385.148 408.011 385.148 409.992 377.927 409.992 376.957 414.55C378.033 413.848 379.17 413.493 380.369 413.485 381.948 413.493 383.279 414.005 384.372 415.029 385.448 416.061 385.995 417.374 386.003 418.975 385.995 420.511 385.519 421.84 384.566 422.955 383.402 424.326 381.815 425.003 379.814 425.011 378.165 425.003 376.825 424.582 375.785 423.715 374.744 422.856 374.145 421.708 374.003 420.28Z" fill-rule="evenodd"/><path d="M388.004 416.02C387.996 413.942 388.201 412.267 388.621 410.987 389.023 409.725 389.632 408.746 390.446 408.05 391.251 407.363 392.271 407.011 393.504 407.011 394.4 407.011 395.198 407.209 395.888 407.587 396.57 407.973 397.138 408.523 397.582 409.236 398.026 409.957 398.371 410.824 398.626 411.855 398.872 412.885 398.996 414.276 399.004 416.02 398.996 418.089 398.798 419.756 398.396 421.026 397.984 422.298 397.376 423.285 396.57 423.972 395.765 424.668 394.737 425.003 393.504 425.011 391.868 425.003 390.594 424.402 389.673 423.182 388.555 421.722 387.996 419.335 388.004 416.02ZM390.133 416.02C390.133 418.914 390.454 420.838 391.103 421.799 391.753 422.761 392.55 423.242 393.504 423.234 394.449 423.242 395.255 422.761 395.905 421.791 396.546 420.838 396.866 418.914 396.875 416.02 396.866 413.126 396.546 411.202 395.905 410.24 395.255 409.296 394.441 408.815 393.479 408.806 392.526 408.815 391.769 409.236 391.202 410.069 390.487 411.142 390.133 413.126 390.133 416.02Z" fill-rule="evenodd"/><path d="M355.003 327.015C354.994 324.937 355.2 323.262 355.619 321.983 356.022 320.72 356.63 319.741 357.444 319.046 358.25 318.359 359.269 318.007 360.502 318.007 361.398 318.007 362.196 318.204 362.887 318.582 363.569 318.968 364.136 319.518 364.58 320.231 365.024 320.952 365.369 321.82 365.624 322.85 365.871 323.881 365.994 325.272 366.002 327.015 365.994 329.085 365.797 330.751 365.394 332.022 364.983 333.293 364.375 334.281 363.569 334.967 362.763 335.663 361.736 335.998 360.502 336.007 358.866 335.998 357.592 335.397 356.671 334.177 355.553 332.717 354.994 330.33 355.003 327.015ZM357.132 327.015C357.132 329.909 357.452 331.833 358.102 332.795 358.751 333.757 359.549 334.238 360.502 334.229 361.448 334.238 362.253 333.757 362.903 332.786 363.544 331.833 363.865 329.909 363.873 327.015 363.865 324.121 363.544 322.197 362.903 321.236 362.253 320.291 361.44 319.81 360.478 319.801 359.524 319.81 358.768 320.231 358.2 321.064 357.485 322.137 357.132 324.121 357.132 327.015Z" fill-rule="evenodd"/><path d="M369.002 335.005 369.002 333.005 371.003 333.005 371.003 335.005Z" fill-rule="evenodd"/><path d="M375.003 320.917 375.003 319.006 385.003 319.006 385.003 320.554C384.016 321.66 383.038 323.121 382.074 324.937 381.102 326.753 380.357 328.625 379.837 330.552 379.453 331.91 379.212 333.395 379.114 335.006L377.164 335.006C377.179 333.735 377.413 332.195 377.879 330.386 378.331 328.586 378.986 326.848 379.845 325.166 380.688 323.492 381.599 322.078 382.571 320.917Z" fill-rule="evenodd"/><path d="M388.004 331.275 390.146 331.094C390.299 332.167 390.663 332.968 391.245 333.496 391.819 334.041 392.514 334.306 393.33 334.297 394.308 334.306 395.141 333.926 395.819 333.166 396.498 332.406 396.838 331.408 396.838 330.161 396.838 328.98 396.506 328.047 395.86 327.354 395.197 326.677 394.348 326.33 393.298 326.322 392.635 326.33 392.037 326.478 391.52 326.776 390.986 327.081 390.574 327.477 390.275 327.965L388.368 327.709 389.976 319.006 398.22 319.006 398.22 320.988 391.6 320.988 390.711 325.545C391.697 324.844 392.74 324.489 393.839 324.48 395.286 324.489 396.506 325.001 397.509 326.024 398.495 327.056 398.996 328.369 399.004 329.971 398.996 331.507 398.559 332.836 397.686 333.951 396.62 335.321 395.165 335.998 393.33 336.006 391.819 335.998 390.59 335.577 389.636 334.71 388.683 333.851 388.133 332.704 388.004 331.275Z" fill-rule="evenodd"/><path d="M363.003 246.002 360.669 246.002 360.669 232.755C360.104 233.242 359.364 233.72 358.456 234.19 357.54 234.677 356.725 235.032 356.002 235.262L356.002 233.25C357.308 232.714 358.447 232.054 359.428 231.27 360.401 230.495 361.095 229.736 361.503 229.002L363.003 229.002Z" fill-rule="evenodd"/><path d="M369.002 246.002 369.002 244.002 371.003 244.002 371.003 246.002Z" fill-rule="evenodd"/><path d="M374.003 238.011C373.995 235.932 374.201 234.258 374.62 232.978 375.023 231.716 375.631 230.737 376.445 230.041 377.251 229.354 378.27 229.002 379.503 229.002 380.399 229.002 381.197 229.2 381.887 229.577 382.57 229.964 383.137 230.513 383.581 231.226 384.025 231.948 384.37 232.815 384.625 233.846 384.872 234.876 384.995 236.267 385.003 238.011 384.995 240.08 384.798 241.746 384.395 243.017 383.984 244.288 383.375 245.276 382.57 245.963 381.764 246.658 380.737 246.993 379.503 247.002 377.867 246.993 376.593 246.392 375.672 245.173 374.554 243.713 373.995 241.325 374.003 238.011ZM376.133 238.011C376.133 240.905 376.453 242.828 377.103 243.79 377.752 244.752 378.55 245.233 379.503 245.224 380.449 245.233 381.254 244.752 381.904 243.782 382.545 242.828 382.866 240.905 382.874 238.011 382.866 235.117 382.545 233.193 381.904 232.231 381.254 231.286 380.441 230.805 379.479 230.797 378.525 230.805 377.769 231.226 377.201 232.059 376.486 233.133 376.133 235.117 376.133 238.011Z" fill-rule="evenodd"/><path d="M388.004 238.011C387.996 235.932 388.201 234.258 388.621 232.978 389.023 231.716 389.632 230.737 390.446 230.041 391.251 229.354 392.271 229.002 393.504 229.002 394.4 229.002 395.198 229.2 395.888 229.577 396.57 229.964 397.138 230.513 397.582 231.226 398.026 231.948 398.371 232.815 398.626 233.846 398.872 234.876 398.996 236.267 399.004 238.011 398.996 240.08 398.798 241.746 398.396 243.017 397.984 244.288 397.376 245.276 396.57 245.963 395.765 246.658 394.737 246.993 393.504 247.002 391.868 246.993 390.594 246.392 389.673 245.173 388.555 243.713 387.996 241.325 388.004 238.011ZM390.133 238.011C390.133 240.905 390.454 242.828 391.103 243.79 391.753 244.752 392.55 245.233 393.504 245.224 394.449 245.233 395.255 244.752 395.905 243.782 396.546 242.828 396.866 240.905 396.875 238.011 396.866 235.117 396.546 233.193 395.905 232.231 395.255 231.286 394.441 230.805 393.479 230.797 392.526 230.805 391.769 231.226 391.202 232.059 390.487 233.133 390.133 235.117 390.133 238.011Z" fill-rule="evenodd"/><path d="M416.5 594.5 404.5 594.5" stroke="#333333" stroke-width="6.73176" stroke-linejoin="round" stroke-miterlimit="10" fill="none" fill-rule="evenodd"/><path d="M416.5 505.5 404.5 505.5" stroke="#333333" stroke-width="6.73176" stroke-linejoin="round" stroke-miterlimit="10" fill="none" fill-rule="evenodd"/><path d="M416.5 416.5 404.5 416.5" stroke="#333333" stroke-width="6.73176" stroke-linejoin="round" stroke-miterlimit="10" fill="none" fill-rule="evenodd"/><path d="M416.5 327.5 404.5 327.5" stroke="#333333" stroke-width="6.73176" stroke-linejoin="round" stroke-miterlimit="10" fill="none" fill-rule="evenodd"/><path d="M416.5 238.5 404.5 238.5" stroke="#333333" stroke-width="6.73176" stroke-linejoin="round" stroke-miterlimit="10" fill="none" fill-rule="evenodd"/><path d="M404 612 849 612" stroke="#000000" stroke-width="4.48787" stroke-linecap="square" stroke-linejoin="round" stroke-miterlimit="10" fill="none" fill-rule="evenodd"/><path d="M424.5 600.5 424.5 612.5" stroke="#333333" stroke-width="6.73176" stroke-linejoin="round" stroke-miterlimit="10" fill="none" fill-rule="evenodd"/><path d="M505.5 600.5 505.5 612.5" stroke="#333333" stroke-width="6.73176" stroke-linejoin="round" stroke-miterlimit="10" fill="none" fill-rule="evenodd"/><path d="M586.5 600.5 586.5 612.5" stroke="#333333" stroke-width="6.73176" stroke-linejoin="round" stroke-miterlimit="10" fill="none" fill-rule="evenodd"/><path d="M667.5 600.5 667.5 612.5" stroke="#333333" stroke-width="6.73176" stroke-linejoin="round" stroke-miterlimit="10" fill="none" fill-rule="evenodd"/><path d="M748.5 600.5 748.5 612.5" stroke="#333333" stroke-width="6.73176" stroke-linejoin="round" stroke-miterlimit="10" fill="none" fill-rule="evenodd"/><path d="M829.5 600.5 829.5 612.5" stroke="#333333" stroke-width="6.73176" stroke-linejoin="round" stroke-miterlimit="10" fill="none" fill-rule="evenodd"/><path d="M427.005 633.021 425.005 633.021 425.005 619.774C424.521 620.261 423.886 620.739 423.108 621.209 422.323 621.696 421.624 622.051 421.005 622.282L421.005 620.269C422.124 619.733 423.1 619.073 423.942 618.29 424.775 617.514 425.37 616.755 425.72 616.021L427.005 616.021Z" fill-rule="evenodd"/><path d="M511.009 631.025 511.009 633.021 500.012 633.021C499.995 632.526 500.068 632.048 500.247 631.578 500.523 630.819 500.977 630.068 501.593 629.326 502.21 628.592 503.102 627.734 504.27 626.761 506.07 625.259 507.287 624.072 507.936 623.181 508.568 622.307 508.893 621.465 508.893 620.673 508.893 619.857 508.601 619.164 508.017 618.595 507.433 618.034 506.678 617.753 505.754 617.745 504.764 617.753 503.978 618.05 503.394 618.644 502.802 619.246 502.501 620.079 502.493 621.135L500.393 620.921C500.531 619.329 501.074 618.116 502.015 617.275 502.948 616.442 504.213 616.021 505.802 616.021 507.392 616.021 508.649 616.475 509.59 617.374 510.515 618.281 510.985 619.395 510.993 620.723 510.985 621.399 510.847 622.067 510.58 622.719 510.304 623.379 509.85 624.072 509.225 624.789 508.584 625.515 507.538 626.505 506.07 627.767 504.845 628.815 504.059 629.524 503.71 629.895 503.361 630.275 503.069 630.654 502.85 631.025Z" fill-rule="evenodd"/><path d="M581.013 628.335 583.076 628.068C583.313 629.235 583.714 630.07 584.287 630.573 584.852 631.091 585.548 631.343 586.366 631.335 587.332 631.343 588.15 631.01 588.821 630.338 589.493 629.673 589.828 628.846 589.828 627.857 589.828 626.924 589.517 626.154 588.895 625.538 588.273 624.938 587.487 624.63 586.538 624.622 586.145 624.63 585.654 624.703 585.081 624.849L585.31 623.058C585.45 623.082 585.556 623.09 585.646 623.082 586.514 623.09 587.307 622.863 588.019 622.401 588.715 621.955 589.067 621.25 589.075 620.301 589.067 619.555 588.813 618.939 588.306 618.437 587.79 617.95 587.127 617.699 586.325 617.699 585.515 617.699 584.844 617.95 584.32 618.453 583.78 618.956 583.436 619.709 583.289 620.698L581.226 620.334C581.472 618.972 582.045 617.91 582.937 617.156 583.829 616.402 584.942 616.021 586.276 616.021 587.185 616.021 588.028 616.215 588.805 616.605 589.575 616.994 590.164 617.529 590.581 618.202 590.982 618.883 591.187 619.596 591.195 620.35 591.187 621.071 590.99 621.728 590.606 622.312 590.213 622.904 589.64 623.374 588.879 623.714 589.869 623.949 590.639 624.42 591.187 625.133 591.735 625.854 592.014 626.746 592.014 627.816 592.014 629.276 591.473 630.508 590.409 631.513 589.329 632.518 587.979 633.021 586.358 633.021 584.877 633.021 583.657 632.591 582.683 631.716 581.709 630.856 581.153 629.73 581.013 628.335Z" fill-rule="evenodd"/><path d="M667.919 633.021 667.919 628.954 661.017 628.954 661.017 627.04 668.275 616.021 669.871 616.021 669.871 627.04 672.017 627.04 672.017 628.954 669.871 628.954 669.871 633.021ZM667.919 627.04 667.919 619.368 662.938 627.04Z" fill-rule="evenodd"/><path d="M742.023 628.29 744.36 628.109C744.527 629.182 744.924 629.983 745.559 630.511 746.185 631.056 746.943 631.32 747.834 631.312 748.9 631.32 749.809 630.941 750.549 630.181 751.29 629.421 751.66 628.422 751.66 627.176 751.66 625.995 751.299 625.062 750.593 624.369 749.87 623.691 748.945 623.345 747.798 623.336 747.075 623.345 746.423 623.493 745.859 623.791 745.277 624.096 744.827 624.492 744.501 624.979L742.42 624.724 744.175 616.021 753.168 616.021 753.168 618.003 745.947 618.003 744.977 622.56C746.052 621.859 747.19 621.504 748.389 621.495 749.967 621.504 751.299 622.015 752.392 623.039 753.468 624.071 754.014 625.384 754.023 626.986 754.014 628.521 753.538 629.851 752.586 630.965 751.422 632.336 749.835 633.013 747.834 633.021 746.185 633.013 744.845 632.592 743.804 631.725 742.764 630.866 742.164 629.719 742.023 628.29Z" fill-rule="evenodd"/><path d="M833.733 620.165 831.695 620.328C831.509 619.525 831.249 618.941 830.924 618.576 830.364 617.992 829.682 617.7 828.878 617.7 828.221 617.7 827.644 617.886 827.157 618.251 826.508 618.722 826.005 619.403 825.631 620.303 825.258 621.212 825.063 622.501 825.055 624.156 825.542 623.41 826.143 622.85 826.865 622.485 827.571 622.128 828.318 621.95 829.106 621.942 830.461 621.95 831.622 622.453 832.588 623.45 833.538 624.456 834.017 625.746 834.025 627.335 834.017 628.382 833.79 629.355 833.343 630.247 832.889 631.147 832.272 631.837 831.484 632.307 830.697 632.786 829.804 633.013 828.805 633.021 827.092 633.013 825.704 632.396 824.633 631.147 823.561 629.898 823.025 627.83 823.025 624.951 823.025 621.739 823.618 619.403 824.811 617.927 825.842 616.662 827.239 616.021 829 616.021 830.307 616.021 831.379 616.394 832.223 617.124 833.051 617.87 833.554 618.884 833.733 620.165ZM825.38 627.343C825.371 628.057 825.526 628.73 825.826 629.363 826.118 630.012 826.532 630.498 827.076 630.839 827.612 631.18 828.18 631.35 828.773 631.342 829.633 631.35 830.372 631.001 830.997 630.296 831.614 629.606 831.923 628.657 831.931 627.457 831.923 626.305 831.622 625.405 831.013 624.74 830.396 624.083 829.617 623.75 828.692 623.742 827.766 623.75 826.987 624.083 826.346 624.74 825.696 625.405 825.371 626.273 825.38 627.343Z" fill-rule="evenodd"/><text font-family="Arial,Arial_MSFontService,sans-serif" font-weight="400" font-size="24" transform="matrix(-1.83697e-16 -1 1 -1.83697e-16 327.322 533)">Detection probability</text><text font-family="Arial,Arial_MSFontService,sans-serif" font-weight="400" font-size="24" transform="translate(491.534 658)">Wastewater concentration</text><text font-family="Arial,Arial_MSFontService,sans-serif" font-weight="400" font-size="24" transform="translate(548.921 687)">(log</text><text font-family="Arial,Arial_MSFontService,sans-serif" font-weight="400" font-size="16" transform="translate(588.921 692)">10</text><text font-family="Arial,Arial_MSFontService,sans-serif" font-weight="400" font-size="24" transform="translate(613.254 687)">copies/g)</text><text fill="#00B050" font-family="Arial,Arial_MSFontService,sans-serif" font-weight="700" font-size="21" transform="translate(782.039 277)">California</text><text fill="#0070C0" font-family="Arial,Arial_MSFontService,sans-serif" font-weight="700" font-size="21" transform="translate(784.208 318)">Colorado</text><text fill="#A0234E" font-family="Arial,Arial_MSFontService,sans-serif" font-weight="700" font-size="21" transform="translate(785.565 357)">Florida</text><path d="M742.334 375.166 801.67 375.166 801.67 403.746 742.334 403.746Z" fill="#FFFFFF" fill-rule="evenodd"/><path d="M801.67 375.166 1015.81 375.166 1015.81 403.746 801.67 403.746Z" fill="#FFFFFF" fill-rule="evenodd"/><path d="M1015.81 375.166 1166.12 375.166 1166.12 403.746 1015.81 403.746Z" fill="#FFFFFF" fill-rule="evenodd"/><path d="M742.334 403.746 801.67 403.746 801.67 460.908 742.334 460.908Z" fill="#FFFFFF" fill-rule="evenodd"/><path d="M801.67 403.746 1015.81 403.746 1015.81 460.908 801.67 460.908Z" fill="#FFFFFF" fill-rule="evenodd"/><path d="M1015.81 403.746 1166.12 403.746 1166.12 460.908 1015.81 460.908Z" fill="#FFFFFF" fill-rule="evenodd"/><path d="M742.334 460.908 801.67 460.908 801.67 518.069 742.334 518.069Z" fill="#FFFFFF" fill-rule="evenodd"/><path d="M801.67 460.908 1015.81 460.908 1015.81 518.069 801.67 518.069Z" fill="#FFFFFF" fill-rule="evenodd"/><path d="M1015.81 460.908 1166.12 460.908 1166.12 518.069 1015.81 518.069Z" fill="#FFFFFF" fill-rule="evenodd"/><path d="M742.334 518.069 801.67 518.069 801.67 575.23 742.334 575.23Z" fill="#FFFFFF" fill-rule="evenodd"/><path d="M801.67 518.069 1015.81 518.069 1015.81 575.23 801.67 575.23Z" fill="#FFFFFF" fill-rule="evenodd"/><path d="M1015.81 518.069 1166.12 518.069 1166.12 575.23 1015.81 575.23Z" fill="#FFFFFF" fill-rule="evenodd"/><path d="M801.67 374.499 801.67 575.897" stroke="#FFFFFF" stroke-width="1.33333" stroke-linejoin="round" stroke-miterlimit="10" fill="none" fill-rule="evenodd"/><path d="M1015.81 374.499 1015.81 575.897" stroke="#FFFFFF" stroke-width="1.33333" stroke-linejoin="round" stroke-miterlimit="10" fill="none" fill-rule="evenodd"/><path d="M741.667 403.746 1166.78 403.746" stroke="#000000" stroke-width="1.33333" stroke-linejoin="round" stroke-miterlimit="10" fill="none" fill-rule="evenodd"/><path d="M741.667 460.908 1166.78 460.908" stroke="#FFFFFF" stroke-width="1.33333" stroke-linejoin="round" stroke-miterlimit="10" fill="none" fill-rule="evenodd"/><path d="M741.667 518.069 1166.78 518.069" stroke="#FFFFFF" stroke-width="1.33333" stroke-linejoin="round" stroke-miterlimit="10" fill="none" fill-rule="evenodd"/><path d="M742.334 374.499 742.334 575.897" stroke="#FFFFFF" stroke-width="1.33333" stroke-linejoin="round" stroke-miterlimit="10" fill="none" fill-rule="evenodd"/><path d="M1166.12 374.499 1166.12 575.897" stroke="#FFFFFF" stroke-width="1.33333" stroke-linejoin="round" stroke-miterlimit="10" fill="none" fill-rule="evenodd"/><path d="M741.667 375.166 1166.78 375.166" stroke="#000000" stroke-width="1.33333" stroke-linejoin="round" stroke-miterlimit="10" fill="none" fill-rule="evenodd"/><path d="M741.667 575.23 1166.78 575.23" stroke="#000000" stroke-width="1.33333" stroke-linejoin="round" stroke-miterlimit="10" fill="none" fill-rule="evenodd"/><text font-family="Arial,Arial_MSFontService,sans-serif" font-weight="700" font-size="14" transform="translate(1083.3 389)">C</text><text font-family="Arial,Arial_MSFontService,sans-serif" font-weight="700" font-size="9" transform="translate(1093.46 392)">2</text><text font-family="Arial,Arial_MSFontService,sans-serif" font-weight="700" font-size="14" transform="translate(901.074 389)">C</text><text font-family="Arial,Arial_MSFontService,sans-serif" font-weight="700" font-size="9" transform="translate(911.241 392)">1</text><text font-family="Arial,Arial_MSFontService,sans-serif" font-weight="400" font-size="14" transform="translate(1077.3 418)">4.83</text><text font-family="Arial,Arial_MSFontService,sans-serif" font-weight="400" font-size="14" transform="translate(1051.96 434)">(3.13</text><text font-family="Arial,Arial_MSFontService,sans-serif" font-weight="400" font-size="14" transform="translate(1083.96 434)">—</text><text font-family="Arial,Arial_MSFontService,sans-serif" font-weight="400" font-size="14" transform="translate(1097.96 434)">7.17)</text><text font-family="Arial,Arial_MSFontService,sans-serif" font-weight="400" font-size="14" transform="translate(888.821 418)">-</text><text font-family="Arial,Arial_MSFontService,sans-serif" font-weight="400" font-size="14" transform="translate(893.488 418)">16.40</text><text font-family="Arial,Arial_MSFontService,sans-serif" font-weight="400" font-size="14" transform="translate(851.408 434)">(−</text><text font-family="Arial,Arial_MSFontService,sans-serif" font-weight="400" font-size="14" transform="translate(864.241 434)">-</text><text font-family="Arial,Arial_MSFontService,sans-serif" font-weight="400" font-size="14" transform="translate(868.908 434)">24.76</text><text font-family="Arial,Arial_MSFontService,sans-serif" font-weight="400" font-size="14" transform="translate(904.074 434)">—</text><text font-family="Arial,Arial_MSFontService,sans-serif" font-weight="400" font-size="14" transform="translate(918.074 434)">−10.31)</text><g><text font-family="Arial,Arial_MSFontService,sans-serif" font-weight="700" font-size="14" transform="translate(749.534 418)">CA</text></g><text font-family="Arial,Arial_MSFontService,sans-serif" font-weight="400" font-size="14" transform="translate(1077.3 475)">5.88</text><text font-family="Arial,Arial_MSFontService,sans-serif" font-weight="400" font-size="14" transform="translate(1051.96 491)">(4.15</text><text font-family="Arial,Arial_MSFontService,sans-serif" font-weight="400" font-size="14" transform="translate(1083.96 491)">—</text><text font-family="Arial,Arial_MSFontService,sans-serif" font-weight="400" font-size="14" transform="translate(1097.96 491)">8.33)</text><text font-family="Arial,Arial_MSFontService,sans-serif" font-weight="400" font-size="14" transform="translate(887.074 475)">−22.85</text><text font-family="Arial,Arial_MSFontService,sans-serif" font-weight="400" font-size="14" transform="translate(853.741 491)">(−32.57</text><text font-family="Arial,Arial_MSFontService,sans-serif" font-weight="400" font-size="14" transform="translate(901.741 491)">—</text><text font-family="Arial,Arial_MSFontService,sans-serif" font-weight="400" font-size="14" transform="translate(915.741 491)">−15.95)</text><g><text font-family="Arial,Arial_MSFontService,sans-serif" font-weight="700" font-size="14" transform="translate(749.534 475)">CO</text></g><text font-family="Arial,Arial_MSFontService,sans-serif" font-weight="400" font-size="14" transform="translate(1077.3 532)">6.02</text><text font-family="Arial,Arial_MSFontService,sans-serif" font-weight="400" font-size="14" transform="translate(1051.96 548)">(4.19</text><text font-family="Arial,Arial_MSFontService,sans-serif" font-weight="400" font-size="14" transform="translate(1083.96 548)">—</text><text font-family="Arial,Arial_MSFontService,sans-serif" font-weight="400" font-size="14" transform="translate(1097.96 548)">8.42)</text><text font-family="Arial,Arial_MSFontService,sans-serif" font-weight="400" font-size="14" transform="translate(887.074 532)">−22.29</text><text font-family="Arial,Arial_MSFontService,sans-serif" font-weight="400" font-size="14" transform="translate(853.741 548)">(−31.70</text><text font-family="Arial,Arial_MSFontService,sans-serif" font-weight="400" font-size="14" transform="translate(901.741 548)">—</text><text font-family="Arial,Arial_MSFontService,sans-serif" font-weight="400" font-size="14" transform="translate(915.741 548)">−15.19)</text><g><text font-family="Arial,Arial_MSFontService,sans-serif" font-weight="700" font-size="14" transform="translate(749.534 532)">FL</text></g><path d="M40.5001 138.5 1249.95 138.5" stroke="#4B5E68" stroke-miterlimit="8" stroke-dasharray="8 3" fill="none" fill-rule="evenodd"/><text fill="#4B5E68" font-family="Arial,Arial_MSFontService,sans-serif" font-weight="700" font-size="32" transform="translate(286.171 82)">Different</text><text fill="#4B5E68" font-family="Arial,Arial_MSFontService,sans-serif" font-weight="700" font-size="32" transform="translate(426.671 82)">logistic curves</text><text fill="#4B5E68" font-family="Arial,Arial_MSFontService,sans-serif" font-weight="700" font-size="32" transform="translate(659.505 82)">across</text><text fill="#4B5E68" font-family="Arial,Arial_MSFontService,sans-serif" font-weight="700" font-size="32" transform="translate(771.671 82)">the</text><text fill="#4B5E68" font-family="Arial,Arial_MSFontService,sans-serif" font-weight="700" font-size="32" transform="translate(828.505 82)">region</text><text fill="#4B5E68" font-family="Arial,Arial_MSFontService,sans-serif" font-weight="700" font-size="32" transform="translate(926.171 82)">s</text><text fill="#4B5E68" font-family="Arial,Arial_MSFontService,sans-serif" font-weight="400" font-size="24" transform="translate(75.2398 171)">In the analysis, we standardized sampling frequency was consistent across states (i.e., 3 days sampling) and</text><text fill="#4B5E68" font-family="Arial,Arial_MSFontService,sans-serif" font-weight="400" font-size="24" transform="translate(75.2398 200)">the number of WWTPs included in the analysis (i.e., 2 WWTP in each state)</text><text fill="#4B5E68" font-family="Arial,Arial_MSFontService,sans-serif" font-weight="400" font-size="24" transform="translate(211.2 122)">Logistic curve obtained from a regions should not be applied to another region</text></g></svg>