<svg width="1282" height="723" xmlns="http://www.w3.org/2000/svg" xmlns:xlink="http://www.w3.org/1999/xlink" overflow="hidden"><g transform="translate(1 2)"><rect x="0" y="0" width="1280" height="720" fill="#FFFFFF"/><rect x="0.500053" y="0.500053" width="321" height="37" stroke="#7F7F7F" stroke-width="1.33333" stroke-miterlimit="8" fill="#D9D9D9"/><text fill="#A6A6A6" font-family="Arial,Arial_MSFontService,sans-serif" font-weight="700" font-size="21" transform="translate(98.3799 27)">Introduction</text><rect x="320.5" y="0.500053" width="321" height="37" stroke="#7F7F7F" stroke-width="1.33333" stroke-miterlimit="8" fill="#D9D9D9"/><text fill="#A6A6A6" font-family="Arial,Arial_MSFontService,sans-serif" font-weight="700" font-size="21" transform="translate(376.718 27)">Materials &amp; Methods</text><rect x="639.5" y="0.500053" width="321" height="37" stroke="#7F7F7F" stroke-width="1.33333" stroke-miterlimit="8" fill="#4B5E68"/><text fill="#FFFFFF" font-family="Arial,Arial_MSFontService,sans-serif" font-weight="700" font-size="21" transform="translate(690.449 27)">Results &amp; Discussion</text><rect x="959.5" y="0.500053" width="321" height="37" stroke="#7F7F7F" stroke-width="1.33333" stroke-miterlimit="8" fill="#D9D9D9"/><text fill="#A6A6A6" font-family="Arial,Arial_MSFontService,sans-serif" font-weight="700" font-size="21" transform="translate(1061.32 27)">Conclusion</text><text fill="#4B5E68" font-family="Arial,Arial_MSFontService,sans-serif" font-weight="700" font-size="37" transform="translate(285.023 88)">Real</text><text fill="#4B5E68" font-family="Arial,Arial_MSFontService,sans-serif" font-weight="700" font-size="37" transform="translate(364.023 88)">-</text><text fill="#4B5E68" font-family="Arial,Arial_MSFontService,sans-serif" font-weight="700" font-size="37" transform="translate(376.523 88)">world application to estimate</text><text fill="#4B5E68" font-family="Arial,Arial_MSFontService,sans-serif" font-style="italic" font-weight="700" font-size="37" transform="translate(901.857 88)">R</text><text fill="#4B5E68" font-family="Arial,Arial_MSFontService,sans-serif" font-weight="700" font-size="25" transform="translate(928.857 77)">eff</text><text fill="#4B5E68" font-family="Arial,Arial_MSFontService,sans-serif" font-weight="700" font-size="37" transform="translate(959.357 88)">(t)</text><path d="M75.5001 164.5 1205.58 164.5" stroke="#4B5E68" stroke-miterlimit="8" stroke-dasharray="8 3" fill="none" fill-rule="evenodd"/><text fill="#4B5E68" font-family="Arial,Arial_MSFontService,sans-serif" font-weight="400" font-size="24" transform="translate(118.104 138)">The model potentially may help avoid overestimation of</text><text fill="#4B5E68" font-family="Arial,Arial_MSFontService,sans-serif" font-style="italic" font-weight="400" font-size="24" transform="translate(710.104 138)">R</text><text fill="#4B5E68" font-family="Arial,Arial_MSFontService,sans-serif" font-weight="400" font-size="16" transform="translate(727.437 131)">eff</text><text fill="#4B5E68" font-family="Arial,Arial_MSFontService,sans-serif" font-weight="400" font-size="24" transform="translate(744.984 138)">(t) during the exponential growth phase</text><rect x="20" y="193" width="458" height="503" fill="#F2F2F2"/><text fill="#4B5E68" font-family="Arial,Arial_MSFontService,sans-serif" font-weight="700" font-size="24" transform="translate(73.0167 216)">1. Model fitting</text><path d="M499.5 221.5 499.5 675.043" stroke="#5F696E" stroke-width="1.33333" stroke-miterlimit="8" stroke-dasharray="5.33333 4" fill="none" fill-rule="evenodd"/><text fill="#4B5E68" font-family="Arial,Arial_MSFontService,sans-serif" font-weight="400" font-size="21" transform="translate(61.0673 274)">1.0</text><text fill="#4B5E68" font-family="Arial,Arial_MSFontService,sans-serif" font-weight="400" font-size="21" transform="translate(61.0673 312)">0.8</text><text fill="#4B5E68" font-family="Arial,Arial_MSFontService,sans-serif" font-weight="400" font-size="21" transform="translate(61.0673 349)">0.6</text><text fill="#4B5E68" font-family="Arial,Arial_MSFontService,sans-serif" font-weight="400" font-size="21" transform="translate(61.0673 384)">0.4</text><text fill="#4B5E68" font-family="Arial,Arial_MSFontService,sans-serif" font-weight="400" font-size="21" transform="translate(61.0673 422)">0.2</text><text fill="#4B5E68" font-family="Arial,Arial_MSFontService,sans-serif" font-weight="400" font-size="21" transform="translate(61.0673 457)">0.0</text><text fill="#4B5E68" font-family="Arial,Arial_MSFontService,sans-serif" font-weight="400" font-size="21" transform="translate(166.31 683)">Jan</text><text fill="#4B5E68" font-family="Arial,Arial_MSFontService,sans-serif" font-weight="400" font-size="21" transform="translate(266.635 683)">Feb</text><text fill="#4B5E68" font-family="Arial,Arial_MSFontService,sans-serif" font-weight="400" font-size="21" transform="translate(361.902 683)">Mar</text><path d="M107.5 428.5 451.5 428.5" stroke="#EBEBEB" stroke-width="0.711706" stroke-linejoin="round" stroke-miterlimit="10" fill="none" fill-rule="evenodd"/><path d="M107.5 391.5 451.5 391.5" stroke="#EBEBEB" stroke-width="0.711706" stroke-linejoin="round" stroke-miterlimit="10" fill="none" fill-rule="evenodd"/><path d="M107.5 355.5 451.5 355.5" stroke="#EBEBEB" stroke-width="0.711706" stroke-linejoin="round" stroke-miterlimit="10" fill="none" fill-rule="evenodd"/><path d="M107.5 319.5 451.5 319.5" stroke="#EBEBEB" stroke-width="0.711706" stroke-linejoin="round" stroke-miterlimit="10" fill="none" fill-rule="evenodd"/><path d="M107.5 283.5 451.5 283.5" stroke="#EBEBEB" stroke-width="0.711706" stroke-linejoin="round" stroke-miterlimit="10" fill="none" fill-rule="evenodd"/><path d="M128.5 455.5 128.5 250.5" stroke="#EBEBEB" stroke-width="0.711706" stroke-linejoin="round" stroke-miterlimit="10" fill="none" fill-rule="evenodd"/><path d="M236.5 455.5 236.5 250.5" stroke="#EBEBEB" stroke-width="0.711706" stroke-linejoin="round" stroke-miterlimit="10" fill="none" fill-rule="evenodd"/><path d="M338.5 455.5 338.5 250.5" stroke="#EBEBEB" stroke-width="0.711706" stroke-linejoin="round" stroke-miterlimit="10" fill="none" fill-rule="evenodd"/><path d="M441.5 455.5 441.5 250.5" stroke="#EBEBEB" stroke-width="0.711706" stroke-linejoin="round" stroke-miterlimit="10" fill="none" fill-rule="evenodd"/><path d="M107.5 446.5 451.5 446.5" stroke="#EBEBEB" stroke-width="1.42341" stroke-linejoin="round" stroke-miterlimit="10" fill="none" fill-rule="evenodd"/><path d="M107.5 409.5 451.5 409.5" stroke="#EBEBEB" stroke-width="1.42341" stroke-linejoin="round" stroke-miterlimit="10" fill="none" fill-rule="evenodd"/><path d="M107.5 373.5 451.5 373.5" stroke="#EBEBEB" stroke-width="1.42341" stroke-linejoin="round" stroke-miterlimit="10" fill="none" fill-rule="evenodd"/><path d="M107.5 337.5 451.5 337.5" stroke="#EBEBEB" stroke-width="1.42341" stroke-linejoin="round" stroke-miterlimit="10" fill="none" fill-rule="evenodd"/><path d="M107.5 301.5 451.5 301.5" stroke="#EBEBEB" stroke-width="1.42341" stroke-linejoin="round" stroke-miterlimit="10" fill="none" fill-rule="evenodd"/><path d="M107.5 265.5 451.5 265.5" stroke="#EBEBEB" stroke-width="1.42341" stroke-linejoin="round" stroke-miterlimit="10" fill="none" fill-rule="evenodd"/><path d="M182.5 455.5 182.5 250.5" stroke="#EBEBEB" stroke-width="1.42341" stroke-linejoin="round" stroke-miterlimit="10" fill="none" fill-rule="evenodd"/><path d="M290.5 455.5 290.5 250.5" stroke="#EBEBEB" stroke-width="1.42341" stroke-linejoin="round" stroke-miterlimit="10" fill="none" fill-rule="evenodd"/><path d="M387.5 455.5 387.5 250.5" stroke="#EBEBEB" stroke-width="1.42341" stroke-linejoin="round" stroke-miterlimit="10" fill="none" fill-rule="evenodd"/><path d="M122 318.743 125.492 310.113 128.983 389.651 132.469 329.176 135.96 303.948 139.446 315.203 142.937 284.417 146.422 311.439 149.914 275.979 153.406 335.966 156.891 278.974 160.383 272.949 163.868 306.043 167.36 275.86 170.845 269.684 174.337 267.994 177.822 266.819 181.314 266.274 184.805 265.863 188.29 265.582 191.782 275.08 195.267 282.805 198.759 269.2 202.244 281.245 205.736 269.294 209.228 267.812 212.713 267.157 216.205 269.59 219.69 279.218 223.181 268.759 226.667 265.65 230.158 265.634 233.644 265.494 237.135 265.104 240.627 265.062 244.112 265.068 247.604 265.016 251.089 265.073 254.581 265.016 258.066 265.005 261.558 265.021 265.049 265.005 268.535 265.01 272.026 265 275.512 265.016 279.003 265 282.489 265 285.98 265.005 289.472 265 292.957 265.005 296.449 265 299.934 265.016 303.426 265.005 306.911 265 310.403 265.01 313.888 265.005 317.38 265.016 320.871 265.031 324.357 265.01 327.848 265.005 338.31 265.005 341.802 265.026 345.294 265.01 348.779 265.016 352.271 265.005 355.756 265.005 359.248 265.042 362.733 265.016 366.224 265.01 369.71 265.062 373.201 265.062 376.693 265.047 380.178 265.036 383.67 265.036 387.155 265.026 390.647 265.042 394.132 265.026 397.624 265.031 401.116 265.016 404.601 265.01 408.092 265.062 411.578 265.036 415.069 265.125 418.554 265.083 422.046 265.094 425.538 265.068 429.023 265.057 432.515 265.166 436 265.114 436 268.166 432.515 267.23 429.023 267.147 425.538 266.586 422.046 266.175 418.554 266.991 415.069 266.456 411.578 266.107 408.092 265.811 404.601 265.629 401.116 265.504 397.624 265.39 394.132 265.738 390.647 265.546 387.155 265.78 383.67 265.582 380.178 266.991 376.693 266.44 373.201 266.014 369.71 268.311 366.224 265.972 362.733 265.717 359.248 265.546 355.756 265.369 352.271 265.286 348.779 265.234 345.294 265.379 341.802 265.302 338.31 265.25 334.825 265.192 331.333 265.525 327.848 265.421 324.357 265.354 320.871 265.275 317.38 265.229 313.888 265.26 310.403 265.208 306.911 265.275 303.426 265.255 299.934 265.229 296.449 265.177 292.957 265.151 289.472 265.198 285.98 265.177 282.489 265.255 279.003 265.281 275.512 265.26 272.026 265.25 268.535 265.234 265.049 265.395 261.558 265.395 258.066 266.019 254.581 266.055 251.089 266.045 247.604 266.305 244.112 266.076 240.627 268.01 237.135 267.293 233.644 294.907 230.158 284.9 226.667 279.275 223.181 392.12 219.69 375.62 216.205 365.098 212.713 420.297 209.228 413.351 205.736 404.514 202.244 394.491 198.759 403.417 195.267 391.33 191.782 396.513 188.29 431.011 184.805 428.625 181.314 424.783 177.822 417.879 174.337 410.284 170.845 401.285 167.36 388.201 163.868 429.103 160.383 442.728 156.891 440.919 153.406 437.956 149.914 435.887 146.422 429.851 142.937 439.672 139.446 436.391 135.96 445 132.469 444.626 128.983 444.064 125.492 441.782 122 439.38Z" fill="#0570B0" fill-rule="evenodd" fill-opacity="0.2"/><path d="M122 367.012 125.492 357.972 128.983 383.826 132.469 373.029 135.96 362.747 139.446 342.312 142.937 328.426 146.422 326.455 149.914 312.937 153.406 333.814 156.891 321.716 160.383 309.832 163.868 318.065 167.36 297.865 170.845 288.638 174.337 281.393 177.822 276.161 181.314 272.375 184.805 269.587 188.29 267.845 191.782 278.127 195.267 285.955 198.759 282.2 202.244 286.979 205.736 283.006 209.228 279.661 212.713 276.551 216.205 276 219.69 282.865 223.181 279.526 226.667 267.502 230.158 266.649 233.644 266.071 237.135 265.489 240.627 265.208 244.112 265.088 247.604 265.031 251.089 265.047 254.581 265.021 258.066 265.005 261.558 265.016 265.049 265.005 268.535 265.005 272.026 265 275.512 265.01 279.003 265 282.489 265 285.98 265.005 289.472 265 292.957 265.005 296.449 265 299.934 265.01 303.426 265.005 306.911 265 310.403 265.01 313.888 265.005 317.38 265.01 320.871 265.026 324.357 265.021 327.848 265.016 331.333 265.016 334.825 265.01 338.31 265.005 341.802 265.016 348.779 265.016 352.271 265.01 355.756 265.005 359.248 265.031 362.733 265.031 366.224 265.026 369.71 265.057 373.201 265.062 376.693 265.062 380.178 265.057 383.67 265.042 387.155 265.036 390.647 265.042 394.132 265.036 401.116 265.026 404.601 265.016 408.092 265.052 411.578 265.047 415.069 265.114 418.554 265.109 422.046 265.109 425.538 265.099 429.023 265.094 432.515 265.177 436 265.166 436 267.491 432.515 266.924 429.023 266.675 425.538 266.316 422.046 266.051 418.554 266.363 415.069 266.092 411.578 265.775 408.092 265.655 404.601 265.468 401.116 265.411 397.624 265.364 394.132 265.593 390.647 265.499 387.155 265.686 383.67 265.572 380.178 266.43 376.693 266.129 373.201 265.874 369.71 266.654 366.224 265.65 362.733 265.52 359.248 265.421 355.756 265.291 352.271 265.244 348.779 265.213 345.294 265.307 341.802 265.265 338.31 265.234 334.825 265.203 331.333 265.432 327.848 265.343 324.357 265.286 320.871 265.239 317.38 265.198 313.888 265.187 310.403 265.166 306.911 265.156 303.426 265.14 299.934 265.135 296.449 265.104 292.957 265.104 289.472 265.12 285.98 265.125 282.489 265.135 279.003 265.146 275.512 265.166 272.026 265.14 268.535 265.166 265.049 265.208 261.558 265.255 258.066 265.328 254.581 265.426 251.089 265.551 247.604 265.609 244.112 265.863 240.627 267.262 237.135 268.079 233.644 286.906 230.158 288.664 226.667 290.667 223.181 376.425 219.69 370.496 216.205 365.992 212.713 396.87 209.228 391.862 205.736 385.798 202.244 380.758 198.759 386.817 195.267 381.039 191.782 388.627 188.29 406.908 184.805 404.391 181.314 400.163 177.822 396.158 174.337 395.164 170.845 392.964 167.36 390.125 163.868 423.255 160.383 435.217 156.891 432.715 153.406 429.974 149.914 428.237 146.422 425.377 142.937 436.98 139.446 434.661 135.96 445 132.469 444.714 128.983 444.132 125.492 441.978 122 440.376Z" fill="#BEBEBE" fill-rule="evenodd" fill-opacity="0.2"/><path d="M122.5 417.296 125.992 416.605 129.483 429.5 132.969 428.767 136.46 428.273 139.946 398.473 143.437 395.312 146.923 381.257 150.414 375.267 153.906 390.268 157.391 387.2 160.883 382.812 164.368 375.454 167.86 339.81 171.345 332.566 174.837 325.12 178.322 318.512 181.814 312.194 185.305 306.136 188.79 300.931 192.282 321.163 195.767 327.06 199.259 324.252 202.744 328.24 206.236 325.812 209.728 323.493 213.213 321.548 216.705 307.868 220.19 317.602 223.682 316.239 227.167 274.761 230.658 272.457 234.144 270.835 237.635 266.207 241.127 265.958 244.612 265.718 248.104 265.62 251.589 265.64 255.081 265.583 258.566 265.542 262.058 265.536 265.55 265.516 269.035 265.516 272.526 265.5 276.012 265.521 279.503 265.51 282.989 265.5 286.48 265.505 289.972 265.5 293.457 265.505 296.949 265.5 300.434 265.521 303.926 265.516 307.411 265.51 310.903 265.526 314.388 265.521 317.88 265.536 321.371 265.557 324.857 265.562 328.348 265.568 331.833 265.573 335.325 265.526 338.81 265.526 342.302 265.552 345.794 265.557 349.279 265.536 356.256 265.536 359.748 265.604 363.233 265.614 366.725 265.625 370.21 265.802 373.701 265.718 377.193 265.75 380.678 265.781 384.17 265.64 387.655 265.646 391.147 265.63 394.632 265.63 398.124 265.588 401.616 265.583 405.101 265.578 408.593 265.677 412.078 265.687 415.569 265.848 419.055 265.89 422.546 265.822 426.038 265.854 429.523 265.88 433.015 266.088 436.5 266.16" stroke="#4D4D4D" stroke-width="3" stroke-linejoin="round" stroke-miterlimit="10" fill="none" fill-rule="evenodd"/><path d="M122.5 396.944 125.992 413.026 129.483 433.933 132.969 437.488 136.46 439.5 139.946 390.976 143.437 397.531 146.923 384.084 150.414 383.314 153.906 405.848 157.391 402.776 160.883 393.211 164.368 375.787 167.86 324.509 171.345 319.596 174.837 312.74 178.322 305.141 181.814 297.109 185.305 290.913 188.79 286.214 192.282 320.922 195.767 328.854 199.259 322.372 202.744 329.904 206.236 322.471 209.728 315.006 213.213 308.826 216.705 298.736 220.19 318.094 223.682 315.505 227.167 268.764 230.658 269.986 234.144 271.202 237.635 265.963 241.127 265.947 244.612 265.744 248.104 265.677 251.589 265.713 255.081 265.63 258.566 265.583 262.058 265.568 265.55 265.542 269.035 265.536 272.526 265.521 276.012 265.542 279.503 265.521 282.989 265.5 286.48 265.521 289.972 265.51 293.457 265.516 296.949 265.51 300.434 265.531 303.926 265.521 307.411 265.516 310.903 265.531 314.388 265.526 317.88 265.536 321.371 265.557 331.833 265.557 335.325 265.526 338.81 265.526 342.302 265.557 345.794 265.557 349.279 265.536 352.771 265.536 356.256 265.542 359.748 265.614 363.233 265.62 366.725 265.625 370.21 265.978 373.701 265.729 377.193 265.77 380.678 265.802 384.17 265.62 387.655 265.635 391.147 265.625 394.632 265.635 398.124 265.583 401.616 265.588 405.101 265.588 408.593 265.703 412.078 265.708 415.569 265.9 419.055 265.932 422.546 265.802 426.038 265.833 429.523 265.869 433.015 266.098 436.5 266.155" stroke="#0570B0" stroke-width="3" stroke-linejoin="round" stroke-miterlimit="10" fill="none" fill-rule="evenodd"/><path d="M125.5 374.002C125.5 375.999 120.5 375.999 120.5 374.002 120.5 371.999 125.5 371.999 125.5 374.002" stroke="#0570B0" stroke-width="0.945407" stroke-linecap="round" stroke-linejoin="round" stroke-miterlimit="10" fill="#0570B0" fill-rule="evenodd"/><path d="M131.5 446.002C131.5 447.999 127.5 447.999 127.5 446.002 127.5 443.999 131.5 443.999 131.5 446.002" stroke="#0570B0" stroke-width="0.945407" stroke-linecap="round" stroke-linejoin="round" stroke-miterlimit="10" fill="#0570B0" fill-rule="evenodd"/><path d="M142.5 374.002C142.5 375.999 138.5 375.999 138.5 374.002 138.5 371.999 142.5 371.999 142.5 374.002" stroke="#0570B0" stroke-width="0.945407" stroke-linecap="round" stroke-linejoin="round" stroke-miterlimit="10" fill="#0570B0" fill-rule="evenodd"/><path d="M149.5 374.002C149.5 375.999 145.5 375.999 145.5 374.002 145.5 371.999 149.5 371.999 149.5 374.002" stroke="#0570B0" stroke-width="0.945407" stroke-linecap="round" stroke-linejoin="round" stroke-miterlimit="10" fill="#0570B0" fill-rule="evenodd"/><path d="M156.5 410C156.5 412 152.5 412 152.5 410 152.5 408 156.5 408 156.5 410" stroke="#0570B0" stroke-width="0.945407" stroke-linecap="round" stroke-linejoin="round" stroke-miterlimit="10" fill="#0570B0" fill-rule="evenodd"/><path d="M166.5 374.002C166.5 375.999 162.5 375.999 162.5 374.002 162.5 371.999 166.5 371.999 166.5 374.002" stroke="#0570B0" stroke-width="0.945407" stroke-linecap="round" stroke-linejoin="round" stroke-miterlimit="10" fill="#0570B0" fill-rule="evenodd"/><path d="M170.5 301.502C170.5 304.166 166.5 304.166 166.5 301.502 166.5 298.833 170.5 298.833 170.5 301.502" stroke="#0570B0" stroke-width="0.945407" stroke-linecap="round" stroke-linejoin="round" stroke-miterlimit="10" fill="#0570B0" fill-rule="evenodd"/><path d="M194.5 338C194.5 340 190.5 340 190.5 338 190.5 336 194.5 336 194.5 338" stroke="#0570B0" stroke-width="0.945407" stroke-linecap="round" stroke-linejoin="round" stroke-miterlimit="10" fill="#0570B0" fill-rule="evenodd"/><path d="M198.5 338C198.5 340 194.5 340 194.5 338 194.5 336 198.5 336 198.5 338" stroke="#0570B0" stroke-width="0.945407" stroke-linecap="round" stroke-linejoin="round" stroke-miterlimit="10" fill="#0570B0" fill-rule="evenodd"/><path d="M205.5 338C205.5 340 201.5 340 201.5 338 201.5 336 205.5 336 205.5 338" stroke="#0570B0" stroke-width="0.945407" stroke-linecap="round" stroke-linejoin="round" stroke-miterlimit="10" fill="#0570B0" fill-rule="evenodd"/><path d="M219.5 301.502C219.5 304.166 214.5 304.166 214.5 301.502 214.5 298.833 219.5 298.833 219.5 301.502" stroke="#0570B0" stroke-width="0.945407" stroke-linecap="round" stroke-linejoin="round" stroke-miterlimit="10" fill="#0570B0" fill-rule="evenodd"/><path d="M222.5 338C222.5 340 218.5 340 218.5 338 218.5 336 222.5 336 222.5 338" stroke="#0570B0" stroke-width="0.945407" stroke-linecap="round" stroke-linejoin="round" stroke-miterlimit="10" fill="#0570B0" fill-rule="evenodd"/><path d="M229.5 265C229.5 267 225.5 267 225.5 265 225.5 263 229.5 263 229.5 265" stroke="#0570B0" stroke-width="0.945407" stroke-linecap="round" stroke-linejoin="round" stroke-miterlimit="10" fill="#0570B0" fill-rule="evenodd"/><path d="M239.5 265C239.5 267 235.5 267 235.5 265 235.5 263 239.5 263 239.5 265" stroke="#0570B0" stroke-width="0.945407" stroke-linecap="round" stroke-linejoin="round" stroke-miterlimit="10" fill="#0570B0" fill-rule="evenodd"/><path d="M246.5 265C246.5 267 242.5 267 242.5 265 242.5 263 246.5 263 246.5 265" stroke="#0570B0" stroke-width="0.945407" stroke-linecap="round" stroke-linejoin="round" stroke-miterlimit="10" fill="#0570B0" fill-rule="evenodd"/><path d="M253.5 265C253.5 267 249.5 267 249.5 265 249.5 263 253.5 263 253.5 265" stroke="#0570B0" stroke-width="0.945407" stroke-linecap="round" stroke-linejoin="round" stroke-miterlimit="10" fill="#0570B0" fill-rule="evenodd"/><path d="M264.5 265C264.5 267 260.5 267 260.5 265 260.5 263 264.5 263 264.5 265" stroke="#0570B0" stroke-width="0.945407" stroke-linecap="round" stroke-linejoin="round" stroke-miterlimit="10" fill="#0570B0" fill-rule="evenodd"/><path d="M271.5 265C271.5 267 267.5 267 267.5 265 267.5 263 271.5 263 271.5 265" stroke="#0570B0" stroke-width="0.945407" stroke-linecap="round" stroke-linejoin="round" stroke-miterlimit="10" fill="#0570B0" fill-rule="evenodd"/><path d="M278.5 265C278.5 267 274.5 267 274.5 265 274.5 263 278.5 263 278.5 265" stroke="#0570B0" stroke-width="0.945407" stroke-linecap="round" stroke-linejoin="round" stroke-miterlimit="10" fill="#0570B0" fill-rule="evenodd"/><path d="M288.5 265C288.5 267 284.5 267 284.5 265 284.5 263 288.5 263 288.5 265" stroke="#0570B0" stroke-width="0.945407" stroke-linecap="round" stroke-linejoin="round" stroke-miterlimit="10" fill="#0570B0" fill-rule="evenodd"/><path d="M295.5 265C295.5 267 291.5 267 291.5 265 291.5 263 295.5 263 295.5 265" stroke="#0570B0" stroke-width="0.945407" stroke-linecap="round" stroke-linejoin="round" stroke-miterlimit="10" fill="#0570B0" fill-rule="evenodd"/><path d="M302.5 265C302.5 267 298.5 267 298.5 265 298.5 263 302.5 263 302.5 265" stroke="#0570B0" stroke-width="0.945407" stroke-linecap="round" stroke-linejoin="round" stroke-miterlimit="10" fill="#0570B0" fill-rule="evenodd"/><path d="M312.5 265C312.5 267 308.5 267 308.5 265 308.5 263 312.5 263 312.5 265" stroke="#0570B0" stroke-width="0.945407" stroke-linecap="round" stroke-linejoin="round" stroke-miterlimit="10" fill="#0570B0" fill-rule="evenodd"/><path d="M319.5 265C319.5 267 315.5 267 315.5 265 315.5 263 319.5 263 319.5 265" stroke="#0570B0" stroke-width="0.945407" stroke-linecap="round" stroke-linejoin="round" stroke-miterlimit="10" fill="#0570B0" fill-rule="evenodd"/><path d="M323.5 265C323.5 267 319.5 267 319.5 265 319.5 263 323.5 263 323.5 265" stroke="#0570B0" stroke-width="0.945407" stroke-linecap="round" stroke-linejoin="round" stroke-miterlimit="10" fill="#0570B0" fill-rule="evenodd"/><path d="M337.5 265C337.5 267 333.5 267 333.5 265 333.5 263 337.5 263 337.5 265" stroke="#0570B0" stroke-width="0.945407" stroke-linecap="round" stroke-linejoin="round" stroke-miterlimit="10" fill="#0570B0" fill-rule="evenodd"/><path d="M344.5 265C344.5 267 340.5 267 340.5 265 340.5 263 344.5 263 344.5 265" stroke="#0570B0" stroke-width="0.945407" stroke-linecap="round" stroke-linejoin="round" stroke-miterlimit="10" fill="#0570B0" fill-rule="evenodd"/><path d="M351.5 265C351.5 267 347.5 267 347.5 265 347.5 263 351.5 263 351.5 265" stroke="#0570B0" stroke-width="0.945407" stroke-linecap="round" stroke-linejoin="round" stroke-miterlimit="10" fill="#0570B0" fill-rule="evenodd"/><path d="M361.5 265C361.5 267 357.5 267 357.5 265 357.5 263 361.5 263 361.5 265" stroke="#0570B0" stroke-width="0.945407" stroke-linecap="round" stroke-linejoin="round" stroke-miterlimit="10" fill="#0570B0" fill-rule="evenodd"/><path d="M372.5 301.502C372.5 304.166 368.5 304.166 368.5 301.502 368.5 298.833 372.5 298.833 372.5 301.502" stroke="#0570B0" stroke-width="0.945407" stroke-linecap="round" stroke-linejoin="round" stroke-miterlimit="10" fill="#0570B0" fill-rule="evenodd"/><path d="M375.5 265C375.5 267 371.5 267 371.5 265 371.5 263 375.5 263 375.5 265" stroke="#0570B0" stroke-width="0.945407" stroke-linecap="round" stroke-linejoin="round" stroke-miterlimit="10" fill="#0570B0" fill-rule="evenodd"/><path d="M386.5 265C386.5 267 382.5 267 382.5 265 382.5 263 386.5 263 386.5 265" stroke="#0570B0" stroke-width="0.945407" stroke-linecap="round" stroke-linejoin="round" stroke-miterlimit="10" fill="#0570B0" fill-rule="evenodd"/><path d="M393.5 265C393.5 267 389.5 267 389.5 265 389.5 263 393.5 263 393.5 265" stroke="#0570B0" stroke-width="0.945407" stroke-linecap="round" stroke-linejoin="round" stroke-miterlimit="10" fill="#0570B0" fill-rule="evenodd"/><path d="M400.5 265C400.5 267 395.5 267 395.5 265 395.5 263 400.5 263 400.5 265" stroke="#0570B0" stroke-width="0.945407" stroke-linecap="round" stroke-linejoin="round" stroke-miterlimit="10" fill="#0570B0" fill-rule="evenodd"/><path d="M410.5 265C410.5 267 406.5 267 406.5 265 406.5 263 410.5 263 410.5 265" stroke="#0570B0" stroke-width="0.945407" stroke-linecap="round" stroke-linejoin="round" stroke-miterlimit="10" fill="#0570B0" fill-rule="evenodd"/><path d="M417.5 265C417.5 267 413.5 267 413.5 265 413.5 263 417.5 263 417.5 265" stroke="#0570B0" stroke-width="0.945407" stroke-linecap="round" stroke-linejoin="round" stroke-miterlimit="10" fill="#0570B0" fill-rule="evenodd"/><path d="M424.5 265C424.5 267 420.5 267 420.5 265 420.5 263 424.5 263 424.5 265" stroke="#0570B0" stroke-width="0.945407" stroke-linecap="round" stroke-linejoin="round" stroke-miterlimit="10" fill="#0570B0" fill-rule="evenodd"/><path d="M434.5 265C434.5 267 430.5 267 430.5 265 430.5 263 434.5 263 434.5 265" stroke="#0570B0" stroke-width="0.945407" stroke-linecap="round" stroke-linejoin="round" stroke-miterlimit="10" fill="#0570B0" fill-rule="evenodd"/><path d="M107.5 455.5 107.5 250.5" stroke="#000000" stroke-width="1.42341" stroke-linecap="square" stroke-linejoin="round" stroke-miterlimit="10" fill="none" fill-rule="evenodd"/><path d="M116.5 446.5 107.5 446.5" stroke="#000000" stroke-width="1.42341" stroke-linejoin="round" stroke-miterlimit="10" fill="none" fill-rule="evenodd"/><path d="M116.5 409.5 107.5 409.5" stroke="#000000" stroke-width="1.42341" stroke-linejoin="round" stroke-miterlimit="10" fill="none" fill-rule="evenodd"/><path d="M116.5 373.5 107.5 373.5" stroke="#000000" stroke-width="1.42341" stroke-linejoin="round" stroke-miterlimit="10" fill="none" fill-rule="evenodd"/><path d="M116.5 337.5 107.5 337.5" stroke="#000000" stroke-width="1.42341" stroke-linejoin="round" stroke-miterlimit="10" fill="none" fill-rule="evenodd"/><path d="M116.5 301.5 107.5 301.5" stroke="#000000" stroke-width="1.42341" stroke-linejoin="round" stroke-miterlimit="10" fill="none" fill-rule="evenodd"/><path d="M116.5 265.5 107.5 265.5" stroke="#000000" stroke-width="1.42341" stroke-linejoin="round" stroke-miterlimit="10" fill="none" fill-rule="evenodd"/><text fill="#4B5E68" font-family="Arial,Arial_MSFontService,sans-serif" font-weight="400" font-size="21" transform="translate(121.995 250)">(1) Detection rate</text><text fill="#4B5E68" font-family="Arial,Arial_MSFontService,sans-serif" font-weight="400" font-size="21" transform="translate(56.772 554)">10</text><text fill="#4B5E68" font-family="Arial,Arial_MSFontService,sans-serif" font-weight="400" font-size="14" transform="translate(80.4387 548)">3</text><text fill="#4B5E68" font-family="Arial,Arial_MSFontService,sans-serif" font-weight="400" font-size="21" transform="translate(56.772 613)">10</text><text fill="#4B5E68" font-family="Arial,Arial_MSFontService,sans-serif" font-weight="400" font-size="14" transform="translate(80.4387 607)">1</text><text fill="#4B5E68" font-family="Arial,Arial_MSFontService,sans-serif" font-weight="400" font-size="21" transform="translate(56.772 495)">10</text><text fill="#4B5E68" font-family="Arial,Arial_MSFontService,sans-serif" font-weight="400" font-size="14" transform="translate(80.4387 489)">5</text><path d="M105.5 647.5 450.5 647.5" stroke="#EBEBEB" stroke-width="0.711706" stroke-linejoin="round" stroke-miterlimit="10" fill="none" fill-rule="evenodd"/><path d="M105.5 618.5 450.5 618.5" stroke="#EBEBEB" stroke-width="0.711706" stroke-linejoin="round" stroke-miterlimit="10" fill="none" fill-rule="evenodd"/><path d="M105.5 588.5 450.5 588.5" stroke="#EBEBEB" stroke-width="0.711706" stroke-linejoin="round" stroke-miterlimit="10" fill="none" fill-rule="evenodd"/><path d="M105.5 559.5 450.5 559.5" stroke="#EBEBEB" stroke-width="0.711706" stroke-linejoin="round" stroke-miterlimit="10" fill="none" fill-rule="evenodd"/><path d="M105.5 529.5 450.5 529.5" stroke="#EBEBEB" stroke-width="0.711706" stroke-linejoin="round" stroke-miterlimit="10" fill="none" fill-rule="evenodd"/><path d="M105.5 500.5 450.5 500.5" stroke="#EBEBEB" stroke-width="0.711706" stroke-linejoin="round" stroke-miterlimit="10" fill="none" fill-rule="evenodd"/><path d="M126.5 655.5 126.5 474.5" stroke="#EBEBEB" stroke-width="0.711706" stroke-linejoin="round" stroke-miterlimit="10" fill="none" fill-rule="evenodd"/><path d="M234.5 655.5 234.5 474.5" stroke="#EBEBEB" stroke-width="0.711706" stroke-linejoin="round" stroke-miterlimit="10" fill="none" fill-rule="evenodd"/><path d="M337.5 655.5 337.5 474.5" stroke="#EBEBEB" stroke-width="0.711706" stroke-linejoin="round" stroke-miterlimit="10" fill="none" fill-rule="evenodd"/><path d="M440.5 655.5 440.5 474.5" stroke="#EBEBEB" stroke-width="0.711706" stroke-linejoin="round" stroke-miterlimit="10" fill="none" fill-rule="evenodd"/><path d="M105.5 632.5 450.5 632.5" stroke="#EBEBEB" stroke-width="1.42341" stroke-linejoin="round" stroke-miterlimit="10" fill="none" fill-rule="evenodd"/><path d="M105.5 603.5 450.5 603.5" stroke="#EBEBEB" stroke-width="1.42341" stroke-linejoin="round" stroke-miterlimit="10" fill="none" fill-rule="evenodd"/><path d="M105.5 574.5 450.5 574.5" stroke="#EBEBEB" stroke-width="1.42341" stroke-linejoin="round" stroke-miterlimit="10" fill="none" fill-rule="evenodd"/><path d="M105.5 544.5 450.5 544.5" stroke="#EBEBEB" stroke-width="1.42341" stroke-linejoin="round" stroke-miterlimit="10" fill="none" fill-rule="evenodd"/><path d="M105.5 515.5 450.5 515.5" stroke="#EBEBEB" stroke-width="1.42341" stroke-linejoin="round" stroke-miterlimit="10" fill="none" fill-rule="evenodd"/><path d="M105.5 485.5 450.5 485.5" stroke="#EBEBEB" stroke-width="1.42341" stroke-linejoin="round" stroke-miterlimit="10" fill="none" fill-rule="evenodd"/><path d="M180.5 655.5 180.5 474.5" stroke="#EBEBEB" stroke-width="1.42341" stroke-linejoin="round" stroke-miterlimit="10" fill="none" fill-rule="evenodd"/><path d="M288.5 655.5 288.5 474.5" stroke="#EBEBEB" stroke-width="1.42341" stroke-linejoin="round" stroke-miterlimit="10" fill="none" fill-rule="evenodd"/><path d="M386.5 655.5 386.5 474.5" stroke="#EBEBEB" stroke-width="1.42341" stroke-linejoin="round" stroke-miterlimit="10" fill="none" fill-rule="evenodd"/><path d="M121 580.496 124.481 578.477 127.961 594.421 131.435 582.703 134.916 576.873 138.39 579.692 141.871 569.958 145.345 578.803 148.825 564.76 152.306 584.05 155.78 566.927 159.261 561.907 162.735 577.436 166.215 564.656 169.689 557.326 173.17 553.506 176.644 549.281 180.125 546.274 183.605 543.017 187.079 539.729 190.56 564 194.034 569.148 197.515 556.388 200.989 568.304 204.469 556.571 207.95 552.958 211.424 550.727 214.905 557.154 218.379 567.085 221.859 555.431 225.333 540.638 228.814 540.425 232.288 538.367 235.769 525.696 239.249 521.629 242.723 522.246 246.204 511.826 249.678 522.621 253.159 510.646 256.633 504.397 260.113 514.087 263.594 504.422 267.068 510.133 270.549 501.885 274.023 511.796 277.503 502.107 280.977 498 284.458 506.796 287.939 499.777 291.413 506.747 294.893 500.503 298.367 511.806 301.848 503.78 305.322 500.009 308.803 509.664 312.277 503.612 315.757 511.579 319.238 516.096 322.712 508.208 326.193 506.021 329.667 504.121 333.147 506.9 336.621 503.775 340.102 515.069 343.583 508.4 347.057 510.533 350.537 506.075 354.011 504.175 357.492 518.465 360.966 511.569 364.447 508.948 367.921 521.579 371.401 521.338 374.882 519.181 378.356 517.127 381.837 517.191 385.311 515.182 388.791 518.796 392.265 515.454 395.746 516.135 399.227 511.071 402.701 509.229 406.181 521.579 409.655 517.418 413.136 526.989 416.61 523.628 420.091 524.827 423.571 522.236 427.045 520.656 430.526 529.448 434 526.432 434 553.975 430.526 551.008 427.045 550.677 423.571 548.121 420.091 545.603 416.61 550.041 413.136 547.385 409.655 545.11 406.181 542.469 402.701 540.331 399.227 538.49 395.746 536.398 392.265 541.714 388.791 539.186 385.311 542.133 381.837 539.714 378.356 550.031 374.882 547.301 371.401 544.34 367.921 554.355 364.447 544.019 360.966 541.432 357.492 539.201 354.011 535.929 350.537 533.771 347.057 532.118 343.583 536.151 340.102 534.235 336.621 532.72 333.147 530.652 329.667 538.841 326.193 537.01 322.712 535.563 319.238 533.431 315.757 531.935 312.277 532.987 308.803 531.215 305.322 533.441 301.848 532.888 298.367 531.94 294.893 529.897 291.413 528.47 287.939 530.8 284.458 529.803 280.977 532.883 277.503 533.589 274.023 533.081 270.549 532.671 267.068 532.241 263.594 536.476 260.113 536.526 256.633 544.409 253.159 544.695 249.678 544.621 246.204 546.482 242.723 544.838 239.249 553.54 235.769 551.23 232.288 574.143 228.814 570.19 225.333 567.119 221.859 594.964 218.379 591.538 214.905 589.524 211.424 602.95 207.95 600.517 204.469 597.96 200.989 595.502 197.515 597.673 194.034 594.786 190.56 595.971 187.079 608.187 183.605 606.776 180.125 604.846 176.644 602.052 173.17 599.579 169.689 597.131 166.215 594.105 162.735 607.042 159.261 622.99 155.78 618.513 152.306 614.076 148.825 611.909 145.345 607.476 141.871 616.371 138.39 612.393 134.916 640 131.435 633.865 127.961 629.032 124.481 620.365 121 615.942Z" fill="#0570B0" fill-rule="evenodd" fill-opacity="0.2"/><path d="M121 589.989 124.481 588.279 127.961 593.319 131.435 591.15 134.916 589.181 138.39 585.327 141.871 582.585 145.345 582.176 148.825 579.164 152.306 583.672 155.78 581.169 159.261 578.402 162.735 580.356 166.215 575.061 169.689 571.76 173.17 568.28 176.644 564.765 180.125 561.076 183.605 556.932 187.079 552.814 190.56 566.236 194.034 570.594 197.515 568.729 200.989 571.052 204.469 569.158 207.95 567.248 211.424 565.074 214.905 564.635 218.379 569.083 221.859 567.163 225.333 551.712 228.814 548.152 232.288 544.517 235.769 537.911 239.249 530.956 242.723 523.941 246.204 516.631 249.678 519.229 253.159 514.128 256.633 509.018 260.113 512.054 263.594 507.462 267.068 509.058 270.549 504.969 274.023 509.741 277.503 506.44 280.977 503 284.458 506.814 287.939 503.932 291.413 506.989 294.893 504.451 298.367 509.881 301.848 508.056 305.322 506.091 308.803 510.005 312.277 508.44 315.757 511.646 319.238 514.986 322.712 514.114 326.193 513.022 329.667 511.815 333.147 510.055 336.621 508.425 340.102 513.261 343.583 512.194 347.057 511.945 350.537 510.678 354.011 509.282 357.492 517.2 360.966 516.666 364.447 515.734 367.921 520.8 371.401 521.722 374.882 521.303 378.356 520.57 381.837 518.601 385.311 517.29 388.791 518.631 392.265 517.459 395.746 516.542 399.227 515.031 402.701 513.201 406.181 520.476 409.655 519.523 413.136 526.154 416.61 525.855 420.091 525.741 423.571 525.192 427.045 524.429 430.526 529.525 434 529.166 434 551.677 430.526 549.469 427.045 548.302 423.571 546.258 420.091 544.353 416.61 546.552 413.136 544.687 409.655 541.815 406.181 540.384 402.701 537.602 399.227 536.495 395.746 535.528 392.265 539.547 388.791 538.131 385.311 540.748 381.837 539.242 378.356 546.971 374.882 544.946 371.401 542.822 367.921 548.202 364.447 540.339 360.966 538.425 357.492 536.665 354.011 533.698 350.537 532.272 347.057 531.15 343.583 534.122 340.102 532.856 336.621 531.794 333.147 530.766 329.667 536.859 326.193 535.039 322.712 533.489 319.238 531.993 315.757 530.577 312.277 530.068 308.803 529.046 305.322 528.633 301.848 527.695 298.367 527.396 294.893 525.417 291.413 525.491 287.939 526.344 284.458 526.862 280.977 527.451 277.503 528.079 274.023 528.996 270.549 527.66 267.068 529.206 263.594 530.981 260.113 532.576 256.633 534.621 253.159 536.769 249.678 538.968 246.204 539.771 242.723 542.708 239.249 550.859 235.769 553.492 232.288 571.022 228.814 571.77 225.333 572.563 221.859 591.819 218.379 590.657 214.905 589.794 211.424 596.216 207.95 595.059 204.469 593.738 200.989 592.686 197.515 593.953 194.034 592.746 190.56 594.341 187.079 598.794 183.605 598.111 180.125 597.019 176.644 596.047 173.17 595.812 169.689 595.309 166.215 594.67 162.735 604.393 159.261 611.573 155.78 609.588 152.306 607.798 148.825 606.806 145.345 605.355 141.871 613.263 138.39 611.094 134.916 639 131.435 634.588 127.961 629.492 124.481 621.086 121 617.78Z" fill="#BEBEBE" fill-rule="evenodd" fill-opacity="0.2"/><path d="M121.5 602.195 124.981 601.954 128.461 607.5 131.935 607.091 135.416 606.83 138.89 596.856 142.371 596.112 145.845 593.108 149.325 591.921 152.806 594.989 156.28 594.329 159.761 593.423 163.235 591.955 166.715 585.261 170.189 583.852 173.67 582.335 177.144 580.907 180.625 579.444 184.105 577.912 187.579 576.464 191.06 581.493 194.534 582.739 198.015 582.153 201.489 582.981 204.969 582.478 208.45 581.995 211.924 581.577 215.405 578.365 218.879 580.705 222.359 580.395 225.833 563.884 229.314 561.397 232.788 559.111 236.269 542.359 239.749 538.961 243.223 533.439 246.704 529.311 250.178 530.41 253.659 526.868 257.133 523.292 260.613 523.031 264.094 519.899 267.568 520.032 271.049 517.318 274.523 520.642 278.003 518.623 281.477 516.687 284.958 518.416 288.439 516.879 291.913 517.667 295.393 516.5 298.867 520.48 302.348 519.869 305.822 519.303 309.303 521.155 312.777 520.918 316.257 522.603 319.738 524.977 323.212 525.371 326.693 525.75 330.167 526.149 333.647 521.598 337.121 521.47 340.602 524.662 344.083 524.849 347.557 522.982 351.037 522.913 354.511 522.913 357.992 528.292 361.466 528.913 364.947 529.548 368.421 535.69 371.901 533.405 375.382 534.36 378.856 535.247 382.337 530.311 385.811 530.568 389.291 529.681 392.765 529.834 396.246 527.243 399.727 527.06 403.201 526.799 406.681 531.878 410.155 532.272 413.636 536.789 417.11 537.705 420.591 536.281 424.071 536.912 427.545 537.518 431.026 540.872 434.5 541.837" stroke="#4D4D4D" stroke-width="3" stroke-linejoin="round" stroke-miterlimit="10" fill="none" fill-rule="evenodd"/><path d="M121.5 596.811 124.981 601.164 128.461 610.872 131.935 614.055 135.416 616.5 138.89 595.446 142.371 596.95 145.845 593.967 149.325 593.807 152.806 599.067 156.28 598.255 159.761 595.944 163.235 592.288 166.715 582.362 170.189 581.291 173.67 579.702 177.144 577.749 180.625 575.368 184.105 573.182 187.579 571.204 191.06 581.584 194.534 583.268 198.015 581.903 201.489 583.482 204.969 581.923 208.45 580.24 211.924 578.726 215.405 575.886 218.879 580.952 222.359 580.359 225.833 554.788 229.314 557.512 232.788 559.579 236.269 538.645 239.749 538.386 243.223 533.759 246.704 531.457 250.178 532.728 253.659 529.43 257.133 526.392 260.613 525.466 264.094 522.776 267.568 522.497 271.049 519.962 274.523 522.96 278.003 519.832 281.477 516.5 284.958 520.136 288.439 518.253 291.913 519.693 295.393 518.428 298.867 521.909 302.348 520.315 305.822 519.2 309.303 521.406 312.777 521.023 316.257 522.557 319.738 524.654 323.212 524.579 326.693 524.604 330.167 524.664 333.647 520.749 337.121 521.132 340.602 524.4 344.083 524.584 347.557 522.213 351.037 522.487 354.511 522.597 357.992 528.554 361.466 528.788 364.947 529.126 368.421 538.899 371.901 533.335 375.382 534.486 378.856 535.343 382.337 528.668 385.811 529.515 389.291 529.067 392.765 529.555 396.246 526.646 399.727 526.85 403.201 526.885 406.681 532.479 410.155 532.658 413.636 537.529 417.11 538.127 420.591 535.372 424.071 536.164 427.545 536.862 431.026 540.737 434.5 541.449" stroke="#0570B0" stroke-width="3" stroke-linejoin="round" stroke-miterlimit="10" fill="none" fill-rule="evenodd"/><path d="M228.5 549.002C228.5 551 223.5 551 223.5 549.002 223.5 546.999 228.5 546.999 228.5 549.002" stroke="#0570B0" stroke-width="0.945407" stroke-linecap="round" stroke-linejoin="round" stroke-miterlimit="10" fill="#0570B0" fill-rule="evenodd"/><path d="M238.5 531.998C238.5 534.001 234.5 534.001 234.5 531.998 234.5 530.001 238.5 530.001 238.5 531.998" stroke="#0570B0" stroke-width="0.945407" stroke-linecap="round" stroke-linejoin="round" stroke-miterlimit="10" fill="#0570B0" fill-rule="evenodd"/><path d="M245.5 532C245.5 534 241.5 534 241.5 532 241.5 530 245.5 530 245.5 532" stroke="#0570B0" stroke-width="0.945407" stroke-linecap="round" stroke-linejoin="round" stroke-miterlimit="10" fill="#0570B0" fill-rule="evenodd"/><path d="M252.5 536.998C252.5 539.001 248.5 539.001 248.5 536.998 248.5 535.001 252.5 535.001 252.5 536.998" stroke="#0570B0" stroke-width="0.945407" stroke-linecap="round" stroke-linejoin="round" stroke-miterlimit="10" fill="#0570B0" fill-rule="evenodd"/><path d="M262.5 527C262.5 529 258.5 529 258.5 527 258.5 525 262.5 525 262.5 527" stroke="#0570B0" stroke-width="0.945407" stroke-linecap="round" stroke-linejoin="round" stroke-miterlimit="10" fill="#0570B0" fill-rule="evenodd"/><path d="M269.5 523.998C269.5 526.001 265.5 526.001 265.5 523.998 265.5 522.001 269.5 522.001 269.5 523.998" stroke="#0570B0" stroke-width="0.945407" stroke-linecap="round" stroke-linejoin="round" stroke-miterlimit="10" fill="#0570B0" fill-rule="evenodd"/><path d="M276.5 528C276.5 530 272.5 530 272.5 528 272.5 526 276.5 526 276.5 528" stroke="#0570B0" stroke-width="0.945407" stroke-linecap="round" stroke-linejoin="round" stroke-miterlimit="10" fill="#0570B0" fill-rule="evenodd"/><path d="M287.5 521.998C287.5 524.001 283.5 524.001 283.5 521.998 283.5 520.001 287.5 520.001 287.5 521.998" stroke="#0570B0" stroke-width="0.945407" stroke-linecap="round" stroke-linejoin="round" stroke-miterlimit="10" fill="#0570B0" fill-rule="evenodd"/><path d="M294.5 520.998C294.5 523.001 290.5 523.001 290.5 520.998 290.5 519.001 294.5 519.001 294.5 520.998" stroke="#0570B0" stroke-width="0.945407" stroke-linecap="round" stroke-linejoin="round" stroke-miterlimit="10" fill="#0570B0" fill-rule="evenodd"/><path d="M301.5 527.002C301.5 529 297.5 529 297.5 527.002 297.5 524.999 301.5 524.999 301.5 527.002" stroke="#0570B0" stroke-width="0.945407" stroke-linecap="round" stroke-linejoin="round" stroke-miterlimit="10" fill="#0570B0" fill-rule="evenodd"/><path d="M311.5 523C311.5 525 307.5 525 307.5 523 307.5 521 311.5 521 311.5 523" stroke="#0570B0" stroke-width="0.945407" stroke-linecap="round" stroke-linejoin="round" stroke-miterlimit="10" fill="#0570B0" fill-rule="evenodd"/><path d="M318.5 523.998C318.5 526.001 314.5 526.001 314.5 523.998 314.5 522.001 318.5 522.001 318.5 523.998" stroke="#0570B0" stroke-width="0.945407" stroke-linecap="round" stroke-linejoin="round" stroke-miterlimit="10" fill="#0570B0" fill-rule="evenodd"/><path d="M322.5 528C322.5 530 317.5 530 317.5 528 317.5 526 322.5 526 322.5 528" stroke="#0570B0" stroke-width="0.945407" stroke-linecap="round" stroke-linejoin="round" stroke-miterlimit="10" fill="#0570B0" fill-rule="evenodd"/><path d="M335.5 517.002C335.5 519 331.5 519 331.5 517.002 331.5 514.999 335.5 514.999 335.5 517.002" stroke="#0570B0" stroke-width="0.945407" stroke-linecap="round" stroke-linejoin="round" stroke-miterlimit="10" fill="#0570B0" fill-rule="evenodd"/><path d="M342.5 528.002C342.5 530 338.5 530 338.5 528.002 338.5 525.999 342.5 525.999 342.5 528.002" stroke="#0570B0" stroke-width="0.945407" stroke-linecap="round" stroke-linejoin="round" stroke-miterlimit="10" fill="#0570B0" fill-rule="evenodd"/><path d="M349.5 519.998C349.5 522.001 345.5 522.001 345.5 519.998 345.5 518.001 349.5 518.001 349.5 519.998" stroke="#0570B0" stroke-width="0.945407" stroke-linecap="round" stroke-linejoin="round" stroke-miterlimit="10" fill="#0570B0" fill-rule="evenodd"/><path d="M360.5 533.998C360.5 536.001 356.5 536.001 356.5 533.998 356.5 532.001 360.5 532.001 360.5 533.998" stroke="#0570B0" stroke-width="0.945407" stroke-linecap="round" stroke-linejoin="round" stroke-miterlimit="10" fill="#0570B0" fill-rule="evenodd"/><path d="M374.5 530C374.5 532 370.5 532 370.5 530 370.5 528 374.5 528 374.5 530" stroke="#0570B0" stroke-width="0.945407" stroke-linecap="round" stroke-linejoin="round" stroke-miterlimit="10" fill="#0570B0" fill-rule="evenodd"/><path d="M384.5 524C384.5 526 380.5 526 380.5 524 380.5 522 384.5 522 384.5 524" stroke="#0570B0" stroke-width="0.945407" stroke-linecap="round" stroke-linejoin="round" stroke-miterlimit="10" fill="#0570B0" fill-rule="evenodd"/><path d="M391.5 528.002C391.5 530 387.5 530 387.5 528.002 387.5 525.999 391.5 525.999 391.5 528.002" stroke="#0570B0" stroke-width="0.945407" stroke-linecap="round" stroke-linejoin="round" stroke-miterlimit="10" fill="#0570B0" fill-rule="evenodd"/><path d="M398.5 522.998C398.5 525.001 394.5 525.001 394.5 522.998 394.5 521.001 398.5 521.001 398.5 522.998" stroke="#0570B0" stroke-width="0.945407" stroke-linecap="round" stroke-linejoin="round" stroke-miterlimit="10" fill="#0570B0" fill-rule="evenodd"/><path d="M409.5 536.998C409.5 539.001 404.5 539.001 404.5 536.998 404.5 535.001 409.5 535.001 409.5 536.998" stroke="#0570B0" stroke-width="0.945407" stroke-linecap="round" stroke-linejoin="round" stroke-miterlimit="10" fill="#0570B0" fill-rule="evenodd"/><path d="M415.5 541.998C415.5 544.001 411.5 544.001 411.5 541.998 411.5 540.001 415.5 540.001 415.5 541.998" stroke="#0570B0" stroke-width="0.945407" stroke-linecap="round" stroke-linejoin="round" stroke-miterlimit="10" fill="#0570B0" fill-rule="evenodd"/><path d="M422.5 532.5C422.5 535.167 418.5 535.167 418.5 532.5 418.5 529.833 422.5 529.833 422.5 532.5" stroke="#0570B0" stroke-width="0.945407" stroke-linecap="round" stroke-linejoin="round" stroke-miterlimit="10" fill="#0570B0" fill-rule="evenodd"/><path d="M433.5 542.998C433.5 545.001 429.5 545.001 429.5 542.998 429.5 541.001 433.5 541.001 433.5 542.998" stroke="#0570B0" stroke-width="0.945407" stroke-linecap="round" stroke-linejoin="round" stroke-miterlimit="10" fill="#0570B0" fill-rule="evenodd"/><path d="M105.5 655.5 105.5 474.5" stroke="#000000" stroke-width="1.42341" stroke-linecap="square" stroke-linejoin="round" stroke-miterlimit="10" fill="none" fill-rule="evenodd"/><path d="M115.5 632.5 105.5 632.5" stroke="#000000" stroke-width="1.42341" stroke-linejoin="round" stroke-miterlimit="10" fill="none" fill-rule="evenodd"/><path d="M115.5 603.5 105.5 603.5" stroke="#000000" stroke-width="1.42341" stroke-linejoin="round" stroke-miterlimit="10" fill="none" fill-rule="evenodd"/><path d="M115.5 574.5 105.5 574.5" stroke="#000000" stroke-width="1.42341" stroke-linejoin="round" stroke-miterlimit="10" fill="none" fill-rule="evenodd"/><path d="M115.5 544.5 105.5 544.5" stroke="#000000" stroke-width="1.42341" stroke-linejoin="round" stroke-miterlimit="10" fill="none" fill-rule="evenodd"/><path d="M115.5 515.5 105.5 515.5" stroke="#000000" stroke-width="1.42341" stroke-linejoin="round" stroke-miterlimit="10" fill="none" fill-rule="evenodd"/><path d="M115.5 485.5 105.5 485.5" stroke="#000000" stroke-width="1.42341" stroke-linejoin="round" stroke-miterlimit="10" fill="none" fill-rule="evenodd"/><path d="M105.5 655.5 450.5 655.5" stroke="#000000" stroke-width="1.42341" stroke-linecap="square" stroke-linejoin="round" stroke-miterlimit="10" fill="none" fill-rule="evenodd"/><path d="M180.5 648.5 180.5 655.5" stroke="#000000" stroke-width="1.42341" stroke-linejoin="round" stroke-miterlimit="10" fill="none" fill-rule="evenodd"/><path d="M288.5 648.5 288.5 655.5" stroke="#000000" stroke-width="1.42341" stroke-linejoin="round" stroke-miterlimit="10" fill="none" fill-rule="evenodd"/><path d="M386.5 648.5 386.5 655.5" stroke="#000000" stroke-width="1.42341" stroke-linejoin="round" stroke-miterlimit="10" fill="none" fill-rule="evenodd"/><text fill="#4B5E68" font-family="Arial,Arial_MSFontService,sans-serif" font-weight="400" font-size="21" transform="translate(119.173 478)">(2) Wastewater concentration</text><text fill="#4B5E68" font-family="Arial,Arial_MSFontService,sans-serif" font-weight="700" font-size="24" transform="translate(568.061 216)">2. Estimated dynamic of</text><text fill="#4B5E68" font-family="Arial,Arial_MSFontService,sans-serif" font-style="italic" font-weight="700" font-size="24" transform="translate(849.394 216)">R</text><text fill="#4B5E68" font-family="Arial,Arial_MSFontService,sans-serif" font-weight="700" font-size="16" transform="translate(866.727 209)">eff</text><text fill="#4B5E68" font-family="Arial,Arial_MSFontService,sans-serif" font-weight="700" font-size="24" transform="translate(886.227 216)">(t)</text><path d="M577.5 588.5 1234.5 588.5" stroke="#EBEBEB" stroke-width="0.711706" stroke-linejoin="round" stroke-miterlimit="10" fill="none" fill-rule="evenodd"/><path d="M577.5 497.5 1234.5 497.5" stroke="#EBEBEB" stroke-width="0.711706" stroke-linejoin="round" stroke-miterlimit="10" fill="none" fill-rule="evenodd"/><path d="M577.5 405.5 1234.5 405.5" stroke="#EBEBEB" stroke-width="0.711706" stroke-linejoin="round" stroke-miterlimit="10" fill="none" fill-rule="evenodd"/><path d="M577.5 314.5 1234.5 314.5" stroke="#EBEBEB" stroke-width="0.711706" stroke-linejoin="round" stroke-miterlimit="10" fill="none" fill-rule="evenodd"/><path d="M577.5 268.5 1234.5 268.5" stroke="#EBEBEB" stroke-width="0.711706" stroke-linejoin="round" stroke-miterlimit="10" fill="none" fill-rule="evenodd"/><path d="M617.5 652.5 617.5 250.5" stroke="#EBEBEB" stroke-width="0.711706" stroke-linejoin="round" stroke-miterlimit="10" fill="none" fill-rule="evenodd"/><path d="M823.5 652.5 823.5 250.5" stroke="#EBEBEB" stroke-width="0.711706" stroke-linejoin="round" stroke-miterlimit="10" fill="none" fill-rule="evenodd"/><path d="M1018.5 652.5 1018.5 250.5" stroke="#EBEBEB" stroke-width="0.711706" stroke-linejoin="round" stroke-miterlimit="10" fill="none" fill-rule="evenodd"/><path d="M1214.5 652.5 1214.5 250.5" stroke="#EBEBEB" stroke-width="0.711706" stroke-linejoin="round" stroke-miterlimit="10" fill="none" fill-rule="evenodd"/><path d="M577.5 634.5 1234.5 634.5" stroke="#EBEBEB" stroke-width="1.42341" stroke-linejoin="round" stroke-miterlimit="10" fill="none" fill-rule="evenodd"/><path d="M577.5 542.5 1234.5 542.5" stroke="#000000" stroke-width="1.42341" stroke-linejoin="round" stroke-miterlimit="10" fill="none" fill-rule="evenodd"/><path d="M577.5 451.5 1234.5 451.5" stroke="#EBEBEB" stroke-width="1.42341" stroke-linejoin="round" stroke-miterlimit="10" fill="none" fill-rule="evenodd"/><path d="M577.5 360.5 1234.5 360.5" stroke="#EBEBEB" stroke-width="1.42341" stroke-linejoin="round" stroke-miterlimit="10" fill="none" fill-rule="evenodd"/><path d="M720.5 652.5 720.5 250.5" stroke="#EBEBEB" stroke-width="1.42341" stroke-linejoin="round" stroke-miterlimit="10" fill="none" fill-rule="evenodd"/><path d="M926.5 652.5 926.5 250.5" stroke="#EBEBEB" stroke-width="1.42341" stroke-linejoin="round" stroke-miterlimit="10" fill="none" fill-rule="evenodd"/><path d="M1111.5 652.5 1111.5 250.5" stroke="#EBEBEB" stroke-width="1.42341" stroke-linejoin="round" stroke-miterlimit="10" fill="none" fill-rule="evenodd"/><path d="M607 422.801 613.639 417.551 620.277 437.352 626.904 434.384 633.542 431.048 640.169 409.078 646.807 402.13 653.434 405.333 660.073 401.383 666.711 425.011 673.337 420.969 679.976 416.63 686.602 418.789 693.241 404.207 699.868 397.658 706.506 394.189 713.132 390.587 719.771 387.487 726.41 383.158 733.036 378.748 739.675 434.262 746.301 441.967 752.94 439.04 759.566 445.129 766.205 441.415 772.844 436.114 779.47 432.409 786.109 435.704 792.735 451.74 799.374 449.519 806 411.053 812.639 401.915 819.265 397.372 825.904 335.319 832.542 328.841 839.169 325.587 845.807 320 852.434 346.227 859.073 343.209 865.699 337.744 872.337 355.56 878.976 350.034 885.602 371.186 892.241 365.424 898.868 391.907 905.506 387.732 912.133 383.209 918.771 412.394 925.41 408.229 932.036 428.357 938.675 424.039 945.301 445.917 951.94 442.54 958.566 439.419 965.205 458.043 971.831 454.738 978.47 470.036 985.109 479.87 991.735 476.34 998.374 473.853 1005 468.256 1011.64 467.181 1018.27 463.139 1024.9 477.046 1031.54 474.754 1038.17 472.615 1044.81 469.852 1051.43 467.335 1058.07 485.171 1064.7 482.142 1071.34 479.543 1077.96 507.213 1084.6 500.889 1091.24 496.12 1097.87 492.876 1104.51 478.918 1111.13 476.432 1117.77 476.094 1124.4 473.28 1131.04 467.488 1137.68 464.899 1144.3 460.55 1150.94 484.055 1157.57 481.16 1164.2 500.408 1170.83 497.44 1177.47 493.194 1184.11 488.486 1190.74 483.298 1197.37 499.998 1204 496.765 1204 615.283 1197.37 613.595 1190.74 610.443 1184.11 609.256 1177.47 607.118 1170.83 612.674 1164.2 611.323 1157.57 605.736 1150.94 603.833 1144.3 597.355 1137.68 596.178 1131.04 593.538 1124.4 601.653 1117.77 599.924 1111.13 604.047 1104.51 602.717 1097.87 616.521 1091.24 615.253 1084.6 613.748 1077.96 627 1071.34 611.753 1064.7 609.788 1058.07 607.834 1051.43 599.607 1044.81 598.337 1038.17 596.956 1031.54 603.423 1024.9 601.592 1018.27 597.877 1011.64 595.196 1005 604.743 998.374 603.086 991.735 600.855 985.109 599.524 978.47 595.37 971.831 592.894 965.205 591.88 958.566 588.156 951.94 586.048 945.301 584.595 938.675 576.111 932.036 574.413 925.41 568.283 918.771 566.933 912.133 560.127 905.506 558.47 898.868 555.236 892.241 545.29 885.602 542.353 878.976 538.249 872.337 534.77 865.699 536.817 859.073 533.798 852.434 531.199 845.807 528.374 839.169 526.573 832.542 550.447 825.904 547.428 819.265 586.252 812.639 585.035 806 582.906 799.374 595.626 792.735 593.078 786.109 586.999 779.47 591.44 772.844 589.793 766.205 587.972 759.566 586.744 752.94 585.464 746.301 583.152 739.675 581.023 733.036 579.376 726.41 577.677 719.771 576.296 713.132 574.648 706.506 573.031 699.868 571.445 693.241 570.299 686.602 577.114 679.976 582.773 673.337 580.655 666.711 578.353 660.073 575.416 653.434 573.062 646.807 580.02 640.169 578.823 633.542 597.57 626.904 596.025 620.277 594.306 613.639 589.568 607 589.895Z" fill="#E485A5" fill-rule="evenodd" fill-opacity="0.2"/><path d="M607 435.135 613.63 429.829 620.261 444.391 626.879 440.666 633.509 438.523 640.127 419.318 646.758 414.073 653.376 414.022 660.006 411.869 666.637 432.003 673.255 427.819 679.885 424.257 686.503 431.186 693.134 407.736 699.752 403.695 706.382 399.562 713 396.338 719.63 390.399 726.261 385.205 732.879 385.113 739.51 434.278 746.128 447.605 752.758 442.87 759.376 453.228 766.006 448.748 772.637 444.728 779.255 440.707 785.885 438.574 792.503 453.952 799.134 451.575 805.752 380.745 812.382 379.806 819 375 819 549.355 812.382 547.589 805.752 543.559 799.134 591.714 792.503 589.367 785.885 584.489 779.255 594.775 772.637 593.214 766.006 590.581 759.376 588.061 752.758 586.193 746.128 584.571 739.51 582.438 732.879 580.122 726.261 579.132 719.63 576.519 713 575.254 706.382 572.539 699.752 571.111 693.134 568.631 686.503 589.53 679.885 593.143 673.255 590.5 666.637 588.989 660.006 582.132 653.376 581.05 646.758 586.326 640.127 583.836 633.509 602 626.879 600.204 620.261 598.816 613.63 589.928 607 588.571Z" fill="#BEBEBE" fill-rule="evenodd" fill-opacity="0.4"/><path d="M853 337.724 859.628 331.03 866.244 326 872.872 353.815 879.5 347.744 886.115 375.305 892.743 369.723 899.359 403.518 905.987 400.885 912.603 395.518 919.231 420.487 925.859 416.17 932.474 434.945 939.102 428.456 945.718 457.679 952.346 453.802 958.961 449.333 965.59 465.526 972.205 462.016 978.833 473.23 985.461 486.535 992.077 481.862 998.705 478.832 1005.32 476.281 1011.95 465.169 1018.56 459.944 1025.19 480.046 1031.82 476.179 1038.44 472.056 1045.06 468.005 1051.68 464.21 1058.31 492.964 1064.92 488.678 1071.55 487.025 1078.17 503.494 1084.79 498.617 1091.42 493.678 1098.04 492.107 1104.67 473.373 1111.28 473.026 1117.91 472.271 1124.53 470.026 1131.15 462.098 1137.78 457.342 1144.4 454.281 1151.03 487.178 1157.64 481.413 1164.27 502.331 1170.88 498.8 1177.51 492.005 1184.14 489.25 1190.76 485.29 1197.38 500.668 1204 498.321 1204 614.909 1197.38 614.276 1190.76 611.552 1184.14 609.47 1177.51 607.297 1170.88 613.225 1164.27 612.215 1157.64 605.98 1151.03 604.297 1144.4 595.644 1137.78 593.746 1131.15 592.389 1124.53 598.725 1117.91 597.583 1111.28 601.021 1104.67 600.113 1098.04 614.653 1091.42 612.786 1084.79 611.439 1078.17 622 1071.55 608.807 1064.92 607.746 1058.31 605.899 1051.68 596.95 1045.06 595.011 1038.44 593.389 1031.82 600.317 1025.19 597.96 1018.56 592.879 1011.95 590.838 1005.32 604.756 998.705 603.205 992.077 601.817 985.461 600.195 978.833 596.052 972.205 594.236 965.59 592.481 958.961 589.603 952.346 587.114 945.718 585.226 939.102 574.542 932.474 572.145 925.859 566.941 919.231 565.869 912.603 557.584 905.987 555.288 899.359 552.38 892.743 537.901 886.115 534.789 879.5 526.912 872.872 525.065 866.244 517.238 859.628 515.034 853 510.963Z" fill="#BEBEBE" fill-rule="evenodd" fill-opacity="0.4"/><path d="M607.5 523.8 614.139 523.119 620.777 535.688 627.404 535.404 634.042 535.251 640.669 515.444 647.308 515.241 653.934 510.528 660.573 509.744 667.211 523.302 673.837 523.699 680.476 523.607 687.103 522.416 693.741 502.396 700.368 502.823 707.006 502.477 713.632 502.62 720.271 502.477 726.91 502.426 733.536 502.152 740.175 520.828 746.801 526.528 753.44 526.661 760.066 531.006 766.705 531.159 773.344 531.23 779.97 531.19 786.609 523.505 793.235 532.778 799.874 532.605 806.5 476.004 813.139 473.836 819.765 473.887 826.404 413.744 833.042 414.131 839.669 405.52 846.308 405.5 852.934 435.536 859.573 436.299 866.199 436.411 872.838 452.553 879.476 451.861 886.103 464.462 892.741 464.737 899.368 487.648 906.006 487.515 912.633 487.841 919.271 501.846 925.91 502.101 932.536 512.065 939.175 511.495 945.801 530.162 952.44 529.948 959.066 529.979 965.705 539.19 972.331 539.139 978.97 545.571 985.609 553.083 992.235 552.716 998.874 553.042 1005.5 552.94 1012.14 538.355 1018.77 538.182 1025.4 548.543 1032.04 548.625 1038.67 542.477 1045.31 542.437 1051.93 542.416 1058.57 558.396 1065.2 558.528 1071.84 558.447 1078.46 573.5 1085.1 564.686 1091.74 564.554 1098.37 564.635 1105.01 548.452 1111.63 548.839 1118.27 544.961 1124.9 545.093 1131.54 536.391 1138.18 536.798 1144.8 536.889 1151.44 553.5 1158.07 553.551 1164.71 566.05 1171.33 566.203 1177.97 558.966 1184.61 559.098 1191.24 559.037 1197.87 566.661 1204.5 566.742" stroke="#4D4D4D" stroke-width="3" stroke-linejoin="round" stroke-miterlimit="10" fill="none" fill-rule="evenodd"/><path d="M607.5 521.755 614.139 522.071 620.777 532.47 627.404 531.747 634.042 531.788 640.669 509.329 647.308 509.797 653.934 505.214 660.573 505.743 667.211 516.622 673.837 517.161 680.476 517.294 687.103 513.912 693.741 499.49 700.368 499.673 707.006 500.131 713.632 499.795 720.271 500.162 726.91 499.724 733.536 499.663 740.175 519.81 746.801 524.088 753.44 524.077 760.066 528.457 766.705 528.355 773.344 528.172 779.97 528.62 786.609 524.444 793.235 534.171 799.874 534.059 806.5 508.972 813.139 508.432 819.765 508.82 826.404 456.588 833.042 455.417 839.669 443.999 846.308 443.5 852.934 455.641 859.573 455.774 866.199 455.509 872.838 462.435 879.476 462.628 886.103 471.673 892.741 471.449 899.368 487.858 906.006 487.165 912.633 487.624 919.271 502.209 925.91 502.036 932.536 512.782 939.175 513.484 945.801 527.561 952.44 527.53 959.066 527.887 965.705 537.135 972.331 536.758 978.97 543.807 985.609 550.183 992.235 550.224 998.874 549.959 1005.5 550.02 1012.14 540.547 1018.77 540.649 1025.4 548.91 1032.04 548.645 1038.67 543.572 1045.31 543.593 1051.93 544.031 1058.57 558.474 1065.2 558.474 1071.84 558.403 1078.46 577.5 1085.1 565.675 1091.74 565.227 1098.37 565.41 1105.01 551.079 1111.63 551.252 1118.27 548.319 1124.9 548.197 1131.54 540.252 1138.18 539.875 1144.8 540.354 1151.44 554.226 1158.07 554.196 1164.71 564.218 1171.33 564.198 1177.97 557.547 1184.61 557.903 1191.24 557.73 1197.87 565.013 1204.5 565.074" stroke="#A0234E" stroke-width="3" stroke-linejoin="round" stroke-miterlimit="10" fill="none" fill-rule="evenodd"/><path d="M577.5 652.5 577.5 250.5" stroke="#000000" stroke-width="1.42341" stroke-linecap="square" stroke-linejoin="round" stroke-miterlimit="10" fill="none" fill-rule="evenodd"/><path d="M595.5 634.5 577.5 634.5" stroke="#000000" stroke-width="1.42341" stroke-linejoin="round" stroke-miterlimit="10" fill="none" fill-rule="evenodd"/><path d="M595.5 542.5 577.5 542.5" stroke="#000000" stroke-width="1.42341" stroke-linejoin="round" stroke-miterlimit="10" fill="none" fill-rule="evenodd"/><path d="M595.5 451.5 577.5 451.5" stroke="#000000" stroke-width="1.42341" stroke-linejoin="round" stroke-miterlimit="10" fill="none" fill-rule="evenodd"/><path d="M595.5 360.5 577.5 360.5" stroke="#000000" stroke-width="1.42341" stroke-linejoin="round" stroke-miterlimit="10" fill="none" fill-rule="evenodd"/><text fill="#4B5E68" font-family="Arial,Arial_MSFontService,sans-serif" font-weight="400" font-size="21" transform="translate(529.929 368)">2.0</text><text fill="#4B5E68" font-family="Arial,Arial_MSFontService,sans-serif" font-weight="400" font-size="21" transform="translate(529.929 458)">1.5</text><text fill="#4B5E68" font-family="Arial,Arial_MSFontService,sans-serif" font-weight="400" font-size="21" transform="translate(529.929 548)">1.0</text><text fill="#4B5E68" font-family="Arial,Arial_MSFontService,sans-serif" font-weight="400" font-size="21" transform="translate(529.929 642)">0.5</text><path d="M577.5 653.5 1234.5 653.5" stroke="#000000" stroke-width="1.42341" stroke-linecap="square" stroke-linejoin="round" stroke-miterlimit="10" fill="none" fill-rule="evenodd"/><path d="M720.5 637.5 720.5 653.5" stroke="#000000" stroke-width="1.42341" stroke-linejoin="round" stroke-miterlimit="10" fill="none" fill-rule="evenodd"/><path d="M926.5 637.5 926.5 653.5" stroke="#000000" stroke-width="1.42341" stroke-linejoin="round" stroke-miterlimit="10" fill="none" fill-rule="evenodd"/><path d="M1111.5 637.5 1111.5 653.5" stroke="#000000" stroke-width="1.42341" stroke-linejoin="round" stroke-miterlimit="10" fill="none" fill-rule="evenodd"/><text fill="#4B5E68" font-family="Arial,Arial_MSFontService,sans-serif" font-weight="400" font-size="21" transform="translate(707.396 680)">Jan</text><text fill="#4B5E68" font-family="Arial,Arial_MSFontService,sans-serif" font-weight="400" font-size="21" transform="translate(907.28 680)">Feb</text><text fill="#4B5E68" font-family="Arial,Arial_MSFontService,sans-serif" font-weight="400" font-size="21" transform="translate(1096.08 680)">Mar</text><path d="M595.5 247.5 634.309 247.5" stroke="#D23369" stroke-width="3" stroke-miterlimit="8" fill="none" fill-rule="evenodd"/><path d="M595.5 285.5 634.309 285.5" stroke="#4B5E68" stroke-width="3" stroke-miterlimit="8" fill="none" fill-rule="evenodd"/><text fill="#A0234E" font-family="Arial,Arial_MSFontService,sans-serif" font-weight="400" font-size="19" transform="translate(649.058 255)">Accounting for shedding load variability</text><text fill="#4B5E68" font-family="Arial,Arial_MSFontService,sans-serif" font-weight="400" font-size="19" transform="translate(649.058 288)">Using population</text><text fill="#4B5E68" font-family="Arial,Arial_MSFontService,sans-serif" font-weight="400" font-size="19" transform="translate(787.725 288)">-</text><text fill="#4B5E68" font-family="Arial,Arial_MSFontService,sans-serif" font-weight="400" font-size="19" transform="translate(793.891 288)">level shedding load (neglecting the variability)</text></g></svg>