<svg width="1283" height="723" xmlns="http://www.w3.org/2000/svg" xmlns:xlink="http://www.w3.org/1999/xlink" overflow="hidden"><defs><clipPath id="clip0"><rect x="-2" y="-2" width="1283" height="723"/></clipPath></defs><g clip-path="url(#clip0)" transform="translate(2 2)"><rect x="-1" y="0" width="1280" height="720" fill="#FFFFFF"/><rect x="0.500053" y="0.500053" width="321" height="37" stroke="#7F7F7F" stroke-width="1.33333" stroke-miterlimit="8" fill="#D9D9D9"/><text fill="#A6A6A6" font-family="Arial,Arial_MSFontService,sans-serif" font-weight="700" font-size="21" transform="translate(98.3799 27)">Introduction</text><rect x="320.5" y="0.500053" width="321" height="37" stroke="#7F7F7F" stroke-width="1.33333" stroke-miterlimit="8" fill="#D9D9D9"/><text fill="#A6A6A6" font-family="Arial,Arial_MSFontService,sans-serif" font-weight="700" font-size="21" transform="translate(376.718 27)">Materials &amp; Methods</text><rect x="639.5" y="0.500053" width="321" height="37" stroke="#7F7F7F" stroke-width="1.33333" stroke-miterlimit="8" fill="#4B5E68"/><text fill="#FFFFFF" font-family="Arial,Arial_MSFontService,sans-serif" font-weight="700" font-size="21" transform="translate(690.449 27)">Results &amp; Discussion</text><rect x="959.5" y="0.500053" width="321" height="37" stroke="#7F7F7F" stroke-width="1.33333" stroke-miterlimit="8" fill="#D9D9D9"/><text fill="#A6A6A6" font-family="Arial,Arial_MSFontService,sans-serif" font-weight="700" font-size="21" transform="translate(1061.32 27)">Conclusion</text><text fill="#4B5E68" font-family="Arial,Arial_MSFontService,sans-serif" font-weight="700" font-size="32" transform="translate(35.2634 87)">Simulation analysis to assess the impact of the estimated shedding variability</text><path d="M64.5001 161.5 1213.48 161.5" stroke="#4B5E68" stroke-miterlimit="8" stroke-dasharray="8 3" fill="none" fill-rule="evenodd"/><text font-family="Arial,Arial_MSFontService,sans-serif" font-weight="400" font-size="21" transform="translate(703.066 294)">10</text><text font-family="Arial,Arial_MSFontService,sans-serif" font-weight="400" font-size="14" transform="translate(726.733 288)">7</text><text font-family="Arial,Arial_MSFontService,sans-serif" font-weight="400" font-size="21" transform="translate(703.066 362)">10</text><text font-family="Arial,Arial_MSFontService,sans-serif" font-weight="400" font-size="14" transform="translate(726.733 356)">6</text><text font-family="Arial,Arial_MSFontService,sans-serif" font-weight="400" font-size="21" transform="translate(703.066 422)">10</text><text font-family="Arial,Arial_MSFontService,sans-serif" font-weight="400" font-size="14" transform="translate(726.733 416)">5</text><text font-family="Arial,Arial_MSFontService,sans-serif" font-weight="400" font-size="21" transform="translate(703.066 485)">10</text><text font-family="Arial,Arial_MSFontService,sans-serif" font-weight="400" font-size="14" transform="translate(726.733 479)">4</text><text font-family="Arial,Arial_MSFontService,sans-serif" font-weight="400" font-size="21" transform="translate(703.066 551)">10</text><text font-family="Arial,Arial_MSFontService,sans-serif" font-weight="400" font-size="14" transform="translate(726.733 545)">3</text><text font-family="Arial,Arial_MSFontService,sans-serif" font-weight="400" font-size="21" transform="translate(792.502 648)">The number of shedding individuals,</text><text font-family="Arial,Arial_MSFontService,sans-serif" font-style="italic" font-weight="400" font-size="21" transform="translate(1140.84 648)">I</text><text font-family="Arial,Arial_MSFontService,sans-serif" font-weight="400" font-size="14" transform="translate(1146.84 652)">shed</text><text font-family="Arial,Arial_MSFontService,sans-serif" font-weight="400" font-size="21" transform="translate(760.863 613)">10</text><text font-family="Arial,Arial_MSFontService,sans-serif" font-weight="400" font-size="14" transform="translate(784.529 607)">0</text><text font-family="Arial,Arial_MSFontService,sans-serif" font-weight="400" font-size="21" transform="translate(862.497 613)">10</text><text font-family="Arial,Arial_MSFontService,sans-serif" font-weight="400" font-size="14" transform="translate(886.163 607)">1</text><text font-family="Arial,Arial_MSFontService,sans-serif" font-weight="400" font-size="21" transform="translate(972.57 613)">10</text><text font-family="Arial,Arial_MSFontService,sans-serif" font-weight="400" font-size="14" transform="translate(996.237 607)">2</text><text font-family="Arial,Arial_MSFontService,sans-serif" font-weight="400" font-size="21" transform="translate(1081.8 613)">10</text><text font-family="Arial,Arial_MSFontService,sans-serif" font-weight="400" font-size="14" transform="translate(1105.46 607)">3</text><text font-family="Arial,Arial_MSFontService,sans-serif" font-weight="400" font-size="21" transform="translate(1181.73 613)">10</text><text font-family="Arial,Arial_MSFontService,sans-serif" font-weight="400" font-size="14" transform="translate(1205.4 607)">4</text><path d="M746.5 570.5 1220.5 570.5" stroke="#EBEBEB" stroke-width="0.710971" stroke-linejoin="round" stroke-miterlimit="10" fill="none" fill-rule="evenodd"/><path d="M746.5 507.5 1220.5 507.5" stroke="#EBEBEB" stroke-width="0.710971" stroke-linejoin="round" stroke-miterlimit="10" fill="none" fill-rule="evenodd"/><path d="M746.5 444.5 1220.5 444.5" stroke="#EBEBEB" stroke-width="0.710971" stroke-linejoin="round" stroke-miterlimit="10" fill="none" fill-rule="evenodd"/><path d="M746.5 381.5 1220.5 381.5" stroke="#EBEBEB" stroke-width="0.710971" stroke-linejoin="round" stroke-miterlimit="10" fill="none" fill-rule="evenodd"/><path d="M746.5 318.5 1220.5 318.5" stroke="#EBEBEB" stroke-width="0.710971" stroke-linejoin="round" stroke-miterlimit="10" fill="none" fill-rule="evenodd"/><path d="M746.5 256.5 1220.5 256.5" stroke="#EBEBEB" stroke-width="0.710971" stroke-linejoin="round" stroke-miterlimit="10" fill="none" fill-rule="evenodd"/><path d="M821.5 586.5 821.5 240.5" stroke="#EBEBEB" stroke-width="0.710971" stroke-linejoin="round" stroke-miterlimit="10" fill="none" fill-rule="evenodd"/><path d="M929.5 586.5 929.5 240.5" stroke="#EBEBEB" stroke-width="0.710971" stroke-linejoin="round" stroke-miterlimit="10" fill="none" fill-rule="evenodd"/><path d="M1037.5 586.5 1037.5 240.5" stroke="#EBEBEB" stroke-width="0.710971" stroke-linejoin="round" stroke-miterlimit="10" fill="none" fill-rule="evenodd"/><path d="M1144.5 586.5 1144.5 240.5" stroke="#EBEBEB" stroke-width="0.710971" stroke-linejoin="round" stroke-miterlimit="10" fill="none" fill-rule="evenodd"/><path d="M746.5 539.5 1220.5 539.5" stroke="#EBEBEB" stroke-width="1.42184" stroke-linejoin="round" stroke-miterlimit="10" fill="none" fill-rule="evenodd"/><path d="M746.5 476.5 1220.5 476.5" stroke="#EBEBEB" stroke-width="1.42184" stroke-linejoin="round" stroke-miterlimit="10" fill="none" fill-rule="evenodd"/><path d="M746.5 413.5 1220.5 413.5" stroke="#EBEBEB" stroke-width="1.42184" stroke-linejoin="round" stroke-miterlimit="10" fill="none" fill-rule="evenodd"/><path d="M746.5 350.5 1220.5 350.5" stroke="#EBEBEB" stroke-width="1.42184" stroke-linejoin="round" stroke-miterlimit="10" fill="none" fill-rule="evenodd"/><path d="M746.5 287.5 1220.5 287.5" stroke="#EBEBEB" stroke-width="1.42184" stroke-linejoin="round" stroke-miterlimit="10" fill="none" fill-rule="evenodd"/><path d="M767.5 586.5 767.5 240.5" stroke="#EBEBEB" stroke-width="1.42184" stroke-linejoin="round" stroke-miterlimit="10" fill="none" fill-rule="evenodd"/><path d="M875.5 586.5 875.5 240.5" stroke="#EBEBEB" stroke-width="1.42184" stroke-linejoin="round" stroke-miterlimit="10" fill="none" fill-rule="evenodd"/><path d="M983.5 586.5 983.5 240.5" stroke="#EBEBEB" stroke-width="1.42184" stroke-linejoin="round" stroke-miterlimit="10" fill="none" fill-rule="evenodd"/><path d="M1091.5 586.5 1091.5 240.5" stroke="#EBEBEB" stroke-width="1.42184" stroke-linejoin="round" stroke-miterlimit="10" fill="none" fill-rule="evenodd"/><path d="M1198.5 586.5 1198.5 240.5" stroke="#EBEBEB" stroke-width="1.42184" stroke-linejoin="round" stroke-miterlimit="10" fill="none" fill-rule="evenodd"/><path d="M767 265.729 799.433 259 831.874 261.843 864.306 262.634 896.747 263.618 929.18 264.817 961.612 267.204 994.053 269.291 1026.49 274.653 1058.93 278.083 1091.36 283.48 1123.8 285.724 1156.23 290.713 1188.67 292.776 1198 294.215 1198 317.676 1188.67 318.192 1156.23 321.287 1123.8 324.633 1091.36 329.611 1058.93 334.48 1026.49 342.157 994.053 350.925 961.612 362.607 929.18 378.212 896.747 397.511 864.306 421.704 831.874 454.988 799.433 500.387 767 557Z" fill="#A6BDDB" fill-rule="evenodd" fill-opacity="0.25098"/><path d="M767 361.054 799.433 344.886 831.874 333.726 864.306 324.167 896.747 316.943 929.18 313.681 961.612 310.9 994.053 308.709 1026.49 307.3 1058.93 306.506 1091.36 306.241 1123.8 306 1156.23 306.349 1188.67 306.313 1198 306.542 1198 313.019 1188.67 313.404 1156.23 315.162 1123.8 317.1 1091.36 319.7 1058.93 323.167 1026.49 327.742 994.053 333.124 961.612 340.72 929.18 350.075 896.747 361.524 864.306 377.283 831.874 398.82 799.433 425.968 767 463Z" fill="#A6BDDB" fill-rule="evenodd" fill-opacity="0.34902"/><path d="M746 309 1220 309" stroke="#953735" stroke-width="2" stroke-linejoin="round" stroke-miterlimit="10" stroke-dasharray="6.40186 6.40186" fill="none" fill-rule="evenodd"/><path d="M767 413 799.433 385.636 831.874 367.064 864.306 351.684 896.747 341.001 929.18 333.004 961.612 326.922 994.053 322.128 1026.49 318.647 1058.93 315.817 1091.36 313.758 1123.8 312.06 1156.23 311.096 1188.67 310.169 1198 310" stroke="#31859C" stroke-width="2" stroke-linejoin="round" stroke-miterlimit="10" fill="none" fill-rule="evenodd"/><path d="M746.5 586.5 746.5 240.5" stroke="#000000" stroke-width="1.42184" stroke-linecap="square" stroke-linejoin="round" stroke-miterlimit="10" fill="none" fill-rule="evenodd"/><path d="M758.5 539.5 746.5 539.5" stroke="#000000" stroke-width="1.42184" stroke-linejoin="round" stroke-miterlimit="10" fill="none" fill-rule="evenodd"/><path d="M758.5 476.5 746.5 476.5" stroke="#000000" stroke-width="1.42184" stroke-linejoin="round" stroke-miterlimit="10" fill="none" fill-rule="evenodd"/><path d="M758.5 413.5 746.5 413.5" stroke="#000000" stroke-width="1.42184" stroke-linejoin="round" stroke-miterlimit="10" fill="none" fill-rule="evenodd"/><path d="M758.5 350.5 746.5 350.5" stroke="#000000" stroke-width="1.42184" stroke-linejoin="round" stroke-miterlimit="10" fill="none" fill-rule="evenodd"/><path d="M758.5 287.5 746.5 287.5" stroke="#000000" stroke-width="1.42184" stroke-linejoin="round" stroke-miterlimit="10" fill="none" fill-rule="evenodd"/><path d="M746.5 586.5 1220.5 586.5" stroke="#000000" stroke-width="1.42184" stroke-linecap="square" stroke-linejoin="round" stroke-miterlimit="10" fill="none" fill-rule="evenodd"/><path d="M767.5 569.5 767.5 586.5" stroke="#000000" stroke-width="1.42184" stroke-linejoin="round" stroke-miterlimit="10" fill="none" fill-rule="evenodd"/><path d="M875.5 569.5 875.5 586.5" stroke="#000000" stroke-width="1.42184" stroke-linejoin="round" stroke-miterlimit="10" fill="none" fill-rule="evenodd"/><path d="M983.5 569.5 983.5 586.5" stroke="#000000" stroke-width="1.42184" stroke-linejoin="round" stroke-miterlimit="10" fill="none" fill-rule="evenodd"/><path d="M1091.5 569.5 1091.5 586.5" stroke="#000000" stroke-width="1.42184" stroke-linejoin="round" stroke-miterlimit="10" fill="none" fill-rule="evenodd"/><path d="M1198.5 569.5 1198.5 586.5" stroke="#000000" stroke-width="1.42184" stroke-linejoin="round" stroke-miterlimit="10" fill="none" fill-rule="evenodd"/><text fill="#A0234E" font-family="Arial,Arial_MSFontService,sans-serif" font-weight="700" font-size="24" transform="translate(779.779 289)">Population</text><text fill="#A0234E" font-family="Arial,Arial_MSFontService,sans-serif" font-weight="700" font-size="24" transform="translate(903.779 289)">-</text><text fill="#A0234E" font-family="Arial,Arial_MSFontService,sans-serif" font-weight="700" font-size="24" transform="translate(911.779 289)">level mean</text><text fill="#31859C" font-family="Arial,Arial_MSFontService,sans-serif" font-weight="700" font-size="24" transform="translate(829.779 399)">Sample mean</text><text fill="#4B5E68" font-family="Cambria Math,Cambria Math_MSFontService,sans-serif" font-weight="400" font-size="24" transform="translate(203.134 304)">𝑙𝑜𝑔</text><text fill="#4B5E68" font-family="Cambria Math,Cambria Math_MSFontService,sans-serif" font-weight="400" font-size="18" transform="translate(236.761 308)">10</text><text fill="#4B5E68" font-family="Cambria Math,Cambria Math_MSFontService,sans-serif" font-weight="400" font-size="24" transform="translate(258.088 304)">(</text><text fill="#4B5E68" font-family="Cambria Math,Cambria Math_MSFontService,sans-serif" font-weight="400" font-size="24" transform="translate(268.088 304)">𝐴</text><text fill="#4B5E68" font-family="Cambria Math,Cambria Math_MSFontService,sans-serif" font-weight="400" font-size="18" transform="translate(283.254 308)">𝑖</text><text fill="#4B5E68" font-family="Cambria Math,Cambria Math_MSFontService,sans-serif" font-weight="400" font-size="24" transform="translate(291.014 304)">)</text><text fill="#4B5E68" font-family="Cambria Math,Cambria Math_MSFontService,sans-serif" font-weight="400" font-size="24" transform="translate(301.014 304)"></text><text fill="#4B5E68" font-family="Cambria Math,Cambria Math_MSFontService,sans-serif" font-weight="400" font-size="24" transform="translate(306.348 304)"></text><text fill="#4B5E68" font-family="Cambria Math,Cambria Math_MSFontService,sans-serif" font-weight="400" font-size="24" transform="translate(311.681 304)">~</text><text fill="#4B5E68" font-family="Cambria Math,Cambria Math_MSFontService,sans-serif" font-weight="400" font-size="24" transform="translate(328.848 304)"></text><text fill="#4B5E68" font-family="Cambria Math,Cambria Math_MSFontService,sans-serif" font-weight="400" font-size="24" transform="translate(334.181 304)"></text><text fill="#4B5E68" font-family="Cambria Math,Cambria Math_MSFontService,sans-serif" font-weight="400" font-size="24" transform="translate(339.514 304)">𝑁</text><path d="M417.056 285.627C419.337 286.228 421.089 287.527 422.312 289.523 423.535 291.519 424.146 293.928 424.146 296.748 424.146 299.576 423.537 301.984 422.318 303.972 421.099 305.961 419.345 307.256 417.056 307.857L416.775 306.955C418.58 306.353 419.921 305.166 420.8 303.392 421.679 301.619 422.119 299.365 422.119 296.631 422.119 293.99 421.681 291.797 420.806 290.051 419.931 288.305 418.576 287.131 416.74 286.529ZM366.8 285.627 367.117 286.529C365.289 287.131 363.935 288.305 363.056 290.051 362.177 291.797 361.738 293.99 361.738 296.631 361.738 299.365 362.177 301.619 363.056 303.392 363.935 305.166 365.277 306.353 367.082 306.955L366.8 307.857C364.511 307.256 362.757 305.961 361.539 303.972 360.32 301.984 359.711 299.576 359.711 296.748 359.711 293.928 360.322 291.519 361.544 289.523 362.767 287.527 364.519 286.228 366.8 285.627Z" fill="#4B5E68" fill-rule="evenodd"/><text fill="#4B5E68" font-family="Cambria Math,Cambria Math_MSFontService,sans-serif" font-weight="400" font-size="24" transform="translate(367.561 304)">μ</text><text fill="#4B5E68" font-family="Cambria Math,Cambria Math_MSFontService,sans-serif" font-weight="400" font-size="24" transform="translate(380.728 304)">,</text><text fill="#4B5E68" font-family="Cambria Math,Cambria Math_MSFontService,sans-serif" font-weight="400" font-size="24" transform="translate(389.728 304)">𝜎</text><text fill="#4B5E68" font-family="Cambria Math,Cambria Math_MSFontService,sans-serif" font-weight="400" font-size="18" transform="translate(402.088 308)">𝑣</text><text fill="#4B5E68" font-family="Cambria Math,Cambria Math_MSFontService,sans-serif" font-weight="400" font-size="18" transform="translate(405.134 295)">2</text><text fill="#4B5E68" font-family="Cambria Math,Cambria Math_MSFontService,sans-serif" font-weight="400" font-size="24" transform="translate(426.254 304)"></text><text fill="#4B5E68" font-family="Cambria Math,Cambria Math_MSFontService,sans-serif" font-weight="400" font-size="24" transform="translate(431.588 304)"></text><text fill="#4B5E68" font-family="Cambria Math,Cambria Math_MSFontService,sans-serif" font-weight="400" font-size="24" transform="translate(436.921 304)"></text><text fill="#4B5E68" font-family="Cambria Math,Cambria Math_MSFontService,sans-serif" font-weight="400" font-size="24" transform="translate(442.254 304)"></text><text fill="#4B5E68" font-family="Cambria Math,Cambria Math_MSFontService,sans-serif" font-weight="400" font-size="24" transform="translate(447.588 304)"></text><text fill="#4B5E68" font-family="Cambria Math,Cambria Math_MSFontService,sans-serif" font-weight="400" font-size="24" transform="translate(452.921 304)"></text><text fill="#4B5E68" font-family="Cambria Math,Cambria Math_MSFontService,sans-serif" font-weight="400" font-size="24" transform="translate(458.254 304)"></text><text fill="#4B5E68" font-family="Arial,Arial_MSFontService,sans-serif" font-weight="400" font-size="24" transform="translate(59.9815 544)">3. Compare with population</text><text fill="#4B5E68" font-family="Arial,Arial_MSFontService,sans-serif" font-weight="400" font-size="24" transform="translate(351.982 544)">-</text><text fill="#4B5E68" font-family="Arial,Arial_MSFontService,sans-serif" font-weight="400" font-size="24" transform="translate(359.982 544)">level mean</text><text fill="#4B5E68" font-family="Cambria Math,Cambria Math_MSFontService,sans-serif" font-weight="400" font-size="24" transform="translate(185.348 447)">μ</text><text fill="#4B5E68" font-family="Cambria Math,Cambria Math_MSFontService,sans-serif" font-weight="400" font-size="18" transform="translate(198.514 452)">𝑠𝑎𝑚𝑝𝑙𝑒</text><text fill="#4B5E68" font-family="Cambria Math,Cambria Math_MSFontService,sans-serif" font-weight="400" font-size="24" transform="translate(269.201 447)">=</text><text fill="#4B5E68" font-family="Cambria Math,Cambria Math_MSFontService,sans-serif" font-weight="400" font-size="24" transform="translate(290.534 447)"></text><text fill="#4B5E68" font-family="Cambria Math,Cambria Math_MSFontService,sans-serif" font-weight="400" font-size="24" transform="translate(299.654 429)">1</text><text fill="#4B5E68" font-family="Cambria Math,Cambria Math_MSFontService,sans-serif" font-weight="400" font-size="24" transform="translate(299.201 463)">𝑛</text><path d="M299.434 439.304 313.434 439.304 313.434 441.304 299.434 441.304Z" fill="#4B5E68" fill-rule="evenodd"/><path d="M5.47266-28.2305 19.4531-9.24609 19.4531-7.82812 4.35938 12.6562 24.6914 12.6562C25.5898 12.6562 26.2773 12.3398 26.7539 11.707 27.2305 11.0742 27.6406 9.66016 27.9844 7.46484L29.7188 7.46484 29.1211 16.0547 0.304688 16.0547 0.304688 14.8945 16.7227-7.35938 0.785156-28.6523 0.785156-29.7656 29.0859-29.7656 29.0859-22.8281 27.5391-22.8281C27.3594-24.4922 26.9961-25.8086 26.4492-26.7773 25.9023-27.7461 25.0742-28.2305 23.9648-28.2305Z" fill="#4B5E68" transform="translate(317.448 447)"/><text fill="#000000" fill-opacity="0" font-family="Arial,Arial_MSFontService,sans-serif" font-size="45.8203" x="0.304688" y="10.3271">෍</text><text fill="#4B5E68" font-family="Cambria Math,Cambria Math_MSFontService,sans-serif" font-weight="400" font-size="24" transform="translate(353.261 447)">𝐴</text><text fill="#4B5E68" font-family="Cambria Math,Cambria Math_MSFontService,sans-serif" font-weight="400" font-size="18" transform="translate(368.428 452)">𝑖</text><text fill="#4B5E68" font-family="Cambria Math,Cambria Math_MSFontService,sans-serif" font-weight="400" font-size="18" transform="translate(327.534 412)">𝑛</text><text fill="#4B5E68" font-family="Cambria Math,Cambria Math_MSFontService,sans-serif" font-weight="400" font-size="18" transform="translate(318.554 478)">𝑖</text><text fill="#4B5E68" font-family="Cambria Math,Cambria Math_MSFontService,sans-serif" font-weight="400" font-size="18" transform="translate(325.321 478)">=</text><text fill="#4B5E68" font-family="Cambria Math,Cambria Math_MSFontService,sans-serif" font-weight="400" font-size="18" transform="translate(337.988 478)">1</text><text fill="#4B5E68" font-family="Arial,Arial_MSFontService,sans-serif" font-weight="400" font-size="24" transform="translate(54.6546 212)">1. Draw</text><text fill="#4B5E68" font-family="Arial,Arial_MSFontService,sans-serif" font-style="italic" font-weight="400" font-size="24" transform="translate(143.988 212)">n</text><text fill="#4B5E68" font-family="Arial,Arial_MSFontService,sans-serif" font-weight="400" font-size="24" transform="translate(163.988 212)">samples from the distribution</text><text fill="#4B5E68" font-family="Arial,Arial_MSFontService,sans-serif" font-weight="400" font-size="24" transform="translate(59.9815 363)">2. Calculate samples mean</text><text fill="#4B5E68" font-family="Cambria Math,Cambria Math_MSFontService,sans-serif" font-weight="400" font-size="24" transform="translate(196.96 621)">μ</text><text fill="#4B5E68" font-family="Cambria Math,Cambria Math_MSFontService,sans-serif" font-weight="400" font-size="18" transform="translate(210.127 626)">𝑝𝑜𝑝</text><text fill="#4B5E68" font-family="Cambria Math,Cambria Math_MSFontService,sans-serif" font-weight="400" font-size="24" transform="translate(250.334 621)">=</text><text fill="#4B5E68" font-family="Cambria Math,Cambria Math_MSFontService,sans-serif" font-weight="400" font-size="24" transform="translate(271.667 621)"></text><text fill="#4B5E68" font-family="Cambria Math,Cambria Math_MSFontService,sans-serif" font-weight="400" font-size="24" transform="translate(280.787 603)">1</text><text fill="#4B5E68" font-family="Cambria Math,Cambria Math_MSFontService,sans-serif" font-weight="400" font-size="24" transform="translate(280.334 637)">𝑛</text><path d="M280.68 613.001 294.68 613.001 294.68 615.001 280.68 615.001Z" fill="#4B5E68" fill-rule="evenodd"/><path d="M5.47266-28.2305 19.4531-9.24609 19.4531-7.82812 4.35938 12.6562 24.6914 12.6562C25.5898 12.6562 26.2773 12.3398 26.7539 11.707 27.2305 11.0742 27.6406 9.66016 27.9844 7.46484L29.7188 7.46484 29.1211 16.0547 0.304688 16.0547 0.304688 14.8945 16.7227-7.35938 0.785156-28.6523 0.785156-29.7656 29.0859-29.7656 29.0859-22.8281 27.5391-22.8281C27.3594-24.4922 26.9961-25.8086 26.4492-26.7773 25.9023-27.7461 25.0742-28.2305 23.9648-28.2305Z" fill="#4B5E68" transform="translate(298.58 621)"/><text fill="#000000" fill-opacity="0" font-family="Arial,Arial_MSFontService,sans-serif" font-size="45.8203" x="0.304688" y="10.3271">෍</text><text fill="#4B5E68" font-family="Cambria Math,Cambria Math_MSFontService,sans-serif" font-weight="400" font-size="24" transform="translate(334.394 621)">𝐴</text><text fill="#4B5E68" font-family="Cambria Math,Cambria Math_MSFontService,sans-serif" font-weight="400" font-size="18" transform="translate(349.56 626)">𝑖</text><text fill="#4B5E68" font-family="Cambria Math,Cambria Math_MSFontService,sans-serif" font-weight="400" font-size="18" transform="translate(308.667 585)">𝑛</text><text fill="#4B5E68" font-family="Cambria Math,Cambria Math_MSFontService,sans-serif" font-weight="400" font-size="18" transform="translate(299.687 652)">𝑖</text><text fill="#4B5E68" font-family="Cambria Math,Cambria Math_MSFontService,sans-serif" font-weight="400" font-size="18" transform="translate(306.454 652)">=</text><text fill="#4B5E68" font-family="Cambria Math,Cambria Math_MSFontService,sans-serif" font-weight="400" font-size="18" transform="translate(319.12 652)">1</text><text fill="#4B5E68" font-family="Cambria Math,Cambria Math_MSFontService,sans-serif" font-weight="400" font-size="24" transform="translate(359.32 621)"></text><text fill="#4B5E68" font-family="Cambria Math,Cambria Math_MSFontService,sans-serif" font-weight="400" font-size="24" transform="translate(364.654 621)"></text><text fill="#4B5E68" font-family="Cambria Math,Cambria Math_MSFontService,sans-serif" font-weight="400" font-size="24" transform="translate(371.987 621)">(</text><text fill="#4B5E68" font-family="Cambria Math,Cambria Math_MSFontService,sans-serif" font-weight="400" font-size="24" transform="translate(381.987 621)">𝑛</text><text fill="#4B5E68" font-family="Cambria Math,Cambria Math_MSFontService,sans-serif" font-weight="400" font-size="24" transform="translate(402.9 621)">→</text><text fill="#4B5E68" font-family="Cambria Math,Cambria Math_MSFontService,sans-serif" font-weight="400" font-size="24" transform="translate(429.734 621)">∞</text><text fill="#4B5E68" font-family="Cambria Math,Cambria Math_MSFontService,sans-serif" font-weight="400" font-size="24" transform="translate(450.067 621)">)</text><text fill="#FFFFFF" font-family="Arial,Arial_MSFontService,sans-serif" font-weight="400" font-size="24" transform="translate(59.9815 250)">‘(</text><text fill="#4B5E68" font-family="Arial,Arial_MSFontService,sans-serif" font-style="italic" font-weight="400" font-size="24" transform="translate(79.9815 250)">(n</text><text fill="#4B5E68" font-family="Arial,Arial_MSFontService,sans-serif" font-weight="400" font-size="24" transform="translate(107.982 250)">corresponds to the number of shedding individuals,</text><text fill="#4B5E68" font-family="Arial,Arial_MSFontService,sans-serif" font-style="italic" font-weight="400" font-size="24" transform="translate(657.315 250)">I</text><text fill="#4B5E68" font-family="Arial,Arial_MSFontService,sans-serif" font-weight="400" font-size="16" transform="translate(663.982 255)">shed</text><text fill="#4B5E68" font-family="Arial,Arial_MSFontService,sans-serif" font-weight="400" font-size="24" transform="translate(698.482 250)">)</text><path d="M795 320 795 380.858 792 380.858 792 320ZM789 321.5 793.5 312.5 798 321.5ZM798 379.358 793.5 388.358 789 379.358Z" fill="#A0234E"/><text fill="#4B5E68" font-family="Arial,Arial_MSFontService,sans-serif" font-weight="400" font-size="24" transform="translate(95.1446 136)">Using population</text><text fill="#4B5E68" font-family="Arial,Arial_MSFontService,sans-serif" font-weight="400" font-size="24" transform="translate(273.811 136)">-</text><text fill="#4B5E68" font-family="Arial,Arial_MSFontService,sans-serif" font-weight="400" font-size="24" transform="translate(281.811 136)">level shedding load may causes biased estimation when infected population is small</text><text fill="#4B5E68" font-family="Cambria Math,Cambria Math_MSFontService,sans-serif" font-weight="400" font-size="24" transform="translate(862.889 234)">𝑙𝑜𝑔</text><text fill="#4B5E68" font-family="Cambria Math,Cambria Math_MSFontService,sans-serif" font-weight="400" font-size="18" transform="translate(896.516 239)">10</text><text fill="#4B5E68" font-family="Cambria Math,Cambria Math_MSFontService,sans-serif" font-weight="400" font-size="24" transform="translate(917.842 234)">(</text><text fill="#4B5E68" font-family="Cambria Math,Cambria Math_MSFontService,sans-serif" font-weight="400" font-size="24" transform="translate(927.842 234)">𝐴</text><text fill="#4B5E68" font-family="Cambria Math,Cambria Math_MSFontService,sans-serif" font-weight="400" font-size="18" transform="translate(943.009 239)">𝑖</text><text fill="#4B5E68" font-family="Cambria Math,Cambria Math_MSFontService,sans-serif" font-weight="400" font-size="24" transform="translate(950.769 234)">)</text><text fill="#4B5E68" font-family="Cambria Math,Cambria Math_MSFontService,sans-serif" font-weight="400" font-size="24" transform="translate(960.769 234)"></text><text fill="#4B5E68" font-family="Cambria Math,Cambria Math_MSFontService,sans-serif" font-weight="400" font-size="24" transform="translate(966.102 234)"></text><text fill="#4B5E68" font-family="Cambria Math,Cambria Math_MSFontService,sans-serif" font-weight="400" font-size="24" transform="translate(971.435 234)">~</text><text fill="#4B5E68" font-family="Cambria Math,Cambria Math_MSFontService,sans-serif" font-weight="400" font-size="24" transform="translate(988.602 234)"></text><text fill="#4B5E68" font-family="Cambria Math,Cambria Math_MSFontService,sans-serif" font-weight="400" font-size="24" transform="translate(993.935 234)"></text><text fill="#4B5E68" font-family="Cambria Math,Cambria Math_MSFontService,sans-serif" font-weight="400" font-size="24" transform="translate(999.269 234)">𝑁</text><path d="M1093.24 216.087C1095.52 216.689 1097.27 217.988 1098.49 219.984 1099.72 221.98 1100.33 224.388 1100.33 227.208 1100.33 230.037 1099.72 232.445 1098.5 234.433 1097.28 236.421 1095.53 237.716 1093.24 238.318L1092.96 237.415C1094.76 236.814 1096.1 235.626 1096.98 233.853 1097.86 232.08 1098.3 229.826 1098.3 227.091 1098.3 224.451 1097.86 222.257 1096.99 220.511 1096.11 218.765 1094.76 217.591 1092.92 216.99ZM1026.55 216.087 1026.87 216.99C1025.04 217.591 1023.69 218.765 1022.81 220.511 1021.93 222.257 1021.49 224.451 1021.49 227.091 1021.49 229.826 1021.93 232.08 1022.81 233.853 1023.69 235.626 1025.03 236.814 1026.84 237.415L1026.55 238.318C1024.27 237.716 1022.51 236.421 1021.29 234.433 1020.07 232.445 1019.46 230.037 1019.46 227.208 1019.46 224.388 1020.08 221.98 1021.3 219.984 1022.52 217.988 1024.27 216.689 1026.55 216.087Z" fill="#4B5E68" fill-rule="evenodd"/><text fill="#4B5E68" font-family="Cambria Math,Cambria Math_MSFontService,sans-serif" font-weight="400" font-size="24" transform="translate(1027.32 234)">5</text><text fill="#4B5E68" font-family="Cambria Math,Cambria Math_MSFontService,sans-serif" font-weight="400" font-size="24" transform="translate(1040.65 234)">,</text><text fill="#4B5E68" font-family="Cambria Math,Cambria Math_MSFontService,sans-serif" font-weight="400" font-size="24" transform="translate(1049.65 234)">1</text><text fill="#4B5E68" font-family="Cambria Math,Cambria Math_MSFontService,sans-serif" font-weight="400" font-size="24" transform="translate(1062.98 234)">.</text><text fill="#4B5E68" font-family="Cambria Math,Cambria Math_MSFontService,sans-serif" font-weight="400" font-size="24" transform="translate(1067.98 234)">2</text><text fill="#4B5E68" font-family="Cambria Math,Cambria Math_MSFontService,sans-serif" font-weight="400" font-size="18" transform="translate(1081.32 225)">2</text><text fill="#4B5E68" font-family="Cambria Math,Cambria Math_MSFontService,sans-serif" font-weight="400" font-size="24" transform="translate(1102.44 234)"></text><text fill="#4B5E68" font-family="Cambria Math,Cambria Math_MSFontService,sans-serif" font-weight="400" font-size="24" transform="translate(1107.77 234)"></text><text fill="#4B5E68" font-family="Cambria Math,Cambria Math_MSFontService,sans-serif" font-weight="400" font-size="24" transform="translate(1113.1 234)"></text><text fill="#4B5E68" font-family="Cambria Math,Cambria Math_MSFontService,sans-serif" font-weight="400" font-size="24" transform="translate(1118.44 234)"></text><text fill="#4B5E68" font-family="Cambria Math,Cambria Math_MSFontService,sans-serif" font-weight="400" font-size="24" transform="translate(1123.77 234)"></text><text fill="#4B5E68" font-family="Cambria Math,Cambria Math_MSFontService,sans-serif" font-weight="400" font-size="24" transform="translate(1129.1 234)"></text><text fill="#4B5E68" font-family="Cambria Math,Cambria Math_MSFontService,sans-serif" font-weight="400" font-size="24" transform="translate(1134.44 234)"></text><text fill="#4B5E68" font-family="Arial,Arial_MSFontService,sans-serif" font-weight="400" font-size="19" transform="translate(802.313 523)">(Shadows denote 50% and 95% simulation interval)</text></g></svg>