<svg width="1282" height="723" xmlns="http://www.w3.org/2000/svg" xmlns:xlink="http://www.w3.org/1999/xlink" overflow="hidden"><g transform="translate(1 2)"><rect x="0" y="0" width="1280" height="720" fill="#FFFFFF"/><rect x="0.500053" y="0.500053" width="321" height="37" stroke="#7F7F7F" stroke-width="1.33333" stroke-miterlimit="8" fill="#D9D9D9"/><text fill="#A6A6A6" font-family="Arial,Arial_MSFontService,sans-serif" font-weight="700" font-size="21" transform="translate(98.3799 27)">Introduction</text><rect x="320.5" y="0.500053" width="321" height="37" stroke="#7F7F7F" stroke-width="1.33333" stroke-miterlimit="8" fill="#D9D9D9"/><text fill="#A6A6A6" font-family="Arial,Arial_MSFontService,sans-serif" font-weight="700" font-size="21" transform="translate(376.718 27)">Materials &amp; Methods</text><rect x="639.5" y="0.500053" width="321" height="37" stroke="#7F7F7F" stroke-width="1.33333" stroke-miterlimit="8" fill="#4B5E68"/><text fill="#FFFFFF" font-family="Arial,Arial_MSFontService,sans-serif" font-weight="700" font-size="21" transform="translate(690.449 27)">Results &amp; Discussion</text><rect x="959.5" y="0.500053" width="321" height="37" stroke="#7F7F7F" stroke-width="1.33333" stroke-miterlimit="8" fill="#D9D9D9"/><text fill="#A6A6A6" font-family="Arial,Arial_MSFontService,sans-serif" font-weight="700" font-size="21" transform="translate(1061.32 27)">Conclusion</text><text fill="#4B5E68" font-family="Arial,Arial_MSFontService,sans-serif" font-weight="700" font-size="37" transform="translate(91.4401 88)">Successful real</text><text fill="#4B5E68" font-family="Arial,Arial_MSFontService,sans-serif" font-weight="700" font-size="37" transform="translate(365.773 88)">-</text><text fill="#4B5E68" font-family="Arial,Arial_MSFontService,sans-serif" font-weight="700" font-size="37" transform="translate(378.273 88)">world application to estimate COVID</text><text fill="#4B5E68" font-family="Arial,Arial_MSFontService,sans-serif" font-weight="700" font-size="37" transform="translate(1021.77 88)">-</text><text fill="#4B5E68" font-family="Arial,Arial_MSFontService,sans-serif" font-weight="700" font-size="37" transform="translate(1034.27 88)">19 cases</text><path d="M75.5001 164.5 1205.58 164.5" stroke="#4B5E68" stroke-miterlimit="8" stroke-dasharray="8 3" fill="none" fill-rule="evenodd"/><text fill="#4B5E68" font-family="Arial,Arial_MSFontService,sans-serif" font-weight="400" font-size="24" transform="translate(57.0736 138)">The model provide reasonable estimates, with most observations falling within the 95% credible intervals.</text><rect x="20" y="193" width="458" height="503" fill="#F2F2F2"/><text fill="#4B5E68" font-family="Arial,Arial_MSFontService,sans-serif" font-weight="700" font-size="24" transform="translate(73.0167 216)">1. Model fitting</text><path d="M499.5 221.5 499.5 675.043" stroke="#5F696E" stroke-width="1.33333" stroke-miterlimit="8" stroke-dasharray="5.33333 4" fill="none" fill-rule="evenodd"/><text fill="#4B5E68" font-family="Arial,Arial_MSFontService,sans-serif" font-weight="400" font-size="21" transform="translate(61.0673 274)">1.0</text><text fill="#4B5E68" font-family="Arial,Arial_MSFontService,sans-serif" font-weight="400" font-size="21" transform="translate(61.0673 312)">0.8</text><text fill="#4B5E68" font-family="Arial,Arial_MSFontService,sans-serif" font-weight="400" font-size="21" transform="translate(61.0673 349)">0.6</text><text fill="#4B5E68" font-family="Arial,Arial_MSFontService,sans-serif" font-weight="400" font-size="21" transform="translate(61.0673 384)">0.4</text><text fill="#4B5E68" font-family="Arial,Arial_MSFontService,sans-serif" font-weight="400" font-size="21" transform="translate(61.0673 422)">0.2</text><text fill="#4B5E68" font-family="Arial,Arial_MSFontService,sans-serif" font-weight="400" font-size="21" transform="translate(61.0673 457)">0.0</text><text fill="#4B5E68" font-family="Arial,Arial_MSFontService,sans-serif" font-weight="400" font-size="21" transform="translate(166.31 683)">Jan</text><text fill="#4B5E68" font-family="Arial,Arial_MSFontService,sans-serif" font-weight="400" font-size="21" transform="translate(266.635 683)">Feb</text><text fill="#4B5E68" font-family="Arial,Arial_MSFontService,sans-serif" font-weight="400" font-size="21" transform="translate(361.902 683)">Mar</text><path d="M107.5 428.5 451.5 428.5" stroke="#EBEBEB" stroke-width="0.711706" stroke-linejoin="round" stroke-miterlimit="10" fill="none" fill-rule="evenodd"/><path d="M107.5 391.5 451.5 391.5" stroke="#EBEBEB" stroke-width="0.711706" stroke-linejoin="round" stroke-miterlimit="10" fill="none" fill-rule="evenodd"/><path d="M107.5 355.5 451.5 355.5" stroke="#EBEBEB" stroke-width="0.711706" stroke-linejoin="round" stroke-miterlimit="10" fill="none" fill-rule="evenodd"/><path d="M107.5 319.5 451.5 319.5" stroke="#EBEBEB" stroke-width="0.711706" stroke-linejoin="round" stroke-miterlimit="10" fill="none" fill-rule="evenodd"/><path d="M107.5 283.5 451.5 283.5" stroke="#EBEBEB" stroke-width="0.711706" stroke-linejoin="round" stroke-miterlimit="10" fill="none" fill-rule="evenodd"/><path d="M128.5 455.5 128.5 250.5" stroke="#EBEBEB" stroke-width="0.711706" stroke-linejoin="round" stroke-miterlimit="10" fill="none" fill-rule="evenodd"/><path d="M236.5 455.5 236.5 250.5" stroke="#EBEBEB" stroke-width="0.711706" stroke-linejoin="round" stroke-miterlimit="10" fill="none" fill-rule="evenodd"/><path d="M338.5 455.5 338.5 250.5" stroke="#EBEBEB" stroke-width="0.711706" stroke-linejoin="round" stroke-miterlimit="10" fill="none" fill-rule="evenodd"/><path d="M441.5 455.5 441.5 250.5" stroke="#EBEBEB" stroke-width="0.711706" stroke-linejoin="round" stroke-miterlimit="10" fill="none" fill-rule="evenodd"/><path d="M107.5 446.5 451.5 446.5" stroke="#EBEBEB" stroke-width="1.42341" stroke-linejoin="round" stroke-miterlimit="10" fill="none" fill-rule="evenodd"/><path d="M107.5 409.5 451.5 409.5" stroke="#EBEBEB" stroke-width="1.42341" stroke-linejoin="round" stroke-miterlimit="10" fill="none" fill-rule="evenodd"/><path d="M107.5 373.5 451.5 373.5" stroke="#EBEBEB" stroke-width="1.42341" stroke-linejoin="round" stroke-miterlimit="10" fill="none" fill-rule="evenodd"/><path d="M107.5 337.5 451.5 337.5" stroke="#EBEBEB" stroke-width="1.42341" stroke-linejoin="round" stroke-miterlimit="10" fill="none" fill-rule="evenodd"/><path d="M107.5 301.5 451.5 301.5" stroke="#EBEBEB" stroke-width="1.42341" stroke-linejoin="round" stroke-miterlimit="10" fill="none" fill-rule="evenodd"/><path d="M107.5 265.5 451.5 265.5" stroke="#EBEBEB" stroke-width="1.42341" stroke-linejoin="round" stroke-miterlimit="10" fill="none" fill-rule="evenodd"/><path d="M182.5 455.5 182.5 250.5" stroke="#EBEBEB" stroke-width="1.42341" stroke-linejoin="round" stroke-miterlimit="10" fill="none" fill-rule="evenodd"/><path d="M290.5 455.5 290.5 250.5" stroke="#EBEBEB" stroke-width="1.42341" stroke-linejoin="round" stroke-miterlimit="10" fill="none" fill-rule="evenodd"/><path d="M387.5 455.5 387.5 250.5" stroke="#EBEBEB" stroke-width="1.42341" stroke-linejoin="round" stroke-miterlimit="10" fill="none" fill-rule="evenodd"/><path d="M122 318.743 125.492 310.113 128.983 389.651 132.469 329.176 135.96 303.948 139.446 315.203 142.937 284.417 146.422 311.439 149.914 275.979 153.406 335.966 156.891 278.974 160.383 272.949 163.868 306.043 167.36 275.86 170.845 269.684 174.337 267.994 177.822 266.819 181.314 266.274 184.805 265.863 188.29 265.582 191.782 275.08 195.267 282.805 198.759 269.2 202.244 281.245 205.736 269.294 209.228 267.812 212.713 267.157 216.205 269.59 219.69 279.218 223.181 268.759 226.667 265.65 230.158 265.634 233.644 265.494 237.135 265.104 240.627 265.062 244.112 265.068 247.604 265.016 251.089 265.073 254.581 265.016 258.066 265.005 261.558 265.021 265.049 265.005 268.535 265.01 272.026 265 275.512 265.016 279.003 265 282.489 265 285.98 265.005 289.472 265 292.957 265.005 296.449 265 299.934 265.016 303.426 265.005 306.911 265 310.403 265.01 313.888 265.005 317.38 265.016 320.871 265.031 324.357 265.01 327.848 265.005 338.31 265.005 341.802 265.026 345.294 265.01 348.779 265.016 352.271 265.005 355.756 265.005 359.248 265.042 362.733 265.016 366.224 265.01 369.71 265.062 373.201 265.062 376.693 265.047 380.178 265.036 383.67 265.036 387.155 265.026 390.647 265.042 394.132 265.026 397.624 265.031 401.116 265.016 404.601 265.01 408.092 265.062 411.578 265.036 415.069 265.125 418.554 265.083 422.046 265.094 425.538 265.068 429.023 265.057 432.515 265.166 436 265.114 436 268.166 432.515 267.23 429.023 267.147 425.538 266.586 422.046 266.175 418.554 266.991 415.069 266.456 411.578 266.107 408.092 265.811 404.601 265.629 401.116 265.504 397.624 265.39 394.132 265.738 390.647 265.546 387.155 265.78 383.67 265.582 380.178 266.991 376.693 266.44 373.201 266.014 369.71 268.311 366.224 265.972 362.733 265.717 359.248 265.546 355.756 265.369 352.271 265.286 348.779 265.234 345.294 265.379 341.802 265.302 338.31 265.25 334.825 265.192 331.333 265.525 327.848 265.421 324.357 265.354 320.871 265.275 317.38 265.229 313.888 265.26 310.403 265.208 306.911 265.275 303.426 265.255 299.934 265.229 296.449 265.177 292.957 265.151 289.472 265.198 285.98 265.177 282.489 265.255 279.003 265.281 275.512 265.26 272.026 265.25 268.535 265.234 265.049 265.395 261.558 265.395 258.066 266.019 254.581 266.055 251.089 266.045 247.604 266.305 244.112 266.076 240.627 268.01 237.135 267.293 233.644 294.907 230.158 284.9 226.667 279.275 223.181 392.12 219.69 375.62 216.205 365.098 212.713 420.297 209.228 413.351 205.736 404.514 202.244 394.491 198.759 403.417 195.267 391.33 191.782 396.513 188.29 431.011 184.805 428.625 181.314 424.783 177.822 417.879 174.337 410.284 170.845 401.285 167.36 388.201 163.868 429.103 160.383 442.728 156.891 440.919 153.406 437.956 149.914 435.887 146.422 429.851 142.937 439.672 139.446 436.391 135.96 445 132.469 444.626 128.983 444.064 125.492 441.782 122 439.38Z" fill="#0570B0" fill-rule="evenodd" fill-opacity="0.2"/><path d="M122 367.012 125.492 357.972 128.983 383.826 132.469 373.029 135.96 362.747 139.446 342.312 142.937 328.426 146.422 326.455 149.914 312.937 153.406 333.814 156.891 321.716 160.383 309.832 163.868 318.065 167.36 297.865 170.845 288.638 174.337 281.393 177.822 276.161 181.314 272.375 184.805 269.587 188.29 267.845 191.782 278.127 195.267 285.955 198.759 282.2 202.244 286.979 205.736 283.006 209.228 279.661 212.713 276.551 216.205 276 219.69 282.865 223.181 279.526 226.667 267.502 230.158 266.649 233.644 266.071 237.135 265.489 240.627 265.208 244.112 265.088 247.604 265.031 251.089 265.047 254.581 265.021 258.066 265.005 261.558 265.016 265.049 265.005 268.535 265.005 272.026 265 275.512 265.01 279.003 265 282.489 265 285.98 265.005 289.472 265 292.957 265.005 296.449 265 299.934 265.01 303.426 265.005 306.911 265 310.403 265.01 313.888 265.005 317.38 265.01 320.871 265.026 324.357 265.021 327.848 265.016 331.333 265.016 334.825 265.01 338.31 265.005 341.802 265.016 348.779 265.016 352.271 265.01 355.756 265.005 359.248 265.031 362.733 265.031 366.224 265.026 369.71 265.057 373.201 265.062 376.693 265.062 380.178 265.057 383.67 265.042 387.155 265.036 390.647 265.042 394.132 265.036 401.116 265.026 404.601 265.016 408.092 265.052 411.578 265.047 415.069 265.114 418.554 265.109 422.046 265.109 425.538 265.099 429.023 265.094 432.515 265.177 436 265.166 436 267.491 432.515 266.924 429.023 266.675 425.538 266.316 422.046 266.051 418.554 266.363 415.069 266.092 411.578 265.775 408.092 265.655 404.601 265.468 401.116 265.411 397.624 265.364 394.132 265.593 390.647 265.499 387.155 265.686 383.67 265.572 380.178 266.43 376.693 266.129 373.201 265.874 369.71 266.654 366.224 265.65 362.733 265.52 359.248 265.421 355.756 265.291 352.271 265.244 348.779 265.213 345.294 265.307 341.802 265.265 338.31 265.234 334.825 265.203 331.333 265.432 327.848 265.343 324.357 265.286 320.871 265.239 317.38 265.198 313.888 265.187 310.403 265.166 306.911 265.156 303.426 265.14 299.934 265.135 296.449 265.104 292.957 265.104 289.472 265.12 285.98 265.125 282.489 265.135 279.003 265.146 275.512 265.166 272.026 265.14 268.535 265.166 265.049 265.208 261.558 265.255 258.066 265.328 254.581 265.426 251.089 265.551 247.604 265.609 244.112 265.863 240.627 267.262 237.135 268.079 233.644 286.906 230.158 288.664 226.667 290.667 223.181 376.425 219.69 370.496 216.205 365.992 212.713 396.87 209.228 391.862 205.736 385.798 202.244 380.758 198.759 386.817 195.267 381.039 191.782 388.627 188.29 406.908 184.805 404.391 181.314 400.163 177.822 396.158 174.337 395.164 170.845 392.964 167.36 390.125 163.868 423.255 160.383 435.217 156.891 432.715 153.406 429.974 149.914 428.237 146.422 425.377 142.937 436.98 139.446 434.661 135.96 445 132.469 444.714 128.983 444.132 125.492 441.978 122 440.376Z" fill="#BEBEBE" fill-rule="evenodd" fill-opacity="0.2"/><path d="M122.5 417.296 125.992 416.605 129.483 429.5 132.969 428.767 136.46 428.273 139.946 398.473 143.437 395.312 146.923 381.257 150.414 375.267 153.906 390.268 157.391 387.2 160.883 382.812 164.368 375.454 167.86 339.81 171.345 332.566 174.837 325.12 178.322 318.512 181.814 312.194 185.305 306.136 188.79 300.931 192.282 321.163 195.767 327.06 199.259 324.252 202.744 328.24 206.236 325.812 209.728 323.493 213.213 321.548 216.705 307.868 220.19 317.602 223.682 316.239 227.167 274.761 230.658 272.457 234.144 270.835 237.635 266.207 241.127 265.958 244.612 265.718 248.104 265.62 251.589 265.64 255.081 265.583 258.566 265.542 262.058 265.536 265.55 265.516 269.035 265.516 272.526 265.5 276.012 265.521 279.503 265.51 282.989 265.5 286.48 265.505 289.972 265.5 293.457 265.505 296.949 265.5 300.434 265.521 303.926 265.516 307.411 265.51 310.903 265.526 314.388 265.521 317.88 265.536 321.371 265.557 324.857 265.562 328.348 265.568 331.833 265.573 335.325 265.526 338.81 265.526 342.302 265.552 345.794 265.557 349.279 265.536 356.256 265.536 359.748 265.604 363.233 265.614 366.725 265.625 370.21 265.802 373.701 265.718 377.193 265.75 380.678 265.781 384.17 265.64 387.655 265.646 391.147 265.63 394.632 265.63 398.124 265.588 401.616 265.583 405.101 265.578 408.593 265.677 412.078 265.687 415.569 265.848 419.055 265.89 422.546 265.822 426.038 265.854 429.523 265.88 433.015 266.088 436.5 266.16" stroke="#4D4D4D" stroke-width="3" stroke-linejoin="round" stroke-miterlimit="10" fill="none" fill-rule="evenodd"/><path d="M122.5 396.944 125.992 413.026 129.483 433.933 132.969 437.488 136.46 439.5 139.946 390.976 143.437 397.531 146.923 384.084 150.414 383.314 153.906 405.848 157.391 402.776 160.883 393.211 164.368 375.787 167.86 324.509 171.345 319.596 174.837 312.74 178.322 305.141 181.814 297.109 185.305 290.913 188.79 286.214 192.282 320.922 195.767 328.854 199.259 322.372 202.744 329.904 206.236 322.471 209.728 315.006 213.213 308.826 216.705 298.736 220.19 318.094 223.682 315.505 227.167 268.764 230.658 269.986 234.144 271.202 237.635 265.963 241.127 265.947 244.612 265.744 248.104 265.677 251.589 265.713 255.081 265.63 258.566 265.583 262.058 265.568 265.55 265.542 269.035 265.536 272.526 265.521 276.012 265.542 279.503 265.521 282.989 265.5 286.48 265.521 289.972 265.51 293.457 265.516 296.949 265.51 300.434 265.531 303.926 265.521 307.411 265.516 310.903 265.531 314.388 265.526 317.88 265.536 321.371 265.557 331.833 265.557 335.325 265.526 338.81 265.526 342.302 265.557 345.794 265.557 349.279 265.536 352.771 265.536 356.256 265.542 359.748 265.614 363.233 265.62 366.725 265.625 370.21 265.978 373.701 265.729 377.193 265.77 380.678 265.802 384.17 265.62 387.655 265.635 391.147 265.625 394.632 265.635 398.124 265.583 401.616 265.588 405.101 265.588 408.593 265.703 412.078 265.708 415.569 265.9 419.055 265.932 422.546 265.802 426.038 265.833 429.523 265.869 433.015 266.098 436.5 266.155" stroke="#0570B0" stroke-width="3" stroke-linejoin="round" stroke-miterlimit="10" fill="none" fill-rule="evenodd"/><path d="M125.5 374.002C125.5 375.999 120.5 375.999 120.5 374.002 120.5 371.999 125.5 371.999 125.5 374.002" stroke="#0570B0" stroke-width="0.945407" stroke-linecap="round" stroke-linejoin="round" stroke-miterlimit="10" fill="#0570B0" fill-rule="evenodd"/><path d="M131.5 446.002C131.5 447.999 127.5 447.999 127.5 446.002 127.5 443.999 131.5 443.999 131.5 446.002" stroke="#0570B0" stroke-width="0.945407" stroke-linecap="round" stroke-linejoin="round" stroke-miterlimit="10" fill="#0570B0" fill-rule="evenodd"/><path d="M142.5 374.002C142.5 375.999 138.5 375.999 138.5 374.002 138.5 371.999 142.5 371.999 142.5 374.002" stroke="#0570B0" stroke-width="0.945407" stroke-linecap="round" stroke-linejoin="round" stroke-miterlimit="10" fill="#0570B0" fill-rule="evenodd"/><path d="M149.5 374.002C149.5 375.999 145.5 375.999 145.5 374.002 145.5 371.999 149.5 371.999 149.5 374.002" stroke="#0570B0" stroke-width="0.945407" stroke-linecap="round" stroke-linejoin="round" stroke-miterlimit="10" fill="#0570B0" fill-rule="evenodd"/><path d="M156.5 410C156.5 412 152.5 412 152.5 410 152.5 408 156.5 408 156.5 410" stroke="#0570B0" stroke-width="0.945407" stroke-linecap="round" stroke-linejoin="round" stroke-miterlimit="10" fill="#0570B0" fill-rule="evenodd"/><path d="M166.5 374.002C166.5 375.999 162.5 375.999 162.5 374.002 162.5 371.999 166.5 371.999 166.5 374.002" stroke="#0570B0" stroke-width="0.945407" stroke-linecap="round" stroke-linejoin="round" stroke-miterlimit="10" fill="#0570B0" fill-rule="evenodd"/><path d="M170.5 301.502C170.5 304.166 166.5 304.166 166.5 301.502 166.5 298.833 170.5 298.833 170.5 301.502" stroke="#0570B0" stroke-width="0.945407" stroke-linecap="round" stroke-linejoin="round" stroke-miterlimit="10" fill="#0570B0" fill-rule="evenodd"/><path d="M194.5 338C194.5 340 190.5 340 190.5 338 190.5 336 194.5 336 194.5 338" stroke="#0570B0" stroke-width="0.945407" stroke-linecap="round" stroke-linejoin="round" stroke-miterlimit="10" fill="#0570B0" fill-rule="evenodd"/><path d="M198.5 338C198.5 340 194.5 340 194.5 338 194.5 336 198.5 336 198.5 338" stroke="#0570B0" stroke-width="0.945407" stroke-linecap="round" stroke-linejoin="round" stroke-miterlimit="10" fill="#0570B0" fill-rule="evenodd"/><path d="M205.5 338C205.5 340 201.5 340 201.5 338 201.5 336 205.5 336 205.5 338" stroke="#0570B0" stroke-width="0.945407" stroke-linecap="round" stroke-linejoin="round" stroke-miterlimit="10" fill="#0570B0" fill-rule="evenodd"/><path d="M219.5 301.502C219.5 304.166 214.5 304.166 214.5 301.502 214.5 298.833 219.5 298.833 219.5 301.502" stroke="#0570B0" stroke-width="0.945407" stroke-linecap="round" stroke-linejoin="round" stroke-miterlimit="10" fill="#0570B0" fill-rule="evenodd"/><path d="M222.5 338C222.5 340 218.5 340 218.5 338 218.5 336 222.5 336 222.5 338" stroke="#0570B0" stroke-width="0.945407" stroke-linecap="round" stroke-linejoin="round" stroke-miterlimit="10" fill="#0570B0" fill-rule="evenodd"/><path d="M229.5 265C229.5 267 225.5 267 225.5 265 225.5 263 229.5 263 229.5 265" stroke="#0570B0" stroke-width="0.945407" stroke-linecap="round" stroke-linejoin="round" stroke-miterlimit="10" fill="#0570B0" fill-rule="evenodd"/><path d="M239.5 265C239.5 267 235.5 267 235.5 265 235.5 263 239.5 263 239.5 265" stroke="#0570B0" stroke-width="0.945407" stroke-linecap="round" stroke-linejoin="round" stroke-miterlimit="10" fill="#0570B0" fill-rule="evenodd"/><path d="M246.5 265C246.5 267 242.5 267 242.5 265 242.5 263 246.5 263 246.5 265" stroke="#0570B0" stroke-width="0.945407" stroke-linecap="round" stroke-linejoin="round" stroke-miterlimit="10" fill="#0570B0" fill-rule="evenodd"/><path d="M253.5 265C253.5 267 249.5 267 249.5 265 249.5 263 253.5 263 253.5 265" stroke="#0570B0" stroke-width="0.945407" stroke-linecap="round" stroke-linejoin="round" stroke-miterlimit="10" fill="#0570B0" fill-rule="evenodd"/><path d="M264.5 265C264.5 267 260.5 267 260.5 265 260.5 263 264.5 263 264.5 265" stroke="#0570B0" stroke-width="0.945407" stroke-linecap="round" stroke-linejoin="round" stroke-miterlimit="10" fill="#0570B0" fill-rule="evenodd"/><path d="M271.5 265C271.5 267 267.5 267 267.5 265 267.5 263 271.5 263 271.5 265" stroke="#0570B0" stroke-width="0.945407" stroke-linecap="round" stroke-linejoin="round" stroke-miterlimit="10" fill="#0570B0" fill-rule="evenodd"/><path d="M278.5 265C278.5 267 274.5 267 274.5 265 274.5 263 278.5 263 278.5 265" stroke="#0570B0" stroke-width="0.945407" stroke-linecap="round" stroke-linejoin="round" stroke-miterlimit="10" fill="#0570B0" fill-rule="evenodd"/><path d="M288.5 265C288.5 267 284.5 267 284.5 265 284.5 263 288.5 263 288.5 265" stroke="#0570B0" stroke-width="0.945407" stroke-linecap="round" stroke-linejoin="round" stroke-miterlimit="10" fill="#0570B0" fill-rule="evenodd"/><path d="M295.5 265C295.5 267 291.5 267 291.5 265 291.5 263 295.5 263 295.5 265" stroke="#0570B0" stroke-width="0.945407" stroke-linecap="round" stroke-linejoin="round" stroke-miterlimit="10" fill="#0570B0" fill-rule="evenodd"/><path d="M302.5 265C302.5 267 298.5 267 298.5 265 298.5 263 302.5 263 302.5 265" stroke="#0570B0" stroke-width="0.945407" stroke-linecap="round" stroke-linejoin="round" stroke-miterlimit="10" fill="#0570B0" fill-rule="evenodd"/><path d="M312.5 265C312.5 267 308.5 267 308.5 265 308.5 263 312.5 263 312.5 265" stroke="#0570B0" stroke-width="0.945407" stroke-linecap="round" stroke-linejoin="round" stroke-miterlimit="10" fill="#0570B0" fill-rule="evenodd"/><path d="M319.5 265C319.5 267 315.5 267 315.5 265 315.5 263 319.5 263 319.5 265" stroke="#0570B0" stroke-width="0.945407" stroke-linecap="round" stroke-linejoin="round" stroke-miterlimit="10" fill="#0570B0" fill-rule="evenodd"/><path d="M323.5 265C323.5 267 319.5 267 319.5 265 319.5 263 323.5 263 323.5 265" stroke="#0570B0" stroke-width="0.945407" stroke-linecap="round" stroke-linejoin="round" stroke-miterlimit="10" fill="#0570B0" fill-rule="evenodd"/><path d="M337.5 265C337.5 267 333.5 267 333.5 265 333.5 263 337.5 263 337.5 265" stroke="#0570B0" stroke-width="0.945407" stroke-linecap="round" stroke-linejoin="round" stroke-miterlimit="10" fill="#0570B0" fill-rule="evenodd"/><path d="M344.5 265C344.5 267 340.5 267 340.5 265 340.5 263 344.5 263 344.5 265" stroke="#0570B0" stroke-width="0.945407" stroke-linecap="round" stroke-linejoin="round" stroke-miterlimit="10" fill="#0570B0" fill-rule="evenodd"/><path d="M351.5 265C351.5 267 347.5 267 347.5 265 347.5 263 351.5 263 351.5 265" stroke="#0570B0" stroke-width="0.945407" stroke-linecap="round" stroke-linejoin="round" stroke-miterlimit="10" fill="#0570B0" fill-rule="evenodd"/><path d="M361.5 265C361.5 267 357.5 267 357.5 265 357.5 263 361.5 263 361.5 265" stroke="#0570B0" stroke-width="0.945407" stroke-linecap="round" stroke-linejoin="round" stroke-miterlimit="10" fill="#0570B0" fill-rule="evenodd"/><path d="M372.5 301.502C372.5 304.166 368.5 304.166 368.5 301.502 368.5 298.833 372.5 298.833 372.5 301.502" stroke="#0570B0" stroke-width="0.945407" stroke-linecap="round" stroke-linejoin="round" stroke-miterlimit="10" fill="#0570B0" fill-rule="evenodd"/><path d="M375.5 265C375.5 267 371.5 267 371.5 265 371.5 263 375.5 263 375.5 265" stroke="#0570B0" stroke-width="0.945407" stroke-linecap="round" stroke-linejoin="round" stroke-miterlimit="10" fill="#0570B0" fill-rule="evenodd"/><path d="M386.5 265C386.5 267 382.5 267 382.5 265 382.5 263 386.5 263 386.5 265" stroke="#0570B0" stroke-width="0.945407" stroke-linecap="round" stroke-linejoin="round" stroke-miterlimit="10" fill="#0570B0" fill-rule="evenodd"/><path d="M393.5 265C393.5 267 389.5 267 389.5 265 389.5 263 393.5 263 393.5 265" stroke="#0570B0" stroke-width="0.945407" stroke-linecap="round" stroke-linejoin="round" stroke-miterlimit="10" fill="#0570B0" fill-rule="evenodd"/><path d="M400.5 265C400.5 267 395.5 267 395.5 265 395.5 263 400.5 263 400.5 265" stroke="#0570B0" stroke-width="0.945407" stroke-linecap="round" stroke-linejoin="round" stroke-miterlimit="10" fill="#0570B0" fill-rule="evenodd"/><path d="M410.5 265C410.5 267 406.5 267 406.5 265 406.5 263 410.5 263 410.5 265" stroke="#0570B0" stroke-width="0.945407" stroke-linecap="round" stroke-linejoin="round" stroke-miterlimit="10" fill="#0570B0" fill-rule="evenodd"/><path d="M417.5 265C417.5 267 413.5 267 413.5 265 413.5 263 417.5 263 417.5 265" stroke="#0570B0" stroke-width="0.945407" stroke-linecap="round" stroke-linejoin="round" stroke-miterlimit="10" fill="#0570B0" fill-rule="evenodd"/><path d="M424.5 265C424.5 267 420.5 267 420.5 265 420.5 263 424.5 263 424.5 265" stroke="#0570B0" stroke-width="0.945407" stroke-linecap="round" stroke-linejoin="round" stroke-miterlimit="10" fill="#0570B0" fill-rule="evenodd"/><path d="M434.5 265C434.5 267 430.5 267 430.5 265 430.5 263 434.5 263 434.5 265" stroke="#0570B0" stroke-width="0.945407" stroke-linecap="round" stroke-linejoin="round" stroke-miterlimit="10" fill="#0570B0" fill-rule="evenodd"/><path d="M107.5 455.5 107.5 250.5" stroke="#000000" stroke-width="1.42341" stroke-linecap="square" stroke-linejoin="round" stroke-miterlimit="10" fill="none" fill-rule="evenodd"/><path d="M116.5 446.5 107.5 446.5" stroke="#000000" stroke-width="1.42341" stroke-linejoin="round" stroke-miterlimit="10" fill="none" fill-rule="evenodd"/><path d="M116.5 409.5 107.5 409.5" stroke="#000000" stroke-width="1.42341" stroke-linejoin="round" stroke-miterlimit="10" fill="none" fill-rule="evenodd"/><path d="M116.5 373.5 107.5 373.5" stroke="#000000" stroke-width="1.42341" stroke-linejoin="round" stroke-miterlimit="10" fill="none" fill-rule="evenodd"/><path d="M116.5 337.5 107.5 337.5" stroke="#000000" stroke-width="1.42341" stroke-linejoin="round" stroke-miterlimit="10" fill="none" fill-rule="evenodd"/><path d="M116.5 301.5 107.5 301.5" stroke="#000000" stroke-width="1.42341" stroke-linejoin="round" stroke-miterlimit="10" fill="none" fill-rule="evenodd"/><path d="M116.5 265.5 107.5 265.5" stroke="#000000" stroke-width="1.42341" stroke-linejoin="round" stroke-miterlimit="10" fill="none" fill-rule="evenodd"/><text fill="#4B5E68" font-family="Arial,Arial_MSFontService,sans-serif" font-weight="400" font-size="21" transform="translate(121.995 250)">(1) Detection rate</text><text fill="#4B5E68" font-family="Arial,Arial_MSFontService,sans-serif" font-weight="400" font-size="21" transform="translate(56.772 554)">10</text><text fill="#4B5E68" font-family="Arial,Arial_MSFontService,sans-serif" font-weight="400" font-size="14" transform="translate(80.4387 548)">3</text><text fill="#4B5E68" font-family="Arial,Arial_MSFontService,sans-serif" font-weight="400" font-size="21" transform="translate(56.772 613)">10</text><text fill="#4B5E68" font-family="Arial,Arial_MSFontService,sans-serif" font-weight="400" font-size="14" transform="translate(80.4387 607)">1</text><text fill="#4B5E68" font-family="Arial,Arial_MSFontService,sans-serif" font-weight="400" font-size="21" transform="translate(56.772 495)">10</text><text fill="#4B5E68" font-family="Arial,Arial_MSFontService,sans-serif" font-weight="400" font-size="14" transform="translate(80.4387 489)">5</text><path d="M105.5 647.5 450.5 647.5" stroke="#EBEBEB" stroke-width="0.711706" stroke-linejoin="round" stroke-miterlimit="10" fill="none" fill-rule="evenodd"/><path d="M105.5 618.5 450.5 618.5" stroke="#EBEBEB" stroke-width="0.711706" stroke-linejoin="round" stroke-miterlimit="10" fill="none" fill-rule="evenodd"/><path d="M105.5 588.5 450.5 588.5" stroke="#EBEBEB" stroke-width="0.711706" stroke-linejoin="round" stroke-miterlimit="10" fill="none" fill-rule="evenodd"/><path d="M105.5 559.5 450.5 559.5" stroke="#EBEBEB" stroke-width="0.711706" stroke-linejoin="round" stroke-miterlimit="10" fill="none" fill-rule="evenodd"/><path d="M105.5 529.5 450.5 529.5" stroke="#EBEBEB" stroke-width="0.711706" stroke-linejoin="round" stroke-miterlimit="10" fill="none" fill-rule="evenodd"/><path d="M105.5 500.5 450.5 500.5" stroke="#EBEBEB" stroke-width="0.711706" stroke-linejoin="round" stroke-miterlimit="10" fill="none" fill-rule="evenodd"/><path d="M126.5 655.5 126.5 474.5" stroke="#EBEBEB" stroke-width="0.711706" stroke-linejoin="round" stroke-miterlimit="10" fill="none" fill-rule="evenodd"/><path d="M234.5 655.5 234.5 474.5" stroke="#EBEBEB" stroke-width="0.711706" stroke-linejoin="round" stroke-miterlimit="10" fill="none" fill-rule="evenodd"/><path d="M337.5 655.5 337.5 474.5" stroke="#EBEBEB" stroke-width="0.711706" stroke-linejoin="round" stroke-miterlimit="10" fill="none" fill-rule="evenodd"/><path d="M440.5 655.5 440.5 474.5" stroke="#EBEBEB" stroke-width="0.711706" stroke-linejoin="round" stroke-miterlimit="10" fill="none" fill-rule="evenodd"/><path d="M105.5 632.5 450.5 632.5" stroke="#EBEBEB" stroke-width="1.42341" stroke-linejoin="round" stroke-miterlimit="10" fill="none" fill-rule="evenodd"/><path d="M105.5 603.5 450.5 603.5" stroke="#EBEBEB" stroke-width="1.42341" stroke-linejoin="round" stroke-miterlimit="10" fill="none" fill-rule="evenodd"/><path d="M105.5 574.5 450.5 574.5" stroke="#EBEBEB" stroke-width="1.42341" stroke-linejoin="round" stroke-miterlimit="10" fill="none" fill-rule="evenodd"/><path d="M105.5 544.5 450.5 544.5" stroke="#EBEBEB" stroke-width="1.42341" stroke-linejoin="round" stroke-miterlimit="10" fill="none" fill-rule="evenodd"/><path d="M105.5 515.5 450.5 515.5" stroke="#EBEBEB" stroke-width="1.42341" stroke-linejoin="round" stroke-miterlimit="10" fill="none" fill-rule="evenodd"/><path d="M105.5 485.5 450.5 485.5" stroke="#EBEBEB" stroke-width="1.42341" stroke-linejoin="round" stroke-miterlimit="10" fill="none" fill-rule="evenodd"/><path d="M180.5 655.5 180.5 474.5" stroke="#EBEBEB" stroke-width="1.42341" stroke-linejoin="round" stroke-miterlimit="10" fill="none" fill-rule="evenodd"/><path d="M288.5 655.5 288.5 474.5" stroke="#EBEBEB" stroke-width="1.42341" stroke-linejoin="round" stroke-miterlimit="10" fill="none" fill-rule="evenodd"/><path d="M386.5 655.5 386.5 474.5" stroke="#EBEBEB" stroke-width="1.42341" stroke-linejoin="round" stroke-miterlimit="10" fill="none" fill-rule="evenodd"/><path d="M121 580.496 124.481 578.477 127.961 594.421 131.435 582.703 134.916 576.873 138.39 579.692 141.871 569.958 145.345 578.803 148.825 564.76 152.306 584.05 155.78 566.927 159.261 561.907 162.735 577.436 166.215 564.656 169.689 557.326 173.17 553.506 176.644 549.281 180.125 546.274 183.605 543.017 187.079 539.729 190.56 564 194.034 569.148 197.515 556.388 200.989 568.304 204.469 556.571 207.95 552.958 211.424 550.727 214.905 557.154 218.379 567.085 221.859 555.431 225.333 540.638 228.814 540.425 232.288 538.367 235.769 525.696 239.249 521.629 242.723 522.246 246.204 511.826 249.678 522.621 253.159 510.646 256.633 504.397 260.113 514.087 263.594 504.422 267.068 510.133 270.549 501.885 274.023 511.796 277.503 502.107 280.977 498 284.458 506.796 287.939 499.777 291.413 506.747 294.893 500.503 298.367 511.806 301.848 503.78 305.322 500.009 308.803 509.664 312.277 503.612 315.757 511.579 319.238 516.096 322.712 508.208 326.193 506.021 329.667 504.121 333.147 506.9 336.621 503.775 340.102 515.069 343.583 508.4 347.057 510.533 350.537 506.075 354.011 504.175 357.492 518.465 360.966 511.569 364.447 508.948 367.921 521.579 371.401 521.338 374.882 519.181 378.356 517.127 381.837 517.191 385.311 515.182 388.791 518.796 392.265 515.454 395.746 516.135 399.227 511.071 402.701 509.229 406.181 521.579 409.655 517.418 413.136 526.989 416.61 523.628 420.091 524.827 423.571 522.236 427.045 520.656 430.526 529.448 434 526.432 434 553.975 430.526 551.008 427.045 550.677 423.571 548.121 420.091 545.603 416.61 550.041 413.136 547.385 409.655 545.11 406.181 542.469 402.701 540.331 399.227 538.49 395.746 536.398 392.265 541.714 388.791 539.186 385.311 542.133 381.837 539.714 378.356 550.031 374.882 547.301 371.401 544.34 367.921 554.355 364.447 544.019 360.966 541.432 357.492 539.201 354.011 535.929 350.537 533.771 347.057 532.118 343.583 536.151 340.102 534.235 336.621 532.72 333.147 530.652 329.667 538.841 326.193 537.01 322.712 535.563 319.238 533.431 315.757 531.935 312.277 532.987 308.803 531.215 305.322 533.441 301.848 532.888 298.367 531.94 294.893 529.897 291.413 528.47 287.939 530.8 284.458 529.803 280.977 532.883 277.503 533.589 274.023 533.081 270.549 532.671 267.068 532.241 263.594 536.476 260.113 536.526 256.633 544.409 253.159 544.695 249.678 544.621 246.204 546.482 242.723 544.838 239.249 553.54 235.769 551.23 232.288 574.143 228.814 570.19 225.333 567.119 221.859 594.964 218.379 591.538 214.905 589.524 211.424 602.95 207.95 600.517 204.469 597.96 200.989 595.502 197.515 597.673 194.034 594.786 190.56 595.971 187.079 608.187 183.605 606.776 180.125 604.846 176.644 602.052 173.17 599.579 169.689 597.131 166.215 594.105 162.735 607.042 159.261 622.99 155.78 618.513 152.306 614.076 148.825 611.909 145.345 607.476 141.871 616.371 138.39 612.393 134.916 640 131.435 633.865 127.961 629.032 124.481 620.365 121 615.942Z" fill="#0570B0" fill-rule="evenodd" fill-opacity="0.2"/><path d="M121 589.989 124.481 588.279 127.961 593.319 131.435 591.15 134.916 589.181 138.39 585.327 141.871 582.585 145.345 582.176 148.825 579.164 152.306 583.672 155.78 581.169 159.261 578.402 162.735 580.356 166.215 575.061 169.689 571.76 173.17 568.28 176.644 564.765 180.125 561.076 183.605 556.932 187.079 552.814 190.56 566.236 194.034 570.594 197.515 568.729 200.989 571.052 204.469 569.158 207.95 567.248 211.424 565.074 214.905 564.635 218.379 569.083 221.859 567.163 225.333 551.712 228.814 548.152 232.288 544.517 235.769 537.911 239.249 530.956 242.723 523.941 246.204 516.631 249.678 519.229 253.159 514.128 256.633 509.018 260.113 512.054 263.594 507.462 267.068 509.058 270.549 504.969 274.023 509.741 277.503 506.44 280.977 503 284.458 506.814 287.939 503.932 291.413 506.989 294.893 504.451 298.367 509.881 301.848 508.056 305.322 506.091 308.803 510.005 312.277 508.44 315.757 511.646 319.238 514.986 322.712 514.114 326.193 513.022 329.667 511.815 333.147 510.055 336.621 508.425 340.102 513.261 343.583 512.194 347.057 511.945 350.537 510.678 354.011 509.282 357.492 517.2 360.966 516.666 364.447 515.734 367.921 520.8 371.401 521.722 374.882 521.303 378.356 520.57 381.837 518.601 385.311 517.29 388.791 518.631 392.265 517.459 395.746 516.542 399.227 515.031 402.701 513.201 406.181 520.476 409.655 519.523 413.136 526.154 416.61 525.855 420.091 525.741 423.571 525.192 427.045 524.429 430.526 529.525 434 529.166 434 551.677 430.526 549.469 427.045 548.302 423.571 546.258 420.091 544.353 416.61 546.552 413.136 544.687 409.655 541.815 406.181 540.384 402.701 537.602 399.227 536.495 395.746 535.528 392.265 539.547 388.791 538.131 385.311 540.748 381.837 539.242 378.356 546.971 374.882 544.946 371.401 542.822 367.921 548.202 364.447 540.339 360.966 538.425 357.492 536.665 354.011 533.698 350.537 532.272 347.057 531.15 343.583 534.122 340.102 532.856 336.621 531.794 333.147 530.766 329.667 536.859 326.193 535.039 322.712 533.489 319.238 531.993 315.757 530.577 312.277 530.068 308.803 529.046 305.322 528.633 301.848 527.695 298.367 527.396 294.893 525.417 291.413 525.491 287.939 526.344 284.458 526.862 280.977 527.451 277.503 528.079 274.023 528.996 270.549 527.66 267.068 529.206 263.594 530.981 260.113 532.576 256.633 534.621 253.159 536.769 249.678 538.968 246.204 539.771 242.723 542.708 239.249 550.859 235.769 553.492 232.288 571.022 228.814 571.77 225.333 572.563 221.859 591.819 218.379 590.657 214.905 589.794 211.424 596.216 207.95 595.059 204.469 593.738 200.989 592.686 197.515 593.953 194.034 592.746 190.56 594.341 187.079 598.794 183.605 598.111 180.125 597.019 176.644 596.047 173.17 595.812 169.689 595.309 166.215 594.67 162.735 604.393 159.261 611.573 155.78 609.588 152.306 607.798 148.825 606.806 145.345 605.355 141.871 613.263 138.39 611.094 134.916 639 131.435 634.588 127.961 629.492 124.481 621.086 121 617.78Z" fill="#BEBEBE" fill-rule="evenodd" fill-opacity="0.2"/><path d="M121.5 602.195 124.981 601.954 128.461 607.5 131.935 607.091 135.416 606.83 138.89 596.856 142.371 596.112 145.845 593.108 149.325 591.921 152.806 594.989 156.28 594.329 159.761 593.423 163.235 591.955 166.715 585.261 170.189 583.852 173.67 582.335 177.144 580.907 180.625 579.444 184.105 577.912 187.579 576.464 191.06 581.493 194.534 582.739 198.015 582.153 201.489 582.981 204.969 582.478 208.45 581.995 211.924 581.577 215.405 578.365 218.879 580.705 222.359 580.395 225.833 563.884 229.314 561.397 232.788 559.111 236.269 542.359 239.749 538.961 243.223 533.439 246.704 529.311 250.178 530.41 253.659 526.868 257.133 523.292 260.613 523.031 264.094 519.899 267.568 520.032 271.049 517.318 274.523 520.642 278.003 518.623 281.477 516.687 284.958 518.416 288.439 516.879 291.913 517.667 295.393 516.5 298.867 520.48 302.348 519.869 305.822 519.303 309.303 521.155 312.777 520.918 316.257 522.603 319.738 524.977 323.212 525.371 326.693 525.75 330.167 526.149 333.647 521.598 337.121 521.47 340.602 524.662 344.083 524.849 347.557 522.982 351.037 522.913 354.511 522.913 357.992 528.292 361.466 528.913 364.947 529.548 368.421 535.69 371.901 533.405 375.382 534.36 378.856 535.247 382.337 530.311 385.811 530.568 389.291 529.681 392.765 529.834 396.246 527.243 399.727 527.06 403.201 526.799 406.681 531.878 410.155 532.272 413.636 536.789 417.11 537.705 420.591 536.281 424.071 536.912 427.545 537.518 431.026 540.872 434.5 541.837" stroke="#4D4D4D" stroke-width="3" stroke-linejoin="round" stroke-miterlimit="10" fill="none" fill-rule="evenodd"/><path d="M121.5 596.811 124.981 601.164 128.461 610.872 131.935 614.055 135.416 616.5 138.89 595.446 142.371 596.95 145.845 593.967 149.325 593.807 152.806 599.067 156.28 598.255 159.761 595.944 163.235 592.288 166.715 582.362 170.189 581.291 173.67 579.702 177.144 577.749 180.625 575.368 184.105 573.182 187.579 571.204 191.06 581.584 194.534 583.268 198.015 581.903 201.489 583.482 204.969 581.923 208.45 580.24 211.924 578.726 215.405 575.886 218.879 580.952 222.359 580.359 225.833 554.788 229.314 557.512 232.788 559.579 236.269 538.645 239.749 538.386 243.223 533.759 246.704 531.457 250.178 532.728 253.659 529.43 257.133 526.392 260.613 525.466 264.094 522.776 267.568 522.497 271.049 519.962 274.523 522.96 278.003 519.832 281.477 516.5 284.958 520.136 288.439 518.253 291.913 519.693 295.393 518.428 298.867 521.909 302.348 520.315 305.822 519.2 309.303 521.406 312.777 521.023 316.257 522.557 319.738 524.654 323.212 524.579 326.693 524.604 330.167 524.664 333.647 520.749 337.121 521.132 340.602 524.4 344.083 524.584 347.557 522.213 351.037 522.487 354.511 522.597 357.992 528.554 361.466 528.788 364.947 529.126 368.421 538.899 371.901 533.335 375.382 534.486 378.856 535.343 382.337 528.668 385.811 529.515 389.291 529.067 392.765 529.555 396.246 526.646 399.727 526.85 403.201 526.885 406.681 532.479 410.155 532.658 413.636 537.529 417.11 538.127 420.591 535.372 424.071 536.164 427.545 536.862 431.026 540.737 434.5 541.449" stroke="#0570B0" stroke-width="3" stroke-linejoin="round" stroke-miterlimit="10" fill="none" fill-rule="evenodd"/><path d="M228.5 549.002C228.5 551 223.5 551 223.5 549.002 223.5 546.999 228.5 546.999 228.5 549.002" stroke="#0570B0" stroke-width="0.945407" stroke-linecap="round" stroke-linejoin="round" stroke-miterlimit="10" fill="#0570B0" fill-rule="evenodd"/><path d="M238.5 531.998C238.5 534.001 234.5 534.001 234.5 531.998 234.5 530.001 238.5 530.001 238.5 531.998" stroke="#0570B0" stroke-width="0.945407" stroke-linecap="round" stroke-linejoin="round" stroke-miterlimit="10" fill="#0570B0" fill-rule="evenodd"/><path d="M245.5 532C245.5 534 241.5 534 241.5 532 241.5 530 245.5 530 245.5 532" stroke="#0570B0" stroke-width="0.945407" stroke-linecap="round" stroke-linejoin="round" stroke-miterlimit="10" fill="#0570B0" fill-rule="evenodd"/><path d="M252.5 536.998C252.5 539.001 248.5 539.001 248.5 536.998 248.5 535.001 252.5 535.001 252.5 536.998" stroke="#0570B0" stroke-width="0.945407" stroke-linecap="round" stroke-linejoin="round" stroke-miterlimit="10" fill="#0570B0" fill-rule="evenodd"/><path d="M262.5 527C262.5 529 258.5 529 258.5 527 258.5 525 262.5 525 262.5 527" stroke="#0570B0" stroke-width="0.945407" stroke-linecap="round" stroke-linejoin="round" stroke-miterlimit="10" fill="#0570B0" fill-rule="evenodd"/><path d="M269.5 523.998C269.5 526.001 265.5 526.001 265.5 523.998 265.5 522.001 269.5 522.001 269.5 523.998" stroke="#0570B0" stroke-width="0.945407" stroke-linecap="round" stroke-linejoin="round" stroke-miterlimit="10" fill="#0570B0" fill-rule="evenodd"/><path d="M276.5 528C276.5 530 272.5 530 272.5 528 272.5 526 276.5 526 276.5 528" stroke="#0570B0" stroke-width="0.945407" stroke-linecap="round" stroke-linejoin="round" stroke-miterlimit="10" fill="#0570B0" fill-rule="evenodd"/><path d="M287.5 521.998C287.5 524.001 283.5 524.001 283.5 521.998 283.5 520.001 287.5 520.001 287.5 521.998" stroke="#0570B0" stroke-width="0.945407" stroke-linecap="round" stroke-linejoin="round" stroke-miterlimit="10" fill="#0570B0" fill-rule="evenodd"/><path d="M294.5 520.998C294.5 523.001 290.5 523.001 290.5 520.998 290.5 519.001 294.5 519.001 294.5 520.998" stroke="#0570B0" stroke-width="0.945407" stroke-linecap="round" stroke-linejoin="round" stroke-miterlimit="10" fill="#0570B0" fill-rule="evenodd"/><path d="M301.5 527.002C301.5 529 297.5 529 297.5 527.002 297.5 524.999 301.5 524.999 301.5 527.002" stroke="#0570B0" stroke-width="0.945407" stroke-linecap="round" stroke-linejoin="round" stroke-miterlimit="10" fill="#0570B0" fill-rule="evenodd"/><path d="M311.5 523C311.5 525 307.5 525 307.5 523 307.5 521 311.5 521 311.5 523" stroke="#0570B0" stroke-width="0.945407" stroke-linecap="round" stroke-linejoin="round" stroke-miterlimit="10" fill="#0570B0" fill-rule="evenodd"/><path d="M318.5 523.998C318.5 526.001 314.5 526.001 314.5 523.998 314.5 522.001 318.5 522.001 318.5 523.998" stroke="#0570B0" stroke-width="0.945407" stroke-linecap="round" stroke-linejoin="round" stroke-miterlimit="10" fill="#0570B0" fill-rule="evenodd"/><path d="M322.5 528C322.5 530 317.5 530 317.5 528 317.5 526 322.5 526 322.5 528" stroke="#0570B0" stroke-width="0.945407" stroke-linecap="round" stroke-linejoin="round" stroke-miterlimit="10" fill="#0570B0" fill-rule="evenodd"/><path d="M335.5 517.002C335.5 519 331.5 519 331.5 517.002 331.5 514.999 335.5 514.999 335.5 517.002" stroke="#0570B0" stroke-width="0.945407" stroke-linecap="round" stroke-linejoin="round" stroke-miterlimit="10" fill="#0570B0" fill-rule="evenodd"/><path d="M342.5 528.002C342.5 530 338.5 530 338.5 528.002 338.5 525.999 342.5 525.999 342.5 528.002" stroke="#0570B0" stroke-width="0.945407" stroke-linecap="round" stroke-linejoin="round" stroke-miterlimit="10" fill="#0570B0" fill-rule="evenodd"/><path d="M349.5 519.998C349.5 522.001 345.5 522.001 345.5 519.998 345.5 518.001 349.5 518.001 349.5 519.998" stroke="#0570B0" stroke-width="0.945407" stroke-linecap="round" stroke-linejoin="round" stroke-miterlimit="10" fill="#0570B0" fill-rule="evenodd"/><path d="M360.5 533.998C360.5 536.001 356.5 536.001 356.5 533.998 356.5 532.001 360.5 532.001 360.5 533.998" stroke="#0570B0" stroke-width="0.945407" stroke-linecap="round" stroke-linejoin="round" stroke-miterlimit="10" fill="#0570B0" fill-rule="evenodd"/><path d="M374.5 530C374.5 532 370.5 532 370.5 530 370.5 528 374.5 528 374.5 530" stroke="#0570B0" stroke-width="0.945407" stroke-linecap="round" stroke-linejoin="round" stroke-miterlimit="10" fill="#0570B0" fill-rule="evenodd"/><path d="M384.5 524C384.5 526 380.5 526 380.5 524 380.5 522 384.5 522 384.5 524" stroke="#0570B0" stroke-width="0.945407" stroke-linecap="round" stroke-linejoin="round" stroke-miterlimit="10" fill="#0570B0" fill-rule="evenodd"/><path d="M391.5 528.002C391.5 530 387.5 530 387.5 528.002 387.5 525.999 391.5 525.999 391.5 528.002" stroke="#0570B0" stroke-width="0.945407" stroke-linecap="round" stroke-linejoin="round" stroke-miterlimit="10" fill="#0570B0" fill-rule="evenodd"/><path d="M398.5 522.998C398.5 525.001 394.5 525.001 394.5 522.998 394.5 521.001 398.5 521.001 398.5 522.998" stroke="#0570B0" stroke-width="0.945407" stroke-linecap="round" stroke-linejoin="round" stroke-miterlimit="10" fill="#0570B0" fill-rule="evenodd"/><path d="M409.5 536.998C409.5 539.001 404.5 539.001 404.5 536.998 404.5 535.001 409.5 535.001 409.5 536.998" stroke="#0570B0" stroke-width="0.945407" stroke-linecap="round" stroke-linejoin="round" stroke-miterlimit="10" fill="#0570B0" fill-rule="evenodd"/><path d="M415.5 541.998C415.5 544.001 411.5 544.001 411.5 541.998 411.5 540.001 415.5 540.001 415.5 541.998" stroke="#0570B0" stroke-width="0.945407" stroke-linecap="round" stroke-linejoin="round" stroke-miterlimit="10" fill="#0570B0" fill-rule="evenodd"/><path d="M422.5 532.5C422.5 535.167 418.5 535.167 418.5 532.5 418.5 529.833 422.5 529.833 422.5 532.5" stroke="#0570B0" stroke-width="0.945407" stroke-linecap="round" stroke-linejoin="round" stroke-miterlimit="10" fill="#0570B0" fill-rule="evenodd"/><path d="M433.5 542.998C433.5 545.001 429.5 545.001 429.5 542.998 429.5 541.001 433.5 541.001 433.5 542.998" stroke="#0570B0" stroke-width="0.945407" stroke-linecap="round" stroke-linejoin="round" stroke-miterlimit="10" fill="#0570B0" fill-rule="evenodd"/><path d="M105.5 655.5 105.5 474.5" stroke="#000000" stroke-width="1.42341" stroke-linecap="square" stroke-linejoin="round" stroke-miterlimit="10" fill="none" fill-rule="evenodd"/><path d="M115.5 632.5 105.5 632.5" stroke="#000000" stroke-width="1.42341" stroke-linejoin="round" stroke-miterlimit="10" fill="none" fill-rule="evenodd"/><path d="M115.5 603.5 105.5 603.5" stroke="#000000" stroke-width="1.42341" stroke-linejoin="round" stroke-miterlimit="10" fill="none" fill-rule="evenodd"/><path d="M115.5 574.5 105.5 574.5" stroke="#000000" stroke-width="1.42341" stroke-linejoin="round" stroke-miterlimit="10" fill="none" fill-rule="evenodd"/><path d="M115.5 544.5 105.5 544.5" stroke="#000000" stroke-width="1.42341" stroke-linejoin="round" stroke-miterlimit="10" fill="none" fill-rule="evenodd"/><path d="M115.5 515.5 105.5 515.5" stroke="#000000" stroke-width="1.42341" stroke-linejoin="round" stroke-miterlimit="10" fill="none" fill-rule="evenodd"/><path d="M115.5 485.5 105.5 485.5" stroke="#000000" stroke-width="1.42341" stroke-linejoin="round" stroke-miterlimit="10" fill="none" fill-rule="evenodd"/><path d="M105.5 655.5 450.5 655.5" stroke="#000000" stroke-width="1.42341" stroke-linecap="square" stroke-linejoin="round" stroke-miterlimit="10" fill="none" fill-rule="evenodd"/><path d="M180.5 648.5 180.5 655.5" stroke="#000000" stroke-width="1.42341" stroke-linejoin="round" stroke-miterlimit="10" fill="none" fill-rule="evenodd"/><path d="M288.5 648.5 288.5 655.5" stroke="#000000" stroke-width="1.42341" stroke-linejoin="round" stroke-miterlimit="10" fill="none" fill-rule="evenodd"/><path d="M386.5 648.5 386.5 655.5" stroke="#000000" stroke-width="1.42341" stroke-linejoin="round" stroke-miterlimit="10" fill="none" fill-rule="evenodd"/><text fill="#4B5E68" font-family="Arial,Arial_MSFontService,sans-serif" font-weight="400" font-size="21" transform="translate(119.173 478)">(2) Wastewater concentration</text><text fill="#4B5E68" font-family="Arial,Arial_MSFontService,sans-serif" font-weight="700" font-size="24" transform="translate(568.061 216)">2. Estimated weekly aggregated reported COVID</text><text fill="#4B5E68" font-family="Arial,Arial_MSFontService,sans-serif" font-weight="700" font-size="24" transform="translate(1117.39 216)">-</text><text fill="#4B5E68" font-family="Arial,Arial_MSFontService,sans-serif" font-weight="700" font-size="24" transform="translate(1125.39 216)">19 cases</text><path d="M571.5 638.5 1218.5 638.5" stroke="#EBEBEB" stroke-width="0.711706" stroke-linejoin="round" stroke-miterlimit="10" fill="none" fill-rule="evenodd"/><path d="M571.5 572.5 1218.5 572.5" stroke="#EBEBEB" stroke-width="0.711706" stroke-linejoin="round" stroke-miterlimit="10" fill="none" fill-rule="evenodd"/><path d="M571.5 507.5 1218.5 507.5" stroke="#EBEBEB" stroke-width="0.711706" stroke-linejoin="round" stroke-miterlimit="10" fill="none" fill-rule="evenodd"/><path d="M571.5 442.5 1218.5 442.5" stroke="#EBEBEB" stroke-width="0.711706" stroke-linejoin="round" stroke-miterlimit="10" fill="none" fill-rule="evenodd"/><path d="M571.5 376.5 1218.5 376.5" stroke="#EBEBEB" stroke-width="0.711706" stroke-linejoin="round" stroke-miterlimit="10" fill="none" fill-rule="evenodd"/><path d="M571.5 311.5 1218.5 311.5" stroke="#EBEBEB" stroke-width="0.711706" stroke-linejoin="round" stroke-miterlimit="10" fill="none" fill-rule="evenodd"/><path d="M610.5 656.5 610.5 254.5" stroke="#EBEBEB" stroke-width="0.711706" stroke-linejoin="round" stroke-miterlimit="10" fill="none" fill-rule="evenodd"/><path d="M812.5 656.5 812.5 254.5" stroke="#EBEBEB" stroke-width="0.711706" stroke-linejoin="round" stroke-miterlimit="10" fill="none" fill-rule="evenodd"/><path d="M1005.5 656.5 1005.5 254.5" stroke="#EBEBEB" stroke-width="0.711706" stroke-linejoin="round" stroke-miterlimit="10" fill="none" fill-rule="evenodd"/><path d="M1198.5 656.5 1198.5 254.5" stroke="#EBEBEB" stroke-width="0.711706" stroke-linejoin="round" stroke-miterlimit="10" fill="none" fill-rule="evenodd"/><path d="M571.5 605.5 1218.5 605.5" stroke="#EBEBEB" stroke-width="1.42341" stroke-linejoin="round" stroke-miterlimit="10" fill="none" fill-rule="evenodd"/><path d="M571.5 540.5 1218.5 540.5" stroke="#EBEBEB" stroke-width="1.42341" stroke-linejoin="round" stroke-miterlimit="10" fill="none" fill-rule="evenodd"/><path d="M571.5 474.5 1218.5 474.5" stroke="#EBEBEB" stroke-width="1.42341" stroke-linejoin="round" stroke-miterlimit="10" fill="none" fill-rule="evenodd"/><path d="M571.5 409.5 1218.5 409.5" stroke="#EBEBEB" stroke-width="1.42341" stroke-linejoin="round" stroke-miterlimit="10" fill="none" fill-rule="evenodd"/><path d="M571.5 344.5 1218.5 344.5" stroke="#EBEBEB" stroke-width="1.42341" stroke-linejoin="round" stroke-miterlimit="10" fill="none" fill-rule="evenodd"/><path d="M571.5 278.5 1218.5 278.5" stroke="#EBEBEB" stroke-width="1.42341" stroke-linejoin="round" stroke-miterlimit="10" fill="none" fill-rule="evenodd"/><path d="M711.5 656.5 711.5 254.5" stroke="#EBEBEB" stroke-width="1.42341" stroke-linejoin="round" stroke-miterlimit="10" fill="none" fill-rule="evenodd"/><path d="M914.5 656.5 914.5 254.5" stroke="#EBEBEB" stroke-width="1.42341" stroke-linejoin="round" stroke-miterlimit="10" fill="none" fill-rule="evenodd"/><path d="M1097.5 656.5 1097.5 254.5" stroke="#EBEBEB" stroke-width="1.42341" stroke-linejoin="round" stroke-miterlimit="10" fill="none" fill-rule="evenodd"/><path d="M600 460.989 606.539 455.067 613.077 465.417 619.604 459.945 626.142 453.935 632.669 443.003 639.207 435.137 645.734 434.016 652.273 426.984 658.811 440.125 665.337 434.708 671.876 428.753 678.402 432.148 684.941 421.359 691.468 414.613 698.006 407.131 704.532 398.89 711.071 390.255 717.61 381.41 724.136 372.324 730.675 407.339 737.201 415.492 743.74 410.668 750.266 416.81 756.805 412.701 763.344 407.504 769.87 401.494 776.409 403.022 782.935 413.723 789.474 409.284 796 383.453 802.539 376.554 809.065 370.027 815.604 345.076 822.142 333.122 828.669 323.091 835.207 310.379 841.734 314.114 848.272 303.523 854.799 292.569 861.337 301.93 867.876 291.81 874.402 295.359 880.941 286.163 887.468 293.656 894.006 285.526 900.533 277 907.071 287.613 913.61 280.79 920.136 287.559 926.675 281.12 933.201 294.382 939.74 289.372 946.266 283.812 952.805 295.887 959.331 291.898 965.87 299.82 972.409 306.083 978.935 303.149 985.474 300.227 992 296.634 998.539 297.546 1005.07 294.206 1011.6 307.313 1018.14 304.479 1024.67 304.874 1031.21 301.853 1037.73 298.491 1044.27 311.126 1050.8 308.544 1057.34 305.303 1063.86 325.321 1070.4 325.64 1076.94 324.266 1083.47 322.42 1090.01 319.839 1096.53 317.74 1103.07 320.52 1109.6 318.169 1116.14 317.3 1122.67 313.708 1129.2 309.544 1135.74 322.465 1142.27 319.223 1148.8 337.758 1155.33 337.044 1161.87 336.319 1168.41 334.704 1174.94 332.77 1181.47 344.461 1188 343.329 1188 399.209 1181.47 394.693 1174.94 392.1 1168.41 387.793 1161.87 383.981 1155.33 390.507 1148.8 386.398 1142.27 380.916 1135.74 377.279 1129.2 371.697 1122.67 369.028 1116.14 366.446 1109.6 377.674 1103.07 374.082 1096.53 381.718 1090.01 377.927 1083.47 395.001 1076.94 389.299 1070.4 384.124 1063.86 398.923 1057.34 377.993 1050.8 373.543 1044.27 369.445 1037.73 361.512 1031.21 357.865 1024.67 354.832 1018.14 363.062 1011.6 359.524 1005.07 356.458 998.539 353.514 992 365.435 985.474 362.062 978.935 358.282 972.409 355.173 965.87 351.811 959.331 351.053 952.805 348.745 946.266 349.075 939.74 347.152 933.201 346.109 926.675 340.362 920.136 340.406 913.61 341.813 907.071 342.758 900.533 343.812 894.006 345.636 887.468 348.13 880.941 345.68 874.402 348.877 867.876 357.425 861.337 359.93 854.799 375.785 848.272 379.52 841.734 383.629 835.207 394.386 828.669 397.473 822.142 426.501 815.604 428.248 809.065 464.813 802.539 462.648 796 460.121 789.474 478.096 782.935 475.591 776.409 469.933 769.87 482.667 763.344 480.458 756.805 478.085 750.266 476.811 743.74 480.821 737.201 479.755 730.675 483.051 724.136 493.775 717.61 492.665 711.071 490.566 704.532 489.083 698.006 487.699 691.468 487.226 684.941 486.347 678.402 501.553 671.876 524.352 665.337 522.736 658.811 521.198 652.273 521.198 645.734 519.748 639.207 534.218 632.669 531.955 626.142 585 619.604 573.508 613.077 573.508 606.539 559.027 600 549.501Z" fill="#E485A5" fill-rule="evenodd" fill-opacity="0.2"/><path d="M600 482.508 606.539 477.327 613.077 487.447 619.604 483.267 626.142 478.955 632.669 469.649 639.207 463.6 645.734 462.654 652.273 455.691 658.811 466.041 665.337 461.18 671.876 455.108 678.402 459.123 684.941 446.902 691.468 439.202 698.006 431.547 704.532 423.275 711.071 414.574 717.61 405.4 724.136 396.249 730.675 427.95 737.201 438.157 743.74 434.032 750.266 439.125 756.805 435.297 763.344 430.678 769.87 425.871 776.409 424.562 782.935 434.725 789.474 430.315 796 394.533 802.539 387.042 809.065 377.538 815.604 360.225 822.142 344.132 828.669 328.579 835.207 312.035 841.734 321.231 848.272 310.022 854.799 298.374 861.337 306.018 867.876 295.404 874.402 299.881 880.941 290.564 887.468 302.488 894.006 294.942 900.533 287 907.071 296.592 913.61 290.047 920.136 297.263 926.675 291.708 933.201 304.599 939.74 300.266 946.266 295.668 952.805 305.039 959.331 301.42 965.87 309.098 972.409 316.897 978.935 314.598 985.474 312.233 992 309.307 998.539 304.973 1005.07 301.443 1011.6 312.662 1018.14 310.374 1024.67 309.791 1031.21 306.711 1037.73 303.477 1044.27 322.243 1050.8 320.516 1057.34 318.393 1063.86 330.46 1070.4 332.231 1076.94 331.186 1083.47 329.569 1090.01 324.399 1096.53 321.638 1103.07 324.487 1109.6 321.66 1116.14 319.603 1122.67 315.709 1129.2 311.606 1135.74 328.92 1142.27 326.588 1148.8 342.273 1155.33 341.415 1161.87 341.074 1168.41 339.655 1174.94 337.576 1181.47 349.533 1188 348.609 1188 402.706 1181.47 397.547 1174.94 394.874 1168.41 390.067 1161.87 385.634 1155.33 390.793 1148.8 386.041 1142.27 379.65 1135.74 376.306 1129.2 369.476 1122.67 366.891 1116.14 364.515 1109.6 374.359 1103.07 371.026 1096.53 377.274 1090.01 373.842 1083.47 392.212 1076.94 387.218 1070.4 382.488 1063.86 395.842 1057.34 376.801 1050.8 372.368 1044.27 368.167 1037.73 361.248 1031.21 358.113 1024.67 355.099 1018.14 362.337 1011.6 359.092 1005.07 356.485 998.539 354.043 992 369.277 985.474 364.955 978.935 360.852 972.409 357.497 965.87 354.208 959.331 352.822 952.805 350.215 946.266 349.346 939.74 346.97 933.201 345.496 926.675 340.81 920.136 340.766 913.61 342.328 907.071 343.34 900.533 344.473 894.006 345.826 887.468 347.751 880.941 344.242 874.402 347.278 867.876 351.205 861.337 354.67 854.799 359.037 848.272 363.36 841.734 368.089 835.207 369.651 828.669 375.195 822.142 394.225 815.604 399.956 809.065 440.896 802.539 442.612 796 444.625 789.474 489.801 782.935 487.007 776.409 485.28 769.87 499.635 763.344 496.367 756.805 492.892 750.266 490.791 743.74 493.442 737.201 491.825 730.675 494.003 724.136 504.122 717.61 501.79 711.071 499.635 704.532 497.633 698.006 496.39 691.468 495.763 684.941 495.763 678.402 520.006 671.876 532.226 665.337 530.125 658.811 526.331 652.273 522.998 645.734 521.458 639.207 539.673 632.669 536.967 626.142 605 619.604 585.333 613.077 585.333 606.539 559.33 600 559.33Z" fill="#BEBEBE" fill-rule="evenodd" fill-opacity="0.4"/><path d="M600.5 511.978 607.039 509.941 613.577 520.5 626.642 520.5 633.169 498.104 639.707 495.637 646.234 488.833 652.773 485.739 659.311 492.29 665.837 491.255 672.376 489.768 678.903 486.168 685.441 470.819 691.968 467.339 698.506 464.036 705.032 460.744 711.571 457.473 718.11 454.192 724.636 450.889 731.175 462.715 737.701 465.644 744.24 464.432 750.766 466.48 757.305 465.434 763.844 464.432 770.37 463.463 776.909 456.262 783.435 461.437 789.974 460.567 796.5 421.985 803.039 416.414 809.565 410.886 816.104 372.381 822.642 364.662 829.169 351.427 835.707 342.09 842.234 345.404 848.773 337.421 855.299 329.515 861.837 329.394 868.376 322.523 874.903 323.129 881.441 317.183 887.968 325.32 894.506 320.871 901.033 316.5 907.571 320.971 914.11 317.513 920.636 319.671 927.175 317.106 933.701 326.608 940.24 325.364 946.766 324.043 953.305 328.711 959.831 328.117 966.37 332.301 972.909 337.971 979.435 338.984 985.974 339.821 992.5 340.702 999.039 329.823 1005.57 329.515 1012.1 337.179 1018.64 337.52 1025.17 333.06 1031.71 333.005 1038.23 332.895 1044.77 345.734 1051.3 347.287 1057.84 348.663 1064.36 363.286 1070.9 357.901 1077.44 359.872 1083.97 361.777 1090.51 349.918 1097.03 350.392 1103.57 348.245 1110.1 348.729 1116.64 342.321 1123.18 341.88 1129.7 341.253 1136.24 353.398 1142.77 354.301 1149.3 365.213 1155.83 367.327 1162.37 363.737 1168.91 365.135 1175.44 366.523 1181.97 374.539 1188.5 376.752" stroke="#4D4D4D" stroke-width="3" stroke-linejoin="round" stroke-miterlimit="10" fill="none" fill-rule="evenodd"/><path d="M600.5 502.759 607.039 501.3 613.577 509.5 620.104 508.561 626.642 507.655 633.169 480.833 639.707 478.181 646.234 470.71 652.773 467.704 659.311 473.252 665.837 470.953 672.376 468.588 678.903 463.063 685.441 449.525 691.968 445.834 698.506 442.297 705.032 438.507 711.571 434.893 718.11 431.257 724.636 427.809 731.175 442.927 737.701 444.441 744.24 442.839 750.766 444.441 757.305 443.391 763.844 442.121 770.37 441.06 776.909 436.385 783.435 442.209 789.974 441.579 796.5 422.051 803.039 418.769 809.565 415.785 816.104 374.785 822.642 367.856 829.169 353.522 835.707 346.162 842.234 346.781 848.773 340.15 855.299 333.685 861.837 330.392 868.376 324.325 874.903 323.297 881.441 317.827 887.968 321.418 894.506 317.031 901.033 312.5 907.571 318.633 914.11 315.274 920.636 318.91 927.175 316.457 933.701 322.358 940.24 320.877 946.766 319.451 953.305 324.645 959.831 324.181 966.37 328.745 972.909 333.188 979.435 333.962 985.974 334.735 992.5 335.266 999.039 327.618 1005.57 327.331 1012.1 333.663 1018.64 334.138 1025.17 329.839 1031.71 329.851 1038.23 329.873 1044.77 342.35 1051.3 343.676 1057.84 344.969 1064.36 364.651 1070.9 355.059 1077.44 356.981 1083.97 358.926 1090.51 347.035 1097.03 347.698 1103.57 346.041 1110.1 346.295 1116.64 340.769 1123.18 340.46 1129.7 340.184 1136.24 350.726 1142.77 351.633 1149.3 361.214 1155.83 363.358 1162.37 358.904 1168.91 360.374 1175.44 361.767 1181.97 368.906 1188.5 370.961" stroke="#A0234E" stroke-width="3" stroke-linejoin="round" stroke-miterlimit="10" fill="none" fill-rule="evenodd"/><path d="M604.5 531.505C604.5 536.832 596.5 536.832 596.5 531.505 596.5 526.165 604.5 526.165 604.5 531.505" stroke="#FEB24C" stroke-width="0.945407" stroke-linecap="round" stroke-linejoin="round" stroke-miterlimit="10" fill="#F7E9B1" fill-rule="evenodd" fill-opacity="0.6"/><path d="M610.5 524.505C610.5 529.832 603.5 529.832 603.5 524.505 603.5 519.165 610.5 519.165 610.5 524.505" stroke="#FEB24C" stroke-width="0.945407" stroke-linecap="round" stroke-linejoin="round" stroke-miterlimit="10" fill="#F7E9B1" fill-rule="evenodd" fill-opacity="0.6"/><path d="M617.5 521.505C617.5 526.832 609.5 526.832 609.5 521.505 609.5 516.165 617.5 516.165 617.5 521.505" stroke="#FEB24C" stroke-width="0.945407" stroke-linecap="round" stroke-linejoin="round" stroke-miterlimit="10" fill="#F7E9B1" fill-rule="evenodd" fill-opacity="0.6"/><path d="M623.5 513.5C623.5 518.834 616.5 518.834 616.5 513.5 616.5 508.167 623.5 508.167 623.5 513.5" stroke="#FEB24C" stroke-width="0.945407" stroke-linecap="round" stroke-linejoin="round" stroke-miterlimit="10" fill="#F7E9B1" fill-rule="evenodd" fill-opacity="0.6"/><path d="M630.5 509.5C630.5 514.834 622.5 514.834 622.5 509.5 622.5 504.167 630.5 504.167 630.5 509.5" stroke="#FEB24C" stroke-width="0.945407" stroke-linecap="round" stroke-linejoin="round" stroke-miterlimit="10" fill="#F7E9B1" fill-rule="evenodd" fill-opacity="0.6"/><path d="M636.5 506.5C636.5 511.834 629.5 511.834 629.5 506.5 629.5 501.167 636.5 501.167 636.5 506.5" stroke="#FEB24C" stroke-width="0.945407" stroke-linecap="round" stroke-linejoin="round" stroke-miterlimit="10" fill="#F7E9B1" fill-rule="evenodd" fill-opacity="0.6"/><path d="M643.5 502.495C643.5 507.835 635.5 507.835 635.5 502.495 635.5 497.168 643.5 497.168 643.5 502.495" stroke="#FEB24C" stroke-width="0.945407" stroke-linecap="round" stroke-linejoin="round" stroke-miterlimit="10" fill="#F7E9B1" fill-rule="evenodd" fill-opacity="0.6"/><path d="M650.5 490C650.5 494.667 642.5 494.667 642.5 490 642.5 485.333 650.5 485.333 650.5 490" stroke="#FEB24C" stroke-width="0.945407" stroke-linecap="round" stroke-linejoin="round" stroke-miterlimit="10" fill="#F7E9B1" fill-rule="evenodd" fill-opacity="0.6"/><path d="M656.5 483.505C656.5 488.832 649.5 488.832 649.5 483.505 649.5 478.165 656.5 478.165 656.5 483.505" stroke="#FEB24C" stroke-width="0.945407" stroke-linecap="round" stroke-linejoin="round" stroke-miterlimit="10" fill="#F7E9B1" fill-rule="evenodd" fill-opacity="0.6"/><path d="M663.5 481.5C663.5 486.834 655.5 486.834 655.5 481.5 655.5 476.167 663.5 476.167 663.5 481.5" stroke="#FEB24C" stroke-width="0.945407" stroke-linecap="round" stroke-linejoin="round" stroke-miterlimit="10" fill="#F7E9B1" fill-rule="evenodd" fill-opacity="0.6"/><path d="M669.5 479.505C669.5 484.832 662.5 484.832 662.5 479.505 662.5 474.165 669.5 474.165 669.5 479.505" stroke="#FEB24C" stroke-width="0.945407" stroke-linecap="round" stroke-linejoin="round" stroke-miterlimit="10" fill="#F7E9B1" fill-rule="evenodd" fill-opacity="0.6"/><path d="M676.5 477.5C676.5 482.834 668.5 482.834 668.5 477.5 668.5 472.167 676.5 472.167 676.5 477.5" stroke="#FEB24C" stroke-width="0.945407" stroke-linecap="round" stroke-linejoin="round" stroke-miterlimit="10" fill="#F7E9B1" fill-rule="evenodd" fill-opacity="0.6"/><path d="M682.5 475.505C682.5 480.832 675.5 480.832 675.5 475.505 675.5 470.165 682.5 470.165 682.5 475.505" stroke="#FEB24C" stroke-width="0.945407" stroke-linecap="round" stroke-linejoin="round" stroke-miterlimit="10" fill="#F7E9B1" fill-rule="evenodd" fill-opacity="0.6"/><path d="M689.5 473.5C689.5 478.834 681.5 478.834 681.5 473.5 681.5 468.167 689.5 468.167 689.5 473.5" stroke="#FEB24C" stroke-width="0.945407" stroke-linecap="round" stroke-linejoin="round" stroke-miterlimit="10" fill="#F7E9B1" fill-rule="evenodd" fill-opacity="0.6"/><path d="M695.5 476.004C695.5 480.665 688.5 480.665 688.5 476.004 688.5 471.332 695.5 471.332 695.5 476.004" stroke="#FEB24C" stroke-width="0.945407" stroke-linecap="round" stroke-linejoin="round" stroke-miterlimit="10" fill="#F7E9B1" fill-rule="evenodd" fill-opacity="0.6"/><path d="M702.5 476.5C702.5 481.834 694.5 481.834 694.5 476.5 694.5 471.167 702.5 471.167 702.5 476.5" stroke="#FEB24C" stroke-width="0.945407" stroke-linecap="round" stroke-linejoin="round" stroke-miterlimit="10" fill="#F7E9B1" fill-rule="evenodd" fill-opacity="0.6"/><path d="M708.5 475.505C708.5 480.832 701.5 480.832 701.5 475.505 701.5 470.165 708.5 470.165 708.5 475.505" stroke="#FEB24C" stroke-width="0.945407" stroke-linecap="round" stroke-linejoin="round" stroke-miterlimit="10" fill="#F7E9B1" fill-rule="evenodd" fill-opacity="0.6"/><path d="M715.5 475.505C715.5 480.832 707.5 480.832 707.5 475.505 707.5 470.165 715.5 470.165 715.5 475.505" stroke="#FEB24C" stroke-width="0.945407" stroke-linecap="round" stroke-linejoin="round" stroke-miterlimit="10" fill="#F7E9B1" fill-rule="evenodd" fill-opacity="0.6"/><path d="M721.5 476.004C721.5 480.665 714.5 480.665 714.5 476.004 714.5 471.332 721.5 471.332 721.5 476.004" stroke="#FEB24C" stroke-width="0.945407" stroke-linecap="round" stroke-linejoin="round" stroke-miterlimit="10" fill="#F7E9B1" fill-rule="evenodd" fill-opacity="0.6"/><path d="M728.5 477.5C728.5 482.834 720.5 482.834 720.5 477.5 720.5 472.167 728.5 472.167 728.5 477.5" stroke="#FEB24C" stroke-width="0.945407" stroke-linecap="round" stroke-linejoin="round" stroke-miterlimit="10" fill="#F7E9B1" fill-rule="evenodd" fill-opacity="0.6"/><path d="M735.5 479.495C735.5 484.835 727.5 484.835 727.5 479.495 727.5 474.168 735.5 474.168 735.5 479.495" stroke="#FEB24C" stroke-width="0.945407" stroke-linecap="round" stroke-linejoin="round" stroke-miterlimit="10" fill="#F7E9B1" fill-rule="evenodd" fill-opacity="0.6"/><path d="M741.5 475.505C741.5 480.832 733.5 480.832 733.5 475.505 733.5 470.165 741.5 470.165 741.5 475.505" stroke="#FEB24C" stroke-width="0.945407" stroke-linecap="round" stroke-linejoin="round" stroke-miterlimit="10" fill="#F7E9B1" fill-rule="evenodd" fill-opacity="0.6"/><path d="M748.5 472.996C748.5 477.668 740.5 477.668 740.5 472.996 740.5 468.335 748.5 468.335 748.5 472.996" stroke="#FEB24C" stroke-width="0.945407" stroke-linecap="round" stroke-linejoin="round" stroke-miterlimit="10" fill="#F7E9B1" fill-rule="evenodd" fill-opacity="0.6"/><path d="M754.5 465.5C754.5 470.834 747.5 470.834 747.5 465.5 747.5 460.167 754.5 460.167 754.5 465.5" stroke="#FEB24C" stroke-width="0.945407" stroke-linecap="round" stroke-linejoin="round" stroke-miterlimit="10" fill="#F7E9B1" fill-rule="evenodd" fill-opacity="0.6"/><path d="M761.5 457.495C761.5 462.835 753.5 462.835 753.5 457.495 753.5 452.168 761.5 452.168 761.5 457.495" stroke="#FEB24C" stroke-width="0.945407" stroke-linecap="round" stroke-linejoin="round" stroke-miterlimit="10" fill="#F7E9B1" fill-rule="evenodd" fill-opacity="0.6"/><path d="M767.5 452.495C767.5 457.835 760.5 457.835 760.5 452.495 760.5 447.168 767.5 447.168 767.5 452.495" stroke="#FEB24C" stroke-width="0.945407" stroke-linecap="round" stroke-linejoin="round" stroke-miterlimit="10" fill="#F7E9B1" fill-rule="evenodd" fill-opacity="0.6"/><path d="M774.5 447.5C774.5 452.834 766.5 452.834 766.5 447.5 766.5 442.167 774.5 442.167 774.5 447.5" stroke="#FEB24C" stroke-width="0.945407" stroke-linecap="round" stroke-linejoin="round" stroke-miterlimit="10" fill="#F7E9B1" fill-rule="evenodd" fill-opacity="0.6"/><path d="M780.5 442.505C780.5 447.832 773.5 447.832 773.5 442.505 773.5 437.165 780.5 437.165 780.5 442.505" stroke="#FEB24C" stroke-width="0.945407" stroke-linecap="round" stroke-linejoin="round" stroke-miterlimit="10" fill="#F7E9B1" fill-rule="evenodd" fill-opacity="0.6"/><path d="M787.5 438.5C787.5 443.834 779.5 443.834 779.5 438.5 779.5 433.167 787.5 433.167 787.5 438.5" stroke="#FEB24C" stroke-width="0.945407" stroke-linecap="round" stroke-linejoin="round" stroke-miterlimit="10" fill="#F7E9B1" fill-rule="evenodd" fill-opacity="0.6"/><path d="M793.5 431.495C793.5 436.835 786.5 436.835 786.5 431.495 786.5 426.168 793.5 426.168 793.5 431.495" stroke="#FEB24C" stroke-width="0.945407" stroke-linecap="round" stroke-linejoin="round" stroke-miterlimit="10" fill="#F7E9B1" fill-rule="evenodd" fill-opacity="0.6"/><path d="M800.5 423.5C800.5 428.834 792.5 428.834 792.5 423.5 792.5 418.167 800.5 418.167 800.5 423.5" stroke="#FEB24C" stroke-width="0.945407" stroke-linecap="round" stroke-linejoin="round" stroke-miterlimit="10" fill="#F7E9B1" fill-rule="evenodd" fill-opacity="0.6"/><path d="M806.5 412.5C806.5 417.834 799.5 417.834 799.5 412.5 799.5 407.167 806.5 407.167 806.5 412.5" stroke="#FEB24C" stroke-width="0.945407" stroke-linecap="round" stroke-linejoin="round" stroke-miterlimit="10" fill="#F7E9B1" fill-rule="evenodd" fill-opacity="0.6"/><path d="M813.5 404.5C813.5 409.834 805.5 409.834 805.5 404.5 805.5 399.167 813.5 399.167 813.5 404.5" stroke="#FEB24C" stroke-width="0.945407" stroke-linecap="round" stroke-linejoin="round" stroke-miterlimit="10" fill="#F7E9B1" fill-rule="evenodd" fill-opacity="0.6"/><path d="M819.5 397.5C819.5 402.834 812.5 402.834 812.5 397.5 812.5 392.167 819.5 392.167 819.5 397.5" stroke="#FEB24C" stroke-width="0.945407" stroke-linecap="round" stroke-linejoin="round" stroke-miterlimit="10" fill="#F7E9B1" fill-rule="evenodd" fill-opacity="0.6"/><path d="M826.5 393.5C826.5 398.834 818.5 398.834 818.5 393.5 818.5 388.167 826.5 388.167 826.5 393.5" stroke="#FEB24C" stroke-width="0.945407" stroke-linecap="round" stroke-linejoin="round" stroke-miterlimit="10" fill="#F7E9B1" fill-rule="evenodd" fill-opacity="0.6"/><path d="M833.5 385.5C833.5 390.834 825.5 390.834 825.5 385.5 825.5 380.167 833.5 380.167 833.5 385.5" stroke="#FEB24C" stroke-width="0.945407" stroke-linecap="round" stroke-linejoin="round" stroke-miterlimit="10" fill="#F7E9B1" fill-rule="evenodd" fill-opacity="0.6"/><path d="M839.5 378.495C839.5 383.835 832.5 383.835 832.5 378.495 832.5 373.168 839.5 373.168 839.5 378.495" stroke="#FEB24C" stroke-width="0.945407" stroke-linecap="round" stroke-linejoin="round" stroke-miterlimit="10" fill="#F7E9B1" fill-rule="evenodd" fill-opacity="0.6"/><path d="M846.5 372.5C846.5 377.834 838.5 377.834 838.5 372.5 838.5 367.167 846.5 367.167 846.5 372.5" stroke="#FEB24C" stroke-width="0.945407" stroke-linecap="round" stroke-linejoin="round" stroke-miterlimit="10" fill="#F7E9B1" fill-rule="evenodd" fill-opacity="0.6"/><path d="M852.5 369.004C852.5 373.665 845.5 373.665 845.5 369.004 845.5 364.332 852.5 364.332 852.5 369.004" stroke="#FEB24C" stroke-width="0.945407" stroke-linecap="round" stroke-linejoin="round" stroke-miterlimit="10" fill="#F7E9B1" fill-rule="evenodd" fill-opacity="0.6"/><path d="M859.5 365.495C859.5 370.835 851.5 370.835 851.5 365.495 851.5 360.168 859.5 360.168 859.5 365.495" stroke="#FEB24C" stroke-width="0.945407" stroke-linecap="round" stroke-linejoin="round" stroke-miterlimit="10" fill="#F7E9B1" fill-rule="evenodd" fill-opacity="0.6"/><path d="M865.5 362.495C865.5 367.835 858.5 367.835 858.5 362.495 858.5 357.168 865.5 357.168 865.5 362.495" stroke="#FEB24C" stroke-width="0.945407" stroke-linecap="round" stroke-linejoin="round" stroke-miterlimit="10" fill="#F7E9B1" fill-rule="evenodd" fill-opacity="0.6"/><path d="M872.5 360.5C872.5 365.834 864.5 365.834 864.5 360.5 864.5 355.167 872.5 355.167 872.5 360.5" stroke="#FEB24C" stroke-width="0.945407" stroke-linecap="round" stroke-linejoin="round" stroke-miterlimit="10" fill="#F7E9B1" fill-rule="evenodd" fill-opacity="0.6"/><path d="M878.5 359.495C878.5 364.835 871.5 364.835 871.5 359.495 871.5 354.168 878.5 354.168 878.5 359.495" stroke="#FEB24C" stroke-width="0.945407" stroke-linecap="round" stroke-linejoin="round" stroke-miterlimit="10" fill="#F7E9B1" fill-rule="evenodd" fill-opacity="0.6"/><path d="M885.5 355.495C885.5 360.835 877.5 360.835 877.5 355.495 877.5 350.168 885.5 350.168 885.5 355.495" stroke="#FEB24C" stroke-width="0.945407" stroke-linecap="round" stroke-linejoin="round" stroke-miterlimit="10" fill="#F7E9B1" fill-rule="evenodd" fill-opacity="0.6"/><path d="M891.5 353.495C891.5 358.835 884.5 358.835 884.5 353.495 884.5 348.168 891.5 348.168 891.5 353.495" stroke="#FEB24C" stroke-width="0.945407" stroke-linecap="round" stroke-linejoin="round" stroke-miterlimit="10" fill="#F7E9B1" fill-rule="evenodd" fill-opacity="0.6"/><path d="M898.5 351.004C898.5 355.665 890.5 355.665 890.5 351.004 890.5 346.332 898.5 346.332 898.5 351.004" stroke="#FEB24C" stroke-width="0.945407" stroke-linecap="round" stroke-linejoin="round" stroke-miterlimit="10" fill="#F7E9B1" fill-rule="evenodd" fill-opacity="0.6"/><path d="M904.5 348.5C904.5 353.834 897.5 353.834 897.5 348.5 897.5 343.167 904.5 343.167 904.5 348.5" stroke="#FEB24C" stroke-width="0.945407" stroke-linecap="round" stroke-linejoin="round" stroke-miterlimit="10" fill="#F7E9B1" fill-rule="evenodd" fill-opacity="0.6"/><path d="M911.5 347.495C911.5 352.835 903.5 352.835 903.5 347.495 903.5 342.168 911.5 342.168 911.5 347.495" stroke="#FEB24C" stroke-width="0.945407" stroke-linecap="round" stroke-linejoin="round" stroke-miterlimit="10" fill="#F7E9B1" fill-rule="evenodd" fill-opacity="0.6"/><path d="M918.5 345.495C918.5 350.835 910.5 350.835 910.5 345.495 910.5 340.168 918.5 340.168 918.5 345.495" stroke="#FEB24C" stroke-width="0.945407" stroke-linecap="round" stroke-linejoin="round" stroke-miterlimit="10" fill="#F7E9B1" fill-rule="evenodd" fill-opacity="0.6"/><path d="M924.5 342.5C924.5 347.834 917.5 347.834 917.5 342.5 917.5 337.167 924.5 337.167 924.5 342.5" stroke="#FEB24C" stroke-width="0.945407" stroke-linecap="round" stroke-linejoin="round" stroke-miterlimit="10" fill="#F7E9B1" fill-rule="evenodd" fill-opacity="0.6"/><path d="M931.5 341.5C931.5 346.834 923.5 346.834 923.5 341.5 923.5 336.167 931.5 336.167 931.5 341.5" stroke="#FEB24C" stroke-width="0.945407" stroke-linecap="round" stroke-linejoin="round" stroke-miterlimit="10" fill="#F7E9B1" fill-rule="evenodd" fill-opacity="0.6"/><path d="M937.5 339.5C937.5 344.834 930.5 344.834 930.5 339.5 930.5 334.167 937.5 334.167 937.5 339.5" stroke="#FEB24C" stroke-width="0.945407" stroke-linecap="round" stroke-linejoin="round" stroke-miterlimit="10" fill="#F7E9B1" fill-rule="evenodd" fill-opacity="0.6"/><path d="M944.5 338C944.5 342.667 936.5 342.667 936.5 338 936.5 333.333 944.5 333.333 944.5 338" stroke="#FEB24C" stroke-width="0.945407" stroke-linecap="round" stroke-linejoin="round" stroke-miterlimit="10" fill="#F7E9B1" fill-rule="evenodd" fill-opacity="0.6"/><path d="M950.5 337.5C950.5 342.834 943.5 342.834 943.5 337.5 943.5 332.167 950.5 332.167 950.5 337.5" stroke="#FEB24C" stroke-width="0.945407" stroke-linecap="round" stroke-linejoin="round" stroke-miterlimit="10" fill="#F7E9B1" fill-rule="evenodd" fill-opacity="0.6"/><path d="M957.5 336.505C957.5 341.832 949.5 341.832 949.5 336.505 949.5 331.165 957.5 331.165 957.5 336.505" stroke="#FEB24C" stroke-width="0.945407" stroke-linecap="round" stroke-linejoin="round" stroke-miterlimit="10" fill="#F7E9B1" fill-rule="evenodd" fill-opacity="0.6"/><path d="M963.5 337.5C963.5 342.834 956.5 342.834 956.5 337.5 956.5 332.167 963.5 332.167 963.5 337.5" stroke="#FEB24C" stroke-width="0.945407" stroke-linecap="round" stroke-linejoin="round" stroke-miterlimit="10" fill="#F7E9B1" fill-rule="evenodd" fill-opacity="0.6"/><path d="M970.5 337.505C970.5 342.832 962.5 342.832 962.5 337.505 962.5 332.165 970.5 332.165 970.5 337.505" stroke="#FEB24C" stroke-width="0.945407" stroke-linecap="round" stroke-linejoin="round" stroke-miterlimit="10" fill="#F7E9B1" fill-rule="evenodd" fill-opacity="0.6"/><path d="M976.5 337.495C976.5 342.835 969.5 342.835 969.5 337.495 969.5 332.168 976.5 332.168 976.5 337.495" stroke="#FEB24C" stroke-width="0.945407" stroke-linecap="round" stroke-linejoin="round" stroke-miterlimit="10" fill="#F7E9B1" fill-rule="evenodd" fill-opacity="0.6"/><path d="M983.5 337.505C983.5 342.832 975.5 342.832 975.5 337.505 975.5 332.165 983.5 332.165 983.5 337.505" stroke="#FEB24C" stroke-width="0.945407" stroke-linecap="round" stroke-linejoin="round" stroke-miterlimit="10" fill="#F7E9B1" fill-rule="evenodd" fill-opacity="0.6"/><path d="M989.5 339C989.5 343.667 982.5 343.667 982.5 339 982.5 334.333 989.5 334.333 989.5 339" stroke="#FEB24C" stroke-width="0.945407" stroke-linecap="round" stroke-linejoin="round" stroke-miterlimit="10" fill="#F7E9B1" fill-rule="evenodd" fill-opacity="0.6"/><path d="M996.5 340.495C996.5 345.835 988.5 345.835 988.5 340.495 988.5 335.168 996.5 335.168 996.5 340.495" stroke="#FEB24C" stroke-width="0.945407" stroke-linecap="round" stroke-linejoin="round" stroke-miterlimit="10" fill="#F7E9B1" fill-rule="evenodd" fill-opacity="0.6"/><path d="M1003.5 341.505C1003.5 346.832 995.5 346.832 995.5 341.505 995.5 336.165 1003.5 336.165 1003.5 341.505" stroke="#FEB24C" stroke-width="0.945407" stroke-linecap="round" stroke-linejoin="round" stroke-miterlimit="10" fill="#F7E9B1" fill-rule="evenodd" fill-opacity="0.6"/><path d="M1009.5 342.5C1009.5 347.834 1002.5 347.834 1002.5 342.5 1002.5 337.167 1009.5 337.167 1009.5 342.5" stroke="#FEB24C" stroke-width="0.945407" stroke-linecap="round" stroke-linejoin="round" stroke-miterlimit="10" fill="#F7E9B1" fill-rule="evenodd" fill-opacity="0.6"/><path d="M1016.5 343.495C1016.5 348.835 1008.5 348.835 1008.5 343.495 1008.5 338.168 1016.5 338.168 1016.5 343.495" stroke="#FEB24C" stroke-width="0.945407" stroke-linecap="round" stroke-linejoin="round" stroke-miterlimit="10" fill="#F7E9B1" fill-rule="evenodd" fill-opacity="0.6"/><path d="M1022.5 343.5C1022.5 348.834 1015.5 348.834 1015.5 343.5 1015.5 338.167 1022.5 338.167 1022.5 343.5" stroke="#FEB24C" stroke-width="0.945407" stroke-linecap="round" stroke-linejoin="round" stroke-miterlimit="10" fill="#F7E9B1" fill-rule="evenodd" fill-opacity="0.6"/><path d="M1029.5 345C1029.5 349.667 1021.5 349.667 1021.5 345 1021.5 340.333 1029.5 340.333 1029.5 345" stroke="#FEB24C" stroke-width="0.945407" stroke-linecap="round" stroke-linejoin="round" stroke-miterlimit="10" fill="#F7E9B1" fill-rule="evenodd" fill-opacity="0.6"/><path d="M1035.5 345.5C1035.5 350.834 1028.5 350.834 1028.5 345.5 1028.5 340.167 1035.5 340.167 1035.5 345.5" stroke="#FEB24C" stroke-width="0.945407" stroke-linecap="round" stroke-linejoin="round" stroke-miterlimit="10" fill="#F7E9B1" fill-rule="evenodd" fill-opacity="0.6"/><path d="M1042.5 345.495C1042.5 350.835 1034.5 350.835 1034.5 345.495 1034.5 340.168 1042.5 340.168 1042.5 345.495" stroke="#FEB24C" stroke-width="0.945407" stroke-linecap="round" stroke-linejoin="round" stroke-miterlimit="10" fill="#F7E9B1" fill-rule="evenodd" fill-opacity="0.6"/><path d="M1048.5 345.505C1048.5 350.832 1041.5 350.832 1041.5 345.505 1041.5 340.165 1048.5 340.165 1048.5 345.505" stroke="#FEB24C" stroke-width="0.945407" stroke-linecap="round" stroke-linejoin="round" stroke-miterlimit="10" fill="#F7E9B1" fill-rule="evenodd" fill-opacity="0.6"/><path d="M1055.5 345.495C1055.5 350.835 1047.5 350.835 1047.5 345.495 1047.5 340.168 1055.5 340.168 1055.5 345.495" stroke="#FEB24C" stroke-width="0.945407" stroke-linecap="round" stroke-linejoin="round" stroke-miterlimit="10" fill="#F7E9B1" fill-rule="evenodd" fill-opacity="0.6"/><path d="M1061.5 346.495C1061.5 351.835 1054.5 351.835 1054.5 346.495 1054.5 341.168 1061.5 341.168 1061.5 346.495" stroke="#FEB24C" stroke-width="0.945407" stroke-linecap="round" stroke-linejoin="round" stroke-miterlimit="10" fill="#F7E9B1" fill-rule="evenodd" fill-opacity="0.6"/><path d="M1068.5 348.5C1068.5 353.834 1060.5 353.834 1060.5 348.5 1060.5 343.167 1068.5 343.167 1068.5 348.5" stroke="#FEB24C" stroke-width="0.945407" stroke-linecap="round" stroke-linejoin="round" stroke-miterlimit="10" fill="#F7E9B1" fill-rule="evenodd" fill-opacity="0.6"/><path d="M1074.5 350.505C1074.5 355.832 1067.5 355.832 1067.5 350.505 1067.5 345.165 1074.5 345.165 1074.5 350.505" stroke="#FEB24C" stroke-width="0.945407" stroke-linecap="round" stroke-linejoin="round" stroke-miterlimit="10" fill="#F7E9B1" fill-rule="evenodd" fill-opacity="0.6"/><path d="M1081.5 351.5C1081.5 356.834 1073.5 356.834 1073.5 351.5 1073.5 346.167 1081.5 346.167 1081.5 351.5" stroke="#FEB24C" stroke-width="0.945407" stroke-linecap="round" stroke-linejoin="round" stroke-miterlimit="10" fill="#F7E9B1" fill-rule="evenodd" fill-opacity="0.6"/><path d="M1088.5 350.5C1088.5 355.834 1080.5 355.834 1080.5 350.5 1080.5 345.167 1088.5 345.167 1088.5 350.5" stroke="#FEB24C" stroke-width="0.945407" stroke-linecap="round" stroke-linejoin="round" stroke-miterlimit="10" fill="#F7E9B1" fill-rule="evenodd" fill-opacity="0.6"/><path d="M1094.5 351.5C1094.5 356.834 1087.5 356.834 1087.5 351.5 1087.5 346.167 1094.5 346.167 1094.5 351.5" stroke="#FEB24C" stroke-width="0.945407" stroke-linecap="round" stroke-linejoin="round" stroke-miterlimit="10" fill="#F7E9B1" fill-rule="evenodd" fill-opacity="0.6"/><path d="M1101.5 352.5C1101.5 357.834 1093.5 357.834 1093.5 352.5 1093.5 347.167 1101.5 347.167 1101.5 352.5" stroke="#FEB24C" stroke-width="0.945407" stroke-linecap="round" stroke-linejoin="round" stroke-miterlimit="10" fill="#F7E9B1" fill-rule="evenodd" fill-opacity="0.6"/><path d="M1107.5 352.5C1107.5 357.834 1100.5 357.834 1100.5 352.5 1100.5 347.167 1107.5 347.167 1107.5 352.5" stroke="#FEB24C" stroke-width="0.945407" stroke-linecap="round" stroke-linejoin="round" stroke-miterlimit="10" fill="#F7E9B1" fill-rule="evenodd" fill-opacity="0.6"/><path d="M1114.5 353.5C1114.5 358.834 1106.5 358.834 1106.5 353.5 1106.5 348.167 1114.5 348.167 1114.5 353.5" stroke="#FEB24C" stroke-width="0.945407" stroke-linecap="round" stroke-linejoin="round" stroke-miterlimit="10" fill="#F7E9B1" fill-rule="evenodd" fill-opacity="0.6"/><path d="M1120.5 352.505C1120.5 357.832 1113.5 357.832 1113.5 352.505 1113.5 347.165 1120.5 347.165 1120.5 352.505" stroke="#FEB24C" stroke-width="0.945407" stroke-linecap="round" stroke-linejoin="round" stroke-miterlimit="10" fill="#F7E9B1" fill-rule="evenodd" fill-opacity="0.6"/><path d="M1127.5 354.495C1127.5 359.835 1119.5 359.835 1119.5 354.495 1119.5 349.168 1127.5 349.168 1127.5 354.495" stroke="#FEB24C" stroke-width="0.945407" stroke-linecap="round" stroke-linejoin="round" stroke-miterlimit="10" fill="#F7E9B1" fill-rule="evenodd" fill-opacity="0.6"/><path d="M1133.5 356.495C1133.5 361.835 1126.5 361.835 1126.5 356.495 1126.5 351.168 1133.5 351.168 1133.5 356.495" stroke="#FEB24C" stroke-width="0.945407" stroke-linecap="round" stroke-linejoin="round" stroke-miterlimit="10" fill="#F7E9B1" fill-rule="evenodd" fill-opacity="0.6"/><path d="M1140.5 357.495C1140.5 362.835 1132.5 362.835 1132.5 357.495 1132.5 352.168 1140.5 352.168 1140.5 357.495" stroke="#FEB24C" stroke-width="0.945407" stroke-linecap="round" stroke-linejoin="round" stroke-miterlimit="10" fill="#F7E9B1" fill-rule="evenodd" fill-opacity="0.6"/><path d="M1146.5 358.5C1146.5 363.834 1139.5 363.834 1139.5 358.5 1139.5 353.167 1146.5 353.167 1146.5 358.5" stroke="#FEB24C" stroke-width="0.945407" stroke-linecap="round" stroke-linejoin="round" stroke-miterlimit="10" fill="#F7E9B1" fill-rule="evenodd" fill-opacity="0.6"/><path d="M1153.5 359.495C1153.5 364.835 1145.5 364.835 1145.5 359.495 1145.5 354.168 1153.5 354.168 1153.5 359.495" stroke="#FEB24C" stroke-width="0.945407" stroke-linecap="round" stroke-linejoin="round" stroke-miterlimit="10" fill="#F7E9B1" fill-rule="evenodd" fill-opacity="0.6"/><path d="M1159.5 360.505C1159.5 365.832 1152.5 365.832 1152.5 360.505 1152.5 355.165 1159.5 355.165 1159.5 360.505" stroke="#FEB24C" stroke-width="0.945407" stroke-linecap="round" stroke-linejoin="round" stroke-miterlimit="10" fill="#F7E9B1" fill-rule="evenodd" fill-opacity="0.6"/><path d="M1166.5 361.5C1166.5 366.834 1158.5 366.834 1158.5 361.5 1158.5 356.167 1166.5 356.167 1166.5 361.5" stroke="#FEB24C" stroke-width="0.945407" stroke-linecap="round" stroke-linejoin="round" stroke-miterlimit="10" fill="#F7E9B1" fill-rule="evenodd" fill-opacity="0.6"/><path d="M1172.5 361.505C1172.5 366.832 1165.5 366.832 1165.5 361.505 1165.5 356.165 1172.5 356.165 1172.5 361.505" stroke="#FEB24C" stroke-width="0.945407" stroke-linecap="round" stroke-linejoin="round" stroke-miterlimit="10" fill="#F7E9B1" fill-rule="evenodd" fill-opacity="0.6"/><path d="M1179.5 362.495C1179.5 367.835 1171.5 367.835 1171.5 362.495 1171.5 357.168 1179.5 357.168 1179.5 362.495" stroke="#FEB24C" stroke-width="0.945407" stroke-linecap="round" stroke-linejoin="round" stroke-miterlimit="10" fill="#F7E9B1" fill-rule="evenodd" fill-opacity="0.6"/><path d="M1186.5 363.004C1186.5 367.665 1178.5 367.665 1178.5 363.004 1178.5 358.332 1186.5 358.332 1186.5 363.004" stroke="#FEB24C" stroke-width="0.945407" stroke-linecap="round" stroke-linejoin="round" stroke-miterlimit="10" fill="#F7E9B1" fill-rule="evenodd" fill-opacity="0.6"/><path d="M1192.5 363.5C1192.5 368.834 1185.5 368.834 1185.5 363.5 1185.5 358.167 1192.5 358.167 1192.5 363.5" stroke="#FEB24C" stroke-width="0.945407" stroke-linecap="round" stroke-linejoin="round" stroke-miterlimit="10" fill="#F7E9B1" fill-rule="evenodd" fill-opacity="0.6"/><path d="M571.5 656.5 571.5 254.5" stroke="#000000" stroke-width="1.42341" stroke-linecap="square" stroke-linejoin="round" stroke-miterlimit="10" fill="none" fill-rule="evenodd"/><path d="M588.5 605.5 571.5 605.5" stroke="#000000" stroke-width="1.42341" stroke-linejoin="round" stroke-miterlimit="10" fill="none" fill-rule="evenodd"/><path d="M588.5 540.5 571.5 540.5" stroke="#000000" stroke-width="1.42341" stroke-linejoin="round" stroke-miterlimit="10" fill="none" fill-rule="evenodd"/><path d="M588.5 474.5 571.5 474.5" stroke="#000000" stroke-width="1.42341" stroke-linejoin="round" stroke-miterlimit="10" fill="none" fill-rule="evenodd"/><path d="M588.5 409.5 571.5 409.5" stroke="#000000" stroke-width="1.42341" stroke-linejoin="round" stroke-miterlimit="10" fill="none" fill-rule="evenodd"/><path d="M588.5 344.5 571.5 344.5" stroke="#000000" stroke-width="1.42341" stroke-linejoin="round" stroke-miterlimit="10" fill="none" fill-rule="evenodd"/><path d="M588.5 278.5 571.5 278.5" stroke="#000000" stroke-width="1.42341" stroke-linejoin="round" stroke-miterlimit="10" fill="none" fill-rule="evenodd"/><path d="M571.5 656.5 1218.5 656.5" stroke="#000000" stroke-width="1.42341" stroke-linecap="square" stroke-linejoin="round" stroke-miterlimit="10" fill="none" fill-rule="evenodd"/><path d="M711.5 640.5 711.5 656.5" stroke="#000000" stroke-width="1.42341" stroke-linejoin="round" stroke-miterlimit="10" fill="none" fill-rule="evenodd"/><path d="M914.5 640.5 914.5 656.5" stroke="#000000" stroke-width="1.42341" stroke-linejoin="round" stroke-miterlimit="10" fill="none" fill-rule="evenodd"/><path d="M1097.5 640.5 1097.5 656.5" stroke="#000000" stroke-width="1.42341" stroke-linejoin="round" stroke-miterlimit="10" fill="none" fill-rule="evenodd"/><text fill="#4B5E68" font-family="Arial,Arial_MSFontService,sans-serif" font-weight="400" font-size="21" transform="translate(521.674 354)">10</text><text fill="#4B5E68" font-family="Arial,Arial_MSFontService,sans-serif" font-weight="400" font-size="14" transform="translate(545.34 348)">4</text><text fill="#4B5E68" font-family="Arial,Arial_MSFontService,sans-serif" font-weight="400" font-size="21" transform="translate(521.674 419)">10</text><text fill="#4B5E68" font-family="Arial,Arial_MSFontService,sans-serif" font-weight="400" font-size="14" transform="translate(545.34 413)">3</text><text fill="#4B5E68" font-family="Arial,Arial_MSFontService,sans-serif" font-weight="400" font-size="21" transform="translate(521.674 482)">10</text><text fill="#4B5E68" font-family="Arial,Arial_MSFontService,sans-serif" font-weight="400" font-size="14" transform="translate(545.34 476)">2</text><text fill="#4B5E68" font-family="Arial,Arial_MSFontService,sans-serif" font-weight="400" font-size="21" transform="translate(521.674 550)">10</text><text fill="#4B5E68" font-family="Arial,Arial_MSFontService,sans-serif" font-weight="400" font-size="14" transform="translate(545.34 544)">1</text><text fill="#4B5E68" font-family="Arial,Arial_MSFontService,sans-serif" font-weight="400" font-size="21" transform="translate(521.674 619)">10</text><text fill="#4B5E68" font-family="Arial,Arial_MSFontService,sans-serif" font-weight="400" font-size="14" transform="translate(545.34 613)">0</text><text fill="#4B5E68" font-family="Arial,Arial_MSFontService,sans-serif" font-weight="400" font-size="21" transform="translate(521.674 288)">10</text><text fill="#4B5E68" font-family="Arial,Arial_MSFontService,sans-serif" font-weight="400" font-size="14" transform="translate(545.34 282)">5</text><text fill="#4B5E68" font-family="Arial,Arial_MSFontService,sans-serif" font-weight="400" font-size="21" transform="translate(698.598 684)">Jan</text><text fill="#4B5E68" font-family="Arial,Arial_MSFontService,sans-serif" font-weight="400" font-size="21" transform="translate(895.506 684)">Feb</text><text fill="#4B5E68" font-family="Arial,Arial_MSFontService,sans-serif" font-weight="400" font-size="21" transform="translate(1081.51 684)">Mar</text><path d="M655.5 543.5 694.309 543.5" stroke="#D23369" stroke-width="3" stroke-miterlimit="8" fill="none" fill-rule="evenodd"/><path d="M655.5 581.5 694.309 581.5" stroke="#4B5E68" stroke-width="3" stroke-miterlimit="8" fill="none" fill-rule="evenodd"/><text fill="#A0234E" font-family="Arial,Arial_MSFontService,sans-serif" font-weight="400" font-size="19" transform="translate(708.841 551)">Accounting for shedding load variability</text><text fill="#4B5E68" font-family="Arial,Arial_MSFontService,sans-serif" font-weight="400" font-size="19" transform="translate(708.841 583)">Using population</text><text fill="#4B5E68" font-family="Arial,Arial_MSFontService,sans-serif" font-weight="400" font-size="19" transform="translate(847.508 583)">-</text><text fill="#4B5E68" font-family="Arial,Arial_MSFontService,sans-serif" font-weight="400" font-size="19" transform="translate(853.674 583)">level shedding load (neglecting the variability)</text><path d="M665.5 611C665.5 605.753 669.753 601.5 675 601.5 680.247 601.5 684.5 605.753 684.5 611 684.5 616.247 680.247 620.5 675 620.5 669.753 620.5 665.5 616.247 665.5 611Z" stroke="#F79646" stroke-width="1.33333" stroke-miterlimit="8" fill="#FDEADA" fill-rule="evenodd" fill-opacity="0.6"/><text fill="#4B5E68" font-family="Arial,Arial_MSFontService,sans-serif" font-weight="400" font-size="19" transform="translate(708.841 619)">COVID</text><text fill="#4B5E68" font-family="Arial,Arial_MSFontService,sans-serif" font-weight="400" font-size="19" transform="translate(768.007 619)">-</text><text fill="#4B5E68" font-family="Arial,Arial_MSFontService,sans-serif" font-weight="400" font-size="19" transform="translate(774.174 619)">19 cases reported by clinical surveillance</text></g></svg>