<svg width="1282" height="724" xmlns="http://www.w3.org/2000/svg" xmlns:xlink="http://www.w3.org/1999/xlink" overflow="hidden"><g transform="translate(1 3)"><rect x="0" y="-2" width="1280" height="720" fill="#FFFFFF"/><rect x="0" y="0" width="1280" height="720" fill="#FFFFFF"/><rect x="0.500053" y="-1.50005" width="1280" height="37.0001" stroke="#7F7F7F" stroke-width="1.33333" stroke-miterlimit="8" fill="#D9D9D9"/><text fill="#4B5E68" font-family="Arial,Arial_MSFontService,sans-serif" font-weight="700" font-size="21" transform="translate(392 25)">Supplemental methods for real</text><text fill="#4B5E68" font-family="Arial,Arial_MSFontService,sans-serif" font-weight="700" font-size="21" transform="translate(705.167 25)">-</text><text fill="#4B5E68" font-family="Arial,Arial_MSFontService,sans-serif" font-weight="700" font-size="21" transform="translate(712.333 25)">world application</text><path d="M33.0536 115.703 632.412 115.703 632.412 150.903 33.0536 150.903Z" fill="#4B5E68" fill-rule="evenodd"/><path d="M632.412 115.703 710.598 115.703 710.598 150.903 632.412 150.903Z" fill="#4B5E68" fill-rule="evenodd"/><path d="M710.598 115.703 997.608 115.703 997.608 150.903 710.598 150.903Z" fill="#4B5E68" fill-rule="evenodd"/><path d="M997.608 115.703 1246.95 115.703 1246.95 150.903 997.608 150.903Z" fill="#4B5E68" fill-rule="evenodd"/><path d="M33.0536 182.591 632.412 182.591 632.412 214.279 33.0536 214.279Z" fill="#D9D9D9" fill-rule="evenodd"/><path d="M632.412 182.591 710.598 182.591 710.598 214.279 632.412 214.279Z" fill="#D9D9D9" fill-rule="evenodd"/><path d="M710.598 182.591 997.608 182.591 997.608 214.279 710.598 214.279Z" fill="#D9D9D9" fill-rule="evenodd"/><path d="M997.608 182.591 1246.95 182.591 1246.95 214.279 997.608 214.279Z" fill="#D9D9D9" fill-rule="evenodd"/><path d="M33.0536 245.966 632.412 245.966 632.412 277.654 33.0536 277.654Z" fill="#D9D9D9" fill-rule="evenodd"/><path d="M632.412 245.966 710.598 245.966 710.598 277.654 632.412 277.654Z" fill="#D9D9D9" fill-rule="evenodd"/><path d="M710.598 245.966 997.608 245.966 997.608 277.654 710.598 277.654Z" fill="#D9D9D9" fill-rule="evenodd"/><path d="M997.608 245.966 1246.95 245.966 1246.95 277.654 997.608 277.654Z" fill="#D9D9D9" fill-rule="evenodd"/><path d="M33.0536 309.342 632.412 309.342 632.412 341.029 33.0536 341.029Z" fill="#D9D9D9" fill-rule="evenodd"/><path d="M632.412 309.342 710.598 309.342 710.598 341.029 632.412 341.029Z" fill="#D9D9D9" fill-rule="evenodd"/><path d="M710.598 309.342 997.608 309.342 997.608 341.029 710.598 341.029Z" fill="#D9D9D9" fill-rule="evenodd"/><path d="M997.608 309.342 1246.95 309.342 1246.95 341.029 997.608 341.029Z" fill="#D9D9D9" fill-rule="evenodd"/><path d="M33.0536 341.029 632.412 341.029 632.412 372.717 33.0536 372.717Z" fill="#FFFFFF" fill-rule="evenodd"/><path d="M632.412 341.029 710.598 341.029 710.598 372.717 632.412 372.717Z" fill="#FFFFFF" fill-rule="evenodd"/><path d="M710.598 341.029 997.608 341.029 997.608 372.717 710.598 372.717Z" fill="#FFFFFF" fill-rule="evenodd"/><path d="M997.608 341.029 1246.95 341.029 1246.95 372.717 997.608 372.717Z" fill="#FFFFFF" fill-rule="evenodd"/><path d="M33.0536 372.717 632.412 372.717 632.412 404.405 33.0536 404.405Z" fill="#D9D9D9" fill-rule="evenodd"/><path d="M632.412 372.717 710.598 372.717 710.598 404.405 632.412 404.405Z" fill="#D9D9D9" fill-rule="evenodd"/><path d="M710.598 372.717 997.608 372.717 997.608 404.405 710.598 404.405Z" fill="#D9D9D9" fill-rule="evenodd"/><path d="M997.608 372.717 1246.95 372.717 1246.95 404.405 997.608 404.405Z" fill="#D9D9D9" fill-rule="evenodd"/><path d="M33.0536 404.405 632.412 404.405 632.412 436.092 33.0536 436.092Z" fill="#FFFFFF" fill-rule="evenodd"/><path d="M632.412 404.405 710.598 404.405 710.598 436.092 632.412 436.092Z" fill="#FFFFFF" fill-rule="evenodd"/><path d="M710.598 404.405 997.608 404.405 997.608 436.092 710.598 436.092Z" fill="#FFFFFF" fill-rule="evenodd"/><path d="M997.608 404.405 1246.95 404.405 1246.95 436.092 997.608 436.092Z" fill="#FFFFFF" fill-rule="evenodd"/><path d="M33.0536 436.092 632.412 436.092 632.412 467.78 33.0536 467.78Z" fill="#D9D9D9" fill-rule="evenodd"/><path d="M632.412 436.092 710.598 436.092 710.598 467.78 632.412 467.78Z" fill="#D9D9D9" fill-rule="evenodd"/><path d="M710.598 436.092 997.608 436.092 997.608 467.78 710.598 467.78Z" fill="#D9D9D9" fill-rule="evenodd"/><path d="M997.608 436.092 1246.95 436.092 1246.95 467.78 997.608 467.78Z" fill="#D9D9D9" fill-rule="evenodd"/><path d="M33.0536 467.78 632.412 467.78 632.412 499.468 33.0536 499.468Z" fill="#FFFFFF" fill-rule="evenodd"/><path d="M632.412 467.78 710.598 467.78 710.598 499.468 632.412 499.468Z" fill="#FFFFFF" fill-rule="evenodd"/><path d="M710.598 467.78 997.608 467.78 997.608 499.468 710.598 499.468Z" fill="#FFFFFF" fill-rule="evenodd"/><path d="M997.608 467.78 1246.95 467.78 1246.95 499.468 997.608 499.468Z" fill="#FFFFFF" fill-rule="evenodd"/><path d="M33.0536 499.468 632.412 499.468 632.412 531.155 33.0536 531.155Z" fill="#D9D9D9" fill-rule="evenodd"/><path d="M632.412 499.468 710.598 499.468 710.598 531.155 632.412 531.155Z" fill="#D9D9D9" fill-rule="evenodd"/><path d="M710.598 499.468 997.608 499.468 997.608 531.155 710.598 531.155Z" fill="#D9D9D9" fill-rule="evenodd"/><path d="M997.608 499.468 1246.95 499.468 1246.95 531.155 997.608 531.155Z" fill="#D9D9D9" fill-rule="evenodd"/><path d="M632.412 115.037 632.412 531.822" stroke="#FFFFFF" stroke-width="1.33333" stroke-linejoin="round" stroke-miterlimit="10" fill="none" fill-rule="evenodd"/><path d="M710.598 115.037 710.598 531.822" stroke="#FFFFFF" stroke-width="1.33333" stroke-linejoin="round" stroke-miterlimit="10" fill="none" fill-rule="evenodd"/><path d="M997.608 115.037 997.608 531.822" stroke="#FFFFFF" stroke-width="1.33333" stroke-linejoin="round" stroke-miterlimit="10" fill="none" fill-rule="evenodd"/><path d="M32.387 150.903 1247.61 150.903" stroke="#FFFFFF" stroke-width="4" stroke-linejoin="round" stroke-miterlimit="10" fill="none" fill-rule="evenodd"/><path d="M32.387 182.591 1247.61 182.591" stroke="#FFFFFF" stroke-width="1.33333" stroke-linejoin="round" stroke-miterlimit="10" fill="none" fill-rule="evenodd"/><path d="M32.387 214.279 1247.61 214.279" stroke="#FFFFFF" stroke-width="1.33333" stroke-linejoin="round" stroke-miterlimit="10" fill="none" fill-rule="evenodd"/><path d="M32.387 245.966 1247.61 245.966" stroke="#FFFFFF" stroke-width="1.33333" stroke-linejoin="round" stroke-miterlimit="10" fill="none" fill-rule="evenodd"/><path d="M32.387 277.654 1247.61 277.654" stroke="#FFFFFF" stroke-width="1.33333" stroke-linejoin="round" stroke-miterlimit="10" fill="none" fill-rule="evenodd"/><path d="M32.387 309.342 1247.61 309.342" stroke="#FFFFFF" stroke-width="1.33333" stroke-linejoin="round" stroke-miterlimit="10" fill="none" fill-rule="evenodd"/><path d="M32.387 341.029 1247.61 341.029" stroke="#FFFFFF" stroke-width="1.33333" stroke-linejoin="round" stroke-miterlimit="10" fill="none" fill-rule="evenodd"/><path d="M32.387 372.717 1247.61 372.717" stroke="#FFFFFF" stroke-width="1.33333" stroke-linejoin="round" stroke-miterlimit="10" fill="none" fill-rule="evenodd"/><path d="M32.387 404.405 1247.61 404.405" stroke="#FFFFFF" stroke-width="1.33333" stroke-linejoin="round" stroke-miterlimit="10" fill="none" fill-rule="evenodd"/><path d="M32.387 436.092 1247.61 436.092" stroke="#FFFFFF" stroke-width="1.33333" stroke-linejoin="round" stroke-miterlimit="10" fill="none" fill-rule="evenodd"/><path d="M32.387 467.78 1247.61 467.78" stroke="#FFFFFF" stroke-width="1.33333" stroke-linejoin="round" stroke-miterlimit="10" fill="none" fill-rule="evenodd"/><path d="M32.387 499.468 1247.61 499.468" stroke="#FFFFFF" stroke-width="1.33333" stroke-linejoin="round" stroke-miterlimit="10" fill="none" fill-rule="evenodd"/><path d="M33.0536 115.037 33.0536 531.822" stroke="#FFFFFF" stroke-width="1.33333" stroke-linejoin="round" stroke-miterlimit="10" fill="none" fill-rule="evenodd"/><path d="M1246.95 115.037 1246.95 531.822" stroke="#FFFFFF" stroke-width="1.33333" stroke-linejoin="round" stroke-miterlimit="10" fill="none" fill-rule="evenodd"/><path d="M32.387 115.703 1247.61 115.703" stroke="#FFFFFF" stroke-width="1.33333" stroke-linejoin="round" stroke-miterlimit="10" fill="none" fill-rule="evenodd"/><path d="M32.387 531.155 1247.61 531.155" stroke="#000000" stroke-width="1.33333" stroke-linejoin="round" stroke-miterlimit="10" fill="none" fill-rule="evenodd"/><text fill="#FFFFFF" font-family="Arial,Arial_MSFontService,sans-serif" font-weight="700" font-size="21" transform="translate(1070.78 137)">Reference</text><text fill="#FFFFFF" font-family="Arial,Arial_MSFontService,sans-serif" font-weight="700" font-size="21" transform="translate(812.603 137)">Symbol</text><text fill="#FFFFFF" font-family="Arial,Arial_MSFontService,sans-serif" font-weight="700" font-size="21" transform="translate(274.066 142)">Description</text><text font-family="Arial,Arial_MSFontService,sans-serif" font-weight="400" font-size="21" transform="translate(1049.97 172)">Madwell</text><text font-family="Arial,Arial_MSFontService,sans-serif" font-style="italic" font-weight="400" font-size="21" transform="translate(1133.97 172)">et al</text><g><text font-family="Arial,Arial_MSFontService,sans-serif" font-weight="400" font-size="21" transform="translate(1174.31 172)">., 2023</text></g><text font-family="Arial,Arial_MSFontService,sans-serif" font-weight="400" font-size="21" transform="translate(748.603 172)">Gamma (2.00, 0.625)</text><text font-family="Arial,Arial_MSFontService,sans-serif" font-weight="400" font-size="14" transform="translate(951.77 166)">a</text><g><text font-family="Arial,Arial_MSFontService,sans-serif" font-weight="400" font-size="21" transform="translate(639.612 172)">g</text></g><text font-family="Arial,Arial_MSFontService,sans-serif" font-weight="400" font-size="14" transform="translate(651.446 176)">i</text><g><text font-family="Arial,Arial_MSFontService,sans-serif" font-weight="400" font-size="21" transform="translate(40.2536 172)">Generation</text></g><text font-family="Arial,Arial_MSFontService,sans-serif" font-weight="400" font-size="21" transform="translate(151.754 172)">interval</text><text font-family="Arial,Arial_MSFontService,sans-serif" font-weight="400" font-size="21" transform="translate(1078.31 204)">Ando</text><text font-family="Arial,Arial_MSFontService,sans-serif" font-style="italic" font-weight="400" font-size="21" transform="translate(1133.97 204)">et al</text><text font-family="Arial,Arial_MSFontService,sans-serif" font-weight="400" font-size="21" transform="translate(1174.31 204)">.,</text><text font-family="Arial,Arial_MSFontService,sans-serif" font-weight="400" font-size="21" transform="translate(1192.31 204)">20</text><g><text font-family="Arial,Arial_MSFontService,sans-serif" font-weight="400" font-size="21" transform="translate(1215.97 204)">26</text></g><text font-family="Arial,Arial_MSFontService,sans-serif" font-weight="400" font-size="21" transform="translate(754.52 204)">Gamma (2.96, 1.75)</text><text font-family="Arial,Arial_MSFontService,sans-serif" font-weight="400" font-size="14" transform="translate(945.853 198)">a</text><g><text font-family="Arial,Arial_MSFontService,sans-serif" font-weight="400" font-size="21" transform="translate(639.612 204)">g</text></g><text font-family="Arial,Arial_MSFontService,sans-serif" font-weight="400" font-size="14" transform="translate(651.446 208)">shed</text><g><text font-family="Arial,Arial_MSFontService,sans-serif" font-weight="400" font-size="21" transform="translate(40.2536 204)">Shedding</text></g><text font-family="Arial,Arial_MSFontService,sans-serif" font-weight="400" font-size="21" transform="translate(136.087 204)">onset</text><text font-family="Arial,Arial_MSFontService,sans-serif" font-weight="400" font-size="21" transform="translate(194.254 204)">distribution</text><g><text font-family="Arial,Arial_MSFontService,sans-serif" font-weight="400" font-size="21" transform="translate(1150.81 235)">Assumed</text></g><text font-family="Arial,Arial_MSFontService,sans-serif" font-weight="400" font-size="21" transform="translate(754.52 235)">Gamma (4.00, 0.80)</text><text font-family="Arial,Arial_MSFontService,sans-serif" font-weight="400" font-size="14" transform="translate(945.853 229)">a</text><g><text font-family="Arial,Arial_MSFontService,sans-serif" font-weight="400" font-size="21" transform="translate(639.612 235)">g</text></g><text font-family="Arial,Arial_MSFontService,sans-serif" font-weight="400" font-size="14" transform="translate(651.446 239)">c</text><g><text font-family="Arial,Arial_MSFontService,sans-serif" font-weight="400" font-size="21" transform="translate(40.2536 235)">Time</text></g><text font-family="Arial,Arial_MSFontService,sans-serif" font-weight="400" font-size="21" transform="translate(92.7936 235)">to</text><text font-family="Arial,Arial_MSFontService,sans-serif" font-weight="400" font-size="21" transform="translate(116.627 235)">case</text><text font-family="Arial,Arial_MSFontService,sans-serif" font-weight="400" font-size="21" transform="translate(161.627 235)">-</text><text font-family="Arial,Arial_MSFontService,sans-serif" font-weight="400" font-size="21" transform="translate(168.794 235)">ascertainment</text><text font-family="Arial,Arial_MSFontService,sans-serif" font-weight="400" font-size="21" transform="translate(308.794 235)">from</text><text font-family="Arial,Arial_MSFontService,sans-serif" font-weight="400" font-size="21" transform="translate(357.627 235)">infection</text><text font-family="Arial,Arial_MSFontService,sans-serif" font-weight="400" font-size="21" transform="translate(1074.81 267)">Plank</text><text font-family="Arial,Arial_MSFontService,sans-serif" font-style="italic" font-weight="400" font-size="21" transform="translate(1133.97 267)">et al</text><g><text font-family="Arial,Arial_MSFontService,sans-serif" font-weight="400" font-size="21" transform="translate(1174.31 267)">., 2025</text></g><text font-family="Arial,Arial_MSFontService,sans-serif" font-weight="400" font-size="21" transform="translate(833.353 267)">0.05</text><g><text font-family="Arial,Arial_MSFontService,sans-serif" font-weight="400" font-size="21" transform="translate(639.612 267)">σ</text></g><text font-family="Arial,Arial_MSFontService,sans-serif" font-weight="400" font-size="14" transform="translate(652.779 271)">1</text><g><text font-family="Arial,Arial_MSFontService,sans-serif" font-weight="400" font-size="21" transform="translate(40.2536 267)">Parameter</text></g><text font-family="Arial,Arial_MSFontService,sans-serif" font-weight="400" font-size="21" transform="translate(145.92 267)">for</text><text font-family="Arial,Arial_MSFontService,sans-serif" font-weight="400" font-size="21" transform="translate(176.92 267)">Gaussian</text><text font-family="Arial,Arial_MSFontService,sans-serif" font-weight="400" font-size="21" transform="translate(272.92 267)">random</text><text font-family="Arial,Arial_MSFontService,sans-serif" font-weight="400" font-size="21" transform="translate(351.254 267)">walk</text><g><text font-family="Arial,Arial_MSFontService,sans-serif" font-weight="400" font-size="21" transform="translate(1150.81 299)">Assumed</text></g><text font-family="Arial,Arial_MSFontService,sans-serif" font-weight="400" font-size="21" transform="translate(833.353 299)">0.25</text><g><text font-family="Arial,Arial_MSFontService,sans-serif" font-weight="400" font-size="21" transform="translate(639.612 299)">σ</text></g><text font-family="Arial,Arial_MSFontService,sans-serif" font-weight="400" font-size="14" transform="translate(652.779 303)">2</text><g><text font-family="Arial,Arial_MSFontService,sans-serif" font-weight="400" font-size="21" transform="translate(40.2536 299)">Measurement</text></g><text font-family="Arial,Arial_MSFontService,sans-serif" font-weight="400" font-size="21" transform="translate(176.754 299)">errors</text><g><text font-family="Arial,Arial_MSFontService,sans-serif" font-weight="400" font-size="21" transform="translate(1132.97 330)">Section 1.3</text></g><text font-family="Arial,Arial_MSFontService,sans-serif" font-weight="400" font-size="21" transform="translate(833.353 330)">1.20</text><g><text font-family="Arial,Arial_MSFontService,sans-serif" font-weight="400" font-size="21" transform="translate(639.612 330)">σ</text></g><text font-family="Arial,Arial_MSFontService,sans-serif" font-weight="400" font-size="14" transform="translate(652.779 334)">v</text><g><text font-family="Arial,Arial_MSFontService,sans-serif" font-weight="400" font-size="21" transform="translate(40.2536 330)">Shedding</text></g><text font-family="Arial,Arial_MSFontService,sans-serif" font-weight="400" font-size="21" transform="translate(136.087 330)">load</text><text font-family="Arial,Arial_MSFontService,sans-serif" font-weight="400" font-size="21" transform="translate(182.254 330)">variability</text><g><text font-family="Arial,Arial_MSFontService,sans-serif" font-weight="400" font-size="21" transform="translate(1219.47 362)">SI</text></g><text font-family="Arial,Arial_MSFontService,sans-serif" font-weight="400" font-size="21" transform="translate(823.853 362)">-</text><text font-family="Arial,Arial_MSFontService,sans-serif" font-weight="400" font-size="21" transform="translate(831.02 362)">0.523</text><g><text font-family="Arial,Arial_MSFontService,sans-serif" font-weight="400" font-size="21" transform="translate(639.612 362)">μ</text></g><g><text font-family="Arial,Arial_MSFontService,sans-serif" font-weight="400" font-size="21" transform="translate(40.2536 362)">Scale</text></g><text font-family="Arial,Arial_MSFontService,sans-serif" font-weight="400" font-size="21" transform="translate(99.4203 362)">parameter</text><text font-family="Arial,Arial_MSFontService,sans-serif" font-weight="400" font-size="21" transform="translate(202.754 362)">of</text><text font-family="Arial,Arial_MSFontService,sans-serif" font-weight="400" font-size="21" transform="translate(226.587 362)">the</text><text font-family="Arial,Arial_MSFontService,sans-serif" font-weight="400" font-size="21" transform="translate(262.254 362)">shedding</text><text font-family="Arial,Arial_MSFontService,sans-serif" font-weight="400" font-size="21" transform="translate(354.587 362)">dynamics</text><text font-family="Arial,Arial_MSFontService,sans-serif" font-weight="400" font-size="21" transform="translate(450.587 362)">model</text><text font-family="Arial,Arial_MSFontService,sans-serif" font-weight="400" font-size="21" transform="translate(1074.81 394)">Plank</text><text font-family="Arial,Arial_MSFontService,sans-serif" font-style="italic" font-weight="400" font-size="21" transform="translate(1133.97 394)">et al</text><g><text font-family="Arial,Arial_MSFontService,sans-serif" font-weight="400" font-size="21" transform="translate(1174.31 394)">., 2025</text></g><text font-family="Arial,Arial_MSFontService,sans-serif" font-weight="400" font-size="21" transform="translate(833.353 394)">0.61</text><g><text font-family="Arial,Arial_MSFontService,sans-serif" font-weight="400" font-size="21" transform="translate(639.612 394)">α</text></g><g><text font-family="Arial,Arial_MSFontService,sans-serif" font-weight="400" font-size="21" transform="translate(40.2536 394)">Shape</text></g><text font-family="Arial,Arial_MSFontService,sans-serif" font-weight="400" font-size="21" transform="translate(107.754 394)">parameter</text><text font-family="Arial,Arial_MSFontService,sans-serif" font-weight="400" font-size="21" transform="translate(211.087 394)">of</text><text font-family="Arial,Arial_MSFontService,sans-serif" font-weight="400" font-size="21" transform="translate(234.92 394)">the</text><text font-family="Arial,Arial_MSFontService,sans-serif" font-weight="400" font-size="21" transform="translate(270.587 394)">shedding</text><text font-family="Arial,Arial_MSFontService,sans-serif" font-weight="400" font-size="21" transform="translate(362.92 394)">dynamics</text><text font-family="Arial,Arial_MSFontService,sans-serif" font-weight="400" font-size="21" transform="translate(458.92 394)">model</text><text font-family="Arial,Arial_MSFontService,sans-serif" font-weight="400" font-size="21" transform="translate(1074.81 425)">Plank</text><text font-family="Arial,Arial_MSFontService,sans-serif" font-style="italic" font-weight="400" font-size="21" transform="translate(1133.97 425)">et al</text><g><text font-family="Arial,Arial_MSFontService,sans-serif" font-weight="400" font-size="21" transform="translate(1174.31 425)">., 2025</text></g><text font-family="Arial,Arial_MSFontService,sans-serif" font-weight="400" font-size="21" transform="translate(833.353 425)">10.2</text><g><text font-family="Arial,Arial_MSFontService,sans-serif" font-weight="400" font-size="21" transform="translate(639.612 425)">β</text></g><g><text font-family="Arial,Arial_MSFontService,sans-serif" font-weight="400" font-size="21" transform="translate(40.2536 425)">Shape</text></g><text font-family="Arial,Arial_MSFontService,sans-serif" font-weight="400" font-size="21" transform="translate(107.754 425)">parameter</text><text font-family="Arial,Arial_MSFontService,sans-serif" font-weight="400" font-size="21" transform="translate(211.087 425)">of</text><text font-family="Arial,Arial_MSFontService,sans-serif" font-weight="400" font-size="21" transform="translate(234.92 425)">the</text><text font-family="Arial,Arial_MSFontService,sans-serif" font-weight="400" font-size="21" transform="translate(270.587 425)">shedding</text><text font-family="Arial,Arial_MSFontService,sans-serif" font-weight="400" font-size="21" transform="translate(362.92 425)">dynamics</text><text font-family="Arial,Arial_MSFontService,sans-serif" font-weight="400" font-size="21" transform="translate(458.92 425)">model</text><text font-family="Arial,Arial_MSFontService,sans-serif" font-weight="400" font-size="21" transform="translate(1142.97 457)">Assumed</text><g><text font-family="Arial,Arial_MSFontService,sans-serif" font-weight="400" font-size="14" transform="translate(1231.81 451)">b</text></g><text font-family="Arial,Arial_MSFontService,sans-serif" font-weight="400" font-size="21" transform="translate(827.103 457)">−5.30</text><g><text font-family="Arial,Arial_MSFontService,sans-serif" font-weight="400" font-size="21" transform="translate(639.612 457)">C</text></g><text font-family="Arial,Arial_MSFontService,sans-serif" font-weight="400" font-size="14" transform="translate(654.946 461)">1</text><g><text font-family="Arial,Arial_MSFontService,sans-serif" font-weight="400" font-size="21" transform="translate(40.2536 457)">Parameter</text></g><text font-family="Arial,Arial_MSFontService,sans-serif" font-weight="400" font-size="21" transform="translate(145.92 457)">for</text><text font-family="Arial,Arial_MSFontService,sans-serif" font-weight="400" font-size="21" transform="translate(176.92 457)">the</text><text font-family="Arial,Arial_MSFontService,sans-serif" font-weight="400" font-size="21" transform="translate(212.587 457)">logistic</text><text font-family="Arial,Arial_MSFontService,sans-serif" font-weight="400" font-size="21" transform="translate(283.587 457)">function</text><g><text font-family="Arial,Arial_MSFontService,sans-serif" font-weight="400" font-size="21" transform="translate(1219.47 489)">SI</text></g><text font-family="Arial,Arial_MSFontService,sans-serif" font-weight="400" font-size="21" transform="translate(833.353 489)">3.50</text><g><text font-family="Arial,Arial_MSFontService,sans-serif" font-weight="400" font-size="21" transform="translate(639.612 489)">C</text></g><text font-family="Arial,Arial_MSFontService,sans-serif" font-weight="400" font-size="14" transform="translate(654.946 493)">2</text><g><text font-family="Arial,Arial_MSFontService,sans-serif" font-weight="400" font-size="21" transform="translate(40.2536 489)">Parameter</text></g><text font-family="Arial,Arial_MSFontService,sans-serif" font-weight="400" font-size="21" transform="translate(145.92 489)">for</text><text font-family="Arial,Arial_MSFontService,sans-serif" font-weight="400" font-size="21" transform="translate(176.92 489)">the</text><text font-family="Arial,Arial_MSFontService,sans-serif" font-weight="400" font-size="21" transform="translate(212.587 489)">logistic</text><text font-family="Arial,Arial_MSFontService,sans-serif" font-weight="400" font-size="21" transform="translate(283.587 489)">function</text><text font-family="Arial,Arial_MSFontService,sans-serif" font-weight="400" font-size="21" transform="translate(1015.1 520)">Wannigama</text><text font-family="Arial,Arial_MSFontService,sans-serif" font-style="italic" font-weight="400" font-size="21" transform="translate(1133.97 520)">et al</text><g><text font-family="Arial,Arial_MSFontService,sans-serif" font-weight="400" font-size="21" transform="translate(1174.31 520)">., 2024</text></g><text font-family="Arial,Arial_MSFontService,sans-serif" font-weight="400" font-size="21" transform="translate(833.353 520)">0.70</text><g><text font-family="Arial,Arial_MSFontService,sans-serif" font-weight="400" font-size="21" transform="translate(639.612 520)">ρ</text></g><g><text font-family="Arial,Arial_MSFontService,sans-serif" font-weight="400" font-size="21" transform="translate(40.2536 520)">Absolute</text></g><text font-family="Arial,Arial_MSFontService,sans-serif" font-weight="400" font-size="21" transform="translate(129.087 520)">case</text><text font-family="Arial,Arial_MSFontService,sans-serif" font-weight="400" font-size="21" transform="translate(174.087 520)">-</text><text font-family="Arial,Arial_MSFontService,sans-serif" font-weight="400" font-size="21" transform="translate(181.254 520)">ascertainment</text><text font-family="Arial,Arial_MSFontService,sans-serif" font-weight="400" font-size="21" transform="translate(321.254 520)">rate</text><text fill="#4B5E68" font-family="Arial,Arial_MSFontService,sans-serif" font-weight="700" font-size="37" transform="translate(478.111 99)">Parameter setting</text><text fill="#4B5E68" font-family="Arial,Arial_MSFontService,sans-serif" font-weight="400" font-size="21" transform="translate(42.6536 579)">•</text><text fill="#4B5E68" font-family="Arial,Arial_MSFontService,sans-serif" font-weight="400" font-size="21" transform="translate(72.6536 579)">Mean and variance of Gamma(a, b) are a/b and a/b</text><text fill="#4B5E68" font-family="Arial,Arial_MSFontService,sans-serif" font-weight="400" font-size="14" transform="translate(559.487 573)">2</text><text fill="#4B5E68" font-family="Arial,Arial_MSFontService,sans-serif" font-weight="400" font-size="21" transform="translate(567.32 579)">, respectively</text><text fill="#4B5E68" font-family="Arial,Arial_MSFontService,sans-serif" font-weight="400" font-size="19" transform="translate(691.82 579)">.</text></g></svg>