<svg width="1282" height="722" xmlns="http://www.w3.org/2000/svg" xmlns:xlink="http://www.w3.org/1999/xlink" overflow="hidden"><g transform="translate(1 1)"><rect x="0" y="0" width="1280" height="720" fill="#FFFFFF"/><text fill="#FFFFFF" font-family="Cambria Math,Cambria Math_MSFontService,sans-serif" font-weight="400" font-size="24" transform="translate(487.987 369)">𝑃</text><text fill="#FFFFFF" font-family="Cambria Math,Cambria Math_MSFontService,sans-serif" font-weight="400" font-size="18" transform="translate(498.133 374)">𝑒</text><path d="M529.962 350.666C532.243 351.268 533.995 352.567 535.218 354.563 536.44 356.559 537.052 358.967 537.052 361.788 537.052 364.616 536.442 367.024 535.223 369.012 534.005 371 532.251 372.295 529.962 372.897L529.68 371.995C531.485 371.393 532.827 370.205 533.706 368.432 534.585 366.659 535.024 364.405 535.024 361.67 535.024 359.03 534.587 356.836 533.712 355.09 532.837 353.344 531.481 352.17 529.645 351.569ZM518.353 350.666 518.669 351.569C516.841 352.17 515.487 353.344 514.608 355.09 513.729 356.836 513.29 359.03 513.29 361.67 513.29 364.405 513.729 366.659 514.608 368.432 515.487 370.205 516.829 371.393 518.634 371.995L518.353 372.897C516.063 372.295 514.31 371 513.091 369.012 511.872 367.024 511.263 364.616 511.263 361.788 511.263 358.967 511.874 356.559 513.097 354.563 514.319 352.567 516.071 351.268 518.353 350.666Z" fill="#FFFFFF" fill-rule="evenodd"/><text fill="#FFFFFF" font-family="Cambria Math,Cambria Math_MSFontService,sans-serif" font-weight="400" font-size="24" transform="translate(519.113 369)">𝑡</text><path d="M487.993 346.837 494.8 346.837 498.318 346.837 501.607 346.837 505.124 346.837 508.413 346.837 511.931 346.837 515.22 346.837 518.738 346.837 522.027 346.837 525.544 346.837 528.833 346.837 532.351 346.837 539.158 346.837 539.158 348.079 532.351 348.079 528.833 348.079 525.544 348.079 522.027 348.079 518.738 348.079 515.22 348.079 511.931 348.079 508.413 348.079 505.124 348.079 501.607 348.079 498.318 348.079 494.8 348.079 487.993 348.079Z" fill="#FFFFFF" fill-rule="evenodd"/><text fill="#FFFFFF" font-family="Cambria Math,Cambria Math_MSFontService,sans-serif" font-weight="400" font-size="24" transform="translate(545.827 369)">=</text><text fill="#FFFFFF" font-family="Cambria Math,Cambria Math_MSFontService,sans-serif" font-weight="400" font-size="24" transform="translate(570.493 369)">𝑞</text><text fill="#FFFFFF" font-family="Cambria Math,Cambria Math_MSFontService,sans-serif" font-weight="400" font-size="24" transform="translate(584.22 369)">(</text><text fill="#FFFFFF" font-family="Cambria Math,Cambria Math_MSFontService,sans-serif" font-weight="400" font-size="24" transform="translate(594.22 369)">𝑡</text><text fill="#FFFFFF" font-family="Cambria Math,Cambria Math_MSFontService,sans-serif" font-weight="400" font-size="24" transform="translate(604.307 369)">)</text><text fill="#FFFFFF" font-family="Cambria Math,Cambria Math_MSFontService,sans-serif" font-weight="400" font-size="18" transform="translate(614.307 360)">𝐼</text><text fill="#FFFFFF" font-family="Cambria Math,Cambria Math_MSFontService,sans-serif" font-weight="400" font-size="14" transform="translate(621.14 364)">ℎ</text><path d="M647.511 346.406C649.222 346.858 650.536 347.832 651.453 349.329 652.37 350.826 652.829 352.632 652.829 354.747 652.829 356.868 652.372 358.675 651.458 360.166 650.544 361.657 649.228 362.628 647.511 363.079L647.3 362.403C648.654 361.951 649.66 361.061 650.319 359.731 650.979 358.401 651.308 356.71 651.308 354.659 651.308 352.679 650.98 351.034 650.324 349.724 649.668 348.415 648.651 347.534 647.274 347.083ZM638.433 346.406 638.67 347.083C637.299 347.534 636.284 348.415 635.625 349.724 634.965 351.034 634.636 352.679 634.636 354.659 634.636 356.71 634.965 358.401 635.625 359.731 636.284 361.061 637.29 361.951 638.644 362.403L638.433 363.079C636.716 362.628 635.401 361.657 634.486 360.166 633.572 358.675 633.115 356.868 633.115 354.747 633.115 352.632 633.574 350.826 634.491 349.329 635.408 347.832 636.722 346.858 638.433 346.406Z" fill="#FFFFFF" fill-rule="evenodd"/><text fill="#FFFFFF" font-family="Cambria Math,Cambria Math_MSFontService,sans-serif" font-weight="400" font-size="18" transform="translate(638.807 360)">𝑡</text><text fill="#FFFFFF" font-family="Cambria Math,Cambria Math_MSFontService,sans-serif" font-weight="400" font-size="24" transform="translate(655.207 369)"></text><text fill="#FFFFFF" font-family="Cambria Math,Cambria Math_MSFontService,sans-serif" font-weight="400" font-size="24" transform="translate(660.54 369)"></text><text fill="#FFFFFF" font-family="Cambria Math,Cambria Math_MSFontService,sans-serif" font-weight="400" font-size="24" transform="translate(665.873 369)"></text><text fill="#FFFFFF" font-family="Cambria Math,Cambria Math_MSFontService,sans-serif" font-weight="400" font-size="24" transform="translate(671.207 369)"></text><text fill="#FFFFFF" font-family="Cambria Math,Cambria Math_MSFontService,sans-serif" font-weight="400" font-size="24" transform="translate(676.54 369)"></text><text fill="#FFFFFF" font-family="Cambria Math,Cambria Math_MSFontService,sans-serif" font-weight="400" font-size="24" transform="translate(681.873 369)"></text><text fill="#FFFFFF" font-family="Cambria Math,Cambria Math_MSFontService,sans-serif" font-weight="400" font-size="24" transform="translate(687.207 369)"></text><text fill="#FFFFFF" font-family="Cambria Math,Cambria Math_MSFontService,sans-serif" font-weight="400" font-size="24" transform="translate(692.54 369)"></text><text fill="#FFFFFF" font-family="Cambria Math,Cambria Math_MSFontService,sans-serif" font-weight="400" font-size="24" transform="translate(697.873 369)"></text><text fill="#FFFFFF" font-family="Cambria Math,Cambria Math_MSFontService,sans-serif" font-weight="400" font-size="24" transform="translate(703.207 369)"></text><text fill="#FFFFFF" font-family="Cambria Math,Cambria Math_MSFontService,sans-serif" font-weight="400" font-size="24" transform="translate(708.54 369)"></text><text fill="#FFFFFF" font-family="Cambria Math,Cambria Math_MSFontService,sans-serif" font-weight="400" font-size="24" transform="translate(713.873 369)"></text><text fill="#FFFFFF" font-family="Cambria Math,Cambria Math_MSFontService,sans-serif" font-weight="400" font-size="24" transform="translate(719.207 369)"></text><text fill="#FFFFFF" font-family="Cambria Math,Cambria Math_MSFontService,sans-serif" font-weight="400" font-size="24" transform="translate(724.54 369)"></text><text fill="#FFFFFF" font-family="Cambria Math,Cambria Math_MSFontService,sans-serif" font-weight="400" font-size="24" transform="translate(729.873 369)"></text><text fill="#FFFFFF" font-family="Cambria Math,Cambria Math_MSFontService,sans-serif" font-weight="400" font-size="24" transform="translate(735.207 369)"></text><text fill="#FFFFFF" font-family="Cambria Math,Cambria Math_MSFontService,sans-serif" font-weight="400" font-size="24" transform="translate(740.54 369)"></text><text fill="#FFFFFF" font-family="Cambria Math,Cambria Math_MSFontService,sans-serif" font-weight="400" font-size="24" transform="translate(745.873 369)">(</text><text fill="#FFFFFF" font-family="Cambria Math,Cambria Math_MSFontService,sans-serif" font-weight="400" font-size="24" transform="translate(755.873 369)">𝑆1</text><text fill="#FFFFFF" font-family="Cambria Math,Cambria Math_MSFontService,sans-serif" font-weight="400" font-size="24" transform="translate(781.873 369)">)</text><text fill="#4B5E68" font-family="Arial,Arial_MSFontService,sans-serif" font-weight="700" font-size="43" transform="translate(389.862 265)">A probabilistic model for</text><text fill="#4B5E68" font-family="Arial,Arial_MSFontService,sans-serif" font-weight="700" font-size="43" transform="translate(206.989 317)">the</text><text fill="#4B5E68" font-family="Arial,Arial_MSFontService,sans-serif" font-weight="700" font-size="43" transform="translate(282.656 317)">estimation of nosocomial infection risk</text><text fill="#4B5E68" font-family="Arial,Arial_MSFontService,sans-serif" font-weight="700" font-size="43" transform="translate(47.2356 368)">using municipal wastewater and hospital surveillance data</text><text fill="#4B5E68" font-family="Arial,Arial_MSFontService,sans-serif" font-weight="700" font-size="37" transform="translate(541.155 522)">Hiroki Ando</text></g></svg>