<svg width="1283" height="723" xmlns="http://www.w3.org/2000/svg" xmlns:xlink="http://www.w3.org/1999/xlink" overflow="hidden"><g transform="translate(1 2)"><rect x="0" y="0" width="1281" height="720" fill="#FFFFFF"/><text fill="#FFFFFF" font-family="Cambria Math,Cambria Math_MSFontService,sans-serif" font-weight="400" font-size="24" transform="translate(488.487 369)">𝑃</text><text fill="#FFFFFF" font-family="Cambria Math,Cambria Math_MSFontService,sans-serif" font-weight="400" font-size="18" transform="translate(498.633 374)">𝑒</text><path d="M530.462 350.666C532.743 351.268 534.495 352.567 535.718 354.563 536.94 356.559 537.552 358.967 537.552 361.788 537.552 364.616 536.942 367.024 535.723 369.012 534.505 371 532.751 372.295 530.462 372.897L530.18 371.995C531.985 371.393 533.327 370.205 534.206 368.432 535.085 366.659 535.524 364.405 535.524 361.67 535.524 359.03 535.087 356.836 534.212 355.09 533.337 353.344 531.981 352.17 530.145 351.569ZM518.853 350.666 519.169 351.569C517.341 352.17 515.987 353.344 515.108 355.09 514.229 356.836 513.79 359.03 513.79 361.67 513.79 364.405 514.229 366.659 515.108 368.432 515.987 370.205 517.329 371.393 519.134 371.995L518.853 372.897C516.563 372.295 514.81 371 513.591 369.012 512.372 367.024 511.763 364.616 511.763 361.788 511.763 358.967 512.374 356.559 513.597 354.563 514.819 352.567 516.571 351.268 518.853 350.666Z" fill="#FFFFFF" fill-rule="evenodd"/><text fill="#FFFFFF" font-family="Cambria Math,Cambria Math_MSFontService,sans-serif" font-weight="400" font-size="24" transform="translate(519.613 369)">𝑡</text><path d="M488.493 346.837 495.3 346.837 498.818 346.837 502.107 346.837 505.624 346.837 508.913 346.837 512.431 346.837 515.72 346.837 519.238 346.837 522.527 346.837 526.044 346.837 529.333 346.837 532.851 346.837 539.658 346.837 539.658 348.079 532.851 348.079 529.333 348.079 526.044 348.079 522.527 348.079 519.238 348.079 515.72 348.079 512.431 348.079 508.913 348.079 505.624 348.079 502.107 348.079 498.818 348.079 495.3 348.079 488.493 348.079Z" fill="#FFFFFF" fill-rule="evenodd"/><text fill="#FFFFFF" font-family="Cambria Math,Cambria Math_MSFontService,sans-serif" font-weight="400" font-size="24" transform="translate(546.327 369)">=</text><text fill="#FFFFFF" font-family="Cambria Math,Cambria Math_MSFontService,sans-serif" font-weight="400" font-size="24" transform="translate(570.993 369)">𝑞</text><text fill="#FFFFFF" font-family="Cambria Math,Cambria Math_MSFontService,sans-serif" font-weight="400" font-size="24" transform="translate(584.72 369)">(</text><text fill="#FFFFFF" font-family="Cambria Math,Cambria Math_MSFontService,sans-serif" font-weight="400" font-size="24" transform="translate(594.72 369)">𝑡</text><text fill="#FFFFFF" font-family="Cambria Math,Cambria Math_MSFontService,sans-serif" font-weight="400" font-size="24" transform="translate(604.807 369)">)</text><text fill="#FFFFFF" font-family="Cambria Math,Cambria Math_MSFontService,sans-serif" font-weight="400" font-size="18" transform="translate(614.807 360)">𝐼</text><text fill="#FFFFFF" font-family="Cambria Math,Cambria Math_MSFontService,sans-serif" font-weight="400" font-size="14" transform="translate(621.64 364)">ℎ</text><path d="M648.011 346.406C649.722 346.858 651.036 347.832 651.953 349.329 652.87 350.826 653.329 352.632 653.329 354.747 653.329 356.868 652.872 358.675 651.958 360.166 651.044 361.657 649.728 362.628 648.011 363.079L647.8 362.403C649.154 361.951 650.16 361.061 650.819 359.731 651.479 358.401 651.808 356.71 651.808 354.659 651.808 352.679 651.48 351.034 650.824 349.724 650.168 348.415 649.151 347.534 647.774 347.083ZM638.933 346.406 639.17 347.083C637.799 347.534 636.784 348.415 636.125 349.724 635.465 351.034 635.136 352.679 635.136 354.659 635.136 356.71 635.465 358.401 636.125 359.731 636.784 361.061 637.79 361.951 639.144 362.403L638.933 363.079C637.216 362.628 635.901 361.657 634.986 360.166 634.072 358.675 633.615 356.868 633.615 354.747 633.615 352.632 634.074 350.826 634.991 349.329 635.908 347.832 637.222 346.858 638.933 346.406Z" fill="#FFFFFF" fill-rule="evenodd"/><text fill="#FFFFFF" font-family="Cambria Math,Cambria Math_MSFontService,sans-serif" font-weight="400" font-size="18" transform="translate(639.307 360)">𝑡</text><text fill="#FFFFFF" font-family="Cambria Math,Cambria Math_MSFontService,sans-serif" font-weight="400" font-size="24" transform="translate(655.707 369)"></text><text fill="#FFFFFF" font-family="Cambria Math,Cambria Math_MSFontService,sans-serif" font-weight="400" font-size="24" transform="translate(661.04 369)"></text><text fill="#FFFFFF" font-family="Cambria Math,Cambria Math_MSFontService,sans-serif" font-weight="400" font-size="24" transform="translate(666.373 369)"></text><text fill="#FFFFFF" font-family="Cambria Math,Cambria Math_MSFontService,sans-serif" font-weight="400" font-size="24" transform="translate(671.707 369)"></text><text fill="#FFFFFF" font-family="Cambria Math,Cambria Math_MSFontService,sans-serif" font-weight="400" font-size="24" transform="translate(677.04 369)"></text><text fill="#FFFFFF" font-family="Cambria Math,Cambria Math_MSFontService,sans-serif" font-weight="400" font-size="24" transform="translate(682.373 369)"></text><text fill="#FFFFFF" font-family="Cambria Math,Cambria Math_MSFontService,sans-serif" font-weight="400" font-size="24" transform="translate(687.707 369)"></text><text fill="#FFFFFF" font-family="Cambria Math,Cambria Math_MSFontService,sans-serif" font-weight="400" font-size="24" transform="translate(693.04 369)"></text><text fill="#FFFFFF" font-family="Cambria Math,Cambria Math_MSFontService,sans-serif" font-weight="400" font-size="24" transform="translate(698.373 369)"></text><text fill="#FFFFFF" font-family="Cambria Math,Cambria Math_MSFontService,sans-serif" font-weight="400" font-size="24" transform="translate(703.707 369)"></text><text fill="#FFFFFF" font-family="Cambria Math,Cambria Math_MSFontService,sans-serif" font-weight="400" font-size="24" transform="translate(709.04 369)"></text><text fill="#FFFFFF" font-family="Cambria Math,Cambria Math_MSFontService,sans-serif" font-weight="400" font-size="24" transform="translate(714.373 369)"></text><text fill="#FFFFFF" font-family="Cambria Math,Cambria Math_MSFontService,sans-serif" font-weight="400" font-size="24" transform="translate(719.707 369)"></text><text fill="#FFFFFF" font-family="Cambria Math,Cambria Math_MSFontService,sans-serif" font-weight="400" font-size="24" transform="translate(725.04 369)"></text><text fill="#FFFFFF" font-family="Cambria Math,Cambria Math_MSFontService,sans-serif" font-weight="400" font-size="24" transform="translate(730.373 369)"></text><text fill="#FFFFFF" font-family="Cambria Math,Cambria Math_MSFontService,sans-serif" font-weight="400" font-size="24" transform="translate(735.707 369)"></text><text fill="#FFFFFF" font-family="Cambria Math,Cambria Math_MSFontService,sans-serif" font-weight="400" font-size="24" transform="translate(741.04 369)"></text><text fill="#FFFFFF" font-family="Cambria Math,Cambria Math_MSFontService,sans-serif" font-weight="400" font-size="24" transform="translate(746.373 369)">(</text><text fill="#FFFFFF" font-family="Cambria Math,Cambria Math_MSFontService,sans-serif" font-weight="400" font-size="24" transform="translate(756.373 369)">𝑆1</text><text fill="#FFFFFF" font-family="Cambria Math,Cambria Math_MSFontService,sans-serif" font-weight="400" font-size="24" transform="translate(782.373 369)">)</text><rect x="0.500053" y="0.500053" width="321" height="37" stroke="#7F7F7F" stroke-width="1.33333" stroke-miterlimit="8" fill="#D9D9D9"/><text fill="#A6A6A6" font-family="Arial,Arial_MSFontService,sans-serif" font-weight="700" font-size="21" transform="translate(98.3799 27)">Introduction</text><rect x="320.5" y="0.500053" width="321" height="37" stroke="#7F7F7F" stroke-width="1.33333" stroke-miterlimit="8" fill="#4B5E68"/><text fill="#FFFFFF" font-family="Arial,Arial_MSFontService,sans-serif" font-weight="700" font-size="21" transform="translate(376.718 27)">Materials &amp; Methods</text><rect x="639.5" y="0.500053" width="321" height="37" stroke="#7F7F7F" stroke-width="1.33333" stroke-miterlimit="8" fill="#D9D9D9"/><text fill="#A6A6A6" font-family="Arial,Arial_MSFontService,sans-serif" font-weight="700" font-size="21" transform="translate(690.449 27)">Results &amp; Discussion</text><rect x="959.5" y="0.500053" width="321" height="37" stroke="#7F7F7F" stroke-width="1.33333" stroke-miterlimit="8" fill="#D9D9D9"/><text fill="#A6A6A6" font-family="Arial,Arial_MSFontService,sans-serif" font-weight="700" font-size="21" transform="translate(1061.32 27)">Conclusion</text><text fill="#4B5E68" font-family="Arial,Arial_MSFontService,sans-serif" font-weight="700" font-size="37" transform="translate(120.419 91)">Nosocomial transmission risk caused by external source</text><path d="M93.5001 166.5 1189.56 166.5" stroke="#4B5E68" stroke-miterlimit="8" stroke-dasharray="8 3" fill="none" fill-rule="evenodd"/><text fill="#4B5E68" font-family="Cambria Math,Cambria Math_MSFontService,sans-serif" font-weight="400" font-size="32" transform="translate(398.913 289)">𝑷</text><text fill="#4B5E68" font-family="Cambria Math,Cambria Math_MSFontService,sans-serif" font-weight="400" font-size="23" transform="translate(420.913 295)">𝒆</text><path d="M462.869 264.894C465.91 265.697 468.246 267.428 469.876 270.09 471.507 272.751 472.322 275.962 472.322 279.723 472.322 283.493 471.509 286.704 469.884 289.355 468.259 292.006 465.921 293.733 462.869 294.535L462.494 293.332C464.9 292.53 466.689 290.947 467.861 288.582 469.033 286.217 469.619 283.212 469.619 279.566 469.619 276.046 469.035 273.121 467.869 270.793 466.702 268.465 464.895 266.9 462.447 266.098ZM447.339 264.894 447.761 266.098C445.323 266.9 443.518 268.465 442.346 270.793 441.175 273.121 440.589 276.046 440.589 279.566 440.589 283.212 441.175 286.217 442.346 288.582 443.518 290.947 445.307 292.53 447.714 293.332L447.339 294.535C444.287 293.733 441.948 292.006 440.323 289.355 438.698 286.704 437.886 283.493 437.886 279.723 437.886 275.962 438.701 272.751 440.331 270.09 441.961 267.428 444.297 265.697 447.339 264.894Z" fill="#4B5E68" fill-rule="evenodd"/><text fill="#4B5E68" font-family="Cambria Math,Cambria Math_MSFontService,sans-serif" font-weight="400" font-size="32" transform="translate(448.353 289)">𝒕</text><path d="M398.92 259.787 409.326 259.787 412.685 259.787 419.733 259.787 423.092 259.787 430.14 259.787 433.499 259.787 440.546 259.787 443.905 259.787 450.953 259.787 454.312 259.787 461.353 259.787 464.719 259.787 475.119 259.787 475.119 261.443 464.719 261.443 461.353 261.443 454.312 261.443 450.953 261.443 443.905 261.443 440.546 261.443 433.499 261.443 430.14 261.443 423.092 261.443 419.733 261.443 412.685 261.443 409.326 261.443 398.92 261.443Z" fill="#4B5E68" fill-rule="evenodd"/><text fill="#4B5E68" font-family="Cambria Math,Cambria Math_MSFontService,sans-serif" font-weight="400" font-size="32" transform="translate(484.02 289)">=</text><text fill="#4B5E68" font-family="Cambria Math,Cambria Math_MSFontService,sans-serif" font-weight="400" font-size="32" transform="translate(516.74 289)">𝒒</text><path d="M563.869 264.894C566.91 265.697 569.246 267.428 570.876 270.09 572.507 272.751 573.322 275.962 573.322 279.723 573.322 283.493 572.509 286.704 570.884 289.355 569.259 292.006 566.921 293.733 563.869 294.535L563.494 293.332C565.9 292.53 567.689 290.947 568.861 288.582 570.033 286.217 570.619 283.212 570.619 279.566 570.619 276.046 570.035 273.121 568.869 270.793 567.702 268.465 565.895 266.9 563.447 266.098ZM548.339 264.894 548.761 266.098C546.323 266.9 544.518 268.465 543.346 270.793 542.175 273.121 541.589 276.046 541.589 279.566 541.589 283.212 542.175 286.217 543.346 288.582 544.518 290.947 546.307 292.53 548.714 293.332L548.339 294.535C545.287 293.733 542.948 292.006 541.323 289.355 539.698 286.704 538.886 283.493 538.886 279.723 538.886 275.962 539.701 272.751 541.331 270.09 542.961 267.428 545.297 265.697 548.339 264.894Z" fill="#4B5E68" fill-rule="evenodd"/><text fill="#4B5E68" font-family="Cambria Math,Cambria Math_MSFontService,sans-serif" font-weight="400" font-size="32" transform="translate(549.353 289)">𝒕</text><text fill="#4B5E68" font-family="Cambria Math,Cambria Math_MSFontService,sans-serif" font-weight="400" font-size="23" transform="translate(576.133 277)">𝑰</text><text fill="#4B5E68" font-family="Cambria Math,Cambria Math_MSFontService,sans-serif" font-weight="400" font-size="19" transform="translate(586.3 282)">𝒉</text><path d="M619.69 259.898C621.876 260.474 623.555 261.719 624.727 263.632 625.898 265.545 626.484 267.853 626.484 270.556 626.484 273.266 625.9 275.574 624.732 277.479 623.564 279.385 621.883 280.626 619.69 281.202L619.42 280.337C621.15 279.761 622.436 278.623 623.278 276.923 624.12 275.224 624.541 273.064 624.541 270.443 624.541 267.913 624.122 265.811 623.283 264.137 622.445 262.464 621.146 261.339 619.386 260.763ZM608.249 259.898 608.552 260.763C606.8 261.339 605.503 262.464 604.661 264.137 603.819 265.811 603.397 267.913 603.397 270.443 603.397 273.064 603.819 275.224 604.661 276.923 605.503 278.623 606.789 279.761 608.519 280.337L608.249 281.202C606.055 280.626 604.375 279.385 603.207 277.479 602.039 275.574 601.455 273.266 601.455 270.556 601.455 267.853 602.04 265.545 603.212 263.632 604.384 261.719 606.063 260.474 608.249 259.898Z" fill="#4B5E68" fill-rule="evenodd"/><text fill="#4B5E68" font-family="Cambria Math,Cambria Math_MSFontService,sans-serif" font-weight="400" font-size="23" transform="translate(609.126 277)">𝒕</text><text fill="#4B5E68" font-family="Wingdings,Wingdings_MSFontService,sans-serif" font-weight="400" font-size="24" transform="translate(55.6229 219)"></text><text fill="#4B5E68" font-family="Arial,Arial_MSFontService,sans-serif" font-weight="400" font-size="24" transform="translate(85.6229 219)">Probability that no nosocomial transmissions occur</text><text fill="#4B5E68" font-family="Arial,Arial_MSFontService,sans-serif" font-weight="400" font-size="24" transform="translate(46.3845 353)">I</text><text fill="#4B5E68" font-family="Arial,Arial_MSFontService,sans-serif" font-weight="400" font-size="16" transform="translate(53.0511 358)">h</text><text fill="#4B5E68" font-family="Arial,Arial_MSFontService,sans-serif" font-weight="400" font-size="24" transform="translate(61.8845 353)">(t): The number of infected individuals entering the hospital on day</text><text fill="#4B5E68" font-family="Arial,Arial_MSFontService,sans-serif" font-style="italic" font-weight="400" font-size="24" transform="translate(770.784 353)">t</text><text fill="#4B5E68" font-family="Arial,Arial_MSFontService,sans-serif" font-weight="400" font-size="24" transform="translate(55.6229 142)">A stochastic model estimates the risk posed by individuals entering the hospital from the surrounding community</text><path d="M201.208 396.86 207.839 396.86 207.655 397.73C207.154 397.871 206.785 398.117 206.547 398.468 206.31 398.82 206.086 399.47 205.875 400.419L203.476 411.296C203.414 411.577 203.37 411.821 203.344 412.028 203.317 412.234 203.304 412.504 203.304 412.838 203.304 413.208 203.39 413.478 203.561 413.649 203.733 413.821 204.012 413.933 204.398 413.985L204.214 414.856 197.582 414.856 197.767 413.985C198.268 413.845 198.637 413.599 198.874 413.247 199.112 412.896 199.336 412.245 199.547 411.296L201.946 400.419C202.06 399.901 202.118 399.387 202.118 398.877 202.118 398.508 202.032 398.238 201.861 398.066 201.689 397.895 201.41 397.783 201.023 397.73Z" fill="#4B5E68" fill-rule="evenodd"/><text fill="#000000" fill-opacity="0" font-family="Arial,Arial_MSFontService,sans-serif" font-size="17.9956" x="197.582" y="412.606">𝑰</text><path d="M216.077 409.877 213.211 415.286 216.235 415.286 216.198 413.059C216.185 412.268 216.179 411.612 216.179 411.092 216.179 410.697 216.182 410.291 216.189 409.877ZM229.068 408.717C228.722 408.717 228.422 408.724 228.168 408.736L227.027 413.959 227.509 413.959C228.357 413.959 229.009 413.826 229.467 413.56 229.925 413.294 230.274 412.897 230.515 412.368 230.756 411.839 230.877 411.244 230.877 410.582 230.877 409.957 230.73 409.491 230.436 409.181 230.143 408.872 229.686 408.717 229.068 408.717ZM224.578 407.632 229.207 407.632C229.857 407.632 230.382 407.652 230.784 407.692 231.186 407.732 231.577 407.825 231.958 407.971 232.338 408.116 232.658 408.308 232.918 408.546 233.178 408.784 233.376 409.072 233.512 409.409 233.648 409.746 233.716 410.131 233.716 410.564 233.716 411.256 233.588 411.876 233.331 412.424 233.074 412.971 232.711 413.443 232.241 413.839 231.771 414.234 231.172 414.533 230.446 414.734 229.719 414.935 228.907 415.035 228.01 415.035L227.741 415.035C227.364 415.035 227.049 415.02 226.795 414.989L226.173 417.791C226.13 417.989 226.099 418.16 226.081 418.306 226.062 418.451 226.053 418.641 226.053 418.876 226.053 419.161 226.125 419.362 226.271 419.479 226.416 419.597 226.643 419.665 226.953 419.683L226.823 420.296 222.026 420.296 222.156 419.683C222.509 419.584 222.769 419.411 222.936 419.164 223.103 418.916 223.26 418.459 223.409 417.791L225.097 410.137C225.178 409.772 225.218 409.41 225.218 409.051 225.218 408.792 225.158 408.601 225.037 408.481 224.916 408.36 224.72 408.281 224.448 408.244ZM215.947 407.567 218.619 407.567 219.018 417.484C219.031 417.837 219.055 418.154 219.092 418.435 219.129 418.717 219.188 418.947 219.269 419.127 219.349 419.306 219.45 419.437 219.57 419.521 219.691 419.604 219.844 419.658 220.029 419.683L219.89 420.296 215.094 420.296 215.233 419.683C215.505 419.665 215.72 419.595 215.878 419.474 216.035 419.354 216.145 419.19 216.207 418.983 216.269 418.776 216.3 418.486 216.3 418.115 216.3 417.849 216.294 417.571 216.281 417.28L216.263 416.371 212.635 416.371 212.505 416.603C212.159 417.228 211.929 417.701 211.814 418.023 211.7 418.344 211.643 418.641 211.643 418.913 211.643 419.359 211.906 419.615 212.431 419.683L212.292 420.296 208.377 420.296 208.516 419.683C208.733 419.634 208.923 419.55 209.087 419.433 209.251 419.315 209.407 419.156 209.555 418.955 209.704 418.754 209.914 418.409 210.186 417.921Z" fill="#4B5E68" fill-rule="evenodd"/><text fill="#000000" fill-opacity="0" font-family="Arial,Arial_MSFontService,sans-serif" font-size="12.7285" x="208.377" y="418.704">𝑨𝑷</text><path d="M258.861 394.652C261.428 395.329 263.399 396.79 264.774 399.035 266.15 401.281 266.837 403.99 266.837 407.163 266.837 410.345 266.152 413.054 264.781 415.291 263.41 417.528 261.436 418.984 258.861 419.661L258.545 418.646C260.575 417.969 262.085 416.633 263.073 414.638 264.062 412.643 264.557 410.107 264.557 407.031 264.557 404.061 264.064 401.593 263.08 399.629 262.096 397.664 260.571 396.344 258.505 395.667ZM246.12 394.652 246.476 395.667C244.419 396.344 242.897 397.664 241.908 399.629 240.919 401.593 240.425 404.061 240.425 407.031 240.425 410.107 240.919 412.643 241.908 414.638 242.897 416.633 244.406 417.969 246.437 418.646L246.12 419.661C243.545 418.984 241.572 417.528 240.201 415.291 238.83 413.054 238.144 410.345 238.144 407.163 238.144 403.99 238.832 401.281 240.207 399.035 241.583 396.79 243.554 395.329 246.12 394.652Z" fill="#4B5E68" fill-rule="evenodd"/><path d="M252.164 398.482 255.328 398.482 254.563 401.777 257.767 401.777 257.411 403.425 254.181 403.425 252.902 408.699C252.682 409.604 252.531 410.292 252.447 410.762 252.364 411.232 252.322 411.63 252.322 411.955 252.322 412.368 252.397 412.669 252.546 412.858 252.696 413.047 252.915 413.142 253.205 413.142 253.601 413.142 254.007 413.001 254.425 412.72 254.842 412.439 255.293 412.003 255.776 411.415L256.791 412.456C255.904 413.432 255.088 414.111 254.346 414.493 253.603 414.875 252.726 415.066 251.716 415.066 250.714 415.066 249.945 414.809 249.408 414.295 248.872 413.781 248.604 413.071 248.604 412.166 248.604 411.753 248.635 411.36 248.697 410.986 248.758 410.613 248.885 410 249.079 409.147L250.437 403.425 248.38 403.425 248.631 402.357C249.246 402.357 249.712 402.3 250.028 402.186 250.344 402.072 250.61 401.9 250.826 401.672 251.041 401.443 251.25 401.096 251.452 400.63 251.654 400.165 251.891 399.448 252.164 398.482Z" fill="#4B5E68" fill-rule="evenodd"/><text fill="#000000" fill-opacity="0" font-family="Arial,Arial_MSFontService,sans-serif" font-size="16.585" x="248.38" y="412.993">𝒕</text><path d="M278.442 409.002 294.684 409.002 294.684 410.755 278.442 410.755ZM278.442 403.531 294.684 403.531 294.684 405.284 278.442 405.284Z" fill="#4B5E68" fill-rule="evenodd"/><text fill="#000000" fill-opacity="0" font-family="Arial,Arial_MSFontService,sans-serif" font-size="7.22461" x="278.442" y="409.852">=</text><path d="M305.008 381.369 336.846 381.369 336.846 389.174 335.106 389.174C334.904 387.302 334.495 385.821 333.88 384.731 333.264 383.641 332.333 383.096 331.085 383.096L310.281 383.096 326.009 404.454 326.009 406.049 309.029 429.094 331.902 429.094C332.913 429.094 333.686 428.738 334.222 428.026 334.759 427.314 335.22 425.723 335.607 423.253L337.558 423.253 336.886 432.917 304.467 432.917 304.467 431.612 322.937 406.576 305.008 382.622Z" fill="#4B5E68" fill-rule="evenodd"/><text fill="#000000" fill-opacity="0" font-family="Arial,Arial_MSFontService,sans-serif" font-size="51.5479" x="304.467" y="426.474">෍</text><path d="M372.554 402.938C371.763 402.938 371.051 403.333 370.418 404.124 369.785 404.915 369.269 406.014 368.869 407.42 368.469 408.826 368.269 410.092 368.269 411.217 368.269 411.858 368.364 412.337 368.553 412.654 368.742 412.97 369.034 413.128 369.429 413.128 369.807 413.128 370.19 413.008 370.576 412.766 370.963 412.524 371.37 412.151 371.796 411.645 372.222 411.14 372.58 410.531 372.87 409.819 373.16 409.107 373.42 408.211 373.648 407.13L373.754 406.642C373.894 405.992 373.965 405.359 373.965 404.744 373.965 404.137 373.855 403.685 373.635 403.386 373.415 403.087 373.055 402.938 372.554 402.938ZM372.422 401.566C373.046 401.566 373.62 401.635 374.143 401.771 374.666 401.907 375.199 402.155 375.744 402.516L376.931 401.566 378.407 401.777 377.274 406.932C377.089 407.776 376.922 408.585 376.773 409.358 376.298 411.766 375.969 413.37 375.784 414.17 375.459 415.532 375.125 416.561 374.782 417.255 374.422 417.984 373.956 418.606 373.385 419.12 372.813 419.635 372.097 420.023 371.236 420.287 370.251 420.595 369.056 420.749 367.65 420.749 365.786 420.749 364.389 420.5 363.457 420.004 362.526 419.507 362.06 418.762 362.06 417.769 362.06 417.224 362.253 416.71 362.64 416.227 363.027 415.743 363.598 415.282 364.354 414.842L365.725 415.95C365.488 416.24 365.323 416.512 365.23 416.767 365.138 417.022 365.092 417.299 365.092 417.598 365.092 418.195 365.301 418.641 365.718 418.936 366.136 419.23 366.762 419.378 367.597 419.378 368.942 419.378 370.005 418.874 370.787 417.868 371.57 416.862 372.238 415.023 372.791 412.351L372.62 412.232C371.846 413.216 371.104 413.935 370.392 414.388 369.68 414.84 368.827 415.066 367.834 415.066 366.85 415.066 366.079 414.706 365.521 413.985 364.962 413.265 364.683 412.223 364.683 410.861 364.683 409.657 364.859 408.468 365.211 407.295 365.562 406.121 366.061 405.113 366.707 404.269 367.353 403.425 368.157 402.764 369.12 402.285 370.082 401.806 371.183 401.566 372.422 401.566Z" fill="#4B5E68" fill-rule="evenodd"/><text fill="#000000" fill-opacity="0" font-family="Arial,Arial_MSFontService,sans-serif" font-size="19.1821" x="362.06" y="418.351">𝒈</text><path d="M387.327 411.909C386.771 411.909 386.27 412.187 385.824 412.744 385.379 413.3 385.016 414.074 384.734 415.063 384.453 416.053 384.312 416.943 384.312 417.735 384.312 418.186 384.379 418.524 384.512 418.746 384.645 418.969 384.85 419.08 385.129 419.08 385.395 419.08 385.664 418.995 385.936 418.825 386.208 418.655 386.494 418.392 386.794 418.036 387.094 417.681 387.346 417.253 387.55 416.752 387.754 416.251 387.937 415.62 388.097 414.859L388.172 414.516C388.271 414.058 388.32 413.613 388.32 413.18 388.32 412.753 388.243 412.435 388.088 412.224 387.934 412.014 387.68 411.909 387.327 411.909ZM387.235 410.944C387.674 410.944 388.077 410.992 388.445 411.088 388.813 411.184 389.189 411.358 389.573 411.612L390.407 410.944 391.447 411.092 390.649 414.72C390.519 415.314 390.401 415.883 390.296 416.427 389.962 418.122 389.73 419.25 389.6 419.813 389.371 420.772 389.136 421.495 388.895 421.984 388.642 422.497 388.314 422.935 387.912 423.297 387.51 423.659 387.006 423.932 386.4 424.118 385.707 424.334 384.866 424.443 383.876 424.443 382.565 424.443 381.582 424.268 380.926 423.918 380.27 423.569 379.943 423.045 379.943 422.346 379.943 421.962 380.079 421.601 380.351 421.26 380.623 420.92 381.025 420.595 381.557 420.286L382.522 421.066C382.355 421.27 382.239 421.461 382.174 421.641 382.109 421.82 382.076 422.015 382.076 422.225 382.076 422.646 382.223 422.96 382.517 423.167 382.811 423.374 383.252 423.478 383.839 423.478 384.785 423.478 385.534 423.124 386.084 422.415 386.635 421.707 387.105 420.413 387.494 418.533L387.374 418.449C386.829 419.142 386.307 419.648 385.806 419.966 385.305 420.285 384.705 420.444 384.006 420.444 383.313 420.444 382.771 420.19 382.378 419.683 381.985 419.176 381.789 418.443 381.789 417.484 381.789 416.637 381.913 415.801 382.16 414.975 382.407 414.149 382.758 413.44 383.213 412.846 383.667 412.252 384.233 411.787 384.911 411.45 385.588 411.113 386.363 410.944 387.235 410.944Z" fill="#4B5E68" fill-rule="evenodd"/><text fill="#000000" fill-opacity="0" font-family="Arial,Arial_MSFontService,sans-serif" font-size="13.4985" x="379.943" y="422.755">𝒈</text><path d="M419.528 394.652C422.094 395.329 424.065 396.79 425.441 399.035 426.816 401.281 427.504 403.99 427.504 407.163 427.504 410.345 426.818 413.054 425.447 415.291 424.076 417.528 422.103 418.984 419.528 419.661L419.212 418.646C421.242 417.969 422.751 416.633 423.74 414.638 424.729 412.643 425.223 410.107 425.223 407.031 425.223 404.061 424.731 401.593 423.747 399.629 422.762 397.664 421.237 396.344 419.172 395.667ZM404.287 394.652 404.643 395.667C402.586 396.344 401.063 397.664 400.075 399.629 399.086 401.593 398.591 404.061 398.591 407.031 398.591 410.107 399.086 412.643 400.075 414.638 401.063 416.633 402.573 417.969 404.603 418.646L404.287 419.661C401.712 418.984 399.738 417.528 398.367 415.291 396.996 413.054 396.311 410.345 396.311 407.163 396.311 403.99 396.998 401.281 398.374 399.035 399.749 396.79 401.72 395.329 404.287 394.652Z" fill="#4B5E68" fill-rule="evenodd"/><path d="M410.686 401.777 418.57 401.777 418.003 404.23 413.916 404.23 412.44 410.531C412.273 411.243 412.189 411.815 412.189 412.245 412.189 412.588 412.246 412.825 412.361 412.957 412.475 413.089 412.638 413.155 412.849 413.155 413.147 413.155 413.464 413.025 413.798 412.766 414.132 412.507 414.562 412.069 415.09 411.454L416.039 412.403C415.292 413.282 414.536 413.946 413.771 414.394 413.007 414.842 412.172 415.066 411.267 415.066 410.361 415.066 409.698 414.838 409.276 414.381 408.854 413.924 408.643 413.234 408.643 412.311 408.643 411.793 408.74 411.103 408.933 410.241L409.025 409.846C409.21 409.064 409.454 408.136 409.757 407.064 410.06 405.992 410.348 405.082 410.621 404.335L410.555 404.23 409.619 404.23C409.162 404.23 408.786 404.269 408.491 404.348 408.197 404.427 407.909 404.564 407.628 404.757 407.347 404.95 406.995 405.271 406.573 405.719L405.466 404.731C406.195 403.852 406.795 403.214 407.265 402.819 407.736 402.423 408.217 402.151 408.709 402.002 409.201 401.852 409.86 401.777 410.686 401.777Z" fill="#4B5E68" fill-rule="evenodd"/><text fill="#000000" fill-opacity="0" font-family="Arial,Arial_MSFontService,sans-serif" font-size="13.2891" x="405.466" y="413.405">𝝉</text><path d="M439.382 399.919 445.354 405.878 451.326 399.919 452.566 401.145 446.659 407.156 452.579 413.142 451.26 414.46 445.354 408.435 439.263 414.407 438.037 413.168 444.062 407.156 438.064 401.237Z" fill="#4B5E68" fill-rule="evenodd"/><text fill="#000000" fill-opacity="0" font-family="Arial,Arial_MSFontService,sans-serif" font-size="14.5415" x="438.037" y="412.642">×</text><path d="M470.94 394.652 471.296 395.667C469.239 396.344 467.717 397.664 466.728 399.629 465.739 401.593 465.245 404.061 465.245 407.031 465.245 410.107 465.739 412.643 466.728 414.638 467.717 416.633 469.226 417.969 471.257 418.646L470.94 419.661C468.365 418.984 466.392 417.528 465.021 415.291 463.65 413.054 462.964 410.345 462.964 407.163 462.964 403.99 463.652 401.281 465.027 399.035 466.403 396.79 468.374 395.329 470.94 394.652Z" fill="#4B5E68" fill-rule="evenodd"/><text fill="#000000" fill-opacity="0" font-family="Arial,Arial_MSFontService,sans-serif" font-size="25.0093" x="462.964" y="416.535">ሺ</text><path d="M476.035 396.86 482.666 396.86 482.481 397.73C481.98 397.871 481.611 398.117 481.374 398.468 481.137 398.82 480.913 399.47 480.702 400.419L478.302 411.296C478.241 411.577 478.197 411.821 478.17 412.028 478.144 412.234 478.131 412.504 478.131 412.838 478.131 413.208 478.216 413.478 478.388 413.649 478.559 413.821 478.838 413.933 479.225 413.985L479.04 414.856 472.409 414.856 472.594 413.985C473.095 413.845 473.464 413.599 473.701 413.247 473.938 412.896 474.163 412.245 474.373 411.296L476.773 400.419C476.887 399.901 476.944 399.387 476.944 398.877 476.944 398.508 476.859 398.238 476.687 398.066 476.516 397.895 476.237 397.783 475.85 397.73Z" fill="#4B5E68" fill-rule="evenodd"/><text fill="#000000" fill-opacity="0" font-family="Arial,Arial_MSFontService,sans-serif" font-size="17.9956" x="472.409" y="412.606">𝑰</text><path d="M502.809 415.369C502.234 415.369 501.716 415.653 501.255 416.222 500.794 416.791 500.416 417.62 500.119 418.709 501.257 418.678 502.127 418.46 502.73 418.055 503.333 417.65 503.635 417.076 503.635 416.334 503.635 416.018 503.562 415.779 503.417 415.615 503.271 415.451 503.069 415.369 502.809 415.369ZM506.974 414.552 510.212 414.552 510.722 421.288C511.65 419.853 512.297 418.71 512.665 417.86 513.033 417.009 513.264 416.111 513.357 415.165L513.486 414.552 515.574 414.552 516.149 421.297C517.046 419.943 517.697 418.842 518.102 417.994 518.507 417.147 518.71 416.448 518.71 415.898 518.71 415.663 518.654 415.485 518.543 415.364 518.431 415.244 518.236 415.177 517.958 415.165L518.088 414.552 520.704 414.552 521.029 415.165C520.738 416 520.103 417.217 519.122 418.815 518.142 420.414 516.978 422.107 515.63 423.895L514.062 423.895 513.774 421.149C513.694 420.406 513.641 419.847 513.616 419.469 513.592 419.092 513.579 418.792 513.579 418.57L513.486 418.57C512.713 420.178 511.628 421.953 510.23 423.895L508.542 423.895 507.809 416.76C507.765 416.327 507.711 416.007 507.646 415.8 507.581 415.593 507.489 415.44 507.368 415.341 507.247 415.242 507.07 415.183 506.835 415.165ZM503.041 414.404C504.934 414.404 505.88 415.087 505.88 416.454 505.88 416.924 505.786 417.339 505.597 417.697 505.408 418.056 505.094 418.381 504.655 418.672 504.216 418.962 503.596 419.197 502.795 419.377 501.994 419.556 501.028 419.658 499.896 419.683 499.816 420.048 499.775 420.425 499.775 420.815 499.775 421.39 499.896 421.823 500.137 422.113 500.379 422.404 500.743 422.549 501.232 422.549 501.776 422.549 502.268 422.44 502.707 422.22 503.146 422.001 503.663 421.609 504.256 421.047L505.036 421.826C504.411 422.531 503.738 423.054 503.018 423.394 502.297 423.734 501.517 423.904 500.675 423.904 499.952 423.904 499.336 423.777 498.829 423.524 498.322 423.27 497.94 422.894 497.683 422.396 497.427 421.899 497.298 421.303 497.298 420.611 497.298 420.289 497.342 419.878 497.428 419.377 497.546 418.696 497.725 418.09 497.966 417.558 498.269 416.903 498.665 416.34 499.154 415.87 499.643 415.4 500.216 415.038 500.875 414.784 501.534 414.531 502.256 414.404 503.041 414.404ZM486.711 414.404C487.224 414.404 487.634 414.548 487.94 414.835 488.246 415.123 488.399 415.502 488.399 415.972 488.399 416.126 488.38 416.275 488.343 416.417L488.436 416.491C489.018 415.768 489.57 415.239 490.092 414.905 490.615 414.571 491.226 414.404 491.924 414.404 492.561 414.404 493.061 414.583 493.423 414.942 493.785 415.301 493.965 415.789 493.965 416.408 493.965 416.606 493.945 416.853 493.905 417.15 493.865 417.447 493.817 417.71 493.761 417.939L493.028 420.833C492.923 421.248 492.871 421.609 492.871 421.919 492.871 422.16 492.911 422.327 492.991 422.42 493.072 422.512 493.186 422.559 493.335 422.559 493.514 422.559 493.715 422.474 493.938 422.304 494.16 422.134 494.423 421.875 494.726 421.529L495.394 422.197C494.788 422.815 494.245 423.255 493.766 423.514 493.287 423.774 492.759 423.904 492.184 423.904 491.529 423.904 491.049 423.742 490.746 423.417 490.443 423.092 490.292 422.614 490.292 421.984 490.292 421.532 490.381 420.954 490.561 420.249L490.969 418.709C491.074 418.313 491.164 417.922 491.238 417.535 491.312 417.149 491.349 416.832 491.349 416.584 491.349 416.306 491.29 416.099 491.173 415.963 491.055 415.827 490.888 415.758 490.672 415.758 490.369 415.758 490.023 415.938 489.633 416.297 489.243 416.655 488.931 417.034 488.696 417.433 488.461 417.832 488.275 418.353 488.139 418.996L487.1 423.756 484.438 423.756 485.931 417.308C486.024 416.906 486.07 416.6 486.07 416.389 486.07 416.185 486.036 416.028 485.968 415.916 485.9 415.805 485.783 415.749 485.616 415.749 485.424 415.749 485.217 415.836 484.994 416.009 484.772 416.182 484.512 416.439 484.215 416.779L483.547 416.111C484.165 415.48 484.714 415.038 485.194 414.784 485.673 414.531 486.179 414.404 486.711 414.404Z" fill="#4B5E68" fill-rule="evenodd"/><text fill="#000000" fill-opacity="0" font-family="Arial,Arial_MSFontService,sans-serif" font-size="9.5" x="483.547" y="422.716">𝒏𝒆𝒘</text><path d="M591.708 394.652C594.274 395.329 596.245 396.79 597.621 399.035 598.996 401.281 599.684 403.99 599.684 407.163 599.684 410.345 598.998 413.054 597.627 415.291 596.256 417.528 594.283 418.984 591.708 419.661L591.391 418.646C593.422 417.969 594.931 416.633 595.92 414.638 596.909 412.643 597.403 410.107 597.403 407.031 597.403 404.061 596.911 401.593 595.927 399.629 594.942 397.664 593.417 396.344 591.352 395.667ZM533.447 394.652 533.803 395.667C531.746 396.344 530.223 397.664 529.235 399.629 528.246 401.593 527.751 404.061 527.751 407.031 527.751 410.107 528.246 412.643 529.235 414.638 530.223 416.633 531.733 417.969 533.763 418.646L533.447 419.661C530.872 418.984 528.898 417.528 527.527 415.291 526.156 413.054 525.471 410.345 525.471 407.163 525.471 403.99 526.158 401.281 527.534 399.035 528.909 396.79 530.88 395.329 533.447 394.652Z" fill="#4B5E68" fill-rule="evenodd"/><path d="M539.49 398.482 542.655 398.482 541.89 401.777 545.094 401.777 544.738 403.425 541.508 403.425 540.229 408.699C540.009 409.604 539.857 410.292 539.774 410.762 539.69 411.232 539.649 411.63 539.649 411.955 539.649 412.368 539.723 412.669 539.873 412.858 540.022 413.047 540.242 413.142 540.532 413.142 540.927 413.142 541.334 413.001 541.751 412.72 542.169 412.439 542.619 412.003 543.103 411.415L544.118 412.456C543.23 413.432 542.415 414.111 541.672 414.493 540.93 414.875 540.053 415.066 539.042 415.066 538.04 415.066 537.271 414.809 536.735 414.295 536.199 413.781 535.931 413.071 535.931 412.166 535.931 411.753 535.962 411.36 536.023 410.986 536.085 410.613 536.212 410 536.406 409.147L537.763 403.425 535.707 403.425 535.957 402.357C536.573 402.357 537.038 402.3 537.355 402.186 537.671 402.072 537.937 401.9 538.152 401.672 538.368 401.443 538.576 401.096 538.779 400.63 538.981 400.165 539.218 399.448 539.49 398.482Z" fill="#4B5E68" fill-rule="evenodd"/><text fill="#000000" fill-opacity="0" font-family="Arial,Arial_MSFontService,sans-serif" font-size="16.585" x="535.707" y="412.993">𝒕</text><path d="M553.222 406.26 569.464 406.26 569.464 408.013 553.222 408.013Z" fill="#4B5E68" fill-rule="evenodd"/><text fill="#000000" fill-opacity="0" font-family="Arial,Arial_MSFontService,sans-serif" font-size="1.75342" x="553.222" y="407.794">−</text><path d="M582.866 401.777 590.75 401.777 590.183 404.23 586.096 404.23 584.62 410.531C584.453 411.243 584.369 411.815 584.369 412.245 584.369 412.588 584.427 412.825 584.541 412.957 584.655 413.089 584.818 413.155 585.029 413.155 585.327 413.155 585.644 413.025 585.978 412.766 586.312 412.507 586.742 412.069 587.27 411.454L588.219 412.403C587.472 413.282 586.716 413.946 585.951 414.394 585.187 414.842 584.352 415.066 583.447 415.066 582.541 415.066 581.878 414.838 581.456 414.381 581.034 413.924 580.823 413.234 580.823 412.311 580.823 411.793 580.92 411.103 581.113 410.241L581.205 409.846C581.39 409.064 581.634 408.136 581.937 407.064 582.24 405.992 582.528 405.082 582.801 404.335L582.735 404.23 581.799 404.23C581.342 404.23 580.966 404.269 580.671 404.348 580.377 404.427 580.089 404.564 579.808 404.757 579.527 404.95 579.175 405.271 578.753 405.719L577.646 404.731C578.375 403.852 578.975 403.214 579.445 402.819 579.916 402.423 580.397 402.151 580.889 402.002 581.381 401.852 582.04 401.777 582.866 401.777Z" fill="#4B5E68" fill-rule="evenodd"/><text fill="#000000" fill-opacity="0" font-family="Arial,Arial_MSFontService,sans-serif" font-size="13.2891" x="577.646" y="413.405">𝝉</text><path d="M611.562 399.919 617.534 405.878 623.506 399.919 624.746 401.145 618.839 407.156 624.759 413.142 623.44 414.46 617.534 408.435 611.443 414.407 610.217 413.168 616.242 407.156 610.244 401.237Z" fill="#4B5E68" fill-rule="evenodd"/><text fill="#000000" fill-opacity="0" font-family="Arial,Arial_MSFontService,sans-serif" font-size="14.5415" x="610.217" y="412.642">×</text><path d="M643.542 400.05 639.468 407.736 643.766 407.736 643.713 404.572C643.696 403.447 643.687 402.516 643.687 401.777 643.687 401.215 643.691 400.639 643.7 400.05ZM643.357 396.768 647.154 396.768 647.721 410.861C647.739 411.362 647.774 411.812 647.827 412.212 647.879 412.612 647.963 412.94 648.077 413.194 648.191 413.449 648.334 413.636 648.506 413.755 648.677 413.873 648.895 413.95 649.158 413.985L648.96 414.856 642.145 414.856 642.342 413.985C642.729 413.959 643.034 413.86 643.259 413.689 643.483 413.517 643.639 413.284 643.727 412.99 643.814 412.696 643.858 412.285 643.858 411.757 643.858 411.379 643.85 410.984 643.832 410.571L643.806 409.279 638.651 409.279 638.466 409.608C637.974 410.496 637.647 411.169 637.484 411.626 637.322 412.083 637.24 412.504 637.24 412.891 637.24 413.524 637.614 413.889 638.361 413.985L638.163 414.856 632.6 414.856 632.797 413.985C633.105 413.915 633.375 413.796 633.608 413.629 633.841 413.462 634.063 413.236 634.274 412.951 634.485 412.665 634.784 412.175 635.17 411.481ZM660.988 396.649C661.867 396.649 662.676 396.695 663.414 396.787 664.152 396.88 664.913 397.044 665.695 397.282L664.891 401.039 663.164 401.039C663.155 400.055 662.961 399.334 662.583 398.877 662.206 398.42 661.595 398.191 660.751 398.191 659.828 398.191 659.099 398.44 658.562 398.936 658.026 399.433 657.758 400.116 657.758 400.986 657.758 401.602 657.971 402.184 658.398 402.733 658.824 403.283 659.468 403.869 660.329 404.493 661.111 405.073 661.713 405.594 662.135 406.055 662.557 406.517 662.874 407.007 663.084 407.525 663.295 408.044 663.401 408.637 663.401 409.305 663.401 410.105 663.225 410.876 662.874 411.619 662.522 412.362 662.028 412.992 661.39 413.511 660.753 414.029 660.035 414.418 659.235 414.678 658.435 414.937 657.376 415.066 656.058 415.066 655.249 415.066 654.403 414.996 653.52 414.856 652.636 414.715 651.786 414.517 650.969 414.262L651.786 410.465 653.513 410.465C653.54 411.239 653.658 411.847 653.869 412.291 654.08 412.735 654.379 413.052 654.766 413.241 655.152 413.43 655.662 413.524 656.295 413.524 657.253 413.524 658.009 413.249 658.562 412.7 659.116 412.151 659.393 411.384 659.393 410.399 659.393 409.89 659.305 409.439 659.129 409.048 658.954 408.657 658.683 408.277 658.319 407.908 657.954 407.539 657.323 407.024 656.427 406.365 655.592 405.75 654.961 405.069 654.535 404.322 654.109 403.575 653.896 402.793 653.896 401.975 653.896 401.281 654.045 400.6 654.344 399.932 654.643 399.264 655.084 398.681 655.669 398.185 656.253 397.688 656.989 397.308 657.877 397.044 658.765 396.781 659.802 396.649 660.988 396.649Z" fill="#4B5E68" fill-rule="evenodd"/><text fill="#000000" fill-opacity="0" font-family="Arial,Arial_MSFontService,sans-serif" font-size="18.4175" x="632.6" y="412.764">𝑨𝑺</text><path d="M680.68 398.666 682.552 398.666 682.552 406.26 689.738 406.26 689.738 408.013 682.552 408.013 682.552 415.607 680.68 415.607 680.68 408.013 673.495 408.013 673.495 406.26 680.68 406.26Z" fill="#4B5E68" fill-rule="evenodd"/><text fill="#000000" fill-opacity="0" font-family="Arial,Arial_MSFontService,sans-serif" font-size="16.9409" x="673.495" y="413.489">+</text><path d="M701.835 396.86 708.466 396.86 708.281 397.73C707.78 397.871 707.411 398.117 707.174 398.468 706.937 398.82 706.713 399.47 706.502 400.419L704.102 411.296C704.041 411.577 703.997 411.821 703.97 412.028 703.944 412.234 703.931 412.504 703.931 412.838 703.931 413.208 704.016 413.478 704.188 413.649 704.359 413.821 704.638 413.933 705.025 413.985L704.84 414.856 698.209 414.856 698.394 413.985C698.895 413.845 699.264 413.599 699.501 413.247 699.738 412.896 699.963 412.245 700.173 411.296L702.573 400.419C702.687 399.901 702.744 399.387 702.744 398.877 702.744 398.508 702.659 398.238 702.487 398.066 702.316 397.895 702.037 397.783 701.65 397.73Z" fill="#4B5E68" fill-rule="evenodd"/><text fill="#000000" fill-opacity="0" font-family="Arial,Arial_MSFontService,sans-serif" font-size="17.9956" x="698.209" y="412.606">𝑰</text><path d="M728.609 411.909C728.034 411.909 727.516 412.193 727.055 412.762 726.594 413.331 726.216 414.16 725.919 415.249 727.057 415.218 727.927 415 728.53 414.595 729.133 414.189 729.435 413.616 729.435 412.874 729.435 412.558 729.362 412.319 729.217 412.155 729.072 411.991 728.869 411.909 728.609 411.909ZM732.774 411.092 736.012 411.092 736.522 417.828C737.45 416.393 738.097 415.25 738.465 414.4 738.833 413.549 739.064 412.651 739.157 411.705L739.286 411.092 741.374 411.092 741.949 417.837C742.846 416.483 743.497 415.382 743.902 414.534 744.307 413.687 744.51 412.988 744.51 412.438 744.51 412.203 744.454 412.025 744.343 411.904 744.231 411.784 744.036 411.717 743.758 411.705L743.888 411.092 746.504 411.092 746.829 411.705C746.538 412.54 745.903 413.757 744.922 415.355 743.942 416.954 742.778 418.647 741.43 420.435L739.862 420.435 739.574 417.689C739.494 416.946 739.441 416.387 739.416 416.009 739.392 415.632 739.379 415.332 739.379 415.109L739.286 415.109C738.513 416.718 737.428 418.493 736.03 420.435L734.342 420.435 733.609 413.3C733.565 412.867 733.511 412.547 733.446 412.34 733.381 412.133 733.289 411.98 733.168 411.881 733.047 411.782 732.87 411.723 732.635 411.705ZM728.841 410.944C730.734 410.944 731.68 411.627 731.68 412.994 731.68 413.464 731.586 413.879 731.397 414.237 731.208 414.596 730.895 414.921 730.455 415.212 730.016 415.502 729.396 415.737 728.595 415.917 727.794 416.096 726.828 416.198 725.696 416.223 725.616 416.588 725.576 416.965 725.576 417.355 725.576 417.93 725.696 418.363 725.937 418.653 726.179 418.944 726.543 419.089 727.032 419.089 727.576 419.089 728.068 418.98 728.507 418.76 728.946 418.541 729.463 418.149 730.056 417.587L730.836 418.366C730.211 419.071 729.538 419.594 728.818 419.934 728.097 420.274 727.317 420.444 726.475 420.444 725.752 420.444 725.136 420.317 724.629 420.064 724.122 419.81 723.74 419.434 723.483 418.936 723.227 418.439 723.098 417.843 723.098 417.151 723.098 416.829 723.142 416.418 723.228 415.917 723.346 415.236 723.525 414.63 723.766 414.098 724.069 413.443 724.465 412.88 724.954 412.41 725.443 411.94 726.016 411.578 726.675 411.324 727.334 411.071 728.056 410.944 728.841 410.944ZM712.511 410.944C713.024 410.944 713.434 411.088 713.74 411.375 714.046 411.663 714.199 412.042 714.199 412.512 714.199 412.666 714.18 412.815 714.143 412.957L714.236 413.031C714.818 412.308 715.37 411.779 715.892 411.445 716.415 411.111 717.026 410.944 717.724 410.944 718.361 410.944 718.861 411.123 719.223 411.482 719.585 411.841 719.765 412.329 719.765 412.948 719.765 413.146 719.745 413.393 719.705 413.69 719.665 413.987 719.617 414.25 719.561 414.479L718.828 417.373C718.723 417.788 718.671 418.149 718.671 418.459 718.671 418.7 718.711 418.867 718.791 418.96 718.872 419.052 718.986 419.099 719.135 419.099 719.314 419.099 719.515 419.014 719.738 418.844 719.96 418.674 720.223 418.415 720.526 418.069L721.194 418.737C720.588 419.355 720.045 419.795 719.566 420.054 719.087 420.314 718.559 420.444 717.984 420.444 717.329 420.444 716.849 420.282 716.546 419.957 716.243 419.632 716.092 419.154 716.092 418.524 716.092 418.072 716.181 417.494 716.361 416.789L716.769 415.249C716.874 414.853 716.964 414.462 717.038 414.075 717.112 413.689 717.149 413.372 717.149 413.124 717.149 412.846 717.09 412.639 716.973 412.503 716.855 412.366 716.688 412.298 716.472 412.298 716.169 412.298 715.823 412.478 715.433 412.837 715.043 413.195 714.731 413.574 714.496 413.973 714.261 414.372 714.075 414.893 713.939 415.536L712.9 420.296 710.238 420.296 711.731 413.848C711.824 413.446 711.87 413.14 711.87 412.929 711.87 412.725 711.836 412.568 711.768 412.456 711.7 412.345 711.583 412.289 711.416 412.289 711.224 412.289 711.017 412.376 710.794 412.549 710.572 412.722 710.312 412.979 710.015 413.319L709.347 412.651C709.965 412.02 710.514 411.578 710.994 411.324 711.473 411.071 711.979 410.944 712.511 410.944Z" fill="#4B5E68" fill-rule="evenodd"/><text fill="#000000" fill-opacity="0" font-family="Arial,Arial_MSFontService,sans-serif" font-size="9.5" x="709.347" y="419.256">𝒏𝒆𝒘</text><path d="M817.508 394.652C820.074 395.329 822.045 396.79 823.421 399.035 824.796 401.281 825.484 403.99 825.484 407.163 825.484 410.345 824.798 413.054 823.427 415.291 822.056 417.528 820.083 418.984 817.508 419.661L817.192 418.646C819.222 417.969 820.731 416.633 821.72 414.638 822.709 412.643 823.203 410.107 823.203 407.031 823.203 404.061 822.711 401.593 821.727 399.629 820.742 397.664 819.217 396.344 817.152 395.667ZM759.247 394.652 759.603 395.667C757.546 396.344 756.023 397.664 755.035 399.629 754.046 401.593 753.552 404.061 753.552 407.031 753.552 410.107 754.046 412.643 755.035 414.638 756.023 416.633 757.533 417.969 759.563 418.646L759.247 419.661C756.672 418.984 754.698 417.528 753.327 415.291 751.956 413.054 751.271 410.345 751.271 407.163 751.271 403.99 751.958 401.281 753.334 399.035 754.709 396.79 756.68 395.329 759.247 394.652Z" fill="#4B5E68" fill-rule="evenodd"/><path d="M765.29 398.482 768.455 398.482 767.69 401.777 770.893 401.777 770.538 403.425 767.308 403.425 766.029 408.699C765.809 409.604 765.657 410.292 765.574 410.762 765.49 411.232 765.449 411.63 765.449 411.955 765.449 412.368 765.523 412.669 765.673 412.858 765.822 413.047 766.042 413.142 766.332 413.142 766.727 413.142 767.134 413.001 767.551 412.72 767.969 412.439 768.419 412.003 768.903 411.415L769.918 412.456C769.03 413.432 768.215 414.111 767.472 414.493 766.73 414.875 765.853 415.066 764.842 415.066 763.84 415.066 763.071 414.809 762.535 414.295 761.999 413.781 761.731 413.071 761.731 412.166 761.731 411.753 761.762 411.36 761.823 410.986 761.885 410.613 762.012 410 762.206 409.147L763.563 403.425 761.507 403.425 761.757 402.357C762.372 402.357 762.838 402.3 763.155 402.186 763.471 402.072 763.737 401.9 763.952 401.672 764.168 401.443 764.376 401.096 764.579 400.63 764.781 400.165 765.018 399.448 765.29 398.482Z" fill="#4B5E68" fill-rule="evenodd"/><text fill="#000000" fill-opacity="0" font-family="Arial,Arial_MSFontService,sans-serif" font-size="16.585" x="761.507" y="412.993">𝒕</text><path d="M779.022 406.26 795.264 406.26 795.264 408.013 779.022 408.013Z" fill="#4B5E68" fill-rule="evenodd"/><text fill="#000000" fill-opacity="0" font-family="Arial,Arial_MSFontService,sans-serif" font-size="1.75342" x="779.022" y="407.794">−</text><path d="M808.666 401.777 816.55 401.777 815.983 404.23 811.896 404.23 810.42 410.531C810.253 411.243 810.169 411.815 810.169 412.245 810.169 412.588 810.227 412.825 810.341 412.957 810.455 413.089 810.618 413.155 810.829 413.155 811.127 413.155 811.444 413.025 811.778 412.766 812.112 412.507 812.542 412.069 813.07 411.454L814.019 412.403C813.272 413.282 812.516 413.946 811.751 414.394 810.987 414.842 810.152 415.066 809.247 415.066 808.341 415.066 807.678 414.838 807.256 414.381 806.834 413.924 806.623 413.234 806.623 412.311 806.623 411.793 806.72 411.103 806.913 410.241L807.005 409.846C807.19 409.064 807.434 408.136 807.737 407.064 808.04 405.992 808.328 405.082 808.601 404.335L808.535 404.23 807.599 404.23C807.142 404.23 806.766 404.269 806.471 404.348 806.177 404.427 805.889 404.564 805.608 404.757 805.327 404.95 804.975 405.271 804.553 405.719L803.446 404.731C804.175 403.852 804.775 403.214 805.245 402.819 805.716 402.423 806.197 402.151 806.689 402.002 807.181 401.852 807.84 401.777 808.666 401.777Z" fill="#4B5E68" fill-rule="evenodd"/><text fill="#000000" fill-opacity="0" font-family="Arial,Arial_MSFontService,sans-serif" font-size="13.2891" x="803.446" y="413.405">𝝉</text><path d="M837.362 399.919 843.334 405.878 849.306 399.919 850.546 401.145 844.639 407.156 850.559 413.142 849.241 414.46 843.334 408.435 837.243 414.407 836.017 413.168 842.042 407.156 836.044 401.237Z" fill="#4B5E68" fill-rule="evenodd"/><text fill="#000000" fill-opacity="0" font-family="Arial,Arial_MSFontService,sans-serif" font-size="14.5415" x="836.017" y="412.642">×</text><path d="M951.181 394.652C953.748 395.329 955.719 396.79 957.094 399.035 958.47 401.281 959.157 403.99 959.157 407.163 959.157 410.345 958.472 413.054 957.101 415.291 955.73 417.528 953.756 418.984 951.181 419.661L950.865 418.646C952.895 417.969 954.405 416.633 955.393 414.638 956.382 412.643 956.877 410.107 956.877 407.031 956.877 404.061 956.384 401.593 955.4 399.629 954.416 397.664 952.891 396.344 950.825 395.667ZM868.92 394.652 869.276 395.667C867.219 396.344 865.697 397.664 864.708 399.629 863.719 401.593 863.225 404.061 863.225 407.031 863.225 410.107 863.719 412.643 864.708 414.638 865.697 416.633 867.206 417.969 869.237 418.646L868.92 419.661C866.345 418.984 864.372 417.528 863.001 415.291 861.63 413.054 860.944 410.345 860.944 407.163 860.944 403.99 861.632 401.281 863.007 399.035 864.383 396.79 866.354 395.329 868.92 394.652Z" fill="#4B5E68" fill-rule="evenodd"/><path d="M878.682 396.649 880.369 396.649C880.316 397.493 880.29 398.662 880.29 400.156L880.29 411.177C880.29 411.687 880.319 412.072 880.376 412.331 880.433 412.59 880.534 412.801 880.679 412.964 880.824 413.126 881.033 413.254 881.305 413.346 881.578 413.438 881.92 413.509 882.333 413.557 882.747 413.605 883.291 413.638 883.968 413.656L883.968 414.856 872.591 414.856 872.591 413.656C873.566 413.612 874.263 413.553 874.68 413.478 875.098 413.403 875.416 413.291 875.636 413.142 875.856 412.992 876.016 412.781 876.117 412.509 876.218 412.236 876.269 411.793 876.269 411.177L876.269 401.646C876.269 401.285 876.201 401.026 876.065 400.868 875.928 400.71 875.742 400.63 875.504 400.63 875.285 400.63 874.975 400.732 874.575 400.934 874.175 401.136 873.518 401.549 872.604 402.173L871.8 400.775Z" fill="#4B5E68" fill-rule="evenodd"/><text fill="#000000" fill-opacity="0" font-family="Arial,Arial_MSFontService,sans-serif" font-size="18.2065" x="871.8" y="412.58">𝟏</text><path d="M893.529 406.26 909.771 406.26 909.771 408.013 893.529 408.013Z" fill="#4B5E68" fill-rule="evenodd"/><text fill="#000000" fill-opacity="0" font-family="Arial,Arial_MSFontService,sans-serif" font-size="1.75342" x="893.529" y="407.794">−</text><path d="M928.262 400.05 924.188 407.736 928.486 407.736 928.433 404.572C928.416 403.447 928.407 402.516 928.407 401.777 928.407 401.215 928.411 400.639 928.42 400.05ZM928.077 396.768 931.874 396.768 932.441 410.861C932.459 411.362 932.494 411.812 932.547 412.212 932.599 412.612 932.683 412.94 932.797 413.194 932.911 413.449 933.054 413.636 933.226 413.755 933.397 413.873 933.615 413.95 933.878 413.985L933.68 414.856 926.865 414.856 927.062 413.985C927.449 413.959 927.754 413.86 927.979 413.689 928.203 413.517 928.359 413.284 928.447 412.99 928.534 412.696 928.578 412.285 928.578 411.757 928.578 411.379 928.57 410.984 928.552 410.571L928.526 409.279 923.371 409.279 923.186 409.608C922.694 410.496 922.367 411.169 922.204 411.626 922.042 412.083 921.96 412.504 921.96 412.891 921.96 413.524 922.334 413.889 923.081 413.985L922.883 414.856 917.32 414.856 917.517 413.985C917.825 413.915 918.095 413.796 918.328 413.629 918.561 413.462 918.783 413.236 918.994 412.951 919.205 412.665 919.504 412.175 919.89 411.481ZM945.708 396.649C946.587 396.649 947.396 396.695 948.134 396.787 948.872 396.88 949.633 397.044 950.415 397.282L949.611 401.039 947.884 401.039C947.875 400.055 947.681 399.334 947.303 398.877 946.926 398.42 946.315 398.191 945.471 398.191 944.548 398.191 943.819 398.44 943.282 398.936 942.746 399.433 942.478 400.116 942.478 400.986 942.478 401.602 942.691 402.184 943.118 402.733 943.544 403.283 944.188 403.869 945.049 404.493 945.831 405.073 946.433 405.594 946.855 406.055 947.277 406.517 947.594 407.007 947.804 407.525 948.015 408.044 948.121 408.637 948.121 409.305 948.121 410.105 947.945 410.876 947.594 411.619 947.242 412.362 946.748 412.992 946.11 413.511 945.473 414.029 944.755 414.418 943.955 414.678 943.155 414.937 942.096 415.066 940.778 415.066 939.969 415.066 939.123 414.996 938.24 414.856 937.356 414.715 936.506 414.517 935.689 414.262L936.506 410.465 938.233 410.465C938.26 411.239 938.378 411.847 938.589 412.291 938.8 412.735 939.099 413.052 939.486 413.241 939.872 413.43 940.382 413.524 941.015 413.524 941.973 413.524 942.729 413.249 943.282 412.7 943.836 412.151 944.113 411.384 944.113 410.399 944.113 409.89 944.025 409.439 943.849 409.048 943.674 408.657 943.403 408.277 943.039 407.908 942.674 407.539 942.043 407.024 941.147 406.365 940.312 405.75 939.681 405.069 939.255 404.322 938.829 403.575 938.615 402.793 938.615 401.975 938.615 401.281 938.765 400.6 939.064 399.932 939.363 399.264 939.804 398.681 940.389 398.185 940.973 397.688 941.709 397.308 942.597 397.044 943.485 396.781 944.522 396.649 945.708 396.649Z" fill="#4B5E68" fill-rule="evenodd"/><text fill="#000000" fill-opacity="0" font-family="Arial,Arial_MSFontService,sans-serif" font-size="18.4175" x="917.32" y="412.764">𝑨𝑺</text><path d="M1096.98 390.835C1099.73 391.556 1101.84 393.423 1103.33 396.438 1104.81 399.453 1105.55 403.021 1105.55 407.143 1105.55 411.265 1104.81 414.834 1103.33 417.848 1101.84 420.863 1099.73 422.731 1096.98 423.451L1096.65 422.37C1098.78 421.57 1100.39 419.828 1101.49 417.143 1102.58 414.458 1103.13 411.129 1103.13 407.156 1103.13 403.175 1102.58 399.839 1101.49 397.15 1100.39 394.461 1098.78 392.716 1096.65 391.916ZM972.333 390.835 972.663 391.916C970.536 392.716 968.925 394.461 967.831 397.15 966.737 399.839 966.19 403.175 966.19 407.156 966.19 411.129 966.737 414.458 967.831 417.143 968.925 419.828 970.536 421.57 972.663 422.37L972.333 423.451C969.591 422.731 967.477 420.863 965.992 417.848 964.507 414.834 963.764 411.265 963.764 407.143 963.764 403.021 964.507 399.453 965.992 396.438 967.477 393.423 969.591 391.556 972.333 390.835Z" fill="#4B5E68" fill-rule="evenodd"/><path d="M982.415 396.649 984.102 396.649C984.05 397.493 984.023 398.662 984.023 400.156L984.023 411.177C984.023 411.687 984.052 412.072 984.109 412.331 984.166 412.59 984.267 412.801 984.412 412.964 984.557 413.126 984.766 413.254 985.038 413.346 985.311 413.438 985.654 413.509 986.067 413.557 986.48 413.605 987.025 413.638 987.702 413.656L987.702 414.856 976.324 414.856 976.324 413.656C977.3 413.612 977.996 413.553 978.414 413.478 978.831 413.403 979.15 413.291 979.37 413.142 979.589 412.992 979.75 412.781 979.851 412.509 979.952 412.236 980.002 411.793 980.002 411.177L980.002 401.646C980.002 401.285 979.934 401.026 979.798 400.868 979.662 400.71 979.475 400.63 979.238 400.63 979.018 400.63 978.708 400.732 978.308 400.934 977.908 401.136 977.251 401.549 976.337 402.173L975.533 400.775Z" fill="#4B5E68" fill-rule="evenodd"/><text fill="#000000" fill-opacity="0" font-family="Arial,Arial_MSFontService,sans-serif" font-size="18.2065" x="975.533" y="412.58">𝟏</text><path d="M997.262 406.26 1013.5 406.26 1013.5 408.013 997.262 408.013Z" fill="#4B5E68" fill-rule="evenodd"/><text fill="#000000" fill-opacity="0" font-family="Arial,Arial_MSFontService,sans-serif" font-size="1.75342" x="997.262" y="407.794">−</text><path d="M1025.6 396.86 1038.07 396.86 1037.14 401.105 1035.45 401.105C1035.41 400.27 1035.33 399.686 1035.21 399.352 1035.1 399.018 1034.92 398.776 1034.68 398.627 1034.45 398.477 1034.11 398.402 1033.68 398.402L1030.7 398.402 1029.25 404.994 1031.02 404.994C1031.54 404.994 1031.96 404.827 1032.28 404.493 1032.6 404.159 1032.92 403.619 1033.25 402.872L1034.7 402.872 1033.31 408.752 1031.96 408.752C1031.96 408.136 1031.92 407.679 1031.86 407.38 1031.79 407.082 1031.67 406.866 1031.51 406.734 1031.34 406.603 1031.08 406.537 1030.73 406.537L1028.92 406.537 1027.87 411.296C1027.81 411.577 1027.76 411.821 1027.74 412.028 1027.71 412.234 1027.7 412.504 1027.7 412.838 1027.7 413.243 1027.8 413.528 1028.01 413.695 1028.21 413.862 1028.54 413.959 1028.98 413.985L1028.79 414.856 1021.98 414.856 1022.16 413.985C1022.66 413.845 1023.03 413.599 1023.27 413.247 1023.51 412.896 1023.73 412.245 1023.94 411.296L1026.34 400.419C1026.45 399.901 1026.51 399.387 1026.51 398.877 1026.51 398.508 1026.43 398.238 1026.25 398.066 1026.08 397.895 1025.8 397.783 1025.42 397.73Z" fill="#4B5E68" fill-rule="evenodd"/><text fill="#000000" fill-opacity="0" font-family="Arial,Arial_MSFontService,sans-serif" font-size="17.9956" x="1021.98" y="412.606">𝑭</text><path d="M1041.3 407.632 1045.97 407.632 1045.84 408.244C1045.49 408.343 1045.23 408.516 1045.06 408.764 1044.89 409.011 1044.74 409.469 1044.59 410.137L1042.9 417.791C1042.86 417.989 1042.83 418.16 1042.81 418.306 1042.79 418.451 1042.78 418.641 1042.78 418.876 1042.78 419.136 1042.84 419.326 1042.96 419.447 1043.08 419.567 1043.28 419.646 1043.55 419.683L1043.42 420.296 1038.75 420.296 1038.88 419.683C1039.24 419.584 1039.5 419.411 1039.66 419.164 1039.83 418.916 1039.99 418.459 1040.14 417.791L1041.82 410.137C1041.9 409.772 1041.94 409.41 1041.94 409.051 1041.94 408.792 1041.88 408.601 1041.76 408.481 1041.64 408.36 1041.45 408.281 1041.17 408.244ZM1055.75 407.484C1056.81 407.484 1057.85 407.635 1058.87 407.938L1058.27 410.647 1057.06 410.647C1057.04 410.097 1056.98 409.682 1056.89 409.404 1056.8 409.126 1056.65 408.917 1056.46 408.778 1056.26 408.639 1055.99 408.569 1055.65 408.569 1055.13 408.569 1054.62 408.773 1054.11 409.181 1053.6 409.589 1053.13 410.206 1052.7 411.032 1052.27 411.858 1051.93 412.833 1051.66 413.959 1051.4 415.085 1051.27 416.099 1051.27 417.002 1051.27 417.522 1051.32 417.951 1051.41 418.292 1051.51 418.632 1051.68 418.895 1051.91 419.08 1052.15 419.266 1052.48 419.359 1052.9 419.359 1053.55 419.359 1054.08 419.198 1054.5 418.876 1054.93 418.554 1055.31 418.001 1055.65 417.215L1056.86 417.215 1056.27 419.952C1055.67 420.125 1055.07 420.251 1054.48 420.328 1053.89 420.405 1053.25 420.444 1052.57 420.444 1051.25 420.444 1050.24 420.084 1049.53 419.363 1048.83 418.643 1048.48 417.605 1048.48 416.251 1048.48 415.737 1048.53 415.147 1048.64 414.479 1048.82 413.421 1049.12 412.444 1049.53 411.547 1049.95 410.65 1050.47 409.897 1051.1 409.288 1051.73 408.679 1052.43 408.226 1053.21 407.929 1054 407.632 1054.84 407.484 1055.75 407.484Z" fill="#4B5E68" fill-rule="evenodd"/><text fill="#000000" fill-opacity="0" font-family="Arial,Arial_MSFontService,sans-serif" font-size="12.9604" x="1038.75" y="418.824">𝑰𝑪</text><path d="M1085.59 394.652C1088.15 395.329 1090.13 396.79 1091.5 399.035 1092.88 401.281 1093.56 403.99 1093.56 407.163 1093.56 410.345 1092.88 413.054 1091.51 415.291 1090.14 417.528 1088.16 418.984 1085.59 419.661L1085.27 418.646C1087.3 417.969 1088.81 416.633 1089.8 414.638 1090.79 412.643 1091.28 410.107 1091.28 407.031 1091.28 404.061 1090.79 401.593 1089.81 399.629 1088.82 397.664 1087.3 396.344 1085.23 395.667ZM1070.35 394.652 1070.7 395.667C1068.65 396.344 1067.12 397.664 1066.13 399.629 1065.15 401.593 1064.65 404.061 1064.65 407.031 1064.65 410.107 1065.15 412.643 1066.13 414.638 1067.12 416.633 1068.63 417.969 1070.66 418.646L1070.35 419.661C1067.77 418.984 1065.8 417.528 1064.43 415.291 1063.06 413.054 1062.37 410.345 1062.37 407.163 1062.37 403.99 1063.06 401.281 1064.43 399.035 1065.81 396.79 1067.78 395.329 1070.35 394.652Z" fill="#4B5E68" fill-rule="evenodd"/><path d="M1076.75 401.777 1084.63 401.777 1084.06 404.23 1079.98 404.23 1078.5 410.531C1078.33 411.243 1078.25 411.815 1078.25 412.245 1078.25 412.588 1078.31 412.825 1078.42 412.957 1078.54 413.089 1078.7 413.155 1078.91 413.155 1079.21 413.155 1079.52 413.025 1079.86 412.766 1080.19 412.507 1080.62 412.069 1081.15 411.454L1082.1 412.403C1081.35 413.282 1080.6 413.946 1079.83 414.394 1079.07 414.842 1078.23 415.066 1077.33 415.066 1076.42 415.066 1075.76 414.838 1075.34 414.381 1074.91 413.924 1074.7 413.234 1074.7 412.311 1074.7 411.793 1074.8 411.103 1074.99 410.241L1075.09 409.846C1075.27 409.064 1075.51 408.136 1075.82 407.064 1076.12 405.992 1076.41 405.082 1076.68 404.335L1076.61 404.23 1075.68 404.23C1075.22 404.23 1074.85 404.269 1074.55 404.348 1074.26 404.427 1073.97 404.564 1073.69 404.757 1073.41 404.95 1073.06 405.271 1072.63 405.719L1071.53 404.731C1072.26 403.852 1072.86 403.214 1073.33 402.819 1073.8 402.423 1074.28 402.151 1074.77 402.002 1075.26 401.852 1075.92 401.777 1076.75 401.777Z" fill="#4B5E68" fill-rule="evenodd"/><text fill="#000000" fill-opacity="0" font-family="Arial,Arial_MSFontService,sans-serif" font-size="13.2891" x="1071.53" y="413.405">𝝉</text><path d="M1109.07 384.87C1112.01 386.364 1114.35 389.106 1116.09 393.096 1117.83 397.086 1118.69 401.762 1118.69 407.123 1118.69 412.45 1117.83 417.125 1116.09 421.151 1114.35 425.176 1112.01 427.927 1109.07 429.404L1108.65 428.349C1111 426.82 1112.85 424.192 1114.18 420.465 1115.51 416.739 1116.18 412.3 1116.18 407.15 1116.18 401.903 1115.51 397.436 1114.17 393.749 1112.82 390.062 1110.99 387.454 1108.65 385.924Z" fill="#4B5E68" fill-rule="evenodd"/><text fill="#000000" fill-opacity="0" font-family="Arial,Arial_MSFontService,sans-serif" font-size="44.5342" x="1108.65" y="423.837">ቁ</text><path d="M308.546 363.74 310.772 363.74 310.234 366.059 312.489 366.059 312.238 367.219 309.965 367.219 309.065 370.93C308.911 371.567 308.804 372.051 308.745 372.382 308.686 372.712 308.657 372.992 308.657 373.221 308.657 373.512 308.71 373.724 308.815 373.857 308.92 373.99 309.074 374.056 309.279 374.056 309.557 374.056 309.843 373.957 310.137 373.759 310.431 373.561 310.747 373.255 311.088 372.841L311.802 373.574C311.177 374.26 310.604 374.738 310.081 375.007 309.558 375.276 308.942 375.411 308.23 375.411 307.525 375.411 306.984 375.23 306.607 374.868 306.229 374.506 306.041 374.007 306.041 373.37 306.041 373.079 306.062 372.802 306.106 372.539 306.149 372.276 306.239 371.845 306.375 371.245L307.33 367.219 305.883 367.219 306.059 366.467C306.492 366.467 306.82 366.427 307.043 366.347 307.265 366.266 307.453 366.146 307.604 365.985 307.756 365.824 307.902 365.58 308.045 365.252 308.187 364.924 308.354 364.42 308.546 363.74Z" fill="#4B5E68" fill-rule="evenodd"/><text fill="#000000" fill-opacity="0" font-family="Arial,Arial_MSFontService,sans-serif" font-size="11.6709" x="305.883" y="373.952">𝒕</text><path d="M314.532 369.121 325.22 369.121 325.22 370.54 314.532 370.54Z" fill="#4B5E68" fill-rule="evenodd"/><text fill="#000000" fill-opacity="0" font-family="Arial,Arial_MSFontService,sans-serif" font-size="1.41943" x="314.532" y="370.363">−</text><path d="M333.495 362.45 334.683 362.45C334.646 363.044 334.627 363.867 334.627 364.918L334.627 372.674C334.627 373.033 334.647 373.303 334.687 373.486 334.728 373.668 334.799 373.816 334.901 373.931 335.003 374.045 335.15 374.135 335.341 374.2 335.533 374.265 335.774 374.314 336.065 374.348 336.356 374.382 336.739 374.406 337.215 374.418L337.215 375.262 329.209 375.262 329.209 374.418C329.896 374.387 330.386 374.345 330.68 374.293 330.973 374.24 331.198 374.161 331.352 374.056 331.507 373.951 331.62 373.803 331.691 373.611 331.762 373.419 331.797 373.107 331.797 372.674L331.797 365.966C331.797 365.713 331.75 365.53 331.654 365.419 331.558 365.308 331.426 365.252 331.259 365.252 331.105 365.252 330.887 365.323 330.605 365.465 330.324 365.608 329.862 365.898 329.218 366.337L328.652 365.354Z" fill="#4B5E68" fill-rule="evenodd"/><text fill="#000000" fill-opacity="0" font-family="Arial,Arial_MSFontService,sans-serif" font-size="12.812" x="328.652" y="373.661">𝟏</text><path d="M307.883 439.639 313.431 439.639 313.032 441.365 310.156 441.365 309.117 445.799C308.999 446.3 308.94 446.702 308.94 447.005 308.94 447.246 308.981 447.413 309.061 447.506 309.141 447.599 309.256 447.645 309.404 447.645 309.615 447.645 309.837 447.554 310.072 447.372 310.307 447.189 310.61 446.882 310.981 446.449L311.649 447.117C311.124 447.735 310.592 448.202 310.054 448.517 309.516 448.833 308.928 448.991 308.291 448.991 307.654 448.991 307.187 448.83 306.89 448.508 306.593 448.187 306.445 447.701 306.445 447.052 306.445 446.687 306.513 446.201 306.649 445.595L306.714 445.317C306.844 444.766 307.015 444.114 307.229 443.359 307.442 442.605 307.645 441.965 307.836 441.439L307.79 441.365 307.131 441.365C306.81 441.365 306.545 441.392 306.338 441.448 306.131 441.504 305.928 441.6 305.73 441.736 305.533 441.872 305.285 442.098 304.988 442.413L304.209 441.717C304.722 441.099 305.144 440.65 305.475 440.372 305.806 440.094 306.145 439.902 306.491 439.797 306.838 439.692 307.301 439.639 307.883 439.639Z" fill="#4B5E68" fill-rule="evenodd"/><text fill="#000000" fill-opacity="0" font-family="Arial,Arial_MSFontService,sans-serif" font-size="9.35156" x="304.209" y="447.822">𝝉</text><path d="M315.452 444.723 326.14 444.723 326.14 446.142 315.452 446.142ZM315.452 440.687 326.14 440.687 326.14 442.107 315.452 442.107Z" fill="#4B5E68" fill-rule="evenodd"/><text fill="#000000" fill-opacity="0" font-family="Arial,Arial_MSFontService,sans-serif" font-size="5.45508" x="315.452" y="445.461">=</text><path d="M334.415 436.03 335.603 436.03C335.566 436.624 335.547 437.447 335.547 438.498L335.547 446.254C335.547 446.613 335.567 446.883 335.607 447.066 335.648 447.248 335.719 447.396 335.821 447.511 335.923 447.625 336.07 447.715 336.261 447.78 336.453 447.845 336.694 447.894 336.985 447.928 337.276 447.962 337.659 447.986 338.135 447.998L338.135 448.842 330.129 448.842 330.129 447.998C330.816 447.967 331.306 447.925 331.6 447.873 331.893 447.82 332.118 447.741 332.272 447.636 332.427 447.531 332.54 447.383 332.611 447.191 332.682 446.999 332.717 446.687 332.717 446.254L332.717 439.546C332.717 439.293 332.67 439.11 332.574 438.999 332.478 438.888 332.346 438.832 332.179 438.832 332.025 438.832 331.807 438.903 331.525 439.045 331.244 439.188 330.782 439.478 330.138 439.917L329.572 438.934Z" fill="#4B5E68" fill-rule="evenodd"/><text fill="#000000" fill-opacity="0" font-family="Arial,Arial_MSFontService,sans-serif" font-size="12.812" x="329.572" y="447.241">𝟏</text><text fill="#4B5E68" font-family="Cambria Math,Cambria Math_MSFontService,sans-serif" font-weight="400" font-size="27" transform="translate(231.242 648)">𝑰</text><text fill="#4B5E68" font-family="Cambria Math,Cambria Math_MSFontService,sans-serif" font-weight="400" font-size="19" transform="translate(242.909 653)">𝒉</text><path d="M279.439 627.312C282.006 627.989 283.977 629.45 285.352 631.696 286.728 633.941 287.415 636.65 287.415 639.823 287.415 643.005 286.73 645.714 285.359 647.951 283.988 650.188 282.014 651.645 279.439 652.321L279.123 651.306C281.153 650.629 282.663 649.294 283.651 647.298 284.64 645.303 285.135 642.768 285.135 639.691 285.135 636.721 284.642 634.253 283.658 632.289 282.674 630.325 281.149 629.004 279.083 628.327ZM266.698 627.312 267.054 628.327C264.997 629.004 263.475 630.325 262.486 632.289 261.497 634.253 261.003 636.721 261.003 639.691 261.003 642.768 261.497 645.303 262.486 647.298 263.475 649.294 264.984 650.629 267.015 651.306L266.698 652.321C264.123 651.645 262.15 650.188 260.779 647.951 259.408 645.714 258.722 643.005 258.722 639.823 258.722 636.65 259.41 633.941 260.785 631.696 262.161 629.45 264.132 627.989 266.698 627.312Z" fill="#4B5E68" fill-rule="evenodd"/><text fill="#4B5E68" font-family="Cambria Math,Cambria Math_MSFontService,sans-serif" font-weight="400" font-size="27" transform="translate(267.416 648)">𝒕</text><text fill="#4B5E68" font-family="Cambria Math,Cambria Math_MSFontService,sans-serif" font-weight="400" font-size="27" transform="translate(289.649 648)"></text><text fill="#4B5E68" font-family="Cambria Math,Cambria Math_MSFontService,sans-serif" font-weight="400" font-size="27" transform="translate(295.482 648)"></text><text fill="#4B5E68" font-family="Cambria Math,Cambria Math_MSFontService,sans-serif" font-weight="400" font-size="27" transform="translate(301.316 648)">~</text><text fill="#4B5E68" font-family="Cambria Math,Cambria Math_MSFontService,sans-serif" font-weight="400" font-size="27" transform="translate(320.316 648)"></text><text fill="#4B5E68" font-family="Cambria Math,Cambria Math_MSFontService,sans-serif" font-weight="400" font-size="27" transform="translate(326.149 648)"></text><text fill="#4B5E68" font-family="Cambria Math,Cambria Math_MSFontService,sans-serif" font-weight="400" font-size="27" transform="translate(331.982 648)">𝑵𝑩</text><path d="M599.899 605.381C603.511 608.475 606.378 613.089 608.501 619.224 610.624 625.359 611.685 632.205 611.685 639.764 611.685 647.208 610.624 654.044 608.501 660.271 606.378 666.498 603.511 671.15 599.899 674.226L599.279 673.25C602.399 670.077 604.803 665.485 606.491 659.473 608.178 653.462 609.022 646.896 609.022 639.777 609.022 632.491 608.174 625.895 606.477 619.989 604.781 614.082 602.382 609.543 599.279 606.37ZM390.097 605.381 390.716 606.37C387.605 609.543 385.203 614.082 383.511 619.989 381.82 625.895 380.974 632.491 380.974 639.777 380.974 646.896 381.817 653.462 383.505 659.473 385.192 665.485 387.596 670.077 390.716 673.25L390.097 674.226C386.484 671.15 383.617 666.498 381.494 660.271 379.372 654.044 378.31 647.208 378.31 639.764 378.31 632.205 379.372 625.359 381.494 619.224 383.617 613.089 386.484 608.475 390.097 605.381Z" fill="#4B5E68" fill-rule="evenodd"/><text fill="#4B5E68" font-family="Cambria Math,Cambria Math_MSFontService,sans-serif" font-weight="400" font-size="27" transform="translate(392.576 627)">𝑰</text><text fill="#4B5E68" font-family="Cambria Math,Cambria Math_MSFontService,sans-serif" font-weight="400" font-size="19" transform="translate(404.242 633)">𝑨𝑷</text><path d="M454.606 607.132C457.172 607.809 459.143 609.27 460.519 611.516 461.894 613.761 462.582 616.47 462.582 619.643 462.582 622.825 461.896 625.534 460.525 627.771 459.154 630.008 457.181 631.465 454.606 632.141L454.289 631.126C456.32 630.449 457.829 629.114 458.818 627.118 459.807 625.123 460.301 622.588 460.301 619.511 460.301 616.541 459.809 614.073 458.825 612.109 457.84 610.145 456.315 608.824 454.25 608.147ZM441.865 607.132 442.221 608.147C440.164 608.824 438.641 610.145 437.653 612.109 436.664 614.073 436.169 616.541 436.169 619.511 436.169 622.588 436.664 625.123 437.653 627.118 438.641 629.114 440.151 630.449 442.181 631.126L441.865 632.141C439.29 631.465 437.316 630.008 435.945 627.771 434.574 625.534 433.889 622.825 433.889 619.643 433.889 616.47 434.576 613.761 435.952 611.516 437.327 609.27 439.298 607.809 441.865 607.132Z" fill="#4B5E68" fill-rule="evenodd"/><text fill="#4B5E68" font-family="Cambria Math,Cambria Math_MSFontService,sans-serif" font-weight="400" font-size="27" transform="translate(442.582 627)">𝒕</text><text fill="#4B5E68" font-family="Cambria Math,Cambria Math_MSFontService,sans-serif" font-weight="400" font-size="27" transform="translate(391.396 665)">𝑷𝑷</text><text fill="#4B5E68" font-family="Cambria Math,Cambria Math_MSFontService,sans-serif" font-weight="400" font-size="19" transform="translate(428.062 671)">𝒄𝒊𝒕𝒚</text><path d="M391.896 639.516 466.896 639.516 466.896 641.516 391.896 641.516Z" fill="#4B5E68" fill-rule="evenodd"/><text fill="#4B5E68" font-family="Cambria Math,Cambria Math_MSFontService,sans-serif" font-weight="400" font-size="27" transform="translate(471.929 648)">×</text><text fill="#4B5E68" font-family="Cambria Math,Cambria Math_MSFontService,sans-serif" font-weight="400" font-size="27" transform="translate(496.856 648)">𝑷𝑷</text><text fill="#4B5E68" font-family="Cambria Math,Cambria Math_MSFontService,sans-serif" font-weight="400" font-size="19" transform="translate(533.522 653)">𝒉𝒐𝒔</text><text fill="#4B5E68" font-family="Cambria Math,Cambria Math_MSFontService,sans-serif" font-weight="400" font-size="27" transform="translate(567.962 648)">,</text><text fill="#4B5E68" font-family="Cambria Math,Cambria Math_MSFontService,sans-serif" font-weight="400" font-size="27" transform="translate(577.909 648)">𝑲</text><text fill="#4B5E68" font-family="Arial,Arial_MSFontService,sans-serif" font-weight="400" font-size="19" transform="translate(968.288 452)">Not yet symptomatic</text><text fill="#4B5E68" font-family="Arial,Arial_MSFontService,sans-serif" font-weight="400" font-size="19" transform="translate(839.695 454)">Proportion of</text><text fill="#4B5E68" font-family="Arial,Arial_MSFontService,sans-serif" font-weight="400" font-size="19" transform="translate(797.781 477)">becoming symptomatic</text><path d="M852.5 429.5 948.5 429.5" stroke="#5F696E" stroke-width="3" stroke-miterlimit="8" fill="none" fill-rule="evenodd"/><path d="M974.5 429.5 1095.44 429.5" stroke="#5F696E" stroke-width="3" stroke-miterlimit="8" fill="none" fill-rule="evenodd"/><text fill="#4B5E68" font-family="Arial,Arial_MSFontService,sans-serif" font-weight="400" font-size="19" transform="translate(477.243 451)">Newly infected</text><text fill="#4B5E68" font-family="Arial,Arial_MSFontService,sans-serif" font-weight="400" font-size="19" transform="translate(468.997 474)">individuals in the</text><text fill="#4B5E68" font-family="Arial,Arial_MSFontService,sans-serif" font-weight="400" font-size="19" transform="translate(472.163 496)">surrounding city</text><path d="M469.5 429.5 594.224 429.5" stroke="#5F696E" stroke-width="3" stroke-miterlimit="8" fill="none" fill-rule="evenodd"/><text fill="#4B5E68" font-family="Arial,Arial_MSFontService,sans-serif" font-weight="400" font-size="21" transform="translate(349.53 453)">Generation</text><text fill="#4B5E68" font-family="Arial,Arial_MSFontService,sans-serif" font-weight="400" font-size="21" transform="translate(367.95 478)">interval</text><path d="M356.5 429.5 452.5 429.5" stroke="#5F696E" stroke-width="3" stroke-miterlimit="8" fill="none" fill-rule="evenodd"/><text fill="#4B5E68" font-family="Arial,Arial_MSFontService,sans-serif" font-weight="400" font-size="21" transform="translate(696.209 625)">PP</text><text fill="#4B5E68" font-family="Arial,Arial_MSFontService,sans-serif" font-weight="400" font-size="14" transform="translate(724.542 629)">hos</text><text fill="#4B5E68" font-family="Arial,Arial_MSFontService,sans-serif" font-weight="400" font-size="21" transform="translate(747.376 625)">: the number of individuals entering hospital</text><text fill="#4B5E68" font-family="Arial,Arial_MSFontService,sans-serif" font-weight="400" font-size="21" transform="translate(697.604 673)">PP</text><text fill="#4B5E68" font-family="Arial,Arial_MSFontService,sans-serif" font-weight="400" font-size="14" transform="translate(725.938 677)">city</text><text fill="#4B5E68" font-family="Arial,Arial_MSFontService,sans-serif" font-weight="400" font-size="21" transform="translate(747.438 673)">: Population in the surrounding city</text><text fill="#4B5E68" font-family="Arial,Arial_MSFontService,sans-serif" font-weight="400" font-size="21" transform="translate(157.124 457)">Asymptomatic</text><text fill="#4B5E68" font-family="Arial,Arial_MSFontService,sans-serif" font-weight="400" font-size="21" transform="translate(158.378 482)">and infectious</text><path d="M175.5 429.5 271.5 429.5" stroke="#5F696E" stroke-width="3" stroke-miterlimit="8" fill="none" fill-rule="evenodd"/><text fill="#4B5E68" font-family="Arial,Arial_MSFontService,sans-serif" font-weight="400" font-size="21" transform="translate(992.03 519)">Cumulative distribution of</text><text fill="#4B5E68" font-family="Arial,Arial_MSFontService,sans-serif" font-weight="400" font-size="21" transform="translate(1012.78 544)">the incubation period</text><text fill="#4B5E68" font-family="Arial,Arial_MSFontService,sans-serif" font-weight="400" font-size="21" transform="translate(942.73 521)">F</text><text fill="#4B5E68" font-family="Arial,Arial_MSFontService,sans-serif" font-weight="400" font-size="14" transform="translate(955.73 525)">IC</text><text fill="#4B5E68" font-family="Arial,Arial_MSFontService,sans-serif" font-weight="400" font-size="21" transform="translate(974.063 521)">:</text></g></svg>