<svg width="1283" height="723" xmlns="http://www.w3.org/2000/svg" xmlns:xlink="http://www.w3.org/1999/xlink" overflow="hidden"><defs><clipPath id="clip0"><rect x="-1" y="-2" width="1283" height="723"/></clipPath></defs><g clip-path="url(#clip0)" transform="translate(1 2)"><rect x="1" y="0" width="1280" height="720" fill="#FFFFFF"/><text fill="#FFFFFF" font-family="Cambria Math,Cambria Math_MSFontService,sans-serif" font-weight="400" font-size="24" transform="translate(366.794 366)"></text><text fill="#FFFFFF" font-family="Cambria Math,Cambria Math_MSFontService,sans-serif" font-weight="400" font-size="24" transform="translate(372.128 366)"></text><text fill="#FFFFFF" font-family="Cambria Math,Cambria Math_MSFontService,sans-serif" font-weight="400" font-size="24" transform="translate(377.461 366)"></text><text fill="#FFFFFF" font-family="Cambria Math,Cambria Math_MSFontService,sans-serif" font-weight="400" font-size="24" transform="translate(382.794 366)"></text><text fill="#FFFFFF" font-family="Cambria Math,Cambria Math_MSFontService,sans-serif" font-weight="400" font-size="24" transform="translate(388.128 366)"></text><text fill="#FFFFFF" font-family="Cambria Math,Cambria Math_MSFontService,sans-serif" font-weight="400" font-size="24" transform="translate(393.461 366)"></text><text fill="#FFFFFF" font-family="Cambria Math,Cambria Math_MSFontService,sans-serif" font-weight="400" font-size="24" transform="translate(398.794 366)"></text><text fill="#FFFFFF" font-family="Cambria Math,Cambria Math_MSFontService,sans-serif" font-weight="400" font-size="24" transform="translate(404.128 366)"></text><text fill="#FFFFFF" font-family="Cambria Math,Cambria Math_MSFontService,sans-serif" font-weight="400" font-size="24" transform="translate(409.461 366)"></text><text fill="#FFFFFF" font-family="Cambria Math,Cambria Math_MSFontService,sans-serif" font-weight="400" font-size="24" transform="translate(414.794 366)"></text><text fill="#FFFFFF" font-family="Cambria Math,Cambria Math_MSFontService,sans-serif" font-weight="400" font-size="24" transform="translate(420.128 366)"></text><text fill="#FFFFFF" font-family="Cambria Math,Cambria Math_MSFontService,sans-serif" font-weight="400" font-size="24" transform="translate(425.461 366)"></text><text fill="#FFFFFF" font-family="Cambria Math,Cambria Math_MSFontService,sans-serif" font-weight="400" font-size="24" transform="translate(430.794 366)"></text><text fill="#FFFFFF" font-family="Cambria Math,Cambria Math_MSFontService,sans-serif" font-weight="400" font-size="24" transform="translate(436.128 366)"></text><text fill="#FFFFFF" font-family="Cambria Math,Cambria Math_MSFontService,sans-serif" font-weight="400" font-size="24" transform="translate(441.461 366)"></text><text fill="#FFFFFF" font-family="Cambria Math,Cambria Math_MSFontService,sans-serif" font-weight="400" font-size="24" transform="translate(446.794 366)"></text><text fill="#FFFFFF" font-family="Cambria Math,Cambria Math_MSFontService,sans-serif" font-weight="400" font-size="24" transform="translate(452.128 366)">𝑠</text><text fill="#FFFFFF" font-family="Cambria Math,Cambria Math_MSFontService,sans-serif" font-weight="400" font-size="18" transform="translate(462.708 371)">𝑖</text><text fill="#FFFFFF" font-family="Cambria Math,Cambria Math_MSFontService,sans-serif" font-weight="400" font-size="18" transform="translate(469.474 371)">,</text><text fill="#FFFFFF" font-family="Cambria Math,Cambria Math_MSFontService,sans-serif" font-weight="400" font-size="18" transform="translate(473.141 371)">𝑡</text><text fill="#FFFFFF" font-family="Cambria Math,Cambria Math_MSFontService,sans-serif" font-weight="400" font-size="24" transform="translate(485.601 366)"></text><text fill="#FFFFFF" font-family="Cambria Math,Cambria Math_MSFontService,sans-serif" font-weight="400" font-size="24" transform="translate(490.934 366)"></text><text fill="#FFFFFF" font-family="Cambria Math,Cambria Math_MSFontService,sans-serif" font-weight="400" font-size="24" transform="translate(496.268 366)"></text><text fill="#FFFFFF" font-family="Cambria Math,Cambria Math_MSFontService,sans-serif" font-weight="400" font-size="24" transform="translate(504.934 366)">=</text><text fill="#FFFFFF" font-family="Cambria Math,Cambria Math_MSFontService,sans-serif" font-weight="400" font-size="24" transform="translate(526.268 366)"></text><text fill="#FFFFFF" font-family="Cambria Math,Cambria Math_MSFontService,sans-serif" font-weight="400" font-size="24" transform="translate(534.934 366)">𝐴</text><text fill="#FFFFFF" font-family="Cambria Math,Cambria Math_MSFontService,sans-serif" font-weight="400" font-size="18" transform="translate(550.101 371)">𝑖</text><text fill="#FFFFFF" font-family="Cambria Math,Cambria Math_MSFontService,sans-serif" font-weight="400" font-size="24" transform="translate(563.194 366)">×</text><text fill="#FFFFFF" font-family="Cambria Math,Cambria Math_MSFontService,sans-serif" font-weight="400" font-size="24" transform="translate(607.641 348)">𝛼</text><text fill="#FFFFFF" font-family="Cambria Math,Cambria Math_MSFontService,sans-serif" font-weight="400" font-size="24" transform="translate(585.694 382)">𝛽</text><text fill="#FFFFFF" font-family="Cambria Math,Cambria Math_MSFontService,sans-serif" font-weight="400" font-size="24" transform="translate(606.254 382)">−</text><text fill="#FFFFFF" font-family="Cambria Math,Cambria Math_MSFontService,sans-serif" font-weight="400" font-size="24" transform="translate(629.588 382)">𝛼</text><path d="M585.808 358.117 644.808 358.117 644.808 360.117 585.808 360.117Z" fill="#FFFFFF" fill-rule="evenodd"/><text fill="#FFFFFF" font-family="Cambria Math,Cambria Math_MSFontService,sans-serif" font-weight="400" font-size="24" transform="translate(646.648 366)"></text><text fill="#FFFFFF" font-family="Cambria Math,Cambria Math_MSFontService,sans-serif" font-weight="400" font-size="24" transform="translate(653.981 366)">𝑒</text><text fill="#FFFFFF" font-family="Cambria Math,Cambria Math_MSFontService,sans-serif" font-weight="400" font-size="18" transform="translate(667.101 357)">−</text><text fill="#FFFFFF" font-family="Cambria Math,Cambria Math_MSFontService,sans-serif" font-weight="400" font-size="18" transform="translate(679.768 357)">𝛼𝑡</text><path d="M845.276 344.772C847.713 345.412 849.592 347.073 850.912 349.752 852.233 352.432 852.893 355.604 852.893 359.268 852.893 362.932 852.233 366.104 850.912 368.783 849.592 371.463 847.713 373.123 845.276 373.764L844.983 372.803C846.873 372.092 848.305 370.543 849.278 368.156 850.25 365.77 850.737 362.811 850.737 359.28 850.737 355.74 850.25 352.776 849.278 350.385 848.305 347.994 846.873 346.444 844.983 345.733ZM710.288 344.772 710.581 345.733C708.69 346.444 707.258 347.994 706.286 350.385 705.313 352.776 704.827 355.74 704.827 359.28 704.827 362.811 705.313 365.77 706.286 368.156 707.258 370.543 708.69 372.092 710.581 372.803L710.288 373.764C707.85 373.123 705.971 371.463 704.651 368.783 703.331 366.104 702.67 362.932 702.67 359.268 702.67 355.604 703.331 352.432 704.651 349.752 705.971 347.073 707.85 345.412 710.288 344.772Z" fill="#FFFFFF" fill-rule="evenodd"/><text fill="#FFFFFF" font-family="Cambria Math,Cambria Math_MSFontService,sans-serif" font-weight="400" font-size="24" transform="translate(711.341 366)">1</text><text fill="#FFFFFF" font-family="Cambria Math,Cambria Math_MSFontService,sans-serif" font-weight="400" font-size="24" transform="translate(730.008 366)">−</text><text fill="#FFFFFF" font-family="Cambria Math,Cambria Math_MSFontService,sans-serif" font-weight="400" font-size="24" transform="translate(753.341 366)">𝑒</text><text fill="#FFFFFF" font-family="Cambria Math,Cambria Math_MSFontService,sans-serif" font-weight="400" font-size="18" transform="translate(766.461 357)">−</text><path d="M824.359 343.89C826.07 344.341 827.384 345.315 828.301 346.812 829.218 348.309 829.676 350.115 829.676 352.231 829.676 354.352 829.219 356.158 828.305 357.649 827.391 359.14 826.076 360.111 824.359 360.563L824.148 359.886C825.502 359.435 826.508 358.544 827.167 357.214 827.826 355.884 828.156 354.193 828.156 352.143 828.156 350.162 827.828 348.517 827.172 347.208 826.515 345.898 825.499 345.018 824.122 344.567ZM786.027 343.89 786.264 344.567C784.893 345.018 783.878 345.898 783.219 347.208 782.56 348.517 782.23 350.162 782.23 352.143 782.23 354.193 782.56 355.884 783.219 357.214 783.878 358.544 784.885 359.435 786.238 359.886L786.027 360.563C784.31 360.111 782.995 359.14 782.081 357.649 781.167 356.158 780.71 354.352 780.71 352.231 780.71 350.115 781.168 348.309 782.085 346.812 783.002 345.315 784.316 344.341 786.027 343.89Z" fill="#FFFFFF" fill-rule="evenodd"/><text fill="#FFFFFF" font-family="Cambria Math,Cambria Math_MSFontService,sans-serif" font-weight="400" font-size="18" transform="translate(786.401 357)">𝛽</text><text fill="#FFFFFF" font-family="Cambria Math,Cambria Math_MSFontService,sans-serif" font-weight="400" font-size="18" transform="translate(798.928 357)">−</text><text fill="#FFFFFF" font-family="Cambria Math,Cambria Math_MSFontService,sans-serif" font-weight="400" font-size="18" transform="translate(811.594 357)">𝛼</text><text fill="#FFFFFF" font-family="Cambria Math,Cambria Math_MSFontService,sans-serif" font-weight="400" font-size="18" transform="translate(831.061 357)">t</text><text fill="#FFFFFF" font-family="Cambria Math,Cambria Math_MSFontService,sans-serif" font-weight="400" font-size="24" transform="translate(838.888 366)"></text><text fill="#FFFFFF" font-family="Cambria Math,Cambria Math_MSFontService,sans-serif" font-weight="400" font-size="24" transform="translate(855.001 366)"></text><text fill="#FFFFFF" font-family="Cambria Math,Cambria Math_MSFontService,sans-serif" font-weight="400" font-size="24" transform="translate(860.334 366)"></text><text fill="#FFFFFF" font-family="Cambria Math,Cambria Math_MSFontService,sans-serif" font-weight="400" font-size="24" transform="translate(865.668 366)">(</text><text fill="#FFFFFF" font-family="Cambria Math,Cambria Math_MSFontService,sans-serif" font-weight="400" font-size="24" transform="translate(875.668 366)">1𝐵</text><text fill="#FFFFFF" font-family="Cambria Math,Cambria Math_MSFontService,sans-serif" font-weight="400" font-size="24" transform="translate(905.481 366)">)</text><text fill="#FFFFFF" font-family="Cambria Math,Cambria Math_MSFontService,sans-serif" font-weight="400" font-size="24" transform="translate(366.228 410)"></text><text fill="#FFFFFF" font-family="Cambria Math,Cambria Math_MSFontService,sans-serif" font-weight="400" font-size="24" transform="translate(371.561 410)"></text><text fill="#FFFFFF" font-family="Cambria Math,Cambria Math_MSFontService,sans-serif" font-weight="400" font-size="24" transform="translate(376.894 410)"></text><text fill="#FFFFFF" font-family="Cambria Math,Cambria Math_MSFontService,sans-serif" font-weight="400" font-size="24" transform="translate(382.228 410)"></text><text fill="#FFFFFF" font-family="Cambria Math,Cambria Math_MSFontService,sans-serif" font-weight="400" font-size="24" transform="translate(387.561 410)"></text><text fill="#FFFFFF" font-family="Cambria Math,Cambria Math_MSFontService,sans-serif" font-weight="400" font-size="24" transform="translate(392.894 410)"></text><text fill="#FFFFFF" font-family="Cambria Math,Cambria Math_MSFontService,sans-serif" font-weight="400" font-size="24" transform="translate(398.228 410)">𝑙𝑜𝑔</text><text fill="#FFFFFF" font-family="Cambria Math,Cambria Math_MSFontService,sans-serif" font-weight="400" font-size="18" transform="translate(431.854 415)">10</text><text fill="#FFFFFF" font-family="Cambria Math,Cambria Math_MSFontService,sans-serif" font-weight="400" font-size="24" transform="translate(453.181 410)">(</text><text fill="#FFFFFF" font-family="Cambria Math,Cambria Math_MSFontService,sans-serif" font-weight="400" font-size="24" transform="translate(463.181 410)">𝐴</text><text fill="#FFFFFF" font-family="Cambria Math,Cambria Math_MSFontService,sans-serif" font-weight="400" font-size="18" transform="translate(478.348 415)">𝑖</text><text fill="#FFFFFF" font-family="Cambria Math,Cambria Math_MSFontService,sans-serif" font-weight="400" font-size="24" transform="translate(486.108 410)">)</text><text fill="#FFFFFF" font-family="Cambria Math,Cambria Math_MSFontService,sans-serif" font-weight="400" font-size="24" transform="translate(496.108 410)"></text><text fill="#FFFFFF" font-family="Cambria Math,Cambria Math_MSFontService,sans-serif" font-weight="400" font-size="24" transform="translate(501.441 410)"></text><text fill="#FFFFFF" font-family="Cambria Math,Cambria Math_MSFontService,sans-serif" font-weight="400" font-size="24" transform="translate(506.774 410)">~</text><text fill="#FFFFFF" font-family="Cambria Math,Cambria Math_MSFontService,sans-serif" font-weight="400" font-size="24" transform="translate(523.941 410)"></text><text fill="#FFFFFF" font-family="Cambria Math,Cambria Math_MSFontService,sans-serif" font-weight="400" font-size="24" transform="translate(529.274 410)"></text><text fill="#FFFFFF" font-family="Cambria Math,Cambria Math_MSFontService,sans-serif" font-weight="400" font-size="24" transform="translate(534.608 410)">𝑁</text><path d="M612.796 392.15C615.077 392.751 616.829 394.05 618.052 396.046 619.275 398.042 619.886 400.451 619.886 403.271 619.886 406.099 619.277 408.507 618.058 410.495 616.839 412.484 615.085 413.779 612.796 414.38L612.515 413.478C614.32 412.876 615.661 411.689 616.54 409.915 617.419 408.142 617.859 405.888 617.859 403.154 617.859 400.513 617.421 398.32 616.546 396.574 615.671 394.827 614.316 393.654 612.48 393.052ZM561.894 392.15 562.21 393.052C560.382 393.654 559.028 394.827 558.149 396.574 557.271 398.32 556.831 400.513 556.831 403.154 556.831 405.888 557.271 408.142 558.149 409.915 559.028 411.689 560.37 412.876 562.175 413.478L561.894 414.38C559.604 413.779 557.851 412.484 556.632 410.495 555.413 408.507 554.804 406.099 554.804 403.271 554.804 400.451 555.415 398.042 556.638 396.046 557.86 394.05 559.612 392.751 561.894 392.15Z" fill="#FFFFFF" fill-rule="evenodd"/><text fill="#FFFFFF" font-family="Cambria Math,Cambria Math_MSFontService,sans-serif" font-weight="400" font-size="24" transform="translate(562.654 410)">𝜇</text><text fill="#FFFFFF" font-family="Cambria Math,Cambria Math_MSFontService,sans-serif" font-weight="400" font-size="24" transform="translate(576.468 410)">,</text><text fill="#FFFFFF" font-family="Cambria Math,Cambria Math_MSFontService,sans-serif" font-weight="400" font-size="24" transform="translate(585.468 410)">𝜎</text><text fill="#FFFFFF" font-family="Cambria Math,Cambria Math_MSFontService,sans-serif" font-weight="400" font-size="18" transform="translate(597.828 415)">𝑣</text><text fill="#FFFFFF" font-family="Cambria Math,Cambria Math_MSFontService,sans-serif" font-weight="400" font-size="18" transform="translate(600.874 401)">2</text><text fill="#FFFFFF" font-family="Cambria Math,Cambria Math_MSFontService,sans-serif" font-weight="400" font-size="24" transform="translate(621.994 410)"></text><text fill="#FFFFFF" font-family="Cambria Math,Cambria Math_MSFontService,sans-serif" font-weight="400" font-size="24" transform="translate(627.328 410)"></text><text fill="#FFFFFF" font-family="Cambria Math,Cambria Math_MSFontService,sans-serif" font-weight="400" font-size="24" transform="translate(632.661 410)"></text><text fill="#FFFFFF" font-family="Cambria Math,Cambria Math_MSFontService,sans-serif" font-weight="400" font-size="24" transform="translate(637.994 410)"></text><text fill="#FFFFFF" font-family="Cambria Math,Cambria Math_MSFontService,sans-serif" font-weight="400" font-size="24" transform="translate(643.328 410)"></text><text fill="#FFFFFF" font-family="Cambria Math,Cambria Math_MSFontService,sans-serif" font-weight="400" font-size="24" transform="translate(648.661 410)"></text><text fill="#FFFFFF" font-family="Cambria Math,Cambria Math_MSFontService,sans-serif" font-weight="400" font-size="24" transform="translate(653.994 410)"></text><text fill="#FFFFFF" font-family="Cambria Math,Cambria Math_MSFontService,sans-serif" font-weight="400" font-size="24" transform="translate(659.328 410)"></text><text fill="#FFFFFF" font-family="Cambria Math,Cambria Math_MSFontService,sans-serif" font-weight="400" font-size="24" transform="translate(664.661 410)"></text><text fill="#FFFFFF" font-family="Cambria Math,Cambria Math_MSFontService,sans-serif" font-weight="400" font-size="24" transform="translate(669.994 410)"></text><text fill="#FFFFFF" font-family="Cambria Math,Cambria Math_MSFontService,sans-serif" font-weight="400" font-size="24" transform="translate(675.328 410)"></text><text fill="#FFFFFF" font-family="Cambria Math,Cambria Math_MSFontService,sans-serif" font-weight="400" font-size="24" transform="translate(680.661 410)"></text><text fill="#FFFFFF" font-family="Cambria Math,Cambria Math_MSFontService,sans-serif" font-weight="400" font-size="24" transform="translate(685.994 410)"></text><text fill="#FFFFFF" font-family="Cambria Math,Cambria Math_MSFontService,sans-serif" font-weight="400" font-size="24" transform="translate(691.328 410)"></text><text fill="#FFFFFF" font-family="Cambria Math,Cambria Math_MSFontService,sans-serif" font-weight="400" font-size="24" transform="translate(696.661 410)"></text><text fill="#FFFFFF" font-family="Cambria Math,Cambria Math_MSFontService,sans-serif" font-weight="400" font-size="24" transform="translate(701.994 410)"></text><text fill="#FFFFFF" font-family="Cambria Math,Cambria Math_MSFontService,sans-serif" font-weight="400" font-size="24" transform="translate(707.328 410)"></text><text fill="#FFFFFF" font-family="Cambria Math,Cambria Math_MSFontService,sans-serif" font-weight="400" font-size="24" transform="translate(712.661 410)"></text><text fill="#FFFFFF" font-family="Cambria Math,Cambria Math_MSFontService,sans-serif" font-weight="400" font-size="24" transform="translate(717.994 410)"></text><text fill="#FFFFFF" font-family="Cambria Math,Cambria Math_MSFontService,sans-serif" font-weight="400" font-size="24" transform="translate(723.328 410)"></text><text fill="#FFFFFF" font-family="Cambria Math,Cambria Math_MSFontService,sans-serif" font-weight="400" font-size="24" transform="translate(728.661 410)"></text><text fill="#FFFFFF" font-family="Cambria Math,Cambria Math_MSFontService,sans-serif" font-weight="400" font-size="24" transform="translate(733.994 410)"></text><text fill="#FFFFFF" font-family="Cambria Math,Cambria Math_MSFontService,sans-serif" font-weight="400" font-size="24" transform="translate(739.328 410)"></text><text fill="#FFFFFF" font-family="Cambria Math,Cambria Math_MSFontService,sans-serif" font-weight="400" font-size="24" transform="translate(744.661 410)"></text><text fill="#FFFFFF" font-family="Cambria Math,Cambria Math_MSFontService,sans-serif" font-weight="400" font-size="24" transform="translate(749.994 410)"></text><text fill="#FFFFFF" font-family="Cambria Math,Cambria Math_MSFontService,sans-serif" font-weight="400" font-size="24" transform="translate(755.328 410)"></text><text fill="#FFFFFF" font-family="Cambria Math,Cambria Math_MSFontService,sans-serif" font-weight="400" font-size="24" transform="translate(760.661 410)"></text><text fill="#FFFFFF" font-family="Cambria Math,Cambria Math_MSFontService,sans-serif" font-weight="400" font-size="24" transform="translate(765.994 410)"></text><text fill="#FFFFFF" font-family="Cambria Math,Cambria Math_MSFontService,sans-serif" font-weight="400" font-size="24" transform="translate(771.328 410)"></text><text fill="#FFFFFF" font-family="Cambria Math,Cambria Math_MSFontService,sans-serif" font-weight="400" font-size="24" transform="translate(776.661 410)"></text><text fill="#FFFFFF" font-family="Cambria Math,Cambria Math_MSFontService,sans-serif" font-weight="400" font-size="24" transform="translate(781.994 410)"></text><text fill="#FFFFFF" font-family="Cambria Math,Cambria Math_MSFontService,sans-serif" font-weight="400" font-size="24" transform="translate(787.328 410)"></text><text fill="#FFFFFF" font-family="Cambria Math,Cambria Math_MSFontService,sans-serif" font-weight="400" font-size="24" transform="translate(792.661 410)"></text><text fill="#FFFFFF" font-family="Cambria Math,Cambria Math_MSFontService,sans-serif" font-weight="400" font-size="24" transform="translate(797.994 410)"></text><text fill="#FFFFFF" font-family="Cambria Math,Cambria Math_MSFontService,sans-serif" font-weight="400" font-size="24" transform="translate(803.328 410)"></text><text fill="#FFFFFF" font-family="Cambria Math,Cambria Math_MSFontService,sans-serif" font-weight="400" font-size="24" transform="translate(808.661 410)"></text><text fill="#FFFFFF" font-family="Cambria Math,Cambria Math_MSFontService,sans-serif" font-weight="400" font-size="24" transform="translate(813.994 410)"></text><text fill="#FFFFFF" font-family="Cambria Math,Cambria Math_MSFontService,sans-serif" font-weight="400" font-size="24" transform="translate(819.328 410)"></text><text fill="#FFFFFF" font-family="Cambria Math,Cambria Math_MSFontService,sans-serif" font-weight="400" font-size="24" transform="translate(824.661 410)"></text><text fill="#FFFFFF" font-family="Cambria Math,Cambria Math_MSFontService,sans-serif" font-weight="400" font-size="24" transform="translate(829.994 410)"></text><text fill="#FFFFFF" font-family="Cambria Math,Cambria Math_MSFontService,sans-serif" font-weight="400" font-size="24" transform="translate(835.328 410)"></text><text fill="#FFFFFF" font-family="Cambria Math,Cambria Math_MSFontService,sans-serif" font-weight="400" font-size="24" transform="translate(840.661 410)"></text><text fill="#FFFFFF" font-family="Cambria Math,Cambria Math_MSFontService,sans-serif" font-weight="400" font-size="24" transform="translate(845.994 410)"></text><text fill="#FFFFFF" font-family="Cambria Math,Cambria Math_MSFontService,sans-serif" font-weight="400" font-size="24" transform="translate(851.328 410)"></text><text fill="#FFFFFF" font-family="Cambria Math,Cambria Math_MSFontService,sans-serif" font-weight="400" font-size="24" transform="translate(856.661 410)"></text><text fill="#FFFFFF" font-family="Cambria Math,Cambria Math_MSFontService,sans-serif" font-weight="400" font-size="24" transform="translate(861.994 410)"></text><text fill="#FFFFFF" font-family="Cambria Math,Cambria Math_MSFontService,sans-serif" font-weight="400" font-size="24" transform="translate(867.328 410)">(</text><text fill="#FFFFFF" font-family="Cambria Math,Cambria Math_MSFontService,sans-serif" font-weight="400" font-size="24" transform="translate(877.328 410)">1𝐶</text><text fill="#FFFFFF" font-family="Cambria Math,Cambria Math_MSFontService,sans-serif" font-weight="400" font-size="24" transform="translate(906.048 410)">)</text><rect x="0.500053" y="0.500053" width="321" height="37" stroke="#7F7F7F" stroke-width="1.33333" stroke-miterlimit="8" fill="#D9D9D9"/><text fill="#A6A6A6" font-family="Arial,Arial_MSFontService,sans-serif" font-weight="700" font-size="21" transform="translate(98.3799 27)">Introduction</text><rect x="320.5" y="0.500053" width="321" height="37" stroke="#7F7F7F" stroke-width="1.33333" stroke-miterlimit="8" fill="#4B5E68"/><text fill="#FFFFFF" font-family="Arial,Arial_MSFontService,sans-serif" font-weight="700" font-size="21" transform="translate(376.718 27)">Materials &amp; Methods</text><rect x="639.5" y="0.500053" width="321" height="37" stroke="#7F7F7F" stroke-width="1.33333" stroke-miterlimit="8" fill="#D9D9D9"/><text fill="#A6A6A6" font-family="Arial,Arial_MSFontService,sans-serif" font-weight="700" font-size="21" transform="translate(690.449 27)">Results &amp; Discussion</text><rect x="959.5" y="0.500053" width="321" height="37" stroke="#7F7F7F" stroke-width="1.33333" stroke-miterlimit="8" fill="#D9D9D9"/><text fill="#A6A6A6" font-family="Arial,Arial_MSFontService,sans-serif" font-weight="700" font-size="21" transform="translate(1061.32 27)">Conclusion</text><text fill="#4B5E68" font-family="Arial,Arial_MSFontService,sans-serif" font-weight="700" font-size="37" transform="translate(299.52 98)">Nosocomial infection risk estimation</text><path d="M81.5001 126.5 1177.56 126.5" stroke="#4B5E68" stroke-miterlimit="8" stroke-dasharray="8 3" fill="none" fill-rule="evenodd"/><text fill="#4B5E68" font-family="Cambria Math,Cambria Math_MSFontService,sans-serif" font-weight="400" font-size="27" transform="translate(381.588 614)"></text><text fill="#4B5E68" font-family="Cambria Math,Cambria Math_MSFontService,sans-serif" font-weight="400" font-size="27" transform="translate(387.421 614)"></text><text fill="#4B5E68" font-family="Cambria Math,Cambria Math_MSFontService,sans-serif" font-weight="400" font-size="27" transform="translate(393.255 614)">𝑷</text><text fill="#4B5E68" font-family="Cambria Math,Cambria Math_MSFontService,sans-serif" font-weight="400" font-size="19" transform="translate(411.588 619)">𝒓</text><text fill="#4B5E68" font-family="Cambria Math,Cambria Math_MSFontService,sans-serif" font-weight="400" font-size="19" transform="translate(411.588 604)">𝟕</text><path d="M447.452 593.357C450.018 594.034 451.989 595.495 453.365 597.741 454.74 599.986 455.428 602.696 455.428 605.868 455.428 609.05 454.742 611.759 453.371 613.996 452 616.233 450.027 617.69 447.452 618.367L447.135 617.351C449.166 616.675 450.675 615.339 451.664 613.344 452.653 611.348 453.147 608.813 453.147 605.737 453.147 602.766 452.655 600.298 451.67 598.334 450.686 596.37 449.161 595.049 447.096 594.372ZM434.711 593.357 435.067 594.372C433.01 595.049 431.487 596.37 430.498 598.334 429.51 600.298 429.015 602.766 429.015 605.737 429.015 608.813 429.51 611.348 430.498 613.344 431.487 615.339 432.997 616.675 435.027 617.351L434.711 618.367C432.135 617.69 430.162 616.233 428.791 613.996 427.42 611.759 426.734 609.05 426.734 605.868 426.734 602.696 427.422 599.986 428.798 597.741 430.173 595.495 432.144 594.034 434.711 593.357Z" fill="#4B5E68" fill-rule="evenodd"/><text fill="#4B5E68" font-family="Cambria Math,Cambria Math_MSFontService,sans-serif" font-weight="400" font-size="27" transform="translate(435.428 614)">𝒕</text><text fill="#4B5E68" font-family="Cambria Math,Cambria Math_MSFontService,sans-serif" font-weight="400" font-size="27" transform="translate(461.361 614)"></text><text fill="#4B5E68" font-family="Cambria Math,Cambria Math_MSFontService,sans-serif" font-weight="400" font-size="27" transform="translate(467.195 614)"></text><text fill="#4B5E68" font-family="Cambria Math,Cambria Math_MSFontService,sans-serif" font-weight="400" font-size="27" transform="translate(473.028 614)"></text><text fill="#4B5E68" font-family="Cambria Math,Cambria Math_MSFontService,sans-serif" font-weight="400" font-size="27" transform="translate(482.568 614)">=</text><text fill="#4B5E68" font-family="Cambria Math,Cambria Math_MSFontService,sans-serif" font-weight="400" font-size="27" transform="translate(509.975 614)"></text><text fill="#4B5E68" font-family="Cambria Math,Cambria Math_MSFontService,sans-serif" font-weight="400" font-size="27" transform="translate(515.808 614)">𝟏</text><text fill="#4B5E68" font-family="Cambria Math,Cambria Math_MSFontService,sans-serif" font-weight="400" font-size="27" transform="translate(537.735 614)">−</text><text fill="#4B5E68" font-family="Cambria Math,Cambria Math_MSFontService,sans-serif" font-weight="400" font-size="27" transform="translate(560.695 614)"></text><path d="M701.953 583.575C704.898 585.069 707.238 587.811 708.974 591.801 710.71 595.792 711.577 600.467 711.577 605.829 711.577 611.155 710.71 615.831 708.974 619.856 707.238 623.881 704.898 626.632 701.953 628.109L701.532 627.054C703.887 625.525 705.731 622.897 707.062 619.171 708.394 615.444 709.059 611.005 709.059 605.855 709.059 600.608 708.389 596.141 707.049 592.454 705.709 588.767 703.869 586.159 701.532 584.63ZM581.426 583.575 581.861 584.63C579.523 586.159 577.684 588.767 576.344 592.454 575.003 596.141 574.333 600.608 574.333 605.855 574.333 611.005 574.997 615.444 576.324 619.171 577.651 622.897 579.497 625.525 581.861 627.054L581.426 628.109C578.49 626.632 576.155 623.881 574.419 619.856 572.683 615.831 571.815 611.155 571.815 605.829 571.815 600.467 572.683 595.792 574.419 591.801 576.155 587.811 578.49 585.069 581.426 583.575Z" fill="#4B5E68" fill-rule="evenodd"/><text fill="#4B5E68" font-family="Cambria Math,Cambria Math_MSFontService,sans-serif" font-weight="400" font-size="27" transform="translate(582.568 614)">𝟏</text><text fill="#4B5E68" font-family="Cambria Math,Cambria Math_MSFontService,sans-serif" font-weight="400" font-size="27" transform="translate(604.495 614)">−</text><text fill="#4B5E68" font-family="Cambria Math,Cambria Math_MSFontService,sans-serif" font-weight="400" font-size="27" transform="translate(627.455 614)"></text><text fill="#4B5E68" font-family="Cambria Math,Cambria Math_MSFontService,sans-serif" font-weight="400" font-size="27" transform="translate(636.255 614)">𝑷</text><text fill="#4B5E68" font-family="Cambria Math,Cambria Math_MSFontService,sans-serif" font-weight="400" font-size="19" transform="translate(654.588 619)">𝒆</text><text fill="#4B5E68" font-family="Cambria Math,Cambria Math_MSFontService,sans-serif" font-weight="400" font-size="19" transform="translate(654.588 604)">𝟕</text><path d="M690.452 593.357C693.018 594.034 694.989 595.495 696.365 597.741 697.74 599.986 698.428 602.696 698.428 605.868 698.428 609.05 697.742 611.759 696.371 613.996 695 616.233 693.027 617.69 690.452 618.367L690.135 617.351C692.166 616.675 693.675 615.339 694.664 613.344 695.653 611.348 696.147 608.813 696.147 605.737 696.147 602.766 695.655 600.298 694.67 598.334 693.686 596.37 692.161 595.049 690.096 594.372ZM677.711 593.357 678.067 594.372C676.01 595.049 674.487 596.37 673.498 598.334 672.51 600.298 672.015 602.766 672.015 605.737 672.015 608.813 672.51 611.348 673.498 613.344 674.487 615.339 675.997 616.675 678.027 617.351L677.711 618.367C675.135 617.69 673.162 616.233 671.791 613.996 670.42 611.759 669.734 609.05 669.734 605.868 669.734 602.696 670.422 599.986 671.798 597.741 673.173 595.495 675.144 594.034 677.711 593.357Z" fill="#4B5E68" fill-rule="evenodd"/><text fill="#4B5E68" font-family="Cambria Math,Cambria Math_MSFontService,sans-serif" font-weight="400" font-size="27" transform="translate(678.428 614)">𝒕</text><text fill="#4B5E68" font-family="Cambria Math,Cambria Math_MSFontService,sans-serif" font-weight="400" font-size="27" transform="translate(716.695 614)"></text><text fill="#4B5E68" font-family="Cambria Math,Cambria Math_MSFontService,sans-serif" font-weight="400" font-size="27" transform="translate(725.495 614)">×</text><text fill="#4B5E68" font-family="Cambria Math,Cambria Math_MSFontService,sans-serif" font-weight="400" font-size="27" transform="translate(747.455 614)"></text><path d="M888.713 583.575C891.658 585.069 893.998 587.811 895.734 591.801 897.47 595.792 898.337 600.467 898.337 605.829 898.337 611.155 897.47 615.831 895.734 619.856 893.998 623.881 891.658 626.632 888.713 628.109L888.292 627.054C890.647 625.525 892.491 622.897 893.822 619.171 895.154 615.444 895.819 611.005 895.819 605.855 895.819 600.608 895.149 596.141 893.809 592.454 892.469 588.767 890.629 586.159 888.292 584.63ZM768.186 583.575 768.621 584.63C766.283 586.159 764.444 588.767 763.104 592.454 761.763 596.141 761.093 600.608 761.093 605.855 761.093 611.005 761.757 615.444 763.084 619.171 764.411 622.897 766.257 625.525 768.621 627.054L768.186 628.109C765.25 626.632 762.915 623.881 761.179 619.856 759.443 615.831 758.575 611.155 758.575 605.829 758.575 600.467 759.443 595.792 761.179 591.801 762.915 587.811 765.25 585.069 768.186 583.575Z" fill="#4B5E68" fill-rule="evenodd"/><text fill="#4B5E68" font-family="Cambria Math,Cambria Math_MSFontService,sans-serif" font-weight="400" font-size="27" transform="translate(769.328 614)">𝟏</text><text fill="#4B5E68" font-family="Cambria Math,Cambria Math_MSFontService,sans-serif" font-weight="400" font-size="27" transform="translate(791.255 614)">−</text><text fill="#4B5E68" font-family="Cambria Math,Cambria Math_MSFontService,sans-serif" font-weight="400" font-size="27" transform="translate(814.215 614)"></text><text fill="#4B5E68" font-family="Cambria Math,Cambria Math_MSFontService,sans-serif" font-weight="400" font-size="27" transform="translate(823.015 614)">𝑷</text><text fill="#4B5E68" font-family="Cambria Math,Cambria Math_MSFontService,sans-serif" font-weight="400" font-size="19" transform="translate(841.348 620)">𝒊</text><text fill="#4B5E68" font-family="Cambria Math,Cambria Math_MSFontService,sans-serif" font-weight="400" font-size="19" transform="translate(841.348 603)">𝟕</text><path d="M877.212 593.357C879.778 594.034 881.749 595.495 883.125 597.741 884.5 599.986 885.188 602.696 885.188 605.868 885.188 609.05 884.502 611.759 883.131 613.996 881.76 616.233 879.787 617.69 877.212 618.367L876.895 617.351C878.926 616.675 880.435 615.339 881.424 613.344 882.413 611.348 882.907 608.813 882.907 605.737 882.907 602.766 882.415 600.298 881.43 598.334 880.446 596.37 878.921 595.049 876.856 594.372ZM864.471 593.357 864.827 594.372C862.77 595.049 861.247 596.37 860.258 598.334 859.27 600.298 858.775 602.766 858.775 605.737 858.775 608.813 859.27 611.348 860.258 613.344 861.247 615.339 862.757 616.675 864.787 617.351L864.471 618.367C861.895 617.69 859.922 616.233 858.551 613.996 857.18 611.759 856.495 609.05 856.495 605.868 856.495 602.696 857.182 599.986 858.558 597.741 859.933 595.495 861.904 594.034 864.471 593.357Z" fill="#4B5E68" fill-rule="evenodd"/><text fill="#4B5E68" font-family="Cambria Math,Cambria Math_MSFontService,sans-serif" font-weight="400" font-size="27" transform="translate(865.188 614)">𝒕</text><path d="M11.1006-7.72559C11.1006-0.949219 10.1558 4.69556 8.26611 9.20874 6.37646 13.7219 4.16162 16.9717 1.62158 18.958L0.856934 18.0747C3.08057 16.0181 4.91748 12.8188 6.36768 8.47705 7.81787 4.13525 8.54297-1.26123 8.54297-7.7124 8.54297-14.1636 7.81787-19.5601 6.36768-23.9019 4.91748-28.2437 3.08057-31.4429 0.856934-33.4995L1.62158-34.3828C4.16162-32.3965 6.37646-29.1467 8.26611-24.6335 10.1558-20.1204 11.1006-14.4844 11.1006-7.72559Z" fill="#4B5E68" transform="translate(900.495 614)"/><text fill="#000000" fill-opacity="0" font-family="Arial,Arial_MSFontService,sans-serif" font-size="53.3408" x="0.856934" y="12.2904">൰</text><text fill="#4B5E68" font-family="Cambria Math,Cambria Math_MSFontService,sans-serif" font-weight="400" font-size="24" transform="translate(293.631 475)">1</text><text fill="#4B5E68" font-family="Cambria Math,Cambria Math_MSFontService,sans-serif" font-weight="400" font-size="24" transform="translate(312.297 475)">−</text><text fill="#4B5E68" font-family="Cambria Math,Cambria Math_MSFontService,sans-serif" font-weight="400" font-size="24" transform="translate(332.964 475)"></text><text fill="#4B5E68" font-family="Cambria Math,Cambria Math_MSFontService,sans-serif" font-weight="400" font-size="24" transform="translate(340.964 475)">𝑃</text><text fill="#4B5E68" font-family="Cambria Math,Cambria Math_MSFontService,sans-serif" font-weight="400" font-size="18" transform="translate(351.111 480)">𝑒</text><text fill="#4B5E68" font-family="Cambria Math,Cambria Math_MSFontService,sans-serif" font-weight="400" font-size="18" transform="translate(356.384 466)">7</text><path d="M388.353 457.163C390.634 457.765 392.386 459.064 393.608 461.06 394.831 463.056 395.442 465.464 395.442 468.285 395.442 471.113 394.833 473.521 393.614 475.509 392.396 477.497 390.642 478.792 388.353 479.394L388.071 478.492C389.876 477.89 391.218 476.703 392.097 474.929 392.976 473.156 393.415 470.902 393.415 468.167 393.415 465.527 392.978 463.333 392.103 461.587 391.228 459.841 389.872 458.667 388.036 458.066ZM376.743 457.163 377.06 458.066C375.232 458.667 373.878 459.841 372.999 461.587 372.12 463.333 371.681 465.527 371.681 468.167 371.681 470.902 372.12 473.156 372.999 474.929 373.878 476.703 375.22 477.89 377.025 478.492L376.743 479.394C374.454 478.792 372.7 477.497 371.482 475.509 370.263 473.521 369.654 471.113 369.654 468.285 369.654 465.464 370.265 463.056 371.487 461.06 372.71 459.064 374.462 457.765 376.743 457.163Z" fill="#4B5E68" fill-rule="evenodd"/><text fill="#4B5E68" font-family="Cambria Math,Cambria Math_MSFontService,sans-serif" font-weight="400" font-size="24" transform="translate(377.504 475)">𝑡</text><text fill="#4B5E68" font-family="Cambria Math,Cambria Math_MSFontService,sans-serif" font-weight="400" font-size="24" transform="translate(404.217 475)">=</text><path d="M34.957-29.7656 34.957-28.8398C33.9414-28.6211 33.1504-28.2461 32.584-27.7148 32.0176-27.1836 31.7344-25.8555 31.7344-23.7305L31.7344 9.76172C31.7344 11.9336 31.9746 13.3047 32.4551 13.875 32.9355 14.4453 33.7773 14.8555 34.9805 15.1055L34.9805 16.0547 25.5469 16.0547 25.5469 15.1055C26.7734 14.8555 27.6191 14.4473 28.084 13.8809 28.5488 13.3145 28.7812 11.9453 28.7812 9.77344L28.7812-28.1953 7.39453-28.1953 7.39453 9.76172C7.39453 11.9336 7.63672 13.3047 8.12109 13.875 8.60547 14.4453 9.45703 14.8555 10.6758 15.1055L10.6758 16.0547 1.23047 16.0547 1.23047 15.1055C2.44922 14.8555 3.28906 14.4473 3.75 13.8809 4.21094 13.3145 4.44141 11.9453 4.44141 9.77344L4.44141-23.7773C4.44141-25.8711 4.17773-27.1758 3.65039-27.6914 3.12305-28.207 2.31641-28.5898 1.23047-28.8398L1.23047-29.7656Z" fill="#4B5E68" transform="translate(428.884 475)"/><text fill="#000000" fill-opacity="0" font-family="Arial,Arial_MSFontService,sans-serif" font-size="45.8203" x="1.23047" y="10.3271">ෑ</text><text fill="#4B5E68" font-family="Cambria Math,Cambria Math_MSFontService,sans-serif" font-weight="400" font-size="24" transform="translate(469.097 475)">𝑞</text><path d="M543.812 457.163C546.094 457.765 547.846 459.064 549.068 461.06 550.291 463.056 550.902 465.464 550.902 468.285 550.902 471.113 550.293 473.521 549.074 475.509 547.855 477.497 546.102 478.792 543.812 479.394L543.531 478.492C545.336 477.89 546.678 476.703 547.557 474.929 548.436 473.156 548.875 470.902 548.875 468.167 548.875 465.527 548.438 463.333 547.562 461.587 546.688 459.841 545.332 458.667 543.496 458.066ZM492.023 457.163 492.34 458.066C490.512 458.667 489.158 459.841 488.279 461.587 487.4 463.333 486.961 465.527 486.961 468.167 486.961 470.902 487.4 473.156 488.279 474.929 489.158 476.703 490.5 477.89 492.305 478.492L492.023 479.394C489.734 478.792 487.98 477.497 486.762 475.509 485.543 473.521 484.934 471.113 484.934 468.285 484.934 465.464 485.545 463.056 486.768 461.06 487.99 459.064 489.742 457.765 492.023 457.163Z" fill="#4B5E68" fill-rule="evenodd"/><text fill="#4B5E68" font-family="Cambria Math,Cambria Math_MSFontService,sans-serif" font-weight="400" font-size="24" transform="translate(492.784 475)">𝑡</text><text fill="#4B5E68" font-family="Cambria Math,Cambria Math_MSFontService,sans-serif" font-weight="400" font-size="24" transform="translate(508.204 475)">+</text><text fill="#4B5E68" font-family="Cambria Math,Cambria Math_MSFontService,sans-serif" font-weight="400" font-size="24" transform="translate(531.537 475)">𝜏</text><text fill="#4B5E68" font-family="Cambria Math,Cambria Math_MSFontService,sans-serif" font-weight="400" font-size="18" transform="translate(553.011 466)">𝐼</text><text fill="#4B5E68" font-family="Cambria Math,Cambria Math_MSFontService,sans-serif" font-weight="400" font-size="14" transform="translate(559.844 470)">ℎ</text><path d="M608.089 452.904C609.8 453.355 611.114 454.329 612.031 455.826 612.948 457.323 613.406 459.129 613.406 461.244 613.406 463.365 612.949 465.172 612.035 466.663 611.121 468.154 609.806 469.125 608.089 469.576L607.878 468.9C609.231 468.448 610.238 467.558 610.897 466.228 611.556 464.898 611.886 463.207 611.886 461.156 611.886 459.176 611.557 457.531 610.901 456.221 610.245 454.912 609.228 454.031 607.851 453.58ZM577.137 452.904 577.374 453.58C576.003 454.031 574.988 454.912 574.329 456.221 573.67 457.531 573.34 459.176 573.34 461.156 573.34 463.207 573.67 464.898 574.329 466.228 574.988 467.558 575.994 468.448 577.348 468.9L577.137 469.576C575.42 469.125 574.105 468.154 573.191 466.663 572.277 465.172 571.82 463.365 571.82 461.244 571.82 459.129 572.278 457.323 573.195 455.826 574.112 454.329 575.426 453.355 577.137 452.904Z" fill="#4B5E68" fill-rule="evenodd"/><text fill="#4B5E68" font-family="Cambria Math,Cambria Math_MSFontService,sans-serif" font-weight="400" font-size="18" transform="translate(577.511 466)">𝑡</text><text fill="#4B5E68" font-family="Cambria Math,Cambria Math_MSFontService,sans-serif" font-weight="400" font-size="18" transform="translate(585.644 466)">+</text><text fill="#4B5E68" font-family="Cambria Math,Cambria Math_MSFontService,sans-serif" font-weight="400" font-size="18" transform="translate(598.311 466)">𝜏</text><text fill="#4B5E68" font-family="Cambria Math,Cambria Math_MSFontService,sans-serif" font-weight="400" font-size="18" transform="translate(441.904 440)">6</text><text fill="#4B5E68" font-family="Cambria Math,Cambria Math_MSFontService,sans-serif" font-weight="400" font-size="18" transform="translate(430.971 506)">𝜏</text><text fill="#4B5E68" font-family="Cambria Math,Cambria Math_MSFontService,sans-serif" font-weight="400" font-size="18" transform="translate(440.177 506)">=</text><text fill="#4B5E68" font-family="Cambria Math,Cambria Math_MSFontService,sans-serif" font-weight="400" font-size="18" transform="translate(452.844 506)">0</text><text fill="#4B5E68" font-family="Cambria Math,Cambria Math_MSFontService,sans-serif" font-weight="400" font-size="24" transform="translate(622.451 475)">≈</text><text fill="#4B5E68" font-family="Cambria Math,Cambria Math_MSFontService,sans-serif" font-weight="400" font-size="24" transform="translate(643.451 475)"></text><path d="M34.957-29.7656 34.957-28.8398C33.9414-28.6211 33.1504-28.2461 32.584-27.7148 32.0176-27.1836 31.7344-25.8555 31.7344-23.7305L31.7344 9.76172C31.7344 11.9336 31.9746 13.3047 32.4551 13.875 32.9355 14.4453 33.7773 14.8555 34.9805 15.1055L34.9805 16.0547 25.5469 16.0547 25.5469 15.1055C26.7734 14.8555 27.6191 14.4473 28.084 13.8809 28.5488 13.3145 28.7812 11.9453 28.7812 9.77344L28.7812-28.1953 7.39453-28.1953 7.39453 9.76172C7.39453 11.9336 7.63672 13.3047 8.12109 13.875 8.60547 14.4453 9.45703 14.8555 10.6758 15.1055L10.6758 16.0547 1.23047 16.0547 1.23047 15.1055C2.44922 14.8555 3.28906 14.4473 3.75 13.8809 4.21094 13.3145 4.44141 11.9453 4.44141 9.77344L4.44141-23.7773C4.44141-25.8711 4.17773-27.1758 3.65039-27.6914 3.12305-28.207 2.31641-28.5898 1.23047-28.8398L1.23047-29.7656Z" fill="#4B5E68" transform="translate(652.117 475)"/><text fill="#000000" fill-opacity="0" font-family="Arial,Arial_MSFontService,sans-serif" font-size="45.8203" x="1.23047" y="10.3271">ෑ</text><text fill="#4B5E68" font-family="Cambria Math,Cambria Math_MSFontService,sans-serif" font-weight="400" font-size="24" transform="translate(692.331 475)">𝑞</text><path d="M767.046 457.163C769.327 457.765 771.079 459.064 772.302 461.06 773.524 463.056 774.136 465.464 774.136 468.285 774.136 471.113 773.526 473.521 772.308 475.509 771.089 477.497 769.335 478.792 767.046 479.394L766.765 478.492C768.569 477.89 769.911 476.703 770.79 474.929 771.669 473.156 772.108 470.902 772.108 468.167 772.108 465.527 771.671 463.333 770.796 461.587 769.921 459.841 768.565 458.667 766.729 458.066ZM715.257 457.163 715.573 458.066C713.745 458.667 712.391 459.841 711.513 461.587 710.634 463.333 710.194 465.527 710.194 468.167 710.194 470.902 710.634 473.156 711.513 474.929 712.391 476.703 713.733 477.89 715.538 478.492L715.257 479.394C712.968 478.792 711.214 477.497 709.995 475.509 708.776 473.521 708.167 471.113 708.167 468.285 708.167 465.464 708.778 463.056 710.001 461.06 711.224 459.064 712.975 457.765 715.257 457.163Z" fill="#4B5E68" fill-rule="evenodd"/><text fill="#4B5E68" font-family="Cambria Math,Cambria Math_MSFontService,sans-serif" font-weight="400" font-size="24" transform="translate(716.018 475)">𝑡</text><text fill="#4B5E68" font-family="Cambria Math,Cambria Math_MSFontService,sans-serif" font-weight="400" font-size="24" transform="translate(731.438 475)">−</text><text fill="#4B5E68" font-family="Cambria Math,Cambria Math_MSFontService,sans-serif" font-weight="400" font-size="24" transform="translate(754.771 475)">𝜏</text><text fill="#4B5E68" font-family="Cambria Math,Cambria Math_MSFontService,sans-serif" font-weight="400" font-size="18" transform="translate(776.244 466)">𝐼</text><text fill="#4B5E68" font-family="Cambria Math,Cambria Math_MSFontService,sans-serif" font-weight="400" font-size="14" transform="translate(783.078 470)">ℎ</text><path d="M831.322 452.904C833.033 453.355 834.347 454.329 835.264 455.826 836.181 457.323 836.639 459.129 836.639 461.244 836.639 463.365 836.182 465.172 835.268 466.663 834.354 468.154 833.039 469.125 831.322 469.576L831.111 468.9C832.465 468.448 833.471 467.558 834.13 466.228 834.789 464.898 835.119 463.207 835.119 461.156 835.119 459.176 834.791 457.531 834.135 456.221 833.478 454.912 832.462 454.031 831.085 453.58ZM800.37 452.904 800.608 453.58C799.236 454.031 798.221 454.912 797.562 456.221 796.903 457.531 796.573 459.176 796.573 461.156 796.573 463.207 796.903 464.898 797.562 466.228 798.221 467.558 799.228 468.448 800.581 468.9L800.37 469.576C798.653 469.125 797.338 468.154 796.424 466.663 795.51 465.172 795.053 463.365 795.053 461.244 795.053 459.129 795.511 457.323 796.428 455.826 797.345 454.329 798.659 453.355 800.37 452.904Z" fill="#4B5E68" fill-rule="evenodd"/><text fill="#4B5E68" font-family="Cambria Math,Cambria Math_MSFontService,sans-serif" font-weight="400" font-size="18" transform="translate(800.744 466)">𝑡</text><text fill="#4B5E68" font-family="Cambria Math,Cambria Math_MSFontService,sans-serif" font-weight="400" font-size="18" transform="translate(808.878 466)">−</text><text fill="#4B5E68" font-family="Cambria Math,Cambria Math_MSFontService,sans-serif" font-weight="400" font-size="18" transform="translate(821.544 466)">𝜏</text><text fill="#4B5E68" font-family="Cambria Math,Cambria Math_MSFontService,sans-serif" font-weight="400" font-size="18" transform="translate(665.138 440)">6</text><text fill="#4B5E68" font-family="Cambria Math,Cambria Math_MSFontService,sans-serif" font-weight="400" font-size="18" transform="translate(654.204 506)">𝜏</text><text fill="#4B5E68" font-family="Cambria Math,Cambria Math_MSFontService,sans-serif" font-weight="400" font-size="18" transform="translate(663.411 506)">=</text><text fill="#4B5E68" font-family="Cambria Math,Cambria Math_MSFontService,sans-serif" font-weight="400" font-size="18" transform="translate(676.078 506)">0</text><text fill="#4B5E68" font-family="Wingdings,Wingdings_MSFontService,sans-serif" font-weight="400" font-size="24" transform="translate(90.4726 547)"></text><text fill="#4B5E68" font-family="Arial,Arial_MSFontService,sans-serif" font-weight="700" font-size="24" transform="translate(120.473 547)">Overall probability</text><text fill="#4B5E68" font-family="Arial,Arial_MSFontService,sans-serif" font-weight="400" font-size="24" transform="translate(337.806 547)">of at least one nosocomial transmission over the next week</text><text fill="#4B5E68" font-family="Arial,Arial_MSFontService,sans-serif" font-weight="400" font-size="24" transform="translate(564.334 662)">Associated</text><text fill="#4B5E68" font-family="Arial,Arial_MSFontService,sans-serif" font-weight="400" font-size="24" transform="translate(688.334 662)">with</text><text fill="#4B5E68" font-family="Arial,Arial_MSFontService,sans-serif" font-weight="400" font-size="24" transform="translate(565.667 691)">external source</text><path d="M595.5 634.5 691.5 634.5" stroke="#5F696E" stroke-width="3" stroke-miterlimit="8" fill="none" fill-rule="evenodd"/><text fill="#4B5E68" font-family="Arial,Arial_MSFontService,sans-serif" font-weight="400" font-size="24" transform="translate(766.827 662)">Associated</text><text fill="#4B5E68" font-family="Arial,Arial_MSFontService,sans-serif" font-weight="400" font-size="24" transform="translate(890.827 662)">wit</text><text fill="#4B5E68" font-family="Arial,Arial_MSFontService,sans-serif" font-weight="400" font-size="24" transform="translate(920.16 662)">h</text><text fill="#4B5E68" font-family="Arial,Arial_MSFontService,sans-serif" font-weight="400" font-size="24" transform="translate(771.494 691)">internal source</text><path d="M787.5 634.5 883.5 634.5" stroke="#5F696E" stroke-width="3" stroke-miterlimit="8" fill="none" fill-rule="evenodd"/><path d="M290.693 302.723 291.418 302.723C291.365 303.567 291.339 304.736 291.339 306.23L291.339 317.489C291.339 317.999 291.368 318.383 291.425 318.643 291.482 318.902 291.583 319.113 291.728 319.275 291.873 319.438 292.082 319.565 292.354 319.658 292.627 319.75 292.969 319.82 293.383 319.869 293.796 319.917 294.341 319.95 295.017 319.968L295.017 320.93 285.275 320.93 285.275 319.968C286.25 319.924 286.947 319.864 287.364 319.79 287.782 319.715 288.1 319.603 288.32 319.453 288.54 319.304 288.7 319.093 288.801 318.821 288.902 318.548 288.953 318.104 288.953 317.489L288.953 306.797C288.953 306.446 288.891 306.189 288.768 306.026 288.645 305.863 288.465 305.782 288.228 305.782 287.947 305.782 287.547 305.927 287.028 306.217 286.509 306.507 285.868 306.907 285.103 307.417L284.523 306.402Z" fill="#4B5E68" fill-rule="evenodd"/><text fill="#000000" fill-opacity="0" font-family="Arial,Arial_MSFontService,sans-serif" font-size="18.2065" x="284.523" y="318.654">1</text><path d="M304.901 312.334 321.143 312.334 321.143 314.088 304.901 314.088Z" fill="#4B5E68" fill-rule="evenodd"/><text fill="#000000" fill-opacity="0" font-family="Arial,Arial_MSFontService,sans-serif" font-size="1.75342" x="304.901" y="313.868">−</text><path d="M344.426 304.095C343.881 304.095 343.31 304.108 342.712 304.134L340.919 312.123 342.29 312.123C343.354 312.123 344.213 312.013 344.868 311.794 345.522 311.574 346.059 311.233 346.476 310.772 346.893 310.311 347.216 309.763 347.445 309.131 347.674 308.498 347.788 307.803 347.788 307.048 347.788 306.028 347.529 305.281 347.01 304.806 346.491 304.332 345.63 304.095 344.426 304.095ZM338.902 302.934 344.716 302.934C345.762 302.934 346.621 303.016 347.293 303.178 347.966 303.341 348.519 303.591 348.955 303.93 349.39 304.268 349.715 304.697 349.93 305.215 350.145 305.734 350.253 306.336 350.253 307.021 350.253 308.34 349.941 309.482 349.317 310.449 348.693 311.416 347.847 312.128 346.779 312.585 345.711 313.042 344.43 313.27 342.936 313.27 342.04 313.27 341.293 313.253 340.695 313.218L339.851 317.094C339.772 317.454 339.717 317.731 339.686 317.924 339.656 318.117 339.629 318.326 339.607 318.55 339.585 318.774 339.574 318.974 339.574 319.15 339.574 319.423 339.618 319.636 339.706 319.79 339.794 319.943 339.926 320.055 340.102 320.126 340.278 320.196 340.581 320.249 341.011 320.284L340.866 320.93 335.448 320.93 335.593 320.284C335.927 320.231 336.177 320.146 336.344 320.027 336.511 319.908 336.652 319.743 336.766 319.533 336.881 319.322 336.986 319.064 337.083 318.761 337.179 318.458 337.324 317.871 337.518 317.001L339.759 306.85C339.952 305.971 340.049 305.277 340.049 304.767 340.049 304.336 339.948 304.037 339.746 303.87 339.544 303.703 339.214 303.607 338.757 303.58Z" fill="#4B5E68" fill-rule="evenodd"/><text fill="#000000" fill-opacity="0" font-family="Arial,Arial_MSFontService,sans-serif" font-size="17.9956" x="335.448" y="318.681">𝑃</text><path d="M352.783 318.084 353.238 318.084 351.865 324.263C351.778 324.628 351.718 324.918 351.684 325.135 351.65 325.351 351.633 325.546 351.633 325.719 351.633 325.954 351.681 326.124 351.776 326.229 351.872 326.335 352.016 326.387 352.208 326.387 352.319 326.387 352.43 326.366 352.542 326.322 352.653 326.279 352.772 326.211 352.899 326.118 353.026 326.025 353.165 325.906 353.316 325.761 353.468 325.616 353.636 325.441 353.822 325.237L354.453 325.849C354.131 326.177 353.839 326.454 353.576 326.679 353.313 326.905 353.064 327.089 352.829 327.231 352.594 327.374 352.364 327.476 352.138 327.538 351.912 327.599 351.673 327.63 351.419 327.63 351.184 327.63 350.972 327.587 350.784 327.5 350.595 327.414 350.433 327.295 350.297 327.143 350.161 326.992 350.055 326.811 349.981 326.601 349.907 326.39 349.87 326.158 349.87 325.905 349.87 325.701 349.895 325.447 349.944 325.144 349.994 324.841 350.057 324.512 350.134 324.156 350.212 323.8 350.297 323.428 350.389 323.038 350.482 322.648 350.573 322.262 350.663 321.878 350.753 321.495 350.833 321.125 350.904 320.77 350.975 320.414 351.026 320.091 351.057 319.8 351.07 319.751 351.076 319.703 351.076 319.656 351.076 319.61 351.076 319.568 351.076 319.531 351.064 319.29 350.979 319.114 350.821 319.002 350.663 318.891 350.383 318.829 349.981 318.817L350.093 318.186ZM352.245 314.345 354.1 314.345 353.646 316.34 351.809 316.34Z" fill="#4B5E68" fill-rule="evenodd"/><text fill="#000000" fill-opacity="0" font-family="Arial,Arial_MSFontService,sans-serif" font-size="13.2852" x="349.87" y="325.97">𝑖</text><path d="M353.594 298.232 361.665 298.232 361.665 298.677 356.219 310.116 354.8 310.116 354.8 309.699 359.791 299.995 359.791 299.856 355.858 299.856C355.586 299.856 355.374 299.877 355.222 299.921 355.071 299.964 354.936 300.026 354.819 300.106 354.769 300.149 354.726 300.194 354.689 300.241 354.652 300.287 354.614 300.349 354.577 300.426 354.54 300.503 354.502 300.606 354.461 300.732 354.421 300.859 354.373 301.021 354.318 301.219L353.39 301.219Z" fill="#4B5E68" fill-rule="evenodd"/><text fill="#000000" fill-opacity="0" font-family="Arial,Arial_MSFontService,sans-serif" font-size="11.8843" x="353.39" y="308.631">7</text><path d="M387.367 300.726C389.933 301.403 391.904 302.864 393.28 305.11 394.655 307.355 395.343 310.065 395.343 313.238 395.343 316.419 394.657 319.128 393.286 321.365 391.915 323.602 389.942 325.059 387.367 325.736L387.05 324.72C389.081 324.044 390.59 322.708 391.579 320.713 392.568 318.718 393.062 316.182 393.062 313.106 393.062 310.135 392.57 307.668 391.586 305.703 390.601 303.739 389.076 302.418 387.011 301.741ZM374.639 300.726 374.995 301.741C372.938 302.418 371.416 303.739 370.427 305.703 369.438 307.668 368.944 310.135 368.944 313.106 368.944 316.182 369.438 318.718 370.427 320.713 371.416 322.708 372.925 324.044 374.955 324.72L374.639 325.736C372.064 325.059 370.091 323.602 368.719 321.365 367.348 319.128 366.663 316.419 366.663 313.238 366.663 310.065 367.351 307.355 368.726 305.11 370.102 302.864 372.073 301.403 374.639 300.726Z" fill="#4B5E68" fill-rule="evenodd"/><path d="M380.511 305.07 382.331 305.07 381.605 308.326 385.613 308.326 385.323 309.658 381.315 309.658 380.142 314.773C379.914 315.766 379.769 316.48 379.707 316.916 379.646 317.351 379.615 317.7 379.615 317.964 379.615 319.053 380.067 319.598 380.973 319.598 381.359 319.598 381.77 319.451 382.205 319.157 382.64 318.862 383.157 318.359 383.754 317.647L384.519 318.438C383.754 319.361 383.018 320.042 382.311 320.482 381.603 320.921 380.863 321.141 380.089 321.141 378.252 321.141 377.334 320.214 377.334 318.359 377.334 317.77 377.409 317.151 377.558 316.5L379.114 309.658 376.899 309.658 377.097 308.748C377.615 308.74 378.009 308.7 378.277 308.63 378.545 308.559 378.769 308.463 378.949 308.34 379.129 308.217 379.294 308.041 379.443 307.812 379.593 307.584 379.738 307.292 379.878 306.936 380.019 306.58 380.23 305.958 380.511 305.07Z" fill="#4B5E68" fill-rule="evenodd"/><text fill="#000000" fill-opacity="0" font-family="Arial,Arial_MSFontService,sans-serif" font-size="16.0708" x="376.899" y="319.132">𝑡</text><path d="M412.781 315.076 429.023 315.076 429.023 316.83 412.781 316.83ZM412.781 309.605 429.023 309.605 429.023 311.359 412.781 311.359Z" fill="#4B5E68" fill-rule="evenodd"/><text fill="#000000" fill-opacity="0" font-family="Arial,Arial_MSFontService,sans-serif" font-size="7.22461" x="412.781" y="315.927">=</text><path d="M439.781 287.444 477.723 287.444 477.723 288.485C476.581 288.731 475.691 289.153 475.053 289.751 474.416 290.348 474.098 291.843 474.098 294.233L474.098 331.912C474.098 334.355 474.368 335.898 474.908 336.539 475.449 337.181 476.396 337.642 477.75 337.924L477.75 338.991 467.137 338.991 467.137 337.924C468.517 337.642 469.468 337.183 469.991 336.546 470.514 335.909 470.775 334.368 470.775 331.925L470.775 289.21 446.715 289.21 446.715 331.912C446.715 334.355 446.988 335.898 447.533 336.539 448.078 337.181 449.036 337.642 450.407 337.924L450.407 338.991 439.781 338.991 439.781 337.924C441.152 337.642 442.097 337.183 442.615 336.546 443.134 335.909 443.393 334.368 443.393 331.925L443.393 294.18C443.393 291.825 443.096 290.357 442.503 289.777 441.91 289.197 441.002 288.766 439.781 288.485Z" fill="#4B5E68" fill-rule="evenodd"/><text fill="#000000" fill-opacity="0" font-family="Arial,Arial_MSFontService,sans-serif" font-size="51.5479" x="439.781" y="332.548">ෑ</text><path d="M891.693 278.795C895.305 281.889 898.173 286.503 900.295 292.638 902.418 298.773 903.479 305.62 903.479 313.178 903.479 320.622 902.418 327.458 900.295 333.685 898.173 339.912 895.305 344.564 891.693 347.64L891.073 346.664C894.193 343.492 896.597 338.899 898.285 332.888 899.972 326.876 900.816 320.31 900.816 313.191 900.816 305.905 899.968 299.309 898.271 293.403 896.575 287.497 894.176 282.957 891.073 279.784ZM497.257 278.795 497.877 279.784C494.766 282.957 492.364 287.497 490.672 293.403 488.98 299.309 488.134 305.905 488.134 313.191 488.134 320.31 488.978 326.876 490.666 332.888 492.353 338.899 494.757 343.492 497.877 346.664L497.257 347.64C493.645 344.564 490.778 339.912 488.655 333.685 486.533 327.458 485.471 320.622 485.471 313.178 485.471 305.62 486.533 298.773 488.655 292.638 490.778 286.503 493.645 281.889 497.257 278.795Z" fill="#4B5E68" fill-rule="evenodd"/><path d="M695.48 282.543 696.205 282.543C696.152 283.387 696.126 284.556 696.126 286.05L696.126 297.309C696.126 297.819 696.154 298.203 696.211 298.463 696.269 298.722 696.37 298.933 696.515 299.095 696.66 299.258 696.868 299.385 697.141 299.478 697.413 299.57 697.756 299.64 698.169 299.689 698.582 299.737 699.127 299.77 699.804 299.788L699.804 300.75 690.061 300.75 690.061 299.788C691.037 299.744 691.733 299.684 692.151 299.61 692.568 299.535 692.887 299.423 693.107 299.273 693.326 299.124 693.487 298.913 693.588 298.641 693.689 298.368 693.74 297.924 693.74 297.309L693.74 286.617C693.74 286.266 693.678 286.009 693.555 285.846 693.432 285.683 693.252 285.602 693.014 285.602 692.733 285.602 692.333 285.747 691.815 286.037 691.296 286.327 690.655 286.727 689.89 287.237L689.31 286.222Z" fill="#4B5E68" fill-rule="evenodd"/><text fill="#000000" fill-opacity="0" font-family="Arial,Arial_MSFontService,sans-serif" font-size="18.2065" x="689.31" y="298.474">1</text><path d="M507.073 323.083 507.798 323.083C507.745 323.927 507.719 325.096 507.719 326.59L507.719 337.849C507.719 338.359 507.748 338.743 507.805 339.003 507.862 339.262 507.963 339.473 508.108 339.635 508.253 339.798 508.462 339.925 508.734 340.018 509.007 340.11 509.349 340.18 509.763 340.229 510.176 340.277 510.721 340.31 511.397 340.328L511.397 341.29 501.655 341.29 501.655 340.328C502.63 340.284 503.327 340.224 503.744 340.15 504.162 340.075 504.48 339.963 504.7 339.813 504.92 339.664 505.08 339.453 505.181 339.181 505.282 338.908 505.333 338.464 505.333 337.849L505.333 327.157C505.333 326.806 505.271 326.549 505.148 326.386 505.025 326.223 504.845 326.142 504.608 326.142 504.327 326.142 503.927 326.287 503.408 326.577 502.889 326.867 502.248 327.267 501.483 327.777L500.903 326.762Z" fill="#4B5E68" fill-rule="evenodd"/><text fill="#000000" fill-opacity="0" font-family="Arial,Arial_MSFontService,sans-serif" font-size="18.2065" x="500.903" y="339.014">1</text><path d="M528.466 325.101 530.338 325.101 530.338 332.694 537.523 332.694 537.523 334.448 530.338 334.448 530.338 342.041 528.466 342.041 528.466 334.448 521.281 334.448 521.281 332.694 528.466 332.694Z" fill="#4B5E68" fill-rule="evenodd"/><text fill="#000000" fill-opacity="0" font-family="Arial,Arial_MSFontService,sans-serif" font-size="16.9409" x="521.281" y="339.924">+</text><path d="M554.735 324.455C554.27 324.455 553.777 324.472 553.259 324.507L551.571 332.141 553.127 332.141C554.401 332.141 555.408 331.969 556.146 331.626 556.884 331.284 557.469 330.721 557.899 329.939 558.33 329.157 558.545 328.313 558.545 327.408 558.545 327.03 558.51 326.694 558.44 326.399 558.37 326.105 558.277 325.861 558.163 325.667 558.049 325.474 557.904 325.303 557.728 325.153 557.552 325.004 557.333 324.874 557.069 324.764 556.805 324.654 556.5 324.575 556.153 324.527 555.805 324.479 555.333 324.455 554.735 324.455ZM549.449 323.294 555.315 323.294C556.247 323.294 557.007 323.349 557.596 323.459 558.185 323.569 558.688 323.734 559.106 323.954 559.523 324.173 559.873 324.457 560.154 324.804 560.435 325.151 560.646 325.542 560.787 325.977 560.927 326.412 560.998 326.876 560.998 327.368 560.998 328.722 560.584 329.873 559.758 330.822 558.932 331.771 557.715 332.492 556.106 332.984L556.106 333.129C556.528 333.446 556.869 333.824 557.128 334.263 557.387 334.703 557.596 335.313 557.754 336.096L558.058 337.625C558.154 338.108 558.264 338.543 558.387 338.93 558.51 339.317 558.657 339.624 558.829 339.853 559 340.081 559.194 340.253 559.409 340.367 559.624 340.481 559.938 340.574 560.352 340.644L560.22 341.29 556.568 341.29C556.287 340.508 556.036 339.576 555.816 338.495L555.236 335.7C555.14 335.217 555.023 334.81 554.887 334.481 554.751 334.151 554.588 333.896 554.399 333.716 554.21 333.536 553.99 333.417 553.74 333.36 553.49 333.303 553.184 333.274 552.824 333.274L551.321 333.274 550.398 337.454C550.319 337.796 550.264 338.069 550.233 338.271 550.202 338.473 550.176 338.686 550.154 338.91 550.132 339.134 550.121 339.334 550.121 339.51 550.121 339.783 550.165 339.996 550.253 340.15 550.341 340.303 550.473 340.415 550.648 340.486 550.824 340.556 551.127 340.609 551.558 340.644L551.413 341.29 545.995 341.29 546.14 340.644C546.474 340.591 546.724 340.506 546.891 340.387 547.058 340.268 547.199 340.103 547.313 339.893 547.427 339.682 547.533 339.424 547.629 339.121 547.726 338.818 547.871 338.231 548.064 337.361L550.306 327.21C550.499 326.331 550.596 325.637 550.596 325.127 550.596 324.696 550.495 324.397 550.292 324.23 550.09 324.063 549.761 323.967 549.304 323.94Z" fill="#4B5E68" fill-rule="evenodd"/><text fill="#000000" fill-opacity="0" font-family="Arial,Arial_MSFontService,sans-serif" font-size="17.9956" x="545.995" y="339.041">𝑅</text><path d="M566.243 337.351 566.698 337.351 565.324 343.529C565.238 343.894 565.178 344.185 565.144 344.401 565.11 344.618 565.093 344.813 565.093 344.986 565.093 345.221 565.14 345.391 565.236 345.496 565.332 345.601 565.476 345.654 565.668 345.654 565.779 345.654 565.89 345.632 566.002 345.589 566.113 345.546 566.232 345.478 566.359 345.385 566.486 345.292 566.625 345.173 566.776 345.028 566.928 344.882 567.096 344.708 567.282 344.503L567.913 345.116C567.591 345.444 567.299 345.72 567.036 345.946 566.773 346.172 566.524 346.356 566.289 346.498 566.054 346.64 565.824 346.742 565.598 346.804 565.372 346.866 565.133 346.897 564.879 346.897 564.644 346.897 564.432 346.854 564.244 346.767 564.055 346.681 563.893 346.561 563.757 346.41 563.621 346.258 563.515 346.077 563.441 345.867 563.367 345.657 563.33 345.425 563.33 345.171 563.33 344.967 563.355 344.714 563.404 344.411 563.454 344.108 563.517 343.778 563.594 343.423 563.672 343.067 563.757 342.694 563.849 342.305 563.942 341.915 564.033 341.528 564.123 341.145 564.213 340.762 564.293 340.392 564.364 340.036 564.435 339.681 564.486 339.358 564.517 339.067 564.53 339.017 564.536 338.969 564.536 338.923 564.536 338.877 564.536 338.835 564.536 338.798 564.523 338.557 564.438 338.38 564.281 338.269 564.123 338.158 563.843 338.096 563.441 338.083L563.552 337.453ZM565.705 333.612 567.56 333.612 567.106 335.606 565.269 335.606Z" fill="#4B5E68" fill-rule="evenodd"/><text fill="#000000" fill-opacity="0" font-family="Arial,Arial_MSFontService,sans-serif" font-size="13.2852" x="563.33" y="345.236">𝑖</text><path d="M593.473 321.086C596.04 321.763 598.011 323.224 599.386 325.47 600.762 327.715 601.449 330.425 601.449 333.598 601.449 336.779 600.764 339.488 599.393 341.725 598.022 343.962 596.049 345.419 593.473 346.096L593.157 345.08C595.187 344.404 596.697 343.068 597.686 341.073 598.674 339.078 599.169 336.542 599.169 333.466 599.169 330.495 598.677 328.027 597.692 326.063 596.708 324.099 595.183 322.778 593.117 322.101ZM580.746 321.086 581.102 322.101C579.045 322.778 577.522 324.099 576.533 326.063 575.545 328.027 575.05 330.495 575.05 333.466 575.05 336.542 575.545 339.078 576.533 341.073 577.522 343.068 579.032 344.404 581.062 345.08L580.746 346.096C578.17 345.419 576.197 343.962 574.826 341.725 573.455 339.488 572.77 336.779 572.77 333.598 572.77 330.425 573.457 327.715 574.833 325.47 576.208 323.224 578.179 321.763 580.746 321.086Z" fill="#4B5E68" fill-rule="evenodd"/><path d="M586.618 325.43 588.437 325.43 587.712 328.686 591.72 328.686 591.43 330.018 587.422 330.018 586.249 335.133C586.02 336.126 585.875 336.841 585.814 337.276 585.752 337.711 585.721 338.06 585.721 338.324 585.721 339.414 586.174 339.958 587.079 339.958 587.466 339.958 587.877 339.811 588.312 339.517 588.747 339.222 589.263 338.719 589.861 338.007L590.626 338.798C589.861 339.721 589.125 340.402 588.417 340.842 587.71 341.281 586.969 341.501 586.196 341.501 584.359 341.501 583.441 340.574 583.441 338.719 583.441 338.13 583.515 337.511 583.665 336.86L585.22 330.018 583.006 330.018 583.203 329.108C583.722 329.1 584.115 329.06 584.383 328.99 584.651 328.919 584.875 328.823 585.056 328.7 585.236 328.577 585.401 328.401 585.55 328.172 585.699 327.944 585.844 327.652 585.985 327.296 586.126 326.94 586.337 326.318 586.618 325.43Z" fill="#4B5E68" fill-rule="evenodd"/><text fill="#000000" fill-opacity="0" font-family="Arial,Arial_MSFontService,sans-serif" font-size="16.0708" x="583.006" y="339.492">𝑡</text><path d="M608.974 321.324 625.255 321.324 625.255 327.191 623.831 327.191C623.612 326.356 623.403 325.675 623.205 325.147 623.008 324.62 622.805 324.203 622.599 323.895 622.392 323.587 622.181 323.352 621.966 323.19 621.751 323.027 621.502 322.904 621.221 322.821 620.94 322.737 620.566 322.695 620.101 322.695L612.757 322.695 619.178 332.438 619.178 333.44 611.979 343.328 620.654 343.328C621.199 343.328 621.61 343.293 621.887 343.222 622.164 343.152 622.401 343.044 622.599 342.899 622.797 342.754 622.977 342.552 623.139 342.293 623.302 342.033 623.458 341.675 623.607 341.218 623.757 340.761 623.897 340.164 624.029 339.425L625.572 339.425 625.189 345.859 608.473 345.859 608.473 345.121 616.62 333.928 608.974 322.076Z" fill="#4B5E68" fill-rule="evenodd"/><text fill="#000000" fill-opacity="0" font-family="Arial,Arial_MSFontService,sans-serif" font-size="24.5347" x="608.473" y="342.792">σ</text><path d="M677.309 329.504C676.412 329.504 675.608 329.866 674.896 330.591 674.184 331.317 673.624 332.294 673.215 333.525 672.806 334.755 672.602 335.981 672.602 337.203 672.602 338.117 672.734 338.8 672.998 339.253 673.261 339.706 673.674 339.932 674.237 339.932 674.685 339.932 675.131 339.778 675.575 339.471 676.019 339.163 676.493 338.675 676.999 338.007 677.504 337.339 677.897 336.702 678.179 336.096 678.46 335.489 678.699 334.733 678.897 333.828 679.095 332.923 679.194 332.136 679.194 331.468 679.194 330.783 679.049 330.284 678.759 329.972 678.469 329.66 677.985 329.504 677.309 329.504ZM677.098 328.462C677.651 328.462 678.174 328.528 678.667 328.66 679.159 328.792 679.655 329.016 680.156 329.332L681.369 328.462 682.213 328.673 680.855 334.817C680.758 335.247 680.539 336.333 680.196 338.073 679.835 339.919 679.543 341.224 679.319 341.989 679.095 342.753 678.816 343.45 678.482 344.078 678.148 344.707 677.717 345.254 677.19 345.72 676.663 346.185 676.023 346.546 675.272 346.801 674.52 347.056 673.63 347.183 672.602 347.183 669.28 347.183 667.619 346.216 667.619 344.283 667.619 343.79 667.768 343.342 668.067 342.938 668.366 342.534 668.845 342.107 669.504 341.659L670.453 342.424C670.286 342.626 670.146 342.826 670.031 343.024 669.917 343.221 669.836 343.413 669.787 343.597 669.739 343.782 669.715 344.001 669.715 344.256 669.715 344.915 669.952 345.397 670.427 345.7 670.901 346.003 671.618 346.155 672.576 346.155 673.657 346.155 674.525 345.911 675.179 345.423 675.834 344.935 676.395 344.151 676.86 343.07 677.326 341.989 677.779 340.354 678.218 338.165L678.034 338.126C677.181 339.295 676.39 340.147 675.661 340.684 674.931 341.22 674.145 341.488 673.301 341.488 672.343 341.488 671.598 341.127 671.066 340.407 670.534 339.686 670.269 338.658 670.269 337.322 670.269 335.819 670.563 334.375 671.152 332.991 671.741 331.607 672.558 330.506 673.604 329.688 674.65 328.871 675.814 328.462 677.098 328.462Z" fill="#4B5E68" fill-rule="evenodd"/><text fill="#000000" fill-opacity="0" font-family="Arial,Arial_MSFontService,sans-serif" font-size="18.7207" x="667.619" y="344.843">𝑔</text><path d="M690.241 338.176C689.883 338.176 689.546 338.257 689.23 338.417 688.915 338.578 688.627 338.795 688.367 339.067 688.108 339.339 687.876 339.658 687.672 340.022 687.467 340.387 687.296 340.774 687.157 341.182 687.017 341.59 686.911 342.011 686.837 342.444 686.762 342.877 686.725 343.294 686.725 343.696 686.725 345.014 687.124 345.672 687.922 345.672 688.256 345.672 688.588 345.572 688.919 345.371 689.25 345.17 689.607 344.834 689.991 344.364 690.195 344.117 690.371 343.885 690.52 343.668 690.668 343.452 690.795 343.234 690.9 343.014 691.005 342.795 691.095 342.561 691.169 342.314 691.243 342.067 691.311 341.788 691.373 341.479 691.441 341.126 691.508 340.783 691.573 340.449 691.638 340.115 691.67 339.818 691.67 339.559 691.67 339.058 691.553 338.702 691.318 338.492 691.082 338.281 690.724 338.176 690.241 338.176ZM690.074 337.258C690.557 337.258 690.984 337.315 691.355 337.429 691.726 337.544 692.063 337.7 692.366 337.898L693.275 337.258 693.98 337.453C693.813 338.244 693.646 339.025 693.479 339.795 693.312 340.565 693.142 341.346 692.969 342.138 692.771 343.072 692.598 343.933 692.449 344.721 692.301 345.51 692.137 346.21 691.958 346.823 691.778 347.435 691.563 347.964 691.313 348.409 691.062 348.854 690.741 349.226 690.348 349.522 689.955 349.819 689.471 350.048 688.896 350.209 688.321 350.37 687.616 350.453 686.781 350.459 685.494 350.459 684.525 350.303 683.872 349.991 683.22 349.679 682.894 349.198 682.894 348.548 682.894 348.381 682.92 348.224 682.973 348.075 683.025 347.927 683.107 347.785 683.218 347.648 683.33 347.512 683.474 347.378 683.65 347.245 683.826 347.112 684.035 346.971 684.276 346.823L685.12 347.463C684.904 347.648 684.757 347.825 684.68 347.992 684.602 348.159 684.564 348.335 684.564 348.521 684.564 348.867 684.74 349.13 685.092 349.309 685.445 349.488 685.995 349.578 686.744 349.578 687.127 349.578 687.474 349.55 687.783 349.495 688.092 349.439 688.375 349.345 688.632 349.212 688.888 349.079 689.122 348.895 689.332 348.66 689.542 348.425 689.737 348.132 689.917 347.783 690.096 347.434 690.266 346.99 690.427 346.452 690.588 345.914 690.745 345.277 690.9 344.541L690.761 344.485C690.433 344.912 690.121 345.278 689.824 345.584 689.527 345.89 689.235 346.141 688.947 346.336 688.66 346.531 688.37 346.673 688.08 346.762 687.789 346.852 687.486 346.897 687.171 346.897 686.447 346.897 685.886 346.634 685.487 346.108 685.088 345.583 684.888 344.813 684.888 343.798 684.888 343.223 684.95 342.66 685.074 342.11 685.198 341.559 685.374 341.04 685.603 340.551 685.831 340.063 686.105 339.616 686.424 339.211 686.742 338.806 687.095 338.458 687.481 338.167 687.868 337.876 688.279 337.652 688.715 337.494 689.151 337.337 689.604 337.258 690.074 337.258Z" fill="#4B5E68" fill-rule="evenodd"/><text fill="#000000" fill-opacity="0" font-family="Arial,Arial_MSFontService,sans-serif" font-size="13.2017" x="682.894" y="348.809">𝑔</text><path d="M772.007 321.086C774.573 321.763 776.544 323.224 777.92 325.47 779.295 327.715 779.983 330.425 779.983 333.598 779.983 336.779 779.297 339.488 777.926 341.725 776.555 343.962 774.582 345.419 772.007 346.096L771.69 345.08C773.721 344.404 775.23 343.068 776.219 341.073 777.208 339.078 777.702 336.542 777.702 333.466 777.702 330.495 777.21 328.027 776.225 326.063 775.241 324.099 773.716 322.778 771.651 322.101ZM707.266 321.086 707.622 322.101C705.565 322.778 704.042 324.099 703.053 326.063 702.065 328.027 701.57 330.495 701.57 333.466 701.57 336.542 702.065 339.078 703.053 341.073 704.042 343.068 705.552 344.404 707.582 345.08L707.266 346.096C704.69 345.419 702.717 343.962 701.346 341.725 699.975 339.488 699.29 336.779 699.29 333.598 699.29 330.425 699.977 327.715 701.353 325.47 702.728 323.224 704.699 321.763 707.266 321.086Z" fill="#4B5E68" fill-rule="evenodd"/><path d="M713.257 328.686 720.165 328.686 719.769 330.427 715.643 330.427 714.153 337.032C713.96 337.893 713.863 338.543 713.863 338.983 713.863 339.334 713.92 339.589 714.034 339.747 714.149 339.906 714.329 339.985 714.575 339.985 714.874 339.985 715.199 339.862 715.551 339.616 715.902 339.37 716.302 338.978 716.75 338.442L717.515 339.154C716.759 339.998 716.084 340.6 715.491 340.96 714.898 341.321 714.289 341.501 713.665 341.501 713.041 341.501 712.549 341.294 712.189 340.881 711.828 340.468 711.648 339.932 711.648 339.273 711.648 338.684 711.771 337.831 712.017 336.715L712.202 335.885C712.343 335.243 712.551 334.399 712.828 333.353 713.105 332.308 713.384 331.372 713.665 330.545L713.599 330.427 712.466 330.427C711.885 330.427 711.439 330.473 711.127 330.565 710.815 330.657 710.51 330.816 710.211 331.04 709.912 331.264 709.6 331.587 709.275 332.009L708.445 331.31C708.919 330.721 709.334 330.26 709.69 329.926 710.046 329.592 710.387 329.339 710.712 329.168 711.037 328.996 711.389 328.873 711.767 328.799 712.145 328.724 712.641 328.686 713.257 328.686Z" fill="#4B5E68" fill-rule="evenodd"/><text fill="#000000" fill-opacity="0" font-family="Arial,Arial_MSFontService,sans-serif" font-size="12.8145" x="708.445" y="339.899">𝜏</text><path d="M735.799 325.101 737.671 325.101 737.671 332.694 744.856 332.694 744.856 334.448 737.671 334.448 737.671 342.041 735.799 342.041 735.799 334.448 728.614 334.448 728.614 332.694 735.799 332.694Z" fill="#4B5E68" fill-rule="evenodd"/><text fill="#000000" fill-opacity="0" font-family="Arial,Arial_MSFontService,sans-serif" font-size="16.9409" x="728.614" y="339.924">+</text><path d="M765.721 329.517C765.009 329.517 764.4 329.917 763.895 330.717 763.389 331.517 762.943 332.778 762.556 334.5L761.212 340.473C762.46 340.429 763.536 340.018 764.442 339.24 765.347 338.462 766.046 337.41 766.538 336.082 767.03 334.755 767.276 333.384 767.276 331.969 767.276 331.205 767.142 330.605 766.874 330.17 766.606 329.735 766.221 329.517 765.721 329.517ZM759.63 328.436 760.315 329.346C759.023 330.268 757.995 331.363 757.23 332.628 756.466 333.894 756.083 335.142 756.083 336.372 756.083 337.515 756.338 338.416 756.848 339.075 757.358 339.734 758.127 340.169 759.155 340.38L760.5 334.329C760.948 332.325 761.658 330.846 762.629 329.893 763.6 328.939 764.697 328.462 765.918 328.462 767.122 328.462 768.028 328.799 768.634 329.471 769.241 330.143 769.544 331.152 769.544 332.497 769.544 334.175 769.194 335.7 768.496 337.071 767.797 338.442 766.802 339.515 765.51 340.288 764.218 341.061 762.715 341.461 761.001 341.488L759.762 346.985 757.692 346.985 758.931 341.461C757.296 341.277 756.037 340.734 755.154 339.833 754.271 338.932 753.829 337.748 753.829 336.28 753.829 333.362 755.763 330.747 759.63 328.436Z" fill="#4B5E68" fill-rule="evenodd"/><text fill="#000000" fill-opacity="0" font-family="Arial,Arial_MSFontService,sans-serif" font-size="18.5493" x="753.829" y="344.667">𝜑</text><path d="M786.422 323.294 791.695 323.294 791.55 323.94C791.216 324.011 790.977 324.09 790.832 324.178 790.687 324.266 790.557 324.397 790.443 324.573 790.329 324.749 790.21 325.024 790.087 325.397 789.964 325.771 789.81 326.379 789.626 327.223L787.371 337.454C787.257 337.972 787.182 338.383 787.147 338.686 787.112 338.989 787.094 339.264 787.094 339.51 787.094 339.906 787.193 340.185 787.391 340.347 787.589 340.51 787.921 340.609 788.386 340.644L788.241 341.29 782.968 341.29 783.113 340.644C783.447 340.591 783.697 340.506 783.864 340.387 784.031 340.268 784.172 340.103 784.286 339.893 784.401 339.682 784.506 339.424 784.603 339.121 784.699 338.818 784.844 338.231 785.038 337.361L787.279 327.21C787.472 326.331 787.569 325.623 787.569 325.087 787.569 324.674 787.466 324.386 787.259 324.224 787.053 324.061 786.725 323.967 786.277 323.94Z" fill="#4B5E68" fill-rule="evenodd"/><text fill="#000000" fill-opacity="0" font-family="Arial,Arial_MSFontService,sans-serif" font-size="17.9956" x="782.968" y="339.041">𝐼</text><path d="M795.276 337.351 795.731 337.351 794.358 343.529C794.271 343.894 794.211 344.185 794.177 344.401 794.143 344.618 794.126 344.813 794.126 344.986 794.126 345.221 794.174 345.391 794.27 345.496 794.366 345.601 794.509 345.654 794.701 345.654 794.812 345.654 794.924 345.632 795.035 345.589 795.146 345.546 795.266 345.478 795.392 345.385 795.519 345.292 795.658 345.173 795.81 345.028 795.961 344.882 796.13 344.708 796.315 344.503L796.946 345.116C796.625 345.444 796.332 345.72 796.07 345.946 795.807 346.172 795.558 346.356 795.323 346.498 795.088 346.64 794.857 346.742 794.632 346.804 794.406 346.866 794.166 346.897 793.913 346.897 793.677 346.897 793.466 346.854 793.277 346.767 793.088 346.681 792.926 346.561 792.79 346.41 792.654 346.258 792.549 346.077 792.475 345.867 792.4 345.657 792.363 345.425 792.363 345.171 792.363 344.967 792.388 344.714 792.437 344.411 792.487 344.108 792.55 343.778 792.628 343.423 792.705 343.067 792.79 342.694 792.883 342.305 792.976 341.915 793.067 341.528 793.156 341.145 793.246 340.762 793.327 340.392 793.398 340.036 793.469 339.681 793.52 339.358 793.551 339.067 793.563 339.017 793.569 338.969 793.569 338.923 793.569 338.877 793.569 338.835 793.569 338.798 793.557 338.557 793.472 338.38 793.314 338.269 793.156 338.158 792.877 338.096 792.475 338.083L792.586 337.453ZM794.738 333.612 796.594 333.612 796.139 335.606 794.302 335.606Z" fill="#4B5E68" fill-rule="evenodd"/><text fill="#000000" fill-opacity="0" font-family="Arial,Arial_MSFontService,sans-serif" font-size="13.2852" x="792.363" y="345.236">𝑖</text><path d="M879.41 317.269C882.152 317.99 884.266 319.858 885.751 322.872 887.236 325.887 887.979 329.456 887.979 333.578 887.979 337.7 887.236 341.268 885.751 344.283 884.266 347.297 882.152 349.165 879.41 349.886L879.08 348.805C881.207 348.005 882.818 346.262 883.912 343.577 885.006 340.892 885.553 337.563 885.553 333.591 885.553 329.609 885.006 326.274 883.912 323.584 882.818 320.895 881.207 319.15 879.08 318.351ZM810.372 317.269 810.702 318.351C808.575 319.15 806.964 320.895 805.87 323.584 804.776 326.274 804.229 329.609 804.229 333.591 804.229 337.563 804.776 340.892 805.87 343.577 806.964 346.262 808.575 348.005 810.702 348.805L810.372 349.886C807.63 349.165 805.516 347.297 804.031 344.283 802.546 341.268 801.803 337.7 801.803 333.578 801.803 329.456 802.546 325.887 804.031 322.872 805.516 319.858 807.63 317.99 810.372 317.269Z" fill="#4B5E68" fill-rule="evenodd"/><path d="M816.565 325.43 818.384 325.43 817.659 328.686 821.667 328.686 821.377 330.018 817.369 330.018 816.195 335.133C815.967 336.126 815.822 336.841 815.76 337.276 815.699 337.711 815.668 338.06 815.668 338.324 815.668 339.414 816.121 339.958 817.026 339.958 817.413 339.958 817.824 339.811 818.259 339.517 818.694 339.222 819.21 338.719 819.808 338.007L820.572 338.798C819.808 339.721 819.072 340.402 818.364 340.842 817.657 341.281 816.916 341.501 816.143 341.501 814.306 341.501 813.387 340.574 813.387 338.719 813.387 338.13 813.462 337.511 813.612 336.86L815.167 330.018 812.952 330.018 813.15 329.108C813.669 329.1 814.062 329.06 814.33 328.99 814.598 328.919 814.822 328.823 815.002 328.7 815.183 328.577 815.347 328.401 815.497 328.172 815.646 327.944 815.791 327.652 815.932 327.296 816.072 326.94 816.283 326.318 816.565 325.43Z" fill="#4B5E68" fill-rule="evenodd"/><text fill="#000000" fill-opacity="0" font-family="Arial,Arial_MSFontService,sans-serif" font-size="16.0708" x="812.952" y="339.492">𝑡</text><path d="M830.454 332.694 846.696 332.694 846.696 334.448 830.454 334.448Z" fill="#4B5E68" fill-rule="evenodd"/><text fill="#000000" fill-opacity="0" font-family="Arial,Arial_MSFontService,sans-serif" font-size="1.75342" x="830.454" y="334.229">−</text><path d="M859.69 328.686 866.598 328.686 866.203 330.427 862.076 330.427 860.586 337.032C860.393 337.893 860.296 338.543 860.296 338.983 860.296 339.334 860.354 339.589 860.468 339.747 860.582 339.906 860.762 339.985 861.008 339.985 861.307 339.985 861.632 339.862 861.984 339.616 862.335 339.37 862.735 338.978 863.184 338.442L863.948 339.154C863.192 339.998 862.518 340.6 861.925 340.96 861.331 341.321 860.723 341.501 860.099 341.501 859.475 341.501 858.982 341.294 858.622 340.881 858.262 340.468 858.082 339.932 858.082 339.273 858.082 338.684 858.205 337.831 858.451 336.715L858.635 335.885C858.776 335.243 858.985 334.399 859.261 333.353 859.538 332.308 859.817 331.372 860.099 330.545L860.033 330.427 858.899 330.427C858.319 330.427 857.873 330.473 857.561 330.565 857.249 330.657 856.943 330.816 856.645 331.04 856.346 331.264 856.034 331.587 855.708 332.009L854.878 331.31C855.353 330.721 855.768 330.26 856.124 329.926 856.48 329.592 856.82 329.339 857.146 329.168 857.471 328.996 857.822 328.873 858.2 328.799 858.578 328.724 859.075 328.686 859.69 328.686Z" fill="#4B5E68" fill-rule="evenodd"/><text fill="#000000" fill-opacity="0" font-family="Arial,Arial_MSFontService,sans-serif" font-size="12.8145" x="854.878" y="339.899">𝜏</text><path d="M868.013 321.086C870.58 321.763 872.551 323.224 873.926 325.47 875.302 327.715 875.99 330.425 875.99 333.598 875.99 336.779 875.304 339.488 873.933 341.725 872.562 343.962 870.589 345.419 868.013 346.096L867.697 345.08C869.727 344.404 871.237 343.068 872.226 341.073 873.214 339.078 873.709 336.542 873.709 333.466 873.709 330.495 873.217 328.027 872.232 326.063 871.248 324.099 869.723 322.778 867.657 322.101Z" fill="#4B5E68" fill-rule="evenodd"/><text fill="#000000" fill-opacity="0" font-family="Arial,Arial_MSFontService,sans-serif" font-size="25.0093" x="867.657" y="342.969">ሻ</text><path d="M631.012 319.523 632.46 319.523 631.931 321.879 635.085 321.879 634.872 322.909 631.727 322.909 630.78 326.796C630.719 327.056 630.668 327.29 630.627 327.497 630.587 327.704 630.555 327.891 630.53 328.058 630.505 328.225 630.488 328.377 630.479 328.513 630.47 328.649 630.465 328.775 630.465 328.893 630.465 329.264 630.542 329.555 630.697 329.765 630.852 329.975 631.105 330.08 631.458 330.08 631.755 330.08 632.07 329.971 632.404 329.751 632.738 329.532 633.118 329.187 633.545 328.717L634.185 329.366C633.87 329.719 633.57 330.019 633.285 330.266 633.001 330.513 632.723 330.716 632.45 330.874 632.178 331.031 631.909 331.146 631.643 331.217 631.377 331.288 631.105 331.324 630.827 331.324 630.091 331.324 629.542 331.15 629.18 330.804 628.818 330.458 628.637 329.948 628.637 329.273 628.637 329.044 628.654 328.792 628.688 328.517 628.722 328.242 628.77 327.975 628.832 327.715L629.936 322.909 628.341 322.909 628.526 322.195C628.897 322.195 629.186 322.159 629.393 322.088 629.601 322.017 629.775 321.919 629.918 321.796 630.01 321.709 630.1 321.603 630.187 321.476 630.273 321.349 630.36 321.196 630.446 321.017 630.533 320.837 630.621 320.625 630.711 320.381 630.801 320.137 630.901 319.851 631.012 319.523Z" fill="#4B5E68" fill-rule="evenodd"/><text fill="#000000" fill-opacity="0" font-family="Arial,Arial_MSFontService,sans-serif" font-size="11.8008" x="628.341" y="329.849">𝑡</text><path d="M637.611 325.015 648.299 325.015 648.299 326.434 637.611 326.434Z" fill="#4B5E68" fill-rule="evenodd"/><text fill="#000000" fill-opacity="0" font-family="Arial,Arial_MSFontService,sans-serif" font-size="1.41943" x="637.611" y="326.257">−</text><path d="M656.472 319.207 657.038 319.207C657.026 319.548 657.016 319.852 657.01 320.121 657.004 320.39 656.999 320.652 656.996 320.905 656.993 321.159 656.992 321.409 656.992 321.657L656.992 328.707C656.992 328.899 656.998 329.065 657.01 329.204 657.023 329.343 657.043 329.46 657.07 329.556 657.098 329.652 657.135 329.734 657.182 329.802 657.228 329.87 657.282 329.929 657.344 329.978 657.418 330.053 657.517 330.11 657.641 330.15 657.765 330.19 657.922 330.224 658.114 330.252 658.306 330.28 658.536 330.302 658.805 330.317 659.074 330.333 659.398 330.343 659.775 330.35L659.775 331.157 652.418 331.157 652.418 330.35C652.783 330.337 653.092 330.323 653.346 330.308 653.599 330.292 653.816 330.271 653.995 330.243 654.174 330.215 654.318 330.184 654.426 330.15 654.535 330.116 654.629 330.074 654.709 330.025 654.796 329.969 654.87 329.909 654.932 329.844 654.994 329.779 655.043 329.697 655.08 329.598 655.118 329.499 655.147 329.378 655.169 329.236 655.19 329.094 655.201 328.918 655.201 328.707L655.201 322.056C655.201 321.814 655.155 321.644 655.062 321.545 654.969 321.446 654.836 321.397 654.663 321.397 654.471 321.397 654.187 321.496 653.809 321.694 653.432 321.892 652.944 322.185 652.344 322.575 652.263 322.433 652.189 322.291 652.121 322.148 652.053 322.006 651.982 321.861 651.908 321.712 652.674 321.292 653.434 320.873 654.185 320.455 654.937 320.038 655.699 319.622 656.472 319.207Z" fill="#4B5E68" fill-rule="evenodd"/><text fill="#000000" fill-opacity="0" font-family="Arial,Arial_MSFontService,sans-serif" font-size="11.9492" x="651.908" y="329.663">1</text><path d="M631.161 338.893 636.467 338.893 636.18 340.331 633.007 340.331C632.828 341.128 632.647 341.926 632.464 342.724 632.282 343.522 632.098 344.326 631.912 345.136 631.844 345.415 631.796 345.662 631.768 345.878 631.741 346.095 631.727 346.284 631.727 346.444 631.727 346.642 631.765 346.8 631.843 346.918 631.92 347.035 632.067 347.094 632.283 347.094 632.518 347.094 632.775 346.99 633.053 346.783 633.332 346.576 633.641 346.271 633.981 345.869L634.621 346.482C634.3 346.815 634.006 347.1 633.74 347.335 633.474 347.57 633.219 347.762 632.975 347.91 632.73 348.059 632.491 348.167 632.256 348.235 632.021 348.303 631.779 348.337 631.532 348.337 631.291 348.337 631.073 348.294 630.878 348.207 630.683 348.121 630.516 347.998 630.377 347.841 630.238 347.683 630.13 347.496 630.052 347.279 629.975 347.063 629.936 346.828 629.936 346.574 629.936 346.395 629.956 346.165 629.997 345.883 630.037 345.602 630.092 345.288 630.164 344.941 630.235 344.595 630.318 344.227 630.414 343.837 630.51 343.448 630.612 343.052 630.72 342.65 630.828 342.248 630.943 341.852 631.063 341.462 631.184 341.073 631.303 340.708 631.421 340.368 631.421 340.343 631.414 340.331 631.402 340.331L630.4 340.331C630.122 340.337 629.884 340.357 629.686 340.391 629.488 340.425 629.305 340.485 629.138 340.572 628.971 340.658 628.804 340.777 628.637 340.929 628.47 341.081 628.279 341.277 628.062 341.518L627.385 340.869C627.632 340.597 627.855 340.36 628.053 340.159 628.251 339.958 628.436 339.785 628.61 339.639 628.783 339.494 628.954 339.374 629.124 339.278 629.295 339.182 629.479 339.106 629.676 339.05 629.874 338.995 630.092 338.956 630.331 338.934 630.569 338.913 630.845 338.899 631.161 338.893Z" fill="#4B5E68" fill-rule="evenodd"/><text fill="#000000" fill-opacity="0" font-family="Arial,Arial_MSFontService,sans-serif" font-size="9.44434" x="627.385" y="347.156">𝜏</text><path d="M638.844 344.051 649.532 344.051 649.532 345.47 638.844 345.47ZM638.844 340.015 649.532 340.015 649.532 341.435 638.844 341.435Z" fill="#4B5E68" fill-rule="evenodd"/><text fill="#000000" fill-opacity="0" font-family="Arial,Arial_MSFontService,sans-serif" font-size="5.45508" x="638.844" y="344.788">=</text><path d="M657.705 336.221 658.271 336.221C658.259 336.561 658.25 336.866 658.243 337.135 658.237 337.404 658.233 337.665 658.23 337.919 658.226 338.172 658.225 338.423 658.225 338.67L658.225 345.721C658.225 345.913 658.231 346.078 658.243 346.217 658.256 346.356 658.276 346.474 658.304 346.57 658.332 346.665 658.369 346.747 658.415 346.815 658.461 346.884 658.516 346.942 658.577 346.992 658.652 347.066 658.751 347.123 658.874 347.163 658.998 347.204 659.156 347.238 659.347 347.265 659.539 347.293 659.77 347.315 660.039 347.33 660.308 347.346 660.631 347.357 661.008 347.363L661.008 348.17 653.651 348.17 653.651 347.363C654.016 347.35 654.325 347.337 654.579 347.321 654.833 347.306 655.049 347.284 655.228 347.256 655.408 347.228 655.552 347.197 655.66 347.163 655.768 347.129 655.862 347.088 655.943 347.038 656.029 346.982 656.104 346.922 656.165 346.857 656.227 346.792 656.277 346.71 656.314 346.611 656.351 346.512 656.38 346.392 656.402 346.25 656.424 346.107 656.434 345.931 656.434 345.721L656.434 339.069C656.434 338.828 656.388 338.658 656.295 338.559 656.202 338.46 656.069 338.41 655.896 338.41 655.705 338.41 655.42 338.509 655.043 338.707 654.666 338.905 654.177 339.199 653.577 339.588 653.497 339.446 653.422 339.304 653.354 339.162 653.286 339.019 653.215 338.874 653.141 338.726 653.908 338.305 654.667 337.886 655.419 337.469 656.17 337.051 656.932 336.635 657.705 336.221Z" fill="#4B5E68" fill-rule="evenodd"/><text fill="#000000" fill-opacity="0" font-family="Arial,Arial_MSFontService,sans-serif" font-size="11.9492" x="653.141" y="346.676">1</text><path d="M498.59 312.93 694.59 312.93 890.59 312.93 890.59 314.93 694.59 314.93 498.59 314.93Z" fill="#4B5E68" fill-rule="evenodd"/><path d="M454.587 269.499 462.659 269.499 462.659 269.944 457.213 281.383 455.793 281.383 455.793 280.966 460.785 271.261 460.785 271.122 456.851 271.122C456.579 271.122 456.367 271.144 456.215 271.187 456.064 271.231 455.929 271.292 455.812 271.373 455.762 271.416 455.719 271.461 455.682 271.507 455.645 271.554 455.608 271.616 455.571 271.693 455.534 271.77 455.495 271.872 455.455 271.999 455.415 272.126 455.367 272.288 455.311 272.486L454.383 272.486Z" fill="#4B5E68" fill-rule="evenodd"/><text fill="#000000" fill-opacity="0" font-family="Arial,Arial_MSFontService,sans-serif" font-size="11.8843" x="454.383" y="279.897">7</text><path d="M448.41 346.419C448.026 346.419 447.705 346.531 447.445 346.757 447.185 346.983 446.97 347.266 446.8 347.606 446.63 347.946 446.491 348.316 446.383 348.715 446.274 349.114 446.183 349.489 446.109 349.842L445.125 354.147C445.88 354.11 446.539 353.926 447.102 353.595 447.664 353.264 448.133 352.837 448.507 352.314 448.881 351.792 449.161 351.2 449.347 350.538 449.532 349.876 449.625 349.196 449.625 348.497 449.625 348.293 449.614 348.07 449.593 347.829 449.571 347.588 449.52 347.363 449.439 347.156 449.359 346.949 449.238 346.774 449.078 346.632 448.917 346.49 448.694 346.419 448.41 346.419ZM443.734 345.444 444.328 346.215C443.301 346.994 442.515 347.818 441.971 348.687 441.427 349.556 441.155 350.423 441.155 351.289 441.155 352.093 441.343 352.724 441.721 353.182 442.098 353.639 442.679 353.936 443.465 354.072L444.402 349.879C444.569 349.112 444.795 348.449 445.079 347.889 445.364 347.329 445.69 346.869 446.058 346.507 446.426 346.145 446.826 345.877 447.259 345.704 447.692 345.531 448.141 345.444 448.604 345.444 449.538 345.444 450.242 345.723 450.715 346.279 451.188 346.836 451.425 347.618 451.425 348.627 451.425 349.53 451.275 350.372 450.975 351.155 450.675 351.937 450.243 352.617 449.681 353.196 449.118 353.774 448.438 354.229 447.64 354.559 446.842 354.89 445.948 355.059 444.958 355.065L444.096 358.887 442.361 358.887 443.251 355.009C442.627 354.929 442.07 354.785 441.582 354.578 441.093 354.371 440.682 354.106 440.348 353.785 440.014 353.463 439.759 353.086 439.582 352.653 439.406 352.22 439.318 351.735 439.318 351.196 439.318 350.164 439.691 349.169 440.436 348.214 441.181 347.258 442.28 346.335 443.734 345.444Z" fill="#4B5E68" fill-rule="evenodd"/><text fill="#000000" fill-opacity="0" font-family="Arial,Arial_MSFontService,sans-serif" font-size="13.4429" x="439.318" y="357.207">𝜑</text><path d="M454.878 350.798 465.565 350.798 465.565 352.217 454.878 352.217ZM454.878 346.762 465.565 346.762 465.565 348.181 454.878 348.181Z" fill="#4B5E68" fill-rule="evenodd"/><text fill="#000000" fill-opacity="0" font-family="Arial,Arial_MSFontService,sans-serif" font-size="5.45508" x="454.878" y="351.535">=</text><path d="M472.978 343.802C472.545 343.802 472.183 343.915 471.893 344.141 471.602 344.367 471.371 344.698 471.201 345.134 471.031 345.57 470.911 346.102 470.84 346.729 470.768 347.357 470.733 348.07 470.733 348.868 470.733 349.789 470.778 350.586 470.867 351.257 470.957 351.928 471.096 352.48 471.285 352.913 471.473 353.346 471.71 353.664 471.995 353.868 472.279 354.072 472.619 354.174 473.015 354.174 473.386 354.174 473.711 354.079 473.989 353.887 474.268 353.695 474.498 353.397 474.68 352.992 474.863 352.586 475 352.073 475.093 351.452 475.186 350.83 475.232 350.096 475.232 349.248 475.232 348.296 475.181 347.476 475.079 346.79 474.977 346.103 474.833 345.539 474.648 345.097 474.462 344.654 474.229 344.328 473.947 344.118 473.666 343.908 473.343 343.802 472.978 343.802ZM473.015 342.902C473.751 342.902 474.38 343.04 474.903 343.315 475.426 343.591 475.852 343.983 476.183 344.494 476.514 345.004 476.757 345.627 476.912 346.363 477.066 347.099 477.143 347.931 477.143 348.859 477.143 350.918 476.779 352.475 476.049 353.53 475.319 354.584 474.261 355.111 472.876 355.111 471.503 355.111 470.482 354.614 469.814 353.618 469.146 352.622 468.812 351.113 468.812 349.09 468.812 348.033 468.916 347.117 469.123 346.344 469.33 345.571 469.621 344.93 469.995 344.419 470.369 343.909 470.813 343.529 471.327 343.278 471.84 343.028 472.403 342.902 473.015 342.902Z" fill="#4B5E68" fill-rule="evenodd"/><text fill="#000000" fill-opacity="0" font-family="Arial,Arial_MSFontService,sans-serif" font-size="12.209" x="468.812" y="353.585">0</text><text fill="#4B5E68" font-family="Wingdings,Wingdings_MSFontService,sans-serif" font-weight="400" font-size="24" transform="translate(76.137 170)"></text><text fill="#4B5E68" font-family="Arial,Arial_MSFontService,sans-serif" font-weight="400" font-size="24" transform="translate(112.137 170)">Probability that no nosocomial transmission to an inpatient occur in the next week</text><text fill="#4B5E68" font-family="Arial,Arial_MSFontService,sans-serif" font-weight="700" font-size="24" transform="translate(185.59 409)">External source (e.g., visitors)</text><text fill="#4B5E68" font-family="Arial,Arial_MSFontService,sans-serif" font-weight="700" font-size="24" transform="translate(185.59 242)">Internal source (i.e., infected inpatients)</text></g></svg>