<svg width="1282" height="723" xmlns="http://www.w3.org/2000/svg" xmlns:xlink="http://www.w3.org/1999/xlink" overflow="hidden"><g transform="translate(1 2)"><rect x="0" y="0" width="1280" height="720" fill="#FFFFFF"/><text fill="#FFFFFF" font-family="Cambria Math,Cambria Math_MSFontService,sans-serif" font-weight="400" font-size="24" transform="translate(365.587 366)"></text><text fill="#FFFFFF" font-family="Cambria Math,Cambria Math_MSFontService,sans-serif" font-weight="400" font-size="24" transform="translate(370.92 366)"></text><text fill="#FFFFFF" font-family="Cambria Math,Cambria Math_MSFontService,sans-serif" font-weight="400" font-size="24" transform="translate(376.253 366)"></text><text fill="#FFFFFF" font-family="Cambria Math,Cambria Math_MSFontService,sans-serif" font-weight="400" font-size="24" transform="translate(381.587 366)"></text><text fill="#FFFFFF" font-family="Cambria Math,Cambria Math_MSFontService,sans-serif" font-weight="400" font-size="24" transform="translate(386.92 366)"></text><text fill="#FFFFFF" font-family="Cambria Math,Cambria Math_MSFontService,sans-serif" font-weight="400" font-size="24" transform="translate(392.253 366)"></text><text fill="#FFFFFF" font-family="Cambria Math,Cambria Math_MSFontService,sans-serif" font-weight="400" font-size="24" transform="translate(397.587 366)"></text><text fill="#FFFFFF" font-family="Cambria Math,Cambria Math_MSFontService,sans-serif" font-weight="400" font-size="24" transform="translate(402.92 366)"></text><text fill="#FFFFFF" font-family="Cambria Math,Cambria Math_MSFontService,sans-serif" font-weight="400" font-size="24" transform="translate(408.253 366)"></text><text fill="#FFFFFF" font-family="Cambria Math,Cambria Math_MSFontService,sans-serif" font-weight="400" font-size="24" transform="translate(413.587 366)"></text><text fill="#FFFFFF" font-family="Cambria Math,Cambria Math_MSFontService,sans-serif" font-weight="400" font-size="24" transform="translate(418.92 366)"></text><text fill="#FFFFFF" font-family="Cambria Math,Cambria Math_MSFontService,sans-serif" font-weight="400" font-size="24" transform="translate(424.253 366)"></text><text fill="#FFFFFF" font-family="Cambria Math,Cambria Math_MSFontService,sans-serif" font-weight="400" font-size="24" transform="translate(429.587 366)"></text><text fill="#FFFFFF" font-family="Cambria Math,Cambria Math_MSFontService,sans-serif" font-weight="400" font-size="24" transform="translate(434.92 366)"></text><text fill="#FFFFFF" font-family="Cambria Math,Cambria Math_MSFontService,sans-serif" font-weight="400" font-size="24" transform="translate(440.253 366)"></text><text fill="#FFFFFF" font-family="Cambria Math,Cambria Math_MSFontService,sans-serif" font-weight="400" font-size="24" transform="translate(445.587 366)"></text><text fill="#FFFFFF" font-family="Cambria Math,Cambria Math_MSFontService,sans-serif" font-weight="400" font-size="24" transform="translate(450.92 366)">𝑠</text><text fill="#FFFFFF" font-family="Cambria Math,Cambria Math_MSFontService,sans-serif" font-weight="400" font-size="18" transform="translate(461.5 371)">𝑖</text><text fill="#FFFFFF" font-family="Cambria Math,Cambria Math_MSFontService,sans-serif" font-weight="400" font-size="18" transform="translate(468.267 371)">,</text><text fill="#FFFFFF" font-family="Cambria Math,Cambria Math_MSFontService,sans-serif" font-weight="400" font-size="18" transform="translate(471.933 371)">𝑡</text><text fill="#FFFFFF" font-family="Cambria Math,Cambria Math_MSFontService,sans-serif" font-weight="400" font-size="24" transform="translate(484.393 366)"></text><text fill="#FFFFFF" font-family="Cambria Math,Cambria Math_MSFontService,sans-serif" font-weight="400" font-size="24" transform="translate(489.727 366)"></text><text fill="#FFFFFF" font-family="Cambria Math,Cambria Math_MSFontService,sans-serif" font-weight="400" font-size="24" transform="translate(495.06 366)"></text><text fill="#FFFFFF" font-family="Cambria Math,Cambria Math_MSFontService,sans-serif" font-weight="400" font-size="24" transform="translate(503.727 366)">=</text><text fill="#FFFFFF" font-family="Cambria Math,Cambria Math_MSFontService,sans-serif" font-weight="400" font-size="24" transform="translate(525.06 366)"></text><text fill="#FFFFFF" font-family="Cambria Math,Cambria Math_MSFontService,sans-serif" font-weight="400" font-size="24" transform="translate(533.727 366)">𝐴</text><text fill="#FFFFFF" font-family="Cambria Math,Cambria Math_MSFontService,sans-serif" font-weight="400" font-size="18" transform="translate(548.893 371)">𝑖</text><text fill="#FFFFFF" font-family="Cambria Math,Cambria Math_MSFontService,sans-serif" font-weight="400" font-size="24" transform="translate(561.987 366)">×</text><text fill="#FFFFFF" font-family="Cambria Math,Cambria Math_MSFontService,sans-serif" font-weight="400" font-size="24" transform="translate(606.433 348)">𝛼</text><text fill="#FFFFFF" font-family="Cambria Math,Cambria Math_MSFontService,sans-serif" font-weight="400" font-size="24" transform="translate(584.487 382)">𝛽</text><text fill="#FFFFFF" font-family="Cambria Math,Cambria Math_MSFontService,sans-serif" font-weight="400" font-size="24" transform="translate(605.047 382)">−</text><text fill="#FFFFFF" font-family="Cambria Math,Cambria Math_MSFontService,sans-serif" font-weight="400" font-size="24" transform="translate(628.38 382)">𝛼</text><path d="M584.6 358.117 643.6 358.117 643.6 360.117 584.6 360.117Z" fill="#FFFFFF" fill-rule="evenodd"/><text fill="#FFFFFF" font-family="Cambria Math,Cambria Math_MSFontService,sans-serif" font-weight="400" font-size="24" transform="translate(645.44 366)"></text><text fill="#FFFFFF" font-family="Cambria Math,Cambria Math_MSFontService,sans-serif" font-weight="400" font-size="24" transform="translate(652.773 366)">𝑒</text><text fill="#FFFFFF" font-family="Cambria Math,Cambria Math_MSFontService,sans-serif" font-weight="400" font-size="18" transform="translate(665.893 357)">−</text><text fill="#FFFFFF" font-family="Cambria Math,Cambria Math_MSFontService,sans-serif" font-weight="400" font-size="18" transform="translate(678.56 357)">𝛼𝑡</text><path d="M844.068 344.772C846.505 345.412 848.384 347.073 849.705 349.752 851.025 352.432 851.685 355.604 851.685 359.268 851.685 362.932 851.025 366.104 849.705 368.783 848.384 371.463 846.505 373.123 844.068 373.764L843.775 372.803C845.666 372.092 847.097 370.543 848.07 368.156 849.043 365.77 849.529 362.811 849.529 359.28 849.529 355.74 849.043 352.776 848.07 350.385 847.097 347.994 845.666 346.444 843.775 345.733ZM709.08 344.772 709.373 345.733C707.482 346.444 706.051 347.994 705.078 350.385 704.105 352.776 703.619 355.74 703.619 359.28 703.619 362.811 704.105 365.77 705.078 368.156 706.051 370.543 707.482 372.092 709.373 372.803L709.08 373.764C706.642 373.123 704.763 371.463 703.443 368.783 702.123 366.104 701.463 362.932 701.463 359.268 701.463 355.604 702.123 352.432 703.443 349.752 704.763 347.073 706.642 345.412 709.08 344.772Z" fill="#FFFFFF" fill-rule="evenodd"/><text fill="#FFFFFF" font-family="Cambria Math,Cambria Math_MSFontService,sans-serif" font-weight="400" font-size="24" transform="translate(710.133 366)">1</text><text fill="#FFFFFF" font-family="Cambria Math,Cambria Math_MSFontService,sans-serif" font-weight="400" font-size="24" transform="translate(728.8 366)">−</text><text fill="#FFFFFF" font-family="Cambria Math,Cambria Math_MSFontService,sans-serif" font-weight="400" font-size="24" transform="translate(752.133 366)">𝑒</text><text fill="#FFFFFF" font-family="Cambria Math,Cambria Math_MSFontService,sans-serif" font-weight="400" font-size="18" transform="translate(765.253 357)">−</text><path d="M823.151 343.89C824.862 344.341 826.176 345.315 827.093 346.812 828.01 348.309 828.469 350.115 828.469 352.231 828.469 354.352 828.012 356.158 827.098 357.649 826.184 359.14 824.868 360.111 823.151 360.563L822.94 359.886C824.294 359.435 825.3 358.544 825.959 357.214 826.619 355.884 826.948 354.193 826.948 352.143 826.948 350.162 826.62 348.517 825.964 347.208 825.308 345.898 824.291 345.018 822.914 344.567ZM784.819 343.89 785.057 344.567C783.686 345.018 782.67 345.898 782.011 347.208 781.352 348.517 781.023 350.162 781.023 352.143 781.023 354.193 781.352 355.884 782.011 357.214 782.67 358.544 783.677 359.435 785.03 359.886L784.819 360.563C783.103 360.111 781.787 359.14 780.873 357.649 779.959 356.158 779.502 354.352 779.502 352.231 779.502 350.115 779.961 348.309 780.878 346.812 781.794 345.315 783.108 344.341 784.819 343.89Z" fill="#FFFFFF" fill-rule="evenodd"/><text fill="#FFFFFF" font-family="Cambria Math,Cambria Math_MSFontService,sans-serif" font-weight="400" font-size="18" transform="translate(785.193 357)">𝛽</text><text fill="#FFFFFF" font-family="Cambria Math,Cambria Math_MSFontService,sans-serif" font-weight="400" font-size="18" transform="translate(797.72 357)">−</text><text fill="#FFFFFF" font-family="Cambria Math,Cambria Math_MSFontService,sans-serif" font-weight="400" font-size="18" transform="translate(810.387 357)">𝛼</text><text fill="#FFFFFF" font-family="Cambria Math,Cambria Math_MSFontService,sans-serif" font-weight="400" font-size="18" transform="translate(829.853 357)">t</text><text fill="#FFFFFF" font-family="Cambria Math,Cambria Math_MSFontService,sans-serif" font-weight="400" font-size="24" transform="translate(837.68 366)"></text><text fill="#FFFFFF" font-family="Cambria Math,Cambria Math_MSFontService,sans-serif" font-weight="400" font-size="24" transform="translate(853.793 366)"></text><text fill="#FFFFFF" font-family="Cambria Math,Cambria Math_MSFontService,sans-serif" font-weight="400" font-size="24" transform="translate(859.127 366)"></text><text fill="#FFFFFF" font-family="Cambria Math,Cambria Math_MSFontService,sans-serif" font-weight="400" font-size="24" transform="translate(864.46 366)">(</text><text fill="#FFFFFF" font-family="Cambria Math,Cambria Math_MSFontService,sans-serif" font-weight="400" font-size="24" transform="translate(874.46 366)">1𝐵</text><text fill="#FFFFFF" font-family="Cambria Math,Cambria Math_MSFontService,sans-serif" font-weight="400" font-size="24" transform="translate(904.273 366)">)</text><text fill="#FFFFFF" font-family="Cambria Math,Cambria Math_MSFontService,sans-serif" font-weight="400" font-size="24" transform="translate(365.02 410)"></text><text fill="#FFFFFF" font-family="Cambria Math,Cambria Math_MSFontService,sans-serif" font-weight="400" font-size="24" transform="translate(370.353 410)"></text><text fill="#FFFFFF" font-family="Cambria Math,Cambria Math_MSFontService,sans-serif" font-weight="400" font-size="24" transform="translate(375.687 410)"></text><text fill="#FFFFFF" font-family="Cambria Math,Cambria Math_MSFontService,sans-serif" font-weight="400" font-size="24" transform="translate(381.02 410)"></text><text fill="#FFFFFF" font-family="Cambria Math,Cambria Math_MSFontService,sans-serif" font-weight="400" font-size="24" transform="translate(386.353 410)"></text><text fill="#FFFFFF" font-family="Cambria Math,Cambria Math_MSFontService,sans-serif" font-weight="400" font-size="24" transform="translate(391.687 410)"></text><text fill="#FFFFFF" font-family="Cambria Math,Cambria Math_MSFontService,sans-serif" font-weight="400" font-size="24" transform="translate(397.02 410)">𝑙𝑜𝑔</text><text fill="#FFFFFF" font-family="Cambria Math,Cambria Math_MSFontService,sans-serif" font-weight="400" font-size="18" transform="translate(430.647 415)">10</text><text fill="#FFFFFF" font-family="Cambria Math,Cambria Math_MSFontService,sans-serif" font-weight="400" font-size="24" transform="translate(451.973 410)">(</text><text fill="#FFFFFF" font-family="Cambria Math,Cambria Math_MSFontService,sans-serif" font-weight="400" font-size="24" transform="translate(461.973 410)">𝐴</text><text fill="#FFFFFF" font-family="Cambria Math,Cambria Math_MSFontService,sans-serif" font-weight="400" font-size="18" transform="translate(477.14 415)">𝑖</text><text fill="#FFFFFF" font-family="Cambria Math,Cambria Math_MSFontService,sans-serif" font-weight="400" font-size="24" transform="translate(484.9 410)">)</text><text fill="#FFFFFF" font-family="Cambria Math,Cambria Math_MSFontService,sans-serif" font-weight="400" font-size="24" transform="translate(494.9 410)"></text><text fill="#FFFFFF" font-family="Cambria Math,Cambria Math_MSFontService,sans-serif" font-weight="400" font-size="24" transform="translate(500.233 410)"></text><text fill="#FFFFFF" font-family="Cambria Math,Cambria Math_MSFontService,sans-serif" font-weight="400" font-size="24" transform="translate(505.567 410)">~</text><text fill="#FFFFFF" font-family="Cambria Math,Cambria Math_MSFontService,sans-serif" font-weight="400" font-size="24" transform="translate(522.733 410)"></text><text fill="#FFFFFF" font-family="Cambria Math,Cambria Math_MSFontService,sans-serif" font-weight="400" font-size="24" transform="translate(528.067 410)"></text><text fill="#FFFFFF" font-family="Cambria Math,Cambria Math_MSFontService,sans-serif" font-weight="400" font-size="24" transform="translate(533.4 410)">𝑁</text><path d="M611.588 392.15C613.87 392.751 615.622 394.05 616.844 396.046 618.067 398.042 618.678 400.451 618.678 403.271 618.678 406.099 618.069 408.507 616.85 410.495 615.631 412.484 613.877 413.779 611.588 414.38L611.307 413.478C613.112 412.876 614.454 411.689 615.333 409.915 616.211 408.142 616.651 405.888 616.651 403.154 616.651 400.513 616.213 398.32 615.338 396.574 614.463 394.827 613.108 393.654 611.272 393.052ZM560.686 392.15 561.002 393.052C559.174 393.654 557.821 394.827 556.942 396.574 556.063 398.32 555.623 400.513 555.623 403.154 555.623 405.888 556.063 408.142 556.942 409.915 557.821 411.689 559.162 412.876 560.967 413.478L560.686 414.38C558.397 413.779 556.643 412.484 555.424 410.495 554.205 408.507 553.596 406.099 553.596 403.271 553.596 400.451 554.207 398.042 555.43 396.046 556.653 394.05 558.405 392.751 560.686 392.15Z" fill="#FFFFFF" fill-rule="evenodd"/><text fill="#FFFFFF" font-family="Cambria Math,Cambria Math_MSFontService,sans-serif" font-weight="400" font-size="24" transform="translate(561.447 410)">𝜇</text><text fill="#FFFFFF" font-family="Cambria Math,Cambria Math_MSFontService,sans-serif" font-weight="400" font-size="24" transform="translate(575.26 410)">,</text><text fill="#FFFFFF" font-family="Cambria Math,Cambria Math_MSFontService,sans-serif" font-weight="400" font-size="24" transform="translate(584.26 410)">𝜎</text><text fill="#FFFFFF" font-family="Cambria Math,Cambria Math_MSFontService,sans-serif" font-weight="400" font-size="18" transform="translate(596.62 415)">𝑣</text><text fill="#FFFFFF" font-family="Cambria Math,Cambria Math_MSFontService,sans-serif" font-weight="400" font-size="18" transform="translate(599.667 401)">2</text><text fill="#FFFFFF" font-family="Cambria Math,Cambria Math_MSFontService,sans-serif" font-weight="400" font-size="24" transform="translate(620.787 410)"></text><text fill="#FFFFFF" font-family="Cambria Math,Cambria Math_MSFontService,sans-serif" font-weight="400" font-size="24" transform="translate(626.12 410)"></text><text fill="#FFFFFF" font-family="Cambria Math,Cambria Math_MSFontService,sans-serif" font-weight="400" font-size="24" transform="translate(631.453 410)"></text><text fill="#FFFFFF" font-family="Cambria Math,Cambria Math_MSFontService,sans-serif" font-weight="400" font-size="24" transform="translate(636.787 410)"></text><text fill="#FFFFFF" font-family="Cambria Math,Cambria Math_MSFontService,sans-serif" font-weight="400" font-size="24" transform="translate(642.12 410)"></text><text fill="#FFFFFF" font-family="Cambria Math,Cambria Math_MSFontService,sans-serif" font-weight="400" font-size="24" transform="translate(647.453 410)"></text><text fill="#FFFFFF" font-family="Cambria Math,Cambria Math_MSFontService,sans-serif" font-weight="400" font-size="24" transform="translate(652.787 410)"></text><text fill="#FFFFFF" font-family="Cambria Math,Cambria Math_MSFontService,sans-serif" font-weight="400" font-size="24" transform="translate(658.12 410)"></text><text fill="#FFFFFF" font-family="Cambria Math,Cambria Math_MSFontService,sans-serif" font-weight="400" font-size="24" transform="translate(663.453 410)"></text><text fill="#FFFFFF" font-family="Cambria Math,Cambria Math_MSFontService,sans-serif" font-weight="400" font-size="24" transform="translate(668.787 410)"></text><text fill="#FFFFFF" font-family="Cambria Math,Cambria Math_MSFontService,sans-serif" font-weight="400" font-size="24" transform="translate(674.12 410)"></text><text fill="#FFFFFF" font-family="Cambria Math,Cambria Math_MSFontService,sans-serif" font-weight="400" font-size="24" transform="translate(679.453 410)"></text><text fill="#FFFFFF" font-family="Cambria Math,Cambria Math_MSFontService,sans-serif" font-weight="400" font-size="24" transform="translate(684.787 410)"></text><text fill="#FFFFFF" font-family="Cambria Math,Cambria Math_MSFontService,sans-serif" font-weight="400" font-size="24" transform="translate(690.12 410)"></text><text fill="#FFFFFF" font-family="Cambria Math,Cambria Math_MSFontService,sans-serif" font-weight="400" font-size="24" transform="translate(695.453 410)"></text><text fill="#FFFFFF" font-family="Cambria Math,Cambria Math_MSFontService,sans-serif" font-weight="400" font-size="24" transform="translate(700.787 410)"></text><text fill="#FFFFFF" font-family="Cambria Math,Cambria Math_MSFontService,sans-serif" font-weight="400" font-size="24" transform="translate(706.12 410)"></text><text fill="#FFFFFF" font-family="Cambria Math,Cambria Math_MSFontService,sans-serif" font-weight="400" font-size="24" transform="translate(711.453 410)"></text><text fill="#FFFFFF" font-family="Cambria Math,Cambria Math_MSFontService,sans-serif" font-weight="400" font-size="24" transform="translate(716.787 410)"></text><text fill="#FFFFFF" font-family="Cambria Math,Cambria Math_MSFontService,sans-serif" font-weight="400" font-size="24" transform="translate(722.12 410)"></text><text fill="#FFFFFF" font-family="Cambria Math,Cambria Math_MSFontService,sans-serif" font-weight="400" font-size="24" transform="translate(727.453 410)"></text><text fill="#FFFFFF" font-family="Cambria Math,Cambria Math_MSFontService,sans-serif" font-weight="400" font-size="24" transform="translate(732.787 410)"></text><text fill="#FFFFFF" font-family="Cambria Math,Cambria Math_MSFontService,sans-serif" font-weight="400" font-size="24" transform="translate(738.12 410)"></text><text fill="#FFFFFF" font-family="Cambria Math,Cambria Math_MSFontService,sans-serif" font-weight="400" font-size="24" transform="translate(743.453 410)"></text><text fill="#FFFFFF" font-family="Cambria Math,Cambria Math_MSFontService,sans-serif" font-weight="400" font-size="24" transform="translate(748.787 410)"></text><text fill="#FFFFFF" font-family="Cambria Math,Cambria Math_MSFontService,sans-serif" font-weight="400" font-size="24" transform="translate(754.12 410)"></text><text fill="#FFFFFF" font-family="Cambria Math,Cambria Math_MSFontService,sans-serif" font-weight="400" font-size="24" transform="translate(759.453 410)"></text><text fill="#FFFFFF" font-family="Cambria Math,Cambria Math_MSFontService,sans-serif" font-weight="400" font-size="24" transform="translate(764.787 410)"></text><text fill="#FFFFFF" font-family="Cambria Math,Cambria Math_MSFontService,sans-serif" font-weight="400" font-size="24" transform="translate(770.12 410)"></text><text fill="#FFFFFF" font-family="Cambria Math,Cambria Math_MSFontService,sans-serif" font-weight="400" font-size="24" transform="translate(775.453 410)"></text><text fill="#FFFFFF" font-family="Cambria Math,Cambria Math_MSFontService,sans-serif" font-weight="400" font-size="24" transform="translate(780.787 410)"></text><text fill="#FFFFFF" font-family="Cambria Math,Cambria Math_MSFontService,sans-serif" font-weight="400" font-size="24" transform="translate(786.12 410)"></text><text fill="#FFFFFF" font-family="Cambria Math,Cambria Math_MSFontService,sans-serif" font-weight="400" font-size="24" transform="translate(791.453 410)"></text><text fill="#FFFFFF" font-family="Cambria Math,Cambria Math_MSFontService,sans-serif" font-weight="400" font-size="24" transform="translate(796.787 410)"></text><text fill="#FFFFFF" font-family="Cambria Math,Cambria Math_MSFontService,sans-serif" font-weight="400" font-size="24" transform="translate(802.12 410)"></text><text fill="#FFFFFF" font-family="Cambria Math,Cambria Math_MSFontService,sans-serif" font-weight="400" font-size="24" transform="translate(807.453 410)"></text><text fill="#FFFFFF" font-family="Cambria Math,Cambria Math_MSFontService,sans-serif" font-weight="400" font-size="24" transform="translate(812.787 410)"></text><text fill="#FFFFFF" font-family="Cambria Math,Cambria Math_MSFontService,sans-serif" font-weight="400" font-size="24" transform="translate(818.12 410)"></text><text fill="#FFFFFF" font-family="Cambria Math,Cambria Math_MSFontService,sans-serif" font-weight="400" font-size="24" transform="translate(823.453 410)"></text><text fill="#FFFFFF" font-family="Cambria Math,Cambria Math_MSFontService,sans-serif" font-weight="400" font-size="24" transform="translate(828.787 410)"></text><text fill="#FFFFFF" font-family="Cambria Math,Cambria Math_MSFontService,sans-serif" font-weight="400" font-size="24" transform="translate(834.12 410)"></text><text fill="#FFFFFF" font-family="Cambria Math,Cambria Math_MSFontService,sans-serif" font-weight="400" font-size="24" transform="translate(839.453 410)"></text><text fill="#FFFFFF" font-family="Cambria Math,Cambria Math_MSFontService,sans-serif" font-weight="400" font-size="24" transform="translate(844.787 410)"></text><text fill="#FFFFFF" font-family="Cambria Math,Cambria Math_MSFontService,sans-serif" font-weight="400" font-size="24" transform="translate(850.12 410)"></text><text fill="#FFFFFF" font-family="Cambria Math,Cambria Math_MSFontService,sans-serif" font-weight="400" font-size="24" transform="translate(855.453 410)"></text><text fill="#FFFFFF" font-family="Cambria Math,Cambria Math_MSFontService,sans-serif" font-weight="400" font-size="24" transform="translate(860.787 410)"></text><text fill="#FFFFFF" font-family="Cambria Math,Cambria Math_MSFontService,sans-serif" font-weight="400" font-size="24" transform="translate(866.12 410)">(</text><text fill="#FFFFFF" font-family="Cambria Math,Cambria Math_MSFontService,sans-serif" font-weight="400" font-size="24" transform="translate(876.12 410)">1𝐶</text><text fill="#FFFFFF" font-family="Cambria Math,Cambria Math_MSFontService,sans-serif" font-weight="400" font-size="24" transform="translate(904.84 410)">)</text><rect x="0.500053" y="0.500053" width="321" height="37" stroke="#7F7F7F" stroke-width="1.33333" stroke-miterlimit="8" fill="#D9D9D9"/><text fill="#A6A6A6" font-family="Arial,Arial_MSFontService,sans-serif" font-weight="700" font-size="21" transform="translate(98.3799 27)">Introduction</text><rect x="320.5" y="0.500053" width="321" height="37" stroke="#7F7F7F" stroke-width="1.33333" stroke-miterlimit="8" fill="#4B5E68"/><text fill="#FFFFFF" font-family="Arial,Arial_MSFontService,sans-serif" font-weight="700" font-size="21" transform="translate(376.718 27)">Materials &amp; Methods</text><rect x="639.5" y="0.500053" width="321" height="37" stroke="#7F7F7F" stroke-width="1.33333" stroke-miterlimit="8" fill="#D9D9D9"/><text fill="#A6A6A6" font-family="Arial,Arial_MSFontService,sans-serif" font-weight="700" font-size="21" transform="translate(690.449 27)">Results &amp; Discussion</text><rect x="959.5" y="0.500053" width="321" height="37" stroke="#7F7F7F" stroke-width="1.33333" stroke-miterlimit="8" fill="#D9D9D9"/><text fill="#A6A6A6" font-family="Arial,Arial_MSFontService,sans-serif" font-weight="700" font-size="21" transform="translate(1061.32 27)">Conclusion</text><text fill="#4B5E68" font-family="Arial,Arial_MSFontService,sans-serif" font-weight="700" font-size="37" transform="translate(78.4696 97)">Estimation of</text><text fill="#4B5E68" font-family="Arial,Arial_MSFontService,sans-serif" font-style="italic" font-weight="700" font-size="37" transform="translate(325.47 97)">I</text><text fill="#4B5E68" font-family="Arial,Arial_MSFontService,sans-serif" font-weight="700" font-size="25" transform="translate(335.803 105)">new</text><text fill="#4B5E68" font-family="Arial,Arial_MSFontService,sans-serif" font-weight="700" font-size="37" transform="translate(384.136 97)">(</text><text fill="#4B5E68" font-family="Arial,Arial_MSFontService,sans-serif" font-style="italic" font-weight="700" font-size="37" transform="translate(396.636 97)">t</text><text fill="#4B5E68" font-family="Arial,Arial_MSFontService,sans-serif" font-weight="700" font-size="37" transform="translate(409.136 97)">) and</text><text fill="#4B5E68" font-family="Arial,Arial_MSFontService,sans-serif" font-style="italic" font-weight="700" font-size="37" transform="translate(508.803 97)">R</text><text fill="#4B5E68" font-family="Arial,Arial_MSFontService,sans-serif" font-weight="700" font-size="25" transform="translate(535.803 86)">eff</text><text fill="#4B5E68" font-family="Arial,Arial_MSFontService,sans-serif" font-weight="700" font-size="37" transform="translate(566.303 97)">(</text><text fill="#4B5E68" font-family="Arial,Arial_MSFontService,sans-serif" font-style="italic" font-weight="700" font-size="37" transform="translate(578.803 97)">t</text><text fill="#4B5E68" font-family="Arial,Arial_MSFontService,sans-serif" font-weight="700" font-size="37" transform="translate(591.303 97)">) through wastewater surveillance</text><path d="M91.5001 176.5 1187.56 176.5" stroke="#4B5E68" stroke-miterlimit="8" stroke-dasharray="8 3" fill="none" fill-rule="evenodd"/><text fill="#4B5E68" font-family="Arial,Arial_MSFontService,sans-serif" font-weight="400" font-size="24" transform="translate(100.387 148)">A state</text><text fill="#4B5E68" font-family="Arial,Arial_MSFontService,sans-serif" font-weight="400" font-size="24" transform="translate(173.727 148)">-</text><text fill="#4B5E68" font-family="Arial,Arial_MSFontService,sans-serif" font-weight="400" font-size="24" transform="translate(181.727 148)">space model is used to estimate</text><text fill="#4B5E68" font-family="Arial,Arial_MSFontService,sans-serif" font-style="italic" font-weight="400" font-size="24" transform="translate(531.061 148)">I</text><text fill="#4B5E68" font-family="Arial,Arial_MSFontService,sans-serif" font-weight="400" font-size="16" transform="translate(537.727 153)">new</text><text fill="#4B5E68" font-family="Arial,Arial_MSFontService,sans-serif" font-weight="400" font-size="24" transform="translate(566.894 148)">(</text><text fill="#4B5E68" font-family="Arial,Arial_MSFontService,sans-serif" font-style="italic" font-weight="400" font-size="24" transform="translate(574.894 148)">t</text><text fill="#4B5E68" font-family="Arial,Arial_MSFontService,sans-serif" font-weight="400" font-size="24" transform="translate(581.561 148)">) and</text><text fill="#4B5E68" font-family="Arial,Arial_MSFontService,sans-serif" font-style="italic" font-weight="400" font-size="24" transform="translate(642.894 148)">R</text><text fill="#4B5E68" font-family="Arial,Arial_MSFontService,sans-serif" font-weight="400" font-size="16" transform="translate(660.227 141)">eff</text><text fill="#4B5E68" font-family="Arial,Arial_MSFontService,sans-serif" font-weight="400" font-size="24" transform="translate(677.774 148)">(</text><text fill="#4B5E68" font-family="Arial,Arial_MSFontService,sans-serif" font-style="italic" font-weight="400" font-size="24" transform="translate(685.774 148)">t</text><text fill="#4B5E68" font-family="Arial,Arial_MSFontService,sans-serif" font-weight="400" font-size="24" transform="translate(692.441 148)">) from municipal wastewater surveillance data</text><path d="M684.5 244C684.5 223.289 701.289 206.5 722 206.5 742.711 206.5 759.5 223.289 759.5 244 759.5 264.711 742.711 281.5 722 281.5 701.289 281.5 684.5 264.711 684.5 244Z" stroke="#000000" stroke-width="1.33333" stroke-miterlimit="8" stroke-dasharray="5.33333 4" fill="#D9D9D9" fill-rule="evenodd" fill-opacity="0.301961"/><text font-family="Arial,Arial_MSFontService,sans-serif" font-weight="400" font-size="19" transform="translate(691.836 247)">R</text><text font-family="Arial,Arial_MSFontService,sans-serif" font-weight="400" font-size="12" transform="translate(705.336 241)">eff</text><text font-family="Arial,Arial_MSFontService,sans-serif" font-weight="400" font-size="19" transform="translate(719.109 247)">(t+1)</text><path d="M79.5001 239.5C79.5001 218.513 96.2894 201.5 117 201.5 137.711 201.5 154.5 218.513 154.5 239.5 154.5 260.487 137.711 277.5 117 277.5 96.2894 277.5 79.5001 260.487 79.5001 239.5Z" stroke="#000000" stroke-width="1.33333" stroke-miterlimit="8" stroke-dasharray="5.33333 4" fill="#D9D9D9" fill-rule="evenodd" fill-opacity="0.298039"/><text font-family="Arial,Arial_MSFontService,sans-serif" font-weight="400" font-size="19" transform="translate(92.0109 246)">R</text><text font-family="Arial,Arial_MSFontService,sans-serif" font-weight="400" font-size="12" transform="translate(105.511 240)">eff</text><text font-family="Arial,Arial_MSFontService,sans-serif" font-weight="400" font-size="19" transform="translate(119.284 246)">(t</text><text font-family="Arial,Arial_MSFontService,sans-serif" font-weight="400" font-size="19" transform="translate(130.618 246)">-</text><text font-family="Arial,Arial_MSFontService,sans-serif" font-weight="400" font-size="19" transform="translate(136.784 246)">1)</text><path d="M81.5001 368C81.5001 347.289 98.2894 330.5 119 330.5 139.711 330.5 156.5 347.289 156.5 368 156.5 388.711 139.711 405.5 119 405.5 98.2894 405.5 81.5001 388.711 81.5001 368Z" stroke="#984807" stroke-width="1.33333" stroke-miterlimit="8" stroke-dasharray="5.33333 4" fill="#D9D9D9" fill-rule="evenodd" fill-opacity="0.301961"/><text font-family="Arial,Arial_MSFontService,sans-serif" font-weight="400" font-size="19" transform="translate(85.9981 375)">I</text><text font-family="Arial,Arial_MSFontService,sans-serif" font-weight="400" font-size="12" transform="translate(91.1647 379)">new</text><text font-family="Arial,Arial_MSFontService,sans-serif" font-weight="400" font-size="19" transform="translate(114.165 375)">(t</text><text font-family="Arial,Arial_MSFontService,sans-serif" font-weight="400" font-size="19" transform="translate(125.498 375)">-</text><text font-family="Arial,Arial_MSFontService,sans-serif" font-weight="400" font-size="19" transform="translate(131.665 375)">1)</text><path d="M367.5 241C367.5 220.289 384.289 203.5 405 203.5 425.711 203.5 442.5 220.289 442.5 241 442.5 261.711 425.711 278.5 405 278.5 384.289 278.5 367.5 261.711 367.5 241Z" stroke="#A0234E" stroke-width="1.33333" stroke-miterlimit="8" fill="#F6D6E1" fill-rule="evenodd"/><text font-family="Arial,Arial_MSFontService,sans-serif" font-weight="400" font-size="19" transform="translate(382.096 244)">R</text><text font-family="Arial,Arial_MSFontService,sans-serif" font-weight="400" font-size="12" transform="translate(395.596 238)">eff</text><text font-family="Arial,Arial_MSFontService,sans-serif" font-weight="400" font-size="19" transform="translate(409.369 244)">(t)</text><path d="M370.5 365C370.5 344.289 387.289 327.5 408 327.5 428.711 327.5 445.5 344.289 445.5 365 445.5 385.711 428.711 402.5 408 402.5 387.289 402.5 370.5 385.711 370.5 365Z" stroke="#6B1834" stroke-width="1.33333" stroke-miterlimit="8" fill="#F6D6E1" fill-rule="evenodd"/><text font-family="Arial,Arial_MSFontService,sans-serif" font-weight="400" font-size="19" transform="translate(382.427 371)">I</text><text font-family="Arial,Arial_MSFontService,sans-serif" font-weight="400" font-size="12" transform="translate(387.593 375)">new</text><text font-family="Arial,Arial_MSFontService,sans-serif" font-weight="400" font-size="19" transform="translate(410.593 371)">(t)</text><path d="M189.5 236 329.402 236 329.402 239 189.5 239ZM327.902 233 336.902 237.5 327.902 242Z" fill="#5F696E"/><path d="M457.5 236 650.315 236 650.315 239 457.5 239ZM648.815 233 657.815 237.5 648.815 242Z" fill="#5F696E"/><path d="M117 286.5 117 309.153 114 309.153 114 286.5ZM120 307.653 115.5 316.653 111 307.653Z" fill="#5F696E"/><path d="M800.5 512C800.5 489.08 819.08 470.5 842 470.5 864.92 470.5 883.5 489.08 883.5 512 883.5 534.92 864.92 553.5 842 553.5 819.08 553.5 800.5 534.92 800.5 512Z" stroke="#000000" stroke-width="1.33333" stroke-miterlimit="8" fill="#E0EBF6" fill-rule="evenodd"/><path d="M535.5 513C535.5 490.08 554.08 471.5 577 471.5 599.92 471.5 618.5 490.08 618.5 513 618.5 535.92 599.92 554.5 577 554.5 554.08 554.5 535.5 535.92 535.5 513Z" stroke="#000000" stroke-width="1.33333" stroke-miterlimit="8" fill="#E0EBF6" fill-rule="evenodd"/><text font-family="Arial,Arial_MSFontService,sans-serif" font-weight="400" font-size="19" transform="translate(560.44 517)">W(t)</text><text font-family="Arial,Arial_MSFontService,sans-serif" font-weight="400" font-size="19" transform="translate(826.447 521)">P(t)</text><path d="M409 286.5 409 309.153 406 309.153 406 286.5ZM412 307.653 407.5 316.653 403 307.653Z" fill="#5F696E"/><path d="M536.5 652C536.5 629.08 555.08 610.5 578 610.5 600.92 610.5 619.5 629.08 619.5 652 619.5 674.92 600.92 693.5 578 693.5 555.08 693.5 536.5 674.92 536.5 652Z" stroke="#000000" stroke-width="1.33333" stroke-miterlimit="8" fill="#264980" fill-rule="evenodd"/><text fill="#FFFFFF" font-family="Arial,Arial_MSFontService,sans-serif" font-weight="400" font-size="19" transform="translate(555.508 658)">W</text><text fill="#FFFFFF" font-family="Arial,Arial_MSFontService,sans-serif" font-weight="400" font-size="12" transform="translate(573.175 662)">m</text><text fill="#FFFFFF" font-family="Arial,Arial_MSFontService,sans-serif" font-weight="400" font-size="19" transform="translate(583.508 658)">(t)</text><path d="M800.5 653C800.5 630.08 819.08 611.5 842 611.5 864.92 611.5 883.5 630.08 883.5 653 883.5 675.92 864.92 694.5 842 694.5 819.08 694.5 800.5 675.92 800.5 653Z" stroke="#000000" stroke-width="1.33333" stroke-miterlimit="8" fill="#264980" fill-rule="evenodd"/><text fill="#FFFFFF" font-family="Arial,Arial_MSFontService,sans-serif" font-weight="400" font-size="19" transform="translate(820.78 660)">N</text><text fill="#FFFFFF" font-family="Arial,Arial_MSFontService,sans-serif" font-weight="400" font-size="12" transform="translate(834.28 664)">m</text><text fill="#FFFFFF" font-family="Arial,Arial_MSFontService,sans-serif" font-weight="400" font-size="19" transform="translate(844.613 660)">(t)</text><path d="M1.5-3.79835e-06 1.50009 33.9602-1.49991 33.9602-1.5 3.79835e-06ZM4.50008 32.4601 0.000104987 41.4602-4.49992 32.4602Z" fill="#5F696E" transform="matrix(1 0 0 -1 841.5 603.96)"/><path d="M1.5-3.79835e-06 1.50009 33.9602-1.49991 33.9602-1.5 3.79835e-06ZM4.50008 32.4601 0.000104987 41.4602-4.49992 32.4602Z" fill="#5F696E" transform="matrix(1 0 0 -1 579.5 601.96)"/><path d="M646.5 507 767.504 507 767.504 510 646.5 510ZM766.004 504 775.004 508.5 766.004 513Z" fill="#5F696E"/><text fill="#4B5E68" font-family="Arial,Arial_MSFontService,sans-serif" font-weight="700" font-size="21" transform="translate(250.488 654)">Observation</text><text fill="#4B5E68" font-family="Arial,Arial_MSFontService,sans-serif" font-weight="700" font-size="21" transform="translate(380.988 654)">data</text><text fill="#4B5E68" font-family="Arial,Arial_MSFontService,sans-serif" font-weight="400" font-size="19" transform="translate(804.399 434)">Detection</text><text fill="#4B5E68" font-family="Arial,Arial_MSFontService,sans-serif" font-weight="400" font-size="19" transform="translate(801.312 457)">probability</text><text fill="#4B5E68" font-family="Arial,Arial_MSFontService,sans-serif" font-weight="400" font-size="19" transform="translate(533.41 431)">Wastewater</text><text fill="#4B5E68" font-family="Arial,Arial_MSFontService,sans-serif" font-weight="400" font-size="19" transform="translate(526.397 454)">concentration</text><path d="M578 360.5 578 363.5 575 363.5 575 360.5ZM578 366.5 578 369.5 575 369.5 575 366.5ZM578 372.5 578 375.5 575 375.5 575 372.5ZM578 378.5 578 381.5 575 381.5 575 378.5ZM578 384.5 578 387.5 575 387.5 575 384.5ZM578 390.5 578 393.5 575 393.5 575 390.5ZM578 396.5 578 398.354 575 398.354 575 396.5ZM581 396.854 576.5 405.854 572 396.854Z" fill="#5F696E"/><path d="M464.5 362.5 574.106 362.5" stroke="#5F696E" stroke-width="3" stroke-miterlimit="8" stroke-dasharray="3 3" fill="none" fill-rule="evenodd"/><path d="M687.5 374.5C687.5 353.513 704.513 336.5 725.5 336.5 746.487 336.5 763.5 353.513 763.5 374.5 763.5 395.487 746.487 412.5 725.5 412.5 704.513 412.5 687.5 395.487 687.5 374.5Z" stroke="#984807" stroke-width="1.33333" stroke-miterlimit="8" stroke-dasharray="5.33333 4" fill="#D9D9D9" fill-rule="evenodd" fill-opacity="0.301961"/><text font-family="Arial,Arial_MSFontService,sans-serif" font-weight="400" font-size="19" transform="translate(690.184 382)">I</text><text font-family="Arial,Arial_MSFontService,sans-serif" font-weight="400" font-size="12" transform="translate(695.35 386)">new</text><text font-family="Arial,Arial_MSFontService,sans-serif" font-weight="400" font-size="19" transform="translate(718.35 382)">(</text><text font-family="Arial,Arial_MSFontService,sans-serif" font-weight="400" font-size="19" transform="translate(724.517 382)">t</text><text font-family="Arial,Arial_MSFontService,sans-serif" font-weight="400" font-size="19" transform="translate(729.684 382)">+</text><text font-family="Arial,Arial_MSFontService,sans-serif" font-weight="400" font-size="19" transform="translate(740.517 382)">1</text><text font-family="Arial,Arial_MSFontService,sans-serif" font-weight="400" font-size="19" transform="translate(750.85 382)">)</text><path d="M724 287.5 724 310.153 721 310.153 721 287.5ZM727 308.653 722.5 317.653 718 308.653Z" fill="#5F696E"/><text fill="#4B5E68" font-family="Arial,Arial_MSFontService,sans-serif" font-weight="400" font-size="24" transform="translate(969.679 278)">Assumed parameters</text><text fill="#4B5E68" font-family="Arial,Arial_MSFontService,sans-serif" font-weight="400" font-size="24" transform="translate(959.125 374)">•</text><text fill="#4B5E68" font-family="Arial,Arial_MSFontService,sans-serif" font-weight="400" font-size="24" transform="translate(995.125 374)">Generation interval</text><text fill="#4B5E68" font-family="Arial,Arial_MSFontService,sans-serif" font-weight="400" font-size="24" transform="translate(959.125 432)">•</text><text fill="#4B5E68" font-family="Arial,Arial_MSFontService,sans-serif" font-weight="400" font-size="24" transform="translate(995.125 432)">Shedding</text><text fill="#4B5E68" font-family="Arial,Arial_MSFontService,sans-serif" font-weight="400" font-size="24" transform="translate(1103.12 432)">distributio</text><text fill="#4B5E68" font-family="Arial,Arial_MSFontService,sans-serif" font-weight="400" font-size="24" transform="translate(1205.79 432)">n</text></g></svg>