<svg width="1282" height="724" xmlns="http://www.w3.org/2000/svg" xmlns:xlink="http://www.w3.org/1999/xlink" overflow="hidden"><g transform="translate(1 3)"><rect x="0" y="0" width="1280" height="720" fill="#FFFFFF"/><text fill="#4B5E68" font-family="Arial,Arial_MSFontService,sans-serif" font-weight="700" font-size="32" transform="translate(70.6233 89)">Correlation</text><text fill="#4B5E68" font-family="Arial,Arial_MSFontService,sans-serif" font-weight="700" font-size="32" transform="translate(250.123 89)">between</text><text fill="#4B5E68" font-family="Arial,Arial_MSFontService,sans-serif" font-weight="700" font-size="32" transform="translate(386.957 89)">the number of new COVID</text><text fill="#4B5E68" font-family="Arial,Arial_MSFontService,sans-serif" font-weight="700" font-size="32" transform="translate(781.29 89)">-</text><text fill="#4B5E68" font-family="Arial,Arial_MSFontService,sans-serif" font-weight="700" font-size="32" transform="translate(791.957 89)">19 cases in Sapporo City an</text><text fill="#4B5E68" font-family="Arial,Arial_MSFontService,sans-serif" font-weight="700" font-size="32" transform="translate(1216.79 89)">d</text><text fill="#4B5E68" font-family="Arial,Arial_MSFontService,sans-serif" font-weight="700" font-size="32" transform="translate(227.037 128)">the number of newly infected staff at Hokkaido Hospital.</text><rect x="0.500053" y="-1.50005" width="1280" height="37.0001" stroke="#7F7F7F" stroke-width="1.33333" stroke-miterlimit="8" fill="#D9D9D9"/><text fill="#4B5E68" font-family="Arial,Arial_MSFontService,sans-serif" font-weight="700" font-size="21" transform="translate(392 25)">Supplemental methods for real</text><text fill="#4B5E68" font-family="Arial,Arial_MSFontService,sans-serif" font-weight="700" font-size="21" transform="translate(705.167 25)">-</text><text fill="#4B5E68" font-family="Arial,Arial_MSFontService,sans-serif" font-weight="700" font-size="21" transform="translate(712.333 25)">world application</text><rect x="258" y="239" width="680" height="451" fill="#FFFFFF"/><g><path d="M0 0 0.000104987 346" stroke="#000000" stroke-width="1.33333" stroke-linejoin="round" stroke-miterlimit="10" fill="none" fill-rule="evenodd" transform="matrix(1 0 0 -1 384.5 605.5)"/></g><g><path d="M381.5 605.5 384.5 605.5M381.5 490.5 384.5 490.5M381.5 375.5 384.5 375.5M381.5 259.5 384.5 259.5" stroke="#000000" stroke-width="1.33333" stroke-linejoin="round" stroke-miterlimit="10" fill="none"/></g><g><path d="M384.5 605.5 872.5 605.5" stroke="#000000" stroke-width="1.33333" stroke-linejoin="round" stroke-miterlimit="10" fill="none" fill-rule="evenodd"/></g><g><path d="M384.5 605.5 384.5 609.5M628.5 605.5 628.5 609.5M872.5 605.5 872.5 609.5" stroke="#000000" stroke-width="1.33333" stroke-linejoin="round" stroke-miterlimit="10" fill="none"/></g><g><path d="M392.363 588.115C392.363 592.165 389.08 595.448 385.03 595.448 380.979 595.448 377.696 592.165 377.696 588.115 377.696 584.065 380.979 580.781 385.03 580.781 389.08 580.781 392.363 584.065 392.363 588.115Z" stroke="#000000" stroke-linejoin="round" stroke-miterlimit="10" fill="#93CDDD"/><path d="M392.363 592.115C392.363 596.165 389.08 599.448 385.03 599.448 380.979 599.448 377.696 596.165 377.696 592.115 377.696 588.065 380.979 584.781 385.03 584.781 389.08 584.781 392.363 588.065 392.363 592.115Z" stroke="#000000" stroke-linejoin="round" stroke-miterlimit="10" fill="#93CDDD"/><path d="M392.363 580.448C392.363 584.498 389.08 587.781 385.03 587.781 380.979 587.781 377.696 584.498 377.696 580.448 377.696 576.398 380.979 573.115 385.03 573.115 389.08 573.115 392.363 576.398 392.363 580.448Z" stroke="#000000" stroke-linejoin="round" stroke-miterlimit="10" fill="#93CDDD"/><path d="M392.363 583.615C392.363 587.665 389.08 590.948 385.03 590.948 380.979 590.948 377.696 587.665 377.696 583.615 377.696 579.565 380.979 576.281 385.03 576.281 389.08 576.281 392.363 579.565 392.363 583.615Z" stroke="#000000" stroke-linejoin="round" stroke-miterlimit="10" fill="#93CDDD"/><path d="M392.363 556.448C392.363 560.498 389.08 563.781 385.03 563.781 380.979 563.781 377.696 560.498 377.696 556.448 377.696 552.398 380.979 549.115 385.03 549.115 389.08 549.115 392.363 552.398 392.363 556.448Z" stroke="#000000" stroke-linejoin="round" stroke-miterlimit="10" fill="#93CDDD"/><path d="M392.363 539.115C392.363 543.165 389.08 546.448 385.03 546.448 380.979 546.448 377.696 543.165 377.696 539.115 377.696 535.065 380.979 531.781 385.03 531.781 389.08 531.781 392.363 535.065 392.363 539.115Z" stroke="#000000" stroke-linejoin="round" stroke-miterlimit="10" fill="#93CDDD"/><path d="M392.363 488.615C392.363 492.665 389.08 495.948 385.03 495.948 380.979 495.948 377.696 492.665 377.696 488.615 377.696 484.565 380.979 481.281 385.03 481.281 389.08 481.281 392.363 484.565 392.363 488.615Z" stroke="#000000" stroke-linejoin="round" stroke-miterlimit="10" fill="#93CDDD"/><path d="M392.363 472.448C392.363 476.498 389.08 479.781 385.03 479.781 380.979 479.781 377.696 476.498 377.696 472.448 377.696 468.398 380.979 465.115 385.03 465.115 389.08 465.115 392.363 468.398 392.363 472.448Z" stroke="#000000" stroke-linejoin="round" stroke-miterlimit="10" fill="#93CDDD"/><path d="M392.363 446.115C392.363 450.165 389.08 453.448 385.03 453.448 380.979 453.448 377.696 450.165 377.696 446.115 377.696 442.065 380.979 438.781 385.03 438.781 389.08 438.781 392.363 442.065 392.363 446.115Z" stroke="#000000" stroke-linejoin="round" stroke-miterlimit="10" fill="#93CDDD"/><path d="M392.363 490.948C392.363 494.998 389.08 498.281 385.03 498.281 380.979 498.281 377.696 494.998 377.696 490.948 377.696 486.898 380.979 483.615 385.03 483.615 389.08 483.615 392.363 486.898 392.363 490.948Z" stroke="#000000" stroke-linejoin="round" stroke-miterlimit="10" fill="#93CDDD"/><path d="M392.363 474.615C392.363 478.665 389.08 481.948 385.03 481.948 380.979 481.948 377.696 478.665 377.696 474.615 377.696 470.565 380.979 467.281 385.03 467.281 389.08 467.281 392.363 470.565 392.363 474.615Z" stroke="#000000" stroke-linejoin="round" stroke-miterlimit="10" fill="#93CDDD"/><path d="M508.696 456.781C508.696 460.831 505.413 464.115 501.363 464.115 497.313 464.115 494.03 460.831 494.03 456.781 494.03 452.731 497.313 449.448 501.363 449.448 505.413 449.448 508.696 452.731 508.696 456.781Z" stroke="#000000" stroke-linejoin="round" stroke-miterlimit="10" fill="#93CDDD"/><path d="M539.03 463.448C539.03 467.498 535.746 470.781 531.696 470.781 527.646 470.781 524.363 467.498 524.363 463.448 524.363 459.398 527.646 456.115 531.696 456.115 535.746 456.115 539.03 459.398 539.03 463.448Z" stroke="#000000" stroke-linejoin="round" stroke-miterlimit="10" fill="#93CDDD"/><path d="M392.363 523.448C392.363 527.498 389.08 530.781 385.03 530.781 380.979 530.781 377.696 527.498 377.696 523.448 377.696 519.398 380.979 516.115 385.03 516.115 389.08 516.115 392.363 519.398 392.363 523.448Z" stroke="#000000" stroke-linejoin="round" stroke-miterlimit="10" fill="#93CDDD"/><path d="M392.363 564.948C392.363 568.998 389.08 572.281 385.03 572.281 380.979 572.281 377.696 568.998 377.696 564.948 377.696 560.898 380.979 557.615 385.03 557.615 389.08 557.615 392.363 560.898 392.363 564.948Z" stroke="#000000" stroke-linejoin="round" stroke-miterlimit="10" fill="#93CDDD"/><path d="M465.696 480.948C465.696 484.998 462.413 488.281 458.363 488.281 454.313 488.281 451.03 484.998 451.03 480.948 451.03 476.898 454.313 473.615 458.363 473.615 462.413 473.615 465.696 476.898 465.696 480.948Z" stroke="#000000" stroke-linejoin="round" stroke-miterlimit="10" fill="#93CDDD"/><path d="M562.696 411.281C562.696 415.331 559.413 418.615 555.363 418.615 551.313 418.615 548.03 415.331 548.03 411.281 548.03 407.231 551.313 403.948 555.363 403.948 559.413 403.948 562.696 407.231 562.696 411.281Z" stroke="#000000" stroke-linejoin="round" stroke-miterlimit="10" fill="#93CDDD"/><path d="M698.196 381.448C698.196 385.498 694.913 388.781 690.863 388.781 686.813 388.781 683.53 385.498 683.53 381.448 683.53 377.398 686.813 374.115 690.863 374.115 694.913 374.115 698.196 377.398 698.196 381.448Z" stroke="#000000" stroke-linejoin="round" stroke-miterlimit="10" fill="#93CDDD"/><path d="M612.363 362.281C612.363 366.331 609.08 369.615 605.03 369.615 600.98 369.615 597.696 366.331 597.696 362.281 597.696 358.231 600.98 354.948 605.03 354.948 609.08 354.948 612.363 358.231 612.363 362.281Z" stroke="#000000" stroke-linejoin="round" stroke-miterlimit="10" fill="#93CDDD"/><path d="M678.863 367.948C678.863 371.998 675.58 375.281 671.53 375.281 667.479 375.281 664.196 371.998 664.196 367.948 664.196 363.898 667.479 360.615 671.53 360.615 675.58 360.615 678.863 363.898 678.863 367.948Z" stroke="#000000" stroke-linejoin="round" stroke-miterlimit="10" fill="#93CDDD"/><path d="M612.363 376.115C612.363 380.165 609.08 383.448 605.03 383.448 600.98 383.448 597.696 380.165 597.696 376.115 597.696 372.065 600.98 368.781 605.03 368.781 609.08 368.781 612.363 372.065 612.363 376.115Z" stroke="#000000" stroke-linejoin="round" stroke-miterlimit="10" fill="#93CDDD"/><path d="M598.196 385.115C598.196 389.165 594.913 392.448 590.863 392.448 586.813 392.448 583.53 389.165 583.53 385.115 583.53 381.065 586.813 377.781 590.863 377.781 594.913 377.781 598.196 381.065 598.196 385.115Z" stroke="#000000" stroke-linejoin="round" stroke-miterlimit="10" fill="#93CDDD"/><path d="M562.696 395.281C562.696 399.331 559.413 402.615 555.363 402.615 551.313 402.615 548.03 399.331 548.03 395.281 548.03 391.231 551.313 387.948 555.363 387.948 559.413 387.948 562.696 391.231 562.696 395.281Z" stroke="#000000" stroke-linejoin="round" stroke-miterlimit="10" fill="#93CDDD"/><path d="M612.363 406.948C612.363 410.998 609.08 414.281 605.03 414.281 600.98 414.281 597.696 410.998 597.696 406.948 597.696 402.898 600.98 399.615 605.03 399.615 609.08 399.615 612.363 402.898 612.363 406.948Z" stroke="#000000" stroke-linejoin="round" stroke-miterlimit="10" fill="#93CDDD"/><path d="M612.363 407.615C612.363 411.665 609.08 414.948 605.03 414.948 600.98 414.948 597.696 411.665 597.696 407.615 597.696 403.565 600.98 400.281 605.03 400.281 609.08 400.281 612.363 403.565 612.363 407.615Z" stroke="#000000" stroke-linejoin="round" stroke-miterlimit="10" fill="#93CDDD"/><path d="M562.696 405.615C562.696 409.665 559.413 412.948 555.363 412.948 551.313 412.948 548.03 409.665 548.03 405.615 548.03 401.565 551.313 398.281 555.363 398.281 559.413 398.281 562.696 401.565 562.696 405.615Z" stroke="#000000" stroke-linejoin="round" stroke-miterlimit="10" fill="#93CDDD"/><path d="M663.863 401.281C663.863 405.331 660.58 408.615 656.53 408.615 652.479 408.615 649.196 405.331 649.196 401.281 649.196 397.231 652.479 393.948 656.53 393.948 660.58 393.948 663.863 397.231 663.863 401.281Z" stroke="#000000" stroke-linejoin="round" stroke-miterlimit="10" fill="#93CDDD"/><path d="M671.696 394.281C671.696 398.331 668.413 401.615 664.363 401.615 660.313 401.615 657.03 398.331 657.03 394.281 657.03 390.231 660.313 386.948 664.363 386.948 668.413 386.948 671.696 390.231 671.696 394.281Z" stroke="#000000" stroke-linejoin="round" stroke-miterlimit="10" fill="#93CDDD"/><path d="M562.696 390.781C562.696 394.831 559.413 398.115 555.363 398.115 551.313 398.115 548.03 394.831 548.03 390.781 548.03 386.731 551.313 383.448 555.363 383.448 559.413 383.448 562.696 386.731 562.696 390.781Z" stroke="#000000" stroke-linejoin="round" stroke-miterlimit="10" fill="#93CDDD"/><path d="M704.03 387.615C704.03 391.665 700.746 394.948 696.696 394.948 692.646 394.948 689.363 391.665 689.363 387.615 689.363 383.565 692.646 380.281 696.696 380.281 700.746 380.281 704.03 383.565 704.03 387.615Z" stroke="#000000" stroke-linejoin="round" stroke-miterlimit="10" fill="#93CDDD"/><path d="M663.863 393.781C663.863 397.831 660.58 401.115 656.53 401.115 652.479 401.115 649.196 397.831 649.196 393.781 649.196 389.731 652.479 386.448 656.53 386.448 660.58 386.448 663.863 389.731 663.863 393.781Z" stroke="#000000" stroke-linejoin="round" stroke-miterlimit="10" fill="#93CDDD"/><path d="M685.696 406.281C685.696 410.331 682.413 413.615 678.363 413.615 674.313 413.615 671.03 410.331 671.03 406.281 671.03 402.231 674.313 398.948 678.363 398.948 682.413 398.948 685.696 402.231 685.696 406.281Z" stroke="#000000" stroke-linejoin="round" stroke-miterlimit="10" fill="#93CDDD"/><path d="M704.03 387.448C704.03 391.498 700.746 394.781 696.696 394.781 692.646 394.781 689.363 391.498 689.363 387.448 689.363 383.398 692.646 380.115 696.696 380.115 700.746 380.115 704.03 383.398 704.03 387.448Z" stroke="#000000" stroke-linejoin="round" stroke-miterlimit="10" fill="#93CDDD"/><path d="M698.196 397.115C698.196 401.165 694.913 404.448 690.863 404.448 686.813 404.448 683.53 401.165 683.53 397.115 683.53 393.065 686.813 389.781 690.863 389.781 694.913 389.781 698.196 393.065 698.196 397.115Z" stroke="#000000" stroke-linejoin="round" stroke-miterlimit="10" fill="#93CDDD"/><path d="M663.863 411.281C663.863 415.331 660.58 418.615 656.53 418.615 652.479 418.615 649.196 415.331 649.196 411.281 649.196 407.231 652.479 403.948 656.53 403.948 660.58 403.948 663.863 407.231 663.863 411.281Z" stroke="#000000" stroke-linejoin="round" stroke-miterlimit="10" fill="#93CDDD"/><path d="M598.196 435.115C598.196 439.165 594.913 442.448 590.863 442.448 586.813 442.448 583.53 439.165 583.53 435.115 583.53 431.065 586.813 427.781 590.863 427.781 594.913 427.781 598.196 431.065 598.196 435.115Z" stroke="#000000" stroke-linejoin="round" stroke-miterlimit="10" fill="#93CDDD"/><path d="M562.696 445.115C562.696 449.165 559.413 452.448 555.363 452.448 551.313 452.448 548.03 449.165 548.03 445.115 548.03 441.065 551.313 437.781 555.363 437.781 559.413 437.781 562.696 441.065 562.696 445.115Z" stroke="#000000" stroke-linejoin="round" stroke-miterlimit="10" fill="#93CDDD"/><path d="M539.03 449.781C539.03 453.831 535.746 457.115 531.696 457.115 527.646 457.115 524.363 453.831 524.363 449.781 524.363 445.731 527.646 442.448 531.696 442.448 535.746 442.448 539.03 445.731 539.03 449.781Z" stroke="#000000" stroke-linejoin="round" stroke-miterlimit="10" fill="#93CDDD"/><path d="M539.03 463.115C539.03 467.165 535.746 470.448 531.696 470.448 527.646 470.448 524.363 467.165 524.363 463.115 524.363 459.065 527.646 455.781 531.696 455.781 535.746 455.781 539.03 459.065 539.03 463.115Z" stroke="#000000" stroke-linejoin="round" stroke-miterlimit="10" fill="#93CDDD"/><path d="M612.363 462.948C612.363 466.998 609.08 470.281 605.03 470.281 600.98 470.281 597.696 466.998 597.696 462.948 597.696 458.898 600.98 455.615 605.03 455.615 609.08 455.615 612.363 458.898 612.363 462.948Z" stroke="#000000" stroke-linejoin="round" stroke-miterlimit="10" fill="#93CDDD"/><path d="M582.03 445.615C582.03 449.665 578.746 452.948 574.696 452.948 570.646 452.948 567.363 449.665 567.363 445.615 567.363 441.565 570.646 438.281 574.696 438.281 578.746 438.281 582.03 441.565 582.03 445.615Z" stroke="#000000" stroke-linejoin="round" stroke-miterlimit="10" fill="#93CDDD"/><path d="M624.863 411.948C624.863 415.998 621.58 419.281 617.53 419.281 613.479 419.281 610.196 415.998 610.196 411.948 610.196 407.898 613.479 404.615 617.53 404.615 621.58 404.615 624.863 407.898 624.863 411.948Z" stroke="#000000" stroke-linejoin="round" stroke-miterlimit="10" fill="#93CDDD"/><path d="M728.696 375.115C728.696 379.165 725.413 382.448 721.363 382.448 717.313 382.448 714.03 379.165 714.03 375.115 714.03 371.065 717.313 367.781 721.363 367.781 725.413 367.781 728.696 371.065 728.696 375.115Z" stroke="#000000" stroke-linejoin="round" stroke-miterlimit="10" fill="#93CDDD"/><path d="M785.363 348.448C785.363 352.498 782.08 355.781 778.03 355.781 773.98 355.781 770.696 352.498 770.696 348.448 770.696 344.398 773.98 341.115 778.03 341.115 782.08 341.115 785.363 344.398 785.363 348.448Z" stroke="#000000" stroke-linejoin="round" stroke-miterlimit="10" fill="#93CDDD"/><path d="M792.863 341.115C792.863 345.165 789.58 348.448 785.53 348.448 781.479 348.448 778.196 345.165 778.196 341.115 778.196 337.065 781.479 333.781 785.53 333.781 789.58 333.781 792.863 337.065 792.863 341.115Z" stroke="#000000" stroke-linejoin="round" stroke-miterlimit="10" fill="#93CDDD"/><path d="M808.363 344.115C808.363 348.165 805.08 351.448 801.03 351.448 796.98 351.448 793.696 348.165 793.696 344.115 793.696 340.065 796.98 336.781 801.03 336.781 805.08 336.781 808.363 340.065 808.363 344.115Z" stroke="#000000" stroke-linejoin="round" stroke-miterlimit="10" fill="#93CDDD"/><path d="M797.53 341.781C797.53 345.831 794.246 349.115 790.196 349.115 786.146 349.115 782.863 345.831 782.863 341.781 782.863 337.731 786.146 334.448 790.196 334.448 794.246 334.448 797.53 337.731 797.53 341.781Z" stroke="#000000" stroke-linejoin="round" stroke-miterlimit="10" fill="#93CDDD"/><path d="M728.696 353.448C728.696 357.498 725.413 360.781 721.363 360.781 717.313 360.781 714.03 357.498 714.03 353.448 714.03 349.398 717.313 346.115 721.363 346.115 725.413 346.115 728.696 349.398 728.696 353.448Z" stroke="#000000" stroke-linejoin="round" stroke-miterlimit="10" fill="#93CDDD"/><path d="M737.196 362.781C737.196 366.831 733.913 370.115 729.863 370.115 725.813 370.115 722.53 366.831 722.53 362.781 722.53 358.731 725.813 355.448 729.863 355.448 733.913 355.448 737.196 358.731 737.196 362.781Z" stroke="#000000" stroke-linejoin="round" stroke-miterlimit="10" fill="#93CDDD"/><path d="M692.196 371.115C692.196 375.165 688.913 378.448 684.863 378.448 680.813 378.448 677.53 375.165 677.53 371.115 677.53 367.065 680.813 363.781 684.863 363.781 688.913 363.781 692.196 367.065 692.196 371.115Z" stroke="#000000" stroke-linejoin="round" stroke-miterlimit="10" fill="#93CDDD"/><path d="M685.696 386.781C685.696 390.831 682.413 394.115 678.363 394.115 674.313 394.115 671.03 390.831 671.03 386.781 671.03 382.731 674.313 379.448 678.363 379.448 682.413 379.448 685.696 382.731 685.696 386.781Z" stroke="#000000" stroke-linejoin="round" stroke-miterlimit="10" fill="#93CDDD"/><path d="M539.03 396.448C539.03 400.498 535.746 403.781 531.696 403.781 527.646 403.781 524.363 400.498 524.363 396.448 524.363 392.398 527.646 389.115 531.696 389.115 535.746 389.115 539.03 392.398 539.03 396.448Z" stroke="#000000" stroke-linejoin="round" stroke-miterlimit="10" fill="#93CDDD"/><path d="M562.696 399.781C562.696 403.831 559.413 407.115 555.363 407.115 551.313 407.115 548.03 403.831 548.03 399.781 548.03 395.731 551.313 392.448 555.363 392.448 559.413 392.448 562.696 395.731 562.696 399.781Z" stroke="#000000" stroke-linejoin="round" stroke-miterlimit="10" fill="#93CDDD"/><path d="M685.696 412.448C685.696 416.498 682.413 419.781 678.363 419.781 674.313 419.781 671.03 416.498 671.03 412.448 671.03 408.398 674.313 405.115 678.363 405.115 682.413 405.115 685.696 408.398 685.696 412.448Z" stroke="#000000" stroke-linejoin="round" stroke-miterlimit="10" fill="#93CDDD"/><path d="M646.03 400.281C646.03 404.331 642.746 407.615 638.696 407.615 634.646 407.615 631.363 404.331 631.363 400.281 631.363 396.231 634.646 392.948 638.696 392.948 642.746 392.948 646.03 396.231 646.03 400.281Z" stroke="#000000" stroke-linejoin="round" stroke-miterlimit="10" fill="#93CDDD"/><path d="M741.196 389.781C741.196 393.831 737.913 397.115 733.863 397.115 729.813 397.115 726.53 393.831 726.53 389.781 726.53 385.731 729.813 382.448 733.863 382.448 737.913 382.448 741.196 385.731 741.196 389.781Z" stroke="#000000" stroke-linejoin="round" stroke-miterlimit="10" fill="#93CDDD"/><path d="M741.196 370.448C741.196 374.498 737.913 377.781 733.863 377.781 729.813 377.781 726.53 374.498 726.53 370.448 726.53 366.398 729.813 363.115 733.863 363.115 737.913 363.115 741.196 366.398 741.196 370.448Z" stroke="#000000" stroke-linejoin="round" stroke-miterlimit="10" fill="#93CDDD"/><path d="M814.53 351.948C814.53 355.998 811.246 359.281 807.196 359.281 803.146 359.281 799.863 355.998 799.863 351.948 799.863 347.898 803.146 344.615 807.196 344.615 811.246 344.615 814.53 347.898 814.53 351.948Z" stroke="#000000" stroke-linejoin="round" stroke-miterlimit="10" fill="#93CDDD"/><path d="M808.363 338.948C808.363 342.998 805.08 346.281 801.03 346.281 796.98 346.281 793.696 342.998 793.696 338.948 793.696 334.898 796.98 331.615 801.03 331.615 805.08 331.615 808.363 334.898 808.363 338.948Z" stroke="#000000" stroke-linejoin="round" stroke-miterlimit="10" fill="#93CDDD"/><path d="M782.696 332.115C782.696 336.165 779.413 339.448 775.363 339.448 771.313 339.448 768.03 336.165 768.03 332.115 768.03 328.065 771.313 324.781 775.363 324.781 779.413 324.781 782.696 328.065 782.696 332.115Z" stroke="#000000" stroke-linejoin="round" stroke-miterlimit="10" fill="#93CDDD"/><path d="M832.53 334.948C832.53 338.998 829.246 342.281 825.196 342.281 821.146 342.281 817.863 338.998 817.863 334.948 817.863 330.898 821.146 327.615 825.196 327.615 829.246 327.615 832.53 330.898 832.53 334.948Z" stroke="#000000" stroke-linejoin="round" stroke-miterlimit="10" fill="#93CDDD"/><path d="M797.53 341.948C797.53 345.998 794.246 349.281 790.196 349.281 786.146 349.281 782.863 345.998 782.863 341.948 782.863 337.898 786.146 334.615 790.196 334.615 794.246 334.615 797.53 337.898 797.53 341.948Z" stroke="#000000" stroke-linejoin="round" stroke-miterlimit="10" fill="#93CDDD"/><path d="M762.363 353.448C762.363 357.498 759.08 360.781 755.03 360.781 750.98 360.781 747.696 357.498 747.696 353.448 747.696 349.398 750.98 346.115 755.03 346.115 759.08 346.115 762.363 349.398 762.363 353.448Z" stroke="#000000" stroke-linejoin="round" stroke-miterlimit="10" fill="#93CDDD"/><path d="M752.363 356.448C752.363 360.498 749.08 363.781 745.03 363.781 740.98 363.781 737.696 360.498 737.696 356.448 737.696 352.398 740.98 349.115 745.03 349.115 749.08 349.115 752.363 352.398 752.363 356.448Z" stroke="#000000" stroke-linejoin="round" stroke-miterlimit="10" fill="#93CDDD"/><path d="M762.363 366.281C762.363 370.331 759.08 373.615 755.03 373.615 750.98 373.615 747.696 370.331 747.696 366.281 747.696 362.231 750.98 358.948 755.03 358.948 759.08 358.948 762.363 362.231 762.363 366.281Z" stroke="#000000" stroke-linejoin="round" stroke-miterlimit="10" fill="#93CDDD"/><path d="M745.03 374.781C745.03 378.831 741.746 382.115 737.696 382.115 733.646 382.115 730.363 378.831 730.363 374.781 730.363 370.731 733.646 367.448 737.696 367.448 741.746 367.448 745.03 370.731 745.03 374.781Z" stroke="#000000" stroke-linejoin="round" stroke-miterlimit="10" fill="#93CDDD"/><path d="M792.863 374.948C792.863 378.998 789.58 382.281 785.53 382.281 781.479 382.281 778.196 378.998 778.196 374.948 778.196 370.898 781.479 367.615 785.53 367.615 789.58 367.615 792.863 370.898 792.863 374.948Z" stroke="#000000" stroke-linejoin="round" stroke-miterlimit="10" fill="#93CDDD"/><path d="M685.696 391.615C685.696 395.665 682.413 398.948 678.363 398.948 674.313 398.948 671.03 395.665 671.03 391.615 671.03 387.565 674.313 384.281 678.363 384.281 682.413 384.281 685.696 387.565 685.696 391.615Z" stroke="#000000" stroke-linejoin="round" stroke-miterlimit="10" fill="#93CDDD"/><path d="M646.03 410.948C646.03 414.998 642.746 418.281 638.696 418.281 634.646 418.281 631.363 414.998 631.363 410.948 631.363 406.898 634.646 403.615 638.696 403.615 642.746 403.615 646.03 406.898 646.03 410.948Z" stroke="#000000" stroke-linejoin="round" stroke-miterlimit="10" fill="#93CDDD"/><path d="M646.03 426.781C646.03 430.831 642.746 434.115 638.696 434.115 634.646 434.115 631.363 430.831 631.363 426.781 631.363 422.731 634.646 419.448 638.696 419.448 642.746 419.448 646.03 422.731 646.03 426.781Z" stroke="#000000" stroke-linejoin="round" stroke-miterlimit="10" fill="#93CDDD"/><path d="M582.03 439.115C582.03 443.165 578.746 446.448 574.696 446.448 570.646 446.448 567.363 443.165 567.363 439.115 567.363 435.065 570.646 431.781 574.696 431.781 578.746 431.781 582.03 435.065 582.03 439.115Z" stroke="#000000" stroke-linejoin="round" stroke-miterlimit="10" fill="#93CDDD"/><path d="M539.03 448.948C539.03 452.998 535.746 456.281 531.696 456.281 527.646 456.281 524.363 452.998 524.363 448.948 524.363 444.898 527.646 441.615 531.696 441.615 535.746 441.615 539.03 444.898 539.03 448.948Z" stroke="#000000" stroke-linejoin="round" stroke-miterlimit="10" fill="#93CDDD"/><path d="M582.03 463.781C582.03 467.831 578.746 471.115 574.696 471.115 570.646 471.115 567.363 467.831 567.363 463.781 567.363 459.731 570.646 456.448 574.696 456.448 578.746 456.448 582.03 459.731 582.03 463.781Z" stroke="#000000" stroke-linejoin="round" stroke-miterlimit="10" fill="#93CDDD"/><path d="M508.696 479.115C508.696 483.165 505.413 486.448 501.363 486.448 497.313 486.448 494.03 483.165 494.03 479.115 494.03 475.065 497.313 471.781 501.363 471.781 505.413 471.781 508.696 475.065 508.696 479.115Z" stroke="#000000" stroke-linejoin="round" stroke-miterlimit="10" fill="#93CDDD"/></g><g><text fill="#FFFFFF" font-family="Arial,Arial_MSFontService,sans-serif" font-weight="400" font-size="11" transform="translate(358.014 609)">100</text></g><g><text fill="#FFFFFF" font-family="Arial,Arial_MSFontService,sans-serif" font-weight="400" font-size="11" transform="translate(352.081 494)">1000</text></g><g><text fill="#FFFFFF" font-family="Arial,Arial_MSFontService,sans-serif" font-weight="400" font-size="11" transform="translate(346.148 379)">10000</text></g><g><text fill="#FFFFFF" font-family="Arial,Arial_MSFontService,sans-serif" font-weight="400" font-size="11" transform="translate(340.214 264)">100000</text></g><g><text fill="#FFFFFF" font-family="Arial,Arial_MSFontService,sans-serif" font-weight="400" font-size="13" transform="translate(381.282 625)">1</text></g><g><text fill="#FFFFFF" font-family="Arial,Arial_MSFontService,sans-serif" font-weight="400" font-size="13" transform="translate(621.249 625)">10</text></g><g><text fill="#FFFFFF" font-family="Arial,Arial_MSFontService,sans-serif" font-weight="400" font-size="13" transform="translate(861.215 625)">100</text></g><text font-family="Arial,Arial_MSFontService,sans-serif" font-weight="400" font-size="21" transform="translate(322.281 615)">10</text><text font-family="Arial,Arial_MSFontService,sans-serif" font-weight="400" font-size="14" transform="translate(345.948 609)">2</text><text font-family="Arial,Arial_MSFontService,sans-serif" font-weight="400" font-size="21" transform="translate(322.281 493)">10</text><text font-family="Arial,Arial_MSFontService,sans-serif" font-weight="400" font-size="14" transform="translate(345.948 487)">3</text><text font-family="Arial,Arial_MSFontService,sans-serif" font-weight="400" font-size="21" transform="translate(322.281 384)">10</text><text font-family="Arial,Arial_MSFontService,sans-serif" font-weight="400" font-size="14" transform="translate(345.948 378)">4</text><text font-family="Arial,Arial_MSFontService,sans-serif" font-weight="400" font-size="21" transform="translate(324.511 273)">10</text><text font-family="Arial,Arial_MSFontService,sans-serif" font-weight="400" font-size="14" transform="translate(348.177 267)">5</text><text font-family="Arial,Arial_MSFontService,sans-serif" font-weight="400" font-size="21" transform="translate(845.359 646)">10</text><text font-family="Arial,Arial_MSFontService,sans-serif" font-weight="400" font-size="14" transform="translate(869.026 640)">2</text><text font-family="Arial,Arial_MSFontService,sans-serif" font-weight="400" font-size="21" transform="translate(606.107 646)">10</text><text font-family="Arial,Arial_MSFontService,sans-serif" font-weight="400" font-size="14" transform="translate(629.774 640)">1</text><text font-family="Arial,Arial_MSFontService,sans-serif" font-weight="400" font-size="21" transform="translate(373.475 646)">10</text><text font-family="Arial,Arial_MSFontService,sans-serif" font-weight="400" font-size="14" transform="translate(397.142 640)">0</text><text font-family="Arial,Arial_MSFontService,sans-serif" font-weight="400" font-size="21" transform="translate(299.182 676)">Newly Infected hospital</text><text font-family="Arial,Arial_MSFontService,sans-serif" font-weight="400" font-size="21" transform="translate(518.349 676)">-</text><text font-family="Arial,Arial_MSFontService,sans-serif" font-weight="400" font-size="21" transform="translate(525.516 676)">associated</text><text font-family="Arial,Arial_MSFontService,sans-serif" font-weight="400" font-size="21" transform="translate(633.349 676)">workers</text><text font-family="Arial,Arial_MSFontService,sans-serif" font-weight="400" font-size="21" transform="translate(714.016 676)">of</text><text font-family="Arial,Arial_MSFontService,sans-serif" font-weight="400" font-size="21" transform="translate(737.849 676)">Hokkaido university hospital</text><text font-family="Arial,Arial_MSFontService,sans-serif" font-weight="400" font-size="21" transform="matrix(-1.83697e-16 -1 1 -1.83697e-16 259.989 573)">Newly identified COVID</text><text font-family="Arial,Arial_MSFontService,sans-serif" font-weight="400" font-size="21" transform="matrix(-1.83697e-16 -1 1 -1.83697e-16 259.989 351)">-</text><text font-family="Arial,Arial_MSFontService,sans-serif" font-weight="400" font-size="21" transform="matrix(-1.83697e-16 -1 1 -1.83697e-16 259.989 344)">19 cases</text><text font-family="Arial,Arial_MSFontService,sans-serif" font-weight="400" font-size="21" transform="matrix(-1.83697e-16 -1 1 -1.83697e-16 284.989 486)">in Sapporo city</text><text font-family="Arial,Arial_MSFontService,sans-serif" font-weight="400" font-size="21" transform="translate(398.825 293)">Pearson’s</text><text font-family="Arial,Arial_MSFontService,sans-serif" font-style="italic" font-weight="400" font-size="21" transform="translate(499.105 293)">r</text><text font-family="Arial,Arial_MSFontService,sans-serif" font-weight="400" font-size="21" transform="translate(512.272 293)">= 0.91</text><text fill="#4B5E68" font-family="Arial,Arial_MSFontService,sans-serif" font-weight="400" font-size="24" transform="translate(102.306 183)">SARS</text><text fill="#4B5E68" font-family="Arial,Arial_MSFontService,sans-serif" font-weight="400" font-size="24" transform="translate(167.639 183)">-</text><text fill="#4B5E68" font-family="Arial,Arial_MSFontService,sans-serif" font-weight="400" font-size="24" transform="translate(175.639 183)">CoV</text><text fill="#4B5E68" font-family="Arial,Arial_MSFontService,sans-serif" font-weight="400" font-size="24" transform="translate(220.979 183)">-</text><text fill="#4B5E68" font-family="Arial,Arial_MSFontService,sans-serif" font-weight="400" font-size="24" transform="translate(228.979 183)">2 infections in Sapporo can</text><text fill="#4B5E68" font-family="Arial,Arial_MSFontService,sans-serif" font-weight="400" font-size="24" transform="translate(524.979 183)">be</text><text fill="#4B5E68" font-family="Arial,Arial_MSFontService,sans-serif" font-weight="400" font-size="24" transform="translate(558.313 183)">an indicator</text><text fill="#4B5E68" font-family="Arial,Arial_MSFontService,sans-serif" font-weight="400" font-size="24" transform="translate(688.979 183)">for</text><text fill="#4B5E68" font-family="Arial,Arial_MSFontService,sans-serif" font-weight="400" font-size="24" transform="translate(723.646 183)">the</text><text fill="#4B5E68" font-family="Arial,Arial_MSFontService,sans-serif" font-weight="400" font-size="24" transform="translate(763.646 183)">risk</text><text fill="#4B5E68" font-family="Arial,Arial_MSFontService,sans-serif" font-weight="400" font-size="24" transform="translate(807.646 183)">of</text><text fill="#4B5E68" font-family="Arial,Arial_MSFontService,sans-serif" font-weight="400" font-size="24" transform="translate(834.313 183)">SARS</text><text fill="#4B5E68" font-family="Arial,Arial_MSFontService,sans-serif" font-weight="400" font-size="24" transform="translate(899.646 183)">-</text><text fill="#4B5E68" font-family="Arial,Arial_MSFontService,sans-serif" font-weight="400" font-size="24" transform="translate(907.646 183)">CoV</text><text fill="#4B5E68" font-family="Arial,Arial_MSFontService,sans-serif" font-weight="400" font-size="24" transform="translate(952.986 183)">-</text><text fill="#4B5E68" font-family="Arial,Arial_MSFontService,sans-serif" font-weight="400" font-size="24" transform="translate(960.986 183)">2</text><text fill="#4B5E68" font-family="Arial,Arial_MSFontService,sans-serif" font-weight="400" font-size="24" transform="translate(980.986 183)">entering</text><text fill="#4B5E68" font-family="Arial,Arial_MSFontService,sans-serif" font-weight="400" font-size="24" transform="translate(1074.32 183)">Hokkaido</text><text fill="#4B5E68" font-family="Arial,Arial_MSFontService,sans-serif" font-weight="400" font-size="24" transform="translate(102.306 212)">university</text><text fill="#4B5E68" font-family="Arial,Arial_MSFontService,sans-serif" font-weight="400" font-size="24" transform="translate(210.306 212)">hospita</text><text fill="#4B5E68" font-family="Arial,Arial_MSFontService,sans-serif" font-weight="400" font-size="24" transform="translate(287.639 212)">l</text><path d="M82.5001 232.5 1246.59 232.5" stroke="#4B5E68" stroke-miterlimit="8" stroke-dasharray="8 3" fill="none" fill-rule="evenodd"/></g></svg>