<svg width="1282" height="724" xmlns="http://www.w3.org/2000/svg" xmlns:xlink="http://www.w3.org/1999/xlink" overflow="hidden"><defs><clipPath id="clip0"><rect x="-1" y="-3" width="1282" height="724"/></clipPath></defs><g clip-path="url(#clip0)" transform="translate(1 3)"><rect x="0" y="0" width="1280" height="720" fill="#FFFFFF"/><text fill="#4B5E68" font-family="Arial,Arial_MSFontService,sans-serif" font-weight="700" font-size="37" transform="translate(303.049 83)">Detail</text><text fill="#4B5E68" font-family="Arial,Arial_MSFontService,sans-serif" font-weight="700" font-size="37" transform="translate(415.216 83)">of</text><text fill="#4B5E68" font-family="Arial,Arial_MSFontService,sans-serif" font-weight="700" font-size="37" transform="translate(460.883 83)">the</text><text fill="#4B5E68" font-family="Arial,Arial_MSFontService,sans-serif" font-weight="700" font-size="37" transform="translate(527.383 83)">used</text><text fill="#4B5E68" font-family="Arial,Arial_MSFontService,sans-serif" font-weight="700" font-size="37" transform="translate(625.049 83)">state</text><text fill="#4B5E68" font-family="Arial,Arial_MSFontService,sans-serif" font-weight="700" font-size="37" transform="translate(712.549 83)">-</text><text fill="#4B5E68" font-family="Arial,Arial_MSFontService,sans-serif" font-weight="700" font-size="37" transform="translate(725.049 83)">space</text><text fill="#4B5E68" font-family="Arial,Arial_MSFontService,sans-serif" font-weight="700" font-size="37" transform="translate(841.549 83)">mode</text><text fill="#4B5E68" font-family="Arial,Arial_MSFontService,sans-serif" font-weight="700" font-size="37" transform="translate(941.216 83)">l</text><rect x="0.500053" y="-1.50005" width="1280" height="37.0001" stroke="#7F7F7F" stroke-width="1.33333" stroke-miterlimit="8" fill="#D9D9D9"/><text fill="#4B5E68" font-family="Arial,Arial_MSFontService,sans-serif" font-weight="700" font-size="21" transform="translate(392 25)">Supplemental methods for real</text><text fill="#4B5E68" font-family="Arial,Arial_MSFontService,sans-serif" font-weight="700" font-size="21" transform="translate(705.167 25)">-</text><text fill="#4B5E68" font-family="Arial,Arial_MSFontService,sans-serif" font-weight="700" font-size="21" transform="translate(712.333 25)">world application</text><rect x="492" y="396" width="752" height="296" fill="#E0EBF6"/><rect x="491" y="120" width="753" height="280" fill="#FBF4D8"/><rect x="64" y="118" width="428" height="574" fill="#F2F2F2"/><path d="M76.5001 622C76.5001 599.08 95.0802 580.5 118 580.5 140.92 580.5 159.5 599.08 159.5 622 159.5 644.92 140.92 663.5 118 663.5 95.0802 663.5 76.5001 644.92 76.5001 622Z" stroke="#000000" stroke-width="1.33333" stroke-miterlimit="8" stroke-dasharray="5.33333 4" fill="#D9D9D9" fill-rule="evenodd"/><text font-family="Arial,Arial_MSFontService,sans-serif" font-weight="400" font-size="19" transform="translate(86.8894 629)">R</text><text font-family="Arial,Arial_MSFontService,sans-serif" font-weight="400" font-size="12" transform="translate(100.389 623)">eff</text><text font-family="Arial,Arial_MSFontService,sans-serif" font-weight="400" font-size="19" transform="translate(114.163 629)">(t+1)</text><path d="M81.5001 256C81.5001 233.08 100.08 214.5 123 214.5 145.92 214.5 164.5 233.08 164.5 256 164.5 278.92 145.92 297.5 123 297.5 100.08 297.5 81.5001 278.92 81.5001 256Z" stroke="#000000" stroke-width="1.33333" stroke-miterlimit="8" stroke-dasharray="5.33333 4" fill="#D9D9D9" fill-rule="evenodd"/><text font-family="Arial,Arial_MSFontService,sans-serif" font-weight="400" font-size="19" transform="translate(94.3065 258)">R</text><text font-family="Arial,Arial_MSFontService,sans-serif" font-weight="400" font-size="12" transform="translate(107.806 252)">eff</text><text font-family="Arial,Arial_MSFontService,sans-serif" font-weight="400" font-size="19" transform="translate(121.58 258)">(t</text><text font-family="Arial,Arial_MSFontService,sans-serif" font-weight="400" font-size="19" transform="translate(132.913 258)">-</text><text font-family="Arial,Arial_MSFontService,sans-serif" font-weight="400" font-size="19" transform="translate(139.08 258)">1)</text><path d="M219.5 194C219.5 171.08 238.08 152.5 261 152.5 283.92 152.5 302.5 171.08 302.5 194 302.5 216.92 283.92 235.5 261 235.5 238.08 235.5 219.5 216.92 219.5 194Z" stroke="#000000" stroke-width="1.33333" stroke-miterlimit="8" stroke-dasharray="5.33333 4" fill="#D9D9D9" fill-rule="evenodd"/><text font-family="Arial,Arial_MSFontService,sans-serif" font-weight="400" font-size="19" transform="translate(224.024 199)">CAR(t</text><text font-family="Arial,Arial_MSFontService,sans-serif" font-weight="400" font-size="19" transform="translate(274.857 199)">-</text><text font-family="Arial,Arial_MSFontService,sans-serif" font-weight="400" font-size="19" transform="translate(281.024 199)">1)</text><path d="M0.016999-1.99993 16.0164-1.86394 15.9824 2.13592-0.016999 1.99993ZM28.016-1.76194 44.0154-1.62595 43.9814 2.37391 27.982 2.23791ZM56.015-1.52396 72.0144-1.38796 71.9804 2.61189 55.981 2.4759ZM84.014-1.28597 100.013-1.14998 99.9794 2.84988 83.98 2.71389ZM112.013-1.04798 128.012-0.911992 127.978 3.08786 111.979 2.95187ZM140.012-0.809998 156.011-0.674006 155.977 3.32585 139.978 3.18986ZM168.011-0.572012 174.836-0.514003 174.802 3.48585 167.977 3.42784ZM172.87-4.53086 184.818 1.57092 172.768 7.46871Z" fill="#7F7F7F" transform="matrix(1 0 0 -1 183 257.571)"/><path d="M217.5 345C217.5 322.08 236.08 303.5 259 303.5 281.92 303.5 300.5 322.08 300.5 345 300.5 367.92 281.92 386.5 259 386.5 236.08 386.5 217.5 367.92 217.5 345Z" stroke="#953735" stroke-width="1.33333" stroke-miterlimit="8" fill="#F2DCDB" fill-rule="evenodd"/><text font-family="Arial,Arial_MSFontService,sans-serif" font-weight="400" font-size="19" transform="translate(230.934 350)">CAR(t)</text><path d="M215.5 552C215.5 529.08 234.304 510.5 257.5 510.5 280.696 510.5 299.5 529.08 299.5 552 299.5 574.92 280.696 593.5 257.5 593.5 234.304 593.5 215.5 574.92 215.5 552Z" stroke="#000000" stroke-width="1.33333" stroke-miterlimit="8" stroke-dasharray="5.33333 4" fill="#D9D9D9" fill-rule="evenodd"/><text font-family="Arial,Arial_MSFontService,sans-serif" font-weight="400" font-size="19" transform="translate(222.679 558)">CAR(t+1)</text><path d="M386.5 627.5C386.5 604.304 405.304 585.5 428.5 585.5 451.696 585.5 470.5 604.304 470.5 627.5 470.5 650.696 451.696 669.5 428.5 669.5 405.304 669.5 386.5 650.696 386.5 627.5Z" stroke="#984807" stroke-width="1.33333" stroke-miterlimit="8" stroke-dasharray="5.33333 4" fill="#D9D9D9" fill-rule="evenodd"/><text font-family="Arial,Arial_MSFontService,sans-serif" font-weight="400" font-size="19" transform="translate(395.328 631)">I</text><text font-family="Arial,Arial_MSFontService,sans-serif" font-weight="400" font-size="12" transform="translate(400.495 635)">new</text><text font-family="Arial,Arial_MSFontService,sans-serif" font-weight="400" font-size="19" transform="translate(423.495 631)">(t+1)</text><path d="M599.5 351C599.5 328.08 618.08 309.5 641 309.5 663.92 309.5 682.5 328.08 682.5 351 682.5 373.92 663.92 392.5 641 392.5 618.08 392.5 599.5 373.92 599.5 351Z" stroke="#000000" stroke-width="1.33333" stroke-miterlimit="8" fill="#F7E9B1" fill-rule="evenodd"/><path d="M598.5 486C598.5 463.08 617.08 444.5 640 444.5 662.92 444.5 681.5 463.08 681.5 486 681.5 508.92 662.92 527.5 640 527.5 617.08 527.5 598.5 508.92 598.5 486Z" stroke="#000000" stroke-width="1.33333" stroke-miterlimit="8" fill="#E0EBF6" fill-rule="evenodd"/><path d="M491.658 423.111 576.941 452.844 575.624 456.621 490.342 426.889ZM576.369 448.409 585.725 458.025 572.419 459.74Z" fill="#3477B2"/><text font-family="Arial,Arial_MSFontService,sans-serif" font-weight="400" font-size="19" transform="translate(615.6 489)">I</text><text font-family="Arial,Arial_MSFontService,sans-serif" font-weight="400" font-size="12" transform="translate(620.767 493)">shed</text><text font-family="Arial,Arial_MSFontService,sans-serif" font-weight="400" font-size="19" transform="translate(647.934 489)">(t)</text><path d="M708 480 784.929 480 784.929 484 708 484ZM782.929 476 794.929 482 782.929 488Z" fill="#3261AB"/><path d="M1053.5 476C1053.5 453.08 1072.08 434.5 1095 434.5 1117.92 434.5 1136.5 453.08 1136.5 476 1136.5 498.92 1117.92 517.5 1095 517.5 1072.08 517.5 1053.5 498.92 1053.5 476Z" stroke="#000000" stroke-width="1.33333" stroke-miterlimit="8" fill="#E0EBF6" fill-rule="evenodd"/><text font-family="Arial,Arial_MSFontService,sans-serif" font-weight="400" font-size="19" transform="translate(1079.67 482)">P(t)</text><text font-family="Arial,Arial_MSFontService,sans-serif" font-weight="400" font-size="19" transform="translate(625.277 356)">I</text><text font-family="Arial,Arial_MSFontService,sans-serif" font-weight="400" font-size="12" transform="translate(630.444 360)">s</text><text font-family="Arial,Arial_MSFontService,sans-serif" font-weight="400" font-size="19" transform="translate(636.61 356)">(t)</text><path d="M0.612637-1.90386 85.0594 25.27 83.8341 29.0777-0.612637 1.90386ZM84.3809 20.8497 93.9661 30.2371 80.705 32.2728Z" fill="#C8A314" transform="matrix(1 0 0 -1 495 378.237)"/><path d="M822.5 611C822.5 588.08 841.08 569.5 864 569.5 886.92 569.5 905.5 588.08 905.5 611 905.5 633.92 886.92 652.5 864 652.5 841.08 652.5 822.5 633.92 822.5 611Z" stroke="#000000" stroke-width="1.33333" stroke-miterlimit="8" fill="#264980" fill-rule="evenodd"/><text fill="#FFFFFF" font-family="Arial,Arial_MSFontService,sans-serif" font-weight="400" font-size="19" transform="translate(841.67 617)">W</text><text fill="#FFFFFF" font-family="Arial,Arial_MSFontService,sans-serif" font-weight="400" font-size="12" transform="translate(859.337 621)">m</text><text fill="#FFFFFF" font-family="Arial,Arial_MSFontService,sans-serif" font-weight="400" font-size="19" transform="translate(869.67 617)">(t)</text><path d="M1053.5 611C1053.5 588.08 1072.08 569.5 1095 569.5 1117.92 569.5 1136.5 588.08 1136.5 611 1136.5 633.92 1117.92 652.5 1095 652.5 1072.08 652.5 1053.5 633.92 1053.5 611Z" stroke="#000000" stroke-width="1.33333" stroke-miterlimit="8" fill="#264980" fill-rule="evenodd"/><text fill="#FFFFFF" font-family="Arial,Arial_MSFontService,sans-serif" font-weight="400" font-size="19" transform="translate(1074.09 618)">N</text><text fill="#FFFFFF" font-family="Arial,Arial_MSFontService,sans-serif" font-weight="400" font-size="12" transform="translate(1087.59 622)">m</text><text fill="#FFFFFF" font-family="Arial,Arial_MSFontService,sans-serif" font-weight="400" font-size="19" transform="translate(1097.92 618)">(t)</text><path d="M386.5 252C386.5 229.08 405.304 210.5 428.5 210.5 451.696 210.5 470.5 229.08 470.5 252 470.5 274.92 451.696 293.5 428.5 293.5 405.304 293.5 386.5 274.92 386.5 252Z" stroke="#984807" stroke-width="1.33333" stroke-miterlimit="8" stroke-dasharray="5.33333 4" fill="#D9D9D9" fill-rule="evenodd"/><text font-family="Arial,Arial_MSFontService,sans-serif" font-weight="400" font-size="19" transform="translate(397.661 262)">I</text><text font-family="Arial,Arial_MSFontService,sans-serif" font-weight="400" font-size="12" transform="translate(402.828 266)">new</text><text font-family="Arial,Arial_MSFontService,sans-serif" font-weight="400" font-size="19" transform="translate(425.828 262)">(t</text><text font-family="Arial,Arial_MSFontService,sans-serif" font-weight="400" font-size="19" transform="translate(437.161 262)">-</text><text font-family="Arial,Arial_MSFontService,sans-serif" font-weight="400" font-size="19" transform="translate(443.328 262)">1)</text><text fill="#264980" font-family="Arial,Arial_MSFontService,sans-serif" font-weight="700" font-size="24" transform="translate(511.795 678)">Wastewater data</text><text fill="#856D0E" font-family="Arial,Arial_MSFontService,sans-serif" font-weight="700" font-size="24" transform="translate(506.821 144)">Clinical data</text><path d="M1096 524 1096 555.575 1092 555.575 1092 524ZM1100 553.575 1094 565.575 1088 553.575Z" fill="#264980"/><path d="M823.5 304C823.5 281.08 842.08 262.5 865 262.5 887.92 262.5 906.5 281.08 906.5 304 906.5 326.92 887.92 345.5 865 345.5 842.08 345.5 823.5 326.92 823.5 304Z" stroke="#000000" stroke-width="1.33333" stroke-miterlimit="8" fill="#F7E9B1" fill-rule="evenodd"/><text font-family="Arial,Arial_MSFontService,sans-serif" font-weight="400" font-size="19" transform="translate(853.24 311)">I</text><text font-family="Arial,Arial_MSFontService,sans-serif" font-weight="400" font-size="12" transform="translate(858.406 315)">c</text><text font-family="Arial,Arial_MSFontService,sans-serif" font-weight="400" font-size="19" transform="translate(864.573 311)">(t)</text><path d="M823.5 184C823.5 161.08 842.08 142.5 865 142.5 887.92 142.5 906.5 161.08 906.5 184 906.5 206.92 887.92 225.5 865 225.5 842.08 225.5 823.5 206.92 823.5 184Z" stroke="#000000" stroke-width="1.33333" stroke-miterlimit="8" fill="#856D0E" fill-rule="evenodd"/><text fill="#FFFFFF" font-family="Arial,Arial_MSFontService,sans-serif" font-weight="400" font-size="19" transform="translate(843.976 185)">I</text><text fill="#FFFFFF" font-family="Arial,Arial_MSFontService,sans-serif" font-weight="400" font-size="12" transform="translate(849.143 189)">c,m</text><text fill="#FFFFFF" font-family="Arial,Arial_MSFontService,sans-serif" font-weight="400" font-size="19" transform="translate(869.143 185)">(t)</text><path d="M823.5 476C823.5 453.08 842.08 434.5 865 434.5 887.92 434.5 906.5 453.08 906.5 476 906.5 498.92 887.92 517.5 865 517.5 842.08 517.5 823.5 498.92 823.5 476Z" stroke="#000000" stroke-width="1.33333" stroke-miterlimit="8" fill="#E0EBF6" fill-rule="evenodd"/><text font-family="Arial,Arial_MSFontService,sans-serif" font-weight="400" font-size="19" transform="translate(846.498 482)">W(t)</text><path d="M868 524 868 555.575 864 555.575 864 524ZM872 553.575 866 565.575 860 553.575Z" fill="#264980"/><path d="M939 480 1015.93 480 1015.93 484 939 484ZM1013.93 476 1025.93 482 1013.93 488Z" fill="#3261AB"/><path d="M0.016999-1.99993 16.0164-1.86394 15.9824 2.13592-0.016999 1.99993ZM28.016-1.76194 44.0154-1.62595 43.9814 2.37391 27.982 2.23791ZM56.015-1.52396 72.0144-1.38796 71.9804 2.61189 55.981 2.4759ZM84.014-1.28597 100.013-1.14998 99.9794 2.84988 83.98 2.71389ZM112.013-1.04798 128.012-0.911992 127.978 3.08786 111.979 2.95187ZM140.012-0.809998 156.011-0.674006 155.977 3.32585 139.978 3.18986ZM168.011-0.572012 174.836-0.514003 174.802 3.48585 167.977 3.42784ZM172.87-4.53086 184.818 1.57092 172.768 7.46871Z" fill="#7F7F7F" transform="matrix(1 0 0 -1 168 633.571)"/><path d="M125 303 125 364.254 121 364.254 121 303ZM129 362.254 123 374.254 117 362.254Z" fill="#4B5E68"/><path d="M122 480 122 541.254 118 541.254 118 480ZM126 539.254 120 551.254 114 539.254Z" fill="#4B5E68"/><path d="M259 239 259 289.472 255 289.472 255 239ZM263 287.472 257 299.472 251 287.472Z" fill="#4B5E68"/><path d="M259 395 259 490.827 255 490.827 255 395ZM263 488.827 257 500.827 251 488.827Z" fill="#4B5E68"/><path d="M1.6835e-06-2 114.724-1.9999 114.724 2.0001-1.6835e-06 2ZM112.724-5.99991 124.724 0.000104987 112.724 6.00009Z" fill="#C8A314" transform="matrix(1 0 0 -1 691 324)"/><path d="M6.17284e-06-2 24.0158-1.99993 24.0157 2.00007-6.17284e-06 2ZM22.0158-5.99993 34.0157 0.000104987 22.0157 6.00007Z" fill="#C8A314" transform="matrix(-1.83697e-16 -1 -1 1.83697e-16 865 263.016)"/><path d="M315.745 335.903C476.582 270.225 687.53 238.31 786.912 264.619 802.218 268.671 814.302 273.997 822.869 280.469" stroke="#C8A314" stroke-width="3" stroke-miterlimit="8" fill="none" fill-rule="evenodd"/><path d="M820.467 266.121 827.556 283.885 808.626 286.618Z" fill="#C8A314" fill-rule="evenodd"/><text fill="#264980" font-family="Arial,Arial_MSFontService,sans-serif" font-weight="700" font-size="16" transform="translate(560.51 419)">Individuals who start</text><text fill="#264980" font-family="Arial,Arial_MSFontService,sans-serif" font-weight="700" font-size="16" transform="translate(571.597 438)">shedding on day t</text><text fill="#264980" font-family="Arial,Arial_MSFontService,sans-serif" font-weight="700" font-size="16" transform="translate(762.865 425)">Wastewater concentration</text><text fill="#264980" font-family="Arial,Arial_MSFontService,sans-serif" font-weight="700" font-size="16" transform="translate(1031.42 423)">Detection probability</text><text fill="#264980" font-family="Arial,Arial_MSFontService,sans-serif" font-weight="700" font-size="16" transform="translate(1041.31 668)">The number of</text><text fill="#264980" font-family="Arial,Arial_MSFontService,sans-serif" font-weight="700" font-size="16" transform="translate(1032.56 687)">positive samples</text><text fill="#264980" font-family="Arial,Arial_MSFontService,sans-serif" font-weight="700" font-size="16" transform="translate(783.268 680)">Observed concentration</text><text fill="#856D0E" font-family="Arial,Arial_MSFontService,sans-serif" font-weight="700" font-size="16" transform="translate(792.269 359)">Individuals who are</text><text fill="#856D0E" font-family="Arial,Arial_MSFontService,sans-serif" font-weight="700" font-size="16" transform="translate(798.023 378)">identified on day t</text><text fill="#856D0E" font-family="Arial,Arial_MSFontService,sans-serif" font-weight="700" font-size="16" transform="translate(552.395 284)">Individuals who develop</text><text fill="#856D0E" font-family="Arial,Arial_MSFontService,sans-serif" font-weight="700" font-size="16" transform="translate(569.982 303)">symptoms on day t</text><path d="M259 599 259 664.591 255 664.591 255 599ZM263 662.591 257 674.591 251 662.591Z" fill="#4B5E68"/><text fill="#4B5E68" font-family="Arial,Arial_MSFontService,sans-serif" font-weight="700" font-size="24" transform="translate(66.6062 142)">State formulas (Gaussian process)</text><text fill="#856D0E" font-family="Arial,Arial_MSFontService,sans-serif" font-weight="700" font-size="16" transform="translate(806.797 137)">Reported cases</text><text fill="#4B5E68" font-family="Cambria Math,Cambria Math_MSFontService,sans-serif" font-weight="400" font-size="16" transform="translate(1049.76 550)">𝑁</text><text fill="#4B5E68" font-family="Cambria Math,Cambria Math_MSFontService,sans-serif" font-weight="400" font-size="12" transform="translate(1060.1 553)">𝑚</text><path d="M1085.84 537.685C1087.36 538.086 1088.53 538.952 1089.34 540.283 1090.16 541.613 1090.56 543.219 1090.56 545.099 1090.56 546.985 1090.16 548.59 1089.34 549.916 1088.53 551.241 1087.36 552.104 1085.84 552.505L1085.65 551.904C1086.85 551.503 1087.75 550.711 1088.33 549.529 1088.92 548.347 1089.21 546.844 1089.21 545.021 1089.21 543.261 1088.92 541.798 1088.34 540.634 1087.75 539.47 1086.85 538.688 1085.63 538.287ZM1078.09 537.685 1078.31 538.287C1077.09 538.688 1076.18 539.47 1075.6 540.634 1075.01 541.798 1074.72 543.261 1074.72 545.021 1074.72 546.844 1075.01 548.347 1075.6 549.529 1076.18 550.711 1077.08 551.503 1078.28 551.904L1078.09 552.505C1076.57 552.104 1075.4 551.241 1074.59 549.916 1073.77 548.59 1073.37 546.985 1073.37 545.099 1073.37 543.219 1073.78 541.613 1074.59 540.283 1075.41 538.952 1076.57 538.086 1078.09 537.685Z" fill="#4B5E68" fill-rule="evenodd"/><text fill="#4B5E68" font-family="Cambria Math,Cambria Math_MSFontService,sans-serif" font-weight="400" font-size="16" transform="translate(1078.6 550)">𝑡</text><text fill="#4B5E68" font-family="Cambria Math,Cambria Math_MSFontService,sans-serif" font-weight="400" font-size="16" transform="translate(1091.97 550)"></text><text fill="#4B5E68" font-family="Cambria Math,Cambria Math_MSFontService,sans-serif" font-weight="400" font-size="16" transform="translate(1095.47 550)"></text><text fill="#4B5E68" font-family="Cambria Math,Cambria Math_MSFontService,sans-serif" font-weight="400" font-size="16" transform="translate(1098.97 550)">~</text><text fill="#4B5E68" font-family="Cambria Math,Cambria Math_MSFontService,sans-serif" font-weight="400" font-size="16" transform="translate(1110.3 550)"></text><text fill="#4B5E68" font-family="Cambria Math,Cambria Math_MSFontService,sans-serif" font-weight="400" font-size="16" transform="translate(1113.8 550)">𝐵</text><text fill="#4B5E68" font-family="Cambria Math,Cambria Math_MSFontService,sans-serif" font-weight="400" font-size="16" transform="translate(1124.3 550)">𝑁</text><path d="M1212.72 535.433C1214.34 535.86 1215.6 536.967 1216.48 538.753 1217.36 540.54 1217.8 542.654 1217.8 545.097 1217.8 547.54 1217.36 549.654 1216.48 551.441 1215.6 553.227 1214.34 554.334 1212.72 554.761L1212.52 554.121C1213.78 553.647 1214.74 552.614 1215.39 551.023 1216.03 549.432 1216.36 547.459 1216.36 545.105 1216.36 542.746 1216.03 540.769 1215.39 539.175 1214.74 537.582 1213.78 536.548 1212.52 536.074ZM1142.85 535.433 1143.04 536.074C1141.78 536.548 1140.83 537.582 1140.18 539.175 1139.53 540.769 1139.21 542.746 1139.21 545.105 1139.21 547.459 1139.53 549.432 1140.18 551.023 1140.83 552.614 1141.78 553.647 1143.04 554.121L1142.85 554.761C1141.22 554.334 1139.97 553.227 1139.09 551.441 1138.21 549.654 1137.77 547.54 1137.77 545.097 1137.77 542.654 1138.21 540.54 1139.09 538.753 1139.97 536.967 1141.22 535.86 1142.85 535.433Z" fill="#4B5E68" fill-rule="evenodd"/><text fill="#4B5E68" font-family="Cambria Math,Cambria Math_MSFontService,sans-serif" font-weight="400" font-size="16" transform="translate(1143.55 550)">𝑁</text><path d="M1169.48 537.685C1171 538.086 1172.17 538.952 1172.99 540.283 1173.8 541.613 1174.21 543.219 1174.21 545.099 1174.21 546.985 1173.8 548.59 1172.99 549.916 1172.18 551.241 1171.01 552.104 1169.48 552.505L1169.3 551.904C1170.5 551.503 1171.39 550.711 1171.98 549.529 1172.57 548.347 1172.86 546.844 1172.86 545.021 1172.86 543.261 1172.57 541.798 1171.98 540.634 1171.4 539.47 1170.5 538.688 1169.27 538.287ZM1161.74 537.685 1161.95 538.287C1160.73 538.688 1159.83 539.47 1159.25 540.634 1158.66 541.798 1158.37 543.261 1158.37 545.021 1158.37 546.844 1158.66 548.347 1159.25 549.529 1159.83 550.711 1160.73 551.503 1161.93 551.904L1161.74 552.505C1160.22 552.104 1159.05 551.241 1158.23 549.916 1157.42 548.59 1157.02 546.985 1157.02 545.099 1157.02 543.219 1157.42 541.613 1158.24 540.283 1159.05 538.952 1160.22 538.086 1161.74 537.685Z" fill="#4B5E68" fill-rule="evenodd"/><text fill="#4B5E68" font-family="Cambria Math,Cambria Math_MSFontService,sans-serif" font-weight="400" font-size="16" transform="translate(1162.25 550)">𝑡</text><text fill="#4B5E68" font-family="Cambria Math,Cambria Math_MSFontService,sans-serif" font-weight="400" font-size="16" transform="translate(1175.62 550)">,</text><text fill="#4B5E68" font-family="Cambria Math,Cambria Math_MSFontService,sans-serif" font-weight="400" font-size="16" transform="translate(1181.62 550)">𝑃</text><path d="M1205.88 537.685C1207.4 538.086 1208.57 538.952 1209.39 540.283 1210.2 541.613 1210.61 543.219 1210.61 545.099 1210.61 546.985 1210.2 548.59 1209.39 549.916 1208.58 551.241 1207.41 552.104 1205.88 552.505L1205.7 551.904C1206.9 551.503 1207.79 550.711 1208.38 549.529 1208.97 548.347 1209.26 546.844 1209.26 545.021 1209.26 543.261 1208.97 541.798 1208.38 540.634 1207.8 539.47 1206.9 538.688 1205.67 538.287ZM1198.14 537.685 1198.35 538.287C1197.13 538.688 1196.23 539.47 1195.65 540.634 1195.06 541.798 1194.77 543.261 1194.77 545.021 1194.77 546.844 1195.06 548.347 1195.65 549.529 1196.23 550.711 1197.13 551.503 1198.33 551.904L1198.14 552.505C1196.62 552.104 1195.45 551.241 1194.63 549.916 1193.82 548.59 1193.42 546.985 1193.42 545.099 1193.42 543.219 1193.82 541.613 1194.64 540.283 1195.45 538.952 1196.62 538.086 1198.14 537.685Z" fill="#4B5E68" fill-rule="evenodd"/><text fill="#4B5E68" font-family="Cambria Math,Cambria Math_MSFontService,sans-serif" font-weight="400" font-size="16" transform="translate(1198.65 550)">𝑡</text><text fill="#4B5E68" font-family="Cambria Math,Cambria Math_MSFontService,sans-serif" font-weight="400" font-size="16" transform="translate(1219.2 550)"></text><text fill="#4B5E68" font-family="Cambria Math,Cambria Math_MSFontService,sans-serif" font-weight="400" font-size="16" transform="translate(783.458 552)">𝑙𝑜𝑔</text><text fill="#4B5E68" font-family="Cambria Math,Cambria Math_MSFontService,sans-serif" font-weight="400" font-size="12" transform="translate(805.871 555)">10</text><text fill="#4B5E68" font-family="Cambria Math,Cambria Math_MSFontService,sans-serif" font-weight="400" font-size="16" transform="translate(820.205 552)">𝑊</text><text fill="#4B5E68" font-family="Cambria Math,Cambria Math_MSFontService,sans-serif" font-weight="400" font-size="12" transform="translate(831.931 555)">𝑚</text><path d="M857.672 539.536C859.193 539.937 860.361 540.803 861.176 542.133 861.991 543.464 862.399 545.07 862.399 546.95 862.399 548.835 861.993 550.441 861.18 551.766 860.368 553.092 859.198 553.955 857.672 554.356L857.485 553.754C858.688 553.353 859.583 552.562 860.169 551.379 860.754 550.197 861.047 548.695 861.047 546.872 861.047 545.111 860.756 543.649 860.172 542.485 859.589 541.321 858.685 540.538 857.461 540.137ZM849.931 539.536 850.142 540.137C848.923 540.538 848.021 541.321 847.435 542.485 846.849 543.649 846.556 545.111 846.556 546.872 846.556 548.695 846.849 550.197 847.435 551.379 848.021 552.562 848.915 553.353 850.118 553.754L849.931 554.356C848.405 553.955 847.235 553.092 846.423 551.766 845.61 550.441 845.204 548.835 845.204 546.95 845.204 545.07 845.612 543.464 846.427 542.133 847.242 540.803 848.41 539.937 849.931 539.536Z" fill="#4B5E68" fill-rule="evenodd"/><text fill="#4B5E68" font-family="Cambria Math,Cambria Math_MSFontService,sans-serif" font-weight="400" font-size="16" transform="translate(850.438 552)">𝑡</text><text fill="#4B5E68" font-family="Cambria Math,Cambria Math_MSFontService,sans-serif" font-weight="400" font-size="16" transform="translate(863.805 552)"></text><text fill="#4B5E68" font-family="Cambria Math,Cambria Math_MSFontService,sans-serif" font-weight="400" font-size="16" transform="translate(867.305 552)"></text><text fill="#4B5E68" font-family="Cambria Math,Cambria Math_MSFontService,sans-serif" font-weight="400" font-size="16" transform="translate(870.805 552)">~</text><text fill="#4B5E68" font-family="Cambria Math,Cambria Math_MSFontService,sans-serif" font-weight="400" font-size="16" transform="translate(882.138 552)"></text><text fill="#4B5E68" font-family="Cambria Math,Cambria Math_MSFontService,sans-serif" font-weight="400" font-size="16" transform="translate(885.638 552)"></text><text fill="#4B5E68" font-family="Cambria Math,Cambria Math_MSFontService,sans-serif" font-weight="400" font-size="16" transform="translate(889.138 552)">𝑁</text><path d="M1004.67 539.536C1006.19 539.937 1007.35 540.803 1008.17 542.133 1008.98 543.464 1009.39 545.07 1009.39 546.95 1009.39 548.835 1008.99 550.441 1008.17 551.766 1007.36 553.092 1006.19 553.955 1004.67 554.356L1004.48 553.754C1005.68 553.353 1006.58 552.562 1007.16 551.379 1007.75 550.197 1008.04 548.695 1008.04 546.872 1008.04 545.111 1007.75 543.649 1007.17 542.485 1006.58 541.321 1005.68 540.538 1004.45 540.137ZM907.331 539.536 907.542 540.137C906.323 540.538 905.421 541.321 904.835 542.485 904.249 543.649 903.956 545.111 903.956 546.872 903.956 548.695 904.249 550.197 904.835 551.379 905.421 552.562 906.315 553.353 907.518 553.754L907.331 554.356C905.805 553.955 904.635 553.092 903.823 551.766 903.01 550.441 902.604 548.835 902.604 546.95 902.604 545.07 903.012 543.464 903.827 542.133 904.642 540.803 905.81 539.937 907.331 539.536Z" fill="#4B5E68" fill-rule="evenodd"/><text fill="#4B5E68" font-family="Cambria Math,Cambria Math_MSFontService,sans-serif" font-weight="400" font-size="16" transform="translate(907.838 552)">𝑙𝑜𝑔</text><text fill="#4B5E68" font-family="Cambria Math,Cambria Math_MSFontService,sans-serif" font-weight="400" font-size="12" transform="translate(930.251 555)">10</text><text fill="#4B5E68" font-family="Cambria Math,Cambria Math_MSFontService,sans-serif" font-weight="400" font-size="16" transform="translate(944.585 552)">𝑊</text><path d="M974.252 539.536C975.773 539.937 976.941 540.803 977.756 542.133 978.571 543.464 978.979 545.07 978.979 546.95 978.979 548.835 978.573 550.441 977.76 551.766 976.948 553.092 975.778 553.955 974.252 554.356L974.065 553.754C975.268 553.353 976.163 552.562 976.749 551.379 977.334 550.197 977.627 548.695 977.627 546.872 977.627 545.111 977.336 543.649 976.752 542.485 976.169 541.321 975.265 540.538 974.042 540.137ZM966.511 539.536 966.722 540.137C965.503 540.538 964.601 541.321 964.015 542.485 963.429 543.649 963.136 545.111 963.136 546.872 963.136 548.695 963.429 550.197 964.015 551.379 964.601 552.562 965.495 553.353 966.698 553.754L966.511 554.356C964.985 553.955 963.815 553.092 963.003 551.766 962.19 550.441 961.784 548.835 961.784 546.95 961.784 545.07 962.192 543.464 963.007 542.133 963.822 540.803 964.99 539.937 966.511 539.536Z" fill="#4B5E68" fill-rule="evenodd"/><text fill="#4B5E68" font-family="Cambria Math,Cambria Math_MSFontService,sans-serif" font-weight="400" font-size="16" transform="translate(967.018 552)">𝑡</text><text fill="#4B5E68" font-family="Cambria Math,Cambria Math_MSFontService,sans-serif" font-weight="400" font-size="16" transform="translate(980.385 552)">,</text><text fill="#4B5E68" font-family="Cambria Math,Cambria Math_MSFontService,sans-serif" font-weight="400" font-size="16" transform="translate(986.385 552)">𝜎</text><text fill="#4B5E68" font-family="Cambria Math,Cambria Math_MSFontService,sans-serif" font-weight="400" font-size="12" transform="translate(994.625 555)">3</text><text fill="#4B5E68" font-family="Cambria Math,Cambria Math_MSFontService,sans-serif" font-weight="400" font-size="12" transform="translate(996.658 545)">2</text><text fill="#4B5E68" font-family="Cambria Math,Cambria Math_MSFontService,sans-serif" font-weight="400" font-size="16" transform="translate(816.156 257)">𝐼</text><text fill="#4B5E68" font-family="Cambria Math,Cambria Math_MSFontService,sans-serif" font-weight="400" font-size="12" transform="translate(821.216 261)">𝑚</text><text fill="#4B5E68" font-family="Cambria Math,Cambria Math_MSFontService,sans-serif" font-weight="400" font-size="12" transform="translate(832.416 261)">,</text><text fill="#4B5E68" font-family="Cambria Math,Cambria Math_MSFontService,sans-serif" font-weight="400" font-size="12" transform="translate(834.75 261)">𝑐</text><path d="M855.497 245.256C857.018 245.657 858.186 246.523 859.001 247.854 859.817 249.184 860.224 250.79 860.224 252.67 860.224 254.555 859.818 256.161 859.005 257.486 858.193 258.812 857.024 259.675 855.497 260.076L855.31 259.475C856.513 259.074 857.408 258.282 857.994 257.1 858.58 255.917 858.872 254.415 858.872 252.592 858.872 250.831 858.581 249.369 857.997 248.205 857.414 247.041 856.511 246.259 855.287 245.857ZM847.756 245.256 847.967 245.857C846.748 246.259 845.846 247.041 845.26 248.205 844.674 249.369 844.381 250.831 844.381 252.592 844.381 254.415 844.674 255.917 845.26 257.1 845.846 258.282 846.74 259.074 847.943 259.475L847.756 260.076C846.23 259.675 845.061 258.812 844.248 257.486 843.436 256.161 843.029 254.555 843.029 252.67 843.029 250.79 843.437 249.184 844.252 247.854 845.067 246.523 846.235 245.657 847.756 245.256Z" fill="#4B5E68" fill-rule="evenodd"/><text fill="#4B5E68" font-family="Cambria Math,Cambria Math_MSFontService,sans-serif" font-weight="400" font-size="16" transform="translate(848.263 257)">𝑡</text><text fill="#4B5E68" font-family="Cambria Math,Cambria Math_MSFontService,sans-serif" font-weight="400" font-size="16" transform="translate(861.63 257)"></text><text fill="#4B5E68" font-family="Cambria Math,Cambria Math_MSFontService,sans-serif" font-weight="400" font-size="16" transform="translate(865.13 257)"></text><text fill="#4B5E68" font-family="Cambria Math,Cambria Math_MSFontService,sans-serif" font-weight="400" font-size="16" transform="translate(868.63 257)">~</text><text fill="#4B5E68" font-family="Cambria Math,Cambria Math_MSFontService,sans-serif" font-weight="400" font-size="16" transform="translate(879.963 257)"></text><text fill="#4B5E68" font-family="Cambria Math,Cambria Math_MSFontService,sans-serif" font-weight="400" font-size="16" transform="translate(883.463 257)"></text><text fill="#4B5E68" font-family="Cambria Math,Cambria Math_MSFontService,sans-serif" font-weight="400" font-size="16" transform="translate(886.963 257)">𝑃𝑜𝑖𝑠𝑠𝑜𝑛</text><path d="M988.622 239.472C990.367 240.357 991.754 241.982 992.782 244.347 993.811 246.711 994.325 249.482 994.325 252.659 994.325 255.815 993.811 258.586 992.782 260.972 991.754 263.357 990.367 264.987 988.622 265.862L988.372 265.237C989.768 264.331 990.86 262.774 991.649 260.565 992.438 258.357 992.833 255.727 992.833 252.675 992.833 249.565 992.436 246.918 991.642 244.733 990.847 242.548 989.757 241.003 988.372 240.097ZM952.807 239.472 953.065 240.097C951.679 241.003 950.589 242.548 949.795 244.733 949.001 246.918 948.604 249.565 948.604 252.675 948.604 255.727 948.997 258.357 949.783 260.565 950.57 262.774 951.663 264.331 953.065 265.237L952.807 265.862C951.067 264.987 949.683 263.357 948.654 260.972 947.626 258.586 947.111 255.815 947.111 252.659 947.111 249.482 947.626 246.711 948.654 244.347 949.683 241.982 951.067 240.357 952.807 239.472Z" fill="#4B5E68" fill-rule="evenodd"/><text fill="#4B5E68" font-family="Cambria Math,Cambria Math_MSFontService,sans-serif" font-weight="400" font-size="16" transform="translate(953.583 257)">𝐼</text><text fill="#4B5E68" font-family="Cambria Math,Cambria Math_MSFontService,sans-serif" font-weight="400" font-size="12" transform="translate(958.643 261)">𝑐</text><text fill="#4B5E68" font-family="Cambria Math,Cambria Math_MSFontService,sans-serif" font-weight="400" font-size="12" transform="translate(964.85 261)">,</text><path d="M981.724 245.256C983.245 245.657 984.413 246.523 985.228 247.854 986.043 249.184 986.451 250.79 986.451 252.67 986.451 254.555 986.044 256.161 985.232 257.486 984.419 258.812 983.25 259.675 981.724 260.076L981.537 259.475C982.74 259.074 983.634 258.282 984.22 257.1 984.806 255.917 985.099 254.415 985.099 252.592 985.099 250.831 984.807 249.369 984.224 248.205 983.641 247.041 982.737 246.259 981.513 245.857ZM973.983 245.256 974.193 245.857C972.975 246.259 972.072 247.041 971.486 248.205 970.901 249.369 970.608 250.831 970.608 252.592 970.608 254.415 970.901 255.917 971.486 257.1 972.072 258.282 972.967 259.074 974.17 259.475L973.983 260.076C972.456 259.675 971.287 258.812 970.475 257.486 969.662 256.161 969.256 254.555 969.256 252.67 969.256 250.79 969.664 249.184 970.479 247.854 971.294 246.523 972.462 245.657 973.983 245.256Z" fill="#4B5E68" fill-rule="evenodd"/><text fill="#4B5E68" font-family="Cambria Math,Cambria Math_MSFontService,sans-serif" font-weight="400" font-size="16" transform="translate(974.49 257)">𝑡</text><rect x="152" y="411" width="258" height="59" fill="#F2F2F2"/><text fill="#953735" font-family="Cambria Math,Cambria Math_MSFontService,sans-serif" font-weight="400" font-size="14" transform="translate(164.495 444)">𝐼</text><text fill="#953735" font-family="Cambria Math,Cambria Math_MSFontService,sans-serif" font-weight="400" font-size="10" transform="translate(169.008 447)">𝑛𝑒𝑤</text><path d="M202.446 433.842C203.776 434.193 204.798 434.951 205.512 436.115 206.225 437.28 206.581 438.685 206.581 440.33 206.581 441.98 206.226 443.384 205.515 444.544 204.804 445.704 203.781 446.459 202.446 446.81L202.282 446.284C203.334 445.933 204.117 445.24 204.63 444.206 205.143 443.171 205.399 441.857 205.399 440.261 205.399 438.721 205.144 437.442 204.633 436.423 204.123 435.405 203.332 434.72 202.261 434.369ZM195.714 433.842 195.899 434.369C194.832 434.72 194.043 435.405 193.53 436.423 193.018 437.442 192.761 438.721 192.761 440.261 192.761 441.857 193.018 443.171 193.53 444.206 194.043 445.24 194.826 445.933 195.878 446.284L195.714 446.81C194.379 446.459 193.356 445.704 192.645 444.544 191.934 443.384 191.579 441.98 191.579 440.33 191.579 438.685 191.935 437.28 192.648 436.115 193.362 434.951 194.384 434.193 195.714 433.842Z" fill="#953735" fill-rule="evenodd"/><text fill="#953735" font-family="Cambria Math,Cambria Math_MSFontService,sans-serif" font-weight="400" font-size="14" transform="translate(196.161 444)">𝑡</text><text fill="#953735" font-family="Cambria Math,Cambria Math_MSFontService,sans-serif" font-weight="400" font-size="14" transform="translate(211.701 444)">=</text><text fill="#953735" font-family="Cambria Math,Cambria Math_MSFontService,sans-serif" font-weight="400" font-size="14" transform="translate(224.141 444)"></text><text fill="#953735" font-family="Cambria Math,Cambria Math_MSFontService,sans-serif" font-weight="400" font-size="14" transform="translate(229.088 444)">𝑅</text><text fill="#953735" font-family="Cambria Math,Cambria Math_MSFontService,sans-serif" font-weight="400" font-size="10" transform="translate(238.501 439)">𝑒𝑓𝑓</text><path d="M269.286 433.842C270.616 434.193 271.638 434.951 272.352 436.115 273.065 437.28 273.422 438.685 273.422 440.33 273.422 441.98 273.066 443.384 272.355 444.544 271.644 445.704 270.621 446.459 269.286 446.81L269.122 446.284C270.174 445.933 270.957 445.24 271.47 444.206 271.983 443.171 272.239 441.857 272.239 440.261 272.239 438.721 271.984 437.442 271.473 436.423 270.963 435.405 270.172 434.72 269.101 434.369ZM262.554 433.842 262.739 434.369C261.672 434.72 260.883 435.405 260.37 436.423 259.858 437.442 259.601 438.721 259.601 440.261 259.601 441.857 259.858 443.171 260.37 444.206 260.883 445.24 261.666 445.933 262.718 446.284L262.554 446.81C261.219 446.459 260.196 445.704 259.485 444.544 258.774 443.384 258.419 441.98 258.419 440.33 258.419 438.685 258.775 437.28 259.488 436.115 260.202 434.951 261.224 434.193 262.554 433.842Z" fill="#953735" fill-rule="evenodd"/><text fill="#953735" font-family="Cambria Math,Cambria Math_MSFontService,sans-serif" font-weight="400" font-size="14" transform="translate(263.001 444)">𝑡</text><path d="M3.19238-16.4678 11.3477-5.39355 11.3477-4.56641 2.54297 7.38281 14.4033 7.38281C14.9274 7.38281 15.3285 7.19824 15.6064 6.8291 15.8844 6.45996 16.1237 5.63509 16.3242 4.35449L17.3359 4.35449 16.9873 9.36523 0.177734 9.36523 0.177734 8.68848 9.75488-4.29297 0.458008-16.7139 0.458008-17.3633 16.9668-17.3633 16.9668-13.3164 16.0645-13.3164C15.9596-14.2871 15.7477-15.055 15.4287-15.6201 15.1097-16.1852 14.6266-16.4678 13.9795-16.4678Z" fill="#953735" transform="translate(277.068 444)"/><text fill="#000000" fill-opacity="0" font-family="Arial,Arial_MSFontService,sans-serif" font-size="26.7285" x="0.177734" y="6.02417">෍</text><text fill="#953735" font-family="Cambria Math,Cambria Math_MSFontService,sans-serif" font-weight="400" font-size="14" transform="translate(298.041 444)">𝐼</text><text fill="#953735" font-family="Cambria Math,Cambria Math_MSFontService,sans-serif" font-weight="400" font-size="10" transform="translate(302.555 447)">𝑛𝑒𝑤</text><path d="M359.519 433.842C360.85 434.193 361.872 434.951 362.585 436.115 363.298 437.28 363.655 438.685 363.655 440.33 363.655 441.98 363.299 443.384 362.588 444.544 361.878 445.704 360.854 446.459 359.519 446.81L359.355 446.284C360.408 445.933 361.19 445.24 361.703 444.206 362.216 443.171 362.472 441.857 362.472 440.261 362.472 438.721 362.217 437.442 361.707 436.423 361.196 435.405 360.405 434.72 359.335 434.369ZM329.261 433.842 329.446 434.369C328.379 434.72 327.59 435.405 327.077 436.423 326.564 437.442 326.308 438.721 326.308 440.261 326.308 441.857 326.564 443.171 327.077 444.206 327.59 445.24 328.372 445.933 329.425 446.284L329.261 446.81C327.926 446.459 326.903 445.704 326.192 444.544 325.481 443.384 325.125 441.98 325.125 440.33 325.125 438.685 325.482 437.28 326.195 436.115 326.908 434.951 327.93 434.193 329.261 433.842Z" fill="#953735" fill-rule="evenodd"/><text fill="#953735" font-family="Cambria Math,Cambria Math_MSFontService,sans-serif" font-weight="400" font-size="14" transform="translate(329.708 444)">𝑡</text><text fill="#953735" font-family="Cambria Math,Cambria Math_MSFontService,sans-serif" font-weight="400" font-size="14" transform="translate(338.661 444)">−</text><text fill="#953735" font-family="Cambria Math,Cambria Math_MSFontService,sans-serif" font-weight="400" font-size="14" transform="translate(352.275 444)">𝜏</text><text fill="#953735" font-family="Cambria Math,Cambria Math_MSFontService,sans-serif" font-weight="400" font-size="14" transform="translate(364.888 444)">𝑔</text><text fill="#953735" font-family="Cambria Math,Cambria Math_MSFontService,sans-serif" font-weight="400" font-size="10" transform="translate(372.581 447)">1</text><path d="M392.052 433.842C393.383 434.193 394.405 434.951 395.118 436.115 395.832 437.28 396.188 438.685 396.188 440.33 396.188 441.98 395.833 443.384 395.122 444.544 394.411 445.704 393.388 446.459 392.052 446.81L391.888 446.284C392.941 445.933 393.724 445.24 394.237 444.206 394.749 443.171 395.006 441.857 395.006 440.261 395.006 438.721 394.75 437.442 394.24 436.423 393.729 435.405 392.939 434.72 391.868 434.369ZM384.361 433.842 384.546 434.369C383.479 434.72 382.69 435.405 382.177 436.423 381.664 437.442 381.408 438.721 381.408 440.261 381.408 441.857 381.664 443.171 382.177 444.206 382.69 445.24 383.472 445.933 384.525 446.284L384.361 446.81C383.026 446.459 382.003 445.704 381.292 444.544 380.581 443.384 380.225 441.98 380.225 440.33 380.225 438.685 380.582 437.28 381.295 436.115 382.008 434.951 383.03 434.193 384.361 433.842Z" fill="#953735" fill-rule="evenodd"/><text fill="#953735" font-family="Cambria Math,Cambria Math_MSFontService,sans-serif" font-weight="400" font-size="14" transform="translate(384.808 444)">𝜏</text><text fill="#953735" font-family="Cambria Math,Cambria Math_MSFontService,sans-serif" font-weight="400" font-size="10" transform="translate(277.295 424)">𝑡</text><text fill="#953735" font-family="Cambria Math,Cambria Math_MSFontService,sans-serif" font-weight="400" font-size="10" transform="translate(282.068 424)">−</text><text fill="#953735" font-family="Cambria Math,Cambria Math_MSFontService,sans-serif" font-weight="400" font-size="10" transform="translate(289.568 424)">1</text><text fill="#953735" font-family="Cambria Math,Cambria Math_MSFontService,sans-serif" font-weight="400" font-size="10" transform="translate(276.988 462)">𝜏</text><text fill="#953735" font-family="Cambria Math,Cambria Math_MSFontService,sans-serif" font-weight="400" font-size="10" transform="translate(282.375 462)">=</text><text fill="#953735" font-family="Cambria Math,Cambria Math_MSFontService,sans-serif" font-weight="400" font-size="10" transform="translate(289.875 462)">1</text><path d="M80.5001 421C80.5001 398.08 99.3041 379.5 122.5 379.5 145.696 379.5 164.5 398.08 164.5 421 164.5 443.92 145.696 462.5 122.5 462.5 99.3041 462.5 80.5001 443.92 80.5001 421Z" stroke="#953735" stroke-width="1.33333" stroke-miterlimit="8" fill="#F2DCDB" fill-rule="evenodd"/><text font-family="Arial,Arial_MSFontService,sans-serif" font-weight="400" font-size="19" transform="translate(102.264 425)">R</text><text font-family="Arial,Arial_MSFontService,sans-serif" font-weight="400" font-size="12" transform="translate(115.764 419)">eff</text><text font-family="Arial,Arial_MSFontService,sans-serif" font-weight="400" font-size="19" transform="translate(129.537 425)">(t)</text><path d="M386.5 407C386.5 384.08 405.304 365.5 428.5 365.5 451.696 365.5 470.5 384.08 470.5 407 470.5 429.92 451.696 448.5 428.5 448.5 405.304 448.5 386.5 429.92 386.5 407Z" stroke="#984807" stroke-width="1.33333" stroke-miterlimit="8" fill="#D99694" fill-rule="evenodd"/><text font-family="Arial,Arial_MSFontService,sans-serif" font-weight="400" font-size="19" transform="translate(405.911 414)">I</text><text font-family="Arial,Arial_MSFontService,sans-serif" font-weight="400" font-size="12" transform="translate(411.078 418)">new</text><text font-family="Arial,Arial_MSFontService,sans-serif" font-weight="400" font-size="19" transform="translate(434.078 414)">(t)</text><path d="M0.016999-1.99993 174.836-0.514003 174.802 3.48585-0.016999 1.99993ZM172.87-4.53086 184.818 1.57092 172.768 7.46871Z" fill="#4B5E68" transform="matrix(1 0 0 -1 180 409.571)"/><text fill="#4B5E68" font-family="Arial,Arial_MSFontService,sans-serif" font-weight="700" font-size="15" transform="matrix(0.934499 0.355966 -0.355966 0.934499 474.546 446)">Shedding onset</text><text fill="#4B5E68" font-family="Arial,Arial_MSFontService,sans-serif" font-weight="700" font-size="15" transform="matrix(0.934499 0.355966 -0.355966 0.934499 482 468)">distribution</text><text fill="#4B5E68" font-family="Arial,Arial_MSFontService,sans-serif" font-weight="700" font-size="15" transform="translate(699.559 508)">Shedding load</text><text fill="#4B5E68" font-family="Arial,Arial_MSFontService,sans-serif" font-weight="700" font-size="15" transform="translate(716.305 526)">dynamics</text><text fill="#4B5E68" font-family="Arial,Arial_MSFontService,sans-serif" font-weight="400" font-size="15" transform="translate(932.004 504)">Logistic model</text><text fill="#953735" font-family="Arial,Arial_MSFontService,sans-serif" font-weight="700" font-size="16" transform="translate(318.933 471)">Newly infected</text><text fill="#953735" font-family="Arial,Arial_MSFontService,sans-serif" font-weight="700" font-size="16" transform="translate(300.02 490)">individuals on day t</text><text fill="#4B5E68" font-family="Arial,Arial_MSFontService,sans-serif" font-weight="400" font-size="15" transform="matrix(0.948529 -0.316692 0.316692 0.948529 487.68 369)">Incubation time</text><text fill="#4B5E68" font-family="Arial,Arial_MSFontService,sans-serif" font-weight="400" font-size="15" transform="translate(697.927 342)">Identification delay</text><path d="M91.5001 110.5 1187.56 110.5" stroke="#4B5E68" stroke-miterlimit="8" stroke-dasharray="8 3" fill="none" fill-rule="evenodd"/></g></svg>