<svg width="1282" height="724" xmlns="http://www.w3.org/2000/svg" xmlns:xlink="http://www.w3.org/1999/xlink" overflow="hidden"><g transform="translate(1 3)"><rect x="0" y="0" width="1280" height="720" fill="#FFFFFF"/><text fill="#4B5E68" font-family="Arial,Arial_MSFontService,sans-serif" font-weight="700" font-size="37" transform="translate(187.799 83)">Receiver</text><text fill="#4B5E68" font-family="Arial,Arial_MSFontService,sans-serif" font-weight="700" font-size="37" transform="translate(354.133 83)">Operating</text><text fill="#4B5E68" font-family="Arial,Arial_MSFontService,sans-serif" font-weight="700" font-size="37" transform="translate(540.966 83)">Characteristic</text><text fill="#4B5E68" font-family="Arial,Arial_MSFontService,sans-serif" font-weight="700" font-size="37" transform="translate(800.799 83)">(ROC) analysis</text><text fill="#4B5E68" font-family="Arial,Arial_MSFontService,sans-serif" font-weight="400" font-size="24" transform="translate(69.4097 133)">ROC</text><text fill="#4B5E68" font-family="Arial,Arial_MSFontService,sans-serif" font-weight="400" font-size="24" transform="translate(129.41 133)">analysis</text><text fill="#4B5E68" font-family="Arial,Arial_MSFontService,sans-serif" font-weight="400" font-size="24" transform="translate(222.743 133)">suggests that estimated probabilities may be used for identifying nosocomial transmission</text><path d="M79.5001 165.5 1243.59 165.5" stroke="#4B5E68" stroke-miterlimit="8" stroke-dasharray="8 3" fill="none" fill-rule="evenodd"/><rect x="0.500053" y="-1.50005" width="1280" height="37.0001" stroke="#7F7F7F" stroke-width="1.33333" stroke-miterlimit="8" fill="#D9D9D9"/><text fill="#4B5E68" font-family="Arial,Arial_MSFontService,sans-serif" font-weight="700" font-size="21" transform="translate(392 25)">Supplemental methods for real</text><text fill="#4B5E68" font-family="Arial,Arial_MSFontService,sans-serif" font-weight="700" font-size="21" transform="translate(705.167 25)">-</text><text fill="#4B5E68" font-family="Arial,Arial_MSFontService,sans-serif" font-weight="700" font-size="21" transform="translate(712.333 25)">world application</text><path d="M393.5 562.5 940.5 562.5" stroke="#EBEBEB" stroke-width="0.710971" stroke-linejoin="round" stroke-miterlimit="10" fill="none" fill-rule="evenodd"/><path d="M393.5 465.5 940.5 465.5" stroke="#EBEBEB" stroke-width="0.710971" stroke-linejoin="round" stroke-miterlimit="10" fill="none" fill-rule="evenodd"/><path d="M393.5 367.5 940.5 367.5" stroke="#EBEBEB" stroke-width="0.710971" stroke-linejoin="round" stroke-miterlimit="10" fill="none" fill-rule="evenodd"/><path d="M393.5 269.5 940.5 269.5" stroke="#EBEBEB" stroke-width="0.710971" stroke-linejoin="round" stroke-miterlimit="10" fill="none" fill-rule="evenodd"/><path d="M480.5 631.5 480.5 201.5" stroke="#EBEBEB" stroke-width="0.710971" stroke-linejoin="round" stroke-miterlimit="10" fill="none" fill-rule="evenodd"/><path d="M604.5 631.5 604.5 201.5" stroke="#EBEBEB" stroke-width="0.710971" stroke-linejoin="round" stroke-miterlimit="10" fill="none" fill-rule="evenodd"/><path d="M728.5 631.5 728.5 201.5" stroke="#EBEBEB" stroke-width="0.710971" stroke-linejoin="round" stroke-miterlimit="10" fill="none" fill-rule="evenodd"/><path d="M853.5 631.5 853.5 201.5" stroke="#EBEBEB" stroke-width="0.710971" stroke-linejoin="round" stroke-miterlimit="10" fill="none" fill-rule="evenodd"/><path d="M393.5 611.5 940.5 611.5" stroke="#EBEBEB" stroke-width="1.42194" stroke-linejoin="round" stroke-miterlimit="10" fill="none" fill-rule="evenodd"/><path d="M393.5 513.5 940.5 513.5" stroke="#EBEBEB" stroke-width="1.42194" stroke-linejoin="round" stroke-miterlimit="10" fill="none" fill-rule="evenodd"/><path d="M393.5 416.5 940.5 416.5" stroke="#EBEBEB" stroke-width="1.42194" stroke-linejoin="round" stroke-miterlimit="10" fill="none" fill-rule="evenodd"/><path d="M393.5 318.5 940.5 318.5" stroke="#EBEBEB" stroke-width="1.42194" stroke-linejoin="round" stroke-miterlimit="10" fill="none" fill-rule="evenodd"/><path d="M393.5 220.5 940.5 220.5" stroke="#EBEBEB" stroke-width="1.42194" stroke-linejoin="round" stroke-miterlimit="10" fill="none" fill-rule="evenodd"/><path d="M417.5 631.5 417.5 201.5" stroke="#EBEBEB" stroke-width="1.42194" stroke-linejoin="round" stroke-miterlimit="10" fill="none" fill-rule="evenodd"/><path d="M542.5 631.5 542.5 201.5" stroke="#EBEBEB" stroke-width="1.42194" stroke-linejoin="round" stroke-miterlimit="10" fill="none" fill-rule="evenodd"/><path d="M666.5 631.5 666.5 201.5" stroke="#EBEBEB" stroke-width="1.42194" stroke-linejoin="round" stroke-miterlimit="10" fill="none" fill-rule="evenodd"/><path d="M791.5 631.5 791.5 201.5" stroke="#EBEBEB" stroke-width="1.42194" stroke-linejoin="round" stroke-miterlimit="10" fill="none" fill-rule="evenodd"/><path d="M915.5 631.5 915.5 201.5" stroke="#EBEBEB" stroke-width="1.42194" stroke-linejoin="round" stroke-miterlimit="10" fill="none" fill-rule="evenodd"/><path d="M417 521.116 421.989 521.116 424.494 498.643 429.503 498.643 432.007 494.15 434.511 494.15 437.015 489.657 442.024 489.657 444.529 480.667 449.518 480.667 452.023 476.174 454.527 476.174 457.031 471.676 462.04 471.676 464.544 467.184 467.049 467.184 469.553 462.691 482.055 462.691 484.56 458.193 487.064 458.193 489.569 453.701 502.071 453.701 504.575 449.208 507.08 449.208 509.584 444.715 514.593 444.715 517.097 435.725 519.602 435.725 522.106 431.117 527.114 431.117 529.6 417.749 534.608 417.749 537.113 404.266 539.617 404.266 542.122 377.3 547.13 377.3 549.634 359.324 552.139 359.324 554.643 345.841 559.633 345.841 562.137 336.85 567.146 336.85 569.65 332.358 572.154 332.358 574.659 323.367 579.667 323.367 582.152 314.382 587.161 314.382 589.666 278.425 592.17 278.425 594.674 260.449 599.683 260.449 602.187 255.957 604.692 255.957 607.196 251.459 612.186 251.459 614.69 246.966 624.707 246.966 627.212 242.474 632.22 242.474 634.725 237.981 644.723 237.981 647.227 233.483 664.738 233.483 667.243 228.99 717.291 228.99 719.796 224.498 762.35 224.498 764.855 220 915 220 869.96 220 867.456 224.498 864.952 224.498 862.448 228.99 857.439 228.99 854.934 233.483 849.926 233.483 847.44 237.981 837.423 237.981 834.919 242.474 829.91 242.474 827.406 246.966 812.399 246.966 809.895 251.459 797.373 251.459 794.888 255.957 772.349 255.957 769.844 260.449 744.82 260.449 742.335 264.942 732.317 264.942 729.813 269.44 719.796 269.44 717.291 273.932 712.302 273.932 709.797 282.923 707.293 282.923 704.789 318.874 699.78 318.874 697.276 332.358 692.267 332.358 689.763 345.841 687.277 345.841 684.773 354.826 679.765 354.826 677.26 359.324 674.756 359.324 672.251 368.309 667.243 368.309 664.738 381.792 659.749 381.792 657.245 386.29 654.74 386.29 652.236 399.773 647.227 399.773 644.723 431.232 642.219 431.232 639.714 444.715 634.725 444.715 632.22 458.193 627.212 458.193 624.707 462.801 622.203 462.801 619.698 476.174 614.69 476.174 612.186 480.667 607.196 480.667 604.692 489.657 602.187 489.657 599.683 494.15 594.674 494.15 592.17 498.643 589.666 498.643 587.161 503.14 582.152 503.14 579.667 507.633 569.65 507.633 567.146 512.126 562.137 512.126 559.633 516.618 549.634 516.618 547.13 521.116 537.113 521.116 534.608 525.609 522.106 525.609 519.602 530.101 509.584 530.101 507.08 534.599 497.082 534.599 494.577 539.092 484.56 539.092 482.055 548.082 469.553 548.082 467.049 552.575 464.544 552.575 462.04 557.068 457.031 557.068 454.527 566.168 452.023 566.168 449.518 584.034 444.529 584.034 442.024 593.024 437.015 593.024 434.511 602.01 432.007 602.01 429.503 606.507 424.494 606.507 421.989 611 417 611Z" fill="#02818A" fill-rule="evenodd" fill-opacity="0.14902"/><path d="M417 462.668 421.989 462.668 424.494 440.197 429.503 440.197 432.007 408.741 434.511 408.741 437.015 363.803 442.024 363.803 444.529 345.829 449.518 345.829 452.023 332.347 454.527 332.347 457.031 323.358 462.04 323.358 464.544 318.865 467.049 318.865 469.553 314.373 474.543 314.373 477.047 309.876 482.055 309.876 484.56 305.383 487.064 305.383 489.569 296.394 494.577 296.394 497.082 291.902 502.071 291.902 504.575 287.409 507.08 287.409 509.584 282.917 514.593 282.917 517.097 278.42 519.602 278.42 522.106 273.927 527.114 273.927 529.6 269.435 539.617 269.435 542.122 264.938 547.13 264.938 549.634 260.446 567.146 260.446 569.65 255.953 599.683 255.953 602.187 255.838 604.692 255.838 607.196 251.456 704.789 251.456 707.293 251.054 709.797 250.693 712.302 246.964 739.83 246.964 742.335 246.743 744.82 245.935 749.829 245.172 752.333 243.907 754.837 243.541 757.342 243.169 759.846 242.803 762.35 242.471 767.359 242.471 769.844 242.12 777.357 240.976 779.861 240.589 782.366 240.208 784.87 239.52 787.375 239.144 789.879 238.772 794.888 238.019 797.373 237.919 814.903 235.249 817.408 234.872 822.416 234.109 824.901 233.728 847.44 230.295 849.926 229.913 869.96 226.861 872.465 226.485 874.969 226.103 877.454 225.722 902.498 221.907 904.983 221.526 915 220 912.496 221.506 904.983 226.008 902.498 227.509 899.994 229.01 897.489 230.515 887.472 236.519 884.968 238.024 877.454 242.527 874.969 244.027 872.465 245.528 869.96 247.034 859.943 253.037 857.439 254.543 849.926 259.045 847.44 260.546 844.936 262.047 842.432 263.552 832.414 269.556 829.91 271.061 827.406 273.004 824.901 274.063 822.416 276.031 819.912 277.546 817.408 278.425 814.903 280.071 812.399 281.572 809.895 282.917 807.39 282.922 804.886 284.202 802.381 287.409 799.877 287.409 797.373 287.926 794.888 291.641 792.383 291.902 789.879 292.941 787.375 294.401 784.87 295.857 782.366 296.394 772.349 296.394 769.844 298.803 767.359 300.163 764.855 300.891 744.82 300.891 742.335 305.383 699.78 305.383 697.276 305.494 692.267 305.494 689.763 309.876 622.203 309.876 619.698 314.373 607.196 314.373 604.692 318.865 594.674 318.865 592.17 323.358 589.666 323.358 587.161 327.855 582.152 327.855 579.667 332.347 574.659 332.347 572.154 336.839 569.65 336.839 567.146 341.337 562.137 341.337 559.633 350.321 554.643 350.321 552.139 354.814 549.634 354.814 547.13 359.311 542.122 359.311 539.617 363.803 537.113 363.803 534.608 368.295 529.6 368.295 527.114 372.793 522.106 372.793 519.602 377.285 517.097 377.285 514.593 386.275 509.584 386.275 507.08 395.259 504.575 395.259 502.071 413.233 497.082 413.233 494.577 435.815 489.569 435.815 487.064 462.668 484.56 462.668 482.055 467.161 477.047 467.161 474.543 476.15 469.553 476.15 467.049 489.632 464.544 489.632 462.04 498.617 457.031 498.617 454.527 512.099 452.023 512.099 449.518 530.073 444.529 530.073 442.024 548.052 437.015 548.052 434.511 570.518 432.007 570.518 429.503 579.508 424.494 579.508 421.989 584 417 584Z" fill="#FEB24C" fill-rule="evenodd" fill-opacity="0.14902"/><path d="M417 463.002 421.989 463.002 424.494 418.002 429.503 418.002 432.007 386.503 434.511 386.503 437.015 364.001 442.024 364.001 444.529 350.5 449.518 350.5 452.023 336.889 454.527 336.889 457.031 323.5 462.04 323.5 464.544 314.503 469.553 314.503 472.057 305.501 474.543 305.501 477.047 301.002 482.055 301.002 484.56 296.499 489.569 296.499 492.073 292 494.577 292 497.082 287.502 509.584 287.502 512.088 283.003 522.106 283.003 524.61 278.5 542.122 278.5 544.626 274.002 554.643 274.002 557.128 269.503 562.137 269.503 564.641 265 574.659 265 577.163 260.501 587.161 260.501 589.666 256.003 602.187 256.003 604.692 251.499 607.196 251.499 609.681 247.001 622.203 247.001 624.707 242.502 627.212 242.502 629.716 238.004 642.219 238.004 644.723 233.5 662.234 233.5 664.738 229.002 687.277 229.002 689.763 224.504 727.309 224.504 729.813 220 915 220 877.454 220 874.969 224.504 869.96 224.504 867.456 229.002 862.448 229.002 859.943 233.5 857.439 233.5 854.934 238.004 842.432 238.004 839.928 242.502 829.91 242.502 827.406 247.001 809.895 247.001 807.39 251.499 762.35 251.499 759.846 256.003 749.829 256.003 747.324 260.501 737.326 260.501 734.822 265 729.813 265 727.309 269.503 724.805 269.503 722.3 274.002 709.797 274.002 707.293 278.5 704.789 278.5 702.285 283.003 697.276 283.003 694.771 287.502 689.763 287.502 687.277 287.612 684.773 287.612 682.269 292 677.26 292 674.756 296.499 669.747 296.499 667.243 301.002 664.738 301.002 662.234 305.501 657.245 305.501 654.74 305.611 649.732 305.611 647.227 309.999 644.723 309.999 642.219 314.503 629.716 314.503 627.212 319.001 624.707 319.001 622.203 323.5 617.194 323.5 614.69 328.003 609.681 328.003 607.196 328.114 604.692 328.114 602.187 332.502 597.178 332.502 594.674 337 589.666 337 587.161 341.504 572.154 341.504 569.65 346.002 557.128 346.002 554.643 350.5 552.139 350.5 549.634 354.999 544.626 354.999 542.122 359.502 537.113 359.502 534.608 364.001 532.104 364.001 529.6 368.499 524.61 368.499 522.106 377.501 517.097 377.501 514.593 386.503 512.088 386.503 509.584 400.003 504.575 400.003 502.071 409 497.082 409 494.577 418.002 492.073 418.002 489.569 431.503 484.56 431.503 482.055 449.612 477.047 449.612 474.543 481.001 472.057 481.001 469.553 490.113 464.544 490.113 462.04 499 457.031 499 454.527 512.5 452.023 512.5 449.518 535.002 444.529 535.002 442.024 548.503 437.015 548.503 434.511 557.5 432.007 557.5 429.503 566.502 424.494 566.502 421.989 571 417 571Z" fill="#AE017E" fill-rule="evenodd" fill-opacity="0.14902"/><path d="M417 593 421.989 593 424.494 575.02 429.503 575.02 432.007 548.061 434.511 548.061 437.015 530.081 442.024 530.081 444.529 525.589 449.518 525.589 452.023 521.096 454.527 521.096 457.031 516.599 462.04 516.599 464.544 512.107 467.049 512.107 469.553 507.614 474.543 507.614 477.047 503.122 487.064 503.122 489.569 498.624 494.577 498.624 497.082 494.132 507.08 494.132 509.584 489.64 514.593 489.64 517.097 485.142 527.114 485.142 529.6 480.65 539.617 480.65 542.122 476.157 547.13 476.157 549.634 471.66 552.139 471.66 554.643 462.675 559.633 462.675 562.137 458.178 567.146 458.178 569.65 449.193 572.154 449.193 574.659 435.711 579.667 435.711 582.152 426.721 587.161 426.721 589.666 408.746 592.17 408.746 594.674 386.279 599.683 386.279 602.187 372.797 604.692 372.797 607.196 363.807 612.186 363.807 614.69 354.817 619.698 354.817 622.203 345.833 624.707 345.833 627.212 336.843 632.22 336.843 634.725 327.858 639.714 327.858 642.219 314.376 644.723 314.376 647.227 278.421 652.236 278.421 654.74 269.436 657.245 269.436 659.749 264.939 664.738 264.939 667.243 255.954 677.26 255.954 679.765 251.457 689.763 251.457 692.267 246.964 709.797 246.964 712.302 242.472 749.829 242.472 752.333 237.98 782.366 237.98 784.87 233.482 794.888 233.482 797.373 228.99 814.903 228.99 817.408 224.497 827.406 224.497 829.91 220 915 220" stroke="#02818A" stroke-width="4" stroke-linejoin="round" stroke-miterlimit="10" stroke-dasharray="100.829 6.72196" fill="none" fill-rule="evenodd"/><path d="M417 553 421.989 553 424.494 516.998 429.503 516.998 432.007 492.249 434.511 492.249 437.015 476.502 442.024 476.502 444.529 458.498 449.518 458.498 452.023 445.002 454.527 445.002 457.031 422.5 462.04 422.5 464.544 391.001 467.049 391.001 469.553 373.002 474.543 373.002 477.047 359.502 482.055 359.502 484.56 350.5 487.064 350.5 489.569 346.002 494.577 346.002 497.082 341.503 502.071 341.503 504.575 337 507.08 337 509.584 332.501 514.593 332.501 517.097 328.003 519.602 328.003 522.106 319.001 527.114 319.001 529.6 314.502 534.608 314.502 537.113 309.999 539.617 309.999 542.122 305.5 547.13 305.5 549.634 301.002 552.139 301.002 554.643 296.499 559.633 296.499 562.137 294.252 567.146 294.252 569.65 292 572.154 292 574.659 287.502 587.161 287.502 589.666 283.003 604.692 283.003 607.196 278.5 689.763 278.5 692.267 274.001 737.326 274.001 739.83 273.931 742.335 273.157 744.82 269.503 762.35 269.503 764.855 267.593 767.359 266.799 769.844 266.005 772.349 265 777.357 265 779.861 264.195 789.879 260.918 792.383 260.104 794.888 259.285 797.373 258.465 804.886 256.008 807.39 255.193 817.408 251.916 819.912 251.102 822.416 250.283 824.901 249.464 832.414 247.006 834.919 246.191 847.44 242.095 849.926 241.281 859.943 238.004 862.448 237.19 874.969 233.093 877.454 232.279 887.472 229.002 889.976 228.188 902.498 224.091 904.983 223.277 915 220" stroke="#FEB24C" stroke-width="4" stroke-linejoin="round" stroke-miterlimit="10" stroke-dasharray="100.829 6.72196" fill="none" fill-rule="evenodd"/><path d="M417 539 421.989 539 424.494 521.029 429.503 521.029 432.007 489.58 434.511 489.58 437.015 471.604 442.024 471.604 444.529 453.633 449.518 453.633 452.023 413.196 454.527 413.196 457.031 399.721 462.04 399.721 464.544 390.733 469.553 390.733 472.057 377.254 474.543 377.254 477.047 363.775 482.055 363.775 484.56 354.787 489.569 354.787 492.073 345.804 494.577 345.804 497.082 336.817 502.071 336.817 504.575 327.834 509.584 327.834 512.088 323.337 514.593 323.337 517.097 318.846 529.6 318.846 532.104 314.355 542.122 314.355 544.626 309.858 554.643 309.858 557.128 305.367 569.65 305.367 572.154 300.875 574.659 300.875 577.163 296.379 587.161 296.379 589.666 291.888 602.187 291.888 604.692 287.396 607.196 287.396 609.681 282.905 622.203 282.905 624.707 278.408 627.212 278.408 629.716 273.917 642.219 273.917 644.723 269.425 647.227 269.425 649.732 264.929 654.74 264.929 657.245 260.438 667.243 260.438 669.747 255.946 674.756 255.946 677.26 251.45 687.277 251.45 689.763 246.958 702.285 246.958 704.789 242.467 714.806 242.467 717.291 237.976 742.335 237.976 744.82 233.479 794.888 233.479 797.373 228.988 819.912 228.988 822.416 224.496 834.919 224.496 837.423 220 915 220" stroke="#AE017E" stroke-width="4" stroke-linejoin="round" stroke-miterlimit="10" fill="none" fill-rule="evenodd"/><path d="M393.5 631.5 393.5 201.5" stroke="#000000" stroke-width="2.84378" stroke-linecap="square" stroke-linejoin="round" stroke-miterlimit="10" fill="none" fill-rule="evenodd"/><path d="M420.5 611.5 393.5 611.5" stroke="#000000" stroke-width="2.84378" stroke-linejoin="round" stroke-miterlimit="10" fill="none" fill-rule="evenodd"/><path d="M420.5 513.5 393.5 513.5" stroke="#000000" stroke-width="2.84378" stroke-linejoin="round" stroke-miterlimit="10" fill="none" fill-rule="evenodd"/><path d="M420.5 416.5 393.5 416.5" stroke="#000000" stroke-width="2.84378" stroke-linejoin="round" stroke-miterlimit="10" fill="none" fill-rule="evenodd"/><path d="M420.5 318.5 393.5 318.5" stroke="#000000" stroke-width="2.84378" stroke-linejoin="round" stroke-miterlimit="10" fill="none" fill-rule="evenodd"/><path d="M420.5 220.5 393.5 220.5" stroke="#000000" stroke-width="2.84378" stroke-linejoin="round" stroke-miterlimit="10" fill="none" fill-rule="evenodd"/><path d="M393.5 631.5 940.5 631.5" stroke="#000000" stroke-width="2.84378" stroke-linecap="square" stroke-linejoin="round" stroke-miterlimit="10" fill="none" fill-rule="evenodd"/><path d="M417.5 623.5 417.5 631.5" stroke="#000000" stroke-width="2.84378" stroke-linejoin="round" stroke-miterlimit="10" fill="none" fill-rule="evenodd"/><path d="M542.5 623.5 542.5 631.5" stroke="#000000" stroke-width="2.84378" stroke-linejoin="round" stroke-miterlimit="10" fill="none" fill-rule="evenodd"/><path d="M666.5 623.5 666.5 631.5" stroke="#000000" stroke-width="2.84378" stroke-linejoin="round" stroke-miterlimit="10" fill="none" fill-rule="evenodd"/><path d="M791.5 623.5 791.5 631.5" stroke="#000000" stroke-width="2.84378" stroke-linejoin="round" stroke-miterlimit="10" fill="none" fill-rule="evenodd"/><path d="M915.5 623.5 915.5 631.5" stroke="#000000" stroke-width="2.84378" stroke-linejoin="round" stroke-miterlimit="10" fill="none" fill-rule="evenodd"/><text fill="#4B5E68" font-family="Arial,Arial_MSFontService,sans-serif" font-weight="400" font-size="21" transform="translate(394.496 660)">0.00</text><text fill="#4B5E68" font-family="Arial,Arial_MSFontService,sans-serif" font-weight="400" font-size="21" transform="translate(522.484 660)">0.25</text><text fill="#4B5E68" font-family="Arial,Arial_MSFontService,sans-serif" font-weight="400" font-size="21" transform="translate(646.742 660)">0.50</text><text fill="#4B5E68" font-family="Arial,Arial_MSFontService,sans-serif" font-weight="400" font-size="21" transform="translate(767.497 660)">0.75</text><text fill="#4B5E68" font-family="Arial,Arial_MSFontService,sans-serif" font-weight="400" font-size="21" transform="translate(889.524 660)">1</text><text fill="#4B5E68" font-family="Arial,Arial_MSFontService,sans-serif" font-weight="400" font-size="21" transform="translate(901.357 660)">.00</text><text fill="#4B5E68" font-family="Arial,Arial_MSFontService,sans-serif" font-weight="400" font-size="21" transform="translate(334.852 620)">0.00</text><text fill="#4B5E68" font-family="Arial,Arial_MSFontService,sans-serif" font-weight="400" font-size="21" transform="translate(334.852 523)">0.25</text><text fill="#4B5E68" font-family="Arial,Arial_MSFontService,sans-serif" font-weight="400" font-size="21" transform="translate(334.852 425)">0.50</text><text fill="#4B5E68" font-family="Arial,Arial_MSFontService,sans-serif" font-weight="400" font-size="21" transform="translate(334.852 327)">0.75</text><text fill="#4B5E68" font-family="Arial,Arial_MSFontService,sans-serif" font-weight="400" font-size="21" transform="translate(334.852 228)">1.00</text><path d="M0 0 491.602 383.322" stroke="#5F696E" stroke-width="3" stroke-miterlimit="8" stroke-dasharray="12 9" fill="none" fill-rule="evenodd" transform="matrix(1 0 0 -1 423.5 609.822)"/><text fill="#4B5E68" font-family="Arial,Arial_MSFontService,sans-serif" font-weight="400" font-size="24" transform="matrix(-1.83697e-16 -1 1 -1.83697e-16 286.598 469)">Sensitivity</text><text fill="#4B5E68" font-family="Arial,Arial_MSFontService,sans-serif" font-weight="400" font-size="24" transform="translate(581.801 692)">1</text><text fill="#4B5E68" font-family="Arial,Arial_MSFontService,sans-serif" font-weight="400" font-size="24" transform="translate(601.801 692)">–</text><text fill="#4B5E68" font-family="Arial,Arial_MSFontService,sans-serif" font-weight="400" font-size="24" transform="translate(621.801 692)">Specificity</text><text fill="#A0234E" font-family="Cambria Math,Cambria Math_MSFontService,sans-serif" font-weight="400" font-size="24" transform="translate(820.023 205)">𝑷</text><text fill="#A0234E" font-family="Cambria Math,Cambria Math_MSFontService,sans-serif" font-weight="400" font-size="18" transform="translate(836.523 210)">𝒓</text><text fill="#A0234E" font-family="Cambria Math,Cambria Math_MSFontService,sans-serif" font-weight="400" font-size="18" transform="translate(836.523 197)">𝟕</text><path d="M868.738 187.466C871.019 188.068 872.771 189.366 873.994 191.363 875.216 193.359 875.828 195.767 875.828 198.587 875.828 201.415 875.218 203.823 874 205.812 872.781 207.8 871.027 209.095 868.738 209.697L868.457 208.794C870.261 208.193 871.603 207.005 872.482 205.232 873.361 203.458 873.8 201.204 873.8 198.47 873.8 195.829 873.363 193.636 872.488 191.89 871.613 190.144 870.258 188.97 868.422 188.368ZM857.215 187.466 857.532 188.368C855.704 188.97 854.35 190.144 853.471 191.89 852.592 193.636 852.153 195.829 852.153 198.47 852.153 201.204 852.592 203.458 853.471 205.232 854.35 207.005 855.692 208.193 857.497 208.794L857.215 209.697C854.926 209.095 853.172 207.8 851.954 205.812 850.735 203.823 850.126 201.415 850.126 198.587 850.126 195.767 850.737 193.359 851.96 191.363 853.182 189.366 854.934 188.068 857.215 187.466Z" fill="#A0234E" fill-rule="evenodd"/><text fill="#A0234E" font-family="Cambria Math,Cambria Math_MSFontService,sans-serif" font-weight="400" font-size="24" transform="translate(857.976 205)">𝒕</text><text fill="#C8A314" font-family="Cambria Math,Cambria Math_MSFontService,sans-serif" font-weight="400" font-size="24" transform="translate(720.299 309)">𝑷</text><text fill="#C8A314" font-family="Cambria Math,Cambria Math_MSFontService,sans-serif" font-weight="400" font-size="18" transform="translate(736.799 315)">𝒊</text><text fill="#C8A314" font-family="Cambria Math,Cambria Math_MSFontService,sans-serif" font-weight="400" font-size="18" transform="translate(736.799 299)">𝟕</text><path d="M769.014 290.975C771.295 291.576 773.047 292.875 774.27 294.871 775.492 296.867 776.104 299.276 776.104 302.096 776.104 304.924 775.494 307.332 774.275 309.321 773.057 311.309 771.303 312.604 769.014 313.205L768.732 312.303C770.537 311.701 771.879 310.514 772.758 308.74 773.637 306.967 774.076 304.713 774.076 301.979 774.076 299.338 773.639 297.145 772.764 295.399 771.889 293.653 770.533 292.479 768.697 291.877ZM757.491 290.975 757.808 291.877C755.979 292.479 754.626 293.653 753.747 295.399 752.868 297.145 752.429 299.338 752.429 301.979 752.429 304.713 752.868 306.967 753.747 308.74 754.626 310.514 755.968 311.701 757.772 312.303L757.491 313.205C755.202 312.604 753.448 311.309 752.229 309.321 751.011 307.332 750.401 304.924 750.401 302.096 750.401 299.276 751.013 296.867 752.235 294.871 753.458 292.875 755.21 291.576 757.491 290.975Z" fill="#C8A314" fill-rule="evenodd"/><text fill="#C8A314" font-family="Cambria Math,Cambria Math_MSFontService,sans-serif" font-weight="400" font-size="24" transform="translate(758.252 309)">𝒕</text><text fill="#216B33" font-family="Cambria Math,Cambria Math_MSFontService,sans-serif" font-weight="400" font-size="24" transform="translate(618.676 379)">𝑷</text><text fill="#216B33" font-family="Cambria Math,Cambria Math_MSFontService,sans-serif" font-weight="400" font-size="18" transform="translate(635.176 384)">𝒆</text><text fill="#216B33" font-family="Cambria Math,Cambria Math_MSFontService,sans-serif" font-weight="400" font-size="18" transform="translate(635.176 370)">𝟕</text><path d="M667.391 360.684C669.672 361.286 671.424 362.585 672.647 364.581 673.87 366.577 674.481 368.985 674.481 371.805 674.481 374.634 673.872 377.042 672.653 379.03 671.434 381.018 669.68 382.313 667.391 382.915L667.11 382.012C668.915 381.411 670.256 380.223 671.135 378.45 672.014 376.677 672.454 374.423 672.454 371.688 672.454 369.048 672.016 366.854 671.141 365.108 670.266 363.362 668.911 362.188 667.075 361.587ZM655.869 360.684 656.185 361.587C654.357 362.188 653.003 363.362 652.125 365.108 651.246 366.854 650.806 369.048 650.806 371.688 650.806 374.423 651.246 376.677 652.125 378.45 653.003 380.223 654.345 381.411 656.15 382.012L655.869 382.915C653.58 382.313 651.826 381.018 650.607 379.03 649.388 377.042 648.779 374.634 648.779 371.805 648.779 368.985 649.39 366.577 650.613 364.581 651.836 362.585 653.587 361.286 655.869 360.684Z" fill="#216B33" fill-rule="evenodd"/><text fill="#216B33" font-family="Cambria Math,Cambria Math_MSFontService,sans-serif" font-weight="400" font-size="24" transform="translate(656.63 379)">𝒕</text><text fill="#216B33" font-family="Arial,Arial_MSFontService,sans-serif" font-weight="700" font-size="21" transform="translate(750.835 382)">AUC: 0.693 (95%CI: 0.609</text><text fill="#216B33" font-family="Arial,Arial_MSFontService,sans-serif" font-weight="700" font-size="21" transform="translate(1007 382)">-</text><text fill="#216B33" font-family="Arial,Arial_MSFontService,sans-serif" font-weight="700" font-size="21" transform="translate(1014.17 382)">0.776)</text><text fill="#C8A314" font-family="Arial,Arial_MSFontService,sans-serif" font-weight="700" font-size="21" transform="translate(849.999 302)">AUC: 0.799 (95%CI: 0.729</text><text fill="#C8A314" font-family="Arial,Arial_MSFontService,sans-serif" font-weight="700" font-size="21" transform="translate(1106.17 302)">-</text><text fill="#C8A314" font-family="Arial,Arial_MSFontService,sans-serif" font-weight="700" font-size="21" transform="translate(1113.33 302)">0.869)</text><text fill="#A0234E" font-family="Arial,Arial_MSFontService,sans-serif" font-weight="700" font-size="21" transform="translate(894.234 208)">AUC: 0.824 (95%CI: 0.760</text><text fill="#A0234E" font-family="Arial,Arial_MSFontService,sans-serif" font-weight="700" font-size="21" transform="translate(1150.4 208)">-</text><text fill="#A0234E" font-family="Arial,Arial_MSFontService,sans-serif" font-weight="700" font-size="21" transform="translate(1157.57 208)">0.888)</text></g></svg>