<svg width="1282" height="724" xmlns="http://www.w3.org/2000/svg" xmlns:xlink="http://www.w3.org/1999/xlink" overflow="hidden"><g transform="translate(1 3)"><rect x="0" y="0" width="1280" height="720" fill="#FFFFFF"/><rect x="0.500053" y="-1.50005" width="1280" height="37.0001" stroke="#7F7F7F" stroke-width="1.33333" stroke-miterlimit="8" fill="#D9D9D9"/><text fill="#4B5E68" font-family="Arial,Arial_MSFontService,sans-serif" font-weight="700" font-size="21" transform="translate(392 25)">Supplemental methods for real</text><text fill="#4B5E68" font-family="Arial,Arial_MSFontService,sans-serif" font-weight="700" font-size="21" transform="translate(705.167 25)">-</text><text fill="#4B5E68" font-family="Arial,Arial_MSFontService,sans-serif" font-weight="700" font-size="21" transform="translate(712.333 25)">world application</text><path d="M33.0536 102.775 770.873 102.775 770.873 137.975 33.0536 137.975Z" fill="#4B5E68" fill-rule="evenodd"/><path d="M770.873 102.775 837.035 102.775 837.035 137.975 770.873 137.975Z" fill="#4B5E68" fill-rule="evenodd"/><path d="M837.035 102.775 1073.14 102.775 1073.14 137.975 837.035 137.975Z" fill="#4B5E68" fill-rule="evenodd"/><path d="M1073.14 102.775 1246.95 102.775 1246.95 137.975 1073.14 137.975Z" fill="#4B5E68" fill-rule="evenodd"/><path d="M33.0536 169.663 770.873 169.663 770.873 201.351 33.0536 201.351Z" fill="#D9D9D9" fill-rule="evenodd"/><path d="M770.873 169.663 837.035 169.663 837.035 201.351 770.873 201.351Z" fill="#D9D9D9" fill-rule="evenodd"/><path d="M837.035 169.663 1073.14 169.663 1073.14 201.351 837.035 201.351Z" fill="#D9D9D9" fill-rule="evenodd"/><path d="M1073.14 169.663 1246.95 169.663 1246.95 201.351 1073.14 201.351Z" fill="#D9D9D9" fill-rule="evenodd"/><path d="M33.0536 233.038 770.873 233.038 770.873 264.726 33.0536 264.726Z" fill="#D9D9D9" fill-rule="evenodd"/><path d="M770.873 233.038 837.035 233.038 837.035 264.726 770.873 264.726Z" fill="#D9D9D9" fill-rule="evenodd"/><path d="M837.035 233.038 1073.14 233.038 1073.14 264.726 837.035 264.726Z" fill="#D9D9D9" fill-rule="evenodd"/><path d="M1073.14 233.038 1246.95 233.038 1246.95 264.726 1073.14 264.726Z" fill="#D9D9D9" fill-rule="evenodd"/><path d="M33.0536 296.414 770.873 296.414 770.873 328.101 33.0536 328.101Z" fill="#D9D9D9" fill-rule="evenodd"/><path d="M770.873 296.414 837.035 296.414 837.035 328.101 770.873 328.101Z" fill="#D9D9D9" fill-rule="evenodd"/><path d="M837.035 296.414 1073.14 296.414 1073.14 328.101 837.035 328.101Z" fill="#D9D9D9" fill-rule="evenodd"/><path d="M1073.14 296.414 1246.95 296.414 1246.95 328.101 1073.14 328.101Z" fill="#D9D9D9" fill-rule="evenodd"/><path d="M33.0536 328.101 770.873 328.101 770.873 359.789 33.0536 359.789Z" fill="#FFFFFF" fill-rule="evenodd"/><path d="M770.873 328.101 837.035 328.101 837.035 359.789 770.873 359.789Z" fill="#FFFFFF" fill-rule="evenodd"/><path d="M837.035 328.101 1073.14 328.101 1073.14 359.789 837.035 359.789Z" fill="#FFFFFF" fill-rule="evenodd"/><path d="M1073.14 328.101 1246.95 328.101 1246.95 359.789 1073.14 359.789Z" fill="#FFFFFF" fill-rule="evenodd"/><path d="M33.0536 359.789 770.873 359.789 770.873 391.477 33.0536 391.477Z" fill="#D9D9D9" fill-rule="evenodd"/><path d="M770.873 359.789 837.035 359.789 837.035 391.477 770.873 391.477Z" fill="#D9D9D9" fill-rule="evenodd"/><path d="M837.035 359.789 1073.14 359.789 1073.14 391.477 837.035 391.477Z" fill="#D9D9D9" fill-rule="evenodd"/><path d="M1073.14 359.789 1246.95 359.789 1246.95 391.477 1073.14 391.477Z" fill="#D9D9D9" fill-rule="evenodd"/><path d="M33.0536 391.477 770.873 391.477 770.873 423.164 33.0536 423.164Z" fill="#FFFFFF" fill-rule="evenodd"/><path d="M770.873 391.477 837.035 391.477 837.035 423.164 770.873 423.164Z" fill="#FFFFFF" fill-rule="evenodd"/><path d="M837.035 391.477 1073.14 391.477 1073.14 423.164 837.035 423.164Z" fill="#FFFFFF" fill-rule="evenodd"/><path d="M1073.14 391.477 1246.95 391.477 1246.95 423.164 1073.14 423.164Z" fill="#FFFFFF" fill-rule="evenodd"/><path d="M33.0536 423.164 770.873 423.164 770.873 454.852 33.0536 454.852Z" fill="#D9D9D9" fill-rule="evenodd"/><path d="M770.873 423.164 837.035 423.164 837.035 454.852 770.873 454.852Z" fill="#D9D9D9" fill-rule="evenodd"/><path d="M837.035 423.164 1073.14 423.164 1073.14 454.852 837.035 454.852Z" fill="#D9D9D9" fill-rule="evenodd"/><path d="M1073.14 423.164 1246.95 423.164 1246.95 454.852 1073.14 454.852Z" fill="#D9D9D9" fill-rule="evenodd"/><path d="M33.0536 454.852 770.873 454.852 770.873 486.54 33.0536 486.54Z" fill="#FFFFFF" fill-rule="evenodd"/><path d="M770.873 454.852 837.035 454.852 837.035 486.54 770.873 486.54Z" fill="#FFFFFF" fill-rule="evenodd"/><path d="M837.035 454.852 1073.14 454.852 1073.14 486.54 837.035 486.54Z" fill="#FFFFFF" fill-rule="evenodd"/><path d="M1073.14 454.852 1246.95 454.852 1246.95 486.54 1073.14 486.54Z" fill="#FFFFFF" fill-rule="evenodd"/><path d="M33.0536 486.54 770.873 486.54 770.873 518.227 33.0536 518.227Z" fill="#D9D9D9" fill-rule="evenodd"/><path d="M770.873 486.54 837.035 486.54 837.035 518.227 770.873 518.227Z" fill="#D9D9D9" fill-rule="evenodd"/><path d="M837.035 486.54 1073.14 486.54 1073.14 518.227 837.035 518.227Z" fill="#D9D9D9" fill-rule="evenodd"/><path d="M1073.14 486.54 1246.95 486.54 1246.95 518.227 1073.14 518.227Z" fill="#D9D9D9" fill-rule="evenodd"/><path d="M33.0536 518.227 770.873 518.227 770.873 549.915 33.0536 549.915Z" fill="#FFFFFF" fill-rule="evenodd"/><path d="M770.873 518.227 837.035 518.227 837.035 549.915 770.873 549.915Z" fill="#FFFFFF" fill-rule="evenodd"/><path d="M837.035 518.227 1073.14 518.227 1073.14 549.915 837.035 549.915Z" fill="#FFFFFF" fill-rule="evenodd"/><path d="M1073.14 518.227 1246.95 518.227 1246.95 549.915 1073.14 549.915Z" fill="#FFFFFF" fill-rule="evenodd"/><path d="M33.0536 549.915 770.873 549.915 770.873 577.453 33.0536 577.453Z" fill="#D9D9D9" fill-rule="evenodd"/><path d="M770.873 549.915 837.035 549.915 837.035 577.453 770.873 577.453Z" fill="#D9D9D9" fill-rule="evenodd"/><path d="M837.035 549.915 1073.14 549.915 1073.14 577.453 837.035 577.453Z" fill="#D9D9D9" fill-rule="evenodd"/><path d="M1073.14 549.915 1246.95 549.915 1246.95 577.453 1073.14 577.453Z" fill="#D9D9D9" fill-rule="evenodd"/><path d="M33.0536 577.453 770.873 577.453 770.873 604.991 33.0536 604.991Z" fill="#FFFFFF" fill-rule="evenodd"/><path d="M770.873 577.453 837.035 577.453 837.035 604.991 770.873 604.991Z" fill="#FFFFFF" fill-rule="evenodd"/><path d="M837.035 577.453 1073.14 577.453 1073.14 604.991 837.035 604.991Z" fill="#FFFFFF" fill-rule="evenodd"/><path d="M1073.14 577.453 1246.95 577.453 1246.95 604.991 1073.14 604.991Z" fill="#FFFFFF" fill-rule="evenodd"/><path d="M33.0536 604.991 770.873 604.991 770.873 632.529 33.0536 632.529Z" fill="#D9D9D9" fill-rule="evenodd"/><path d="M770.873 604.991 837.035 604.991 837.035 632.529 770.873 632.529Z" fill="#D9D9D9" fill-rule="evenodd"/><path d="M837.035 604.991 1073.14 604.991 1073.14 632.529 837.035 632.529Z" fill="#D9D9D9" fill-rule="evenodd"/><path d="M1073.14 604.991 1246.95 604.991 1246.95 632.529 1073.14 632.529Z" fill="#D9D9D9" fill-rule="evenodd"/><path d="M33.0536 632.529 770.873 632.529 770.873 660.067 33.0536 660.067Z" fill="#FFFFFF" fill-rule="evenodd"/><path d="M770.873 632.529 837.035 632.529 837.035 660.067 770.873 660.067Z" fill="#FFFFFF" fill-rule="evenodd"/><path d="M837.035 632.529 1073.14 632.529 1073.14 660.067 837.035 660.067Z" fill="#FFFFFF" fill-rule="evenodd"/><path d="M1073.14 632.529 1246.95 632.529 1246.95 660.067 1073.14 660.067Z" fill="#FFFFFF" fill-rule="evenodd"/><path d="M770.873 102.109 770.873 660.734" stroke="#FFFFFF" stroke-width="1.33333" stroke-linejoin="round" stroke-miterlimit="10" fill="none" fill-rule="evenodd"/><path d="M837.035 102.109 837.035 660.734" stroke="#FFFFFF" stroke-width="1.33333" stroke-linejoin="round" stroke-miterlimit="10" fill="none" fill-rule="evenodd"/><path d="M1073.14 102.109 1073.14 660.734" stroke="#FFFFFF" stroke-width="1.33333" stroke-linejoin="round" stroke-miterlimit="10" fill="none" fill-rule="evenodd"/><path d="M32.387 137.975 1247.61 137.975" stroke="#FFFFFF" stroke-width="4" stroke-linejoin="round" stroke-miterlimit="10" fill="none" fill-rule="evenodd"/><path d="M32.387 169.663 1247.61 169.663" stroke="#FFFFFF" stroke-width="1.33333" stroke-linejoin="round" stroke-miterlimit="10" fill="none" fill-rule="evenodd"/><path d="M32.387 201.351 1247.61 201.351" stroke="#FFFFFF" stroke-width="1.33333" stroke-linejoin="round" stroke-miterlimit="10" fill="none" fill-rule="evenodd"/><path d="M32.387 233.038 1247.61 233.038" stroke="#FFFFFF" stroke-width="1.33333" stroke-linejoin="round" stroke-miterlimit="10" fill="none" fill-rule="evenodd"/><path d="M32.387 264.726 1247.61 264.726" stroke="#FFFFFF" stroke-width="1.33333" stroke-linejoin="round" stroke-miterlimit="10" fill="none" fill-rule="evenodd"/><path d="M32.387 296.414 1247.61 296.414" stroke="#FFFFFF" stroke-width="1.33333" stroke-linejoin="round" stroke-miterlimit="10" fill="none" fill-rule="evenodd"/><path d="M32.387 328.101 1247.61 328.101" stroke="#FFFFFF" stroke-width="1.33333" stroke-linejoin="round" stroke-miterlimit="10" fill="none" fill-rule="evenodd"/><path d="M32.387 359.789 1247.61 359.789" stroke="#FFFFFF" stroke-width="1.33333" stroke-linejoin="round" stroke-miterlimit="10" fill="none" fill-rule="evenodd"/><path d="M32.387 391.477 1247.61 391.477" stroke="#FFFFFF" stroke-width="1.33333" stroke-linejoin="round" stroke-miterlimit="10" fill="none" fill-rule="evenodd"/><path d="M32.387 423.164 1247.61 423.164" stroke="#FFFFFF" stroke-width="1.33333" stroke-linejoin="round" stroke-miterlimit="10" fill="none" fill-rule="evenodd"/><path d="M32.387 454.852 1247.61 454.852" stroke="#FFFFFF" stroke-width="1.33333" stroke-linejoin="round" stroke-miterlimit="10" fill="none" fill-rule="evenodd"/><path d="M32.387 486.54 1247.61 486.54" stroke="#FFFFFF" stroke-width="1.33333" stroke-linejoin="round" stroke-miterlimit="10" fill="none" fill-rule="evenodd"/><path d="M32.387 518.227 1247.61 518.227" stroke="#FFFFFF" stroke-width="1.33333" stroke-linejoin="round" stroke-miterlimit="10" fill="none" fill-rule="evenodd"/><path d="M32.387 549.915 1247.61 549.915" stroke="#FFFFFF" stroke-width="1.33333" stroke-linejoin="round" stroke-miterlimit="10" fill="none" fill-rule="evenodd"/><path d="M32.387 577.453 1247.61 577.453" stroke="#FFFFFF" stroke-width="1.33333" stroke-linejoin="round" stroke-miterlimit="10" fill="none" fill-rule="evenodd"/><path d="M32.387 604.991 1247.61 604.991" stroke="#FFFFFF" stroke-width="1.33333" stroke-linejoin="round" stroke-miterlimit="10" fill="none" fill-rule="evenodd"/><path d="M32.387 632.529 1247.61 632.529" stroke="#FFFFFF" stroke-width="1.33333" stroke-linejoin="round" stroke-miterlimit="10" fill="none" fill-rule="evenodd"/><path d="M33.0536 102.109 33.0536 660.734" stroke="#FFFFFF" stroke-width="1.33333" stroke-linejoin="round" stroke-miterlimit="10" fill="none" fill-rule="evenodd"/><path d="M1246.95 102.109 1246.95 660.734" stroke="#FFFFFF" stroke-width="1.33333" stroke-linejoin="round" stroke-miterlimit="10" fill="none" fill-rule="evenodd"/><path d="M32.387 102.775 1247.61 102.775" stroke="#FFFFFF" stroke-width="1.33333" stroke-linejoin="round" stroke-miterlimit="10" fill="none" fill-rule="evenodd"/><path d="M32.387 660.067 1247.61 660.067" stroke="#000000" stroke-width="1.33333" stroke-linejoin="round" stroke-miterlimit="10" fill="none" fill-rule="evenodd"/><text fill="#FFFFFF" font-family="Arial,Arial_MSFontService,sans-serif" font-weight="700" font-size="21" transform="translate(1108.54 124)">Reference</text><text fill="#FFFFFF" font-family="Arial,Arial_MSFontService,sans-serif" font-weight="700" font-size="21" transform="translate(913.59 124)">Symbol</text><text fill="#FFFFFF" font-family="Arial,Arial_MSFontService,sans-serif" font-weight="700" font-size="21" transform="translate(343.297 129)">Description</text><text font-family="Arial,Arial_MSFontService,sans-serif" font-weight="400" font-size="19" transform="translate(1091.71 156)">Previous studies</text><text font-family="Arial,Arial_MSFontService,sans-serif" font-weight="400" font-size="21" transform="translate(853.506 159)">Gamma (2.00, 0.625)</text><g><text font-family="Arial,Arial_MSFontService,sans-serif" font-weight="400" font-size="21" transform="translate(778.073 159)">g</text></g><text font-family="Arial,Arial_MSFontService,sans-serif" font-weight="400" font-size="14" transform="translate(789.907 163)">g</text><g><text font-family="Arial,Arial_MSFontService,sans-serif" font-weight="400" font-size="21" transform="translate(40.2536 159)">Generation</text></g><text font-family="Arial,Arial_MSFontService,sans-serif" font-weight="400" font-size="21" transform="translate(151.754 159)">interval</text><text font-family="Arial,Arial_MSFontService,sans-serif" font-weight="400" font-size="19" transform="translate(1091.71 188)">Previous studies</text><text font-family="Arial,Arial_MSFontService,sans-serif" font-weight="400" font-size="21" transform="translate(859.423 191)">Gamma (3.78, 1.09)</text><g><text font-family="Arial,Arial_MSFontService,sans-serif" font-weight="400" font-size="21" transform="translate(778.073 191)">g</text></g><text font-family="Arial,Arial_MSFontService,sans-serif" font-weight="400" font-size="14" transform="translate(789.907 195)">i,s</text><g><text font-family="Arial,Arial_MSFontService,sans-serif" font-weight="400" font-size="21" transform="translate(40.2536 191)">Incubation</text></g><text font-family="Arial,Arial_MSFontService,sans-serif" font-weight="400" font-size="21" transform="translate(144.587 191)">time</text><text font-family="Arial,Arial_MSFontService,sans-serif" font-weight="400" font-size="19" transform="translate(1121.21 219)">Assumed</text><text font-family="Arial,Arial_MSFontService,sans-serif" font-weight="400" font-size="21" transform="translate(859.423 222)">Gamma (2.00, 1.00)</text><g><text font-family="Arial,Arial_MSFontService,sans-serif" font-weight="400" font-size="21" transform="translate(778.073 222)">g</text></g><text font-family="Arial,Arial_MSFontService,sans-serif" font-weight="400" font-size="14" transform="translate(789.907 226)">s,c</text><g><text font-family="Arial,Arial_MSFontService,sans-serif" font-weight="400" font-size="21" transform="translate(40.2536 222)">Interval</text></g><text font-family="Arial,Arial_MSFontService,sans-serif" font-weight="400" font-size="21" transform="translate(116.254 222)">between</text><text font-family="Arial,Arial_MSFontService,sans-serif" font-weight="400" font-size="21" transform="translate(202.754 222)">symptom</text><text font-family="Arial,Arial_MSFontService,sans-serif" font-weight="400" font-size="21" transform="translate(295.42 222)">onset</text><text font-family="Arial,Arial_MSFontService,sans-serif" font-weight="400" font-size="21" transform="translate(353.587 222)">to</text><text font-family="Arial,Arial_MSFontService,sans-serif" font-weight="400" font-size="21" transform="translate(377.42 222)">confirmation</text><text font-family="Arial,Arial_MSFontService,sans-serif" font-weight="400" font-size="19" transform="translate(1091.71 251)">Previous studies</text><text font-family="Arial,Arial_MSFontService,sans-serif" font-weight="400" font-size="21" transform="translate(859.423 254)">Gamma (2.70, 1.41)</text><g><text font-family="Arial,Arial_MSFontService,sans-serif" font-weight="400" font-size="21" transform="translate(778.073 254)">g</text></g><text font-family="Arial,Arial_MSFontService,sans-serif" font-weight="400" font-size="14" transform="translate(789.907 258)">s</text><g><text font-family="Arial,Arial_MSFontService,sans-serif" font-weight="400" font-size="21" transform="translate(40.2536 254)">Interval</text></g><text font-family="Arial,Arial_MSFontService,sans-serif" font-weight="400" font-size="21" transform="translate(116.254 254)">between</text><text font-family="Arial,Arial_MSFontService,sans-serif" font-weight="400" font-size="21" transform="translate(202.754 254)">infection</text><text font-family="Arial,Arial_MSFontService,sans-serif" font-weight="400" font-size="21" transform="translate(288.087 254)">to</text><text font-family="Arial,Arial_MSFontService,sans-serif" font-weight="400" font-size="21" transform="translate(311.92 254)">shedding</text><text font-family="Arial,Arial_MSFontService,sans-serif" font-weight="400" font-size="21" transform="translate(404.254 254)">onset</text><text font-family="Arial,Arial_MSFontService,sans-serif" font-weight="400" font-size="19" transform="translate(1091.71 283)">Previous studies</text><text font-family="Arial,Arial_MSFontService,sans-serif" font-weight="400" font-size="21" transform="translate(934.34 286)">0.70</text><g><text font-family="Arial,Arial_MSFontService,sans-serif" font-weight="400" font-size="21" transform="translate(778.073 286)">ρ</text></g><text font-family="Arial,Arial_MSFontService,sans-serif" font-weight="400" font-size="14" transform="translate(790.24 290)">1</text><g><text font-family="Arial,Arial_MSFontService,sans-serif" font-weight="400" font-size="21" transform="translate(40.2536 286)">Absolute</text></g><text font-family="Arial,Arial_MSFontService,sans-serif" font-weight="400" font-size="21" transform="translate(129.087 286)">case</text><text font-family="Arial,Arial_MSFontService,sans-serif" font-weight="400" font-size="21" transform="translate(174.087 286)">-</text><text font-family="Arial,Arial_MSFontService,sans-serif" font-weight="400" font-size="21" transform="translate(181.254 286)">ascertainment</text><text font-family="Arial,Arial_MSFontService,sans-serif" font-weight="400" font-size="21" transform="translate(321.254 286)">rate</text><text font-family="Arial,Arial_MSFontService,sans-serif" font-weight="400" font-size="19" transform="translate(1091.71 314)">Previous studies</text><text font-family="Arial,Arial_MSFontService,sans-serif" font-weight="400" font-size="21" transform="translate(934.34 317)">0.30</text><g><text font-family="Arial,Arial_MSFontService,sans-serif" font-weight="400" font-size="21" transform="translate(778.073 317)">AS</text></g><g><text font-family="Arial,Arial_MSFontService,sans-serif" font-weight="400" font-size="21" transform="translate(40.2536 317)">Asymptomatic</text></g><text font-family="Arial,Arial_MSFontService,sans-serif" font-weight="400" font-size="21" transform="translate(180.254 317)">rate</text><text font-family="Arial,Arial_MSFontService,sans-serif" font-weight="400" font-size="19" transform="translate(1091.71 346)">Previous studies</text><text font-family="Arial,Arial_MSFontService,sans-serif" font-weight="400" font-size="21" transform="translate(934.34 349)">0.50</text><g><text font-family="Arial,Arial_MSFontService,sans-serif" font-weight="400" font-size="21" transform="translate(778.073 349)">ε</text></g><g><text font-family="Arial,Arial_MSFontService,sans-serif" font-weight="400" font-size="21" transform="translate(40.2536 349)">Shedding</text></g><text font-family="Arial,Arial_MSFontService,sans-serif" font-weight="400" font-size="21" transform="translate(136.087 349)">prevalence</text><text font-family="Arial,Arial_MSFontService,sans-serif" font-weight="400" font-size="21" transform="translate(907.673 381)">Estimated</text><g><text font-family="Arial,Arial_MSFontService,sans-serif" font-weight="400" font-size="21" transform="translate(778.073 381)">σ</text></g><text font-family="Arial,Arial_MSFontService,sans-serif" font-weight="400" font-size="14" transform="translate(791.24 385)">1</text><g><text font-family="Arial,Arial_MSFontService,sans-serif" font-weight="400" font-size="21" transform="translate(40.2536 381)">Parameter</text></g><text font-family="Arial,Arial_MSFontService,sans-serif" font-weight="400" font-size="21" transform="translate(145.92 381)">for</text><text font-family="Arial,Arial_MSFontService,sans-serif" font-weight="400" font-size="21" transform="translate(176.92 381)">Gaussian</text><text font-family="Arial,Arial_MSFontService,sans-serif" font-weight="400" font-size="21" transform="translate(272.92 381)">random</text><text font-family="Arial,Arial_MSFontService,sans-serif" font-weight="400" font-size="21" transform="translate(351.254 381)">walk</text><text font-family="Arial,Arial_MSFontService,sans-serif" font-weight="400" font-size="21" transform="translate(907.673 412)">Estimated</text><g><text font-family="Arial,Arial_MSFontService,sans-serif" font-weight="400" font-size="21" transform="translate(778.073 412)">σ</text></g><text font-family="Arial,Arial_MSFontService,sans-serif" font-weight="400" font-size="14" transform="translate(791.24 416)">2</text><g><text font-family="Arial,Arial_MSFontService,sans-serif" font-weight="400" font-size="21" transform="translate(40.2536 412)">Parameter</text></g><text font-family="Arial,Arial_MSFontService,sans-serif" font-weight="400" font-size="21" transform="translate(145.92 412)">for</text><text font-family="Arial,Arial_MSFontService,sans-serif" font-weight="400" font-size="21" transform="translate(176.92 412)">Gaussian</text><text font-family="Arial,Arial_MSFontService,sans-serif" font-weight="400" font-size="21" transform="translate(272.92 412)">random</text><text font-family="Arial,Arial_MSFontService,sans-serif" font-weight="400" font-size="21" transform="translate(351.254 412)">walk</text><text font-family="Arial,Arial_MSFontService,sans-serif" font-weight="400" font-size="21" transform="translate(907.673 444)">Estimated</text><g><text font-family="Arial,Arial_MSFontService,sans-serif" font-weight="400" font-size="21" transform="translate(778.073 444)">σ</text></g><text font-family="Arial,Arial_MSFontService,sans-serif" font-weight="400" font-size="14" transform="translate(791.24 448)">3</text><g><text font-family="Arial,Arial_MSFontService,sans-serif" font-weight="400" font-size="21" transform="translate(40.2536 444)">Measurement</text></g><text font-family="Arial,Arial_MSFontService,sans-serif" font-weight="400" font-size="21" transform="translate(176.754 444)">errors</text><text font-family="Arial,Arial_MSFontService,sans-serif" font-weight="400" font-size="19" transform="translate(1151.21 473)">SI</text><text font-family="Arial,Arial_MSFontService,sans-serif" font-weight="400" font-size="21" transform="translate(928.423 476)">27.80</text><g><text font-family="Arial,Arial_MSFontService,sans-serif" font-weight="400" font-size="21" transform="translate(778.073 476)">A</text></g><g><text font-family="Arial,Arial_MSFontService,sans-serif" font-weight="400" font-size="21" transform="translate(40.2536 476)">Scale</text></g><text font-family="Arial,Arial_MSFontService,sans-serif" font-weight="400" font-size="21" transform="translate(99.4203 476)">parameter</text><text font-family="Arial,Arial_MSFontService,sans-serif" font-weight="400" font-size="21" transform="translate(202.754 476)">of</text><text font-family="Arial,Arial_MSFontService,sans-serif" font-weight="400" font-size="21" transform="translate(226.587 476)">the</text><text font-family="Arial,Arial_MSFontService,sans-serif" font-weight="400" font-size="21" transform="translate(262.254 476)">shedding</text><text font-family="Arial,Arial_MSFontService,sans-serif" font-weight="400" font-size="21" transform="translate(354.587 476)">dynamics</text><text font-family="Arial,Arial_MSFontService,sans-serif" font-weight="400" font-size="21" transform="translate(450.587 476)">model</text><text font-family="Arial,Arial_MSFontService,sans-serif" font-weight="400" font-size="19" transform="translate(1091.71 505)">Previous studies</text><text font-family="Arial,Arial_MSFontService,sans-serif" font-weight="400" font-size="21" transform="translate(934.34 508)">0.61</text><g><text font-family="Arial,Arial_MSFontService,sans-serif" font-weight="400" font-size="21" transform="translate(778.073 508)">α</text></g><g><text font-family="Arial,Arial_MSFontService,sans-serif" font-weight="400" font-size="21" transform="translate(40.2536 508)">Shape</text></g><text font-family="Arial,Arial_MSFontService,sans-serif" font-weight="400" font-size="21" transform="translate(107.754 508)">parameter</text><text font-family="Arial,Arial_MSFontService,sans-serif" font-weight="400" font-size="21" transform="translate(211.087 508)">of</text><text font-family="Arial,Arial_MSFontService,sans-serif" font-weight="400" font-size="21" transform="translate(234.92 508)">the</text><text font-family="Arial,Arial_MSFontService,sans-serif" font-weight="400" font-size="21" transform="translate(270.587 508)">shedding</text><text font-family="Arial,Arial_MSFontService,sans-serif" font-weight="400" font-size="21" transform="translate(362.92 508)">dynamics</text><text font-family="Arial,Arial_MSFontService,sans-serif" font-weight="400" font-size="21" transform="translate(458.92 508)">model</text><text font-family="Arial,Arial_MSFontService,sans-serif" font-weight="400" font-size="19" transform="translate(1091.71 536)">Previous studies</text><text font-family="Arial,Arial_MSFontService,sans-serif" font-weight="400" font-size="21" transform="translate(934.34 539)">10.2</text><g><text font-family="Arial,Arial_MSFontService,sans-serif" font-weight="400" font-size="21" transform="translate(778.073 539)">β</text></g><g><text font-family="Arial,Arial_MSFontService,sans-serif" font-weight="400" font-size="21" transform="translate(40.2536 539)">Shape</text></g><text font-family="Arial,Arial_MSFontService,sans-serif" font-weight="400" font-size="21" transform="translate(107.754 539)">parameter</text><text font-family="Arial,Arial_MSFontService,sans-serif" font-weight="400" font-size="21" transform="translate(211.087 539)">of</text><text font-family="Arial,Arial_MSFontService,sans-serif" font-weight="400" font-size="21" transform="translate(234.92 539)">the</text><text font-family="Arial,Arial_MSFontService,sans-serif" font-weight="400" font-size="21" transform="translate(270.587 539)">shedding</text><text font-family="Arial,Arial_MSFontService,sans-serif" font-weight="400" font-size="21" transform="translate(362.92 539)">dynamics</text><text font-family="Arial,Arial_MSFontService,sans-serif" font-weight="400" font-size="21" transform="translate(458.92 539)">model</text><text font-family="Arial,Arial_MSFontService,sans-serif" font-weight="400" font-size="21" transform="translate(907.673 571)">Estimated</text><g><text font-family="Arial,Arial_MSFontService,sans-serif" font-weight="400" font-size="21" transform="translate(778.073 571)">C</text></g><text font-family="Arial,Arial_MSFontService,sans-serif" font-weight="400" font-size="14" transform="translate(793.407 575)">1</text><g><text font-family="Arial,Arial_MSFontService,sans-serif" font-weight="400" font-size="21" transform="translate(40.2536 571)">Parameter</text></g><text font-family="Arial,Arial_MSFontService,sans-serif" font-weight="400" font-size="21" transform="translate(145.92 571)">for</text><text font-family="Arial,Arial_MSFontService,sans-serif" font-weight="400" font-size="21" transform="translate(176.92 571)">the</text><text font-family="Arial,Arial_MSFontService,sans-serif" font-weight="400" font-size="21" transform="translate(212.587 571)">logistic</text><text font-family="Arial,Arial_MSFontService,sans-serif" font-weight="400" font-size="21" transform="translate(283.587 571)">function</text><text font-family="Arial,Arial_MSFontService,sans-serif" font-weight="400" font-size="21" transform="translate(907.673 598)">Estimated</text><g><text font-family="Arial,Arial_MSFontService,sans-serif" font-weight="400" font-size="21" transform="translate(778.073 598)">C</text></g><text font-family="Arial,Arial_MSFontService,sans-serif" font-weight="400" font-size="14" transform="translate(793.407 602)">2</text><g><text font-family="Arial,Arial_MSFontService,sans-serif" font-weight="400" font-size="21" transform="translate(40.2536 598)">Parameter</text></g><text font-family="Arial,Arial_MSFontService,sans-serif" font-weight="400" font-size="21" transform="translate(145.92 598)">for</text><text font-family="Arial,Arial_MSFontService,sans-serif" font-weight="400" font-size="21" transform="translate(176.92 598)">the</text><text font-family="Arial,Arial_MSFontService,sans-serif" font-weight="400" font-size="21" transform="translate(212.587 598)">logistic</text><text font-family="Arial,Arial_MSFontService,sans-serif" font-weight="400" font-size="21" transform="translate(283.587 598)">function</text><text font-family="Arial,Arial_MSFontService,sans-serif" font-weight="400" font-size="19" transform="translate(1121.21 623)">Assumed</text><text font-family="Arial,Arial_MSFontService,sans-serif" font-weight="400" font-size="21" transform="translate(931.423 626)">1000</text><g><text font-family="Arial,Arial_MSFontService,sans-serif" font-style="italic" font-weight="400" font-size="21" transform="translate(778.073 626)">PP</text></g><g><text font-family="Arial,Arial_MSFontService,sans-serif" font-weight="400" font-size="14" transform="translate(806.407 630)">hos</text></g><g><text font-family="Arial,Arial_MSFontService,sans-serif" font-weight="400" font-size="21" transform="translate(40.2536 626)">The</text></g><text font-family="Arial,Arial_MSFontService,sans-serif" font-weight="400" font-size="21" transform="translate(82.9203 626)">number</text><text font-family="Arial,Arial_MSFontService,sans-serif" font-weight="400" font-size="21" transform="translate(161.254 626)">of</text><text font-family="Arial,Arial_MSFontService,sans-serif" font-weight="400" font-size="21" transform="translate(185.087 626)">individuals</text><text font-family="Arial,Arial_MSFontService,sans-serif" font-weight="400" font-size="21" transform="translate(290.254 626)">who</text><text font-family="Arial,Arial_MSFontService,sans-serif" font-weight="400" font-size="21" transform="translate(335.254 626)">come</text><text font-family="Arial,Arial_MSFontService,sans-serif" font-weight="400" font-size="21" transform="translate(393.42 626)">into</text><text font-family="Arial,Arial_MSFontService,sans-serif" font-weight="400" font-size="21" transform="translate(433.754 626)">contact</text><text font-family="Arial,Arial_MSFontService,sans-serif" font-weight="400" font-size="21" transform="translate(508.587 626)">with</text><text font-family="Arial,Arial_MSFontService,sans-serif" font-weight="400" font-size="21" transform="translate(552.42 626)">inpatients</text><text font-family="Arial,Arial_MSFontService,sans-serif" font-weight="400" font-size="21" transform="translate(649.587 626)">in</text><text font-family="Arial,Arial_MSFontService,sans-serif" font-weight="400" font-size="21" transform="translate(672.087 626)">a</text><g><text font-family="Arial,Arial_MSFontService,sans-serif" font-weight="400" font-size="21" transform="translate(689.92 626)">hospital</text></g><text font-family="Arial,Arial_MSFontService,sans-serif" font-weight="400" font-size="19" transform="translate(1121.21 651)">Assumed</text><text font-family="Arial,Arial_MSFontService,sans-serif" font-weight="400" font-size="21" transform="translate(940.256 654)">1.0</text><g><text font-family="Arial,Arial_MSFontService,sans-serif" font-weight="400" font-size="21" transform="translate(778.073 654)">k</text></g><g><text font-family="Arial,Arial_MSFontService,sans-serif" font-weight="400" font-size="21" transform="translate(40.2536 654)">Dispersion</text></g><text font-family="Arial,Arial_MSFontService,sans-serif" font-weight="400" font-size="21" transform="translate(146.754 654)">parameter</text><text fill="#4B5E68" font-family="Arial,Arial_MSFontService,sans-serif" font-weight="700" font-size="32" transform="translate(500.778 85)">Parameter setting</text><text fill="#4B5E68" font-family="Arial,Arial_MSFontService,sans-serif" font-weight="400" font-size="21" transform="translate(47.564 694)">•</text><text fill="#4B5E68" font-family="Arial,Arial_MSFontService,sans-serif" font-weight="400" font-size="21" transform="translate(77.564 694)">Mean and variance of Gamma(a, b) are a/b and a/b</text><text fill="#4B5E68" font-family="Arial,Arial_MSFontService,sans-serif" font-weight="400" font-size="14" transform="translate(564.397 688)">2</text><text fill="#4B5E68" font-family="Arial,Arial_MSFontService,sans-serif" font-weight="400" font-size="21" transform="translate(572.231 694)">, respectively</text><text fill="#4B5E68" font-family="Arial,Arial_MSFontService,sans-serif" font-weight="400" font-size="19" transform="translate(696.731 694)">.</text></g></svg>