<svg width="1282" height="724" xmlns="http://www.w3.org/2000/svg" xmlns:xlink="http://www.w3.org/1999/xlink" overflow="hidden"><g transform="translate(1 3)"><rect x="0" y="0" width="1280" height="720" fill="#FFFFFF"/><text fill="#4B5E68" font-family="Arial,Arial_MSFontService,sans-serif" font-weight="700" font-size="37" transform="translate(304.856 96)">Recalibration</text><text fill="#4B5E68" font-family="Arial,Arial_MSFontService,sans-serif" font-weight="700" font-size="37" transform="translate(552.023 96)">of the estimated risks</text><text fill="#4B5E68" font-family="Arial,Arial_MSFontService,sans-serif" font-weight="400" font-size="24" transform="translate(68.505 151)">To correct for potential systematic bias in the predicted probabilities that are attributed to assumed parameters,</text><text fill="#4B5E68" font-family="Arial,Arial_MSFontService,sans-serif" font-weight="400" font-size="24" transform="translate(68.505 181)">a</text><text fill="#4B5E68" font-family="Arial,Arial_MSFontService,sans-serif" font-weight="400" font-size="24" transform="translate(88.505 181)">recalibration</text><text fill="#4B5E68" font-family="Arial,Arial_MSFontService,sans-serif" font-weight="400" font-size="24" transform="translate(225.838 181)">step was performed</text><text fill="#4B5E68" font-family="Arial,Arial_MSFontService,sans-serif" font-weight="400" font-size="24" transform="translate(443.172 181)">after the calculation of the</text><text fill="#4B5E68" font-family="Arial,Arial_MSFontService,sans-serif" font-weight="400" font-size="24" transform="translate(724.505 181)">probabilities</text><text fill="#4B5E68" font-family="Arial,Arial_MSFontService,sans-serif" font-weight="400" font-size="24" transform="translate(859.172 181)">(i.e.,</text><text fill="#4B5E68" font-family="Cambria Math,Cambria Math_MSFontService,sans-serif" font-weight="400" font-size="24" transform="translate(912.505 181)">𝑃</text><text fill="#4B5E68" font-family="Cambria Math,Cambria Math_MSFontService,sans-serif" font-weight="400" font-size="18" transform="translate(922.652 186)">𝑟</text><text fill="#4B5E68" font-family="Cambria Math,Cambria Math_MSFontService,sans-serif" font-weight="400" font-size="18" transform="translate(927.925 173)">7</text><path d="M959.393 163.486C961.675 164.088 963.427 165.387 964.649 167.383 965.872 169.379 966.483 171.787 966.483 174.607 966.483 177.436 965.874 179.844 964.655 181.832 963.436 183.82 961.682 185.115 959.393 185.717L959.112 184.814C960.917 184.213 962.259 183.025 963.138 181.252 964.016 179.478 964.456 177.225 964.456 174.49 964.456 171.85 964.018 169.656 963.143 167.91 962.268 166.164 960.913 164.99 959.077 164.389ZM947.784 163.486 948.101 164.389C946.273 164.99 944.919 166.164 944.04 167.91 943.161 169.656 942.722 171.85 942.722 174.49 942.722 177.225 943.161 179.478 944.04 181.252 944.919 183.025 946.261 184.213 948.065 184.814L947.784 185.717C945.495 185.115 943.741 183.82 942.523 181.832 941.304 179.844 940.694 177.436 940.694 174.607 940.694 171.787 941.306 169.379 942.528 167.383 943.751 165.387 945.503 164.088 947.784 163.486Z" fill="#4B5E68" fill-rule="evenodd"/><text fill="#4B5E68" font-family="Cambria Math,Cambria Math_MSFontService,sans-serif" font-weight="400" font-size="24" transform="translate(948.545 181)">𝑡</text><text fill="#4B5E68" font-family="Arial,Arial_MSFontService,sans-serif" font-weight="400" font-size="24" transform="translate(968.592 181)">,</text><text fill="#4B5E68" font-family="Cambria Math,Cambria Math_MSFontService,sans-serif" font-weight="400" font-size="24" transform="translate(981.925 181)">𝑃</text><text fill="#4B5E68" font-family="Cambria Math,Cambria Math_MSFontService,sans-serif" font-weight="400" font-size="18" transform="translate(992.072 186)">𝑒</text><text fill="#4B5E68" font-family="Cambria Math,Cambria Math_MSFontService,sans-serif" font-weight="400" font-size="18" transform="translate(997.345 173)">7</text><path d="M1028.81 163.486C1031.09 164.088 1032.85 165.387 1034.07 167.383 1035.29 169.379 1035.9 171.787 1035.9 174.607 1035.9 177.436 1035.29 179.844 1034.08 181.832 1032.86 183.82 1031.1 185.115 1028.81 185.717L1028.53 184.814C1030.34 184.213 1031.68 183.025 1032.56 181.252 1033.44 179.478 1033.88 177.225 1033.88 174.49 1033.88 171.85 1033.44 169.656 1032.56 167.91 1031.69 166.164 1030.33 164.99 1028.5 164.389ZM1017.2 163.486 1017.52 164.389C1015.69 164.99 1014.34 166.164 1013.46 167.91 1012.58 169.656 1012.14 171.85 1012.14 174.49 1012.14 177.225 1012.58 179.478 1013.46 181.252 1014.34 183.025 1015.68 184.213 1017.49 184.814L1017.2 185.717C1014.92 185.115 1013.16 183.82 1011.94 181.832 1010.72 179.844 1010.11 177.436 1010.11 174.607 1010.11 171.787 1010.73 169.379 1011.95 167.383 1013.17 165.387 1014.92 164.088 1017.2 163.486Z" fill="#4B5E68" fill-rule="evenodd"/><text fill="#4B5E68" font-family="Cambria Math,Cambria Math_MSFontService,sans-serif" font-weight="400" font-size="24" transform="translate(1017.97 181)">𝑡</text><text fill="#4B5E68" font-family="Arial,Arial_MSFontService,sans-serif" font-weight="400" font-size="24" transform="translate(1038.01 181)">,</text><text fill="#4B5E68" font-family="Cambria Math,Cambria Math_MSFontService,sans-serif" font-weight="400" font-size="24" transform="translate(1051.34 181)">𝑃</text><text fill="#4B5E68" font-family="Cambria Math,Cambria Math_MSFontService,sans-serif" font-weight="400" font-size="18" transform="translate(1063.6 187)">𝑖</text><text fill="#4B5E68" font-family="Cambria Math,Cambria Math_MSFontService,sans-serif" font-weight="400" font-size="18" transform="translate(1066.77 172)">7</text><path d="M1098.23 163.486C1100.51 164.088 1102.27 165.387 1103.49 167.383 1104.71 169.379 1105.32 171.787 1105.32 174.607 1105.32 177.436 1104.71 179.844 1103.5 181.832 1102.28 183.82 1100.52 185.115 1098.23 185.717L1097.95 184.814C1099.76 184.213 1101.1 183.025 1101.98 181.252 1102.86 179.478 1103.3 177.225 1103.3 174.49 1103.3 171.85 1102.86 169.656 1101.98 167.91 1101.11 166.164 1099.75 164.99 1097.92 164.389ZM1086.62 163.486 1086.94 164.389C1085.11 164.99 1083.76 166.164 1082.88 167.91 1082 169.656 1081.56 171.85 1081.56 174.49 1081.56 177.225 1082 179.478 1082.88 181.252 1083.76 183.025 1085.1 184.213 1086.91 184.814L1086.62 185.717C1084.34 185.115 1082.58 183.82 1081.36 181.832 1080.14 179.844 1079.53 177.436 1079.53 174.607 1079.53 171.787 1080.15 169.379 1081.37 167.383 1082.59 165.387 1084.34 164.088 1086.62 163.486Z" fill="#4B5E68" fill-rule="evenodd"/><text fill="#4B5E68" font-family="Cambria Math,Cambria Math_MSFontService,sans-serif" font-weight="400" font-size="24" transform="translate(1087.39 181)">𝑡</text><text fill="#4B5E68" font-family="Arial,Arial_MSFontService,sans-serif" font-weight="400" font-size="24" transform="translate(1107.43 181)">)</text><path d="M72.5001 215.5 1236.59 215.5" stroke="#4B5E68" stroke-miterlimit="8" stroke-dasharray="8 3" fill="none" fill-rule="evenodd"/><rect x="0.500053" y="-1.50005" width="1280" height="37.0001" stroke="#7F7F7F" stroke-width="1.33333" stroke-miterlimit="8" fill="#D9D9D9"/><text fill="#4B5E68" font-family="Arial,Arial_MSFontService,sans-serif" font-weight="700" font-size="21" transform="translate(392 25)">Supplemental methods for real</text><text fill="#4B5E68" font-family="Arial,Arial_MSFontService,sans-serif" font-weight="700" font-size="21" transform="translate(705.167 25)">-</text><text fill="#4B5E68" font-family="Arial,Arial_MSFontService,sans-serif" font-weight="700" font-size="21" transform="translate(712.333 25)">world application</text><text fill="#4B5E68" font-family="Cambria Math,Cambria Math_MSFontService,sans-serif" font-weight="400" font-size="24" transform="translate(465.551 371)">𝑦</text><text fill="#4B5E68" font-family="Cambria Math,Cambria Math_MSFontService,sans-serif" font-weight="400" font-size="18" transform="translate(478.324 376)">𝑖</text><path d="M506.892 353.494C509.174 354.095 510.926 355.394 512.148 357.39 513.371 359.386 513.982 361.795 513.982 364.615 513.982 367.443 513.373 369.851 512.154 371.84 510.935 373.828 509.182 375.123 506.892 375.724L506.611 374.822C508.416 374.22 509.758 373.033 510.637 371.259 511.516 369.486 511.955 367.232 511.955 364.498 511.955 361.857 511.517 359.664 510.642 357.918 509.767 356.172 508.412 354.998 506.576 354.396ZM495.283 353.494 495.6 354.396C493.772 354.998 492.418 356.172 491.539 357.918 490.66 359.664 490.221 361.857 490.221 364.498 490.221 367.232 490.66 369.486 491.539 371.259 492.418 373.033 493.76 374.22 495.565 374.822L495.283 375.724C492.994 375.123 491.24 373.828 490.022 371.84 488.803 369.851 488.193 367.443 488.193 364.615 488.193 361.795 488.805 359.386 490.027 357.39 491.25 355.394 493.002 354.095 495.283 353.494Z" fill="#4B5E68" fill-rule="evenodd"/><text fill="#4B5E68" font-family="Cambria Math,Cambria Math_MSFontService,sans-serif" font-weight="400" font-size="24" transform="translate(496.044 371)">𝑡</text><text fill="#4B5E68" font-family="Cambria Math,Cambria Math_MSFontService,sans-serif" font-weight="400" font-size="24" transform="translate(516.091 371)"></text><text fill="#4B5E68" font-family="Cambria Math,Cambria Math_MSFontService,sans-serif" font-weight="400" font-size="24" transform="translate(521.424 371)">~</text><text fill="#4B5E68" font-family="Cambria Math,Cambria Math_MSFontService,sans-serif" font-weight="400" font-size="24" transform="translate(538.591 371)"></text><text fill="#4B5E68" font-family="Cambria Math,Cambria Math_MSFontService,sans-serif" font-weight="400" font-size="24" transform="translate(543.924 371)">𝐵𝑒𝑟𝑛𝑜𝑢𝑙𝑙𝑖</text><path d="M708.705 350.116C711.143 350.757 713.022 352.417 714.342 355.096 715.662 357.776 716.323 360.948 716.323 364.612 716.323 368.276 715.662 371.448 714.342 374.128 713.022 376.807 711.143 378.467 708.705 379.108L708.412 378.147C710.303 377.436 711.735 375.887 712.707 373.501 713.68 371.114 714.166 368.155 714.166 364.624 714.166 361.085 713.68 358.12 712.707 355.729 711.735 353.339 710.303 351.788 708.412 351.077ZM656.577 350.116 656.87 351.077C654.98 351.788 653.548 353.339 652.575 355.729 651.603 358.12 651.116 361.085 651.116 364.624 651.116 368.155 651.603 371.114 652.575 373.501 653.548 375.887 654.98 377.436 656.87 378.147L656.577 379.108C654.14 378.467 652.261 376.807 650.941 374.128 649.62 371.448 648.96 368.276 648.96 364.612 648.96 360.948 649.62 357.776 650.941 355.096 652.261 352.417 654.14 350.757 656.577 350.116Z" fill="#4B5E68" fill-rule="evenodd"/><text fill="#4B5E68" font-family="Cambria Math,Cambria Math_MSFontService,sans-serif" font-weight="400" font-size="24" transform="translate(657.631 371)">𝑃</text><text fill="#4B5E68" font-family="Cambria Math,Cambria Math_MSFontService,sans-serif" font-weight="400" font-size="18" transform="translate(669.884 376)">𝑖</text><path d="M698.453 353.494C700.734 354.095 702.486 355.394 703.708 357.39 704.931 359.386 705.542 361.795 705.542 364.615 705.542 367.443 704.933 369.851 703.714 371.84 702.495 373.828 700.742 375.123 698.453 375.724L698.171 374.822C699.976 374.22 701.318 373.033 702.197 371.259 703.076 369.486 703.515 367.232 703.515 364.498 703.515 361.857 703.078 359.664 702.203 357.918 701.328 356.172 699.972 354.998 698.136 354.396ZM686.843 353.494 687.16 354.396C685.332 354.998 683.978 356.172 683.099 357.918 682.22 359.664 681.781 361.857 681.781 364.498 681.781 367.232 682.22 369.486 683.099 371.259 683.978 373.033 685.32 374.22 687.125 374.822L686.843 375.724C684.554 375.123 682.8 373.828 681.582 371.84 680.363 369.851 679.753 367.443 679.753 364.615 679.753 361.795 680.365 359.386 681.587 357.39 682.81 355.394 684.562 354.095 686.843 353.494Z" fill="#4B5E68" fill-rule="evenodd"/><text fill="#4B5E68" font-family="Cambria Math,Cambria Math_MSFontService,sans-serif" font-weight="400" font-size="24" transform="translate(687.604 371)">𝑡</text><text fill="#4B5E68" font-family="Cambria Math,Cambria Math_MSFontService,sans-serif" font-weight="400" font-size="24" transform="translate(370.587 582)">𝑙𝑜𝑔𝑖𝑡</text><path d="M485.195 560.328C487.633 560.968 489.512 562.629 490.832 565.308 492.152 567.988 492.812 571.16 492.812 574.824 492.812 578.488 492.152 581.66 490.832 584.339 489.512 587.019 487.633 588.679 485.195 589.32L484.902 588.359C486.793 587.648 488.224 586.099 489.197 583.713 490.17 581.326 490.656 578.367 490.656 574.836 490.656 571.297 490.17 568.332 489.197 565.941 488.224 563.55 486.793 562 484.902 561.289ZM433.067 560.328 433.36 561.289C431.469 562 430.038 563.55 429.065 565.941 428.092 568.332 427.606 571.297 427.606 574.836 427.606 578.367 428.092 581.326 429.065 583.713 430.038 586.099 431.469 587.648 433.36 588.359L433.067 589.32C430.629 588.679 428.751 587.019 427.43 584.339 426.11 581.66 425.45 578.488 425.45 574.824 425.45 571.16 426.11 567.988 427.43 565.308 428.751 562.629 430.629 560.968 433.067 560.328Z" fill="#4B5E68" fill-rule="evenodd"/><text fill="#4B5E68" font-family="Cambria Math,Cambria Math_MSFontService,sans-serif" font-weight="400" font-size="24" transform="translate(434.12 582)">𝑃</text><text fill="#4B5E68" font-family="Cambria Math,Cambria Math_MSFontService,sans-serif" font-weight="400" font-size="18" transform="translate(446.374 587)">𝑖</text><path d="M474.942 563.706C477.223 564.307 478.975 565.606 480.198 567.602 481.421 569.598 482.032 572.007 482.032 574.827 482.032 577.655 481.423 580.063 480.204 582.051 478.985 584.04 477.231 585.335 474.942 585.936L474.661 585.034C476.466 584.432 477.807 583.245 478.686 581.471 479.565 579.698 480.005 577.444 480.005 574.71 480.005 572.069 479.567 569.876 478.692 568.13 477.817 566.383 476.462 565.21 474.626 564.608ZM463.333 563.706 463.649 564.608C461.821 565.21 460.468 566.383 459.589 568.13 458.71 569.876 458.271 572.069 458.271 574.71 458.271 577.444 458.71 579.698 459.589 581.471 460.468 583.245 461.81 584.432 463.614 585.034L463.333 585.936C461.044 585.335 459.29 584.04 458.071 582.051 456.853 580.063 456.243 577.655 456.243 574.827 456.243 572.007 456.854 569.598 458.077 567.602 459.3 565.606 461.052 564.307 463.333 563.706Z" fill="#4B5E68" fill-rule="evenodd"/><text fill="#4B5E68" font-family="Cambria Math,Cambria Math_MSFontService,sans-serif" font-weight="400" font-size="24" transform="translate(464.094 582)">𝑡</text><text fill="#4B5E68" font-family="Cambria Math,Cambria Math_MSFontService,sans-serif" font-weight="400" font-size="24" transform="translate(501.587 582)">=</text><text fill="#4B5E68" font-family="Cambria Math,Cambria Math_MSFontService,sans-serif" font-weight="400" font-size="24" transform="translate(526.254 582)"></text><text fill="#4B5E68" font-family="Cambria Math,Cambria Math_MSFontService,sans-serif" font-weight="400" font-size="24" transform="translate(531.587 582)">𝑖𝑛𝑡𝑒𝑟𝑐𝑒𝑝𝑡</text><text fill="#4B5E68" font-family="Cambria Math,Cambria Math_MSFontService,sans-serif" font-weight="400" font-size="24" transform="translate(637.34 582)">+</text><text fill="#4B5E68" font-family="Cambria Math,Cambria Math_MSFontService,sans-serif" font-weight="400" font-size="24" transform="translate(660.674 582)"></text><text fill="#4B5E68" font-family="Cambria Math,Cambria Math_MSFontService,sans-serif" font-weight="400" font-size="24" transform="translate(666.007 582)">𝑠𝑙𝑜𝑝𝑒</text><text fill="#4B5E68" font-family="Cambria Math,Cambria Math_MSFontService,sans-serif" font-weight="400" font-size="24" transform="translate(728.534 582)">×</text><text fill="#4B5E68" font-family="Cambria Math,Cambria Math_MSFontService,sans-serif" font-weight="400" font-size="24" transform="translate(751.034 582)">𝑙𝑜𝑔𝑖𝑡</text><path d="M861.048 560.328C863.486 560.968 865.365 562.629 866.685 565.308 868.005 567.988 868.666 571.16 868.666 574.824 868.666 578.488 868.005 581.66 866.685 584.339 865.365 587.019 863.486 588.679 861.048 589.32L860.755 588.359C862.646 587.648 864.078 586.099 865.05 583.713 866.023 581.326 866.509 578.367 866.509 574.836 866.509 571.297 866.023 568.332 865.05 565.941 864.078 563.55 862.646 562 860.755 561.289ZM813.514 560.328 813.807 561.289C811.916 562 810.484 563.55 809.512 565.941 808.539 568.332 808.053 571.297 808.053 574.836 808.053 578.367 808.539 581.326 809.512 583.713 810.484 586.099 811.916 587.648 813.807 588.359L813.514 589.32C811.076 588.679 809.197 587.019 807.877 584.339 806.557 581.66 805.896 578.488 805.896 574.824 805.896 571.16 806.557 567.988 807.877 565.308 809.197 562.629 811.076 560.968 813.514 560.328Z" fill="#4B5E68" fill-rule="evenodd"/><text fill="#4B5E68" font-family="Cambria Math,Cambria Math_MSFontService,sans-serif" font-weight="400" font-size="24" transform="translate(814.567 582)">𝑃</text><path d="M850.796 563.706C853.077 564.307 854.829 565.606 856.051 567.602 857.274 569.598 857.885 572.007 857.885 574.827 857.885 577.655 857.276 580.063 856.057 582.051 854.839 584.04 853.085 585.335 850.796 585.936L850.514 585.034C852.319 584.432 853.661 583.245 854.54 581.471 855.419 579.698 855.858 577.444 855.858 574.71 855.858 572.069 855.421 569.876 854.546 568.13 853.671 566.383 852.315 565.21 850.479 564.608ZM839.186 563.706 839.503 564.608C837.675 565.21 836.321 566.383 835.442 568.13 834.563 569.876 834.124 572.069 834.124 574.71 834.124 577.444 834.563 579.698 835.442 581.471 836.321 583.245 837.663 584.432 839.468 585.034L839.186 585.936C836.897 585.335 835.143 584.04 833.925 582.051 832.706 580.063 832.096 577.655 832.096 574.827 832.096 572.007 832.708 569.598 833.93 567.602 835.153 565.606 836.905 564.307 839.186 563.706Z" fill="#4B5E68" fill-rule="evenodd"/><text fill="#4B5E68" font-family="Cambria Math,Cambria Math_MSFontService,sans-serif" font-weight="400" font-size="24" transform="translate(839.947 582)">𝑡</text><text fill="#4B5E68" font-family="Arial,Arial_MSFontService,sans-serif" font-weight="400" font-size="24" transform="translate(68.5051 481)">where the recalibrated probability</text><text fill="#4B5E68" font-family="Arial,Arial_MSFontService,sans-serif" font-style="italic" font-weight="400" font-size="24" transform="translate(428.505 481)">P</text><text fill="#4B5E68" font-family="Arial,Arial_MSFontService,sans-serif" font-weight="400" font-size="16" transform="translate(444.505 486)">i</text><text fill="#4B5E68" font-family="Arial,Arial_MSFontService,sans-serif" font-weight="400" font-size="24" transform="translate(448.005 481)">(</text><text fill="#4B5E68" font-family="Arial,Arial_MSFontService,sans-serif" font-weight="400" font-size="24" transform="translate(456.005 481)">t) is defined</text><text fill="#4B5E68" font-family="Arial,Arial_MSFontService,sans-serif" font-weight="400" font-size="24" transform="translate(586.672 481)">by</text><text fill="#4B5E68" font-family="Arial,Arial_MSFontService,sans-serif" font-weight="400" font-size="24" transform="translate(81.7025 290)">Let</text><text fill="#4B5E68" font-family="Arial,Arial_MSFontService,sans-serif" font-weight="400" font-size="24" transform="translate(121.702 290)">y</text><text fill="#4B5E68" font-family="Arial,Arial_MSFontService,sans-serif" font-weight="400" font-size="16" transform="translate(133.702 295)">i</text><text fill="#4B5E68" font-family="Arial,Arial_MSFontService,sans-serif" font-weight="400" font-size="24" transform="translate(137.202 290)">(t) denote</text><text fill="#4B5E68" font-family="Arial,Arial_MSFontService,sans-serif" font-weight="400" font-size="24" transform="translate(246.536 290)">the</text><text fill="#4B5E68" font-family="Arial,Arial_MSFontService,sans-serif" font-weight="400" font-size="24" transform="translate(286.536 290)">observed</text><text fill="#4B5E68" font-family="Arial,Arial_MSFontService,sans-serif" font-weight="400" font-size="24" transform="translate(391.869 290)">outcome of nosocomial infections on day</text><text fill="#4B5E68" font-family="Arial,Arial_MSFontService,sans-serif" font-style="italic" font-weight="400" font-size="24" transform="translate(831.869 290)">t</text></g></svg>