<svg width="1282" height="724" xmlns="http://www.w3.org/2000/svg" xmlns:xlink="http://www.w3.org/1999/xlink" overflow="hidden"><g transform="translate(1 2)"><rect x="0" y="0" width="1280" height="720" fill="#FFFFFF"/><text fill="#4B5E68" font-family="Arial,Arial_MSFontService,sans-serif" font-weight="700" font-size="37" transform="translate(210.833 88)">Definition</text><text fill="#4B5E68" font-family="Arial,Arial_MSFontService,sans-serif" font-weight="700" font-size="37" transform="translate(393.499 88)">of</text><text fill="#4B5E68" font-family="Arial,Arial_MSFontService,sans-serif" font-weight="700" font-size="37" transform="translate(439.166 88)">e</text><text fill="#4B5E68" font-family="Arial,Arial_MSFontService,sans-serif" font-weight="700" font-size="37" transform="translate(459.999 88)">pidemic</text><text fill="#4B5E68" font-family="Arial,Arial_MSFontService,sans-serif" font-weight="700" font-size="37" transform="translate(611.499 88)">to</text><text fill="#4B5E68" font-family="Arial,Arial_MSFontService,sans-serif" font-weight="700" font-size="37" transform="translate(657.166 88)">estimate</text><text fill="#4B5E68" font-family="Arial,Arial_MSFontService,sans-serif" font-weight="700" font-size="37" transform="translate(819.333 88)">epidemic</text><text fill="#4B5E68" font-family="Arial,Arial_MSFontService,sans-serif" font-weight="700" font-size="37" transform="translate(991.666 88)">ris</text><text fill="#4B5E68" font-family="Arial,Arial_MSFontService,sans-serif" font-weight="700" font-size="37" transform="translate(1037.33 88)">k</text><path d="M91.5001 165.5 1187.56 165.5" stroke="#4B5E68" stroke-miterlimit="8" stroke-dasharray="8 3" fill="none" fill-rule="evenodd"/><text fill="#4B5E68" font-family="Arial,Arial_MSFontService,sans-serif" font-weight="400" font-size="24" transform="translate(107.462 139)">A forward</text><text fill="#4B5E68" font-family="Arial,Arial_MSFontService,sans-serif" font-weight="400" font-size="24" transform="translate(208.802 139)">-</text><text fill="#4B5E68" font-family="Arial,Arial_MSFontService,sans-serif" font-weight="400" font-size="24" transform="translate(216.802 139)">looking definition can support more proactive decision making to control infectious diseases</text><rect x="0.500053" y="0.500053" width="321" height="37" stroke="#7F7F7F" stroke-width="1.33333" stroke-miterlimit="8" fill="#4B5E68"/><text fill="#FFFFFF" font-family="Arial,Arial_MSFontService,sans-serif" font-weight="700" font-size="21" transform="translate(98.3799 27)">Introduction</text><rect x="320.5" y="0.500053" width="321" height="37" stroke="#7F7F7F" stroke-width="1.33333" stroke-miterlimit="8" fill="#D9D9D9"/><text fill="#A6A6A6" font-family="Arial,Arial_MSFontService,sans-serif" font-weight="700" font-size="21" transform="translate(376.718 27)">Materials &amp; Methods</text><rect x="639.5" y="0.500053" width="321" height="37" stroke="#7F7F7F" stroke-width="1.33333" stroke-miterlimit="8" fill="#D9D9D9"/><text fill="#A6A6A6" font-family="Arial,Arial_MSFontService,sans-serif" font-weight="700" font-size="21" transform="translate(690.449 27)">Results &amp; Discussion</text><rect x="959.5" y="0.500053" width="321" height="37" stroke="#7F7F7F" stroke-width="1.33333" stroke-miterlimit="8" fill="#D9D9D9"/><text fill="#A6A6A6" font-family="Arial,Arial_MSFontService,sans-serif" font-weight="700" font-size="21" transform="translate(1061.32 27)">Conclusion</text><text fill="#4B5E68" font-family="Wingdings,Wingdings_MSFontService,sans-serif" font-weight="400" font-size="24" transform="translate(65.1247 209)"></text><text fill="#4B5E68" font-family="Arial,Arial_MSFontService,sans-serif" font-weight="400" font-size="24" transform="translate(95.1247 209)">General definition of epidemic</text><rect x="658" y="174" width="599" height="526" fill="#FBF4D8" fill-opacity="0.698039"/><text fill="#4B5E68" font-family="Arial,Arial_MSFontService,sans-serif" font-weight="400" font-size="24" transform="translate(92.3272 255)">D</text><text fill="#4B5E68" font-family="Arial,Arial_MSFontService,sans-serif" font-weight="400" font-size="24" transform="translate(109.661 255)">isease occurrence above a baseline</text><text fill="#4B5E68" font-family="Arial,Arial_MSFontService,sans-serif" font-weight="400" font-size="24" transform="translate(92.3272 284)">representing normal conditions</text><text fill="#4B5E68" font-family="Arial,Arial_MSFontService,sans-serif" font-weight="400" font-size="24" transform="translate(426.994 284)">(</text><text fill="#4B5E68" font-family="Arial,Arial_MSFontService,sans-serif" font-weight="700" font-size="24" transform="translate(434.994 284)">Current</text><text fill="#4B5E68" font-family="Arial,Arial_MSFontService,sans-serif" font-weight="700" font-size="24" transform="translate(521.661 284)">-</text><text fill="#4B5E68" font-family="Arial,Arial_MSFontService,sans-serif" font-weight="700" font-size="24" transform="translate(529.661 284)">based</text><text fill="#4B5E68" font-family="Arial,Arial_MSFontService,sans-serif" font-weight="400" font-size="24" transform="translate(598.994 284)">)</text><text fill="#4B5E68" font-family="Arial,Arial_MSFontService,sans-serif" font-weight="400" font-size="19" transform="translate(40.9415 509)">180</text><text fill="#4B5E68" font-family="Arial,Arial_MSFontService,sans-serif" font-weight="400" font-size="19" transform="translate(40.9415 557)">120</text><text fill="#4B5E68" font-family="Arial,Arial_MSFontService,sans-serif" font-weight="400" font-size="19" transform="translate(51.2748 606)">60</text><text fill="#4B5E68" font-family="Arial,Arial_MSFontService,sans-serif" font-weight="400" font-size="19" transform="translate(61.6081 651)">0</text><path d="M88.5001 609.5 594.5 609.5" stroke="#EBEBEB" stroke-width="0.711286" stroke-linejoin="round" stroke-miterlimit="10" fill="none" fill-rule="evenodd"/><path d="M88.5001 559.5 594.5 559.5" stroke="#EBEBEB" stroke-width="0.711286" stroke-linejoin="round" stroke-miterlimit="10" fill="none" fill-rule="evenodd"/><path d="M88.5001 509.5 594.5 509.5" stroke="#EBEBEB" stroke-width="0.711286" stroke-linejoin="round" stroke-miterlimit="10" fill="none" fill-rule="evenodd"/><path d="M88.5001 459.5 594.5 459.5" stroke="#EBEBEB" stroke-width="0.711286" stroke-linejoin="round" stroke-miterlimit="10" fill="none" fill-rule="evenodd"/><path d="M88.5001 634.5 594.5 634.5" stroke="#EBEBEB" stroke-width="1.42268" stroke-linejoin="round" stroke-miterlimit="10" fill="none" fill-rule="evenodd"/><path d="M88.5001 584.5 594.5 584.5" stroke="#EBEBEB" stroke-width="1.42268" stroke-linejoin="round" stroke-miterlimit="10" fill="none" fill-rule="evenodd"/><path d="M88.5001 534.5 594.5 534.5" stroke="#EBEBEB" stroke-width="1.42268" stroke-linejoin="round" stroke-miterlimit="10" fill="none" fill-rule="evenodd"/><path d="M88.5001 484.5 594.5 484.5" stroke="#EBEBEB" stroke-width="1.42268" stroke-linejoin="round" stroke-miterlimit="10" fill="none" fill-rule="evenodd"/><path d="M88.5001 676.5 593.5 676.5" stroke="#4B5E68" stroke-width="1.42362" stroke-linejoin="round" stroke-miterlimit="10" fill="none" fill-rule="evenodd"/><path d="M203.5 643.5 203.5 459.5" stroke="#EBEBEB" stroke-width="0.711286" stroke-linejoin="round" stroke-miterlimit="10" fill="none" fill-rule="evenodd"/><path d="M348.5 643.5 348.5 459.5" stroke="#EBEBEB" stroke-width="0.711286" stroke-linejoin="round" stroke-miterlimit="10" fill="none" fill-rule="evenodd"/><path d="M493.5 643.5 493.5 459.5" stroke="#EBEBEB" stroke-width="0.711286" stroke-linejoin="round" stroke-miterlimit="10" fill="none" fill-rule="evenodd"/><path d="M131.5 643.5 131.5 459.5" stroke="#EBEBEB" stroke-width="1.42268" stroke-linejoin="round" stroke-miterlimit="10" fill="none" fill-rule="evenodd"/><path d="M276.5 643.5 276.5 459.5" stroke="#EBEBEB" stroke-width="1.42268" stroke-linejoin="round" stroke-miterlimit="10" fill="none" fill-rule="evenodd"/><path d="M420.5 643.5 420.5 459.5" stroke="#EBEBEB" stroke-width="1.42268" stroke-linejoin="round" stroke-miterlimit="10" fill="none" fill-rule="evenodd"/><path d="M565.5 643.5 565.5 459.5" stroke="#EBEBEB" stroke-width="1.42268" stroke-linejoin="round" stroke-miterlimit="10" fill="none" fill-rule="evenodd"/><path d="M116 481.92 118.896 495.441 121.786 507.545 124.682 518.549 127.578 528.387 130.475 537.293 133.371 545.09 136.267 552.671 139.163 559.751 142.059 566.457 144.955 572.722 147.851 578.47 150.741 583.41 153.637 587.958 156.533 591.557 159.429 595.197 162.325 598.579 165.222 601.828 168.118 604.91 171.014 607.784 173.91 610.209 176.8 612.349 179.696 614.307 182.592 616.081 185.488 617.714 188.384 619.322 191.28 620.746 194.176 621.963 197.073 623.112 199.969 624.037 202.859 624.862 205.755 625.695 208.651 626.486 211.547 627.186 214.443 627.836 217.339 628.469 220.235 628.969 223.131 629.393 226.027 629.743 228.924 630.068 231.814 630.343 234.71 630.685 237.606 631.01 240.502 631.301 243.398 631.584 246.294 631.826 249.19 632.051 252.086 632.251 254.982 632.409 257.873 632.534 260.769 632.617 263.665 632.676 269.457 632.726 272.353 632.709 275.249 632.667 278.145 632.609 281.041 632.542 283.937 632.451 286.827 632.351 289.724 632.226 292.62 632.092 298.412 631.793 301.308 631.609 304.204 631.451 307.1 631.276 309.996 631.109 312.886 630.91 315.782 630.726 318.678 630.518 324.471 630.135 327.367 629.927 330.263 629.702 333.159 629.452 336.055 629.193 338.951 628.919 341.841 628.602 344.737 628.286 347.633 628.002 350.529 627.711 353.426 627.394 356.322 627.069 365.01 625.97 367.9 625.486 370.796 625.02 373.692 624.537 379.484 623.471 382.38 622.887 385.277 622.288 388.173 621.596 391.069 620.913 393.959 620.197 396.855 619.522 399.751 618.814 402.647 618.131 405.543 617.331 408.439 616.49 411.335 615.407 414.231 614.715 417.127 613.732 420.024 612.799 422.914 611.65 425.81 610.575 428.706 609.351 431.602 608.076 434.498 606.785 437.394 605.444 440.29 603.936 443.186 602.453 446.082 600.912 448.973 599.262 451.869 597.721 454.765 595.989 457.661 594.273 460.557 592.29 463.453 590.324 466.349 587.908 469.245 585.625 472.141 583.11 475.037 580.527 477.927 578.02 480.824 575.762 483.72 573.68 486.616 570.856 489.512 567.99 492.408 565.191 495.304 561.909 498.2 558.568 501.096 555.636 503.986 552.404 506.882 548.88 509.779 545.665 512.674 541.783 515.571 538.092 518.467 534.627 521.363 530.27 524.259 526.063 527.155 521.257 530.045 516.458 532.941 511.568 535.837 507.112 538.733 503.213 541.629 499.148 544.526 494.316 547.422 490.701 550.318 486.252 553.214 480.804 556.11 474.623 559 469 559 498.573 556.11 503.18 553.214 508.153 550.318 512.168 547.422 515.892 544.526 519.291 541.629 523.364 538.733 527.129 535.837 530.395 532.941 533.96 530.045 537.667 527.155 541.591 524.259 545.431 521.363 549.338 518.467 552.662 515.571 555.603 512.674 558.91 509.779 561.842 506.882 564.816 503.986 567.59 501.096 570.331 498.2 573.088 495.304 575.529 492.408 577.978 489.512 580.186 486.616 582.402 483.72 584.743 480.824 586.583 477.927 588.716 475.037 590.715 472.141 592.765 469.245 594.881 466.349 596.722 463.453 598.479 460.557 600.204 457.661 601.753 454.765 603.353 451.869 604.669 448.973 605.968 446.082 607.218 443.186 608.476 440.29 609.667 437.394 610.867 434.498 612.024 431.602 613.099 428.706 614.082 425.81 615.14 422.914 616.106 420.024 616.981 417.127 617.764 414.231 618.564 411.335 619.289 408.439 619.997 405.543 620.646 402.647 621.321 399.751 621.921 396.855 622.463 393.959 622.996 391.069 623.562 388.173 624.037 385.277 624.578 382.38 625.07 379.484 625.545 376.588 626.003 373.692 626.453 370.796 626.844 367.9 627.219 365.01 627.611 359.218 628.277 356.322 628.56 353.426 628.852 350.529 629.094 347.633 629.368 344.737 629.618 341.841 629.852 338.951 630.11 336.055 630.376 333.159 630.668 330.263 630.935 327.367 631.209 324.471 631.476 321.574 631.726 318.678 631.959 315.782 632.159 312.886 632.351 309.996 632.534 307.1 632.701 304.204 632.842 301.308 632.976 295.516 633.225 289.724 633.442 286.827 633.575 283.937 633.667 281.041 633.734 278.145 633.842 275.249 633.933 272.353 634 269.457 633.992 266.561 633.967 263.665 633.933 260.769 633.867 257.873 633.809 254.982 633.717 249.19 633.417 246.294 633.217 243.398 633.026 240.502 632.801 237.606 632.551 234.71 632.242 231.814 631.918 228.924 631.543 226.027 631.168 223.131 630.768 220.235 630.343 217.339 629.885 214.443 629.368 211.547 628.869 208.651 628.269 205.755 627.627 202.859 626.969 199.969 626.345 197.073 625.653 194.176 624.803 191.28 623.787 188.384 622.696 185.488 621.396 182.592 620.138 179.696 618.805 176.8 617.273 173.91 615.782 171.014 613.816 168.118 611.575 165.222 609.134 162.325 606.285 159.429 603.794 156.533 600.895 153.637 597.988 150.741 594.347 147.851 590.291 144.955 585.792 142.059 580.752 139.163 575.404 136.267 569.848 133.371 563.717 130.475 557.944 127.578 550.613 124.682 543.457 121.786 534.285 118.896 524.222 116 513.326Z" fill="#74A9CF" fill-rule="evenodd" fill-opacity="0.501961"/><path d="M111 470 113.893 484.325 116.786 497.576 119.679 509.737 122.566 520.774 125.459 530.612 128.352 539.31 131.245 547.384 134.138 554.534 137.032 561.376 139.924 567.727 142.818 573.686 145.711 579.18 148.604 584.199 151.491 588.644 154.384 592.589 157.277 596.093 160.17 599.348 163.063 602.328 165.956 605.224 168.849 607.971 171.742 610.385 174.635 612.516 177.522 614.43 180.415 616.178 183.308 617.785 186.201 619.25 189.094 620.64 191.987 621.855 194.88 622.954 197.773 623.936 200.667 624.793 203.554 625.584 206.447 626.316 209.34 627.015 212.233 627.656 215.126 628.247 218.019 628.797 220.912 629.279 223.805 629.712 226.698 630.112 229.591 630.478 232.478 630.828 235.371 631.169 238.264 631.469 241.157 631.735 244.05 631.976 246.943 632.184 249.836 632.384 252.729 632.551 255.622 632.692 258.51 632.809 261.403 632.9 264.296 632.958 267.189 632.992 270.082 633 272.975 632.983 275.868 632.934 278.761 632.875 281.654 632.809 284.547 632.734 287.434 632.634 290.327 632.526 293.22 632.409 296.113 632.276 299.006 632.134 301.899 631.985 307.685 631.668 310.578 631.493 313.466 631.31 316.359 631.119 322.145 630.686 327.931 630.22 330.824 629.97 333.717 629.712 339.503 629.18 342.39 628.913 348.176 628.364 351.069 628.081 353.962 627.781 356.855 627.465 359.748 627.132 362.641 626.782 365.534 626.416 368.422 626.017 371.315 625.6 374.208 625.151 377.101 624.685 379.994 624.194 382.887 623.678 385.78 623.128 388.673 622.546 391.566 621.955 394.453 621.339 397.346 620.731 400.239 620.082 403.132 619.416 406.025 618.692 408.918 617.951 411.811 617.144 414.704 616.328 417.597 615.462 420.49 614.563 423.378 613.581 426.271 612.566 429.164 611.492 432.057 610.368 434.95 609.195 437.843 607.963 440.736 606.656 443.629 605.299 446.522 603.918 449.409 602.494 452.302 601.021 455.195 599.448 458.088 597.766 460.981 596.01 463.874 594.171 466.767 592.248 469.66 590.15 472.553 587.961 475.446 585.714 478.334 583.517 481.227 581.319 484.12 579.105 487.013 576.666 489.906 574.186 492.799 571.572 495.692 568.784 498.585 565.954 501.478 562.999 504.365 559.986 507.258 556.923 510.151 553.793 513.044 550.472 515.937 547.06 518.83 543.605 521.723 539.868 524.616 536.006 527.509 531.886 530.396 527.757 533.29 523.67 536.182 519.725 539.076 515.929 541.969 511.759 544.862 507.506 547.755 503.436 550.648 499.107 553.541 494.388 556.434 489.336 559.321 484.25 562.214 479.231 565.107 474.711 568 470.441" stroke="#0570B0" stroke-width="4.26793" stroke-linejoin="round" stroke-miterlimit="10" fill="none" fill-rule="evenodd"/><path d="M88.5001 678.5 88.5001 459.5" stroke="#4B5E68" stroke-linecap="square" stroke-linejoin="round" stroke-miterlimit="10" fill="none" fill-rule="evenodd"/><path d="M96.5001 634.5 88.5001 634.5" stroke="#333333" stroke-linejoin="round" stroke-miterlimit="10" fill="none" fill-rule="evenodd"/><path d="M96.5001 584.5 88.5001 584.5" stroke="#333333" stroke-linejoin="round" stroke-miterlimit="10" fill="none" fill-rule="evenodd"/><path d="M96.5001 534.5 88.5001 534.5" stroke="#333333" stroke-linejoin="round" stroke-miterlimit="10" fill="none" fill-rule="evenodd"/><path d="M96.5001 484.5 88.5001 484.5" stroke="#333333" stroke-linejoin="round" stroke-miterlimit="10" fill="none" fill-rule="evenodd"/><path d="M96.5001 676.5 88.5001 676.5" stroke="#333333" stroke-linejoin="round" stroke-miterlimit="10" fill="none" fill-rule="evenodd"/><text fill="#4B5E68" font-family="Arial,Arial_MSFontService,sans-serif" font-weight="400" font-size="19" transform="translate(136.177 478)">Newly infected people, I</text><text fill="#4B5E68" font-family="Arial,Arial_MSFontService,sans-serif" font-weight="400" font-size="12" transform="translate(333.843 482)">new</text><text fill="#4B5E68" font-family="Arial,Arial_MSFontService,sans-serif" font-weight="400" font-size="19" transform="translate(356.843 478)">(t)</text><path d="M88.5001 559.5 590.904 559.5" stroke="#D23369" stroke-width="3" stroke-miterlimit="8" stroke-dasharray="12 9" fill="none" fill-rule="evenodd"/><text fill="#4B5E68" font-family="Arial,Arial_MSFontService,sans-serif" font-weight="400" font-size="21" transform="translate(346.355 541)">Epidemic onset</text><text fill="#4B5E68" font-family="Arial,Arial_MSFontService,sans-serif" font-weight="400" font-size="21" transform="translate(171.496 588)">Baseline</text><text fill="#4B5E68" font-family="Arial,Arial_MSFontService,sans-serif" font-weight="400" font-size="14" transform="translate(252.996 592)">1</text><path d="M505 545.889 511.548 533 510.902 544.833 518.335 542.904 515.383 549.256 523.115 551.082 516.975 556.278 524 562.533 515.621 561.76 517.922 573.211 510.665 565.127 509.305 576.86 504.529 566.189 500.927 581 499.573 567.727 494.378 572.149 495.97 563.971 486.237 565.416 492.548 559.167 486 552.144 494.14 549.927 486.651 538.1 498.864 547.044 500.693 538.1Z" fill="#A0234E" fill-rule="evenodd"/><text fill="#4B5E68" font-family="Arial,Arial_MSFontService,sans-serif" font-weight="400" font-size="19" transform="translate(655.781 505)">180</text><text fill="#4B5E68" font-family="Arial,Arial_MSFontService,sans-serif" font-weight="400" font-size="19" transform="translate(655.781 553)">120</text><text fill="#4B5E68" font-family="Arial,Arial_MSFontService,sans-serif" font-weight="400" font-size="19" transform="translate(666.115 603)">60</text><text fill="#4B5E68" font-family="Arial,Arial_MSFontService,sans-serif" font-weight="400" font-size="19" transform="translate(676.448 647)">0</text><path d="M703.5 606.5 1222.5 606.5" stroke="#EBEBEB" stroke-width="0.711286" stroke-linejoin="round" stroke-miterlimit="10" fill="none" fill-rule="evenodd"/><path d="M703.5 556.5 1222.5 556.5" stroke="#EBEBEB" stroke-width="0.711286" stroke-linejoin="round" stroke-miterlimit="10" fill="none" fill-rule="evenodd"/><path d="M703.5 505.5 1222.5 505.5" stroke="#EBEBEB" stroke-width="0.711286" stroke-linejoin="round" stroke-miterlimit="10" fill="none" fill-rule="evenodd"/><path d="M703.5 455.5 1222.5 455.5" stroke="#EBEBEB" stroke-width="0.711286" stroke-linejoin="round" stroke-miterlimit="10" fill="none" fill-rule="evenodd"/><path d="M703.5 631.5 1222.5 631.5" stroke="#EBEBEB" stroke-width="1.42268" stroke-linejoin="round" stroke-miterlimit="10" fill="none" fill-rule="evenodd"/><path d="M703.5 581.5 1222.5 581.5" stroke="#EBEBEB" stroke-width="1.42268" stroke-linejoin="round" stroke-miterlimit="10" fill="none" fill-rule="evenodd"/><path d="M703.5 531.5 1222.5 531.5" stroke="#EBEBEB" stroke-width="1.42268" stroke-linejoin="round" stroke-miterlimit="10" fill="none" fill-rule="evenodd"/><path d="M703.5 480.5 1222.5 480.5" stroke="#EBEBEB" stroke-width="1.42268" stroke-linejoin="round" stroke-miterlimit="10" fill="none" fill-rule="evenodd"/><path d="M702.5 673.5 1221.5 673.5" stroke="#4B5E68" stroke-width="1.42362" stroke-linejoin="round" stroke-miterlimit="10" fill="none" fill-rule="evenodd"/><path d="M821.5 639.5 821.5 455.5" stroke="#EBEBEB" stroke-width="0.711286" stroke-linejoin="round" stroke-miterlimit="10" fill="none" fill-rule="evenodd"/><path d="M970.5 639.5 970.5 455.5" stroke="#EBEBEB" stroke-width="0.711286" stroke-linejoin="round" stroke-miterlimit="10" fill="none" fill-rule="evenodd"/><path d="M1118.5 639.5 1118.5 455.5" stroke="#EBEBEB" stroke-width="0.711286" stroke-linejoin="round" stroke-miterlimit="10" fill="none" fill-rule="evenodd"/><path d="M747.5 639.5 747.5 455.5" stroke="#EBEBEB" stroke-width="1.42268" stroke-linejoin="round" stroke-miterlimit="10" fill="none" fill-rule="evenodd"/><path d="M895.5 639.5 895.5 455.5" stroke="#EBEBEB" stroke-width="1.42268" stroke-linejoin="round" stroke-miterlimit="10" fill="none" fill-rule="evenodd"/><path d="M1044.5 639.5 1044.5 455.5" stroke="#EBEBEB" stroke-width="1.42268" stroke-linejoin="round" stroke-miterlimit="10" fill="none" fill-rule="evenodd"/><path d="M1192.5 639.5 1192.5 455.5" stroke="#EBEBEB" stroke-width="1.42268" stroke-linejoin="round" stroke-miterlimit="10" fill="none" fill-rule="evenodd"/><path d="M732 478.842 734.974 492.28 737.943 504.311 740.918 515.249 743.892 525.027 746.867 533.879 749.841 541.629 752.816 549.163 755.79 556.201 758.765 562.867 761.739 569.093 764.714 574.806 767.682 579.716 770.657 584.237 773.631 587.814 776.606 591.432 779.58 594.794 782.555 598.023 785.529 601.087 788.504 603.943 791.478 606.353 794.447 608.481 797.422 610.426 800.396 612.19 803.37 613.813 806.345 615.411 809.32 616.827 812.294 618.036 815.269 619.178 818.243 620.097 821.212 620.917 824.186 621.745 827.161 622.532 830.135 623.227 833.11 623.873 836.084 624.502 839.059 624.999 842.033 625.421 845.008 625.769 847.982 626.092 850.951 626.365 853.925 626.705 856.9 627.028 859.875 627.317 862.849 627.599 865.824 627.839 868.798 628.063 871.773 628.261 874.747 628.419 877.716 628.543 880.69 628.626 883.665 628.684 889.614 628.733 892.588 628.717 895.563 628.675 898.537 628.617 901.512 628.551 904.486 628.46 907.455 628.361 910.429 628.237 913.404 628.104 919.353 627.806 922.328 627.624 925.302 627.466 928.277 627.293 931.251 627.127 934.22 626.928 937.194 626.746 940.169 626.539 946.118 626.158 949.092 625.951 952.067 625.728 955.041 625.479 958.016 625.223 960.99 624.949 963.959 624.635 966.933 624.32 969.908 624.039 972.882 623.749 975.857 623.434 978.831 623.111 987.755 622.018 990.724 621.538 993.698 621.074 996.673 620.594 1002.62 619.534 1005.6 618.955 1008.57 618.359 1011.55 617.671 1014.52 616.992 1017.49 616.28 1020.46 615.61 1023.44 614.906 1026.41 614.227 1029.39 613.432 1032.36 612.596 1035.34 611.519 1038.31 610.832 1041.28 609.855 1044.26 608.928 1047.23 607.785 1050.2 606.717 1053.18 605.5 1056.15 604.233 1059.13 602.95 1062.1 601.617 1065.07 600.118 1068.05 598.644 1071.02 597.112 1073.99 595.473 1076.97 593.941 1079.94 592.219 1082.92 590.513 1085.89 588.543 1088.86 586.589 1091.84 584.187 1094.81 581.919 1097.79 579.418 1100.76 576.851 1103.73 574.359 1106.71 572.115 1109.68 570.045 1112.66 567.238 1115.63 564.39 1118.6 561.608 1121.58 558.346 1124.55 555.026 1127.53 552.111 1130.5 548.898 1133.47 545.396 1136.45 542.2 1139.42 538.342 1142.39 534.674 1145.37 531.229 1148.34 526.899 1151.32 522.717 1154.29 517.94 1157.26 513.171 1160.24 508.31 1163.21 503.881 1166.18 500.006 1169.16 495.965 1172.13 491.163 1175.11 487.569 1178.08 483.148 1181.06 477.733 1184.03 471.589 1187 466 1187 495.394 1184.03 499.972 1181.06 504.916 1178.08 508.907 1175.11 512.608 1172.13 515.986 1169.16 520.035 1166.18 523.777 1163.21 527.023 1160.24 530.567 1157.26 534.251 1154.29 538.151 1151.32 541.968 1148.34 545.851 1145.37 549.155 1142.39 552.078 1139.42 555.365 1136.45 558.28 1133.47 561.235 1130.5 563.993 1127.53 566.717 1124.55 569.457 1121.58 571.884 1118.6 574.318 1115.63 576.512 1112.66 578.714 1109.68 581.041 1106.71 582.871 1103.73 584.99 1100.76 586.978 1097.79 589.015 1094.81 591.118 1091.84 592.948 1088.86 594.695 1085.89 596.409 1082.92 597.949 1079.94 599.538 1076.97 600.847 1073.99 602.138 1071.02 603.38 1068.05 604.631 1065.07 605.815 1062.1 607.007 1059.13 608.158 1056.15 609.226 1053.18 610.203 1050.2 611.254 1047.23 612.215 1044.26 613.084 1041.28 613.863 1038.31 614.658 1035.34 615.378 1032.36 616.082 1029.39 616.727 1026.41 617.398 1023.44 617.994 1020.46 618.532 1017.49 619.062 1014.52 619.625 1011.55 620.097 1008.57 620.636 1005.6 621.124 1002.62 621.596 999.647 622.051 996.673 622.499 993.698 622.888 990.724 623.26 987.755 623.65 981.806 624.312 978.831 624.593 975.857 624.883 972.882 625.123 969.908 625.396 966.933 625.645 963.959 625.877 960.99 626.133 958.016 626.398 955.041 626.688 952.067 626.953 949.092 627.226 946.118 627.491 943.143 627.74 940.169 627.972 937.194 628.17 934.22 628.361 931.251 628.543 928.277 628.708 925.302 628.849 922.328 628.982 916.378 629.23 910.429 629.445 907.455 629.578 904.486 629.669 901.512 629.735 898.537 629.843 895.563 629.934 892.588 630 889.614 629.992 886.639 629.967 883.665 629.934 880.69 629.868 877.716 629.81 874.747 629.719 868.798 629.421 865.824 629.222 862.849 629.031 859.875 628.808 856.9 628.559 853.925 628.253 850.951 627.93 847.982 627.558 845.008 627.185 842.033 626.787 839.059 626.365 836.084 625.91 833.11 625.396 830.135 624.9 827.161 624.304 824.186 623.666 821.212 623.012 818.243 622.391 815.269 621.704 812.294 620.859 809.32 619.849 806.345 618.764 803.37 617.473 800.396 616.222 797.422 614.898 794.447 613.374 791.478 611.892 788.504 609.938 785.529 607.711 782.555 605.285 779.58 602.453 776.606 599.977 773.631 597.096 770.657 594.206 767.682 590.588 764.714 586.556 761.739 582.084 758.765 577.075 755.79 571.759 752.816 566.237 749.841 560.143 746.867 554.405 743.892 547.118 740.918 540.006 737.943 530.89 734.974 520.888 732 510.057Z" fill="#74A9CF" fill-rule="evenodd" fill-opacity="0.501961"/><path d="M726 467 728.969 481.325 731.938 494.576 734.907 506.737 737.87 517.774 740.839 527.612 743.808 536.31 746.777 544.384 749.746 551.534 752.715 558.376 755.684 564.727 758.653 570.686 761.622 576.18 764.591 581.199 767.554 585.644 770.523 589.589 773.492 593.093 776.461 596.348 779.43 599.328 782.399 602.224 785.368 604.971 788.337 607.385 791.306 609.516 794.269 611.43 797.238 613.178 800.207 614.785 803.176 616.25 806.145 617.64 809.114 618.855 812.083 619.954 815.052 620.936 818.021 621.793 820.984 622.584 823.953 623.316 826.922 624.015 829.891 624.656 832.86 625.247 835.829 625.797 838.798 626.279 841.767 626.712 844.736 627.112 847.705 627.478 850.668 627.828 853.637 628.169 856.606 628.469 859.575 628.735 862.544 628.976 865.513 629.184 868.482 629.384 871.451 629.551 874.42 629.692 877.383 629.809 880.352 629.9 883.321 629.958 886.29 629.992 889.259 630 892.228 629.983 895.197 629.934 898.166 629.875 901.135 629.809 904.104 629.734 907.067 629.634 910.036 629.526 913.005 629.409 915.974 629.276 918.943 629.134 921.912 628.985 927.85 628.668 930.819 628.493 933.782 628.31 936.751 628.119 942.689 627.686 948.627 627.22 951.596 626.97 954.565 626.712 960.503 626.18 963.466 625.913 969.404 625.364 972.373 625.081 975.342 624.781 978.311 624.465 981.28 624.132 984.249 623.782 987.218 623.416 990.181 623.017 993.15 622.6 996.119 622.151 999.088 621.685 1002.06 621.194 1005.03 620.678 1008 620.128 1010.96 619.546 1013.93 618.955 1016.9 618.339 1019.87 617.731 1022.83 617.082 1025.8 616.416 1028.77 615.692 1031.74 614.951 1034.71 614.144 1037.68 613.328 1040.65 612.462 1043.62 611.563 1046.58 610.581 1049.55 609.566 1052.52 608.492 1055.49 607.368 1058.46 606.195 1061.43 604.963 1064.39 603.656 1067.36 602.299 1070.33 600.918 1073.3 599.494 1076.26 598.021 1079.23 596.448 1082.2 594.766 1085.17 593.01 1088.14 591.171 1091.11 589.248 1094.08 587.15 1097.05 584.961 1100.02 582.714 1102.98 580.517 1105.95 578.319 1108.92 576.105 1111.89 573.666 1114.86 571.186 1117.82 568.572 1120.79 565.784 1123.76 562.954 1126.73 559.999 1129.69 556.986 1132.66 553.923 1135.63 550.793 1138.6 547.472 1141.57 544.06 1144.54 540.605 1147.51 536.868 1150.48 533.006 1153.45 528.886 1156.41 524.757 1159.38 520.67 1162.35 516.725 1165.32 512.929 1168.29 508.759 1171.25 504.506 1174.22 500.436 1177.19 496.107 1180.16 491.388 1183.13 486.336 1186.09 481.25 1189.06 476.231 1192.03 471.711 1195 467.441" stroke="#0570B0" stroke-width="4.26793" stroke-linejoin="round" stroke-miterlimit="10" fill="none" fill-rule="evenodd"/><path d="M703.5 675.5 703.5 455.5" stroke="#4B5E68" stroke-linecap="square" stroke-linejoin="round" stroke-miterlimit="10" fill="none" fill-rule="evenodd"/><path d="M711.5 631.5 703.5 631.5" stroke="#333333" stroke-linejoin="round" stroke-miterlimit="10" fill="none" fill-rule="evenodd"/><path d="M711.5 581.5 703.5 581.5" stroke="#333333" stroke-linejoin="round" stroke-miterlimit="10" fill="none" fill-rule="evenodd"/><path d="M711.5 531.5 703.5 531.5" stroke="#333333" stroke-linejoin="round" stroke-miterlimit="10" fill="none" fill-rule="evenodd"/><path d="M711.5 480.5 703.5 480.5" stroke="#333333" stroke-linejoin="round" stroke-miterlimit="10" fill="none" fill-rule="evenodd"/><path d="M711.5 673.5 702.5 673.5" stroke="#333333" stroke-linejoin="round" stroke-miterlimit="10" fill="none" fill-rule="evenodd"/><text fill="#4B5E68" font-family="Arial,Arial_MSFontService,sans-serif" font-weight="400" font-size="19" transform="translate(754.331 478)">Newly infected people, I</text><text fill="#4B5E68" font-family="Arial,Arial_MSFontService,sans-serif" font-weight="400" font-size="12" transform="translate(951.997 482)">new</text><text fill="#4B5E68" font-family="Arial,Arial_MSFontService,sans-serif" font-weight="400" font-size="19" transform="translate(974.997 478)">(t)</text><path d="M702.5 556.5 1217.96 556.5" stroke="#7F7F7F" stroke-width="3" stroke-miterlimit="8" stroke-dasharray="12 9" fill="none" fill-rule="evenodd"/><path d="M1160.71 438.169 1084.73 528.551" stroke="#A0234E" stroke-width="3" stroke-miterlimit="8" fill="none" fill-rule="evenodd"/><path d="M1189.69 462.533 1159.5 437.148" stroke="#A0234E" stroke-width="3" stroke-miterlimit="8" fill="none" fill-rule="evenodd"/><path d="M1115.36 553.424 1085.16 528.039" stroke="#A0234E" stroke-width="3" stroke-miterlimit="8" fill="none" fill-rule="evenodd"/><text fill="#4B5E68" font-family="Wingdings,Wingdings_MSFontService,sans-serif" font-weight="400" font-size="24" transform="translate(676.463 208)"></text><text fill="#4B5E68" font-family="Arial,Arial_MSFontService,sans-serif" font-weight="400" font-size="24" transform="translate(706.463 208)">D</text><text fill="#4B5E68" font-family="Arial,Arial_MSFontService,sans-serif" font-weight="400" font-size="24" transform="translate(723.797 208)">efinition in this study</text><text fill="#4B5E68" font-family="Arial,Arial_MSFontService,sans-serif" font-weight="400" font-size="24" transform="translate(689.35 252)">Disease</text><text fill="#4B5E68" font-family="Arial,Arial_MSFontService,sans-serif" font-weight="400" font-size="24" transform="translate(782.683 252)">occurrence over a specified period will</text><text fill="#4B5E68" font-family="Arial,Arial_MSFontService,sans-serif" font-weight="400" font-size="24" transform="translate(689.35 281)">surpass a</text><text fill="#4B5E68" font-family="Arial,Arial_MSFontService,sans-serif" font-weight="400" font-size="24" transform="translate(800.017 281)">predefined</text><text fill="#4B5E68" font-family="Arial,Arial_MSFontService,sans-serif" font-weight="400" font-size="24" transform="translate(920.017 281)">baseline (</text><text fill="#4B5E68" font-family="Arial,Arial_MSFontService,sans-serif" font-weight="700" font-size="24" transform="translate(1024.02 281)">Forward</text><text fill="#4B5E68" font-family="Arial,Arial_MSFontService,sans-serif" font-weight="700" font-size="24" transform="translate(1118.68 281)">-</text><text fill="#4B5E68" font-family="Arial,Arial_MSFontService,sans-serif" font-weight="700" font-size="24" transform="translate(1126.68 281)">looking</text><text fill="#4B5E68" font-family="Arial,Arial_MSFontService,sans-serif" font-weight="400" font-size="24" transform="translate(1212.02 281)">)</text><text fill="#4B5E68" font-family="Cambria Math,Cambria Math_MSFontService,sans-serif" font-weight="400" font-size="24" transform="translate(197.176 338)">𝑰</text><text fill="#4B5E68" font-family="Cambria Math,Cambria Math_MSFontService,sans-serif" font-weight="400" font-size="18" transform="translate(207.676 343)">𝒏𝒆𝒘</text><path d="M264.224 320.399C266.505 321 268.257 322.299 269.48 324.295 270.703 326.291 271.314 328.699 271.314 331.52 271.314 334.348 270.705 336.756 269.486 338.744 268.267 340.733 266.513 342.027 264.224 342.629L263.943 341.727C265.748 341.125 267.089 339.938 267.968 338.164 268.847 336.391 269.287 334.137 269.287 331.402 269.287 328.762 268.849 326.568 267.974 324.822 267.099 323.076 265.744 321.902 263.908 321.301ZM252.702 320.399 253.018 321.301C251.19 321.902 249.836 323.076 248.958 324.822 248.079 326.568 247.639 328.762 247.639 331.402 247.639 334.137 248.079 336.391 248.958 338.164 249.836 339.938 251.178 341.125 252.983 341.727L252.702 342.629C250.413 342.027 248.659 340.733 247.44 338.744 246.221 336.756 245.612 334.348 245.612 331.52 245.612 328.699 246.223 326.291 247.446 324.295 248.668 322.299 250.42 321 252.702 320.399Z" fill="#4B5E68" fill-rule="evenodd"/><text fill="#4B5E68" font-family="Cambria Math,Cambria Math_MSFontService,sans-serif" font-weight="400" font-size="24" transform="translate(253.462 338)">𝒕</text><text fill="#4B5E68" font-family="Cambria Math,Cambria Math_MSFontService,sans-serif" font-weight="400" font-size="24" transform="translate(280.089 338)">&gt;</text><text fill="#4B5E68" font-family="Cambria Math,Cambria Math_MSFontService,sans-serif" font-weight="400" font-size="24" transform="translate(304.756 338)">𝑩𝒂𝒔𝒆𝒍𝒊𝒏𝒆</text><text fill="#4B5E68" font-family="Cambria Math,Cambria Math_MSFontService,sans-serif" font-weight="400" font-size="18" transform="translate(408.422 343)">𝟏</text><path d="M814.249 307.766 842.55 307.766 842.55 314.704 841.003 314.704C840.824 313.04 840.46 311.723 839.913 310.755 839.367 309.786 838.538 309.302 837.429 309.302L818.937 309.302 832.917 328.286 832.917 329.704 817.824 350.188 838.156 350.188C839.054 350.188 839.742 349.872 840.218 349.239 840.695 348.606 841.105 347.192 841.449 344.997L843.183 344.997 842.585 353.587 813.769 353.587 813.769 352.427 830.187 330.173 814.249 308.88Z" fill="#4B5E68" fill-rule="evenodd"/><text fill="#000000" fill-opacity="0" font-family="Arial,Arial_MSFontService,sans-serif" font-size="45.8203" x="813.769" y="347.859">෍</text><path d="M853.348 321.529 859.243 321.529 859.079 322.303C858.633 322.428 858.305 322.646 858.094 322.959 857.883 323.271 857.684 323.85 857.497 324.693L855.364 334.361C855.309 334.611 855.27 334.828 855.247 335.012 855.223 335.195 855.211 335.436 855.211 335.732 855.211 336.061 855.288 336.301 855.44 336.453 855.592 336.605 855.84 336.705 856.184 336.752L856.02 337.525 850.126 337.525 850.29 336.752C850.735 336.627 851.063 336.408 851.274 336.096 851.485 335.783 851.684 335.205 851.872 334.361L854.004 324.693C854.106 324.232 854.157 323.775 854.157 323.322 854.157 322.994 854.081 322.754 853.928 322.602 853.776 322.449 853.528 322.35 853.184 322.303Z" fill="#4B5E68" fill-rule="evenodd"/><text fill="#000000" fill-opacity="0" font-family="Arial,Arial_MSFontService,sans-serif" font-size="15.9961" x="850.126" y="335.526">𝑰</text><path d="M877.101 334.48C876.556 334.48 876.065 334.75 875.629 335.289 875.192 335.828 874.834 336.613 874.552 337.644 875.63 337.615 876.455 337.408 877.026 337.024 877.598 336.641 877.883 336.097 877.883 335.394 877.883 335.095 877.815 334.868 877.677 334.713 877.539 334.558 877.347 334.48 877.101 334.48ZM881.573 333.707 884.64 333.707 885.124 340.087C886.003 338.728 886.616 337.646 886.965 336.84 887.314 336.034 887.532 335.183 887.62 334.287L887.743 333.707 889.72 333.707 890.265 340.096C891.115 338.813 891.732 337.77 892.115 336.967 892.499 336.165 892.691 335.503 892.691 334.981 892.691 334.758 892.638 334.59 892.533 334.476 892.427 334.361 892.243 334.298 891.979 334.287L892.102 333.707 894.581 333.707 894.888 334.287C894.613 335.078 894.011 336.231 893.082 337.745 892.153 339.26 891.05 340.864 889.773 342.557L888.288 342.557 888.015 339.956C887.939 339.253 887.889 338.722 887.866 338.365 887.842 338.007 887.831 337.723 887.831 337.512L887.743 337.512C887.01 339.036 885.982 340.717 884.658 342.557L883.058 342.557 882.364 335.798C882.323 335.388 882.272 335.085 882.21 334.889 882.148 334.692 882.061 334.547 881.946 334.454 881.832 334.36 881.664 334.304 881.441 334.287ZM877.321 333.566C879.114 333.566 880.01 334.213 880.01 335.508 880.01 335.954 879.921 336.346 879.742 336.686 879.564 337.026 879.266 337.334 878.85 337.609 878.434 337.884 877.847 338.107 877.088 338.277 876.329 338.447 875.414 338.544 874.341 338.567 874.265 338.913 874.227 339.27 874.227 339.639 874.227 340.184 874.341 340.594 874.57 340.87 874.798 341.145 875.144 341.283 875.607 341.283 876.123 341.283 876.588 341.179 877.004 340.971 877.42 340.763 877.91 340.392 878.472 339.859L879.211 340.597C878.619 341.265 877.982 341.76 877.299 342.083 876.616 342.405 875.877 342.566 875.08 342.566 874.394 342.566 873.811 342.446 873.331 342.206 872.85 341.965 872.488 341.609 872.245 341.138 872.002 340.666 871.88 340.102 871.88 339.446 871.88 339.141 871.921 338.752 872.003 338.277 872.115 337.632 872.285 337.058 872.513 336.554 872.8 335.933 873.175 335.4 873.638 334.955 874.101 334.509 874.645 334.167 875.269 333.926 875.893 333.686 876.577 333.566 877.321 333.566ZM863.166 333.566C863.652 333.566 864.04 333.702 864.33 333.975 864.62 334.247 864.765 334.606 864.765 335.051 864.765 335.198 864.748 335.338 864.712 335.473L864.8 335.544C865.351 334.858 865.874 334.357 866.369 334.041 866.864 333.724 867.443 333.566 868.105 333.566 868.709 333.566 869.182 333.736 869.524 334.076 869.867 334.416 870.039 334.878 870.039 335.464 870.039 335.652 870.02 335.886 869.982 336.168 869.943 336.449 869.898 336.698 869.845 336.915L869.151 339.657C869.051 340.049 869.002 340.392 869.002 340.685 869.002 340.914 869.04 341.072 869.116 341.16 869.192 341.248 869.3 341.292 869.441 341.292 869.611 341.292 869.801 341.211 870.012 341.05 870.223 340.889 870.472 340.644 870.759 340.316L871.392 340.949C870.818 341.535 870.304 341.951 869.85 342.197 869.396 342.443 868.896 342.566 868.351 342.566 867.73 342.566 867.276 342.412 866.989 342.105 866.702 341.797 866.558 341.344 866.558 340.747 866.558 340.319 866.643 339.771 866.813 339.103L867.2 337.644C867.299 337.269 867.384 336.898 867.455 336.532 867.525 336.166 867.56 335.866 867.56 335.631 867.56 335.368 867.504 335.171 867.393 335.043 867.282 334.914 867.124 334.849 866.919 334.849 866.631 334.849 866.303 335.019 865.934 335.359 865.565 335.699 865.269 336.058 865.046 336.436 864.824 336.814 864.648 337.307 864.519 337.917L863.535 342.425 861.012 342.425 862.427 336.317C862.515 335.936 862.559 335.646 862.559 335.447 862.559 335.253 862.527 335.104 862.462 334.999 862.398 334.893 862.287 334.84 862.128 334.84 861.947 334.84 861.751 334.922 861.54 335.086 861.329 335.251 861.083 335.494 860.801 335.816L860.169 335.183C860.754 334.586 861.274 334.167 861.729 333.926 862.183 333.686 862.662 333.566 863.166 333.566Z" fill="#4B5E68" fill-rule="evenodd"/><text fill="#000000" fill-opacity="0" font-family="Arial,Arial_MSFontService,sans-serif" font-size="9" x="860.169" y="341.441">𝒏𝒆𝒘</text><path d="M904.983 320.592 905.3 321.494C903.472 322.096 902.118 323.27 901.239 325.016 900.36 326.762 899.921 328.955 899.921 331.596 899.921 334.33 900.36 336.584 901.239 338.357 902.118 340.131 903.46 341.318 905.265 341.92L904.983 342.822C902.694 342.221 900.94 340.926 899.722 338.937 898.503 336.949 897.894 334.541 897.894 331.713 897.894 328.893 898.505 326.484 899.728 324.488 900.95 322.492 902.702 321.193 904.983 320.592Z" fill="#4B5E68" fill-rule="evenodd"/><text fill="#000000" fill-opacity="0" font-family="Arial,Arial_MSFontService,sans-serif" font-size="22.2305" x="897.894" y="340.043">(</text><path d="M910.519 322.971 913.331 322.971 912.651 325.9 915.499 325.9 915.183 327.365 912.312 327.365 911.175 332.053C910.98 332.857 910.845 333.469 910.771 333.887 910.696 334.305 910.659 334.658 910.659 334.947 910.659 335.314 910.726 335.582 910.858 335.75 910.991 335.918 911.187 336.002 911.444 336.002 911.796 336.002 912.157 335.877 912.528 335.627 912.899 335.377 913.3 334.99 913.73 334.467L914.632 335.393C913.843 336.26 913.118 336.863 912.458 337.203 911.798 337.543 911.019 337.713 910.12 337.713 909.23 337.713 908.546 337.484 908.069 337.027 907.593 336.57 907.355 335.939 907.355 335.135 907.355 334.768 907.382 334.418 907.437 334.086 907.491 333.754 907.605 333.209 907.776 332.451L908.983 327.365 907.155 327.365 907.378 326.416C907.925 326.416 908.339 326.365 908.62 326.264 908.901 326.162 909.138 326.01 909.329 325.807 909.521 325.603 909.706 325.295 909.886 324.881 910.065 324.467 910.276 323.83 910.519 322.971Z" fill="#4B5E68" fill-rule="evenodd"/><text fill="#000000" fill-opacity="0" font-family="Arial,Arial_MSFontService,sans-serif" font-size="14.7422" x="907.155" y="335.87">𝒕</text><path d="M929.25 323.135 930.914 323.135 930.914 329.885 937.301 329.885 937.301 331.443 930.914 331.443 930.914 338.193 929.25 338.193 929.25 331.443 922.864 331.443 922.864 329.885 929.25 329.885Z" fill="#4B5E68" fill-rule="evenodd"/><text fill="#000000" fill-opacity="0" font-family="Arial,Arial_MSFontService,sans-serif" font-size="15.0586" x="922.864" y="336.311">+</text><path d="M949.502 325.9 956.51 325.9 956.006 328.08 952.373 328.08 951.06 333.682C950.912 334.314 950.838 334.822 950.838 335.205 950.838 335.51 950.888 335.721 950.99 335.838 951.092 335.955 951.236 336.014 951.424 336.014 951.689 336.014 951.97 335.898 952.267 335.668 952.564 335.437 952.947 335.049 953.416 334.502L954.26 335.346C953.595 336.127 952.924 336.717 952.244 337.115 951.564 337.514 950.822 337.713 950.017 337.713 949.213 337.713 948.623 337.51 948.248 337.103 947.873 336.697 947.685 336.084 947.685 335.264 947.685 334.803 947.771 334.189 947.943 333.424L948.025 333.072C948.189 332.377 948.406 331.553 948.676 330.6 948.945 329.646 949.201 328.838 949.443 328.174L949.385 328.08 948.552 328.08C948.146 328.08 947.812 328.115 947.551 328.186 947.289 328.256 947.033 328.377 946.783 328.549 946.533 328.721 946.22 329.006 945.845 329.404L944.861 328.525C945.51 327.744 946.043 327.178 946.461 326.826 946.879 326.475 947.306 326.232 947.744 326.1 948.181 325.967 948.767 325.9 949.502 325.9Z" fill="#4B5E68" fill-rule="evenodd"/><text fill="#000000" fill-opacity="0" font-family="Arial,Arial_MSFontService,sans-serif" font-size="11.8125" x="944.861" y="336.236">𝝉</text><path d="M957.379 320.592C959.661 321.193 961.413 322.492 962.635 324.488 963.858 326.484 964.469 328.893 964.469 331.713 964.469 334.541 963.86 336.949 962.641 338.937 961.422 340.926 959.668 342.221 957.379 342.822L957.098 341.92C958.903 341.318 960.245 340.131 961.123 338.357 962.002 336.584 962.442 334.33 962.442 331.596 962.442 328.955 962.004 326.762 961.129 325.016 960.254 323.27 958.899 322.096 957.063 321.494Z" fill="#4B5E68" fill-rule="evenodd"/><text fill="#000000" fill-opacity="0" font-family="Arial,Arial_MSFontService,sans-serif" font-size="22.2305" x="957.063" y="340.043">)</text><path d="M830.05 294.63C829.276 295.122 828.674 295.789 828.244 296.63 827.813 297.47 827.598 298.36 827.598 299.297 827.598 299.912 827.703 300.371 827.914 300.673 828.125 300.974 828.45 301.125 828.89 301.125 829.265 301.125 829.618 300.979 829.949 300.686 830.28 300.393 830.544 299.978 830.74 299.442 830.936 298.906 831.034 298.301 831.034 297.627 831.034 297.012 830.951 296.448 830.784 295.935 830.617 295.423 830.372 294.988 830.05 294.63ZM830.815 289.278C832.045 289.278 833.305 289.667 834.594 290.447L834.207 292.09 833.012 292.09C832.772 291.451 832.473 290.975 832.115 290.662 831.758 290.348 831.348 290.192 830.885 290.192 830.592 290.192 830.359 290.262 830.186 290.403 830.013 290.543 829.927 290.74 829.927 290.991 829.927 291.191 829.971 291.388 830.059 291.585 830.147 291.781 830.292 292.007 830.494 292.261 830.696 292.516 831.052 292.916 831.562 293.461 832.036 293.971 832.41 294.422 832.682 294.815 832.955 295.207 833.166 295.628 833.315 296.076 833.464 296.524 833.539 297.015 833.539 297.548 833.539 298.398 833.331 299.17 832.915 299.864 832.499 300.558 831.922 301.094 831.184 301.472 830.445 301.85 829.622 302.039 828.714 302.039 827.987 302.039 827.357 301.913 826.824 301.661 826.291 301.409 825.881 301.042 825.594 300.558 825.307 300.075 825.163 299.502 825.163 298.84 825.163 297.815 825.521 296.855 826.235 295.962 826.95 295.068 827.955 294.355 829.25 293.822 828.793 293.323 828.465 292.899 828.266 292.547 828.066 292.196 827.967 291.794 827.967 291.343 827.967 290.945 828.086 290.589 828.323 290.275 828.56 289.962 828.896 289.717 829.329 289.541 829.763 289.365 830.258 289.278 830.815 289.278Z" fill="#4B5E68" fill-rule="evenodd"/><text fill="#000000" fill-opacity="0" font-family="Arial,Arial_MSFontService,sans-serif" font-size="12.7617" x="825.163" y="300.444">𝜹</text><path d="M817.079 359.4 822.335 359.4 821.957 361.035 819.232 361.035 818.248 365.236C818.137 365.71 818.081 366.091 818.081 366.378 818.081 366.607 818.119 366.765 818.195 366.853 818.271 366.941 818.38 366.985 818.52 366.985 818.72 366.985 818.931 366.898 819.153 366.726 819.376 366.553 819.663 366.261 820.015 365.851L820.647 366.484C820.149 367.07 819.645 367.512 819.136 367.811 818.626 368.11 818.069 368.259 817.466 368.259 816.862 368.259 816.42 368.107 816.139 367.802 815.857 367.498 815.717 367.038 815.717 366.422 815.717 366.077 815.781 365.617 815.91 365.043L815.972 364.779C816.095 364.257 816.257 363.639 816.459 362.924 816.661 362.21 816.853 361.603 817.035 361.105L816.991 361.035 816.367 361.035C816.062 361.035 815.812 361.061 815.616 361.114 815.419 361.167 815.227 361.257 815.04 361.386 814.852 361.515 814.618 361.729 814.337 362.028L813.599 361.369C814.085 360.783 814.485 360.358 814.798 360.094 815.112 359.831 815.432 359.649 815.761 359.549 816.089 359.45 816.528 359.4 817.079 359.4Z" fill="#4B5E68" fill-rule="evenodd"/><text fill="#000000" fill-opacity="0" font-family="Arial,Arial_MSFontService,sans-serif" font-size="8.85938" x="813.599" y="367.152">𝝉</text><path d="M823.776 364.216 833.901 364.216 833.901 365.561 823.776 365.561ZM823.776 360.393 833.901 360.393 833.901 361.738 823.776 361.738Z" fill="#4B5E68" fill-rule="evenodd"/><text fill="#000000" fill-opacity="0" font-family="Arial,Arial_MSFontService,sans-serif" font-size="5.16797" x="823.776" y="364.915">=</text><path d="M840.987 355.981 842.112 355.981C842.077 356.543 842.059 357.323 842.059 358.319L842.059 365.667C842.059 366.006 842.078 366.263 842.116 366.436 842.154 366.608 842.222 366.749 842.318 366.857 842.415 366.966 842.554 367.051 842.736 367.112 842.918 367.174 843.146 367.221 843.421 367.253 843.697 367.285 844.06 367.307 844.511 367.319L844.511 368.119 836.926 368.119 836.926 367.319C837.577 367.29 838.041 367.25 838.319 367.2 838.598 367.15 838.81 367.076 838.957 366.976 839.103 366.876 839.21 366.736 839.277 366.554 839.345 366.373 839.378 366.077 839.378 365.667L839.378 359.312C839.378 359.072 839.333 358.899 839.242 358.793 839.151 358.688 839.027 358.635 838.869 358.635 838.722 358.635 838.516 358.703 838.249 358.837 837.982 358.972 837.544 359.248 836.935 359.664L836.399 358.732Z" fill="#4B5E68" fill-rule="evenodd"/><text fill="#000000" fill-opacity="0" font-family="Arial,Arial_MSFontService,sans-serif" font-size="12.1377" x="836.399" y="366.601">𝟏</text><path d="M975.03 323.393 989.515 329.85 989.515 331.49 975.03 337.947 975.03 336.189 987.757 330.67 975.03 325.15Z" fill="#4B5E68" fill-rule="evenodd"/><text fill="#000000" fill-opacity="0" font-family="Arial,Arial_MSFontService,sans-serif" font-size="14.5547" x="975.03" y="336.128">&gt;</text><path d="M1010.16 329.908 1008.8 336.119C1009.13 336.143 1009.63 336.154 1010.3 336.154 1011.27 336.154 1012.04 335.975 1012.61 335.615 1013.17 335.256 1013.59 334.752 1013.87 334.103 1014.14 333.455 1014.28 332.791 1014.28 332.111 1014.28 330.643 1013.44 329.908 1011.78 329.908ZM1102.48 326.932C1101.75 326.932 1101.09 327.291 1100.51 328.01 1099.93 328.728 1099.45 329.775 1099.08 331.15 1100.51 331.111 1101.61 330.836 1102.38 330.324 1103.14 329.812 1103.52 329.088 1103.52 328.15 1103.52 327.752 1103.43 327.449 1103.24 327.242 1103.06 327.035 1102.8 326.932 1102.48 326.932ZM1055.48 326.932C1054.75 326.932 1054.09 327.291 1053.51 328.01 1052.93 328.728 1052.45 329.775 1052.08 331.15 1053.51 331.111 1054.61 330.836 1055.38 330.324 1056.14 329.812 1056.52 329.088 1056.52 328.15 1056.52 327.752 1056.43 327.449 1056.24 327.242 1056.06 327.035 1055.8 326.932 1055.48 326.932ZM1028.51 326.932C1027.78 326.932 1027.14 327.297 1026.58 328.027 1026.01 328.758 1025.56 329.74 1025.22 330.975 1024.87 332.209 1024.7 333.314 1024.7 334.291 1024.7 334.861 1024.79 335.287 1024.95 335.568 1025.12 335.85 1025.38 335.99 1025.73 335.99 1026.25 335.99 1026.77 335.738 1027.31 335.234 1027.84 334.73 1028.28 334.139 1028.6 333.459 1028.93 332.779 1029.23 331.85 1029.48 330.67L1029.58 330.236C1029.7 329.658 1029.76 329.08 1029.76 328.502 1029.76 327.986 1029.67 327.596 1029.47 327.33 1029.28 327.064 1028.96 326.932 1028.51 326.932ZM1074.92 325.771 1076.26 325.771 1074.38 333.834C1074.3 334.162 1074.25 334.416 1074.22 334.596 1074.2 334.775 1074.18 334.978 1074.18 335.205 1074.18 335.51 1074.23 335.721 1074.33 335.838 1074.44 335.955 1074.58 336.014 1074.77 336.014 1075 336.014 1075.25 335.906 1075.53 335.691 1075.81 335.477 1076.14 335.15 1076.53 334.713L1077.37 335.557C1076.6 336.338 1075.92 336.893 1075.31 337.221 1074.71 337.549 1074.04 337.713 1073.32 337.713 1072.49 337.713 1071.88 337.51 1071.5 337.103 1071.12 336.697 1070.92 336.084 1070.92 335.264 1070.92 334.74 1071.01 334.127 1071.18 333.424L1072.17 329.346C1072.35 328.603 1072.44 328.018 1072.44 327.588 1072.44 327.283 1072.36 327.066 1072.22 326.937 1072.08 326.809 1071.77 326.721 1071.31 326.674L1071.49 325.9ZM1102.77 325.713C1105.16 325.713 1106.35 326.576 1106.35 328.303 1106.35 328.896 1106.24 329.42 1106 329.873 1105.76 330.326 1105.36 330.736 1104.81 331.103 1104.25 331.471 1103.47 331.768 1102.46 331.994 1101.45 332.221 1100.23 332.35 1098.8 332.381 1098.69 332.842 1098.64 333.318 1098.64 333.811 1098.64 334.537 1098.8 335.084 1099.1 335.451 1099.41 335.818 1099.87 336.002 1100.48 336.002 1101.17 336.002 1101.79 335.863 1102.35 335.586 1102.9 335.309 1103.55 334.814 1104.3 334.103L1105.29 335.088C1104.5 335.978 1103.65 336.639 1102.74 337.068 1101.83 337.498 1100.84 337.713 1099.78 337.713 1098.87 337.713 1098.09 337.553 1097.45 337.232 1096.81 336.912 1096.33 336.437 1096 335.809 1095.68 335.18 1095.51 334.428 1095.51 333.553 1095.51 333.146 1095.57 332.627 1095.68 331.994 1095.83 331.135 1096.05 330.369 1096.36 329.697 1096.74 328.869 1097.24 328.158 1097.86 327.564 1098.48 326.971 1099.2 326.514 1100.03 326.193 1100.86 325.873 1101.78 325.713 1102.77 325.713ZM1082.56 325.713C1083.21 325.713 1083.73 325.895 1084.11 326.258 1084.5 326.621 1084.69 327.1 1084.69 327.693 1084.69 327.889 1084.67 328.076 1084.62 328.256L1084.74 328.35C1085.48 327.436 1086.17 326.768 1086.83 326.346 1087.49 325.924 1088.26 325.713 1089.15 325.713 1089.95 325.713 1090.58 325.939 1091.04 326.393 1091.5 326.846 1091.73 327.463 1091.73 328.244 1091.73 328.494 1091.7 328.807 1091.65 329.182 1091.6 329.557 1091.54 329.889 1091.47 330.178L1090.54 333.834C1090.41 334.357 1090.34 334.814 1090.34 335.205 1090.34 335.51 1090.39 335.721 1090.5 335.838 1090.6 335.955 1090.74 336.014 1090.93 336.014 1091.16 336.014 1091.41 335.906 1091.69 335.691 1091.97 335.477 1092.3 335.15 1092.69 334.713L1093.53 335.557C1092.76 336.338 1092.08 336.893 1091.47 337.221 1090.87 337.549 1090.2 337.713 1089.48 337.713 1088.65 337.713 1088.04 337.508 1087.66 337.098 1087.28 336.687 1087.08 336.084 1087.08 335.287 1087.08 334.717 1087.2 333.986 1087.42 333.096L1087.94 331.15C1088.07 330.65 1088.19 330.156 1088.28 329.668 1088.37 329.18 1088.42 328.779 1088.42 328.467 1088.42 328.115 1088.35 327.853 1088.2 327.682 1088.05 327.51 1087.84 327.424 1087.57 327.424 1087.18 327.424 1086.75 327.65 1086.25 328.103 1085.76 328.557 1085.37 329.035 1085.07 329.539 1084.77 330.043 1084.54 330.701 1084.37 331.514L1083.05 337.525 1079.69 337.525 1081.58 329.381C1081.69 328.873 1081.75 328.486 1081.75 328.221 1081.75 327.963 1081.71 327.764 1081.62 327.623 1081.54 327.482 1081.39 327.412 1081.18 327.412 1080.94 327.412 1080.67 327.521 1080.39 327.74 1080.11 327.959 1079.78 328.283 1079.41 328.713L1078.57 327.869C1079.35 327.072 1080.04 326.514 1080.65 326.193 1081.25 325.873 1081.89 325.713 1082.56 325.713ZM1055.77 325.713C1058.16 325.713 1059.35 326.576 1059.35 328.303 1059.35 328.896 1059.24 329.42 1059 329.873 1058.76 330.326 1058.36 330.736 1057.81 331.103 1057.25 331.471 1056.47 331.768 1055.46 331.994 1054.45 332.221 1053.23 332.35 1051.8 332.381 1051.69 332.842 1051.64 333.318 1051.64 333.811 1051.64 334.537 1051.8 335.084 1052.1 335.451 1052.41 335.818 1052.87 336.002 1053.48 336.002 1054.17 336.002 1054.79 335.863 1055.35 335.586 1055.9 335.309 1056.55 334.814 1057.3 334.103L1058.29 335.088C1057.5 335.978 1056.65 336.639 1055.74 337.068 1054.83 337.498 1053.84 337.713 1052.78 337.713 1051.87 337.713 1051.09 337.553 1050.45 337.232 1049.81 336.912 1049.33 336.437 1049 335.809 1048.68 335.18 1048.51 334.428 1048.51 333.553 1048.51 333.146 1048.57 332.627 1048.68 331.994 1048.83 331.135 1049.05 330.369 1049.36 329.697 1049.74 328.869 1050.24 328.158 1050.86 327.564 1051.48 326.971 1052.2 326.514 1053.03 326.193 1053.86 325.873 1054.78 325.713 1055.77 325.713ZM1042.73 325.713C1043.33 325.713 1043.97 325.762 1044.67 325.859 1045.36 325.957 1045.99 326.088 1046.56 326.252L1045.95 329.053 1044.46 329.053C1044.39 328.326 1044.2 327.791 1043.9 327.447 1043.6 327.103 1043.17 326.932 1042.61 326.932 1042.08 326.932 1041.67 327.066 1041.35 327.336 1041.03 327.605 1040.87 327.971 1040.87 328.432 1040.87 328.838 1041.01 329.193 1041.27 329.498 1041.54 329.803 1042.05 330.186 1042.82 330.646 1043.65 331.139 1044.24 331.646 1044.6 332.17 1044.96 332.693 1045.14 333.307 1045.14 334.01 1045.14 334.807 1044.93 335.486 1044.5 336.049 1044.08 336.611 1043.49 337.029 1042.75 337.303 1042.02 337.576 1041.17 337.713 1040.23 337.713 1038.71 337.713 1037.26 337.525 1035.87 337.15L1036.53 334.244 1038.01 334.244C1038.05 334.947 1038.24 335.498 1038.56 335.896 1038.88 336.295 1039.38 336.494 1040.05 336.494 1040.67 336.494 1041.15 336.344 1041.48 336.043 1041.82 335.742 1041.99 335.318 1041.99 334.771 1041.99 334.443 1041.93 334.166 1041.82 333.939 1041.71 333.713 1041.53 333.492 1041.28 333.277 1041.03 333.062 1040.63 332.783 1040.07 332.439 1039.28 331.971 1038.72 331.484 1038.36 330.98 1038 330.477 1037.83 329.912 1037.83 329.287 1037.83 328.139 1038.26 327.256 1039.12 326.639 1039.98 326.021 1041.18 325.713 1042.73 325.713ZM1028.37 325.713C1029.53 325.713 1030.53 325.994 1031.35 326.557L1032.48 325.713 1033.8 325.9 1031.9 333.869C1031.78 334.361 1031.72 334.807 1031.72 335.205 1031.72 335.463 1031.76 335.662 1031.85 335.803 1031.94 335.943 1032.09 336.014 1032.3 336.014 1032.54 336.014 1032.8 335.904 1033.08 335.686 1033.36 335.467 1033.69 335.143 1034.07 334.713L1034.91 335.557C1034.09 336.377 1033.38 336.941 1032.79 337.25 1032.19 337.559 1031.57 337.713 1030.91 337.713 1030.26 337.713 1029.74 337.531 1029.35 337.168 1028.97 336.805 1028.78 336.326 1028.78 335.732 1028.78 335.537 1028.8 335.35 1028.85 335.17L1028.69 335.146C1028.12 335.818 1027.63 336.324 1027.22 336.664 1026.81 337.004 1026.37 337.264 1025.91 337.443 1025.45 337.623 1024.94 337.713 1024.37 337.713 1023.44 337.713 1022.73 337.395 1022.24 336.758 1021.76 336.121 1021.51 335.193 1021.51 333.975 1021.51 332.92 1021.67 331.873 1021.97 330.834 1022.28 329.795 1022.71 328.898 1023.28 328.145 1023.85 327.391 1024.57 326.797 1025.43 326.363 1026.3 325.93 1027.28 325.713 1028.37 325.713ZM1013.07 322.9C1012.52 322.9 1012.06 322.92 1011.69 322.959L1010.46 328.537 1012.28 328.537C1012.97 328.537 1013.57 328.383 1014.08 328.074 1014.59 327.766 1014.99 327.338 1015.26 326.791 1015.53 326.244 1015.67 325.615 1015.67 324.904 1015.67 324.232 1015.46 323.73 1015.04 323.398 1014.62 323.066 1013.96 322.9 1013.07 322.9ZM1007.17 321.529 1013.9 321.529C1015.28 321.529 1016.35 321.65 1017.12 321.893 1017.89 322.135 1018.44 322.494 1018.79 322.971 1019.13 323.447 1019.3 324.049 1019.3 324.775 1019.3 325.861 1019 326.756 1018.41 327.459 1017.81 328.162 1016.85 328.771 1015.52 329.287L1015.5 329.416C1016.23 329.713 1016.8 330.127 1017.2 330.658 1017.6 331.189 1017.8 331.803 1017.8 332.498 1017.8 333.451 1017.58 334.283 1017.12 334.994 1016.66 335.705 1015.93 336.305 1014.93 336.793 1013.93 337.281 1012.39 337.525 1010.32 337.525L1003.95 337.525 1004.12 336.752C1004.56 336.627 1004.89 336.408 1005.1 336.096 1005.31 335.783 1005.51 335.205 1005.7 334.361L1007.83 324.693C1007.93 324.232 1007.98 323.775 1007.98 323.322 1007.98 322.994 1007.91 322.754 1007.75 322.602 1007.6 322.449 1007.35 322.35 1007.01 322.303ZM1074.07 321.225 1077.07 321.225 1076.46 324.096 1073.42 324.096ZM1067.02 320.744 1068.35 320.744 1065.35 333.834C1065.22 334.381 1065.16 334.838 1065.16 335.205 1065.16 335.51 1065.21 335.721 1065.31 335.838 1065.41 335.955 1065.56 336.014 1065.75 336.014 1065.97 336.014 1066.23 335.906 1066.51 335.691 1066.79 335.477 1067.12 335.15 1067.5 334.713L1068.35 335.557C1067.58 336.338 1066.9 336.893 1066.29 337.221 1065.68 337.549 1065.02 337.713 1064.29 337.713 1063.46 337.713 1062.86 337.51 1062.48 337.103 1062.09 336.697 1061.9 336.084 1061.9 335.264 1061.9 334.803 1061.99 334.189 1062.16 333.424L1064.26 324.283C1064.43 323.533 1064.51 322.975 1064.51 322.607 1064.51 322.436 1064.5 322.301 1064.46 322.203 1064.43 322.105 1064.37 322.025 1064.3 321.963 1064.23 321.9 1064.14 321.852 1064.02 321.816 1063.91 321.781 1063.67 321.74 1063.33 321.693L1063.52 320.932Z" fill="#4B5E68" fill-rule="evenodd"/><text fill="#000000" fill-opacity="0" font-family="Arial,Arial_MSFontService,sans-serif" font-size="16.9688" x="1003.95" y="335.592">𝑩𝒂𝒔𝒆𝒍𝒊𝒏𝒆</text><path d="M1112.29 330.288C1113.16 330.288 1113.86 330.403 1114.4 330.635 1114.95 330.866 1115.34 331.18 1115.59 331.575 1115.83 331.971 1115.95 332.432 1115.95 332.96 1115.95 333.422 1115.86 333.853 1115.69 334.252 1115.52 334.65 1115.22 335.104 1114.8 335.614 1114.37 336.124 1113.65 336.853 1112.65 337.802 1112.34 338.095 1111.97 338.481 1111.53 338.958 1111.1 339.436 1110.76 339.844 1110.51 340.184L1110.51 340.272 1113.63 340.272C1114.01 340.272 1114.3 340.244 1114.48 340.189 1114.67 340.133 1114.82 340.036 1114.93 339.898 1115.04 339.761 1115.12 339.554 1115.2 339.279L1116.21 339.279 1116 342.425 1107.95 342.425 1107.95 341.845C1108.4 340.808 1109.33 339.472 1110.72 337.837 1111.35 337.093 1111.84 336.481 1112.17 336.001 1112.5 335.52 1112.75 335.066 1112.91 334.638 1113.07 334.211 1113.16 333.768 1113.16 333.311 1113.16 332.667 1113.01 332.161 1112.73 331.795 1112.44 331.429 1112.05 331.246 1111.55 331.246 1110.59 331.246 1109.98 331.934 1109.71 333.311L1108.13 333.311 1108.13 331.237C1109.08 330.85 1109.85 330.595 1110.44 330.472 1111.03 330.349 1111.64 330.288 1112.29 330.288Z" fill="#4B5E68" fill-rule="evenodd"/><text fill="#000000" fill-opacity="0" font-family="Arial,Arial_MSFontService,sans-serif" font-size="12.1377" x="1107.95" y="340.908">𝟐</text><text fill="#4B5E68" font-family="Arial,Arial_MSFontService,sans-serif" font-weight="400" font-size="21" transform="translate(770.802 580)">Baseline</text><text fill="#4B5E68" font-family="Arial,Arial_MSFontService,sans-serif" font-weight="400" font-size="14" transform="translate(852.302 584)">1</text><text fill="#4B5E68" font-family="Arial,Arial_MSFontService,sans-serif" font-weight="400" font-size="24" transform="translate(500.176 701)">t</text><text fill="#4B5E68" font-family="Arial,Arial_MSFontService,sans-serif" font-weight="400" font-size="24" transform="translate(1133 696)">t</text><path d="M502.5 562.5 502.5 675.886" stroke="#4B5E68" stroke-width="1.33333" stroke-miterlimit="8" stroke-dasharray="5.33333 4" fill="none" fill-rule="evenodd"/><path d="M1133.5 562.5 1133.5 675.886" stroke="#4B5E68" stroke-width="1.33333" stroke-miterlimit="8" stroke-dasharray="5.33333 4" fill="none" fill-rule="evenodd"/><text fill="#4B5E68" font-family="Arial,Arial_MSFontService,sans-serif" font-weight="400" font-size="24" transform="translate(679.061 398)">•</text><text fill="#4B5E68" font-family="Arial,Arial_MSFontService,sans-serif" font-weight="400" font-size="24" transform="translate(709.061 398)">Forecasts of cumulative case enable</text><text fill="#4B5E68" font-family="Arial,Arial_MSFontService,sans-serif" font-weight="400" font-size="24" transform="translate(709.061 427)">preparations for the expected epidemic size</text></g></svg>