<svg width="1282" height="723" xmlns="http://www.w3.org/2000/svg" xmlns:xlink="http://www.w3.org/1999/xlink" overflow="hidden"><defs><clipPath id="clip0"><rect x="-1" y="-2" width="1282" height="723"/></clipPath></defs><g clip-path="url(#clip0)" transform="translate(1 2)"><rect x="0" y="0" width="1280" height="720" fill="#FFFFFF"/><rect x="356" y="204" width="293" height="446" fill="#D9D9D9" fill-opacity="0.6"/><rect x="0.500053" y="0.500053" width="321" height="37" stroke="#7F7F7F" stroke-width="1.33333" stroke-miterlimit="8" fill="#D9D9D9"/><text fill="#A6A6A6" font-family="Arial,Arial_MSFontService,sans-serif" font-weight="700" font-size="21" transform="translate(98.3799 27)">Introduction</text><rect x="320.5" y="0.500053" width="321" height="37" stroke="#7F7F7F" stroke-width="1.33333" stroke-miterlimit="8" fill="#4B5E68"/><text fill="#FFFFFF" font-family="Arial,Arial_MSFontService,sans-serif" font-weight="700" font-size="21" transform="translate(376.718 27)">Materials &amp; Methods</text><rect x="639.5" y="0.500053" width="321" height="37" stroke="#7F7F7F" stroke-width="1.33333" stroke-miterlimit="8" fill="#D9D9D9"/><text fill="#A6A6A6" font-family="Arial,Arial_MSFontService,sans-serif" font-weight="700" font-size="21" transform="translate(690.449 27)">Results &amp; Discussion</text><rect x="959.5" y="0.500053" width="321" height="37" stroke="#7F7F7F" stroke-width="1.33333" stroke-miterlimit="8" fill="#D9D9D9"/><text fill="#A6A6A6" font-family="Arial,Arial_MSFontService,sans-serif" font-weight="700" font-size="21" transform="translate(1061.32 27)">Conclusion</text><text fill="#4B5E68" font-family="Arial,Arial_MSFontService,sans-serif" font-weight="700" font-size="37" transform="translate(323.373 88)">Stochastic renewal equation model</text><path d="M81.5001 164.5 1177.56 164.5" stroke="#4B5E68" stroke-miterlimit="8" stroke-dasharray="8 3" fill="none" fill-rule="evenodd"/><text fill="#4B5E68" font-family="Arial,Arial_MSFontService,sans-serif" font-weight="400" font-size="24" transform="translate(55.0738 137)">P</text><text fill="#4B5E68" font-family="Arial,Arial_MSFontService,sans-serif" font-weight="400" font-size="24" transform="translate(71.0738 137)">robability</text><text fill="#4B5E68" font-family="Arial,Arial_MSFontService,sans-serif" font-weight="400" font-size="24" transform="translate(173.74 137)">that the total number of new infections</text><text fill="#4B5E68" font-family="Arial,Arial_MSFontService,sans-serif" font-weight="700" font-size="24" transform="translate(585.74 137)">in the next week</text><text fill="#4B5E68" font-family="Arial,Arial_MSFontService,sans-serif" font-weight="400" font-size="24" transform="translate(777.74 137)">exceeds a predefined threshold,</text><text fill="#4B5E68" font-family="Arial,Arial_MSFontService,sans-serif" font-weight="400" font-size="24" transform="translate(1125.74 137)">P</text><text fill="#4B5E68" font-family="Arial,Arial_MSFontService,sans-serif" font-weight="400" font-size="16" transform="translate(1141.74 142)">θ</text><text fill="#4B5E68" font-family="Arial,Arial_MSFontService,sans-serif" font-weight="400" font-size="24" transform="translate(1150.57 137)">.</text><text fill="#4B5E68" font-family="Cambria Math,Cambria Math_MSFontService,sans-serif" font-weight="400" font-size="21" transform="translate(706.056 357)"></text><text fill="#4B5E68" font-family="Cambria Math,Cambria Math_MSFontService,sans-serif" font-weight="400" font-size="21" transform="translate(710.723 357)">𝐽</text><path d="M737.85 341.612C739.846 342.138 741.379 343.275 742.448 345.021 743.518 346.768 744.053 348.875 744.053 351.343 744.053 353.818 743.52 355.925 742.454 357.665 741.387 359.404 739.852 360.537 737.85 361.064L737.603 360.274C739.183 359.748 740.357 358.709 741.126 357.157 741.895 355.605 742.279 353.633 742.279 351.24 742.279 348.93 741.896 347.011 741.131 345.483 740.365 343.955 739.179 342.928 737.573 342.402ZM727.359 341.612 727.636 342.402C726.036 342.928 724.852 343.955 724.083 345.483 723.314 347.011 722.929 348.93 722.929 351.24 722.929 353.633 723.314 355.605 724.083 357.157 724.852 358.709 726.026 359.748 727.605 360.274L727.359 361.064C725.356 360.537 723.821 359.404 722.755 357.665 721.689 355.925 721.155 353.818 721.155 351.343 721.155 348.875 721.69 346.768 722.76 345.021 723.83 343.275 725.363 342.138 727.359 341.612Z" fill="#4B5E68" fill-rule="evenodd"/><text fill="#4B5E68" font-family="Cambria Math,Cambria Math_MSFontService,sans-serif" font-weight="400" font-size="21" transform="translate(728.163 357)">𝑡</text><text fill="#4B5E68" font-family="Cambria Math,Cambria Math_MSFontService,sans-serif" font-weight="400" font-size="21" transform="translate(746.036 357)"></text><text fill="#4B5E68" font-family="Cambria Math,Cambria Math_MSFontService,sans-serif" font-weight="400" font-size="21" transform="translate(750.703 357)"></text><text fill="#4B5E68" font-family="Cambria Math,Cambria Math_MSFontService,sans-serif" font-weight="400" font-size="21" transform="translate(755.37 357)"></text><text fill="#4B5E68" font-family="Cambria Math,Cambria Math_MSFontService,sans-serif" font-weight="400" font-size="21" transform="translate(760.036 357)"></text><text fill="#4B5E68" font-family="Cambria Math,Cambria Math_MSFontService,sans-serif" font-weight="400" font-size="21" transform="translate(764.703 357)"></text><text fill="#4B5E68" font-family="Cambria Math,Cambria Math_MSFontService,sans-serif" font-weight="400" font-size="21" transform="translate(769.37 357)"></text><text fill="#4B5E68" font-family="Cambria Math,Cambria Math_MSFontService,sans-serif" font-weight="400" font-size="21" transform="translate(774.036 357)"></text><text fill="#4B5E68" font-family="Cambria Math,Cambria Math_MSFontService,sans-serif" font-weight="400" font-size="21" transform="translate(778.703 357)">~</text><text fill="#4B5E68" font-family="Cambria Math,Cambria Math_MSFontService,sans-serif" font-weight="400" font-size="21" transform="translate(793.87 357)"></text><text fill="#4B5E68" font-family="Cambria Math,Cambria Math_MSFontService,sans-serif" font-weight="400" font-size="21" transform="translate(798.536 357)"></text><text fill="#4B5E68" font-family="Cambria Math,Cambria Math_MSFontService,sans-serif" font-weight="400" font-size="21" transform="translate(803.203 357)">𝐺𝑎𝑚𝑚𝑎</text><path d="M988.882 324.581C991.691 326.987 993.922 330.576 995.572 335.347 997.223 340.119 998.049 345.444 998.049 351.323 998.049 357.113 997.223 362.429 995.572 367.273 993.922 372.116 991.691 375.734 988.882 378.126L988.4 377.368C990.827 374.9 992.696 371.328 994.009 366.652 995.321 361.977 995.977 356.87 995.977 351.333 995.977 345.666 995.318 340.536 993.998 335.942 992.679 331.348 990.813 327.817 988.4 325.35ZM890.999 324.581 891.481 325.35C889.061 327.817 887.193 331.348 885.878 335.942 884.562 340.536 883.904 345.666 883.904 351.333 883.904 356.87 884.56 361.977 885.872 366.652 887.185 371.328 889.055 374.9 891.481 377.368L890.999 378.126C888.19 375.734 885.96 372.116 884.309 367.273 882.658 362.429 881.832 357.113 881.832 351.323 881.832 345.444 882.658 340.119 884.309 335.347 885.96 330.576 888.19 326.987 890.999 324.581Z" fill="#4B5E68" fill-rule="evenodd"/><text fill="#4B5E68" font-family="Cambria Math,Cambria Math_MSFontService,sans-serif" font-weight="400" font-size="21" transform="translate(892.35 357)">𝑘</text><text fill="#4B5E68" font-family="Cambria Math,Cambria Math_MSFontService,sans-serif" font-weight="400" font-size="16" transform="translate(903.69 362)">1</text><text fill="#4B5E68" font-family="Cambria Math,Cambria Math_MSFontService,sans-serif" font-weight="400" font-size="21" transform="translate(913.576 357)">,</text><text fill="#4B5E68" font-family="Cambria Math,Cambria Math_MSFontService,sans-serif" font-weight="400" font-size="21" transform="translate(921.463 341)">𝐼</text><text fill="#4B5E68" font-family="Cambria Math,Cambria Math_MSFontService,sans-serif" font-weight="400" font-size="16" transform="translate(928.383 346)">𝑛𝑒𝑤</text><path d="M979.536 325.465C981.532 325.992 983.065 327.128 984.135 328.875 985.205 330.621 985.74 332.729 985.74 335.196 985.74 337.671 985.207 339.778 984.14 341.518 983.074 343.258 981.539 344.391 979.536 344.917L979.29 344.128C980.869 343.601 982.043 342.562 982.812 341.01 983.581 339.459 983.966 337.486 983.966 335.094 983.966 332.783 983.583 330.864 982.818 329.336 982.052 327.808 980.866 326.781 979.259 326.255ZM969.046 325.465 969.323 326.255C967.723 326.781 966.539 327.808 965.77 329.336 965.001 330.864 964.616 332.783 964.616 335.094 964.616 337.486 965.001 339.459 965.77 341.01 966.539 342.562 967.713 343.601 969.292 344.128L969.046 344.917C967.043 344.391 965.508 343.258 964.442 341.518 963.375 339.778 962.842 337.671 962.842 335.196 962.842 332.729 963.377 330.621 964.447 328.875 965.517 327.128 967.05 325.992 969.046 325.465Z" fill="#4B5E68" fill-rule="evenodd"/><text fill="#4B5E68" font-family="Cambria Math,Cambria Math_MSFontService,sans-serif" font-weight="400" font-size="21" transform="translate(969.85 341)">𝑡</text><text fill="#4B5E68" font-family="Cambria Math,Cambria Math_MSFontService,sans-serif" font-weight="400" font-size="21" transform="translate(943.976 372)">𝑘</text><text fill="#4B5E68" font-family="Cambria Math,Cambria Math_MSFontService,sans-serif" font-weight="400" font-size="16" transform="translate(955.316 376)">1</text><path d="M921.123 350.349 987.123 350.349 987.123 351.349 921.123 351.349Z" fill="#4B5E68" fill-rule="evenodd"/><text fill="#4B5E68" font-family="Cambria Math,Cambria Math_MSFontService,sans-serif" font-weight="400" font-size="21" transform="translate(1003.52 357)"></text><text fill="#4B5E68" font-family="Cambria Math,Cambria Math_MSFontService,sans-serif" font-weight="400" font-size="21" transform="translate(1008.18 357)"></text><text fill="#4B5E68" font-family="Cambria Math,Cambria Math_MSFontService,sans-serif" font-weight="400" font-size="21" transform="translate(1012.85 357)"></text><text fill="#4B5E68" font-family="Cambria Math,Cambria Math_MSFontService,sans-serif" font-weight="400" font-size="21" transform="translate(1017.52 357)"></text><text fill="#4B5E68" font-family="Cambria Math,Cambria Math_MSFontService,sans-serif" font-weight="400" font-size="21" transform="translate(1022.18 357)"></text><text fill="#4B5E68" font-family="Cambria Math,Cambria Math_MSFontService,sans-serif" font-weight="400" font-size="21" transform="translate(1026.85 357)"></text><text fill="#4B5E68" font-family="Cambria Math,Cambria Math_MSFontService,sans-serif" font-weight="400" font-size="21" transform="translate(1031.52 357)"></text><text fill="#4B5E68" font-family="Cambria Math,Cambria Math_MSFontService,sans-serif" font-weight="400" font-size="21" transform="translate(1036.18 357)"></text><text fill="#4B5E68" font-family="Cambria Math,Cambria Math_MSFontService,sans-serif" font-weight="400" font-size="21" transform="translate(1040.85 357)"></text><path d="M727.974 528.425C728.644 528.425 729.221 528.479 729.707 528.589L729.307 530.332 728.405 530.332C728.309 529.942 728.184 529.662 728.03 529.491 727.877 529.32 727.649 529.235 727.348 529.235 726.959 529.235 726.629 529.342 726.359 529.558 726.089 529.773 725.858 530.093 725.667 530.516 725.475 530.94 725.298 531.511 725.134 532.229L724.877 533.347 727.513 533.347 727.287 534.382 724.641 534.382 722.734 543.324C722.42 544.807 721.938 545.913 721.288 546.641 720.639 547.369 719.822 547.733 718.838 547.733 718.551 547.733 718.325 547.716 718.161 547.682L718.335 546.779C718.404 546.8 718.564 546.81 718.817 546.81 719.125 546.81 719.388 546.731 719.607 546.574 719.826 546.417 720.029 546.143 720.217 545.754 720.405 545.364 720.577 544.824 720.735 544.134L722.939 534.382 721.206 534.382 721.36 533.675C721.818 533.647 722.148 533.61 722.35 533.562 722.551 533.514 722.709 533.442 722.821 533.347 722.934 533.251 723.03 533.126 723.108 532.972 723.187 532.818 723.288 532.536 723.411 532.126 723.773 530.896 724.332 529.971 725.087 529.353 725.843 528.734 726.805 528.425 727.974 528.425Z" fill="#4B5E68" fill-rule="evenodd"/><text fill="#000000" fill-opacity="0" font-family="Arial,Arial_MSFontService,sans-serif" font-size="19.3081" x="718.161" y="545.319">𝑓</text><path d="M730.398 539.604 730.781 539.604 729.625 544.807C729.552 545.115 729.501 545.359 729.472 545.542 729.444 545.724 729.429 545.888 729.429 546.034 729.429 546.232 729.47 546.375 729.55 546.464 729.631 546.552 729.752 546.596 729.914 546.596 730.007 546.596 730.101 546.578 730.195 546.542 730.289 546.505 730.389 546.448 730.496 546.37 730.602 546.292 730.72 546.191 730.847 546.069 730.975 545.947 731.117 545.799 731.273 545.628L731.804 546.143C731.534 546.419 731.287 546.652 731.066 546.842 730.845 547.033 730.635 547.188 730.437 547.307 730.239 547.427 730.045 547.513 729.855 547.565 729.665 547.617 729.463 547.643 729.25 547.643 729.052 547.643 728.873 547.607 728.714 547.534 728.556 547.461 728.419 547.361 728.304 547.233 728.19 547.105 728.101 546.953 728.039 546.776 727.976 546.599 727.945 546.404 727.945 546.19 727.945 546.018 727.966 545.805 728.007 545.549 728.049 545.294 728.102 545.017 728.168 544.717 728.233 544.418 728.304 544.104 728.382 543.776 728.461 543.448 728.537 543.122 728.613 542.799 728.688 542.477 728.756 542.165 728.816 541.866 728.876 541.566 728.919 541.294 728.945 541.049 728.955 541.008 728.961 540.967 728.961 540.928 728.961 540.889 728.961 540.854 728.961 540.823 728.95 540.62 728.879 540.471 728.746 540.378 728.613 540.284 728.377 540.232 728.039 540.221L728.132 539.69ZM729.945 536.456 731.507 536.456 731.125 538.135 729.578 538.135Z" fill="#4B5E68" fill-rule="evenodd"/><text fill="#000000" fill-opacity="0" font-family="Arial,Arial_MSFontService,sans-serif" font-size="11.1875" x="727.945" y="546.245">𝑖</text><path d="M752.108 527.412C754.104 527.939 755.637 529.075 756.707 530.822 757.777 532.568 758.312 534.676 758.312 537.143 758.312 539.618 757.778 541.725 756.712 543.465 755.646 545.205 754.111 546.338 752.108 546.864L751.862 546.075C753.441 545.548 754.615 544.509 755.384 542.957 756.153 541.406 756.538 539.433 756.538 537.041 756.538 534.73 756.155 532.811 755.389 531.283 754.624 529.755 753.438 528.728 751.831 528.202ZM741.617 527.412 741.894 528.202C740.295 528.728 739.11 529.755 738.341 531.283 737.572 532.811 737.188 534.73 737.188 537.041 737.188 539.433 737.572 541.406 738.341 542.957 739.11 544.509 740.284 545.548 741.864 546.075L741.617 546.864C739.615 546.338 738.08 545.205 737.013 543.465 735.947 541.725 735.414 539.618 735.414 537.143 735.414 534.676 735.949 532.568 737.019 530.822 738.088 529.075 739.621 527.939 741.617 527.412Z" fill="#4B5E68" fill-rule="evenodd"/><path d="M746.431 530.814 747.846 530.814 747.282 533.347 750.399 533.347 750.173 534.382 747.056 534.382 746.144 538.361C745.966 539.133 745.853 539.689 745.805 540.027 745.757 540.365 745.733 540.637 745.733 540.842 745.733 541.69 746.086 542.114 746.79 542.114 747.09 542.114 747.41 541.999 747.748 541.77 748.087 541.541 748.488 541.15 748.953 540.596L749.548 541.211C748.953 541.929 748.381 542.459 747.83 542.801 747.28 543.142 746.704 543.313 746.103 543.313 744.674 543.313 743.96 542.592 743.96 541.15 743.96 540.692 744.018 540.21 744.134 539.704L745.344 534.382 743.621 534.382 743.775 533.675C744.178 533.668 744.484 533.637 744.693 533.582 744.901 533.528 745.076 533.453 745.216 533.357 745.356 533.261 745.484 533.124 745.6 532.947 745.716 532.769 745.829 532.542 745.939 532.265 746.048 531.988 746.212 531.504 746.431 530.814Z" fill="#4B5E68" fill-rule="evenodd"/><text fill="#000000" fill-opacity="0" font-family="Arial,Arial_MSFontService,sans-serif" font-size="12.4995" x="743.621" y="541.751">𝑡</text><path d="M772.416 538.597 785.049 538.597 785.049 539.96 772.416 539.96ZM772.416 534.341 785.049 534.341 785.049 535.705 772.416 535.705Z" fill="#4B5E68" fill-rule="evenodd"/><text fill="#000000" fill-opacity="0" font-family="Arial,Arial_MSFontService,sans-serif" font-size="5.61914" x="772.416" y="539.258">=</text><path d="M816.145 459.02 816.145 459.994C814.142 460.466 812.686 462.052 811.776 464.752 810.867 467.452 810.413 471.618 810.413 477.251L810.413 482.548 810.413 485.116 810.413 489.995 810.413 508.183 810.413 513.416 810.413 515.629 810.413 525.567C810.413 529.374 809.926 532.184 808.952 533.995 807.977 535.807 807.002 536.914 806.024 537.318L806.024 537.574C806.988 537.984 807.933 539.047 808.859 540.763 809.786 542.479 810.303 545.333 810.413 549.325L810.413 558.915 810.413 561.476 810.413 566.368 810.413 584.549 810.413 589.416 810.413 592.003 810.413 597.28C810.413 602.913 810.867 607.08 811.776 609.78 812.686 612.48 814.142 614.066 816.145 614.538L816.145 615.512C813.315 615.02 811.293 613.336 810.079 610.462 808.866 607.587 808.259 603.31 808.259 597.629L808.259 592.003 808.259 589.416 808.259 584.549 808.259 566.368 808.259 561.476 808.259 558.915 808.259 547.541C808.259 544.451 807.877 542.12 807.111 540.548 806.345 538.975 805.269 538.162 803.881 538.107L803.881 536.877C805.241 536.822 806.311 536.005 807.09 534.426 807.87 532.847 808.259 530.489 808.259 527.351L808.259 515.629 808.259 513.416 808.259 508.183 808.259 489.995 808.259 485.116 808.259 482.548 808.259 476.903C808.259 471.222 808.866 466.944 810.079 464.07 811.293 461.195 813.315 459.512 816.145 459.02Z" fill="#4B5E68" fill-rule="evenodd"/><path d="M823.379 489.129 823.943 489.129C823.902 489.785 823.881 490.694 823.881 491.856L823.881 500.613C823.881 501.01 823.903 501.309 823.948 501.51 823.992 501.712 824.071 501.876 824.184 502.002 824.297 502.129 824.459 502.228 824.671 502.3 824.883 502.372 825.149 502.426 825.471 502.464 825.792 502.501 826.216 502.527 826.742 502.541L826.742 503.289 819.164 503.289 819.164 502.541C819.923 502.507 820.465 502.46 820.79 502.402 821.114 502.344 821.362 502.257 821.533 502.141 821.704 502.025 821.829 501.861 821.907 501.649 821.986 501.437 822.025 501.092 822.025 500.613L822.025 492.297C822.025 492.024 821.977 491.824 821.882 491.697 821.786 491.571 821.646 491.508 821.461 491.508 821.243 491.508 820.932 491.62 820.528 491.846 820.125 492.072 819.626 492.383 819.031 492.779L818.58 491.99Z" fill="#4B5E68" fill-rule="evenodd"/><text fill="#000000" fill-opacity="0" font-family="Arial,Arial_MSFontService,sans-serif" font-size="14.1606" x="818.58" y="501.519">1</text><path d="M846.843 493.394 847.448 493.394 845.972 499.977C845.821 500.647 845.746 501.153 845.746 501.495 845.746 501.768 845.791 501.967 845.88 502.09 845.968 502.213 846.109 502.274 846.3 502.274 846.505 502.274 846.724 502.19 846.956 502.023 847.189 501.855 847.517 501.536 847.941 501.064L848.525 501.638C847.855 502.343 847.312 502.821 846.895 503.074 846.478 503.327 846.009 503.453 845.49 503.453 845.046 503.453 844.69 503.291 844.424 502.966 844.157 502.642 844.024 502.226 844.024 501.72 844.024 501.201 844.119 500.538 844.311 499.731L845.08 496.378C845.237 495.695 845.316 495.182 845.316 494.84 845.316 494.532 845.242 494.324 845.095 494.215 844.948 494.105 844.659 494.044 844.229 494.03L844.341 493.487ZM846.567 489.467 848.382 489.467 847.91 491.456 846.095 491.456ZM859.247 488.565C859.917 488.565 860.495 488.619 860.98 488.729L860.58 490.472 859.678 490.472C859.582 490.082 859.457 489.802 859.304 489.631 859.15 489.46 858.923 489.375 858.622 489.375 858.232 489.375 857.902 489.482 857.632 489.698 857.362 489.913 857.132 490.233 856.94 490.656 856.749 491.08 856.571 491.651 856.407 492.369L856.151 493.487 858.786 493.487 858.56 494.522 855.915 494.522 854.008 503.464C853.693 504.947 853.211 506.053 852.562 506.781 851.912 507.509 851.095 507.873 850.111 507.873 849.824 507.873 849.598 507.856 849.434 507.822L849.609 506.919C849.677 506.94 849.838 506.95 850.091 506.95 850.398 506.95 850.661 506.871 850.88 506.714 851.099 506.557 851.302 506.283 851.49 505.894 851.678 505.504 851.851 504.964 852.008 504.274L854.213 494.522 852.48 494.522 852.633 493.815C853.091 493.787 853.421 493.75 853.623 493.702 853.825 493.654 853.982 493.582 854.095 493.487 854.207 493.391 854.303 493.266 854.382 493.112 854.46 492.958 854.561 492.677 854.684 492.266 855.047 491.036 855.605 490.111 856.361 489.493 857.116 488.874 858.078 488.565 859.247 488.565Z" fill="#4B5E68" fill-rule="evenodd"/><text fill="#000000" fill-opacity="0" font-family="Arial,Arial_MSFontService,sans-serif" font-size="19.3081" x="844.024" y="505.459">𝑖𝑓</text><path d="M874.722 477.251 899.485 477.251 899.485 483.321 898.131 483.321C897.974 481.865 897.656 480.713 897.178 479.866 896.699 479.018 895.975 478.594 895.004 478.594L878.823 478.594 891.056 495.206 891.056 496.446 877.849 514.37 895.64 514.37C896.426 514.37 897.027 514.093 897.444 513.54 897.861 512.986 898.22 511.749 898.521 509.828L900.039 509.828 899.516 517.344 874.301 517.344 874.301 516.329 888.667 496.857 874.722 478.225Z" fill="#4B5E68" fill-rule="evenodd"/><text fill="#000000" fill-opacity="0" font-family="Arial,Arial_MSFontService,sans-serif" font-size="40.0928" x="874.301" y="512.332">෍</text><path d="M913.239 489.293 917.341 489.293 917.228 489.795C916.968 489.85 916.782 489.911 916.669 489.98 916.556 490.048 916.455 490.151 916.367 490.287 916.278 490.424 916.185 490.638 916.09 490.928 915.994 491.219 915.874 491.692 915.731 492.348L913.977 500.305C913.888 500.709 913.83 501.028 913.803 501.264 913.776 501.5 913.762 501.714 913.762 501.905 913.762 502.213 913.839 502.43 913.993 502.556 914.147 502.683 914.405 502.76 914.767 502.787L914.654 503.289 910.553 503.289 910.665 502.787C910.925 502.746 911.12 502.679 911.25 502.587 911.38 502.495 911.489 502.366 911.578 502.202 911.667 502.038 911.749 501.838 911.824 501.603 911.899 501.367 912.012 500.91 912.162 500.234L913.906 492.338C914.056 491.655 914.131 491.104 914.131 490.687 914.131 490.366 914.051 490.142 913.89 490.016 913.73 489.889 913.475 489.816 913.126 489.795Z" fill="#4B5E68" fill-rule="evenodd"/><text fill="#000000" fill-opacity="0" font-family="Arial,Arial_MSFontService,sans-serif" font-size="13.9966" x="910.553" y="501.54">𝐼</text><path d="M932.451 500.44C932.164 500.44 931.882 500.51 931.603 500.65 931.324 500.791 931.061 500.99 930.814 501.248 930.566 501.506 930.341 501.818 930.138 502.186 929.935 502.553 929.766 502.963 929.63 503.416 930.292 503.411 930.861 503.359 931.337 503.26 931.814 503.161 932.204 503.025 932.509 502.854 932.814 502.682 933.038 502.479 933.181 502.244 933.324 502.01 933.396 501.752 933.396 501.471 933.396 501.148 933.315 500.895 933.154 500.713 932.992 500.531 932.758 500.44 932.451 500.44ZM936.474 499.83 938.732 499.83 939.341 506.174C939.674 505.658 939.969 505.192 940.224 504.775 940.479 504.359 940.703 503.976 940.896 503.627 941.089 503.278 941.255 502.955 941.396 502.658 941.536 502.361 941.655 502.078 941.751 501.807 941.848 501.536 941.928 501.27 941.994 501.01 942.059 500.749 942.115 500.481 942.161 500.205L942.255 499.83 943.505 499.83 944.185 506.174C945.044 505.002 945.694 503.977 946.134 503.1 946.574 502.222 946.794 501.52 946.794 500.994 946.794 500.765 946.74 500.604 946.63 500.51 946.521 500.416 946.323 500.356 946.036 500.33L946.13 499.83 948.333 499.83 948.607 500.283C948.388 500.851 948.147 501.411 947.884 501.963 947.621 502.515 947.313 503.089 946.958 503.686 946.604 504.282 946.19 504.913 945.716 505.58 945.242 506.247 944.685 506.976 944.044 507.768L943.044 507.768 942.411 502.346C942.068 503.137 941.634 503.981 941.111 504.877 940.587 505.773 939.971 506.736 939.263 507.768L938.122 507.768 937.388 501.869C937.346 501.557 937.31 501.305 937.279 501.115 937.247 500.925 937.199 500.777 937.134 500.67 937.069 500.563 936.977 500.486 936.857 500.44 936.737 500.393 936.57 500.356 936.357 500.33ZM932.786 499.666C933.453 499.666 933.96 499.812 934.306 500.104 934.652 500.395 934.826 500.809 934.826 501.346 934.826 503.231 933.042 504.174 929.474 504.174 929.448 504.309 929.427 504.456 929.411 504.615 929.396 504.774 929.388 504.947 929.388 505.135 929.388 505.703 929.504 506.117 929.736 506.377 929.967 506.637 930.328 506.768 930.818 506.768 931.073 506.768 931.315 506.74 931.544 506.686 931.773 506.631 931.999 506.546 932.22 506.432 932.441 506.317 932.664 506.17 932.888 505.99 933.112 505.811 933.346 505.596 933.591 505.346L934.177 505.979C933.573 506.578 932.97 507.028 932.369 507.33 931.767 507.632 931.12 507.783 930.427 507.783 930.021 507.783 929.66 507.722 929.345 507.6 929.03 507.477 928.764 507.299 928.548 507.065 928.332 506.83 928.168 506.545 928.056 506.209 927.944 505.873 927.888 505.494 927.888 505.072 927.888 504.775 927.914 504.467 927.966 504.147 928.018 503.826 928.099 503.506 928.208 503.186 928.318 502.865 928.453 502.553 928.615 502.248 928.776 501.943 928.966 501.658 929.185 501.393 929.622 500.851 930.15 500.428 930.767 500.123 931.384 499.818 932.057 499.666 932.786 499.666ZM919.732 499.666C920.117 499.666 920.415 499.792 920.626 500.045 920.837 500.298 920.943 500.63 920.943 501.041 920.943 501.145 920.934 501.255 920.915 501.369 920.897 501.484 920.865 501.593 920.818 501.697L920.927 501.736C921.432 501.044 921.931 500.525 922.423 500.182 922.915 499.838 923.424 499.666 923.951 499.666 924.503 499.666 924.915 499.815 925.189 500.111 925.462 500.408 925.599 500.825 925.599 501.361 925.599 501.523 925.576 501.747 925.529 502.033 925.482 502.32 925.422 502.632 925.349 502.971 925.276 503.309 925.198 503.657 925.115 504.014 925.031 504.371 924.953 504.7 924.88 505.002 924.807 505.304 924.747 505.562 924.701 505.775 924.654 505.989 924.63 506.122 924.63 506.174 924.63 506.372 924.667 506.515 924.74 506.604 924.813 506.692 924.93 506.736 925.091 506.736 925.19 506.736 925.288 506.718 925.384 506.682 925.481 506.645 925.581 506.588 925.685 506.51 925.789 506.432 925.904 506.331 926.029 506.209 926.154 506.087 926.294 505.94 926.451 505.768L926.99 506.283C926.734 506.544 926.5 506.768 926.286 506.955 926.073 507.143 925.866 507.298 925.665 507.42 925.465 507.542 925.266 507.634 925.068 507.693 924.87 507.753 924.659 507.783 924.435 507.783 924.247 507.783 924.074 507.747 923.915 507.674 923.757 507.601 923.62 507.501 923.505 507.373 923.391 507.246 923.302 507.094 923.24 506.92 923.177 506.746 923.146 506.554 923.146 506.346 923.146 506.137 923.168 505.894 923.212 505.615 923.257 505.337 923.323 505.031 923.411 504.697 923.505 504.359 923.592 504.035 923.673 503.725 923.754 503.415 923.824 503.128 923.884 502.865 923.944 502.602 923.991 502.368 924.025 502.162 924.059 501.956 924.076 501.786 924.076 501.65 924.076 501.328 924.014 501.091 923.892 500.94 923.77 500.788 923.573 500.713 923.302 500.713 923.146 500.713 922.978 500.753 922.798 500.834 922.619 500.915 922.438 501.027 922.255 501.17 922.073 501.313 921.895 501.482 921.72 501.678 921.546 501.873 921.385 502.081 921.24 502.303 921.094 502.524 920.965 502.756 920.853 502.998 920.741 503.24 920.659 503.481 920.607 503.721L919.732 507.643 918.201 507.643 919.372 502.549C919.44 502.278 919.49 502.036 919.521 501.822 919.552 501.609 919.568 501.434 919.568 501.299 919.568 500.919 919.414 500.729 919.107 500.729 919.013 500.729 918.918 500.748 918.822 500.787 918.725 500.826 918.624 500.885 918.517 500.963 918.41 501.041 918.294 501.14 918.169 501.26 918.044 501.38 917.904 501.52 917.747 501.682L917.208 501.174C917.469 500.908 917.707 500.68 917.923 500.49 918.139 500.3 918.345 500.144 918.54 500.022 918.736 499.899 918.93 499.809 919.122 499.752 919.315 499.695 919.518 499.666 919.732 499.666Z" fill="#4B5E68" fill-rule="evenodd"/><text fill="#000000" fill-opacity="0" font-family="Arial,Arial_MSFontService,sans-serif" font-size="8.11719" x="917.208" y="506.769">𝑛𝑒𝑤</text><path d="M1013.24 487.552C1015.24 488.079 1016.77 489.215 1017.84 490.962 1018.91 492.708 1019.44 494.816 1019.44 497.283 1019.44 499.758 1018.91 501.865 1017.85 503.605 1016.78 505.345 1015.24 506.478 1013.24 507.004L1013 506.215C1014.57 505.688 1015.75 504.649 1016.52 503.097 1017.29 501.546 1017.67 499.573 1017.67 497.181 1017.67 494.87 1017.29 492.951 1016.52 491.423 1015.76 489.895 1014.57 488.868 1012.96 488.342ZM957.551 487.552 957.828 488.342C956.228 488.868 955.044 489.895 954.275 491.423 953.506 492.951 953.121 494.87 953.121 497.181 953.121 499.573 953.506 501.546 954.275 503.097 955.044 504.649 956.218 505.688 957.797 506.215L957.551 507.004C955.548 506.478 954.013 505.345 952.947 503.605 951.88 501.865 951.347 499.758 951.347 497.283 951.347 494.816 951.882 492.708 952.952 490.962 954.022 489.215 955.555 488.079 957.551 487.552Z" fill="#4B5E68" fill-rule="evenodd"/><path d="M962.364 490.954 963.779 490.954 963.215 493.487 966.332 493.487 966.107 494.522 962.99 494.522 962.077 498.501C961.899 499.273 961.786 499.829 961.739 500.167 961.691 500.505 961.667 500.777 961.667 500.982 961.667 501.83 962.019 502.254 962.723 502.254 963.024 502.254 963.343 502.139 963.682 501.91 964.02 501.681 964.422 501.29 964.886 500.736L965.481 501.351C964.886 502.069 964.314 502.599 963.764 502.941 963.213 503.282 962.637 503.453 962.036 503.453 960.607 503.453 959.893 502.732 959.893 501.29 959.893 500.832 959.951 500.35 960.067 499.844L961.277 494.522 959.554 494.522 959.708 493.815C960.112 493.808 960.417 493.777 960.626 493.722 960.834 493.668 961.009 493.593 961.149 493.497 961.289 493.401 961.417 493.264 961.533 493.087 961.65 492.909 961.762 492.682 961.872 492.405 961.981 492.128 962.145 491.644 962.364 490.954Z" fill="#4B5E68" fill-rule="evenodd"/><text fill="#000000" fill-opacity="0" font-family="Arial,Arial_MSFontService,sans-serif" font-size="12.4995" x="959.554" y="501.891">𝑡</text><path d="M979.231 490.698 980.687 490.698 980.687 496.604 986.275 496.604 986.275 497.968 980.687 497.968 980.687 503.874 979.231 503.874 979.231 497.968 973.643 497.968 973.643 496.604 979.231 496.604Z" fill="#4B5E68" fill-rule="evenodd"/><text fill="#000000" fill-opacity="0" font-family="Arial,Arial_MSFontService,sans-serif" font-size="13.1763" x="973.643" y="502.227">+</text><path d="M996.956 493.487 1002.33 493.487 1002.02 494.84 998.812 494.84 997.654 499.977C997.503 500.647 997.428 501.153 997.428 501.495 997.428 501.768 997.472 501.967 997.561 502.09 997.65 502.213 997.79 502.274 997.982 502.274 998.214 502.274 998.467 502.178 998.74 501.987 999.014 501.796 999.325 501.491 999.674 501.074L1000.27 501.628C999.68 502.284 999.156 502.753 998.694 503.033 998.233 503.313 997.76 503.453 997.274 503.453 996.789 503.453 996.406 503.293 996.126 502.971 995.845 502.65 995.705 502.233 995.705 501.72 995.705 501.262 995.801 500.599 995.992 499.731L996.136 499.085C996.245 498.586 996.408 497.93 996.623 497.116 996.838 496.303 997.055 495.575 997.274 494.932L997.223 494.84 996.341 494.84C995.89 494.84 995.543 494.876 995.3 494.948 995.058 495.02 994.82 495.143 994.588 495.317 994.355 495.491 994.113 495.742 993.86 496.071L993.214 495.527C993.583 495.069 993.906 494.71 994.183 494.45 994.459 494.191 994.724 493.994 994.977 493.861 995.23 493.728 995.504 493.632 995.798 493.574 996.092 493.516 996.478 493.487 996.956 493.487Z" fill="#4B5E68" fill-rule="evenodd"/><text fill="#000000" fill-opacity="0" font-family="Arial,Arial_MSFontService,sans-serif" font-size="9.9668" x="993.214" y="502.208">𝜏</text><path d="M1007.35 497.525C1007.89 497.525 1008.36 497.587 1008.74 497.709 1009.12 497.831 1009.43 497.997 1009.67 498.205 1009.91 498.413 1010.09 498.663 1010.19 498.955 1010.3 499.247 1010.35 499.562 1010.35 499.9 1010.35 500.104 1010.34 500.292 1010.31 500.467 1010.28 500.641 1010.23 500.813 1010.16 500.982 1010.09 501.152 1010 501.322 1009.88 501.494 1009.77 501.666 1009.63 501.848 1009.45 502.041 1009.32 502.208 1009.15 502.4 1008.95 502.619 1008.74 502.838 1008.51 503.072 1008.26 503.322 1008.01 503.572 1007.76 503.833 1007.48 504.104 1007.21 504.374 1006.95 504.643 1006.7 504.908 1006.44 505.174 1006.21 505.432 1005.99 505.682 1005.78 505.932 1005.6 506.161 1005.47 506.369L1008.36 506.369C1008.6 506.369 1008.8 506.36 1008.95 506.342 1009.09 506.324 1009.21 506.283 1009.31 506.221 1009.41 506.158 1009.49 506.063 1009.56 505.936 1009.62 505.808 1009.7 505.632 1009.79 505.408L1010.52 505.408C1010.49 505.778 1010.47 506.15 1010.44 506.525 1010.42 506.9 1010.39 507.273 1010.37 507.643L1003.75 507.643 1003.75 507.236C1003.88 506.955 1004.02 506.678 1004.19 506.404 1004.35 506.131 1004.54 505.854 1004.75 505.572 1004.96 505.291 1005.2 505.001 1005.46 504.701 1005.73 504.402 1006.02 504.091 1006.34 503.768 1006.83 503.278 1007.23 502.86 1007.54 502.514 1007.85 502.167 1008.09 501.859 1008.27 501.588 1008.44 501.317 1008.56 501.067 1008.63 500.838 1008.69 500.609 1008.73 500.364 1008.73 500.104 1008.73 499.838 1008.69 499.593 1008.61 499.369 1008.54 499.145 1008.43 498.955 1008.29 498.799 1008.15 498.643 1007.97 498.52 1007.75 498.432 1007.54 498.343 1007.29 498.299 1007.01 498.299 1006.52 498.299 1006.12 498.43 1005.79 498.693 1005.46 498.956 1005.21 499.338 1005.02 499.838L1004 499.838 1004 498.315C1004.67 498.038 1005.28 497.838 1005.84 497.713 1006.4 497.588 1006.9 497.525 1007.35 497.525Z" fill="#4B5E68" fill-rule="evenodd"/><text fill="#000000" fill-opacity="0" font-family="Arial,Arial_MSFontService,sans-serif" font-size="10.1172" x="1003.75" y="506.378">2</text><path d="M1028.88 503.053 1041.52 503.053 1041.52 504.417 1028.88 504.417ZM1028.88 490.164 1041.56 495.096 1041.56 496.532 1028.88 501.464 1028.88 499.926 1039.86 495.814 1028.88 491.702Z" fill="#4B5E68" fill-rule="evenodd"/><text fill="#000000" fill-opacity="0" font-family="Arial,Arial_MSFontService,sans-serif" font-size="14.2529" x="1028.88" y="502.636">≥</text><path d="M1057.28 496.655C1056.96 498.138 1056.8 499.386 1056.8 500.398 1056.8 501.163 1056.91 501.726 1057.15 502.084 1057.38 502.443 1057.76 502.623 1058.28 502.623 1059.04 502.623 1059.77 502.108 1060.45 501.08 1061.14 500.051 1061.72 498.576 1062.2 496.655ZM1061.48 489.744C1060.68 489.744 1059.94 490.25 1059.26 491.261 1058.58 492.273 1058.01 493.722 1057.53 495.609L1062.44 495.609C1062.76 494.167 1062.92 492.926 1062.92 491.887 1062.92 491.169 1062.8 490.633 1062.57 490.277 1062.34 489.922 1061.98 489.744 1061.48 489.744ZM1061.61 488.913C1063.59 488.913 1064.58 490.171 1064.58 492.687 1064.58 493.398 1064.5 494.247 1064.34 495.235 1064.18 496.223 1063.93 497.229 1063.58 498.255 1063.23 499.28 1062.79 500.188 1062.25 500.977 1061.72 501.767 1061.11 502.377 1060.41 502.807 1059.71 503.238 1058.96 503.453 1058.15 503.453 1057.13 503.453 1056.37 503.142 1055.88 502.52 1055.38 501.898 1055.13 500.965 1055.13 499.721 1055.13 499.044 1055.2 498.21 1055.35 497.219 1055.5 496.228 1055.75 495.214 1056.1 494.179 1056.44 493.143 1056.89 492.224 1057.43 491.42 1057.97 490.617 1058.6 489.999 1059.31 489.564 1060.01 489.13 1060.78 488.913 1061.61 488.913Z" fill="#4B5E68" fill-rule="evenodd"/><text fill="#000000" fill-opacity="0" font-family="Arial,Arial_MSFontService,sans-serif" font-size="14.54" x="1055.13" y="501.636">𝜃</text><path d="M885.143 461.654 891.94 461.654 891.94 462.029 887.354 471.662 886.159 471.662 886.159 471.31 890.362 463.138 890.362 463.021 887.05 463.021C886.821 463.021 886.642 463.039 886.515 463.076 886.387 463.112 886.274 463.164 886.175 463.232 886.133 463.268 886.097 463.306 886.065 463.345 886.034 463.384 886.003 463.436 885.972 463.502 885.94 463.567 885.908 463.653 885.874 463.759 885.84 463.866 885.8 464.003 885.753 464.169L884.972 464.169Z" fill="#4B5E68" fill-rule="evenodd"/><text fill="#000000" fill-opacity="0" font-family="Arial,Arial_MSFontService,sans-serif" font-size="10.0078" x="884.972" y="470.411">7</text><path d="M873.419 522.67 877.888 522.67 877.646 523.881 874.974 523.881C874.823 524.553 874.67 525.225 874.517 525.897 874.363 526.569 874.208 527.246 874.052 527.928 873.995 528.162 873.954 528.371 873.931 528.553 873.907 528.735 873.896 528.894 873.896 529.029 873.896 529.196 873.928 529.329 873.993 529.428 874.058 529.527 874.182 529.576 874.364 529.576 874.562 529.576 874.779 529.489 875.013 529.315 875.247 529.14 875.508 528.884 875.794 528.545L876.333 529.061C876.062 529.342 875.815 529.582 875.591 529.779 875.367 529.977 875.152 530.139 874.946 530.264 874.741 530.389 874.539 530.48 874.341 530.537 874.143 530.595 873.94 530.623 873.732 530.623 873.529 530.623 873.345 530.587 873.181 530.514 873.017 530.441 872.876 530.338 872.759 530.205 872.642 530.072 872.551 529.915 872.486 529.733 872.42 529.55 872.388 529.352 872.388 529.139 872.388 528.988 872.405 528.794 872.439 528.557 872.473 528.32 872.519 528.056 872.579 527.764 872.639 527.472 872.709 527.162 872.79 526.834 872.871 526.506 872.957 526.173 873.048 525.834 873.139 525.496 873.236 525.162 873.337 524.834 873.439 524.506 873.539 524.199 873.638 523.912 873.638 523.891 873.633 523.881 873.622 523.881L872.779 523.881C872.544 523.886 872.344 523.903 872.177 523.932 872.01 523.96 871.857 524.011 871.716 524.084 871.575 524.157 871.435 524.257 871.294 524.385 871.154 524.513 870.992 524.678 870.81 524.881L870.239 524.334C870.448 524.105 870.635 523.906 870.802 523.737 870.969 523.567 871.125 523.421 871.271 523.299 871.417 523.177 871.561 523.075 871.704 522.994 871.848 522.914 872.002 522.85 872.169 522.803 872.336 522.756 872.519 522.724 872.72 522.705 872.92 522.687 873.154 522.675 873.419 522.67Z" fill="#4B5E68" fill-rule="evenodd"/><text fill="#000000" fill-opacity="0" font-family="Arial,Arial_MSFontService,sans-serif" font-size="7.95312" x="870.239" y="529.629">𝜏</text><path d="M881.634 525.798C882.12 525.798 882.523 525.85 882.843 525.956 883.163 526.062 883.417 526.2 883.608 526.369 883.798 526.538 883.932 526.737 884.008 526.966 884.084 527.194 884.122 527.429 884.122 527.67 884.122 527.975 884.061 528.257 883.938 528.518 883.815 528.778 883.614 529.061 883.335 529.368 883.056 529.675 882.556 530.154 881.837 530.806 881.071 531.5 880.514 532.101 880.167 532.609L882.459 532.609C882.675 532.609 882.84 532.598 882.954 532.577 883.068 532.556 883.159 532.523 883.227 532.478 883.295 532.434 883.352 532.378 883.398 532.31 883.445 532.243 883.515 532.094 883.608 531.866L884.249 531.866 884.116 533.656 878.682 533.656 878.682 533.307C878.894 532.854 879.179 532.409 879.539 531.971 879.899 531.533 880.318 531.081 880.796 530.615 881.371 530.065 881.78 529.651 882.021 529.371 882.262 529.092 882.441 528.826 882.557 528.575 882.674 528.323 882.732 528.07 882.732 527.816 882.732 527.397 882.613 527.067 882.376 526.826 882.139 526.585 881.799 526.464 881.354 526.464 880.969 526.464 880.643 526.566 880.374 526.769 880.105 526.972 879.901 527.272 879.761 527.67L878.879 527.67 878.879 526.42C879.429 526.195 879.936 526.036 880.399 525.94 880.863 525.845 881.274 525.798 881.634 525.798Z" fill="#4B5E68" fill-rule="evenodd"/><text fill="#000000" fill-opacity="0" font-family="Arial,Arial_MSFontService,sans-serif" font-size="7.8584" x="878.682" y="532.674">2</text><path d="M887.402 527.014 896.402 527.014 896.402 528.209 887.402 528.209ZM887.402 523.615 896.402 523.615 896.402 524.811 887.402 524.811Z" fill="#4B5E68" fill-rule="evenodd"/><text fill="#000000" fill-opacity="0" font-family="Arial,Arial_MSFontService,sans-serif" font-size="4.59375" x="887.402" y="527.635">=</text><path d="M902.688 520.42 903.165 520.42C903.154 520.707 903.146 520.963 903.141 521.19 903.136 521.416 903.132 521.636 903.13 521.85 903.127 522.063 903.126 522.274 903.126 522.483L903.126 528.42C903.126 528.582 903.131 528.721 903.141 528.838 903.152 528.955 903.169 529.054 903.192 529.135 903.216 529.216 903.247 529.285 903.286 529.342 903.325 529.399 903.37 529.449 903.423 529.49 903.485 529.553 903.568 529.601 903.673 529.635 903.777 529.669 903.91 529.697 904.071 529.721 904.232 529.744 904.426 529.763 904.653 529.776 904.88 529.789 905.152 529.798 905.469 529.803L905.469 530.483 899.274 530.483 899.274 529.803C899.581 529.792 899.842 529.781 900.055 529.768 900.269 529.755 900.451 529.737 900.602 529.713 900.753 529.69 900.874 529.664 900.966 529.635 901.057 529.606 901.136 529.571 901.204 529.529 901.277 529.483 901.339 529.432 901.391 529.377 901.443 529.322 901.485 529.253 901.516 529.17 901.548 529.087 901.572 528.985 901.591 528.865 901.609 528.746 901.618 528.597 901.618 528.42L901.618 522.819C901.618 522.615 901.579 522.472 901.501 522.389 901.423 522.306 901.311 522.264 901.165 522.264 901.003 522.264 900.764 522.347 900.446 522.514 900.128 522.681 899.717 522.928 899.212 523.256 899.144 523.136 899.081 523.016 899.024 522.897 898.967 522.777 898.907 522.654 898.844 522.529 899.49 522.175 900.13 521.822 900.762 521.471 901.395 521.119 902.037 520.769 902.688 520.42Z" fill="#4B5E68" fill-rule="evenodd"/><text fill="#000000" fill-opacity="0" font-family="Arial,Arial_MSFontService,sans-serif" font-size="10.0625" x="898.844" y="529.225">1</text><path d="M822.569 568.54C822.097 568.54 821.702 568.68 821.384 568.961 821.067 569.241 820.81 569.644 820.615 570.171 820.421 570.697 820.282 571.338 820.2 572.093 820.118 572.849 820.077 573.701 820.077 574.652 820.077 576.88 820.284 578.516 820.697 579.558 821.111 580.601 821.752 581.122 822.62 581.122 823.447 581.122 824.061 580.631 824.461 579.65 824.86 578.669 825.06 577.15 825.06 575.092 825.06 573.52 824.958 572.247 824.753 571.273 824.548 570.299 824.262 569.6 823.897 569.176 823.531 568.752 823.088 568.54 822.569 568.54ZM822.62 567.669C824.117 567.669 825.231 568.246 825.963 569.402 826.694 570.557 827.06 572.303 827.06 574.641 827.06 577.061 826.669 578.892 825.886 580.132 825.103 581.373 823.96 581.993 822.456 581.993 820.979 581.993 819.88 581.412 819.159 580.25 818.438 579.088 818.078 577.324 818.078 574.959 818.078 573.701 818.189 572.614 818.411 571.698 818.633 570.782 818.944 570.025 819.344 569.427 819.744 568.829 820.224 568.386 820.785 568.099 821.345 567.812 821.957 567.669 822.62 567.669Z" fill="#4B5E68" fill-rule="evenodd"/><text fill="#000000" fill-opacity="0" font-family="Arial,Arial_MSFontService,sans-serif" font-size="14.3247" x="818.078" y="580.203">0</text><path d="M846.843 571.934 847.448 571.934 845.972 578.517C845.821 579.187 845.746 579.693 845.746 580.035 845.746 580.308 845.791 580.507 845.88 580.63 845.968 580.753 846.109 580.814 846.3 580.814 846.505 580.814 846.724 580.73 846.956 580.563 847.189 580.395 847.517 580.076 847.941 579.604L848.525 580.178C847.855 580.883 847.312 581.361 846.895 581.614 846.478 581.867 846.009 581.993 845.49 581.993 845.046 581.993 844.69 581.831 844.424 581.506 844.157 581.182 844.024 580.766 844.024 580.26 844.024 579.741 844.119 579.078 844.311 578.271L845.08 574.918C845.237 574.235 845.316 573.722 845.316 573.38 845.316 573.072 845.242 572.864 845.095 572.755 844.948 572.645 844.659 572.584 844.229 572.57L844.341 572.027ZM846.567 568.007 848.382 568.007 847.91 569.996 846.095 569.996ZM859.247 567.105C859.917 567.105 860.495 567.159 860.98 567.269L860.58 569.012 859.678 569.012C859.582 568.622 859.457 568.342 859.304 568.171 859.15 568 858.923 567.915 858.622 567.915 858.232 567.915 857.902 568.022 857.632 568.238 857.362 568.453 857.132 568.773 856.94 569.196 856.749 569.62 856.571 570.191 856.407 570.909L856.151 572.027 858.786 572.027 858.56 573.062 855.915 573.062 854.008 582.004C853.693 583.487 853.211 584.593 852.562 585.321 851.912 586.049 851.095 586.413 850.111 586.413 849.824 586.413 849.598 586.396 849.434 586.362L849.609 585.459C849.677 585.48 849.838 585.49 850.091 585.49 850.398 585.49 850.661 585.411 850.88 585.254 851.099 585.097 851.302 584.823 851.49 584.434 851.678 584.044 851.851 583.504 852.008 582.814L854.213 573.062 852.48 573.062 852.633 572.355C853.091 572.327 853.421 572.29 853.623 572.242 853.825 572.194 853.982 572.122 854.095 572.027 854.207 571.931 854.303 571.806 854.382 571.652 854.46 571.498 854.561 571.216 854.684 570.806 855.047 569.576 855.605 568.651 856.361 568.033 857.116 567.414 858.078 567.105 859.247 567.105Z" fill="#4B5E68" fill-rule="evenodd"/><text fill="#000000" fill-opacity="0" font-family="Arial,Arial_MSFontService,sans-serif" font-size="19.3081" x="844.024" y="583.999">𝑖𝑓</text><path d="M874.722 555.791 899.485 555.791 899.485 561.861 898.131 561.861C897.974 560.405 897.656 559.253 897.178 558.406 896.699 557.558 895.975 557.134 895.004 557.134L878.823 557.134 891.056 573.746 891.056 574.986 877.849 592.91 895.64 592.91C896.426 592.91 897.027 592.633 897.444 592.08 897.861 591.526 898.22 590.289 898.521 588.368L900.039 588.368 899.516 595.884 874.301 595.884 874.301 594.869 888.667 575.396 874.722 556.765Z" fill="#4B5E68" fill-rule="evenodd"/><text fill="#000000" fill-opacity="0" font-family="Arial,Arial_MSFontService,sans-serif" font-size="40.0928" x="874.301" y="590.872">෍</text><path d="M913.239 567.833 917.341 567.833 917.228 568.335C916.968 568.39 916.782 568.451 916.669 568.52 916.556 568.588 916.455 568.691 916.367 568.827 916.278 568.964 916.185 569.178 916.09 569.468 915.994 569.759 915.874 570.232 915.731 570.888L913.977 578.845C913.888 579.249 913.83 579.568 913.803 579.804 913.776 580.04 913.762 580.254 913.762 580.445 913.762 580.753 913.839 580.97 913.993 581.096 914.147 581.223 914.405 581.299 914.767 581.327L914.654 581.829 910.553 581.829 910.665 581.327C910.925 581.286 911.12 581.219 911.25 581.127 911.38 581.035 911.489 580.906 911.578 580.742 911.667 580.578 911.749 580.378 911.824 580.143 911.899 579.907 912.012 579.45 912.162 578.774L913.906 570.878C914.056 570.195 914.131 569.644 914.131 569.227 914.131 568.906 914.051 568.682 913.89 568.556 913.73 568.429 913.475 568.356 913.126 568.335Z" fill="#4B5E68" fill-rule="evenodd"/><text fill="#000000" fill-opacity="0" font-family="Arial,Arial_MSFontService,sans-serif" font-size="13.9966" x="910.553" y="580.08">𝐼</text><path d="M932.451 578.979C932.164 578.979 931.882 579.05 931.603 579.19 931.324 579.331 931.061 579.53 930.814 579.788 930.566 580.046 930.341 580.358 930.138 580.726 929.935 581.093 929.766 581.503 929.63 581.956 930.292 581.951 930.861 581.899 931.337 581.8 931.814 581.701 932.204 581.565 932.509 581.394 932.814 581.222 933.038 581.019 933.181 580.784 933.324 580.55 933.396 580.292 933.396 580.011 933.396 579.688 933.315 579.435 933.154 579.253 932.992 579.071 932.758 578.979 932.451 578.979ZM936.474 578.37 938.732 578.37 939.341 584.714C939.674 584.198 939.969 583.732 940.224 583.315 940.479 582.899 940.703 582.516 940.896 582.167 941.089 581.818 941.255 581.495 941.396 581.198 941.536 580.901 941.655 580.617 941.751 580.347 941.848 580.076 941.928 579.81 941.994 579.55 942.059 579.289 942.115 579.021 942.161 578.745L942.255 578.37 943.505 578.37 944.185 584.714C945.044 583.542 945.694 582.517 946.134 581.64 946.574 580.762 946.794 580.06 946.794 579.534 946.794 579.305 946.74 579.144 946.63 579.05 946.521 578.956 946.323 578.896 946.036 578.87L946.13 578.37 948.333 578.37 948.607 578.823C948.388 579.391 948.147 579.951 947.884 580.503 947.621 581.055 947.313 581.629 946.958 582.226 946.604 582.822 946.19 583.453 945.716 584.12 945.242 584.787 944.685 585.516 944.044 586.308L943.044 586.308 942.411 580.886C942.068 581.677 941.634 582.521 941.111 583.417 940.587 584.313 939.971 585.276 939.263 586.308L938.122 586.308 937.388 580.409C937.346 580.097 937.31 579.845 937.279 579.655 937.247 579.465 937.199 579.317 937.134 579.21 937.069 579.103 936.977 579.026 936.857 578.979 936.737 578.933 936.57 578.896 936.357 578.87ZM932.786 578.206C933.453 578.206 933.96 578.352 934.306 578.644 934.652 578.935 934.826 579.349 934.826 579.886 934.826 581.771 933.042 582.714 929.474 582.714 929.448 582.849 929.427 582.996 929.411 583.155 929.396 583.314 929.388 583.487 929.388 583.675 929.388 584.242 929.504 584.657 929.736 584.917 929.967 585.177 930.328 585.308 930.818 585.308 931.073 585.308 931.315 585.28 931.544 585.226 931.773 585.171 931.999 585.086 932.22 584.972 932.441 584.857 932.664 584.71 932.888 584.53 933.112 584.351 933.346 584.136 933.591 583.886L934.177 584.519C933.573 585.117 932.97 585.568 932.369 585.87 931.767 586.172 931.12 586.323 930.427 586.323 930.021 586.323 929.66 586.262 929.345 586.14 929.03 586.017 928.764 585.839 928.548 585.604 928.332 585.37 928.168 585.085 928.056 584.749 927.944 584.413 927.888 584.034 927.888 583.612 927.888 583.315 927.914 583.007 927.966 582.687 928.018 582.366 928.099 582.046 928.208 581.726 928.318 581.405 928.453 581.093 928.615 580.788 928.776 580.483 928.966 580.198 929.185 579.933 929.622 579.391 930.15 578.968 930.767 578.663 931.384 578.358 932.057 578.206 932.786 578.206ZM919.732 578.206C920.117 578.206 920.415 578.332 920.626 578.585 920.837 578.838 920.943 579.17 920.943 579.581 920.943 579.685 920.934 579.795 920.915 579.909 920.897 580.024 920.865 580.133 920.818 580.237L920.927 580.276C921.432 579.584 921.931 579.065 922.423 578.722 922.915 578.378 923.424 578.206 923.951 578.206 924.503 578.206 924.915 578.354 925.189 578.651 925.462 578.948 925.599 579.365 925.599 579.901 925.599 580.063 925.576 580.287 925.529 580.573 925.482 580.86 925.422 581.172 925.349 581.511 925.276 581.849 925.198 582.197 925.115 582.554 925.031 582.91 924.953 583.24 924.88 583.542 924.807 583.844 924.747 584.102 924.701 584.315 924.654 584.529 924.63 584.662 924.63 584.714 924.63 584.912 924.667 585.055 924.74 585.144 924.813 585.232 924.93 585.276 925.091 585.276 925.19 585.276 925.288 585.258 925.384 585.222 925.481 585.185 925.581 585.128 925.685 585.05 925.789 584.972 925.904 584.871 926.029 584.749 926.154 584.627 926.294 584.479 926.451 584.308L926.99 584.823C926.734 585.084 926.5 585.308 926.286 585.495 926.073 585.683 925.866 585.838 925.665 585.96 925.465 586.082 925.266 586.174 925.068 586.233 924.87 586.293 924.659 586.323 924.435 586.323 924.247 586.323 924.074 586.287 923.915 586.214 923.757 586.141 923.62 586.041 923.505 585.913 923.391 585.785 923.302 585.634 923.24 585.46 923.177 585.285 923.146 585.094 923.146 584.886 923.146 584.677 923.168 584.434 923.212 584.155 923.257 583.877 923.323 583.571 923.411 583.237 923.505 582.899 923.592 582.575 923.673 582.265 923.754 581.955 923.824 581.668 923.884 581.405 923.944 581.142 923.991 580.908 924.025 580.702 924.059 580.496 924.076 580.326 924.076 580.19 924.076 579.867 924.014 579.631 923.892 579.479 923.77 579.328 923.573 579.253 923.302 579.253 923.146 579.253 922.978 579.293 922.798 579.374 922.619 579.455 922.438 579.567 922.255 579.71 922.073 579.853 921.895 580.022 921.72 580.218 921.546 580.413 921.385 580.621 921.24 580.843 921.094 581.064 920.965 581.296 920.853 581.538 920.741 581.78 920.659 582.021 920.607 582.261L919.732 586.183 918.201 586.183 919.372 581.089C919.44 580.818 919.49 580.576 919.521 580.362 919.552 580.149 919.568 579.974 919.568 579.839 919.568 579.459 919.414 579.269 919.107 579.269 919.013 579.269 918.918 579.288 918.822 579.327 918.725 579.366 918.624 579.425 918.517 579.503 918.41 579.581 918.294 579.68 918.169 579.8 918.044 579.92 917.904 580.06 917.747 580.222L917.208 579.714C917.469 579.448 917.707 579.22 917.923 579.03 918.139 578.84 918.345 578.684 918.54 578.562 918.736 578.439 918.93 578.349 919.122 578.292 919.315 578.235 919.518 578.206 919.732 578.206Z" fill="#4B5E68" fill-rule="evenodd"/><text fill="#000000" fill-opacity="0" font-family="Arial,Arial_MSFontService,sans-serif" font-size="8.11719" x="917.208" y="585.309">𝑛𝑒𝑤</text><path d="M1013.24 566.092C1015.24 566.619 1016.77 567.755 1017.84 569.502 1018.91 571.248 1019.44 573.356 1019.44 575.823 1019.44 578.298 1018.91 580.405 1017.85 582.145 1016.78 583.885 1015.24 585.018 1013.24 585.544L1013 584.755C1014.57 584.228 1015.75 583.189 1016.52 581.637 1017.29 580.086 1017.67 578.113 1017.67 575.721 1017.67 573.41 1017.29 571.491 1016.52 569.963 1015.76 568.435 1014.57 567.408 1012.96 566.882ZM957.551 566.092 957.828 566.882C956.228 567.408 955.044 568.435 954.275 569.963 953.506 571.491 953.121 573.41 953.121 575.721 953.121 578.113 953.506 580.086 954.275 581.637 955.044 583.189 956.218 584.228 957.797 584.755L957.551 585.544C955.548 585.018 954.013 583.885 952.947 582.145 951.88 580.405 951.347 578.298 951.347 575.823 951.347 573.356 951.882 571.248 952.952 569.502 954.022 567.755 955.555 566.619 957.551 566.092Z" fill="#4B5E68" fill-rule="evenodd"/><path d="M962.364 569.494 963.779 569.494 963.215 572.027 966.332 572.027 966.107 573.062 962.99 573.062 962.077 577.041C961.899 577.813 961.786 578.369 961.739 578.707 961.691 579.045 961.667 579.317 961.667 579.522 961.667 580.37 962.019 580.794 962.723 580.794 963.024 580.794 963.343 580.679 963.682 580.45 964.02 580.221 964.422 579.83 964.886 579.276L965.481 579.891C964.886 580.609 964.314 581.139 963.764 581.481 963.213 581.822 962.637 581.993 962.036 581.993 960.607 581.993 959.893 581.272 959.893 579.83 959.893 579.372 959.951 578.89 960.067 578.384L961.277 573.062 959.554 573.062 959.708 572.355C960.112 572.348 960.417 572.317 960.626 572.262 960.834 572.208 961.009 572.133 961.149 572.037 961.289 571.941 961.417 571.804 961.533 571.627 961.65 571.449 961.762 571.222 961.872 570.945 961.981 570.668 962.145 570.184 962.364 569.494Z" fill="#4B5E68" fill-rule="evenodd"/><text fill="#000000" fill-opacity="0" font-family="Arial,Arial_MSFontService,sans-serif" font-size="12.4995" x="959.554" y="580.431">𝑡</text><path d="M979.231 569.237 980.687 569.237 980.687 575.144 986.275 575.144 986.275 576.508 980.687 576.508 980.687 582.414 979.231 582.414 979.231 576.508 973.643 576.508 973.643 575.144 979.231 575.144Z" fill="#4B5E68" fill-rule="evenodd"/><text fill="#000000" fill-opacity="0" font-family="Arial,Arial_MSFontService,sans-serif" font-size="13.1763" x="973.643" y="580.767">+</text><path d="M996.956 572.027 1002.33 572.027 1002.02 573.38 998.812 573.38 997.654 578.517C997.503 579.187 997.428 579.693 997.428 580.035 997.428 580.308 997.472 580.507 997.561 580.63 997.65 580.753 997.79 580.814 997.982 580.814 998.214 580.814 998.467 580.718 998.74 580.527 999.014 580.336 999.325 580.031 999.674 579.614L1000.27 580.168C999.68 580.824 999.156 581.293 998.694 581.573 998.233 581.853 997.76 581.993 997.274 581.993 996.789 581.993 996.406 581.833 996.126 581.511 995.845 581.19 995.705 580.773 995.705 580.26 995.705 579.802 995.801 579.139 995.992 578.271L996.136 577.625C996.245 577.126 996.408 576.47 996.623 575.656 996.838 574.843 997.055 574.115 997.274 573.472L997.223 573.38 996.341 573.38C995.89 573.38 995.543 573.416 995.3 573.488 995.058 573.56 994.82 573.683 994.588 573.857 994.355 574.031 994.113 574.282 993.86 574.611L993.214 574.067C993.583 573.609 993.906 573.25 994.183 572.99 994.459 572.731 994.724 572.534 994.977 572.401 995.23 572.268 995.504 572.172 995.798 572.114 996.092 572.056 996.478 572.027 996.956 572.027Z" fill="#4B5E68" fill-rule="evenodd"/><text fill="#000000" fill-opacity="0" font-family="Arial,Arial_MSFontService,sans-serif" font-size="9.9668" x="993.214" y="580.747">𝜏</text><path d="M1007.35 576.065C1007.89 576.065 1008.36 576.127 1008.74 576.249 1009.12 576.371 1009.43 576.537 1009.67 576.745 1009.91 576.953 1010.09 577.203 1010.19 577.495 1010.3 577.787 1010.35 578.102 1010.35 578.44 1010.35 578.644 1010.34 578.832 1010.31 579.007 1010.28 579.181 1010.23 579.353 1010.16 579.522 1010.09 579.692 1010 579.862 1009.88 580.034 1009.77 580.206 1009.63 580.388 1009.45 580.581 1009.32 580.748 1009.15 580.94 1008.95 581.159 1008.74 581.378 1008.51 581.612 1008.26 581.862 1008.01 582.112 1007.76 582.373 1007.48 582.644 1007.21 582.914 1006.95 583.183 1006.7 583.448 1006.44 583.714 1006.21 583.972 1005.99 584.222 1005.78 584.472 1005.6 584.701 1005.47 584.909L1008.36 584.909C1008.6 584.909 1008.8 584.9 1008.95 584.882 1009.09 584.864 1009.21 584.823 1009.31 584.761 1009.41 584.698 1009.49 584.603 1009.56 584.476 1009.62 584.348 1009.7 584.172 1009.79 583.948L1010.52 583.948C1010.49 584.318 1010.47 584.69 1010.44 585.065 1010.42 585.44 1010.39 585.813 1010.37 586.183L1003.75 586.183 1003.75 585.776C1003.88 585.495 1004.02 585.218 1004.19 584.944 1004.35 584.671 1004.54 584.394 1004.75 584.112 1004.96 583.831 1005.2 583.541 1005.46 583.241 1005.73 582.942 1006.02 582.631 1006.34 582.308 1006.83 581.818 1007.23 581.4 1007.54 581.054 1007.85 580.707 1008.09 580.399 1008.27 580.128 1008.44 579.857 1008.56 579.607 1008.63 579.378 1008.69 579.149 1008.73 578.904 1008.73 578.644 1008.73 578.378 1008.69 578.133 1008.61 577.909 1008.54 577.685 1008.43 577.495 1008.29 577.339 1008.15 577.183 1007.97 577.06 1007.75 576.972 1007.54 576.883 1007.29 576.839 1007.01 576.839 1006.52 576.839 1006.12 576.97 1005.79 577.233 1005.46 577.496 1005.21 577.878 1005.02 578.378L1004 578.378 1004 576.854C1004.67 576.578 1005.28 576.378 1005.84 576.253 1006.4 576.128 1006.9 576.065 1007.35 576.065Z" fill="#4B5E68" fill-rule="evenodd"/><text fill="#000000" fill-opacity="0" font-family="Arial,Arial_MSFontService,sans-serif" font-size="10.1172" x="1003.75" y="584.918">2</text><path d="M1041.56 569.463 1041.56 571.001 1030.42 575.831 1041.56 580.66 1041.56 582.198 1028.88 576.549 1028.88 575.113Z" fill="#4B5E68" fill-rule="evenodd"/><text fill="#000000" fill-opacity="0" font-family="Arial,Arial_MSFontService,sans-serif" font-size="12.7354" x="1028.88" y="580.607">&lt;</text><path d="M1057.28 575.195C1056.96 576.678 1056.8 577.926 1056.8 578.938 1056.8 579.703 1056.91 580.266 1057.15 580.624 1057.38 580.983 1057.76 581.163 1058.28 581.163 1059.04 581.163 1059.77 580.648 1060.45 579.62 1061.14 578.591 1061.72 577.116 1062.2 575.195ZM1061.48 568.284C1060.68 568.284 1059.94 568.79 1059.26 569.801 1058.58 570.813 1058.01 572.262 1057.53 574.149L1062.44 574.149C1062.76 572.707 1062.92 571.466 1062.92 570.427 1062.92 569.709 1062.8 569.173 1062.57 568.817 1062.34 568.462 1061.98 568.284 1061.48 568.284ZM1061.61 567.453C1063.59 567.453 1064.58 568.711 1064.58 571.227 1064.58 571.938 1064.5 572.787 1064.34 573.775 1064.18 574.763 1063.93 575.769 1063.58 576.795 1063.23 577.82 1062.79 578.727 1062.25 579.517 1061.72 580.307 1061.11 580.917 1060.41 581.347 1059.71 581.778 1058.96 581.993 1058.15 581.993 1057.13 581.993 1056.37 581.682 1055.88 581.06 1055.38 580.438 1055.13 579.505 1055.13 578.261 1055.13 577.584 1055.2 576.75 1055.35 575.759 1055.5 574.768 1055.75 573.754 1056.1 572.719 1056.44 571.683 1056.89 570.764 1057.43 569.96 1057.97 569.157 1058.6 568.539 1059.31 568.104 1060.01 567.67 1060.78 567.453 1061.61 567.453Z" fill="#4B5E68" fill-rule="evenodd"/><text fill="#000000" fill-opacity="0" font-family="Arial,Arial_MSFontService,sans-serif" font-size="14.54" x="1055.13" y="580.176">𝜃</text><path d="M885.143 540.194 891.94 540.194 891.94 540.569 887.354 550.202 886.159 550.202 886.159 549.85 890.362 541.678 890.362 541.561 887.05 541.561C886.821 541.561 886.642 541.579 886.515 541.616 886.387 541.652 886.274 541.704 886.175 541.772 886.133 541.808 886.097 541.846 886.065 541.885 886.034 541.924 886.003 541.976 885.972 542.042 885.94 542.107 885.908 542.193 885.874 542.299 885.84 542.406 885.8 542.543 885.753 542.709L884.972 542.709Z" fill="#4B5E68" fill-rule="evenodd"/><text fill="#000000" fill-opacity="0" font-family="Arial,Arial_MSFontService,sans-serif" font-size="10.0078" x="884.972" y="548.951">7</text><path d="M873.419 601.21 877.888 601.21 877.646 602.421 874.974 602.421C874.823 603.093 874.67 603.765 874.517 604.437 874.363 605.109 874.208 605.786 874.052 606.468 873.995 606.702 873.954 606.911 873.931 607.093 873.907 607.275 873.896 607.434 873.896 607.57 873.896 607.736 873.928 607.869 873.993 607.968 874.058 608.067 874.182 608.116 874.364 608.116 874.562 608.116 874.779 608.029 875.013 607.855 875.247 607.68 875.508 607.424 875.794 607.085L876.333 607.601C876.062 607.882 875.815 608.122 875.591 608.32 875.367 608.517 875.152 608.679 874.946 608.804 874.741 608.929 874.539 609.02 874.341 609.077 874.143 609.135 873.94 609.163 873.732 609.163 873.529 609.163 873.345 609.127 873.181 609.054 873.017 608.981 872.876 608.878 872.759 608.745 872.642 608.612 872.551 608.455 872.486 608.273 872.42 608.09 872.388 607.892 872.388 607.679 872.388 607.528 872.405 607.334 872.439 607.097 872.473 606.86 872.519 606.596 872.579 606.304 872.639 606.012 872.709 605.702 872.79 605.374 872.871 605.046 872.957 604.713 873.048 604.374 873.139 604.036 873.236 603.702 873.337 603.374 873.439 603.046 873.539 602.739 873.638 602.452 873.638 602.432 873.633 602.421 873.622 602.421L872.779 602.421C872.544 602.426 872.344 602.443 872.177 602.472 872.01 602.5 871.857 602.551 871.716 602.624 871.575 602.697 871.435 602.797 871.294 602.925 871.154 603.053 870.992 603.218 870.81 603.421L870.239 602.874C870.448 602.645 870.635 602.446 870.802 602.277 870.969 602.107 871.125 601.961 871.271 601.839 871.417 601.717 871.561 601.615 871.704 601.534 871.848 601.454 872.002 601.39 872.169 601.343 872.336 601.296 872.519 601.264 872.72 601.245 872.92 601.227 873.154 601.215 873.419 601.21Z" fill="#4B5E68" fill-rule="evenodd"/><text fill="#000000" fill-opacity="0" font-family="Arial,Arial_MSFontService,sans-serif" font-size="7.95312" x="870.239" y="608.169">𝜏</text><path d="M881.634 604.338C882.12 604.338 882.523 604.391 882.843 604.496 883.163 604.602 883.417 604.74 883.608 604.909 883.798 605.078 883.932 605.277 884.008 605.506 884.084 605.734 884.122 605.969 884.122 606.21 884.122 606.515 884.061 606.797 883.938 607.058 883.815 607.318 883.614 607.601 883.335 607.908 883.056 608.215 882.556 608.694 881.837 609.346 881.071 610.04 880.514 610.641 880.167 611.149L882.459 611.149C882.675 611.149 882.84 611.138 882.954 611.117 883.068 611.096 883.159 611.063 883.227 611.018 883.295 610.974 883.352 610.918 883.398 610.85 883.445 610.783 883.515 610.634 883.608 610.406L884.249 610.406 884.116 612.196 878.682 612.196 878.682 611.847C878.894 611.394 879.179 610.949 879.539 610.511 879.899 610.073 880.318 609.621 880.796 609.155 881.371 608.605 881.78 608.191 882.021 607.911 882.262 607.632 882.441 607.366 882.557 607.115 882.674 606.863 882.732 606.61 882.732 606.356 882.732 605.937 882.613 605.607 882.376 605.366 882.139 605.125 881.799 605.004 881.354 605.004 880.969 605.004 880.643 605.106 880.374 605.309 880.105 605.512 879.901 605.812 879.761 606.21L878.879 606.21 878.879 604.96C879.429 604.735 879.936 604.576 880.399 604.48 880.863 604.385 881.274 604.338 881.634 604.338Z" fill="#4B5E68" fill-rule="evenodd"/><text fill="#000000" fill-opacity="0" font-family="Arial,Arial_MSFontService,sans-serif" font-size="7.8584" x="878.682" y="611.214">2</text><path d="M887.402 605.554 896.402 605.554 896.402 606.749 887.402 606.749ZM887.402 602.155 896.402 602.155 896.402 603.351 887.402 603.351Z" fill="#4B5E68" fill-rule="evenodd"/><text fill="#000000" fill-opacity="0" font-family="Arial,Arial_MSFontService,sans-serif" font-size="4.59375" x="887.402" y="606.175">=</text><path d="M902.688 598.96 903.165 598.96C903.154 599.247 903.146 599.503 903.141 599.73 903.136 599.956 903.132 600.176 903.13 600.39 903.127 600.603 903.126 600.814 903.126 601.023L903.126 606.96C903.126 607.122 903.131 607.261 903.141 607.378 903.152 607.495 903.169 607.594 903.192 607.675 903.216 607.756 903.247 607.825 903.286 607.882 903.325 607.939 903.37 607.989 903.423 608.03 903.485 608.093 903.568 608.141 903.673 608.175 903.777 608.209 903.91 608.237 904.071 608.261 904.232 608.284 904.426 608.303 904.653 608.316 904.88 608.329 905.152 608.338 905.469 608.343L905.469 609.023 899.274 609.023 899.274 608.343C899.581 608.333 899.842 608.321 900.055 608.308 900.269 608.295 900.451 608.277 900.602 608.253 900.753 608.23 900.874 608.204 900.966 608.175 901.057 608.146 901.136 608.111 901.204 608.07 901.277 608.023 901.339 607.972 901.391 607.917 901.443 607.862 901.485 607.793 901.516 607.71 901.548 607.627 901.572 607.525 901.591 607.405 901.609 607.286 901.618 607.137 901.618 606.96L901.618 601.359C901.618 601.155 901.579 601.012 901.501 600.929 901.423 600.846 901.311 600.804 901.165 600.804 901.003 600.804 900.764 600.887 900.446 601.054 900.128 601.221 899.717 601.468 899.212 601.796 899.144 601.676 899.081 601.557 899.024 601.437 898.967 601.317 898.907 601.195 898.844 601.07 899.49 600.715 900.13 600.362 900.762 600.011 901.395 599.659 902.037 599.309 902.688 598.96Z" fill="#4B5E68" fill-rule="evenodd"/><text fill="#000000" fill-opacity="0" font-family="Arial,Arial_MSFontService,sans-serif" font-size="10.0625" x="898.844" y="607.765">1</text><text fill="#4B5E68" font-family="Cambria Math,Cambria Math_MSFontService,sans-serif" font-weight="400" font-size="21" transform="translate(711.209 677)"></text><text fill="#4B5E68" font-family="Cambria Math,Cambria Math_MSFontService,sans-serif" font-weight="400" font-size="21" transform="translate(715.876 677)">𝑃</text><text fill="#4B5E68" font-family="Cambria Math,Cambria Math_MSFontService,sans-serif" font-weight="400" font-size="16" transform="translate(729.042 682)">θ</text><path d="M757.969 661.719C759.965 662.246 761.498 663.382 762.568 665.129 763.638 666.875 764.173 668.983 764.173 671.45 764.173 673.925 763.639 676.032 762.573 677.772 761.507 679.512 759.972 680.645 757.969 681.171L757.723 680.382C759.302 679.855 760.476 678.816 761.245 677.264 762.014 675.713 762.399 673.74 762.399 671.348 762.399 669.037 762.016 667.118 761.25 665.59 760.485 664.062 759.299 663.035 757.692 662.509ZM747.478 661.719 747.755 662.509C746.156 663.035 744.971 664.062 744.202 665.59 743.433 667.118 743.049 669.037 743.049 671.348 743.049 673.74 743.433 675.713 744.202 677.264 744.971 678.816 746.145 679.855 747.724 680.382L747.478 681.171C745.475 680.645 743.941 679.512 742.874 677.772 741.808 676.032 741.275 673.925 741.275 671.45 741.275 668.983 741.81 666.875 742.88 665.129 743.949 663.382 745.482 662.246 747.478 661.719Z" fill="#4B5E68" fill-rule="evenodd"/><text fill="#4B5E68" font-family="Cambria Math,Cambria Math_MSFontService,sans-serif" font-weight="400" font-size="21" transform="translate(748.282 677)">𝑡</text><text fill="#4B5E68" font-family="Cambria Math,Cambria Math_MSFontService,sans-serif" font-weight="400" font-size="21" transform="translate(769.116 677)"></text><text fill="#4B5E68" font-family="Cambria Math,Cambria Math_MSFontService,sans-serif" font-weight="400" font-size="21" transform="translate(776.749 677)">=</text><text fill="#4B5E68" font-family="Cambria Math,Cambria Math_MSFontService,sans-serif" font-weight="400" font-size="21" transform="translate(795.709 677)"></text><text fill="#4B5E68" font-family="Cambria Math,Cambria Math_MSFontService,sans-serif" font-weight="400" font-size="21" transform="translate(803.689 661)">1</text><text fill="#4B5E68" font-family="Cambria Math,Cambria Math_MSFontService,sans-serif" font-weight="400" font-size="21" transform="translate(803.342 692)">𝑛</text><path d="M803.562 670.456 816.562 670.456 816.562 671.456 803.562 671.456Z" fill="#4B5E68" fill-rule="evenodd"/><path d="M4.78857-24.7017 17.0215-8.09033 17.0215-6.84961 3.81445 11.0742 21.605 11.0742C22.3911 11.0742 22.9927 10.7974 23.4097 10.2437 23.8267 9.68994 24.1855 8.45264 24.4863 6.53174L26.0039 6.53174 25.481 14.0479 0.266602 14.0479 0.266602 13.0327 14.6323-6.43945 0.687012-25.0708 0.687012-26.0449 25.4502-26.0449 25.4502-19.9746 24.0967-19.9746C23.9395-21.4307 23.6216-22.5825 23.1431-23.4302 22.6646-24.2778 21.9399-24.7017 20.9692-24.7017Z" fill="#4B5E68" transform="translate(819.429 677)"/><text fill="#000000" fill-opacity="0" font-family="Arial,Arial_MSFontService,sans-serif" font-size="40.0928" x="0.266602" y="9.03625">෍</text><text fill="#4B5E68" font-family="Cambria Math,Cambria Math_MSFontService,sans-serif" font-weight="400" font-size="21" transform="translate(851.262 677)">𝑓</text><text fill="#4B5E68" font-family="Cambria Math,Cambria Math_MSFontService,sans-serif" font-weight="400" font-size="16" transform="translate(859.596 682)">𝑖</text><path d="M885.056 661.719C887.052 662.246 888.585 663.382 889.654 665.129 890.724 666.875 891.259 668.983 891.259 671.45 891.259 673.925 890.726 676.032 889.66 677.772 888.593 679.512 887.059 680.645 885.056 681.171L884.81 680.382C886.389 679.855 887.563 678.816 888.332 677.264 889.101 675.713 889.485 673.74 889.485 671.348 889.485 669.037 889.102 667.118 888.337 665.59 887.571 664.062 886.385 663.035 884.779 662.509ZM874.565 661.719 874.842 662.509C873.242 663.035 872.058 664.062 871.289 665.59 870.52 667.118 870.135 669.037 870.135 671.348 870.135 673.74 870.52 675.713 871.289 677.264 872.058 678.816 873.232 679.855 874.811 680.382L874.565 681.171C872.562 680.645 871.027 679.512 869.961 677.772 868.895 676.032 868.361 673.925 868.361 671.45 868.361 668.983 868.896 666.875 869.966 665.129 871.036 663.382 872.569 662.246 874.565 661.719Z" fill="#4B5E68" fill-rule="evenodd"/><text fill="#4B5E68" font-family="Cambria Math,Cambria Math_MSFontService,sans-serif" font-weight="400" font-size="21" transform="translate(875.369 677)">𝑡</text><text fill="#4B5E68" font-family="Cambria Math,Cambria Math_MSFontService,sans-serif" font-weight="400" font-size="16" transform="translate(828.349 646)">𝑛</text><text fill="#4B5E68" font-family="Cambria Math,Cambria Math_MSFontService,sans-serif" font-weight="400" font-size="16" transform="translate(820.382 705)">𝑖</text><text fill="#4B5E68" font-family="Cambria Math,Cambria Math_MSFontService,sans-serif" font-weight="400" font-size="16" transform="translate(826.416 705)">=</text><text fill="#4B5E68" font-family="Cambria Math,Cambria Math_MSFontService,sans-serif" font-weight="400" font-size="16" transform="translate(837.749 705)">1</text><path d="M119.5 319C119.5 306.021 130.021 295.5 143 295.5 155.979 295.5 166.5 306.021 166.5 319 166.5 331.979 155.979 342.5 143 342.5 130.021 342.5 119.5 331.979 119.5 319Z" stroke="#264980" stroke-width="1.33333" stroke-miterlimit="8" fill="#D9D9D9" fill-rule="evenodd"/><path d="M202.5 318C202.5 305.021 213.245 294.5 226.5 294.5 239.755 294.5 250.5 305.021 250.5 318 250.5 330.979 239.755 341.5 226.5 341.5 213.245 341.5 202.5 330.979 202.5 318Z" stroke="#264980" stroke-width="1.33333" stroke-miterlimit="8" fill="#D9D9D9" fill-rule="evenodd"/><path d="M279.5 318C279.5 305.021 290.245 294.5 303.5 294.5 316.755 294.5 327.5 305.021 327.5 318 327.5 330.979 316.755 341.5 303.5 341.5 290.245 341.5 279.5 330.979 279.5 318Z" stroke="#264980" stroke-width="1.33333" stroke-miterlimit="8" fill="#D9D9D9" fill-rule="evenodd"/><text fill="#FFFFFF" font-family="Arial,Arial_MSFontService,sans-serif" font-weight="400" font-size="24" transform="translate(27.2654 330)">‘</text><text fill="#4B5E68" font-family="Arial,Arial_MSFontService,sans-serif" font-weight="400" font-size="24" transform="translate(32.5987 330)">t = T</text><text fill="#FFFFFF" font-family="Arial,Arial_MSFontService,sans-serif" font-weight="400" font-size="24" transform="translate(31.5267 400)">‘</text><text fill="#4B5E68" font-family="Arial,Arial_MSFontService,sans-serif" font-weight="400" font-size="24" transform="translate(36.8601 400)">t = T+1</text><path d="M362.5 385.5C362.5 372.798 373.021 362.5 386 362.5 398.979 362.5 409.5 372.798 409.5 385.5 409.5 398.203 398.979 408.5 386 408.5 373.021 408.5 362.5 398.203 362.5 385.5Z" stroke="#A0234E" stroke-width="1.33333" stroke-miterlimit="8" fill="#F2DCDB" fill-rule="evenodd"/><path d="M110.5 344.5 348.61 344.5" stroke="#4B5E68" stroke-width="1.33333" stroke-miterlimit="8" fill="none" fill-rule="evenodd"/><path d="M110.5 308.5 110.5 346.295" stroke="#4B5E68" stroke-width="1.33333" stroke-miterlimit="8" fill="none" fill-rule="evenodd"/><path d="M347.5 306.5 347.5 344.295" stroke="#4B5E68" stroke-width="1.33333" stroke-miterlimit="8" fill="none" fill-rule="evenodd"/><path d="M415.5 466.5C415.5 453.798 426.245 443.5 439.5 443.5 452.755 443.5 463.5 453.798 463.5 466.5 463.5 479.203 452.755 489.5 439.5 489.5 426.245 489.5 415.5 479.203 415.5 466.5Z" stroke="#A0234E" stroke-width="1.33333" stroke-miterlimit="8" fill="#F2DCDB" fill-rule="evenodd"/><text fill="#FFFFFF" font-family="Arial,Arial_MSFontService,sans-serif" font-weight="400" font-size="24" transform="translate(30.1064 477)">‘</text><text fill="#4B5E68" font-family="Arial,Arial_MSFontService,sans-serif" font-weight="400" font-size="24" transform="translate(35.4397 477)">t = T +2</text><path d="M322.5 384.833 346.07 384.833 346.07 386.167 322.5 386.167ZM344.736 381.5 352.736 385.5 344.736 389.5Z" fill="#4B5E68"/><path d="M322.5 355.5 322.5 385.736" stroke="#4B5E68" stroke-width="1.33333" stroke-miterlimit="8" fill="none" fill-rule="evenodd"/><path d="M195.5 412.5 433.61 412.5" stroke="#4B5E68" stroke-width="1.33333" stroke-miterlimit="8" fill="none" fill-rule="evenodd"/><path d="M195.5 375.5 195.5 413.295" stroke="#4B5E68" stroke-width="1.33333" stroke-miterlimit="8" fill="none" fill-rule="evenodd"/><path d="M431.5 374.5 431.5 412.295" stroke="#4B5E68" stroke-width="1.33333" stroke-miterlimit="8" fill="none" fill-rule="evenodd"/><path d="M372.5 461.833 396.07 461.833 396.07 463.167 372.5 463.167ZM394.736 458.5 402.736 462.5 394.736 466.5Z" fill="#4B5E68"/><path d="M372.5 432.5 372.5 462.736" stroke="#4B5E68" stroke-width="1.33333" stroke-miterlimit="8" fill="none" fill-rule="evenodd"/><text fill="#FFFFFF" font-family="Arial,Arial_MSFontService,sans-serif" font-weight="400" font-size="24" transform="translate(30.1062 617)">‘</text><text fill="#4B5E68" font-family="Arial,Arial_MSFontService,sans-serif" font-weight="400" font-size="24" transform="translate(35.4396 617)">t = T + 7</text><path d="M261.5 496.5 499.61 496.5" stroke="#4B5E68" stroke-width="1.33333" stroke-miterlimit="8" fill="none" fill-rule="evenodd"/><path d="M261.5 460.5 261.5 498.295" stroke="#4B5E68" stroke-width="1.33333" stroke-miterlimit="8" fill="none" fill-rule="evenodd"/><path d="M497.5 458.5 497.5 496.295" stroke="#4B5E68" stroke-width="1.33333" stroke-miterlimit="8" fill="none" fill-rule="evenodd"/><path d="M328.5 561.5 566.61 561.5" stroke="#4B5E68" stroke-width="1.33333" stroke-miterlimit="8" fill="none" fill-rule="evenodd"/><path d="M328.5 525.5 328.5 563.295" stroke="#4B5E68" stroke-width="1.33333" stroke-miterlimit="8" fill="none" fill-rule="evenodd"/><path d="M565.5 523.5 565.5 561.295" stroke="#4B5E68" stroke-width="1.33333" stroke-miterlimit="8" fill="none" fill-rule="evenodd"/><path d="M560.5 619.5C560.5 606.797 571.245 596.5 584.5 596.5 597.755 596.5 608.5 606.797 608.5 619.5 608.5 632.203 597.755 642.5 584.5 642.5 571.245 642.5 560.5 632.203 560.5 619.5Z" stroke="#A0234E" stroke-width="1.33333" stroke-miterlimit="8" fill="#F2DCDB" fill-rule="evenodd"/><path d="M519.5 613.833 543.07 613.833 543.07 615.167 519.5 615.167ZM541.736 610.5 549.736 614.5 541.736 618.5Z" fill="#4B5E68"/><path d="M519.5 583.5 519.5 613.736" stroke="#4B5E68" stroke-width="1.33333" stroke-miterlimit="8" fill="none" fill-rule="evenodd"/><text fill="#4B5E68" font-family="Cambria Math,Cambria Math_MSFontService,sans-serif" font-weight="400" font-size="21" transform="translate(658.963 264)">𝐼</text><text fill="#4B5E68" font-family="Cambria Math,Cambria Math_MSFontService,sans-serif" font-weight="400" font-size="16" transform="translate(665.883 268)">𝑛𝑒𝑤</text><path d="M762.236 248.358C764.232 248.885 765.765 250.021 766.835 251.768 767.905 253.514 768.44 255.622 768.44 258.089 768.44 260.564 767.906 262.671 766.84 264.411 765.774 266.151 764.239 267.284 762.236 267.81L761.99 267.021C763.569 266.494 764.743 265.455 765.512 263.903 766.281 262.352 766.666 260.379 766.666 257.987 766.666 255.676 766.283 253.757 765.517 252.229 764.752 250.701 763.566 249.674 761.959 249.148ZM706.545 248.358 706.822 249.148C705.223 249.674 704.038 250.701 703.269 252.229 702.5 253.757 702.116 255.676 702.116 257.987 702.116 260.379 702.5 262.352 703.269 263.903 704.038 265.455 705.212 266.494 706.792 267.021L706.545 267.81C704.543 267.284 703.008 266.151 701.941 264.411 700.875 262.671 700.342 260.564 700.342 258.089 700.342 255.622 700.877 253.514 701.947 251.768 703.016 250.021 704.549 248.885 706.545 248.358Z" fill="#4B5E68" fill-rule="evenodd"/><text fill="#4B5E68" font-family="Cambria Math,Cambria Math_MSFontService,sans-serif" font-weight="400" font-size="21" transform="translate(707.349 264)">𝑡</text><text fill="#4B5E68" font-family="Cambria Math,Cambria Math_MSFontService,sans-serif" font-weight="400" font-size="21" transform="translate(721.109 264)">+</text><text fill="#4B5E68" font-family="Cambria Math,Cambria Math_MSFontService,sans-serif" font-weight="400" font-size="21" transform="translate(741.849 264)">𝜏</text><text fill="#4B5E68" font-family="Cambria Math,Cambria Math_MSFontService,sans-serif" font-weight="400" font-size="16" transform="translate(751.683 268)">2</text><text fill="#4B5E68" font-family="Cambria Math,Cambria Math_MSFontService,sans-serif" font-weight="400" font-size="21" transform="translate(770.423 264)"></text><text fill="#4B5E68" font-family="Cambria Math,Cambria Math_MSFontService,sans-serif" font-weight="400" font-size="21" transform="translate(775.089 264)"></text><text fill="#4B5E68" font-family="Cambria Math,Cambria Math_MSFontService,sans-serif" font-weight="400" font-size="21" transform="translate(779.756 264)">~</text><text fill="#4B5E68" font-family="Cambria Math,Cambria Math_MSFontService,sans-serif" font-weight="400" font-size="21" transform="translate(794.923 264)"></text><text fill="#4B5E68" font-family="Cambria Math,Cambria Math_MSFontService,sans-serif" font-weight="400" font-size="21" transform="translate(799.589 264)">𝑃𝑜𝑖𝑠𝑠𝑜𝑛</text><path d="M1247.3 219.074C1250.77 223.1 1253.53 228.577 1255.58 235.505 1257.63 242.434 1258.65 249.948 1258.65 258.049 1258.65 265.971 1257.63 273.462 1255.58 280.52 1253.53 287.578 1250.77 293.114 1247.3 297.126L1246.6 296.439C1249.8 292.317 1252.24 286.768 1253.91 279.792 1255.59 272.816 1256.43 265.565 1256.43 258.038 1256.43 250.314 1255.59 243.035 1253.91 236.203 1252.24 229.37 1249.8 223.896 1246.6 219.781ZM890.97 219.074 891.657 219.781C888.465 223.896 886.031 229.37 884.357 236.203 882.682 243.035 881.844 250.314 881.844 258.038 881.844 265.565 882.68 272.816 884.352 279.792 886.023 286.768 888.458 292.317 891.657 296.439L890.97 297.126C887.491 293.114 884.729 287.578 882.685 280.52 880.641 273.462 879.619 265.971 879.619 258.049 879.619 249.948 880.641 242.434 882.685 235.505 884.729 228.577 887.491 223.1 890.97 219.074Z" fill="#4B5E68" fill-rule="evenodd"/><text fill="#4B5E68" font-family="Cambria Math,Cambria Math_MSFontService,sans-serif" font-weight="400" font-size="21" transform="translate(892.549 264)">𝑅</text><text fill="#4B5E68" font-family="Cambria Math,Cambria Math_MSFontService,sans-serif" font-weight="400" font-size="16" transform="translate(906.843 256)">𝑒𝑓𝑓</text><path d="M953.856 248.358C955.852 248.885 957.385 250.021 958.455 251.768 959.525 253.514 960.06 255.622 960.06 258.089 960.06 260.564 959.526 262.671 958.46 264.411 957.394 266.151 955.859 267.284 953.856 267.81L953.61 267.021C955.189 266.494 956.363 265.455 957.132 263.903 957.901 262.352 958.286 260.379 958.286 257.987 958.286 255.676 957.903 253.757 957.137 252.229 956.372 250.701 955.186 249.674 953.579 249.148ZM943.365 248.358 943.642 249.148C942.043 249.674 940.858 250.701 940.089 252.229 939.32 253.757 938.936 255.676 938.936 257.987 938.936 260.379 939.32 262.352 940.089 263.903 940.858 265.455 942.032 266.494 943.612 267.021L943.365 267.81C941.363 267.284 939.828 266.151 938.761 264.411 937.695 262.671 937.162 260.564 937.162 258.089 937.162 255.622 937.697 253.514 938.767 251.768 939.836 250.021 941.369 248.885 943.365 248.358Z" fill="#4B5E68" fill-rule="evenodd"/><text fill="#4B5E68" font-family="Cambria Math,Cambria Math_MSFontService,sans-serif" font-weight="400" font-size="21" transform="translate(944.169 264)">𝑡</text><path d="M4.78857-24.7017 17.0215-8.09033 17.0215-6.84961 3.81445 11.0742 21.605 11.0742C22.3911 11.0742 22.9927 10.7974 23.4097 10.2437 23.8267 9.68994 24.1855 8.45264 24.4863 6.53174L26.0039 6.53174 25.481 14.0479 0.266602 14.0479 0.266602 13.0327 14.6323-6.43945 0.687012-25.0708 0.687012-26.0449 25.4502-26.0449 25.4502-19.9746 24.0967-19.9746C23.9395-21.4307 23.6216-22.5825 23.1431-23.4302 22.6646-24.2778 21.9399-24.7017 20.9692-24.7017Z" fill="#4B5E68" transform="translate(969.696 264)"/><text fill="#000000" fill-opacity="0" font-family="Arial,Arial_MSFontService,sans-serif" font-size="40.0928" x="0.266602" y="9.03625">෍</text><text fill="#4B5E68" font-family="Cambria Math,Cambria Math_MSFontService,sans-serif" font-weight="400" font-size="21" transform="translate(1005.63 264)">𝐽</text><path d="M1178.67 245.413C1180.81 245.973 1182.45 247.426 1183.6 249.771 1184.76 252.115 1185.34 254.891 1185.34 258.097 1185.34 261.303 1184.76 264.078 1183.6 266.423 1182.45 268.768 1180.81 270.22 1178.67 270.781L1178.42 269.94C1180.07 269.318 1181.32 267.963 1182.17 265.874 1183.03 263.786 1183.45 261.197 1183.45 258.107 1183.45 255.01 1183.03 252.416 1182.17 250.324 1181.32 248.233 1180.07 246.876 1178.42 246.254ZM1022.73 245.413 1022.98 246.254C1021.33 246.876 1020.08 248.233 1019.23 250.324 1018.37 252.416 1017.95 255.01 1017.95 258.107 1017.95 261.197 1018.37 263.786 1019.23 265.874 1020.08 267.963 1021.33 269.318 1022.98 269.94L1022.73 270.781C1020.59 270.22 1018.95 268.768 1017.79 266.423 1016.64 264.078 1016.06 261.303 1016.06 258.097 1016.06 254.891 1016.64 252.115 1017.79 249.771 1018.95 247.426 1020.59 245.973 1022.73 245.413Z" fill="#4B5E68" fill-rule="evenodd"/><path d="M1124.86 248.358C1126.85 248.885 1128.39 250.021 1129.45 251.768 1130.52 253.514 1131.06 255.622 1131.06 258.089 1131.06 260.564 1130.53 262.671 1129.46 264.411 1128.39 266.151 1126.86 267.284 1124.86 267.81L1124.61 267.021C1126.19 266.494 1127.36 265.455 1128.13 263.903 1128.9 262.352 1129.29 260.379 1129.29 257.987 1129.29 255.676 1128.9 253.757 1128.14 252.229 1127.37 250.701 1126.19 249.674 1124.58 249.148ZM1031.85 248.358 1032.13 249.148C1030.53 249.674 1029.35 250.701 1028.58 252.229 1027.81 253.757 1027.42 255.676 1027.42 257.987 1027.42 260.379 1027.81 262.352 1028.58 263.903 1029.35 265.455 1030.52 266.494 1032.1 267.021L1031.85 267.81C1029.85 267.284 1028.31 266.151 1027.25 264.411 1026.18 262.671 1025.65 260.564 1025.65 258.089 1025.65 255.622 1026.18 253.514 1027.25 251.768 1028.32 250.021 1029.86 248.885 1031.85 248.358Z" fill="#4B5E68" fill-rule="evenodd"/><text fill="#4B5E68" font-family="Cambria Math,Cambria Math_MSFontService,sans-serif" font-weight="400" font-size="21" transform="translate(1032.66 264)">𝑡</text><text fill="#4B5E68" font-family="Cambria Math,Cambria Math_MSFontService,sans-serif" font-weight="400" font-size="21" transform="translate(1046.42 264)">+</text><text fill="#4B5E68" font-family="Cambria Math,Cambria Math_MSFontService,sans-serif" font-weight="400" font-size="21" transform="translate(1067.16 264)">1</text><text fill="#4B5E68" font-family="Cambria Math,Cambria Math_MSFontService,sans-serif" font-weight="400" font-size="21" transform="translate(1083.73 264)">+</text><text fill="#4B5E68" font-family="Cambria Math,Cambria Math_MSFontService,sans-serif" font-weight="400" font-size="21" transform="translate(1104.47 264)">𝜏</text><text fill="#4B5E68" font-family="Cambria Math,Cambria Math_MSFontService,sans-serif" font-weight="400" font-size="16" transform="translate(1114.3 268)">2</text><text fill="#4B5E68" font-family="Cambria Math,Cambria Math_MSFontService,sans-serif" font-weight="400" font-size="21" transform="translate(1137.78 264)">−</text><text fill="#4B5E68" font-family="Cambria Math,Cambria Math_MSFontService,sans-serif" font-weight="400" font-size="21" transform="translate(1158.52 264)">𝜏</text><text fill="#4B5E68" font-family="Cambria Math,Cambria Math_MSFontService,sans-serif" font-weight="400" font-size="16" transform="translate(1167.86 268)">1</text><text fill="#4B5E68" font-family="Cambria Math,Cambria Math_MSFontService,sans-serif" font-weight="400" font-size="21" transform="translate(1187.34 264)">𝑔</text><text fill="#4B5E68" font-family="Cambria Math,Cambria Math_MSFontService,sans-serif" font-weight="400" font-size="16" transform="translate(1199.12 268)">1</text><path d="M1237.75 248.358C1239.75 248.885 1241.28 250.021 1242.35 251.768 1243.42 253.514 1243.95 255.622 1243.95 258.089 1243.95 260.564 1243.42 262.671 1242.35 264.411 1241.29 266.151 1239.75 267.284 1237.75 267.81L1237.5 267.021C1239.08 266.494 1240.26 265.455 1241.03 263.903 1241.79 262.352 1242.18 260.379 1242.18 257.987 1242.18 255.676 1241.8 253.757 1241.03 252.229 1240.26 250.701 1239.08 249.674 1237.47 249.148ZM1217.05 248.358 1217.33 249.148C1215.73 249.674 1214.55 250.701 1213.78 252.229 1213.01 253.757 1212.62 255.676 1212.62 257.987 1212.62 260.379 1213.01 262.352 1213.78 263.903 1214.55 265.455 1215.72 266.494 1217.3 267.021L1217.05 267.81C1215.05 267.284 1213.51 266.151 1212.45 264.411 1211.38 262.671 1210.85 260.564 1210.85 258.089 1210.85 255.622 1211.38 253.514 1212.45 251.768 1213.52 250.021 1215.06 248.885 1217.05 248.358Z" fill="#4B5E68" fill-rule="evenodd"/><text fill="#4B5E68" font-family="Cambria Math,Cambria Math_MSFontService,sans-serif" font-weight="400" font-size="21" transform="translate(1217.86 264)">𝜏</text><text fill="#4B5E68" font-family="Cambria Math,Cambria Math_MSFontService,sans-serif" font-weight="400" font-size="16" transform="translate(1227.2 268)">1</text><text fill="#4B5E68" font-family="Cambria Math,Cambria Math_MSFontService,sans-serif" font-weight="400" font-size="16" transform="translate(970.043 232)">𝑡</text><text fill="#4B5E68" font-family="Cambria Math,Cambria Math_MSFontService,sans-serif" font-weight="400" font-size="16" transform="translate(977.296 232)">−</text><text fill="#4B5E68" font-family="Cambria Math,Cambria Math_MSFontService,sans-serif" font-weight="400" font-size="16" transform="translate(988.63 232)">1</text><text fill="#4B5E68" font-family="Cambria Math,Cambria Math_MSFontService,sans-serif" font-weight="400" font-size="16" transform="translate(965.596 291)">𝜏</text><text fill="#4B5E68" font-family="Cambria Math,Cambria Math_MSFontService,sans-serif" font-weight="400" font-size="13" transform="translate(973.43 294)">1</text><text fill="#4B5E68" font-family="Cambria Math,Cambria Math_MSFontService,sans-serif" font-weight="400" font-size="16" transform="translate(981.743 291)">=</text><text fill="#4B5E68" font-family="Cambria Math,Cambria Math_MSFontService,sans-serif" font-weight="400" font-size="16" transform="translate(993.076 291)">1</text><text fill="#A0234E" font-family="Arial,Arial_MSFontService,sans-serif" font-weight="400" font-size="24" transform="translate(365.112 231)">Newly infected individuals</text><text fill="#A0234E" font-family="Arial,Arial_MSFontService,sans-serif" font-weight="400" font-size="24" transform="translate(394.446 260)">within the next week</text><text fill="#4B5E68" font-family="Arial,Arial_MSFontService,sans-serif" font-weight="400" font-size="24" transform="translate(118.095 240)">Infected individuals</text><path d="M469.5 531C469.5 518.021 480.245 507.5 493.5 507.5 506.755 507.5 517.5 518.021 517.5 531 517.5 543.979 506.755 554.5 493.5 554.5 480.245 554.5 469.5 543.979 469.5 531Z" stroke="#A0234E" stroke-width="1.33333" stroke-miterlimit="8" fill="#F2DCDB" fill-rule="evenodd"/><text fill="#A0234E" font-family="Arial,Arial_MSFontService,sans-serif" font-weight="400" font-size="19" transform="translate(362.547 349)">I</text><text fill="#A0234E" font-family="Arial,Arial_MSFontService,sans-serif" font-weight="400" font-size="12" transform="translate(367.714 353)">new</text><text fill="#A0234E" font-family="Arial,Arial_MSFontService,sans-serif" font-weight="400" font-size="19" transform="translate(390.714 349)">(T+1)</text><text fill="#A0234E" font-family="Arial,Arial_MSFontService,sans-serif" font-weight="400" font-size="19" transform="translate(410.353 432)">I</text><text fill="#A0234E" font-family="Arial,Arial_MSFontService,sans-serif" font-weight="400" font-size="12" transform="translate(415.52 436)">new</text><text fill="#A0234E" font-family="Arial,Arial_MSFontService,sans-serif" font-weight="400" font-size="19" transform="translate(438.52 432)">(T+2)</text><text fill="#A0234E" font-family="Arial,Arial_MSFontService,sans-serif" font-weight="400" font-size="19" transform="translate(551.736 588)">I</text><text fill="#A0234E" font-family="Arial,Arial_MSFontService,sans-serif" font-weight="400" font-size="12" transform="translate(556.903 592)">new</text><text fill="#A0234E" font-family="Arial,Arial_MSFontService,sans-serif" font-weight="400" font-size="19" transform="translate(579.903 588)">(T+7)</text><text fill="#4B5E68" font-family="Arial,Arial_MSFontService,sans-serif" font-weight="400" font-size="19" transform="translate(284.896 284)">I</text><text fill="#4B5E68" font-family="Arial,Arial_MSFontService,sans-serif" font-weight="400" font-size="12" transform="translate(290.063 288)">new</text><text fill="#4B5E68" font-family="Arial,Arial_MSFontService,sans-serif" font-weight="400" font-size="19" transform="translate(313.063 284)">(T)</text><text fill="#4B5E68" font-family="Arial,Arial_MSFontService,sans-serif" font-weight="400" font-size="19" transform="translate(197.001 284)">I</text><text fill="#4B5E68" font-family="Arial,Arial_MSFontService,sans-serif" font-weight="400" font-size="12" transform="translate(202.168 288)">new</text><text fill="#4B5E68" font-family="Arial,Arial_MSFontService,sans-serif" font-weight="400" font-size="19" transform="translate(225.168 284)">(T</text><text fill="#4B5E68" font-family="Arial,Arial_MSFontService,sans-serif" font-weight="400" font-size="19" transform="translate(241.641 284)">-</text><text fill="#4B5E68" font-family="Arial,Arial_MSFontService,sans-serif" font-weight="400" font-size="19" transform="translate(247.808 284)">1)</text><text fill="#4B5E68" font-family="Arial,Arial_MSFontService,sans-serif" font-weight="400" font-size="19" transform="translate(111.198 284)">I</text><text fill="#4B5E68" font-family="Arial,Arial_MSFontService,sans-serif" font-weight="400" font-size="12" transform="translate(116.365 288)">new</text><text fill="#4B5E68" font-family="Arial,Arial_MSFontService,sans-serif" font-weight="400" font-size="19" transform="translate(139.365 284)">(T</text><text fill="#4B5E68" font-family="Arial,Arial_MSFontService,sans-serif" font-weight="400" font-size="19" transform="translate(155.838 284)">-</text><text fill="#4B5E68" font-family="Arial,Arial_MSFontService,sans-serif" font-weight="400" font-size="19" transform="translate(162.005 284)">n)</text><text fill="#4B5E68" font-family="Arial,Arial_MSFontService,sans-serif" font-weight="400" font-size="24" transform="translate(171.86 319)">…</text><text fill="#4B5E68" font-family="Arial,Arial_MSFontService,sans-serif" font-weight="400" font-size="24" transform="matrix(6.12323e-17 1 -1 6.12323e-17 83.0914 520)">…..</text><text fill="#4B5E68" font-family="Arial,Arial_MSFontService,sans-serif" font-weight="400" font-size="24" transform="translate(155.31 692)">This calculation was repeated to compute P</text><text fill="#4B5E68" font-family="Arial,Arial_MSFontService,sans-serif" font-weight="400" font-size="16" transform="translate(619.31 697)">T</text><text fill="#4B5E68" font-family="Arial,Arial_MSFontService,sans-serif" font-weight="400" font-size="24" transform="translate(627.37 692)">.</text><text fill="#4B5E68" font-family="Arial,Arial_MSFontService,sans-serif" font-weight="700" font-size="24" transform="translate(660.714 207)">1.</text><text fill="#4B5E68" font-family="Arial,Arial_MSFontService,sans-serif" font-weight="700" font-size="24" transform="translate(687.38 207)">Forecasting</text><text fill="#4B5E68" font-family="Arial,Arial_MSFontService,sans-serif" font-weight="700" font-size="24" transform="translate(664.123 431)">2</text><text fill="#4B5E68" font-family="Arial,Arial_MSFontService,sans-serif" font-weight="700" font-size="24" transform="translate(677.456 431)">. Probability</text><text fill="#4B5E68" font-family="Arial,Arial_MSFontService,sans-serif" font-weight="700" font-size="24" transform="translate(821.456 431)">calculation</text></g></svg>