<svg width="1282" height="726" xmlns="http://www.w3.org/2000/svg" xmlns:xlink="http://www.w3.org/1999/xlink" overflow="hidden"><g transform="translate(1 2)"><rect x="0" y="0" width="1280" height="720" fill="#FFFFFF"/><rect x="484" y="415" width="752" height="296" fill="#E0EBF6"/><rect x="484" y="139" width="752" height="280" fill="#FBF4D8"/><rect x="56" y="136" width="428" height="575" fill="#F2F2F2"/><rect x="0.500053" y="0.500053" width="321" height="37" stroke="#7F7F7F" stroke-width="1.33333" stroke-miterlimit="8" fill="#D9D9D9"/><text fill="#A6A6A6" font-family="Arial,Arial_MSFontService,sans-serif" font-weight="700" font-size="21" transform="translate(98.3799 27)">Introduction</text><rect x="320.5" y="0.500053" width="321" height="37" stroke="#7F7F7F" stroke-width="1.33333" stroke-miterlimit="8" fill="#4B5E68"/><text fill="#FFFFFF" font-family="Arial,Arial_MSFontService,sans-serif" font-weight="700" font-size="21" transform="translate(376.718 27)">Materials &amp; Methods</text><rect x="639.5" y="0.500053" width="321" height="37" stroke="#7F7F7F" stroke-width="1.33333" stroke-miterlimit="8" fill="#D9D9D9"/><text fill="#A6A6A6" font-family="Arial,Arial_MSFontService,sans-serif" font-weight="700" font-size="21" transform="translate(690.449 27)">Results &amp; Discussion</text><rect x="959.5" y="0.500053" width="321" height="37" stroke="#7F7F7F" stroke-width="1.33333" stroke-miterlimit="8" fill="#D9D9D9"/><text fill="#A6A6A6" font-family="Arial,Arial_MSFontService,sans-serif" font-weight="700" font-size="21" transform="translate(1061.32 27)">Conclusion</text><text fill="#4B5E68" font-family="Arial,Arial_MSFontService,sans-serif" font-weight="700" font-size="37" transform="translate(275.538 79)">Development of a state</text><text fill="#4B5E68" font-family="Arial,Arial_MSFontService,sans-serif" font-weight="700" font-size="37" transform="translate(685.038 79)">-</text><text fill="#4B5E68" font-family="Arial,Arial_MSFontService,sans-serif" font-weight="700" font-size="37" transform="translate(697.538 79)">space model</text><text fill="#4B5E68" font-family="Arial,Arial_MSFontService,sans-serif" font-weight="400" font-size="24" transform="translate(206.809 114)">The model is used to jointly estimates shedding dynamics, R</text><text fill="#4B5E68" font-family="Arial,Arial_MSFontService,sans-serif" font-weight="400" font-size="16" transform="translate(849.476 107)">eff</text><text fill="#4B5E68" font-family="Arial,Arial_MSFontService,sans-serif" font-weight="400" font-size="24" transform="translate(867.023 114)">(t), and I</text><text fill="#4B5E68" font-family="Arial,Arial_MSFontService,sans-serif" font-weight="400" font-size="16" transform="translate(956.356 119)">new</text><text fill="#4B5E68" font-family="Arial,Arial_MSFontService,sans-serif" font-weight="400" font-size="24" transform="translate(985.523 114)">(t).</text><path d="M68.5001 641C68.5001 618.08 87.0802 599.5 110 599.5 132.92 599.5 151.5 618.08 151.5 641 151.5 663.92 132.92 682.5 110 682.5 87.0802 682.5 68.5001 663.92 68.5001 641Z" stroke="#000000" stroke-width="1.33333" stroke-miterlimit="8" stroke-dasharray="5.33333 4" fill="#D9D9D9" fill-rule="evenodd"/><text font-family="Arial,Arial_MSFontService,sans-serif" font-weight="400" font-size="19" transform="translate(79.1653 647)">R</text><text font-family="Arial,Arial_MSFontService,sans-serif" font-weight="400" font-size="12" transform="translate(92.6653 641)">eff</text><text font-family="Arial,Arial_MSFontService,sans-serif" font-weight="400" font-size="19" transform="translate(106.439 647)">(t+1)</text><path d="M73.5001 274.5C73.5001 251.304 92.0802 232.5 115 232.5 137.92 232.5 156.5 251.304 156.5 274.5 156.5 297.696 137.92 316.5 115 316.5 92.0802 316.5 73.5001 297.696 73.5001 274.5Z" stroke="#000000" stroke-width="1.33333" stroke-miterlimit="8" stroke-dasharray="5.33333 4" fill="#D9D9D9" fill-rule="evenodd"/><text font-family="Arial,Arial_MSFontService,sans-serif" font-weight="400" font-size="19" transform="translate(86.5824 277)">R</text><text font-family="Arial,Arial_MSFontService,sans-serif" font-weight="400" font-size="12" transform="translate(100.082 271)">eff</text><text font-family="Arial,Arial_MSFontService,sans-serif" font-weight="400" font-size="19" transform="translate(113.856 277)">(t</text><text font-family="Arial,Arial_MSFontService,sans-serif" font-weight="400" font-size="19" transform="translate(125.189 277)">-</text><text font-family="Arial,Arial_MSFontService,sans-serif" font-weight="400" font-size="19" transform="translate(131.356 277)">1)</text><path d="M211.5 212C211.5 189.08 230.08 170.5 253 170.5 275.92 170.5 294.5 189.08 294.5 212 294.5 234.92 275.92 253.5 253 253.5 230.08 253.5 211.5 234.92 211.5 212Z" stroke="#000000" stroke-width="1.33333" stroke-miterlimit="8" stroke-dasharray="5.33333 4" fill="#D9D9D9" fill-rule="evenodd"/><text font-family="Arial,Arial_MSFontService,sans-serif" font-weight="400" font-size="19" transform="translate(216.299 218)">CAR(t</text><text font-family="Arial,Arial_MSFontService,sans-serif" font-weight="400" font-size="19" transform="translate(267.133 218)">-</text><text font-family="Arial,Arial_MSFontService,sans-serif" font-weight="400" font-size="19" transform="translate(273.299 218)">1)</text><path d="M0.016999-1.99993 16.0164-1.86394 15.9824 2.13592-0.016999 1.99993ZM28.016-1.76194 44.0154-1.62595 43.9814 2.37391 27.982 2.23791ZM56.015-1.52396 72.0144-1.38796 71.9804 2.61189 55.981 2.4759ZM84.014-1.28597 100.013-1.14998 99.9794 2.84988 83.98 2.71389ZM112.013-1.04798 128.012-0.911992 127.978 3.08786 111.979 2.95187ZM140.012-0.809998 156.011-0.674006 155.977 3.32585 139.978 3.18986ZM168.011-0.572012 174.836-0.514003 174.802 3.48585 167.977 3.42784ZM172.87-4.53086 184.818 1.57092 172.768 7.46871Z" fill="#7F7F7F" transform="matrix(1 0 0 -1 175 276.571)"/><path d="M209.5 364C209.5 341.08 228.08 322.5 251 322.5 273.92 322.5 292.5 341.08 292.5 364 292.5 386.92 273.92 405.5 251 405.5 228.08 405.5 209.5 386.92 209.5 364Z" stroke="#984807" stroke-width="1.33333" stroke-miterlimit="8" fill="#FDEADA" fill-rule="evenodd"/><text font-family="Arial,Arial_MSFontService,sans-serif" font-weight="400" font-size="19" transform="translate(223.209 369)">CAR(t)</text><path d="M208.5 571C208.5 548.08 227.08 529.5 250 529.5 272.92 529.5 291.5 548.08 291.5 571 291.5 593.92 272.92 612.5 250 612.5 227.08 612.5 208.5 593.92 208.5 571Z" stroke="#000000" stroke-width="1.33333" stroke-miterlimit="8" stroke-dasharray="5.33333 4" fill="#D9D9D9" fill-rule="evenodd"/><text font-family="Arial,Arial_MSFontService,sans-serif" font-weight="400" font-size="19" transform="translate(214.955 576)">CAR(t+1)</text><path d="M379.5 646C379.5 623.08 398.08 604.5 421 604.5 443.92 604.5 462.5 623.08 462.5 646 462.5 668.92 443.92 687.5 421 687.5 398.08 687.5 379.5 668.92 379.5 646Z" stroke="#984807" stroke-width="1.33333" stroke-miterlimit="8" stroke-dasharray="5.33333 4" fill="#D9D9D9" fill-rule="evenodd"/><text font-family="Arial,Arial_MSFontService,sans-serif" font-weight="400" font-size="19" transform="translate(387.604 650)">I</text><text font-family="Arial,Arial_MSFontService,sans-serif" font-weight="400" font-size="12" transform="translate(392.771 654)">new</text><text font-family="Arial,Arial_MSFontService,sans-serif" font-weight="400" font-size="19" transform="translate(415.771 650)">(t+1)</text><path d="M591.5 370C591.5 347.08 610.08 328.5 633 328.5 655.92 328.5 674.5 347.08 674.5 370 674.5 392.92 655.92 411.5 633 411.5 610.08 411.5 591.5 392.92 591.5 370Z" stroke="#000000" stroke-width="1.33333" stroke-miterlimit="8" fill="#F7E9B1" fill-rule="evenodd"/><path d="M591.5 504.5C591.5 481.304 610.08 462.5 633 462.5 655.92 462.5 674.5 481.304 674.5 504.5 674.5 527.696 655.92 546.5 633 546.5 610.08 546.5 591.5 527.696 591.5 504.5Z" stroke="#000000" stroke-width="1.33333" stroke-miterlimit="8" fill="#E0EBF6" fill-rule="evenodd"/><path d="M483.658 442.111 568.941 471.844 567.624 475.621 482.342 445.889ZM568.369 467.409 577.725 477.025 564.419 478.74Z" fill="#3477B2"/><text font-family="Arial,Arial_MSFontService,sans-serif" font-weight="400" font-size="19" transform="translate(607.876 507)">I</text><text font-family="Arial,Arial_MSFontService,sans-serif" font-weight="400" font-size="12" transform="translate(613.043 511)">shed</text><text font-family="Arial,Arial_MSFontService,sans-serif" font-weight="400" font-size="19" transform="translate(640.209 507)">(t)</text><path d="M700 499 776.929 499 776.929 503 700 503ZM774.929 495 786.929 501 774.929 507Z" fill="#3261AB"/><path d="M1045.5 495C1045.5 472.08 1064.3 453.5 1087.5 453.5 1110.7 453.5 1129.5 472.08 1129.5 495 1129.5 517.92 1110.7 536.5 1087.5 536.5 1064.3 536.5 1045.5 517.92 1045.5 495Z" stroke="#000000" stroke-width="1.33333" stroke-miterlimit="8" fill="#E0EBF6" fill-rule="evenodd"/><text font-family="Arial,Arial_MSFontService,sans-serif" font-weight="400" font-size="19" transform="translate(1071.94 501)">P(t)</text><text font-family="Arial,Arial_MSFontService,sans-serif" font-weight="400" font-size="19" transform="translate(617.553 375)">I</text><text font-family="Arial,Arial_MSFontService,sans-serif" font-weight="400" font-size="12" transform="translate(622.72 379)">s</text><text font-family="Arial,Arial_MSFontService,sans-serif" font-weight="400" font-size="19" transform="translate(628.886 375)">(t)</text><path d="M1045.5 327C1045.5 304.08 1064.3 285.5 1087.5 285.5 1110.7 285.5 1129.5 304.08 1129.5 327 1129.5 349.92 1110.7 368.5 1087.5 368.5 1064.3 368.5 1045.5 349.92 1045.5 327Z" stroke="#000000" stroke-width="1.33333" stroke-miterlimit="8" fill="#F7E9B1" fill-rule="evenodd"/><path d="M0.612637-1.90386 85.0594 25.27 83.8341 29.0777-0.612637 1.90386ZM84.3809 20.8497 93.9661 30.2371 80.705 32.2728Z" fill="#C8A314" transform="matrix(1 0 0 -1 487 396.237)"/><text font-family="Arial,Arial_MSFontService,sans-serif" font-weight="400" font-size="19" transform="translate(1071.9 330)">I</text><text font-family="Arial,Arial_MSFontService,sans-serif" font-weight="400" font-size="12" transform="translate(1077.07 334)">h</text><text font-family="Arial,Arial_MSFontService,sans-serif" font-weight="400" font-size="19" transform="translate(1084.07 330)">(t)</text><path d="M814.5 630C814.5 607.08 833.08 588.5 856 588.5 878.92 588.5 897.5 607.08 897.5 630 897.5 652.92 878.92 671.5 856 671.5 833.08 671.5 814.5 652.92 814.5 630Z" stroke="#000000" stroke-width="1.33333" stroke-miterlimit="8" fill="#264980" fill-rule="evenodd"/><text fill="#FFFFFF" font-family="Arial,Arial_MSFontService,sans-serif" font-weight="400" font-size="19" transform="translate(833.946 636)">W</text><text fill="#FFFFFF" font-family="Arial,Arial_MSFontService,sans-serif" font-weight="400" font-size="12" transform="translate(851.613 640)">m</text><text fill="#FFFFFF" font-family="Arial,Arial_MSFontService,sans-serif" font-weight="400" font-size="19" transform="translate(861.946 636)">(t)</text><path d="M1045.5 630C1045.5 607.08 1064.3 588.5 1087.5 588.5 1110.7 588.5 1129.5 607.08 1129.5 630 1129.5 652.92 1110.7 671.5 1087.5 671.5 1064.3 671.5 1045.5 652.92 1045.5 630Z" stroke="#000000" stroke-width="1.33333" stroke-miterlimit="8" fill="#264980" fill-rule="evenodd"/><text fill="#FFFFFF" font-family="Arial,Arial_MSFontService,sans-serif" font-weight="400" font-size="19" transform="translate(1066.37 636)">N</text><text fill="#FFFFFF" font-family="Arial,Arial_MSFontService,sans-serif" font-weight="400" font-size="12" transform="translate(1079.87 640)">m</text><text fill="#FFFFFF" font-family="Arial,Arial_MSFontService,sans-serif" font-weight="400" font-size="19" transform="translate(1090.2 636)">(t)</text><path d="M379.5 270C379.5 247.08 398.08 228.5 421 228.5 443.92 228.5 462.5 247.08 462.5 270 462.5 292.92 443.92 311.5 421 311.5 398.08 311.5 379.5 292.92 379.5 270Z" stroke="#984807" stroke-width="1.33333" stroke-miterlimit="8" stroke-dasharray="5.33333 4" fill="#D9D9D9" fill-rule="evenodd"/><text font-family="Arial,Arial_MSFontService,sans-serif" font-weight="400" font-size="19" transform="translate(389.937 281)">I</text><text font-family="Arial,Arial_MSFontService,sans-serif" font-weight="400" font-size="12" transform="translate(395.104 285)">new</text><text font-family="Arial,Arial_MSFontService,sans-serif" font-weight="400" font-size="19" transform="translate(418.104 281)">(t</text><text font-family="Arial,Arial_MSFontService,sans-serif" font-weight="400" font-size="19" transform="translate(429.437 281)">-</text><text font-family="Arial,Arial_MSFontService,sans-serif" font-weight="400" font-size="19" transform="translate(435.604 281)">1)</text><text fill="#264980" font-family="Arial,Arial_MSFontService,sans-serif" font-weight="700" font-size="24" transform="translate(504.07 697)">Wastewater data</text><text fill="#856D0E" font-family="Arial,Arial_MSFontService,sans-serif" font-weight="700" font-size="24" transform="translate(499.097 163)">Clinical data</text><path d="M5.0505e-06-2 31.5748-1.99992 31.5748 2.00008-5.0505e-06 2ZM29.5748-5.99993 41.5748 0.000104987 29.5748 6.00007Z" fill="#264980" transform="matrix(-1.83697e-16 -1 -1 1.83697e-16 1086 584.575)"/><path d="M1045.5 200C1045.5 177.08 1064.3 158.5 1087.5 158.5 1110.7 158.5 1129.5 177.08 1129.5 200 1129.5 222.92 1110.7 241.5 1087.5 241.5 1064.3 241.5 1045.5 222.92 1045.5 200Z" stroke="#000000" stroke-width="1.33333" stroke-miterlimit="8" fill="#856D0E" fill-rule="evenodd"/><text fill="#FFFFFF" font-family="Arial,Arial_MSFontService,sans-serif" font-weight="400" font-size="19" transform="translate(1066.17 205)">I</text><text fill="#FFFFFF" font-family="Arial,Arial_MSFontService,sans-serif" font-weight="400" font-size="12" transform="translate(1071.34 209)">h,m</text><text fill="#FFFFFF" font-family="Arial,Arial_MSFontService,sans-serif" font-weight="400" font-size="19" transform="translate(1092.17 205)">(t)</text><path d="M815.5 322.5C815.5 299.304 834.08 280.5 857 280.5 879.92 280.5 898.5 299.304 898.5 322.5 898.5 345.696 879.92 364.5 857 364.5 834.08 364.5 815.5 345.696 815.5 322.5Z" stroke="#000000" stroke-width="1.33333" stroke-miterlimit="8" fill="#F7E9B1" fill-rule="evenodd"/><text font-family="Arial,Arial_MSFontService,sans-serif" font-weight="400" font-size="19" transform="translate(845.516 329)">I</text><text font-family="Arial,Arial_MSFontService,sans-serif" font-weight="400" font-size="12" transform="translate(850.682 333)">c</text><text font-family="Arial,Arial_MSFontService,sans-serif" font-weight="400" font-size="19" transform="translate(856.849 329)">(t)</text><path d="M815.5 203C815.5 180.08 834.08 161.5 857 161.5 879.92 161.5 898.5 180.08 898.5 203 898.5 225.92 879.92 244.5 857 244.5 834.08 244.5 815.5 225.92 815.5 203Z" stroke="#000000" stroke-width="1.33333" stroke-miterlimit="8" fill="#856D0E" fill-rule="evenodd"/><text fill="#FFFFFF" font-family="Arial,Arial_MSFontService,sans-serif" font-weight="400" font-size="19" transform="translate(836.252 203)">I</text><text fill="#FFFFFF" font-family="Arial,Arial_MSFontService,sans-serif" font-weight="400" font-size="12" transform="translate(841.418 207)">c,m</text><text fill="#FFFFFF" font-family="Arial,Arial_MSFontService,sans-serif" font-weight="400" font-size="19" transform="translate(861.418 203)">(t)</text><path d="M815.5 495C815.5 472.08 834.08 453.5 857 453.5 879.92 453.5 898.5 472.08 898.5 495 898.5 517.92 879.92 536.5 857 536.5 834.08 536.5 815.5 517.92 815.5 495Z" stroke="#000000" stroke-width="1.33333" stroke-miterlimit="8" fill="#E0EBF6" fill-rule="evenodd"/><text font-family="Arial,Arial_MSFontService,sans-serif" font-weight="400" font-size="19" transform="translate(838.774 501)">W(t)</text><path d="M5.0505e-06-2 31.5748-1.99992 31.5748 2.00008-5.0505e-06 2ZM29.5748-5.99993 41.5748 0.000104987 29.5748 6.00007Z" fill="#264980" transform="matrix(-1.83697e-16 -1 -1 1.83697e-16 858 584.575)"/><path d="M931 499 1007.93 499 1007.93 503 931 503ZM1005.93 495 1017.93 501 1005.93 507Z" fill="#3261AB"/><path d="M0.016999-1.99993 16.0164-1.86394 15.9824 2.13592-0.016999 1.99993ZM28.016-1.76194 44.0154-1.62595 43.9814 2.37391 27.982 2.23791ZM56.015-1.52396 72.0144-1.38796 71.9804 2.61189 55.981 2.4759ZM84.014-1.28597 100.013-1.14998 99.9794 2.84988 83.98 2.71389ZM112.013-1.04798 128.012-0.911992 127.978 3.08786 111.979 2.95187ZM140.012-0.809998 156.011-0.674006 155.977 3.32585 139.978 3.18986ZM168.011-0.572012 174.836-0.514003 174.802 3.48585 167.977 3.42784ZM172.87-4.53086 184.818 1.57092 172.768 7.46871Z" fill="#7F7F7F" transform="matrix(1 0 0 -1 161 652.571)"/><path d="M117 322 117 383.254 113 383.254 113 322ZM121 381.254 115 393.254 109 381.254Z" fill="#4B5E68"/><path d="M115 499 115 560.254 111 560.254 111 499ZM119 558.254 113 570.254 107 558.254Z" fill="#4B5E68"/><path d="M251 257 251 307.472 247 307.472 247 257ZM255 305.472 249 317.472 243 305.472Z" fill="#4B5E68"/><path d="M251 414 251 509.827 247 509.827 247 414ZM255 507.827 249 519.827 243 507.827Z" fill="#4B5E68"/><path d="M1.6835e-06-2 114.724-1.9999 114.724 2.0001-1.6835e-06 2ZM112.724-5.99991 124.724 0.000104987 112.724 6.00009Z" fill="#C8A314" transform="matrix(1 0 0 -1 684 342)"/><path d="M674 402 1085.97 402" stroke="#C8A314" stroke-width="4" stroke-miterlimit="8" fill="none" fill-rule="evenodd"/><path d="M1084 403.016 1084 379 1088 379 1088 403.016ZM1080 381 1086 369 1092 381Z" fill="#C8A314"/><path d="M860 247 860 271.016 856 271.016 856 247ZM864 269.016 858 281.016 852 269.016Z" fill="#C8A314"/><path d="M1090 247 1090 271.016 1086 271.016 1086 247ZM1094 269.016 1088 281.016 1082 269.016Z" fill="#C8A314"/><path d="M308.021 354.662C468.858 288.983 679.806 257.068 779.188 283.378 794.494 287.43 806.578 292.756 815.145 299.227" stroke="#C8A314" stroke-width="3" stroke-miterlimit="8" fill="none" fill-rule="evenodd"/><path d="M812.743 284.88 819.832 302.643 800.902 305.376Z" fill="#C8A314" fill-rule="evenodd"/><text fill="#264980" font-family="Arial,Arial_MSFontService,sans-serif" font-weight="700" font-size="19" transform="translate(540.119 437)">Individuals who start</text><text fill="#264980" font-family="Arial,Arial_MSFontService,sans-serif" font-weight="700" font-size="19" transform="translate(553.119 460)">shedding on day t</text><text fill="#264980" font-family="Arial,Arial_MSFontService,sans-serif" font-weight="700" font-size="19" transform="translate(741.357 444)">Wastewater concentration</text><text fill="#264980" font-family="Arial,Arial_MSFontService,sans-serif" font-weight="400" font-size="16" transform="translate(1031.19 442)">Detection probability</text><text fill="#264980" font-family="Arial,Arial_MSFontService,sans-serif" font-weight="400" font-size="19" transform="translate(1028.84 686)">The number of</text><text fill="#264980" font-family="Arial,Arial_MSFontService,sans-serif" font-weight="400" font-size="19" transform="translate(1020.42 709)">positive samples</text><text fill="#264980" font-family="Arial,Arial_MSFontService,sans-serif" font-weight="400" font-size="19" transform="translate(768.794 699)">Observed concentration</text><text fill="#856D0E" font-family="Arial,Arial_MSFontService,sans-serif" font-weight="400" font-size="16" transform="translate(1150.93 376)">New</text><text fill="#856D0E" font-family="Arial,Arial_MSFontService,sans-serif" font-weight="400" font-size="16" transform="translate(1112.43 395)">hospitalizations</text><text fill="#856D0E" font-family="Arial,Arial_MSFontService,sans-serif" font-weight="400" font-size="16" transform="translate(790.795 378)">Individuals who are</text><text fill="#856D0E" font-family="Arial,Arial_MSFontService,sans-serif" font-weight="400" font-size="16" transform="translate(796.462 397)">identified on day t</text><text fill="#856D0E" font-family="Arial,Arial_MSFontService,sans-serif" font-weight="400" font-size="16" transform="translate(552.921 303)">Individuals who develop</text><text fill="#856D0E" font-family="Arial,Arial_MSFontService,sans-serif" font-weight="400" font-size="16" transform="translate(568.088 322)">symptoms on day t</text><path d="M251 618 251 683.591 247 683.591 247 618ZM255 681.591 249 693.591 243 681.591Z" fill="#4B5E68"/><text fill="#4B5E68" font-family="Arial,Arial_MSFontService,sans-serif" font-weight="700" font-size="24" transform="translate(58.8821 161)">State formulas (Gaussian process)</text><text fill="#856D0E" font-family="Arial,Arial_MSFontService,sans-serif" font-weight="400" font-size="19" transform="translate(793.323 156)">Reported cases</text><text fill="#856D0E" font-family="Arial,Arial_MSFontService,sans-serif" font-weight="400" font-size="19" transform="translate(961.834 156)">Reported new hospitalizations</text><path d="M73.5001 440C73.5001 417.08 92.0802 398.5 115 398.5 137.92 398.5 156.5 417.08 156.5 440 156.5 462.92 137.92 481.5 115 481.5 92.0802 481.5 73.5001 462.92 73.5001 440Z" stroke="#984807" stroke-width="1.33333" stroke-miterlimit="8" fill="#FDEADA" fill-rule="evenodd"/><text font-family="Arial,Arial_MSFontService,sans-serif" font-weight="400" font-size="19" transform="translate(94.54 443)">R</text><text font-family="Arial,Arial_MSFontService,sans-serif" font-weight="400" font-size="12" transform="translate(108.04 437)">eff</text><text font-family="Arial,Arial_MSFontService,sans-serif" font-weight="400" font-size="19" transform="translate(121.813 443)">(t)</text><path d="M379.5 426C379.5 403.08 398.08 384.5 421 384.5 443.92 384.5 462.5 403.08 462.5 426 462.5 448.92 443.92 467.5 421 467.5 398.08 467.5 379.5 448.92 379.5 426Z" stroke="#984807" stroke-width="1.33333" stroke-miterlimit="8" fill="#FAC090" fill-rule="evenodd"/><text font-family="Arial,Arial_MSFontService,sans-serif" font-weight="400" font-size="19" transform="translate(398.187 432)">I</text><text font-family="Arial,Arial_MSFontService,sans-serif" font-weight="400" font-size="12" transform="translate(403.354 436)">new</text><text font-family="Arial,Arial_MSFontService,sans-serif" font-weight="400" font-size="19" transform="translate(426.354 432)">(t)</text><path d="M0.016999-1.99993 174.836-0.514003 174.802 3.48585-0.016999 1.99993ZM172.87-4.53086 184.818 1.57092 172.768 7.46871Z" fill="#4B5E68" transform="matrix(1 0 0 -1 172 427.571)"/><text fill="#E46C0A" font-family="Arial,Arial_MSFontService,sans-serif" font-weight="700" font-size="19" transform="matrix(0.934499 0.355966 -0.355966 0.934499 455.541 472)">Shedding onset</text><text fill="#E46C0A" font-family="Arial,Arial_MSFontService,sans-serif" font-weight="700" font-size="19" transform="matrix(0.934499 0.355966 -0.355966 0.934499 464.717 500)">distribution</text><text fill="#E46C0A" font-family="Arial,Arial_MSFontService,sans-serif" font-weight="700" font-size="19" transform="translate(678.418 526)">Shedding load</text><text fill="#E46C0A" font-family="Arial,Arial_MSFontService,sans-serif" font-weight="700" font-size="19" transform="translate(699.505 549)">dynamics</text><path d="M84.5001 128.5 1180.56 128.5" stroke="#4B5E68" stroke-miterlimit="8" stroke-dasharray="8 3" fill="none" fill-rule="evenodd"/></g></svg>