<svg width="1288" height="723" xmlns="http://www.w3.org/2000/svg" xmlns:xlink="http://www.w3.org/1999/xlink" overflow="hidden"><g transform="translate(1 2)"><rect x="0" y="0" width="1280" height="720" fill="#FFFFFF"/><rect x="0.500053" y="0.500053" width="321" height="37" stroke="#7F7F7F" stroke-width="1.33333" stroke-miterlimit="8" fill="#D9D9D9"/><text fill="#A6A6A6" font-family="Arial,Arial_MSFontService,sans-serif" font-weight="700" font-size="21" transform="translate(98.3799 27)">Introduction</text><rect x="320.5" y="0.500053" width="321" height="37" stroke="#7F7F7F" stroke-width="1.33333" stroke-miterlimit="8" fill="#4B5E68"/><text fill="#FFFFFF" font-family="Arial,Arial_MSFontService,sans-serif" font-weight="700" font-size="21" transform="translate(376.718 27)">Materials &amp; Methods</text><rect x="639.5" y="0.500053" width="321" height="37" stroke="#7F7F7F" stroke-width="1.33333" stroke-miterlimit="8" fill="#D9D9D9"/><text fill="#A6A6A6" font-family="Arial,Arial_MSFontService,sans-serif" font-weight="700" font-size="21" transform="translate(690.449 27)">Results &amp; Discussion</text><rect x="959.5" y="0.500053" width="321" height="37" stroke="#7F7F7F" stroke-width="1.33333" stroke-miterlimit="8" fill="#D9D9D9"/><text fill="#A6A6A6" font-family="Arial,Arial_MSFontService,sans-serif" font-weight="700" font-size="21" transform="translate(1061.32 27)">Conclusion</text><text fill="#4B5E68" font-family="Arial,Arial_MSFontService,sans-serif" font-weight="700" font-size="37" transform="translate(174.523 88)">Overview of s</text><text fill="#4B5E68" font-family="Arial,Arial_MSFontService,sans-serif" font-weight="700" font-size="37" transform="translate(417.523 88)">tochastic</text><text fill="#4B5E68" font-family="Arial,Arial_MSFontService,sans-serif" font-weight="700" font-size="37" transform="translate(592.19 88)">infectious disease</text><text fill="#4B5E68" font-family="Arial,Arial_MSFontService,sans-serif" font-weight="700" font-size="37" transform="translate(926.856 88)">model</text><text fill="#4B5E68" font-family="Arial,Arial_MSFontService,sans-serif" font-weight="700" font-size="37" transform="translate(1036.86 88)">s</text><path d="M81.5001 164.5 1177.56 164.5" stroke="#4B5E68" stroke-miterlimit="8" stroke-dasharray="8 3" fill="none" fill-rule="evenodd"/><text fill="#4B5E68" font-family="Arial,Arial_MSFontService,sans-serif" font-weight="400" font-size="24" transform="translate(90.8084 137)">P</text><text fill="#4B5E68" font-family="Arial,Arial_MSFontService,sans-serif" font-weight="400" font-size="24" transform="translate(106.808 137)">robability</text><text fill="#4B5E68" font-family="Arial,Arial_MSFontService,sans-serif" font-weight="400" font-size="24" transform="translate(209.475 137)">that the total number of new infections</text><text fill="#4B5E68" font-family="Arial,Arial_MSFontService,sans-serif" font-weight="700" font-size="24" transform="translate(621.475 137)">over</text><text fill="#4B5E68" font-family="Arial,Arial_MSFontService,sans-serif" font-weight="700" font-size="24" transform="translate(678.808 137)">a</text><text fill="#4B5E68" font-family="Arial,Arial_MSFontService,sans-serif" font-weight="700" font-size="24" transform="translate(698.808 137)">period</text><text fill="#4B5E68" font-family="Arial,Arial_MSFontService,sans-serif" font-weight="400" font-size="24" transform="translate(778.808 137)">exceeds a predefined threshold,</text><text fill="#4B5E68" font-family="Arial,Arial_MSFontService,sans-serif" font-weight="400" font-size="24" transform="translate(1126.81 137)">P</text><text fill="#4B5E68" font-family="Arial,Arial_MSFontService,sans-serif" font-weight="400" font-size="16" transform="translate(1142.81 142)">θ</text><text fill="#4B5E68" font-family="Arial,Arial_MSFontService,sans-serif" font-weight="400" font-size="24" transform="translate(1151.64 137)">.</text><text fill="#4B5E68" font-family="Arial,Arial_MSFontService,sans-serif" font-weight="700" font-size="24" transform="translate(92.0869 241)">1. Stochastic renewal equation model</text><text fill="#4B5E68" font-family="Arial,Arial_MSFontService,sans-serif" font-weight="700" font-size="24" transform="translate(96.9367 451)">2</text><text fill="#4B5E68" font-family="Arial,Arial_MSFontService,sans-serif" font-weight="700" font-size="24" transform="translate(110.27 451)">. Stochastic SEIR model</text><text fill="#4B5E68" font-family="Arial,Arial_MSFontService,sans-serif" font-weight="400" font-size="24" transform="translate(122.18 305)">•</text><text fill="#4B5E68" font-family="Arial,Arial_MSFontService,sans-serif" font-weight="400" font-size="24" transform="translate(152.18 305)">Relatively short</text><text fill="#4B5E68" font-family="Arial,Arial_MSFontService,sans-serif" font-weight="400" font-size="24" transform="translate(316.18 305)">-</text><text fill="#4B5E68" font-family="Arial,Arial_MSFontService,sans-serif" font-weight="400" font-size="24" transform="translate(324.18 305)">term forecasting</text><text fill="#4B5E68" font-family="Arial,Arial_MSFontService,sans-serif" font-weight="400" font-size="24" transform="translate(122.18 366)">•</text><text fill="#4B5E68" font-family="Arial,Arial_MSFontService,sans-serif" font-weight="400" font-size="24" transform="translate(152.18 366)">Relatively few assumptions</text><text fill="#4B5E68" font-family="Arial,Arial_MSFontService,sans-serif" font-weight="400" font-size="24" transform="translate(119.959 515)">•</text><text fill="#4B5E68" font-family="Arial,Arial_MSFontService,sans-serif" font-weight="400" font-size="24" transform="translate(149.959 515)">Relatively long</text><text fill="#4B5E68" font-family="Arial,Arial_MSFontService,sans-serif" font-weight="400" font-size="24" transform="translate(305.959 515)">-</text><text fill="#4B5E68" font-family="Arial,Arial_MSFontService,sans-serif" font-weight="400" font-size="24" transform="translate(313.959 515)">term forecasting</text><text fill="#4B5E68" font-family="Arial,Arial_MSFontService,sans-serif" font-weight="400" font-size="24" transform="translate(119.959 577)">•</text><text fill="#4B5E68" font-family="Arial,Arial_MSFontService,sans-serif" font-weight="400" font-size="24" transform="translate(149.959 577)">Assume mechanical structure of</text><text fill="#4B5E68" font-family="Arial,Arial_MSFontService,sans-serif" font-weight="400" font-size="24" transform="translate(149.959 606)">disease transmission</text><text fill="#4B5E68" font-family="Arial,Arial_MSFontService,sans-serif" font-weight="400" font-size="24" transform="translate(584.808 448)">M</text><path d="M676.5 627.5 676.5 312.5" stroke="#EBEBEB" stroke-width="0.614803" stroke-linejoin="round" stroke-miterlimit="10" fill="none" fill-rule="evenodd"/><path d="M1015.5 627.5 1015.5 312.5" stroke="#EBEBEB" stroke-width="0.614803" stroke-linejoin="round" stroke-miterlimit="10" fill="none" fill-rule="evenodd"/><path d="M628.5 623.5 1181.5 623.5" stroke="#4B5E68" stroke-width="1.22961" stroke-linejoin="round" stroke-miterlimit="10" fill="none" fill-rule="evenodd"/><path d="M628.5 581.5 1181.5 581.5" stroke="#EBEBEB" stroke-width="1.22961" stroke-linejoin="round" stroke-miterlimit="10" fill="none" fill-rule="evenodd"/><path d="M628.5 539.5 1181.5 539.5" stroke="#EBEBEB" stroke-width="1.22961" stroke-linejoin="round" stroke-miterlimit="10" fill="none" fill-rule="evenodd"/><path d="M628.5 497.5 1181.5 497.5" stroke="#EBEBEB" stroke-width="1.22961" stroke-linejoin="round" stroke-miterlimit="10" fill="none" fill-rule="evenodd"/><path d="M628.5 455.5 1181.5 455.5" stroke="#EBEBEB" stroke-width="1.22961" stroke-linejoin="round" stroke-miterlimit="10" fill="none" fill-rule="evenodd"/><path d="M628.5 413.5 1181.5 413.5" stroke="#EBEBEB" stroke-width="1.22961" stroke-linejoin="round" stroke-miterlimit="10" fill="none" fill-rule="evenodd"/><path d="M628.5 372.5 1181.5 372.5" stroke="#EBEBEB" stroke-width="1.22961" stroke-linejoin="round" stroke-miterlimit="10" fill="none" fill-rule="evenodd"/><path d="M628.5 330.5 1181.5 330.5" stroke="#EBEBEB" stroke-width="1.22961" stroke-linejoin="round" stroke-miterlimit="10" fill="none" fill-rule="evenodd"/><path d="M846.5 627.5 846.5 312.5" stroke="#EBEBEB" stroke-width="1.22961" stroke-linejoin="round" stroke-miterlimit="10" fill="none" fill-rule="evenodd"/><path d="M644 442.167 646.769 443.211 649.544 443.177 652.32 443.183 655.096 443.97 657.871 443.73 660.64 443.44 663.416 441.575 668.967 438.204 671.743 436.618 674.519 435.502 677.287 434.134 680.063 432.281 682.839 429.998 685.614 429.16 688.39 426.883 691.159 424.723 693.934 423.042 696.71 421.195 699.486 418.794 702.261 415.998 705.03 413.167 707.806 409.238 710.581 404.325 713.357 400.814 716.133 397.621 718.909 393.105 721.677 388.611 724.453 385.552 727.229 380.835 730.004 377.894 732.78 374.154 735.549 370.631 738.324 368.125 741.1 365.373 743.876 365.401 746.651 362.503 749.42 362.236 752.196 358.73 754.971 358.278 757.747 357.1 760.523 356.782 763.298 355.648 766.067 356.38 768.843 357.362 771.619 357.976 774.394 357.63 777.17 358.501 779.939 360.014 782.714 360.572 785.49 361.934 788.266 365.501 791.041 367.885 793.81 371.882 796.586 374.79 799.361 379.853 802.137 383.191 804.913 386.948 807.682 389.94 810.457 392.681 813.233 394.584 816.009 397.766 818.784 400.133 821.56 404.124 824.329 405.492 827.104 406.737 829.88 408.836 832.656 411.275 835.431 413.385 838.2 415.116 840.976 416.891 843.751 420.625 846.527 421.904 849.303 424.337 852.072 426.107 854.847 428.228 857.623 429.931 860.399 432.392 863.174 434.212 865.95 437.054 868.719 439.259 871.494 441.843 874.27 444.528 877.046 446.052 879.821 448.877 882.59 451.729 885.366 454.621 888.142 455.961 890.917 458.484 893.693 459.879 896.461 461.292 899.237 461.878 902.013 463.742 904.789 466.042 907.564 468.241 910.333 470.201 913.109 472.462 915.884 475.013 918.66 478.367 921.436 481.767 924.211 485.066 926.98 488.784 929.756 491.413 932.531 494.751 935.307 496.833 938.083 499.089 940.852 501.863 943.627 503.995 946.403 505.994 949.179 507.88 951.954 510.024 954.723 512.056 957.499 514.373 960.274 516.617 963.05 518.487 965.826 520.262 968.601 521.3 971.37 522.55 974.146 523.421 976.921 523.985 979.697 525.102 982.473 525.537 985.242 525.615 988.017 526.726 990.793 527.016 993.569 527.747 996.344 527.965 999.113 528.468 1001.89 528.618 1004.66 528.97 1007.44 530.042 1010.22 530.6 1012.98 531.181 1015.76 531.516 1018.54 532.66 1021.31 533.374 1024.09 533.832 1026.86 533.547 1029.63 533.888 1032.41 533.787 1035.18 533.045 1037.96 532.336 1040.73 532.035 1043.5 531.13 1046.28 529.975 1049.05 528.992 1051.83 528.127 1054.61 526.296 1057.37 524.655 1060.15 522.422 1062.93 520.535 1065.7 518.71 1068.48 516.723 1071.25 514.423 1074.02 511.866 1076.8 508.93 1079.57 505.558 1082.35 502.354 1085.12 499.1 1087.89 495.672 1090.67 491.703 1093.44 487.595 1096.22 483.911 1099 478.652 1101.76 473.684 1104.54 469.084 1107.32 462.056 1110.09 457.39 1112.87 451.818 1115.64 444.657 1118.41 438.996 1123.96 425.856 1126.74 420.318 1129.51 412.967 1132.28 403.907 1135.06 397.292 1137.83 390.409 1140.61 384.503 1143.39 378.664 1146.15 372.144 1148.93 366.824 1151.71 362.375 1154.48 356.369 1157.26 352.003 1160.03 349.179 1162.8 345.12 1165.58 340.303 1168.35 339.784 1171.13 337.947 1173.9 338.779 1176.67 336.306 1179.45 335 1182.22 336.39 1185 336.887 1185 496.973 1182.22 496.465 1179.45 496.348 1176.67 496.794 1173.9 497.754 1171.13 498.341 1168.35 499.262 1165.58 499.837 1162.8 501.243 1160.03 503.878 1157.26 505.999 1154.48 507.791 1151.71 510.945 1148.93 512.743 1146.15 515.16 1143.39 518.135 1140.61 521.082 1137.83 524.203 1135.06 527.111 1132.28 529.696 1129.51 532.933 1126.74 536.807 1123.96 538.934 1121.19 541.647 1118.41 544.79 1115.64 547.079 1112.87 549.624 1110.09 552.27 1107.32 554.626 1104.54 557.367 1101.76 559.259 1099 560.805 1096.22 563.245 1093.44 565.014 1090.67 566.572 1087.89 568.157 1085.12 569.698 1082.35 570.915 1079.57 571.986 1076.8 573.209 1074.02 574.454 1071.25 575.397 1068.48 576.821 1065.7 577.546 1062.93 578.283 1060.15 579.143 1057.37 579.74 1054.61 580.46 1051.83 581.203 1049.05 581.398 1046.28 581.604 1043.5 582.207 1040.73 582.263 1037.96 582.425 1035.18 582.771 1032.41 582.872 1029.63 582.933 1026.86 583 1024.09 582.916 1021.31 582.777 1018.54 582.643 1015.76 582.029 1012.98 581.85 1010.22 581.56 1007.44 580.99 1004.66 580.745 1001.89 580.589 999.113 580.533 996.344 580.315 993.569 579.941 990.793 579.751 988.017 579.567 985.242 579.182 982.473 578.987 979.697 578.607 976.921 577.909 974.146 577.524 971.37 576.988 968.601 576.14 965.826 575.659 963.05 575.084 960.274 574.515 957.499 573.616 954.723 572.55 951.954 571.579 949.179 570.753 946.403 569.854 943.627 568.827 940.852 567.844 938.083 566.918 935.307 565.595 932.531 564.328 929.756 563.172 926.98 561.944 924.211 560.47 921.436 558.74 918.66 557.551 915.884 556.066 913.109 555.067 910.333 553.956 907.564 552.588 904.789 551.667 902.013 550.545 899.237 549.786 896.461 548.854 893.693 548.402 890.917 547.587 888.142 546.71 885.366 545.873 882.59 544.946 879.821 543.528 877.046 542.172 874.27 540.933 871.494 540.274 868.719 539.035 865.95 538.125 863.174 537.137 860.399 535.607 857.623 535.557 854.847 534.597 852.072 533.754 849.303 532.359 846.527 531.951 843.751 530.779 840.976 529.472 838.2 528.529 835.431 528.027 832.656 526.547 829.88 525.766 827.104 524.599 824.329 524.069 821.56 523.014 818.784 522.015 816.009 520.128 813.233 519.43 810.457 518.208 807.682 516.857 804.913 516.075 802.137 513.608 799.361 512.391 796.586 511.286 793.81 509.349 791.041 507.858 788.266 506.491 785.49 505.809 782.714 505.067 779.939 504.799 777.17 504.207 774.394 503.979 771.619 504.129 768.843 504.057 766.067 503.56 763.298 504.459 760.523 504.325 757.747 504.916 754.971 505.636 752.196 506.407 749.42 507.992 746.651 508.165 743.876 509.042 741.1 509.751 738.324 511.408 735.549 512.592 732.78 513.368 730.004 514.752 727.229 516.343 724.453 518.342 721.677 520.418 718.909 521.283 716.133 523.488 713.357 525.509 710.581 527.139 707.806 529.417 705.03 531.041 702.261 532.621 699.486 533.62 696.71 534.558 693.934 535.149 691.159 535.747 688.39 536.618 685.614 537.449 682.839 537.544 680.063 538.091 677.287 538.733 674.519 539.599 671.743 540.57 668.967 541.028 666.191 542.055 663.416 542.635 660.64 543.523 657.871 543.953 655.096 543.93 652.32 544.07 649.544 544.092 646.769 544.12 644 543.601Z" fill="#01665E" fill-rule="evenodd" fill-opacity="0.14902"/><path d="M644 478.785 646.769 479.677 649.544 479.65 652.32 479.806 655.096 480.118 657.871 479.783 660.64 479.27 663.416 477.961 666.191 476.138 668.967 474.872 671.743 474.092 674.519 472.81 677.287 471.667 680.063 470.263 682.839 468.769 685.614 468.301 688.39 466.478 691.159 464.722 693.934 463.485 696.71 461.907 699.486 460.252 702.261 457.922 705.03 455.486 707.806 452.598 710.581 448.864 713.357 445.575 716.133 442.877 718.909 439.56 721.677 435.96 724.453 432.911 727.229 429.689 730.004 427.32 732.78 424.248 735.549 421.935 738.324 419.828 741.1 417.9 743.876 416.473 746.651 414.31 749.42 414.126 752.196 411.924 754.971 410.408 757.747 410.107 760.523 409.527 763.298 409.109 766.067 408.223 768.843 409.488 771.619 410.124 774.394 410.062 777.17 410.62 779.939 411.211 782.714 411.868 785.49 413.624 788.266 415.898 791.041 418.201 793.81 420.77 796.586 423.368 799.361 426.779 802.137 429.772 804.913 432.587 807.682 435.28 810.457 437.136 813.233 439.159 816.009 441.322 818.784 443.496 821.56 446.734 824.329 447.91 827.104 448.931 829.88 450.703 832.656 452.03 835.431 454.75 838.2 455.48 840.976 456.963 843.751 459.31 846.527 461.261 849.303 462.626 852.072 464.599 854.847 465.898 857.623 467.203 860.399 468.969 863.174 470.631 865.95 472.894 868.719 474.716 871.494 476.745 874.27 478.674 877.046 480.257 879.821 482.186 882.59 484.622 885.366 487.113 888.142 488.167 890.917 489.705 893.693 491.188 896.461 492.214 899.237 493.25 902.013 494.633 904.789 496.444 907.564 498.15 910.333 499.817 913.109 501.857 915.884 504.114 918.66 506.232 921.436 509.209 924.211 511.74 926.98 514.477 929.756 516.974 932.531 519.287 935.307 521.099 938.083 523.239 940.852 525.307 943.627 527.13 946.403 528.713 949.179 530.106 951.954 531.929 954.723 533.568 957.499 535.469 960.274 537.319 963.05 538.679 965.826 539.694 968.601 540.797 971.37 541.829 974.146 542.453 976.921 543.3 979.697 544.192 982.473 544.588 985.242 544.989 988.017 545.379 990.793 546.004 993.569 546.282 996.344 546.555 999.113 547.169 1001.89 547.336 1004.66 547.392 1007.44 548.255 1010.22 548.746 1012.98 549.248 1015.76 549.666 1018.54 550.491 1021.31 551.037 1024.09 551.422 1026.86 551.377 1029.63 551.327 1032.41 551.433 1035.18 551.048 1037.96 550.368 1040.73 550.19 1043.5 549.276 1046.28 548.54 1049.05 547.91 1051.83 547.269 1054.61 545.959 1057.37 544.259 1060.15 542.966 1062.93 541.583 1065.7 540.062 1068.48 538.205 1071.25 536.377 1074.02 534.471 1076.8 532.013 1079.57 529.71 1082.35 527.425 1085.12 525 1087.89 521.951 1090.67 518.897 1093.44 515.942 1096.22 512.37 1099 508.891 1101.76 504.867 1104.54 501.333 1107.32 495.987 1110.09 491.94 1112.87 487.219 1115.64 482.041 1118.41 477.476 1121.19 472.269 1123.96 467.37 1126.74 462.554 1129.51 456.684 1132.28 450.062 1135.06 444.694 1137.83 438.808 1140.61 434.176 1143.39 429.287 1146.15 424.276 1148.93 419.081 1151.71 415.859 1154.48 411.088 1157.26 407.181 1160.03 404.053 1162.8 401.763 1165.58 398.089 1168.35 396.701 1171.13 395.269 1173.9 395.988 1176.67 394.371 1179.45 393 1182.22 393.814 1185 394.979 1185 454.566 1182.22 454.326 1179.45 453.975 1176.67 454.655 1173.9 455.937 1171.13 456.344 1168.35 457.058 1165.58 458.161 1162.8 460.547 1160.03 462.749 1157.26 465.703 1154.48 468.484 1151.71 472.007 1148.93 474.688 1146.15 478.445 1143.39 482.208 1140.61 485.552 1137.83 489.27 1135.06 493.691 1132.28 497.637 1129.51 501.818 1126.74 506.667 1123.96 510.157 1121.19 513.512 1118.41 517.33 1115.64 520.619 1112.87 524.192 1110.09 527.659 1107.32 530.875 1104.54 534.532 1101.76 537.291 1099 539.866 1096.22 542.548 1093.44 544.833 1090.67 547.085 1087.89 549.432 1085.12 551.544 1082.35 553.161 1079.57 554.839 1076.8 556.36 1074.02 558.166 1071.25 559.421 1068.48 560.892 1065.7 562.118 1062.93 563.35 1060.15 564.209 1057.37 565.201 1054.61 566.455 1051.83 567.258 1049.05 567.609 1046.28 568.15 1043.5 568.791 1040.73 569.097 1037.96 569.359 1035.18 569.699 1032.41 569.872 1029.63 570 1026.86 569.878 1024.09 569.878 1021.31 569.61 1018.54 569.264 1015.76 568.746 1012.98 568.395 1010.22 567.971 1007.44 567.52 1004.66 566.906 1001.89 566.795 999.113 566.767 996.344 566.41 993.569 566.076 990.793 565.881 988.017 565.307 985.242 565.05 982.473 564.682 979.697 564.342 976.921 563.674 974.146 563.027 971.37 562.436 968.601 561.656 965.826 560.87 963.05 560 960.274 558.991 957.499 557.826 954.723 556.539 951.954 555.145 949.179 554.053 946.403 552.765 943.627 551.823 940.852 550.312 938.083 548.902 935.307 547.208 932.531 545.775 929.756 544.142 926.98 542.581 924.211 540.285 921.436 538.15 918.66 536.36 915.884 534.527 913.109 533.144 910.333 531.505 907.564 530.179 904.789 528.741 902.013 527.358 899.237 526.26 896.461 525.379 893.693 524.744 890.917 523.506 888.142 522.392 885.366 521.7 882.59 519.922 879.821 518.194 877.046 516.583 874.27 515.162 871.494 513.969 868.719 512.687 865.95 511.121 863.174 509.326 860.399 508.356 857.623 506.951 854.847 506.177 852.072 505 849.303 503.395 846.527 502.598 843.751 501.277 840.976 499.454 838.2 498.245 835.431 497.671 832.656 495.714 829.88 494.911 827.104 493.39 824.329 492.916 821.56 491.695 818.784 489.471 816.009 487.643 813.233 486.238 810.457 484.605 807.682 483.674 804.913 481.439 802.137 479.204 799.361 476.645 796.586 474.934 793.81 473.105 791.041 471.177 788.266 469.271 785.49 467.559 782.714 466.796 779.939 466.534 777.17 465.525 774.394 465.536 771.619 465.508 768.843 464.834 766.067 464.282 763.298 464.99 760.523 465.653 757.747 466.35 754.971 466.433 752.196 467.331 749.42 469.187 746.651 469.839 743.876 470.893 741.1 472.063 738.324 473.903 735.549 475.185 732.78 476.929 730.004 478.585 727.229 480.809 724.453 483.356 721.677 485.508 718.909 487.86 716.133 490.608 713.357 492.754 710.581 495.235 707.806 497.843 705.03 500.028 702.261 501.985 699.486 503.819 696.71 504.867 693.934 505.675 691.159 506.717 688.39 507.899 685.614 509.092 682.839 509.616 680.063 510.201 677.287 511.199 674.519 512.091 671.743 513.183 668.967 513.919 666.191 515.062 663.416 516.004 660.64 517.197 657.871 517.564 655.096 517.603 652.32 517.877 649.544 517.721 646.769 517.748 644 516.946Z" fill="#01665E" fill-rule="evenodd" fill-opacity="0.231373"/><path d="M644.5 500.193 647.269 501.105 650.044 501.122 652.82 501.29 655.596 501.24 658.371 501.184 661.14 500.277 663.916 499.218 666.692 497.796 669.467 496.609 672.243 495.864 675.019 494.738 677.787 493.792 680.563 492.582 683.339 491.501 686.114 491.126 688.89 489.603 691.659 488.298 694.434 486.948 697.21 485.918 699.986 484.473 702.762 482.765 705.53 480.088 708.306 477.607 711.081 474.331 713.857 471.576 716.633 469.229 719.409 465.964 722.177 463.26 724.953 460.874 727.729 457.771 730.504 455.47 733.28 453.308 736.049 451.214 738.824 449.606 741.6 447.596 744.376 446.19 747.151 444.841 749.92 444.079 752.696 442.085 755.472 441.307 758.247 441.027 761.023 440.276 763.799 439.828 766.567 439.1 769.343 439.8 772.119 440.573 774.894 440.495 777.67 440.865 780.439 441.665 783.214 441.979 785.99 443.183 788.766 445.009 791.541 447.377 794.31 449.657 797.086 451.914 799.862 454.238 802.637 457.111 805.413 459.591 808.182 462.028 810.957 463.204 813.733 465.18 816.509 467.124 819.284 468.692 822.06 471.397 824.829 472.937 827.604 473.693 830.38 475.289 833.156 476.073 835.931 478.374 838.7 479.237 841.476 480.592 844.251 482.698 847.027 484.271 849.803 485.47 852.572 486.926 855.347 488.281 858.123 489.2 860.899 490.902 863.674 492.28 866.45 494.256 869.219 495.92 871.994 497.857 874.77 499.011 877.546 500.366 880.322 502.382 883.09 504.505 885.866 506.498 888.642 507.372 891.417 508.699 894.193 510.06 896.962 510.9 899.737 511.835 902.513 513.011 905.289 514.787 908.064 516.293 910.833 517.811 913.609 519.709 916.384 521.361 919.16 523.45 921.936 525.841 924.711 528.02 927.48 530.428 930.256 532.551 933.032 534.527 935.807 536.107 938.583 537.955 941.352 539.864 944.127 541.382 946.903 542.659 949.679 544.042 952.454 545.347 955.223 546.988 957.999 548.376 960.774 549.945 963.55 551.109 966.326 552.179 969.101 553.069 971.87 553.915 974.646 554.576 977.422 555.298 980.197 556.043 982.973 556.396 985.742 556.766 988.517 557.118 991.293 557.768 994.069 557.975 996.844 558.384 999.613 558.871 1002.39 558.826 1005.16 559.045 1007.94 559.711 1010.72 560.17 1013.48 560.596 1016.26 560.887 1019.04 561.655 1021.81 562.13 1024.59 562.416 1027.36 562.444 1030.13 562.5 1032.91 562.416 1035.68 562.103 1038.46 561.722 1041.23 561.442 1044 560.854 1046.78 560.148 1049.55 559.644 1052.33 559.034 1055.11 558.11 1057.87 556.648 1060.65 555.466 1063.43 554.402 1066.2 553.064 1068.98 551.529 1071.75 549.726 1074.52 548.197 1077.3 546.109 1080.07 544.311 1082.85 542.328 1085.62 540.413 1088.39 537.703 1091.17 535.071 1093.94 532.539 1096.72 529.616 1099.5 526.508 1102.26 523.338 1105.04 520.185 1107.82 515.834 1110.59 512.037 1113.37 508.279 1116.14 503.603 1118.91 499.946 1121.69 495.354 1124.46 491.462 1127.24 487.077 1130.01 481.869 1132.78 476.476 1135.56 471.985 1138.33 466.704 1141.11 462.392 1143.89 458.488 1146.65 454.019 1149.43 449.696 1152.21 446.386 1154.98 442.746 1157.76 439.38 1160.53 436.177 1163.3 433.909 1166.08 430.969 1168.85 429.574 1171.63 428.779 1174.4 428.639 1177.17 427.323 1179.95 426.5 1182.72 427.206 1185.5 427.234" stroke="#35978F" stroke-width="2.95097" stroke-linejoin="round" stroke-miterlimit="10" fill="none" fill-rule="evenodd"/><path d="M622.5 627.5 622.5 312.5" stroke="#4B5E68" stroke-width="1.33333" stroke-linecap="square" stroke-linejoin="round" stroke-miterlimit="10" fill="none" fill-rule="evenodd"/><path d="M632 623 622 623" stroke="#000000" stroke-width="1.84441" stroke-linejoin="round" stroke-miterlimit="10" fill="none" fill-rule="evenodd"/><path d="M632 581 622 581" stroke="#000000" stroke-width="1.84441" stroke-linejoin="round" stroke-miterlimit="10" fill="none" fill-rule="evenodd"/><path d="M632 540 622 540" stroke="#000000" stroke-width="1.84441" stroke-linejoin="round" stroke-miterlimit="10" fill="none" fill-rule="evenodd"/><path d="M632 498 622 498" stroke="#000000" stroke-width="1.84441" stroke-linejoin="round" stroke-miterlimit="10" fill="none" fill-rule="evenodd"/><path d="M632 456 622 456" stroke="#000000" stroke-width="1.84441" stroke-linejoin="round" stroke-miterlimit="10" fill="none" fill-rule="evenodd"/><path d="M632 414 622 414" stroke="#000000" stroke-width="1.84441" stroke-linejoin="round" stroke-miterlimit="10" fill="none" fill-rule="evenodd"/><path d="M632 372 622 372" stroke="#000000" stroke-width="1.84441" stroke-linejoin="round" stroke-miterlimit="10" fill="none" fill-rule="evenodd"/><path d="M632 331 622 331" stroke="#000000" stroke-width="1.84441" stroke-linejoin="round" stroke-miterlimit="10" fill="none" fill-rule="evenodd"/><text fill="#4B5E68" font-family="Arial,Arial_MSFontService,sans-serif" font-weight="400" font-size="24" transform="translate(643.575 212)">Forecasted total new</text><text fill="#4B5E68" font-family="Arial,Arial_MSFontService,sans-serif" font-weight="400" font-size="24" transform="translate(872.909 212)">infections</text><text fill="#4B5E68" font-family="Arial,Arial_MSFontService,sans-serif" font-weight="400" font-size="24" transform="translate(980.909 212)">over</text><text fill="#4B5E68" font-family="Arial,Arial_MSFontService,sans-serif" font-weight="400" font-size="24" transform="translate(1034.24 212)">a period</text><path d="M622.5 478.5 1184.72 478.5" stroke="#C8A314" stroke-width="3" stroke-miterlimit="8" stroke-dasharray="12 9" fill="none" fill-rule="evenodd"/><text fill="#856D0E" font-family="Arial,Arial_MSFontService,sans-serif" font-weight="400" font-size="19" transform="translate(1135.17 503)">Threshold</text><text fill="#4B5E68" font-family="Arial,Arial_MSFontService,sans-serif" font-weight="400" font-size="24" transform="translate(785.411 664)">Forecast start day</text><path d="M765.5 444.5 765.5 624.586" stroke="#4B5E68" stroke-width="3" stroke-miterlimit="8" stroke-dasharray="12 9" fill="none" fill-rule="evenodd"/><path d="M765.056 439.5 624.5 439.5" stroke="#4B5E68" stroke-width="3" stroke-miterlimit="8" stroke-dasharray="12 9" fill="none" fill-rule="evenodd"/><text fill="#4B5E68" font-family="Arial,Arial_MSFontService,sans-serif" font-weight="400" font-size="21" transform="translate(744.756 275)">Median of forecasted</text><text fill="#4B5E68" font-family="Arial,Arial_MSFontService,sans-serif" font-weight="400" font-size="21" transform="translate(704.589 300)">cumulative incidence on day</text><text fill="#4B5E68" font-family="Arial,Arial_MSFontService,sans-serif" font-style="italic" font-weight="400" font-size="21" transform="translate(978.256 300)">t</text><text fill="#4B5E68" font-family="Arial,Arial_MSFontService,sans-serif" font-weight="400" font-size="21" transform="translate(1005.41 283)">= M</text><path d="M753.5 437C753.5 430.649 758.649 425.5 765 425.5 771.351 425.5 776.5 430.649 776.5 437 776.5 443.351 771.351 448.5 765 448.5 758.649 448.5 753.5 443.351 753.5 437Z" stroke="#A0234E" stroke-width="1.33333" stroke-miterlimit="8" fill="#EDADC3" fill-rule="evenodd" fill-opacity="0.301961"/><path d="M739.372 424.252C698.368 400.989 687.88 347.086 715.944 303.855 720.944 296.153 726.995 289.105 733.901 282.939" stroke="#953735" stroke-width="3" stroke-miterlimit="8" stroke-dasharray="12 9" fill="none" fill-rule="evenodd"/><path d="M745.981 399.36 750.064 432.215 717.364 427.034Z" stroke="#953735" stroke-width="1.33333" stroke-miterlimit="8" fill="#A0234E" fill-rule="evenodd"/><text fill="#4B5E68" font-family="Arial,Arial_MSFontService,sans-serif" font-style="italic" font-weight="400" font-size="24" transform="translate(757.546 649)">t</text><path d="M753.5 477C753.5 470.649 758.649 465.5 765 465.5 771.351 465.5 776.5 470.649 776.5 477 776.5 483.351 771.351 488.5 765 488.5 758.649 488.5 753.5 483.351 753.5 477Z" stroke="#193056" stroke-width="1.33333" stroke-miterlimit="8" fill="#93CDDD" fill-rule="evenodd" fill-opacity="0.301961"/><text fill="#4B5E68" font-family="Arial,Arial_MSFontService,sans-serif" font-weight="400" font-size="21" transform="translate(773.973 581)">Percentile of the threshold</text><text fill="#4B5E68" font-family="Arial,Arial_MSFontService,sans-serif" font-weight="400" font-size="21" transform="translate(773.973 606)">in the forecasted incidence distribution</text><path d="M790.535 481.883C829.021 484.439 859.171 514.731 864.088 555.786" stroke="#31859C" stroke-width="3" stroke-miterlimit="8" stroke-dasharray="12 9" fill="none" fill-rule="evenodd"/><path d="M795.405 507.174 777.444 479.361 809.145 469.81Z" stroke="#31859C" stroke-width="1.33333" stroke-miterlimit="8" fill="#93CDDD" fill-rule="evenodd"/><text fill="#4B5E68" font-family="Arial,Arial_MSFontService,sans-serif" font-weight="400" font-size="21" transform="translate(1134.58 586)">= 1</text><text fill="#4B5E68" font-family="Arial,Arial_MSFontService,sans-serif" font-weight="400" font-size="21" transform="translate(1170.91 586)">–</text><text fill="#4B5E68" font-family="Arial,Arial_MSFontService,sans-serif" font-weight="400" font-size="21" transform="translate(1188.74 586)">P</text><text fill="#4B5E68" font-family="Arial,Arial_MSFontService,sans-serif" font-weight="400" font-size="14" transform="translate(1202.91 590)">θ</text><text fill="#4B5E68" font-family="Arial,Arial_MSFontService,sans-serif" font-weight="400" font-size="21" transform="translate(1210.74 586)">(t)</text></g></svg>