<svg width="1282" height="723" xmlns="http://www.w3.org/2000/svg" xmlns:xlink="http://www.w3.org/1999/xlink" overflow="hidden"><g transform="translate(1 2)"><rect x="0" y="0" width="1280" height="720" fill="#FFFFFF"/><rect x="0.500053" y="0.500053" width="321" height="37" stroke="#7F7F7F" stroke-width="1.33333" stroke-miterlimit="8" fill="#D9D9D9"/><text fill="#A6A6A6" font-family="Arial,Arial_MSFontService,sans-serif" font-weight="700" font-size="21" transform="translate(98.3799 27)">Introduction</text><rect x="320.5" y="0.500053" width="321" height="37" stroke="#7F7F7F" stroke-width="1.33333" stroke-miterlimit="8" fill="#4B5E68"/><text fill="#FFFFFF" font-family="Arial,Arial_MSFontService,sans-serif" font-weight="700" font-size="21" transform="translate(376.718 27)">Materials &amp; Methods</text><rect x="639.5" y="0.500053" width="321" height="37" stroke="#7F7F7F" stroke-width="1.33333" stroke-miterlimit="8" fill="#D9D9D9"/><text fill="#A6A6A6" font-family="Arial,Arial_MSFontService,sans-serif" font-weight="700" font-size="21" transform="translate(690.449 27)">Results &amp; Discussion</text><rect x="959.5" y="0.500053" width="321" height="37" stroke="#7F7F7F" stroke-width="1.33333" stroke-miterlimit="8" fill="#D9D9D9"/><text fill="#A6A6A6" font-family="Arial,Arial_MSFontService,sans-serif" font-weight="700" font-size="21" transform="translate(1061.32 27)">Conclusion</text><text fill="#4B5E68" font-family="Arial,Arial_MSFontService,sans-serif" font-weight="700" font-size="37" transform="translate(107.227 83)">Stochastic Susceptible</text><text fill="#4B5E68" font-family="Arial,Arial_MSFontService,sans-serif" font-weight="700" font-size="37" transform="translate(516.561 83)">-</text><text fill="#4B5E68" font-family="Arial,Arial_MSFontService,sans-serif" font-weight="700" font-size="37" transform="translate(529.061 83)">Exposed</text><text fill="#4B5E68" font-family="Arial,Arial_MSFontService,sans-serif" font-weight="700" font-size="37" transform="translate(684.894 83)">-</text><text fill="#4B5E68" font-family="Arial,Arial_MSFontService,sans-serif" font-weight="700" font-size="37" transform="translate(697.394 83)">Infected</text><text fill="#4B5E68" font-family="Arial,Arial_MSFontService,sans-serif" font-weight="700" font-size="37" transform="translate(840.894 83)">-</text><text fill="#4B5E68" font-family="Arial,Arial_MSFontService,sans-serif" font-weight="700" font-size="37" transform="translate(853.394 83)">Recovered model</text><path d="M76.5001 151.5 1172.56 151.5" stroke="#4B5E68" stroke-miterlimit="8" stroke-dasharray="8 3" fill="none" fill-rule="evenodd"/><text fill="#4B5E68" font-family="Arial,Arial_MSFontService,sans-serif" font-weight="400" font-size="24" transform="translate(41.8526 130)">P</text><text fill="#4B5E68" font-family="Arial,Arial_MSFontService,sans-serif" font-weight="400" font-size="24" transform="translate(57.8526 130)">robability</text><text fill="#4B5E68" font-family="Arial,Arial_MSFontService,sans-serif" font-weight="400" font-size="24" transform="translate(160.519 130)">that the total number of new infections</text><text fill="#4B5E68" font-family="Arial,Arial_MSFontService,sans-serif" font-weight="700" font-size="24" transform="translate(572.519 130)">within a relative long</text><text fill="#4B5E68" font-family="Arial,Arial_MSFontService,sans-serif" font-weight="700" font-size="24" transform="translate(809.853 130)">-</text><text fill="#4B5E68" font-family="Arial,Arial_MSFontService,sans-serif" font-weight="700" font-size="24" transform="translate(817.853 130)">term period</text><text fill="#4B5E68" font-family="Arial,Arial_MSFontService,sans-serif" font-weight="400" font-size="24" transform="translate(956.519 130)">exceeds</text><text fill="#4B5E68" font-family="Arial,Arial_MSFontService,sans-serif" font-weight="400" font-size="24" transform="translate(1052.52 130)">a</text><text fill="#4B5E68" font-family="Arial,Arial_MSFontService,sans-serif" font-weight="400" font-size="24" transform="translate(1072.52 130)">baseline</text><text fill="#4B5E68" font-family="Arial,Arial_MSFontService,sans-serif" font-weight="400" font-size="24" transform="translate(1161.85 130)">, P</text><text fill="#4B5E68" font-family="Arial,Arial_MSFontService,sans-serif" font-weight="400" font-size="16" transform="translate(1191.19 135)">θ</text><text fill="#4B5E68" font-family="Arial,Arial_MSFontService,sans-serif" font-weight="400" font-size="24" transform="translate(1200.02 130)">.</text><path d="M131.5 227.5C131.5 200.438 153.662 178.5 181 178.5 208.338 178.5 230.5 200.438 230.5 227.5 230.5 254.562 208.338 276.5 181 276.5 153.662 276.5 131.5 254.562 131.5 227.5Z" stroke="#632523" stroke-width="1.33333" stroke-miterlimit="8" fill="#A0234E" fill-rule="evenodd"/><path d="M424.5 219C424.5 191.662 446.438 169.5 473.5 169.5 500.562 169.5 522.5 191.662 522.5 219 522.5 246.338 500.562 268.5 473.5 268.5 446.438 268.5 424.5 246.338 424.5 219Z" stroke="#856D0E" stroke-width="1.33333" stroke-miterlimit="8" fill="#856D0E" fill-rule="evenodd"/><path d="M749.5 218.5C749.5 191.438 771.438 169.5 798.5 169.5 825.562 169.5 847.5 191.438 847.5 218.5 847.5 245.562 825.562 267.5 798.5 267.5 771.438 267.5 749.5 245.562 749.5 218.5Z" stroke="#264980" stroke-width="1.33333" stroke-miterlimit="8" fill="#215968" fill-rule="evenodd"/><text fill="#FFFFFF" font-family="Arial,Arial_MSFontService,sans-serif" font-weight="400" font-size="24" transform="translate(58.2592 235)">‘</text><text fill="#4B5E68" font-family="Arial,Arial_MSFontService,sans-serif" font-weight="400" font-size="24" transform="translate(63.5925 235)">t</text><text fill="#FFFFFF" font-family="Arial,Arial_MSFontService,sans-serif" font-weight="400" font-size="24" transform="translate(44.4765 480)">‘</text><text fill="#4B5E68" font-family="Arial,Arial_MSFontService,sans-serif" font-weight="400" font-size="24" transform="translate(49.8099 480)">t +1</text><text fill="#FFFFFF" font-family="Arial,Arial_MSFontService,sans-serif" font-weight="400" font-size="24" transform="translate(43.215 662)">‘</text><text fill="#4B5E68" font-family="Arial,Arial_MSFontService,sans-serif" font-weight="400" font-size="24" transform="translate(48.5483 662)">t + N</text><text fill="#4B5E68" font-family="Arial,Arial_MSFontService,sans-serif" font-weight="400" font-size="24" transform="matrix(6.12323e-17 1 -1 6.12323e-17 67.2458 514)">…..</text><text fill="#4B5E68" font-family="Cambria Math,Cambria Math_MSFontService,sans-serif" font-weight="400" font-size="21" transform="translate(209.739 297)">∆</text><text fill="#4B5E68" font-family="Cambria Math,Cambria Math_MSFontService,sans-serif" font-weight="400" font-size="16" transform="translate(221.799 302)">𝑆𝐸</text><path d="M260.499 281.595C262.495 282.121 264.028 283.257 265.098 285.004 266.168 286.751 266.703 288.858 266.703 291.326 266.703 293.8 266.17 295.907 265.103 297.647 264.037 299.387 262.502 300.52 260.499 301.046L260.253 300.257C261.832 299.73 263.006 298.691 263.775 297.139 264.544 295.588 264.929 293.616 264.929 291.223 264.929 288.912 264.546 286.993 263.781 285.465 263.015 283.938 261.829 282.91 260.222 282.384ZM250.009 281.595 250.286 282.384C248.686 282.91 247.502 283.938 246.733 285.465 245.964 286.993 245.579 288.912 245.579 291.223 245.579 293.616 245.964 295.588 246.733 297.139 247.502 298.691 248.676 299.73 250.255 300.257L250.009 301.046C248.006 300.52 246.471 299.387 245.405 297.647 244.338 295.907 243.805 293.8 243.805 291.326 243.805 288.858 244.34 286.751 245.41 285.004 246.48 283.257 248.013 282.121 250.009 281.595Z" fill="#4B5E68" fill-rule="evenodd"/><text fill="#4B5E68" font-family="Cambria Math,Cambria Math_MSFontService,sans-serif" font-weight="400" font-size="21" transform="translate(250.813 297)">𝑡</text><text fill="#4B5E68" font-family="Cambria Math,Cambria Math_MSFontService,sans-serif" font-weight="400" font-size="21" transform="translate(268.686 297)"></text><text fill="#4B5E68" font-family="Cambria Math,Cambria Math_MSFontService,sans-serif" font-weight="400" font-size="21" transform="translate(273.353 297)"></text><text fill="#4B5E68" font-family="Cambria Math,Cambria Math_MSFontService,sans-serif" font-weight="400" font-size="21" transform="translate(278.019 297)">~</text><text fill="#4B5E68" font-family="Cambria Math,Cambria Math_MSFontService,sans-serif" font-weight="400" font-size="21" transform="translate(293.186 297)"></text><text fill="#4B5E68" font-family="Cambria Math,Cambria Math_MSFontService,sans-serif" font-weight="400" font-size="21" transform="translate(297.853 297)">𝐵𝑁</text><path d="M442.069 278.649C444.202 279.209 445.846 280.662 447.001 283.007 448.156 285.351 448.734 288.127 448.734 291.333 448.734 294.539 448.156 297.314 447.001 299.659 445.846 302.004 444.202 303.456 442.069 304.017L441.813 303.176C443.467 302.554 444.72 301.199 445.571 299.111 446.422 297.022 446.847 294.433 446.847 291.343 446.847 288.246 446.422 285.652 445.571 283.56 444.72 281.469 443.467 280.112 441.813 279.49ZM336.55 278.649 336.807 279.49C335.152 280.112 333.9 281.469 333.048 283.56 332.197 285.652 331.772 288.246 331.772 291.343 331.772 294.433 332.197 297.022 333.048 299.111 333.9 301.199 335.152 302.554 336.807 303.176L336.55 304.017C334.417 303.456 332.773 302.004 331.618 299.659 330.463 297.314 329.885 294.539 329.885 291.333 329.885 288.127 330.463 285.351 331.618 283.007 332.773 280.662 334.417 279.209 336.55 278.649Z" fill="#4B5E68" fill-rule="evenodd"/><text fill="#4B5E68" font-family="Cambria Math,Cambria Math_MSFontService,sans-serif" font-weight="400" font-size="21" transform="translate(337.626 297)">𝑆</text><path d="M367.919 281.595C369.915 282.121 371.448 283.257 372.518 285.004 373.588 286.751 374.123 288.858 374.123 291.326 374.123 293.8 373.59 295.907 372.523 297.647 371.457 299.387 369.922 300.52 367.919 301.046L367.673 300.257C369.252 299.73 370.426 298.691 371.195 297.139 371.964 295.588 372.349 293.616 372.349 291.223 372.349 288.912 371.966 286.993 371.201 285.465 370.435 283.938 369.249 282.91 367.642 282.384ZM357.429 281.595 357.706 282.384C356.106 282.91 354.922 283.938 354.153 285.465 353.384 286.993 352.999 288.912 352.999 291.223 352.999 293.616 353.384 295.588 354.153 297.139 354.922 298.691 356.096 299.73 357.675 300.257L357.429 301.046C355.426 300.52 353.891 299.387 352.825 297.647 351.758 295.907 351.225 293.8 351.225 291.326 351.225 288.858 351.76 286.751 352.83 285.004 353.9 283.257 355.433 282.121 357.429 281.595Z" fill="#4B5E68" fill-rule="evenodd"/><text fill="#4B5E68" font-family="Cambria Math,Cambria Math_MSFontService,sans-serif" font-weight="400" font-size="21" transform="translate(358.233 297)">𝑡</text><text fill="#4B5E68" font-family="Cambria Math,Cambria Math_MSFontService,sans-serif" font-weight="400" font-size="21" transform="translate(376.106 297)">,</text><text fill="#4B5E68" font-family="Cambria Math,Cambria Math_MSFontService,sans-serif" font-weight="400" font-size="21" transform="translate(383.993 297)">𝑃</text><text fill="#4B5E68" font-family="Cambria Math,Cambria Math_MSFontService,sans-serif" font-weight="400" font-size="16" transform="translate(394.259 302)">𝑆𝐸</text><path d="M432.959 281.595C434.955 282.121 436.488 283.257 437.558 285.004 438.628 286.751 439.163 288.858 439.163 291.326 439.163 293.8 438.63 295.907 437.563 297.647 436.497 299.387 434.962 300.52 432.959 301.046L432.713 300.257C434.292 299.73 435.466 298.691 436.235 297.139 437.004 295.588 437.389 293.616 437.389 291.223 437.389 288.912 437.006 286.993 436.241 285.465 435.475 283.938 434.289 282.91 432.682 282.384ZM422.469 281.595 422.746 282.384C421.146 282.91 419.962 283.938 419.193 285.465 418.424 286.993 418.039 288.912 418.039 291.223 418.039 293.616 418.424 295.588 419.193 297.139 419.962 298.691 421.136 299.73 422.715 300.257L422.469 301.046C420.466 300.52 418.931 299.387 417.865 297.647 416.798 295.907 416.265 293.8 416.265 291.326 416.265 288.858 416.8 286.751 417.87 285.004 418.94 283.257 420.473 282.121 422.469 281.595Z" fill="#4B5E68" fill-rule="evenodd"/><text fill="#4B5E68" font-family="Cambria Math,Cambria Math_MSFontService,sans-serif" font-weight="400" font-size="21" transform="translate(423.273 297)">𝑡</text><text fill="#4B5E68" font-family="Cambria Math,Cambria Math_MSFontService,sans-serif" font-weight="400" font-size="21" transform="translate(450.733 297)"></text><text fill="#4B5E68" font-family="Cambria Math,Cambria Math_MSFontService,sans-serif" font-weight="400" font-size="21" transform="translate(210.438 336)">𝑃</text><text fill="#4B5E68" font-family="Cambria Math,Cambria Math_MSFontService,sans-serif" font-weight="400" font-size="16" transform="translate(220.705 341)">𝑆𝐸</text><path d="M259.404 320.705C261.401 321.231 262.933 322.367 264.003 324.114 265.073 325.861 265.608 327.968 265.608 330.436 265.608 332.91 265.075 335.017 264.008 336.757 262.942 338.497 261.407 339.63 259.404 340.156L259.158 339.367C260.737 338.84 261.911 337.801 262.681 336.249 263.45 334.698 263.834 332.726 263.834 330.333 263.834 328.022 263.451 326.103 262.686 324.575 261.92 323.048 260.734 322.02 259.128 321.494ZM248.914 320.705 249.191 321.494C247.591 322.02 246.407 323.048 245.638 324.575 244.869 326.103 244.484 328.022 244.484 330.333 244.484 332.726 244.869 334.698 245.638 336.249 246.407 337.801 247.581 338.84 249.16 339.367L248.914 340.156C246.911 339.63 245.376 338.497 244.31 336.757 243.243 335.017 242.71 332.91 242.71 330.436 242.71 327.968 243.245 325.861 244.315 324.114 245.385 322.367 246.918 321.231 248.914 320.705Z" fill="#4B5E68" fill-rule="evenodd"/><text fill="#4B5E68" font-family="Cambria Math,Cambria Math_MSFontService,sans-serif" font-weight="400" font-size="21" transform="translate(249.718 336)">𝑡</text><text fill="#4B5E68" font-family="Cambria Math,Cambria Math_MSFontService,sans-serif" font-weight="400" font-size="21" transform="translate(273.518 336)">=</text><text fill="#4B5E68" font-family="Cambria Math,Cambria Math_MSFontService,sans-serif" font-weight="400" font-size="21" transform="translate(295.445 336)">1</text><text fill="#4B5E68" font-family="Cambria Math,Cambria Math_MSFontService,sans-serif" font-weight="400" font-size="21" transform="translate(312.018 336)">−</text><text fill="#4B5E68" font-family="Cambria Math,Cambria Math_MSFontService,sans-serif" font-weight="400" font-size="21" transform="translate(332.758 336)">exp</text><path d="M438.523 313.127C440.813 314.289 442.633 316.422 443.983 319.526 445.333 322.629 446.008 326.266 446.008 330.436 446.008 334.578 445.333 338.215 443.983 341.346 442.633 344.477 440.813 346.616 438.523 347.765L438.195 346.945C440.027 345.755 441.461 343.711 442.496 340.813 443.532 337.914 444.05 334.462 444.05 330.456 444.05 326.375 443.528 322.901 442.486 320.033 441.443 317.165 440.013 315.137 438.195 313.947ZM378.091 313.127 378.429 313.947C376.611 315.137 375.181 317.165 374.138 320.033 373.096 322.901 372.574 326.375 372.574 330.456 372.574 334.462 373.091 337.914 374.123 340.813 375.155 343.711 376.591 345.755 378.429 346.945L378.091 347.765C375.808 346.616 373.991 344.477 372.641 341.346 371.291 338.215 370.616 334.578 370.616 330.436 370.616 326.266 371.291 322.629 372.641 319.526 373.991 316.422 375.808 314.289 378.091 313.127Z" fill="#4B5E68" fill-rule="evenodd"/><text fill="#4B5E68" font-family="Cambria Math,Cambria Math_MSFontService,sans-serif" font-weight="400" font-size="21" transform="translate(379.271 336)">−</text><text fill="#4B5E68" font-family="Cambria Math,Cambria Math_MSFontService,sans-serif" font-weight="400" font-size="16" transform="translate(398.825 324)">𝛽𝐽</text><path d="M431.559 311.986C433.08 312.387 434.248 313.253 435.063 314.583 435.878 315.914 436.286 317.52 436.286 319.4 436.286 321.285 435.879 322.891 435.067 324.216 434.254 325.542 433.085 326.405 431.559 326.806L431.372 326.204C432.575 325.803 433.469 325.012 434.055 323.829 434.641 322.647 434.934 321.145 434.934 319.322 434.934 317.561 434.642 316.099 434.059 314.935 433.476 313.771 432.572 312.988 431.348 312.587ZM423.464 311.986 423.675 312.587C422.456 312.988 421.554 313.771 420.968 314.935 420.382 316.099 420.089 317.561 420.089 319.322 420.089 321.145 420.382 322.647 420.968 323.829 421.554 325.012 422.448 325.803 423.652 326.204L423.464 326.806C421.938 326.405 420.769 325.542 419.956 324.216 419.144 322.891 418.737 321.285 418.737 319.4 418.737 317.52 419.145 315.914 419.96 314.583 420.775 313.253 421.943 312.387 423.464 311.986Z" fill="#4B5E68" fill-rule="evenodd"/><text fill="#4B5E68" font-family="Cambria Math,Cambria Math_MSFontService,sans-serif" font-weight="400" font-size="16" transform="translate(423.798 324)">𝑡</text><text fill="#4B5E68" font-family="Cambria Math,Cambria Math_MSFontService,sans-serif" font-weight="400" font-size="16" transform="translate(412.071 347)">𝑁</text><path d="M398.438 329.441 437.438 329.441 437.438 330.441 398.438 330.441Z" fill="#4B5E68" fill-rule="evenodd"/><text fill="#4B5E68" font-family="Cambria Math,Cambria Math_MSFontService,sans-serif" font-weight="400" font-size="21" transform="translate(447.978 336)"></text><text fill="#4B5E68" font-family="Cambria Math,Cambria Math_MSFontService,sans-serif" font-weight="400" font-size="21" transform="translate(452.645 336)"></text><text fill="#4B5E68" font-family="Cambria Math,Cambria Math_MSFontService,sans-serif" font-weight="400" font-size="21" transform="translate(457.311 336)"></text><text fill="#4B5E68" font-family="Cambria Math,Cambria Math_MSFontService,sans-serif" font-weight="400" font-size="21" transform="translate(461.978 336)"></text><text fill="#4B5E68" font-family="Cambria Math,Cambria Math_MSFontService,sans-serif" font-weight="400" font-size="21" transform="translate(466.645 336)"></text><text fill="#4B5E68" font-family="Cambria Math,Cambria Math_MSFontService,sans-serif" font-weight="400" font-size="21" transform="translate(471.311 336)"></text><text fill="#4B5E68" font-family="Cambria Math,Cambria Math_MSFontService,sans-serif" font-weight="400" font-size="21" transform="translate(204.438 384)"></text><text fill="#4B5E68" font-family="Cambria Math,Cambria Math_MSFontService,sans-serif" font-weight="400" font-size="21" transform="translate(209.105 384)"></text><text fill="#4B5E68" font-family="Cambria Math,Cambria Math_MSFontService,sans-serif" font-weight="400" font-size="21" transform="translate(213.771 384)">𝐽</text><path d="M240.898 368.705C242.894 369.231 244.427 370.367 245.497 372.114 246.566 373.861 247.101 375.968 247.101 378.436 247.101 380.91 246.568 383.017 245.502 384.757 244.435 386.497 242.901 387.63 240.898 388.156L240.652 387.367C242.231 386.84 243.405 385.801 244.174 384.25 244.943 382.698 245.327 380.726 245.327 378.333 245.327 376.022 244.945 374.103 244.179 372.575 243.413 371.048 242.227 370.02 240.621 369.494ZM230.407 368.705 230.684 369.494C229.084 370.02 227.9 371.048 227.131 372.575 226.362 374.103 225.978 376.022 225.978 378.333 225.978 380.726 226.362 382.698 227.131 384.25 227.9 385.801 229.074 386.84 230.653 387.367L230.407 388.156C228.404 387.63 226.87 386.497 225.803 384.757 224.737 383.017 224.204 380.91 224.204 378.436 224.204 375.968 224.739 373.861 225.808 372.114 226.878 370.367 228.411 369.231 230.407 368.705Z" fill="#4B5E68" fill-rule="evenodd"/><text fill="#4B5E68" font-family="Cambria Math,Cambria Math_MSFontService,sans-serif" font-weight="400" font-size="21" transform="translate(231.211 384)">𝑡</text><text fill="#4B5E68" font-family="Cambria Math,Cambria Math_MSFontService,sans-serif" font-weight="400" font-size="21" transform="translate(249.085 384)"></text><text fill="#4B5E68" font-family="Cambria Math,Cambria Math_MSFontService,sans-serif" font-weight="400" font-size="21" transform="translate(253.751 384)"></text><text fill="#4B5E68" font-family="Cambria Math,Cambria Math_MSFontService,sans-serif" font-weight="400" font-size="21" transform="translate(258.418 384)">~</text><text fill="#4B5E68" font-family="Cambria Math,Cambria Math_MSFontService,sans-serif" font-weight="400" font-size="21" transform="translate(273.585 384)"></text><text fill="#4B5E68" font-family="Cambria Math,Cambria Math_MSFontService,sans-serif" font-weight="400" font-size="21" transform="translate(278.251 384)"></text><text fill="#4B5E68" font-family="Cambria Math,Cambria Math_MSFontService,sans-serif" font-weight="400" font-size="21" transform="translate(282.918 384)">𝐺𝑎𝑚𝑚𝑎</text><path d="M437.91 351.673C440.719 354.079 442.95 357.668 444.601 362.44 446.251 367.211 447.077 372.536 447.077 378.415 447.077 384.205 446.251 389.522 444.601 394.365 442.95 399.208 440.719 402.826 437.91 405.219L437.428 404.46C439.855 401.992 441.724 398.421 443.037 393.745 444.349 389.069 445.006 383.963 445.006 378.426 445.006 372.759 444.346 367.628 443.027 363.034 441.707 358.441 439.841 354.91 437.428 352.442ZM370.714 351.673 371.196 352.442C368.776 354.91 366.908 358.441 365.592 363.034 364.276 367.628 363.619 372.759 363.619 378.426 363.619 383.963 364.275 389.069 365.587 393.745 366.9 398.421 368.769 401.992 371.196 404.46L370.714 405.219C367.905 402.826 365.674 399.208 364.024 394.365 362.373 389.522 361.547 384.205 361.547 378.415 361.547 372.536 362.373 367.211 364.024 362.44 365.674 357.668 367.905 354.079 370.714 351.673Z" fill="#4B5E68" fill-rule="evenodd"/><text fill="#4B5E68" font-family="Cambria Math,Cambria Math_MSFontService,sans-serif" font-weight="400" font-size="21" transform="translate(372.065 384)">𝑘</text><text fill="#4B5E68" font-family="Cambria Math,Cambria Math_MSFontService,sans-serif" font-weight="400" font-size="16" transform="translate(383.405 389)">1</text><text fill="#4B5E68" font-family="Cambria Math,Cambria Math_MSFontService,sans-serif" font-weight="400" font-size="21" transform="translate(393.291 384)">,</text><text fill="#4B5E68" font-family="Cambria Math,Cambria Math_MSFontService,sans-serif" font-weight="400" font-size="21" transform="translate(401.178 368)">𝐼</text><path d="M428.564 352.558C430.56 353.084 432.093 354.221 433.163 355.967 434.233 357.714 434.768 359.821 434.768 362.289 434.768 364.763 434.235 366.871 433.168 368.61 432.102 370.35 430.567 371.483 428.564 372.01L428.318 371.22C429.897 370.694 431.071 369.655 431.841 368.103 432.61 366.551 432.994 364.579 432.994 362.186 432.994 359.876 432.611 357.957 431.846 356.429 431.08 354.901 429.894 353.874 428.288 353.347ZM418.074 352.558 418.351 353.347C416.751 353.874 415.567 354.901 414.798 356.429 414.029 357.957 413.644 359.876 413.644 362.186 413.644 364.579 414.029 366.551 414.798 368.103 415.567 369.655 416.741 370.694 418.32 371.22L418.074 372.01C416.071 371.483 414.536 370.35 413.47 368.61 412.403 366.871 411.87 364.763 411.87 362.289 411.87 359.821 412.405 357.714 413.475 355.967 414.545 354.221 416.078 353.084 418.074 352.558Z" fill="#4B5E68" fill-rule="evenodd"/><text fill="#4B5E68" font-family="Cambria Math,Cambria Math_MSFontService,sans-serif" font-weight="400" font-size="21" transform="translate(418.878 368)">𝑡</text><text fill="#4B5E68" font-family="Cambria Math,Cambria Math_MSFontService,sans-serif" font-weight="400" font-size="21" transform="translate(408.351 399)">𝑘</text><text fill="#4B5E68" font-family="Cambria Math,Cambria Math_MSFontService,sans-serif" font-weight="400" font-size="16" transform="translate(419.691 403)">1</text><path d="M401.438 377.441 437.438 377.441 437.438 378.441 401.438 378.441Z" fill="#4B5E68" fill-rule="evenodd"/><text fill="#4B5E68" font-family="Cambria Math,Cambria Math_MSFontService,sans-serif" font-weight="400" font-size="21" transform="translate(448.991 384)"></text><text fill="#4B5E68" font-family="Cambria Math,Cambria Math_MSFontService,sans-serif" font-weight="400" font-size="21" transform="translate(453.658 384)"></text><text fill="#4B5E68" font-family="Cambria Math,Cambria Math_MSFontService,sans-serif" font-weight="400" font-size="21" transform="translate(458.325 384)"></text><text fill="#4B5E68" font-family="Cambria Math,Cambria Math_MSFontService,sans-serif" font-weight="400" font-size="21" transform="translate(462.991 384)"></text><text fill="#4B5E68" font-family="Cambria Math,Cambria Math_MSFontService,sans-serif" font-weight="400" font-size="21" transform="translate(467.658 384)"></text><text fill="#4B5E68" font-family="Cambria Math,Cambria Math_MSFontService,sans-serif" font-weight="400" font-size="21" transform="translate(472.325 384)"></text><text fill="#4B5E68" font-family="Cambria Math,Cambria Math_MSFontService,sans-serif" font-weight="400" font-size="21" transform="translate(476.991 384)"></text><text fill="#4B5E68" font-family="Cambria Math,Cambria Math_MSFontService,sans-serif" font-weight="400" font-size="21" transform="translate(481.658 384)"></text><text fill="#4B5E68" font-family="Cambria Math,Cambria Math_MSFontService,sans-serif" font-weight="400" font-size="21" transform="translate(875.544 324)">𝑃</text><text fill="#4B5E68" font-family="Cambria Math,Cambria Math_MSFontService,sans-serif" font-weight="400" font-size="16" transform="translate(886.417 328)">𝐼𝑅</text><text fill="#4B5E68" font-family="Cambria Math,Cambria Math_MSFontService,sans-serif" font-weight="400" font-size="21" transform="translate(910.037 324)">=</text><text fill="#4B5E68" font-family="Cambria Math,Cambria Math_MSFontService,sans-serif" font-weight="400" font-size="21" transform="translate(931.964 324)">1</text><text fill="#4B5E68" font-family="Cambria Math,Cambria Math_MSFontService,sans-serif" font-weight="400" font-size="21" transform="translate(948.537 324)">−</text><text fill="#4B5E68" font-family="Cambria Math,Cambria Math_MSFontService,sans-serif" font-weight="400" font-size="21" transform="translate(969.277 324)">exp</text><path d="M1039.04 308.303C1041.03 308.829 1042.57 309.966 1043.64 311.712 1044.71 313.459 1045.24 315.566 1045.24 318.034 1045.24 320.509 1044.71 322.616 1043.64 324.355 1042.57 326.095 1041.04 327.228 1039.04 327.755L1038.79 326.965C1040.37 326.439 1041.54 325.4 1042.31 323.848 1043.08 322.296 1043.47 320.324 1043.47 317.931 1043.47 315.621 1043.08 313.702 1042.32 312.174 1041.55 310.646 1040.37 309.619 1038.76 309.093ZM1009.83 308.303 1010.1 309.093C1008.5 309.619 1007.32 310.646 1006.55 312.174 1005.78 313.702 1005.4 315.621 1005.4 317.931 1005.4 320.324 1005.78 322.296 1006.55 323.848 1007.32 325.4 1008.49 326.439 1010.07 326.965L1009.83 327.755C1007.82 327.228 1006.29 326.095 1005.22 324.355 1004.16 322.616 1003.62 320.509 1003.62 318.034 1003.62 315.566 1004.16 313.459 1005.23 311.712 1006.3 309.966 1007.83 308.829 1009.83 308.303Z" fill="#4B5E68" fill-rule="evenodd"/><text fill="#4B5E68" font-family="Cambria Math,Cambria Math_MSFontService,sans-serif" font-weight="400" font-size="21" transform="translate(1010.63 324)">−</text><text fill="#4B5E68" font-family="Cambria Math,Cambria Math_MSFontService,sans-serif" font-weight="400" font-size="21" transform="translate(1026.63 324)">𝛾</text><text fill="#4B5E68" font-family="Cambria Math,Cambria Math_MSFontService,sans-serif" font-weight="400" font-size="21" transform="translate(1047.22 324)"></text><text fill="#4B5E68" font-family="Cambria Math,Cambria Math_MSFontService,sans-serif" font-weight="400" font-size="21" transform="translate(1051.89 324)"></text><text fill="#4B5E68" font-family="Cambria Math,Cambria Math_MSFontService,sans-serif" font-weight="400" font-size="21" transform="translate(1056.56 324)"></text><path d="M901 216 1030.84 216 1030.84 220 901 220ZM1028.84 212 1040.84 218 1028.84 224Z" fill="#4B5E68"/><text fill="#A0234E" font-family="Arial,Arial_MSFontService,sans-serif" font-weight="400" font-size="24" transform="translate(288.014 253)">Δ</text><text fill="#A0234E" font-family="Arial,Arial_MSFontService,sans-serif" font-weight="400" font-size="16" transform="translate(304.014 258)">SE</text><text fill="#A0234E" font-family="Arial,Arial_MSFontService,sans-serif" font-weight="400" font-size="24" transform="translate(325.348 253)">(t)</text><text fill="#4B5E68" font-family="Arial,Arial_MSFontService,sans-serif" font-weight="400" font-size="24" transform="translate(599.424 246)">Δ</text><text fill="#4B5E68" font-family="Arial,Arial_MSFontService,sans-serif" font-weight="400" font-size="16" transform="translate(615.424 251)">EI</text><text fill="#4B5E68" font-family="Arial,Arial_MSFontService,sans-serif" font-weight="400" font-size="24" transform="translate(630.59 246)">(t)</text><text fill="#4B5E68" font-family="Arial,Arial_MSFontService,sans-serif" font-weight="400" font-size="24" transform="translate(939.737 250)">Δ</text><text fill="#4B5E68" font-family="Arial,Arial_MSFontService,sans-serif" font-weight="400" font-size="16" transform="translate(955.737 255)">IR</text><text fill="#4B5E68" font-family="Arial,Arial_MSFontService,sans-serif" font-weight="400" font-size="24" transform="translate(971.737 250)">(t)</text><text fill="#FFFFFF" font-family="Arial,Arial_MSFontService,sans-serif" font-weight="400" font-size="24" transform="translate(162.204 233)">S(t)</text><text fill="#FFFFFF" font-family="Arial,Arial_MSFontService,sans-serif" font-weight="400" font-size="24" transform="translate(452.602 223)">E(t)</text><text fill="#FFFFFF" font-family="Arial,Arial_MSFontService,sans-serif" font-weight="400" font-size="24" transform="translate(782.916 223)">I(t)</text><path d="M1073.5 219C1073.5 191.662 1095.66 169.5 1123 169.5 1150.34 169.5 1172.5 191.662 1172.5 219 1172.5 246.338 1150.34 268.5 1123 268.5 1095.66 268.5 1073.5 246.338 1073.5 219Z" stroke="#000000" stroke-width="1.33333" stroke-miterlimit="8" fill="#005C2A" fill-rule="evenodd"/><text fill="#FFFFFF" font-family="Arial,Arial_MSFontService,sans-serif" font-weight="400" font-size="24" transform="translate(1102.69 223)">R(t)</text><text fill="#4B5E68" font-family="Cambria Math,Cambria Math_MSFontService,sans-serif" font-weight="400" font-size="21" transform="translate(868.791 292)">∆</text><text fill="#4B5E68" font-family="Cambria Math,Cambria Math_MSFontService,sans-serif" font-weight="400" font-size="16" transform="translate(881.458 297)">𝐼𝑅</text><path d="M917.691 276.759C919.687 277.285 921.22 278.422 922.29 280.168 923.36 281.915 923.894 284.022 923.894 286.49 923.894 288.965 923.361 291.072 922.295 292.811 921.228 294.551 919.694 295.684 917.691 296.211L917.445 295.421C919.024 294.895 920.198 293.856 920.967 292.304 921.736 290.752 922.121 288.78 922.121 286.387 922.121 284.077 921.738 282.158 920.972 280.63 920.206 279.102 919.02 278.075 917.414 277.548ZM907.2 276.759 907.477 277.548C905.878 278.075 904.693 279.102 903.924 280.63 903.155 282.158 902.771 284.077 902.771 286.387 902.771 288.78 903.155 290.752 903.924 292.304 904.693 293.856 905.867 294.895 907.446 295.421L907.2 296.211C905.197 295.684 903.663 294.551 902.596 292.811 901.53 291.072 900.997 288.965 900.997 286.49 900.997 284.022 901.532 281.915 902.601 280.168 903.671 278.422 905.204 277.285 907.2 276.759Z" fill="#4B5E68" fill-rule="evenodd"/><text fill="#4B5E68" font-family="Cambria Math,Cambria Math_MSFontService,sans-serif" font-weight="400" font-size="21" transform="translate(908.004 292)">𝑡</text><text fill="#4B5E68" font-family="Cambria Math,Cambria Math_MSFontService,sans-serif" font-weight="400" font-size="21" transform="translate(925.878 292)"></text><text fill="#4B5E68" font-family="Cambria Math,Cambria Math_MSFontService,sans-serif" font-weight="400" font-size="21" transform="translate(930.544 292)"></text><text fill="#4B5E68" font-family="Cambria Math,Cambria Math_MSFontService,sans-serif" font-weight="400" font-size="21" transform="translate(935.211 292)"></text><text fill="#4B5E68" font-family="Cambria Math,Cambria Math_MSFontService,sans-serif" font-weight="400" font-size="21" transform="translate(939.878 292)">~</text><text fill="#4B5E68" font-family="Cambria Math,Cambria Math_MSFontService,sans-serif" font-weight="400" font-size="21" transform="translate(955.044 292)"></text><text fill="#4B5E68" font-family="Cambria Math,Cambria Math_MSFontService,sans-serif" font-weight="400" font-size="21" transform="translate(959.711 292)">𝐵𝑁</text><path d="M1071.44 276.759C1073.44 277.285 1074.97 278.422 1076.04 280.168 1077.11 281.915 1077.65 284.022 1077.65 286.49 1077.65 288.965 1077.11 291.072 1076.05 292.811 1074.98 294.551 1073.45 295.684 1071.44 296.211L1071.2 295.421C1072.78 294.895 1073.95 293.856 1074.72 292.304 1075.49 290.752 1075.87 288.78 1075.87 286.387 1075.87 284.077 1075.49 282.158 1074.73 280.63 1073.96 279.102 1072.77 278.075 1071.17 277.548ZM997.947 276.759 998.224 277.548C996.624 278.075 995.44 279.102 994.671 280.63 993.902 282.158 993.517 284.077 993.517 286.387 993.517 288.78 993.902 290.752 994.671 292.304 995.44 293.856 996.614 294.895 998.193 295.421L997.947 296.211C995.944 295.684 994.409 294.551 993.343 292.811 992.277 291.072 991.743 288.965 991.743 286.49 991.743 284.022 992.278 281.915 993.348 280.168 994.418 278.422 995.951 277.285 997.947 276.759Z" fill="#4B5E68" fill-rule="evenodd"/><text fill="#4B5E68" font-family="Cambria Math,Cambria Math_MSFontService,sans-serif" font-weight="400" font-size="21" transform="translate(998.751 292)">𝐼</text><path d="M1026.14 276.759C1028.13 277.285 1029.67 278.422 1030.74 280.168 1031.81 281.915 1032.34 284.022 1032.34 286.49 1032.34 288.965 1031.81 291.072 1030.74 292.811 1029.68 294.551 1028.14 295.684 1026.14 296.211L1025.89 295.421C1027.47 294.895 1028.64 293.856 1029.41 292.304 1030.18 290.752 1030.57 288.78 1030.57 286.387 1030.57 284.077 1030.18 282.158 1029.42 280.63 1028.65 279.102 1027.47 278.075 1025.86 277.548ZM1015.65 276.759 1015.92 277.548C1014.32 278.075 1013.14 279.102 1012.37 280.63 1011.6 282.158 1011.22 284.077 1011.22 286.387 1011.22 288.78 1011.6 290.752 1012.37 292.304 1013.14 293.856 1014.31 294.895 1015.89 295.421L1015.65 296.211C1013.64 295.684 1012.11 294.551 1011.04 292.811 1009.98 291.072 1009.44 288.965 1009.44 286.49 1009.44 284.022 1009.98 281.915 1011.05 280.168 1012.12 278.422 1013.65 277.285 1015.65 276.759Z" fill="#4B5E68" fill-rule="evenodd"/><text fill="#4B5E68" font-family="Cambria Math,Cambria Math_MSFontService,sans-serif" font-weight="400" font-size="21" transform="translate(1016.45 292)">𝑡</text><text fill="#4B5E68" font-family="Cambria Math,Cambria Math_MSFontService,sans-serif" font-weight="400" font-size="21" transform="translate(1034.32 292)">,</text><text fill="#4B5E68" font-family="Cambria Math,Cambria Math_MSFontService,sans-serif" font-weight="400" font-size="21" transform="translate(1042.21 292)">𝑃</text><text fill="#4B5E68" font-family="Cambria Math,Cambria Math_MSFontService,sans-serif" font-weight="400" font-size="16" transform="translate(1053.08 297)">𝐼𝑅</text><path d="M554 215 698.961 215 698.961 219 554 219ZM696.961 211 708.961 217 696.961 223Z" fill="#4B5E68"/><path d="M240 216 384.961 216 384.961 220 240 220ZM382.961 212 394.961 218 382.961 224Z" fill="#4B5E68"/><text font-family="Cambria Math,Cambria Math_MSFontService,sans-serif" font-weight="400" font-size="21" transform="translate(521.982 296)"></text><text font-family="Cambria Math,Cambria Math_MSFontService,sans-serif" font-weight="400" font-size="21" transform="translate(526.649 296)"></text><text font-family="Cambria Math,Cambria Math_MSFontService,sans-serif" font-weight="400" font-size="21" transform="translate(531.315 296)"></text><text fill="#4B5E68" font-family="Cambria Math,Cambria Math_MSFontService,sans-serif" font-weight="400" font-size="21" transform="translate(535.982 296)">∆</text><text fill="#4B5E68" font-family="Cambria Math,Cambria Math_MSFontService,sans-serif" font-weight="400" font-size="16" transform="translate(548.649 301)">𝐸𝐼</text><path d="M584.735 280.595C586.731 281.121 588.264 282.257 589.334 284.004 590.404 285.751 590.939 287.858 590.939 290.326 590.939 292.8 590.406 294.907 589.339 296.647 588.273 298.387 586.738 299.52 584.735 300.046L584.489 299.257C586.068 298.73 587.242 297.691 588.011 296.139 588.781 294.588 589.165 292.616 589.165 290.223 589.165 287.912 588.782 285.993 588.017 284.465 587.251 282.938 586.065 281.91 584.458 281.384ZM574.245 280.595 574.522 281.384C572.922 281.91 571.738 282.938 570.969 284.465 570.2 285.993 569.815 287.912 569.815 290.223 569.815 292.616 570.2 294.588 570.969 296.139 571.738 297.691 572.912 298.73 574.491 299.257L574.245 300.046C572.242 299.52 570.707 298.387 569.641 296.647 568.574 294.907 568.041 292.8 568.041 290.326 568.041 287.858 568.576 285.751 569.646 284.004 570.716 282.257 572.249 281.121 574.245 280.595Z" fill="#4B5E68" fill-rule="evenodd"/><text fill="#4B5E68" font-family="Cambria Math,Cambria Math_MSFontService,sans-serif" font-weight="400" font-size="21" transform="translate(575.049 296)">𝑡</text><text fill="#4B5E68" font-family="Cambria Math,Cambria Math_MSFontService,sans-serif" font-weight="400" font-size="21" transform="translate(592.922 296)"></text><text fill="#4B5E68" font-family="Cambria Math,Cambria Math_MSFontService,sans-serif" font-weight="400" font-size="21" transform="translate(597.589 296)"></text><text fill="#4B5E68" font-family="Cambria Math,Cambria Math_MSFontService,sans-serif" font-weight="400" font-size="21" transform="translate(602.255 296)"></text><text fill="#4B5E68" font-family="Cambria Math,Cambria Math_MSFontService,sans-serif" font-weight="400" font-size="21" transform="translate(606.922 296)">~</text><text fill="#4B5E68" font-family="Cambria Math,Cambria Math_MSFontService,sans-serif" font-weight="400" font-size="21" transform="translate(622.089 296)"></text><text fill="#4B5E68" font-family="Cambria Math,Cambria Math_MSFontService,sans-serif" font-weight="400" font-size="21" transform="translate(626.755 296)"></text><text fill="#4B5E68" font-family="Cambria Math,Cambria Math_MSFontService,sans-serif" font-weight="400" font-size="21" transform="translate(631.422 296)">𝐵𝑁</text><path d="M748.329 280.595C750.325 281.121 751.858 282.257 752.928 284.004 753.997 285.751 754.532 287.858 754.532 290.326 754.532 292.8 753.999 294.907 752.933 296.647 751.866 298.387 750.332 299.52 748.329 300.046L748.083 299.257C749.662 298.73 750.836 297.691 751.605 296.139 752.374 294.588 752.758 292.616 752.758 290.223 752.758 287.912 752.376 285.993 751.61 284.465 750.844 282.938 749.658 281.91 748.052 281.384ZM669.658 280.595 669.935 281.384C668.335 281.91 667.151 282.938 666.382 284.465 665.613 285.993 665.228 287.912 665.228 290.223 665.228 292.616 665.613 294.588 666.382 296.139 667.151 297.691 668.325 298.73 669.904 299.257L669.658 300.046C667.655 299.52 666.121 298.387 665.054 296.647 663.988 294.907 663.455 292.8 663.455 290.326 663.455 287.858 663.989 285.751 665.059 284.004 666.129 282.257 667.662 281.121 669.658 280.595Z" fill="#4B5E68" fill-rule="evenodd"/><text fill="#4B5E68" font-family="Cambria Math,Cambria Math_MSFontService,sans-serif" font-weight="400" font-size="21" transform="translate(670.462 296)">𝐸</text><path d="M703.169 280.595C705.165 281.121 706.698 282.257 707.768 284.004 708.837 285.751 709.372 287.858 709.372 290.326 709.372 292.8 708.839 294.907 707.773 296.647 706.706 298.387 705.172 299.52 703.169 300.046L702.923 299.257C704.502 298.73 705.676 297.691 706.445 296.139 707.214 294.588 707.598 292.616 707.598 290.223 707.598 287.912 707.216 285.993 706.45 284.465 705.684 282.938 704.498 281.91 702.892 281.384ZM692.678 280.595 692.955 281.384C691.355 281.91 690.171 282.938 689.402 284.465 688.633 285.993 688.248 287.912 688.248 290.223 688.248 292.616 688.633 294.588 689.402 296.139 690.171 297.691 691.345 298.73 692.924 299.257L692.678 300.046C690.675 299.52 689.141 298.387 688.074 296.647 687.008 294.907 686.475 292.8 686.475 290.326 686.475 287.858 687.009 285.751 688.079 284.004 689.149 282.257 690.682 281.121 692.678 280.595Z" fill="#4B5E68" fill-rule="evenodd"/><text fill="#4B5E68" font-family="Cambria Math,Cambria Math_MSFontService,sans-serif" font-weight="400" font-size="21" transform="translate(693.482 296)">𝑡</text><text fill="#4B5E68" font-family="Cambria Math,Cambria Math_MSFontService,sans-serif" font-weight="400" font-size="21" transform="translate(711.355 296)">,</text><text fill="#4B5E68" font-family="Cambria Math,Cambria Math_MSFontService,sans-serif" font-weight="400" font-size="21" transform="translate(719.242 296)">𝑃</text><text fill="#4B5E68" font-family="Cambria Math,Cambria Math_MSFontService,sans-serif" font-weight="400" font-size="16" transform="translate(730.115 301)">𝐸𝐼</text><path d="M128.5 467C128.5 439.662 150.662 417.5 178 417.5 205.338 417.5 227.5 439.662 227.5 467 227.5 494.338 205.338 516.5 178 516.5 150.662 516.5 128.5 494.338 128.5 467Z" stroke="#4B5E68" stroke-width="1.33333" stroke-miterlimit="8" fill="#F2DCDB" fill-rule="evenodd" fill-opacity="0.4"/><text fill="#4B5E68" font-family="Arial,Arial_MSFontService,sans-serif" font-weight="400" font-size="24" transform="translate(137.896 473)">S(t+1)</text><path d="M427.5 465.5C427.5 438.438 449.438 416.5 476.5 416.5 503.562 416.5 525.5 438.438 525.5 465.5 525.5 492.562 503.562 514.5 476.5 514.5 449.438 514.5 427.5 492.562 427.5 465.5Z" stroke="#4B5E68" stroke-width="1.33333" stroke-miterlimit="8" fill="#F7E9B1" fill-rule="evenodd" fill-opacity="0.4"/><text fill="#A0234E" font-family="Arial,Arial_MSFontService,sans-serif" font-weight="400" font-size="24" transform="translate(271.689 499)">Δ</text><text fill="#A0234E" font-family="Arial,Arial_MSFontService,sans-serif" font-weight="400" font-size="16" transform="translate(287.689 504)">SE</text><text fill="#A0234E" font-family="Arial,Arial_MSFontService,sans-serif" font-weight="400" font-size="24" transform="translate(309.023 499)">(t+1)</text><text fill="#A6A6A6" font-family="Arial,Arial_MSFontService,sans-serif" font-weight="400" font-size="24" transform="translate(589.133 493)">Δ</text><text fill="#A6A6A6" font-family="Arial,Arial_MSFontService,sans-serif" font-weight="400" font-size="16" transform="translate(605.133 498)">EI</text><text fill="#A6A6A6" font-family="Arial,Arial_MSFontService,sans-serif" font-weight="400" font-size="24" transform="translate(620.3 493)">(t+1)</text><text fill="#4B5E68" font-family="Arial,Arial_MSFontService,sans-serif" font-weight="400" font-size="24" transform="translate(443.36 470)">E(t+1)</text><path d="M557 462 701.961 462 701.961 466 557 466ZM699.961 458 711.961 464 699.961 470Z" fill="#4B5E68"/><path d="M243 463 387.961 463 387.961 467 243 467ZM385.961 459 397.961 465 385.961 471Z" fill="#4B5E68"/><path d="M128.5 651.5C128.5 624.438 150.438 602.5 177.5 602.5 204.562 602.5 226.5 624.438 226.5 651.5 226.5 678.562 204.562 700.5 177.5 700.5 150.438 700.5 128.5 678.562 128.5 651.5Z" stroke="#4B5E68" stroke-width="1.33333" stroke-miterlimit="8" fill="#F2DCDB" fill-rule="evenodd" fill-opacity="0.4"/><text fill="#4B5E68" font-family="Arial,Arial_MSFontService,sans-serif" font-weight="400" font-size="24" transform="translate(139.416 658)">S(</text><text fill="#4B5E68" font-family="Arial,Arial_MSFontService,sans-serif" font-weight="400" font-size="24" transform="translate(163.416 658)">t+N</text><text fill="#4B5E68" font-family="Arial,Arial_MSFontService,sans-serif" font-weight="400" font-size="24" transform="translate(201.416 658)">)</text><path d="M427.5 650.5C427.5 623.438 449.438 601.5 476.5 601.5 503.562 601.5 525.5 623.438 525.5 650.5 525.5 677.562 503.562 699.5 476.5 699.5 449.438 699.5 427.5 677.562 427.5 650.5Z" stroke="#4B5E68" stroke-width="1.33333" stroke-miterlimit="8" fill="#F7E9B1" fill-rule="evenodd" fill-opacity="0.4"/><text fill="#A0234E" font-family="Arial,Arial_MSFontService,sans-serif" font-weight="400" font-size="24" transform="translate(271.299 684)">Δ</text><text fill="#A0234E" font-family="Arial,Arial_MSFontService,sans-serif" font-weight="400" font-size="16" transform="translate(287.299 689)">SE</text><text fill="#A0234E" font-family="Arial,Arial_MSFontService,sans-serif" font-weight="400" font-size="24" transform="translate(308.632 684)">(</text><text fill="#A0234E" font-family="Arial,Arial_MSFontService,sans-serif" font-weight="400" font-size="24" transform="translate(316.632 684)">t+N</text><text fill="#A0234E" font-family="Arial,Arial_MSFontService,sans-serif" font-weight="400" font-size="24" transform="translate(354.632 684)">)</text><text fill="#4B5E68" font-family="Arial,Arial_MSFontService,sans-serif" font-weight="400" font-size="24" transform="translate(442.97 654)">E(</text><text fill="#4B5E68" font-family="Arial,Arial_MSFontService,sans-serif" font-weight="400" font-size="24" transform="translate(466.97 654)">t+N</text><text fill="#4B5E68" font-family="Arial,Arial_MSFontService,sans-serif" font-weight="400" font-size="24" transform="translate(504.97 654)">)</text><path d="M242 648 386.961 648 386.961 652 242 652ZM384.961 644 396.961 650 384.961 656Z" fill="#4B5E68"/><text fill="#4B5E68" font-family="Cambria Math,Cambria Math_MSFontService,sans-serif" font-weight="400" font-size="21" transform="translate(539.879 330)">𝑃</text><text fill="#4B5E68" font-family="Cambria Math,Cambria Math_MSFontService,sans-serif" font-weight="400" font-size="16" transform="translate(550.752 335)">𝐸𝐼</text><text fill="#4B5E68" font-family="Cambria Math,Cambria Math_MSFontService,sans-serif" font-weight="400" font-size="21" transform="translate(574.226 330)">=</text><text fill="#4B5E68" font-family="Cambria Math,Cambria Math_MSFontService,sans-serif" font-weight="400" font-size="21" transform="translate(596.152 330)">1</text><text fill="#4B5E68" font-family="Cambria Math,Cambria Math_MSFontService,sans-serif" font-weight="400" font-size="21" transform="translate(612.726 330)">−</text><text fill="#4B5E68" font-family="Cambria Math,Cambria Math_MSFontService,sans-serif" font-weight="400" font-size="21" transform="translate(633.466 330)">exp</text><path d="M704.505 314.458C706.502 314.984 708.035 316.12 709.104 317.867 710.174 319.614 710.709 321.721 710.709 324.189 710.709 326.663 710.176 328.77 709.109 330.51 708.043 332.25 706.508 333.383 704.505 333.909L704.259 333.12C705.839 332.593 707.013 331.554 707.782 330.003 708.551 328.451 708.935 326.479 708.935 324.086 708.935 321.776 708.552 319.856 707.787 318.328 707.021 316.801 705.835 315.774 704.229 315.247ZM674.015 314.458 674.292 315.247C672.692 315.774 671.508 316.801 670.739 318.328 669.97 319.856 669.585 321.776 669.585 324.086 669.585 326.479 669.97 328.451 670.739 330.003 671.508 331.554 672.682 332.593 674.261 333.12L674.015 333.909C672.012 333.383 670.477 332.25 669.411 330.51 668.345 328.77 667.811 326.663 667.811 324.189 667.811 321.721 668.346 319.614 669.416 317.867 670.486 316.12 672.019 314.984 674.015 314.458Z" fill="#4B5E68" fill-rule="evenodd"/><text fill="#4B5E68" font-family="Cambria Math,Cambria Math_MSFontService,sans-serif" font-weight="400" font-size="21" transform="translate(674.819 330)">−</text><text fill="#4B5E68" font-family="Cambria Math,Cambria Math_MSFontService,sans-serif" font-weight="400" font-size="21" transform="translate(690.819 330)">𝜎</text><text fill="#4B5E68" font-family="Cambria Math,Cambria Math_MSFontService,sans-serif" font-weight="400" font-size="21" transform="translate(712.692 330)"></text><path d="M558 650 702.961 650 702.961 654 558 654ZM700.961 646 712.961 652 700.961 658Z" fill="#4B5E68"/><text fill="#A6A6A6" font-family="Arial,Arial_MSFontService,sans-serif" font-weight="400" font-size="24" transform="translate(591.909 681)">Δ</text><text fill="#A6A6A6" font-family="Arial,Arial_MSFontService,sans-serif" font-weight="400" font-size="16" transform="translate(607.909 686)">EI</text><text fill="#A6A6A6" font-family="Arial,Arial_MSFontService,sans-serif" font-weight="400" font-size="24" transform="translate(623.076 681)">(</text><text fill="#A6A6A6" font-family="Arial,Arial_MSFontService,sans-serif" font-weight="400" font-size="24" transform="translate(631.076 681)">t+N</text><text fill="#A6A6A6" font-family="Arial,Arial_MSFontService,sans-serif" font-weight="400" font-size="24" transform="translate(669.076 681)">)</text><text fill="#4B5E68" font-family="Arial,Arial_MSFontService,sans-serif" font-weight="400" font-size="24" transform="translate(48.0034 199)">Time</text><rect x="761" y="562" width="457" height="117" fill="#FBF4D8"/><text fill="#4B5E68" font-family="Cambria Math,Cambria Math_MSFontService,sans-serif" font-weight="400" font-size="24" transform="translate(922.196 654)">𝑺</text><path d="M1003.42 635.542C1005.7 636.144 1007.45 637.442 1008.67 639.439 1009.9 641.435 1010.51 643.843 1010.51 646.663 1010.51 649.491 1009.9 651.899 1008.68 653.888 1007.46 655.876 1005.71 657.171 1003.42 657.773L1003.14 656.87C1004.94 656.269 1006.28 655.081 1007.16 653.308 1008.04 651.534 1008.48 649.28 1008.48 646.546 1008.48 643.905 1008.04 641.712 1007.17 639.966 1006.29 638.22 1004.94 637.046 1003.1 636.444ZM945.062 635.542 945.378 636.444C943.55 637.046 942.197 638.22 941.318 639.966 940.439 641.712 940 643.905 940 646.546 940 649.28 940.439 651.534 941.318 653.308 942.197 655.081 943.539 656.269 945.343 656.87L945.062 657.773C942.773 657.171 941.019 655.876 939.8 653.888 938.582 651.899 937.972 649.491 937.972 646.663 937.972 643.843 938.584 641.435 939.806 639.439 941.029 637.442 942.781 636.144 945.062 635.542Z" fill="#4B5E68" fill-rule="evenodd"/><text fill="#4B5E68" font-family="Cambria Math,Cambria Math_MSFontService,sans-serif" font-weight="400" font-size="24" transform="translate(945.823 654)">𝒕</text><text fill="#4B5E68" font-family="Cambria Math,Cambria Math_MSFontService,sans-serif" font-weight="400" font-size="24" transform="translate(961.156 654)">+</text><text fill="#4B5E68" font-family="Cambria Math,Cambria Math_MSFontService,sans-serif" font-weight="400" font-size="24" transform="translate(984.49 654)">𝑵</text><text fill="#4B5E68" font-family="Cambria Math,Cambria Math_MSFontService,sans-serif" font-weight="400" font-size="24" transform="translate(1015.28 654)"></text><text fill="#4B5E68" font-family="Cambria Math,Cambria Math_MSFontService,sans-serif" font-weight="400" font-size="24" transform="translate(1023.28 654)">−</text><text fill="#4B5E68" font-family="Cambria Math,Cambria Math_MSFontService,sans-serif" font-weight="400" font-size="24" transform="translate(1046.62 654)">𝑺</text><text fill="#4B5E68" font-family="Cambria Math,Cambria Math_MSFontService,sans-serif" font-weight="400" font-size="24" transform="translate(1060.28 654)">(</text><text fill="#4B5E68" font-family="Cambria Math,Cambria Math_MSFontService,sans-serif" font-weight="400" font-size="24" transform="translate(1070.28 654)">𝒕</text><text fill="#4B5E68" font-family="Cambria Math,Cambria Math_MSFontService,sans-serif" font-weight="400" font-size="24" transform="translate(1080.28 654)">)</text><text fill="#4B5E68" font-family="Arial,Arial_MSFontService,sans-serif" font-weight="700" font-size="24" transform="translate(784.21 603)">Total</text><text fill="#4B5E68" font-family="Arial,Arial_MSFontService,sans-serif" font-weight="700" font-size="24" transform="translate(846.43 603)">new infections</text><path d="M755.5 457.5C755.5 430.438 777.438 408.5 804.5 408.5 831.562 408.5 853.5 430.438 853.5 457.5 853.5 484.562 831.562 506.5 804.5 506.5 777.438 506.5 755.5 484.562 755.5 457.5Z" stroke="#264980" stroke-width="1.33333" stroke-miterlimit="8" fill="#215968" fill-rule="evenodd" fill-opacity="0.2"/><path d="M1079.5 458.5C1079.5 431.438 1101.66 409.5 1129 409.5 1156.34 409.5 1178.5 431.438 1178.5 458.5 1178.5 485.562 1156.34 507.5 1129 507.5 1101.66 507.5 1079.5 485.562 1079.5 458.5Z" stroke="#000000" stroke-width="1.33333" stroke-miterlimit="8" fill="#005C2A" fill-rule="evenodd" fill-opacity="0.2"/><text font-family="Arial,Arial_MSFontService,sans-serif" font-weight="400" font-size="24" transform="translate(1092.12 462)">R(</text><text font-family="Arial,Arial_MSFontService,sans-serif" font-weight="400" font-size="24" transform="translate(1117.45 462)">t</text><text font-family="Arial,Arial_MSFontService,sans-serif" font-weight="400" font-size="24" transform="translate(1124.12 462)">+1</text><text font-family="Arial,Arial_MSFontService,sans-serif" font-weight="400" font-size="24" transform="translate(1151.45 462)">)</text><text font-family="Arial,Arial_MSFontService,sans-serif" font-weight="400" font-size="24" transform="translate(775.673 466)">I(</text><text font-family="Arial,Arial_MSFontService,sans-serif" font-weight="400" font-size="24" transform="translate(790.34 466)">t</text><text font-family="Arial,Arial_MSFontService,sans-serif" font-weight="400" font-size="24" transform="translate(797.007 466)">+1</text><text font-family="Arial,Arial_MSFontService,sans-serif" font-weight="400" font-size="24" transform="translate(824.34 466)">)</text><path d="M180 296 180 304 178 304 178 296ZM180 310 180 318 178 318 178 310ZM180 324 180 332 178 332 178 324ZM180 338 180 346 178 346 178 338ZM180 352 180 360 178 360 178 352ZM180 366 180 374 178 374 178 366ZM180 380 180 388 178 388 178 380ZM183 390.047 179 398.047 175 390.047Z" fill="#4B5E68"/><path d="M479 296 479 304 477 304 477 296ZM479 310 479 318 477 318 477 310ZM479 324 479 332 477 332 477 324ZM479 338 479 346 477 346 477 338ZM479 352 479 360 477 360 477 352ZM479 366 479 374 477 374 477 366ZM479 380 479 388 477 388 477 380ZM482 390.047 478 398.047 474 390.047Z" fill="#4B5E68"/><path d="M799 296 799 304 797 304 797 296ZM799 310 799 318 797 318 797 310ZM799 324 799 332 797 332 797 324ZM799 338 799 346 797 346 797 338ZM799 352 799 360 797 360 797 352ZM799 366 799 374 797 374 797 366ZM799 380 799 388 797 388 797 380ZM802 390.047 798 398.047 794 390.047Z" fill="#4B5E68"/><path d="M1129 296 1129 304 1127 304 1127 296ZM1129 310 1129 318 1127 318 1127 310ZM1129 324 1129 332 1127 332 1127 324ZM1129 338 1129 346 1127 346 1127 338ZM1129 352 1129 360 1127 360 1127 352ZM1129 366 1129 374 1127 374 1127 366ZM1129 380 1129 388 1127 388 1127 380ZM1132 390.047 1128 398.047 1124 390.047Z" fill="#4B5E68"/><path d="M175 534 175 542 173 542 173 534ZM175 548 175 556 173 556 173 548ZM175 562 175 570 173 570 173 562ZM178 571.354 174 579.354 170 571.354Z" fill="#4B5E68"/><path d="M474 534 474 542 472 542 472 534ZM474 548 474 556 472 556 472 548ZM474 562 474 570 472 570 472 562ZM477 571.354 473 579.354 469 571.354Z" fill="#4B5E68"/></g></svg>