<svg width="1282" height="723" xmlns="http://www.w3.org/2000/svg" xmlns:xlink="http://www.w3.org/1999/xlink" overflow="hidden"><g transform="translate(1 2)"><rect x="0" y="0" width="1280" height="720" fill="#FFFFFF"/><rect x="0.500053" y="0.500053" width="321" height="37" stroke="#7F7F7F" stroke-width="1.33333" stroke-miterlimit="8" fill="#D9D9D9"/><text fill="#A6A6A6" font-family="Arial,Arial_MSFontService,sans-serif" font-weight="700" font-size="21" transform="translate(98.3799 27)">Introduction</text><rect x="320.5" y="0.500053" width="321" height="37" stroke="#7F7F7F" stroke-width="1.33333" stroke-miterlimit="8" fill="#D9D9D9"/><text fill="#A6A6A6" font-family="Arial,Arial_MSFontService,sans-serif" font-weight="700" font-size="21" transform="translate(376.718 27)">Materials &amp; Methods</text><rect x="639.5" y="0.500053" width="321" height="37" stroke="#7F7F7F" stroke-width="1.33333" stroke-miterlimit="8" fill="#4B5E68"/><text fill="#FFFFFF" font-family="Arial,Arial_MSFontService,sans-serif" font-weight="700" font-size="21" transform="translate(690.449 27)">Results &amp; Discussion</text><rect x="959.5" y="0.500053" width="321" height="37" stroke="#7F7F7F" stroke-width="1.33333" stroke-miterlimit="8" fill="#D9D9D9"/><text fill="#A6A6A6" font-family="Arial,Arial_MSFontService,sans-serif" font-weight="700" font-size="21" transform="translate(1061.32 27)">Conclusion</text><text fill="#4B5E68" font-family="Arial,Arial_MSFontService,sans-serif" font-weight="700" font-size="37" transform="translate(37.3895 91)">Estimated shedding onset distribution and shedding load dynamics</text><path d="M66.5001 237.5 1215.48 237.5" stroke="#4B5E68" stroke-miterlimit="8" stroke-dasharray="8 3" fill="none" fill-rule="evenodd"/><text fill="#4B5E68" font-family="Arial,Arial_MSFontService,sans-serif" font-weight="400" font-size="24" transform="translate(140.836 135)">Individuals infected with SARS</text><text fill="#4B5E68" font-family="Arial,Arial_MSFontService,sans-serif" font-weight="400" font-size="24" transform="translate(466.169 135)">-</text><text fill="#4B5E68" font-family="Arial,Arial_MSFontService,sans-serif" font-weight="400" font-size="24" transform="translate(474.169 135)">CoV</text><text fill="#4B5E68" font-family="Arial,Arial_MSFontService,sans-serif" font-weight="400" font-size="24" transform="translate(519.509 135)">-</text><text fill="#4B5E68" font-family="Arial,Arial_MSFontService,sans-serif" font-weight="400" font-size="24" transform="translate(527.509 135)">2 start shedding</text><text fill="#A0234E" font-family="Arial,Arial_MSFontService,sans-serif" font-weight="400" font-size="24" transform="translate(140.836 169)">•</text><text fill="#A0234E" font-family="Arial,Arial_MSFontService,sans-serif" font-weight="400" font-size="24" transform="translate(170.836 169)">1.44 days</text><text fill="#4B5E68" font-family="Arial,Arial_MSFontService,sans-serif" font-weight="400" font-size="24" transform="translate(281.503 169)">(95%</text><text fill="#4B5E68" font-family="Arial,Arial_MSFontService,sans-serif" font-weight="400" font-size="24" transform="translate(344.169 169)">CrI</text><text fill="#4B5E68" font-family="Arial,Arial_MSFontService,sans-serif" font-weight="400" font-size="24" transform="translate(376.169 169)">: −4.01</text><text fill="#4B5E68" font-family="Arial,Arial_MSFontService,sans-serif" font-weight="400" font-size="24" transform="translate(450.169 169)">—</text><text fill="#4B5E68" font-family="Arial,Arial_MSFontService,sans-serif" font-weight="400" font-size="24" transform="translate(474.169 169)">6.29) before symptom onset</text><text fill="#A0234E" font-family="Arial,Arial_MSFontService,sans-serif" font-weight="400" font-size="24" transform="translate(140.836 207)">•</text><text fill="#A0234E" font-family="Arial,Arial_MSFontService,sans-serif" font-weight="400" font-size="24" transform="translate(170.836 207)">4.36 days</text><text fill="#4B5E68" font-family="Arial,Arial_MSFontService,sans-serif" font-weight="400" font-size="24" transform="translate(281.503 207)">(95%</text><text fill="#4B5E68" font-family="Arial,Arial_MSFontService,sans-serif" font-weight="400" font-size="24" transform="translate(344.169 207)">CrI</text><text fill="#4B5E68" font-family="Arial,Arial_MSFontService,sans-serif" font-weight="400" font-size="24" transform="translate(376.169 207)">: −1.56</text><text fill="#4B5E68" font-family="Arial,Arial_MSFontService,sans-serif" font-weight="400" font-size="24" transform="translate(450.169 207)">—</text><text fill="#4B5E68" font-family="Arial,Arial_MSFontService,sans-serif" font-weight="400" font-size="24" transform="translate(474.169 207)">10.3) before being identified by clinical surveillance</text><text fill="#4B5E68" font-family="Arial,Arial_MSFontService,sans-serif" font-weight="400" font-size="24" transform="translate(268.815 648)">Days since infection</text><text fill="#4B5E68" font-family="Arial,Arial_MSFontService,sans-serif" font-weight="400" font-size="24" transform="matrix(-1.83697e-16 -1 1 -1.83697e-16 96.122 537)">Probability density</text><path d="M157.5 542.5 582.5 542.5" stroke="#EBEBEB" stroke-width="0.583727" stroke-linejoin="round" stroke-miterlimit="10" fill="none" fill-rule="evenodd"/><path d="M157.5 485.5 582.5 485.5" stroke="#EBEBEB" stroke-width="0.583727" stroke-linejoin="round" stroke-miterlimit="10" fill="none" fill-rule="evenodd"/><path d="M157.5 428.5 582.5 428.5" stroke="#EBEBEB" stroke-width="0.583727" stroke-linejoin="round" stroke-miterlimit="10" fill="none" fill-rule="evenodd"/><path d="M157.5 372.5 582.5 372.5" stroke="#EBEBEB" stroke-width="0.583727" stroke-linejoin="round" stroke-miterlimit="10" fill="none" fill-rule="evenodd"/><path d="M157.5 315.5 582.5 315.5" stroke="#EBEBEB" stroke-width="0.583727" stroke-linejoin="round" stroke-miterlimit="10" fill="none" fill-rule="evenodd"/><path d="M261.5 584.5 261.5 272.5" stroke="#EBEBEB" stroke-width="0.583727" stroke-linejoin="round" stroke-miterlimit="10" fill="none" fill-rule="evenodd"/><path d="M382.5 584.5 382.5 272.5" stroke="#EBEBEB" stroke-width="0.583727" stroke-linejoin="round" stroke-miterlimit="10" fill="none" fill-rule="evenodd"/><path d="M503.5 584.5 503.5 272.5" stroke="#EBEBEB" stroke-width="0.583727" stroke-linejoin="round" stroke-miterlimit="10" fill="none" fill-rule="evenodd"/><path d="M157.5 570.5 582.5 570.5" stroke="#EBEBEB" stroke-width="1.16735" stroke-linejoin="round" stroke-miterlimit="10" fill="none" fill-rule="evenodd"/><path d="M157.5 514.5 582.5 514.5" stroke="#EBEBEB" stroke-width="1.16735" stroke-linejoin="round" stroke-miterlimit="10" fill="none" fill-rule="evenodd"/><path d="M157.5 457.5 582.5 457.5" stroke="#EBEBEB" stroke-width="1.16735" stroke-linejoin="round" stroke-miterlimit="10" fill="none" fill-rule="evenodd"/><path d="M157.5 400.5 582.5 400.5" stroke="#EBEBEB" stroke-width="1.16735" stroke-linejoin="round" stroke-miterlimit="10" fill="none" fill-rule="evenodd"/><path d="M157.5 343.5 582.5 343.5" stroke="#EBEBEB" stroke-width="1.16735" stroke-linejoin="round" stroke-miterlimit="10" fill="none" fill-rule="evenodd"/><path d="M157.5 286.5 582.5 286.5" stroke="#EBEBEB" stroke-width="1.16735" stroke-linejoin="round" stroke-miterlimit="10" fill="none" fill-rule="evenodd"/><path d="M200.5 584.5 200.5 272.5" stroke="#EBEBEB" stroke-width="1.16735" stroke-linejoin="round" stroke-miterlimit="10" fill="none" fill-rule="evenodd"/><path d="M321.5 584.5 321.5 272.5" stroke="#EBEBEB" stroke-width="1.16735" stroke-linejoin="round" stroke-miterlimit="10" fill="none" fill-rule="evenodd"/><path d="M442.5 584.5 442.5 272.5" stroke="#EBEBEB" stroke-width="1.16735" stroke-linejoin="round" stroke-miterlimit="10" fill="none" fill-rule="evenodd"/><path d="M563.5 584.5 563.5 272.5" stroke="#EBEBEB" stroke-width="1.16735" stroke-linejoin="round" stroke-miterlimit="10" fill="none" fill-rule="evenodd"/><path d="M176 570 204.023 570 204.779 569.99 206.298 569.99 207.054 569.981 208.566 569.981 209.322 569.971 210.086 569.971 210.842 569.962 211.597 569.962 212.354 569.952 213.109 569.952 213.873 569.942 214.629 569.933 215.385 569.933 216.897 569.913 217.653 569.913 218.416 569.904 219.172 569.884 219.928 569.875 221.44 569.836 222.203 569.817 222.959 569.788 224.471 569.711 225.983 569.614 226.747 569.547 227.503 569.479 229.015 569.325 229.771 569.228 230.534 569.122 231.29 569.016 232.802 568.765 233.558 568.62 234.314 568.466 235.077 568.302 235.833 568.119 236.589 567.916 237.345 567.704 238.101 567.472 238.864 567.222 239.621 566.951 240.376 566.662 241.132 566.334 241.888 565.987 242.652 565.61 243.408 565.215 244.164 564.78 244.92 564.317 245.676 563.835 246.432 563.314 247.195 562.774 247.951 562.195 248.707 561.606 249.463 560.989 250.219 560.342 250.982 559.696 252.494 558.345 253.25 557.65 254.006 556.946 254.762 556.232 255.526 555.518 257.794 553.318 258.55 552.566 259.313 551.813 260.069 551.06 260.825 550.298 263.093 547.983 263.856 547.201 264.612 546.419 265.368 545.628 266.124 544.828 266.88 544.017 267.643 543.197 268.399 542.348 269.155 541.48 269.911 540.563 270.667 539.617 271.423 538.633 272.187 537.591 272.943 536.511 273.699 535.372 274.455 534.185 275.211 532.941 275.974 531.657 276.73 530.335 277.486 528.975 278.242 527.595 278.998 526.206 279.754 524.807 280.517 523.418 281.273 522.038 282.029 520.678 282.785 519.336 283.541 518.024 284.305 516.741 285.06 515.496 285.817 514.271 286.572 513.065 287.329 511.888 288.084 510.72 288.848 509.563 290.36 507.247 291.116 506.079 291.872 504.902 292.635 503.706 293.391 502.51 295.659 498.862 296.422 497.647 297.178 496.45 297.934 495.273 298.69 494.116 299.446 492.996 300.202 491.906 300.966 490.845 301.722 489.812 302.478 488.818 303.234 487.844 303.99 486.898 304.753 485.972 306.265 484.158 307.777 482.383 308.533 481.505 309.296 480.637 310.052 479.788 310.808 478.948 311.564 478.138 312.32 477.346 313.084 476.584 313.839 475.851 314.595 475.147 315.351 474.481 316.107 473.835 316.863 473.227 317.627 472.638 318.383 472.078 319.139 471.538 319.895 471.017 320.651 470.515 321.414 470.033 322.17 469.57 322.926 469.126 323.682 468.711 324.438 468.316 325.194 467.949 325.957 467.621 326.713 467.312 327.469 467.042 328.225 466.811 328.981 466.608 329.745 466.444 330.501 466.309 331.257 466.203 332.013 466.116 332.768 466.058 333.525 466.019 334.288 466 335.044 466 335.8 466.019 336.556 466.058 337.312 466.106 338.075 466.183 338.831 466.289 339.587 466.415 340.343 466.579 341.099 466.782 341.855 467.013 342.618 467.293 343.374 467.611 344.13 467.978 344.886 468.373 345.642 468.808 346.406 469.281 347.162 469.772 347.918 470.294 348.674 470.824 349.43 471.365 350.193 471.905 351.705 472.966 352.461 473.478 353.217 473.979 353.973 474.471 354.736 474.944 355.492 475.407 356.248 475.851 357.76 476.719 358.523 477.154 359.28 477.578 360.792 478.446 362.304 479.334 363.067 479.788 363.823 480.251 364.579 480.723 366.091 481.708 366.854 482.219 367.61 482.74 368.366 483.28 369.122 483.84 369.878 484.419 370.634 485.027 371.397 485.654 372.153 486.3 372.909 486.966 373.665 487.651 374.421 488.346 375.185 489.06 375.941 489.774 376.697 490.497 377.453 491.202 378.209 491.896 378.965 492.581 379.728 493.237 380.484 493.865 381.24 494.472 381.996 495.061 382.752 495.621 383.515 496.161 384.271 496.691 385.783 497.714 387.295 498.756 388.059 499.287 388.814 499.837 389.57 500.406 390.326 500.995 391.082 501.603 391.846 502.239 392.602 502.905 393.358 503.581 394.114 504.285 394.87 504.999 395.626 505.732 396.389 506.475 398.657 508.733 399.413 509.495 400.176 510.248 401.688 511.753 402.444 512.496 403.2 513.248 403.956 513.991 404.72 514.724 405.476 515.467 406.988 516.934 407.743 517.658 408.507 518.381 409.263 519.085 410.019 519.78 410.775 520.456 411.531 521.121 412.294 521.768 413.05 522.395 413.806 523.003 415.318 524.18 416.074 524.759 416.837 525.328 417.593 525.897 419.861 527.634 420.625 528.232 421.381 528.84 422.137 529.458 422.893 530.085 423.649 530.721 424.405 531.368 425.168 532.014 428.192 534.639 428.955 535.276 429.711 535.903 430.467 536.511 431.223 537.099 431.979 537.668 432.735 538.218 433.498 538.749 434.255 539.251 435.01 539.733 435.767 540.196 436.522 540.65 437.286 541.084 438.042 541.518 438.798 541.943 439.554 542.358 440.31 542.782 441.066 543.197 441.829 543.622 442.585 544.046 443.341 544.48 444.853 545.329 445.616 545.754 446.372 546.178 447.128 546.593 447.884 546.998 448.64 547.394 449.396 547.78 450.16 548.147 451.672 548.841 452.428 549.16 453.184 549.468 453.947 549.767 454.703 550.047 455.459 550.318 456.971 550.838 457.727 551.089 458.49 551.331 459.246 551.581 460.002 551.842 460.758 552.093 461.514 552.363 462.277 552.643 463.033 552.932 463.789 553.231 464.545 553.54 465.301 553.858 466.065 554.186 468.333 555.199 469.089 555.547 469.845 555.885 470.608 556.213 472.12 556.869 473.632 557.486 474.395 557.776 475.151 558.065 476.663 558.605 477.419 558.856 478.175 559.098 478.939 559.329 479.695 559.561 480.451 559.773 481.206 559.975 481.963 560.159 482.726 560.342 484.238 560.67 484.994 560.815 486.506 561.085 487.269 561.201 488.025 561.326 488.781 561.432 490.293 561.664 491.056 561.77 491.812 561.886 492.568 562.011 493.324 562.127 494.08 562.262 494.836 562.388 495.6 562.523 496.356 562.658 497.112 562.803 498.624 563.073 499.387 563.208 500.899 563.459 501.655 563.574 502.411 563.681 503.167 563.777 503.93 563.864 504.686 563.951 506.198 564.105 506.954 564.172 507.718 564.25 508.473 564.317 509.23 564.394 510.741 564.568 511.497 564.674 512.261 564.78 513.017 564.887 514.529 565.137 515.285 565.272 516.048 565.407 516.804 565.552 518.316 565.822 519.072 565.948 519.835 566.073 520.591 566.189 522.103 566.401 523.615 566.575 524.379 566.662 526.647 566.865 527.402 566.922 528.166 566.98 531.946 567.27 532.709 567.328 534.977 567.501 535.733 567.569 536.496 567.627 538.008 567.762 538.764 567.82 540.276 567.955 541.04 568.013 541.796 568.08 544.064 568.254 544.827 568.302 547.095 568.447 548.607 568.524 549.37 568.553 552.394 568.669 553.157 568.698 555.426 568.784 556.181 568.823 556.938 568.871 557.701 568.919 558.457 568.968 559.969 569.084 560.725 569.151 561.488 569.219 563 569.354 563 570Z" fill="#CB181D" fill-rule="evenodd" fill-opacity="0.25098"/><path d="M176.5 570.5 204.523 570.5 205.279 570.491 206.798 570.491 207.554 570.481 209.066 570.481 209.822 570.471 210.586 570.471 211.342 570.462 212.098 570.462 212.854 570.452 213.609 570.452 214.373 570.442 215.129 570.433 215.885 570.433 217.397 570.413 218.153 570.413 218.916 570.404 219.672 570.384 220.428 570.375 221.94 570.336 222.703 570.317 223.459 570.288 224.971 570.211 226.483 570.114 227.247 570.047 228.003 569.979 229.515 569.825 230.271 569.728 231.034 569.622 231.79 569.516 233.302 569.265 234.058 569.12 234.814 568.966 235.577 568.802 236.333 568.619 237.089 568.416 237.845 568.204 238.601 567.972 239.364 567.722 240.121 567.451 240.876 567.162 241.633 566.834 242.388 566.487 243.152 566.11 243.908 565.715 244.664 565.281 245.42 564.817 246.176 564.335 246.932 563.814 247.695 563.274 248.451 562.695 249.207 562.106 249.963 561.489 250.719 560.842 251.482 560.196 252.994 558.845 253.75 558.15 254.506 557.446 255.262 556.732 256.026 556.018 258.294 553.818 259.05 553.066 259.813 552.313 260.569 551.56 261.325 550.798 263.593 548.483 264.356 547.701 265.112 546.919 265.868 546.128 266.624 545.328 267.38 544.517 268.143 543.697 268.9 542.848 269.655 541.98 270.411 541.063 271.167 540.117 271.923 539.133 272.687 538.091 273.443 537.011 274.199 535.872 274.955 534.685 275.711 533.441 276.474 532.157 277.23 530.836 277.986 529.475 278.742 528.096 279.498 526.706 280.254 525.307 281.017 523.918 281.773 522.538 282.529 521.178 283.285 519.836 284.041 518.524 284.805 517.241 285.561 515.996 286.317 514.771 287.073 513.565 287.829 512.388 288.584 511.22 289.348 510.063 290.86 507.747 291.616 506.58 292.372 505.402 293.135 504.206 293.891 503.01 296.159 499.362 296.922 498.147 297.678 496.95 298.434 495.773 299.19 494.616 299.946 493.496 300.702 492.406 301.466 491.345 302.222 490.312 302.978 489.318 303.734 488.344 304.49 487.399 305.253 486.472 306.765 484.658 308.277 482.883 309.033 482.005 309.796 481.137 310.552 480.288 311.308 479.448 312.064 478.638 312.82 477.846 313.584 477.084 314.339 476.351 315.096 475.647 315.851 474.981 316.608 474.335 317.363 473.727 318.127 473.138 318.883 472.579 319.639 472.038 320.395 471.517 321.151 471.015 321.914 470.533 322.67 470.07 323.426 469.626 324.182 469.211 324.938 468.816 325.694 468.449 326.457 468.121 327.213 467.812 327.969 467.542 328.725 467.311 329.481 467.108 330.245 466.944 331.001 466.809 331.757 466.703 332.513 466.616 333.269 466.558 334.025 466.519 334.788 466.5 335.544 466.5 336.3 466.519 337.056 466.558 337.812 466.606 338.575 466.683 339.331 466.789 340.087 466.915 340.843 467.079 341.599 467.282 342.355 467.513 343.118 467.793 343.874 468.111 344.63 468.478 345.386 468.873 346.142 469.308 346.906 469.781 347.662 470.273 348.418 470.794 349.174 471.324 349.93 471.865 350.693 472.405 352.205 473.466 352.961 473.978 353.717 474.479 354.473 474.971 355.236 475.444 355.992 475.907 356.748 476.351 358.26 477.219 359.024 477.654 359.78 478.078 361.292 478.946 362.804 479.834 363.567 480.288 364.323 480.751 365.079 481.223 366.591 482.208 367.354 482.719 368.11 483.24 368.866 483.78 369.622 484.34 370.378 484.919 371.134 485.527 371.897 486.154 372.653 486.8 373.409 487.466 374.165 488.151 374.921 488.846 375.685 489.56 376.441 490.274 377.197 490.997 377.953 491.702 378.709 492.396 379.465 493.081 380.228 493.737 380.984 494.365 381.74 494.972 382.496 495.561 383.252 496.121 384.015 496.661 384.771 497.192 386.283 498.214 387.795 499.256 388.559 499.787 389.314 500.337 390.07 500.906 390.826 501.495 391.582 502.103 392.346 502.739 393.102 503.405 393.858 504.081 394.614 504.785 395.37 505.499 396.126 506.232 396.889 506.975 399.157 509.233 399.913 509.995 400.676 510.748 402.188 512.253 402.944 512.996 403.7 513.748 404.456 514.491 405.22 515.224 405.976 515.967 407.488 517.434 408.243 518.158 409.007 518.881 409.763 519.586 410.519 520.28 411.275 520.956 412.031 521.621 412.794 522.268 413.55 522.895 414.306 523.503 415.818 524.68 416.574 525.259 417.337 525.828 418.093 526.397 420.361 528.134 421.125 528.732 421.881 529.34 422.637 529.958 423.393 530.585 424.149 531.222 424.905 531.868 425.668 532.515 428.692 535.139 429.455 535.776 430.211 536.403 430.967 537.011 431.723 537.599 432.479 538.168 433.235 538.718 433.999 539.249 434.755 539.751 435.51 540.233 436.267 540.696 437.022 541.15 437.786 541.584 438.542 542.018 439.298 542.443 440.054 542.858 440.81 543.282 441.566 543.697 442.329 544.122 443.085 544.546 443.841 544.98 445.353 545.829 446.116 546.254 446.872 546.678 447.628 547.093 448.384 547.499 449.14 547.894 449.896 548.28 450.66 548.647 452.172 549.341 452.928 549.66 453.684 549.968 454.447 550.268 455.203 550.547 455.959 550.818 457.471 551.339 458.227 551.589 458.99 551.831 459.746 552.081 460.502 552.342 461.258 552.593 462.014 552.863 462.777 553.143 463.534 553.432 464.289 553.731 465.045 554.04 465.801 554.358 466.565 554.686 468.833 555.7 469.589 556.047 470.345 556.385 471.108 556.713 472.62 557.369 474.132 557.986 474.895 558.276 475.651 558.565 477.163 559.105 477.919 559.356 478.675 559.598 479.439 559.829 480.195 560.061 480.951 560.273 481.707 560.476 482.463 560.659 483.226 560.842 484.738 561.17 485.494 561.315 487.006 561.585 487.769 561.701 488.525 561.826 489.281 561.932 490.793 562.164 491.556 562.27 492.312 562.386 493.068 562.511 493.824 562.627 494.58 562.762 495.336 562.888 496.1 563.023 496.856 563.158 497.612 563.303 499.124 563.573 499.887 563.708 501.399 563.959 502.155 564.074 502.911 564.181 503.667 564.277 504.43 564.364 505.186 564.451 506.698 564.605 507.454 564.672 508.218 564.75 508.973 564.817 509.73 564.894 511.242 565.068 511.997 565.174 512.761 565.281 513.517 565.387 515.029 565.637 515.785 565.772 516.548 565.908 517.304 566.052 518.816 566.323 519.572 566.448 520.335 566.573 521.091 566.689 522.603 566.901 524.115 567.075 524.879 567.162 527.147 567.365 527.903 567.422 528.666 567.48 532.446 567.77 533.209 567.828 535.477 568.001 536.233 568.069 536.997 568.127 538.508 568.262 539.264 568.32 540.776 568.455 541.54 568.513 542.296 568.58 544.564 568.754 545.327 568.802 547.595 568.947 549.107 569.024 549.87 569.053 552.894 569.169 553.658 569.198 555.926 569.284 556.682 569.323 557.438 569.371 558.201 569.42 558.957 569.468 560.469 569.584 561.225 569.651 561.988 569.719 563.5 569.854" stroke="#000000" stroke-width="1.16735" stroke-linejoin="round" stroke-miterlimit="10" fill="none" fill-rule="evenodd"/><path d="M176 570 191.905 570 192.661 569.99 193.424 569.981 194.18 569.971 194.936 569.952 195.692 569.923 196.448 569.885 197.212 569.828 197.968 569.741 198.724 569.636 199.48 569.502 200.236 569.31 200.992 569.08 201.755 568.773 202.511 568.399 203.267 567.939 204.023 567.383 204.779 566.721 205.542 565.945 206.298 565.044 207.054 564.018 207.81 562.849 208.566 561.554 209.322 560.107 210.086 558.525 210.842 556.809 211.597 554.949 212.354 552.974 213.109 550.894 213.873 548.718 214.629 546.465 215.385 544.145 216.141 541.768 216.897 539.342 217.653 536.888 218.416 534.396 219.172 531.874 219.928 529.334 220.684 526.755 221.44 524.147 222.203 521.511 222.959 518.836 223.715 516.133 224.471 513.401 225.227 510.63 225.983 507.821 226.747 504.984 227.503 502.108 228.259 499.203 229.015 496.27 229.771 493.307 230.534 490.326 231.29 487.325 232.046 484.334 232.802 481.353 233.558 478.391 234.314 475.486 235.077 472.639 235.833 469.868 236.589 467.203 237.345 464.663 238.101 462.247 238.864 459.965 239.621 457.847 240.376 455.862 241.132 454.002 241.888 452.258 242.652 450.599 243.408 449.017 244.164 447.493 244.92 446.017 245.676 444.55 246.432 443.112 247.195 441.674 247.951 440.255 248.707 438.846 249.463 437.465 250.219 436.124 250.982 434.829 251.738 433.593 252.494 432.433 253.25 431.349 254.006 430.352 254.762 429.451 255.526 428.646 256.282 427.946 257.038 427.342 257.794 426.853 258.55 426.479 259.313 426.211 260.069 426.048 260.825 426 261.581 426.038 262.337 426.182 263.093 426.403 263.856 426.709 264.612 427.064 265.368 427.476 266.124 427.927 266.88 428.406 267.643 428.886 270.667 430.803 271.423 431.292 272.187 431.81 272.943 432.375 273.699 432.998 274.455 433.688 275.211 434.455 275.974 435.309 276.73 436.258 277.486 437.283 278.242 438.386 278.998 439.536 279.754 440.734 280.517 441.962 282.029 444.435 282.785 445.662 283.541 446.86 284.305 448.02 285.06 449.152 285.817 450.235 286.572 451.289 287.329 452.315 288.084 453.322 288.848 454.338 289.604 455.373 290.36 456.447 291.116 457.569 291.872 458.757 292.635 460.013 293.391 461.336 294.147 462.726 294.903 464.164 295.659 465.641 296.422 467.146 297.178 468.641 297.934 470.118 298.69 471.565 299.446 472.965 300.202 474.307 300.966 475.591 301.722 476.809 302.478 477.95 303.234 479.033 303.99 480.059 304.753 481.036 305.509 481.976 307.021 483.798 307.777 484.718 308.533 485.657 309.296 486.625 310.052 487.642 310.808 488.715 311.564 489.827 312.32 490.997 313.084 492.205 313.839 493.451 315.351 495.982 316.107 497.257 316.863 498.513 317.627 499.74 318.383 500.938 319.139 502.117 319.895 503.249 320.651 504.361 321.414 505.444 322.17 506.499 322.926 507.544 325.194 510.65 325.957 511.704 326.713 512.759 327.469 513.823 328.981 515.97 329.745 517.034 330.501 518.098 331.257 519.153 332.013 520.188 333.525 522.22 334.288 523.208 335.044 524.195 335.8 525.164 336.556 526.113 337.312 527.033 338.075 527.934 338.831 528.797 339.587 529.621 340.343 530.398 341.099 531.136 341.855 531.826 342.618 532.469 343.374 533.082 344.13 533.657 344.886 534.204 345.642 534.731 346.406 535.239 347.162 535.738 347.918 536.217 348.674 536.687 349.43 537.137 350.193 537.597 350.949 538.038 352.461 538.959 353.217 539.438 353.973 539.946 354.736 540.473 355.492 541.039 356.248 541.633 357.004 542.256 357.76 542.918 358.523 543.608 359.28 544.318 360.035 545.046 361.547 546.522 362.304 547.251 363.067 547.96 363.823 548.632 364.579 549.264 365.335 549.849 366.091 550.376 366.854 550.856 367.61 551.278 368.366 551.651 369.122 551.977 369.878 552.274 370.634 552.524 371.397 552.763 372.909 553.185 373.665 553.386 374.421 553.597 375.185 553.818 375.941 554.048 376.697 554.307 377.453 554.575 378.209 554.863 378.965 555.16 379.728 555.476 381.24 556.128 381.996 556.445 382.752 556.751 383.515 557.049 384.271 557.346 385.027 557.624 385.783 557.911 386.539 558.189 387.295 558.477 388.059 558.765 388.814 559.071 390.326 559.723 391.082 560.068 391.846 560.423 393.358 561.132 394.114 561.477 394.87 561.813 395.626 562.13 396.389 562.417 397.145 562.676 397.901 562.915 398.657 563.117 399.413 563.299 400.176 563.452 400.932 563.587 401.688 563.702 403.2 563.893 403.956 563.98 404.72 564.056 405.476 564.143 406.232 564.219 406.988 564.306 407.743 564.401 408.507 564.497 409.263 564.603 410.019 564.718 410.775 564.842 411.531 564.977 412.294 565.111 413.05 565.255 413.806 565.389 415.318 565.638 416.074 565.753 416.837 565.859 418.349 566.031 419.861 566.165 420.625 566.233 422.893 566.434 423.649 566.52 424.405 566.597 425.168 566.693 426.68 566.884 427.436 566.99 428.192 567.086 428.955 567.182 430.467 567.354 431.223 567.431 432.735 567.565 433.498 567.613 434.255 567.661 435.767 567.738 436.522 567.766 437.286 567.805 438.798 567.881 441.066 568.025 441.829 568.092 444.853 568.322 445.616 568.37 446.372 568.409 447.884 568.466 448.64 568.485 449.396 568.495 450.16 568.504 450.916 568.514 451.672 568.533 452.428 568.543 453.184 568.562 453.947 568.591 454.703 568.62 455.459 568.658 456.215 568.706 456.971 568.744 457.727 568.792 458.49 568.84 460.758 568.955 461.514 568.984 462.277 569.003 463.789 569.041 464.545 569.051 465.301 569.051 466.065 569.06 469.089 569.06 469.845 569.07 470.608 569.07 472.12 569.089 473.632 569.128 474.395 569.156 475.151 569.185 476.663 569.262 477.419 569.291 478.175 569.329 478.939 569.358 480.451 569.415 481.206 569.434 481.963 569.444 482.726 569.454 486.506 569.502 487.269 569.521 488.025 569.54 490.293 569.626 491.056 569.665 491.812 569.693 492.568 569.732 493.324 569.76 494.836 569.799 495.6 569.818 497.112 569.837 499.387 569.837 500.143 569.828 500.899 569.828 502.411 569.808 503.167 569.808 503.93 569.799 505.442 569.799 506.198 569.789 507.718 569.789 508.473 569.799 511.497 569.799 512.261 569.808 513.773 569.808 515.285 569.828 516.048 569.837 519.072 569.875 519.835 569.885 523.615 569.933 525.135 569.933 525.891 569.942 526.647 569.933 528.922 569.933 529.678 569.923 530.434 569.923 531.19 569.914 537.252 569.914 538.008 569.923 539.52 569.923 540.276 569.933 541.796 569.933 542.552 569.942 543.308 569.942 544.064 569.952 544.827 569.952 545.583 569.962 546.339 569.962 547.095 569.971 547.851 569.971 548.607 569.981 549.37 569.981 550.126 569.99 550.882 569.99 551.638 570 563 570Z" fill="#FEC44F" fill-rule="evenodd" fill-opacity="0.501961"/><path d="M176.5 570.5 192.405 570.5 193.161 570.49 193.925 570.481 194.68 570.471 195.436 570.452 196.192 570.423 196.948 570.385 197.712 570.328 198.468 570.241 199.224 570.136 199.98 570.002 200.736 569.81 201.492 569.58 202.255 569.273 203.011 568.899 203.767 568.439 204.523 567.883 205.279 567.221 206.042 566.445 206.798 565.544 207.554 564.518 208.31 563.349 209.066 562.054 209.822 560.607 210.586 559.025 211.342 557.309 212.098 555.449 212.854 553.474 213.609 551.394 214.373 549.218 215.129 546.965 215.885 544.645 216.641 542.268 217.397 539.842 218.153 537.388 218.916 534.896 219.672 532.374 220.428 529.834 221.184 527.255 221.94 524.648 222.703 522.011 223.459 519.336 224.215 516.633 224.971 513.901 225.727 511.13 226.483 508.322 227.247 505.484 228.003 502.608 228.759 499.703 229.515 496.77 230.271 493.807 231.034 490.826 231.79 487.825 232.546 484.834 233.302 481.853 234.058 478.891 234.814 475.986 235.577 473.139 236.333 470.368 237.089 467.703 237.845 465.163 238.601 462.747 239.364 460.465 240.121 458.347 240.876 456.362 241.633 454.502 242.388 452.758 243.152 451.099 243.908 449.517 244.664 447.993 245.42 446.517 246.176 445.05 246.932 443.612 247.695 442.174 248.451 440.755 249.207 439.346 249.963 437.966 250.719 436.624 251.482 435.329 252.238 434.093 252.994 432.933 253.75 431.849 254.506 430.852 255.262 429.951 256.026 429.146 256.782 428.446 257.538 427.842 258.294 427.353 259.05 426.979 259.813 426.711 260.569 426.548 261.325 426.5 262.081 426.539 262.837 426.682 263.593 426.903 264.356 427.209 265.112 427.564 265.868 427.977 266.624 428.427 267.38 428.906 268.143 429.386 271.167 431.303 271.923 431.792 272.687 432.31 273.443 432.875 274.199 433.498 274.955 434.188 275.711 434.955 276.474 435.809 277.23 436.758 277.986 437.783 278.742 438.886 279.498 440.036 280.254 441.235 281.017 442.462 282.529 444.935 283.285 446.162 284.041 447.36 284.805 448.521 285.561 449.652 286.317 450.735 287.073 451.789 287.829 452.815 288.584 453.822 289.348 454.838 290.104 455.873 290.86 456.947 291.616 458.069 292.372 459.257 293.135 460.513 293.891 461.836 294.647 463.226 295.403 464.664 296.159 466.141 296.922 467.646 297.678 469.141 298.434 470.618 299.19 472.065 299.946 473.465 300.702 474.807 301.466 476.091 302.222 477.309 302.978 478.45 303.734 479.533 304.49 480.559 305.253 481.537 306.009 482.476 307.521 484.298 308.277 485.218 309.033 486.157 309.796 487.126 310.552 488.142 311.308 489.216 312.064 490.327 312.82 491.497 313.584 492.705 314.339 493.951 315.851 496.482 316.608 497.757 317.363 499.013 318.127 500.24 318.883 501.438 319.639 502.617 320.395 503.749 321.151 504.861 321.914 505.944 322.67 506.999 323.426 508.044 325.694 511.15 326.457 512.204 327.213 513.259 327.969 514.323 329.481 516.47 330.245 517.534 331.001 518.598 331.757 519.653 332.513 520.688 334.025 522.721 334.788 523.708 335.544 524.695 336.3 525.664 337.056 526.613 337.812 527.533 338.575 528.434 339.331 529.297 340.087 530.121 340.843 530.898 341.599 531.636 342.355 532.326 343.118 532.969 343.874 533.582 344.63 534.157 345.386 534.704 346.142 535.231 346.906 535.739 347.662 536.238 348.418 536.717 349.174 537.187 349.93 537.637 350.693 538.097 351.449 538.538 352.961 539.459 353.717 539.938 354.473 540.446 355.236 540.973 355.992 541.539 356.748 542.133 357.504 542.756 358.26 543.418 359.024 544.108 359.78 544.818 360.535 545.546 362.047 547.023 362.804 547.751 363.567 548.461 364.323 549.132 365.079 549.764 365.835 550.349 366.591 550.876 367.354 551.356 368.11 551.778 368.866 552.151 369.622 552.477 370.378 552.774 371.134 553.024 371.897 553.263 373.409 553.685 374.165 553.886 374.921 554.097 375.685 554.318 376.441 554.548 377.197 554.807 377.953 555.075 378.709 555.363 379.465 555.66 380.228 555.976 381.74 556.628 382.496 556.945 383.252 557.251 384.015 557.549 384.771 557.846 385.527 558.124 386.283 558.411 387.039 558.689 387.795 558.977 388.559 559.265 389.314 559.571 390.826 560.223 391.582 560.568 392.346 560.923 393.858 561.632 394.614 561.978 395.37 562.313 396.126 562.63 396.889 562.917 397.645 563.176 398.401 563.416 399.157 563.617 399.913 563.799 400.676 563.952 401.432 564.087 402.188 564.202 403.7 564.394 404.456 564.48 405.22 564.556 405.976 564.643 406.732 564.719 407.488 564.806 408.243 564.901 409.007 564.997 409.763 565.103 410.519 565.218 411.275 565.343 412.031 565.477 412.794 565.611 413.55 565.755 414.306 565.889 415.818 566.138 416.574 566.253 417.337 566.359 418.849 566.531 420.361 566.665 421.125 566.733 423.393 566.934 424.149 567.02 424.905 567.097 425.668 567.193 427.18 567.384 427.936 567.49 428.692 567.586 429.455 567.682 430.967 567.854 431.723 567.931 433.235 568.065 433.999 568.113 434.755 568.161 436.267 568.238 437.022 568.266 437.786 568.305 439.298 568.382 441.566 568.525 442.329 568.592 445.353 568.822 446.116 568.87 446.872 568.909 448.384 568.966 449.14 568.985 449.896 568.995 450.66 569.005 451.416 569.014 452.172 569.033 452.928 569.043 453.684 569.062 454.447 569.091 455.203 569.12 455.959 569.158 456.715 569.206 457.471 569.244 458.227 569.292 458.99 569.34 461.258 569.455 462.014 569.484 462.777 569.503 464.289 569.541 465.045 569.551 465.801 569.551 466.565 569.56 469.589 569.56 470.345 569.57 471.108 569.57 472.62 569.589 474.132 569.628 474.895 569.656 475.651 569.685 477.163 569.762 477.919 569.791 478.675 569.829 479.439 569.858 480.951 569.915 481.707 569.934 482.463 569.944 483.226 569.954 487.006 570.002 487.769 570.021 488.525 570.04 490.793 570.126 491.556 570.165 492.312 570.193 493.068 570.232 493.824 570.26 495.336 570.299 496.1 570.318 497.612 570.337 499.887 570.337 500.643 570.328 501.399 570.328 502.911 570.308 503.667 570.308 504.43 570.299 505.942 570.299 506.698 570.289 508.218 570.289 508.973 570.299 511.997 570.299 512.761 570.308 514.273 570.308 515.785 570.328 516.548 570.337 519.572 570.375 520.335 570.385 524.115 570.433 525.635 570.433 526.391 570.443 527.147 570.433 529.422 570.433 530.178 570.423 530.934 570.423 531.69 570.414 537.752 570.414 538.508 570.423 540.02 570.423 540.776 570.433 542.296 570.433 543.052 570.443 543.808 570.443 544.564 570.452 545.327 570.452 546.083 570.462 546.839 570.462 547.595 570.471 548.351 570.471 549.107 570.481 549.87 570.481 550.626 570.49 551.382 570.49 552.138 570.5 563.5 570.5" stroke="#000000" stroke-width="1.16735" stroke-linejoin="round" stroke-miterlimit="10" fill="none" fill-rule="evenodd"/><path d="M176 570 185.85 570 187.362 569.981 188.118 569.952 188.881 569.894 189.637 569.788 190.393 569.595 191.149 569.267 191.905 568.708 192.661 567.812 193.424 566.443 194.18 564.427 194.936 561.564 195.692 557.65 196.448 552.511 197.212 545.994 197.968 538.011 198.724 528.583 199.48 517.814 200.236 505.898 200.992 493.143 201.755 480.002 202.511 466.852 203.267 454.049 204.023 441.892 204.779 430.592 205.542 420.286 206.298 411.05 207.054 402.865 207.81 395.702 208.566 389.484 209.322 384.104 210.086 379.505 210.842 375.601 211.597 372.361 212.354 369.672 213.109 367.512 213.873 365.825 214.629 364.571 215.385 363.713 216.141 363.212 216.897 363 217.653 363.067 218.416 363.347 219.172 363.839 219.928 364.504 220.684 365.362 221.44 366.403 222.203 367.647 222.959 369.103 223.715 370.761 224.471 372.602 225.227 374.608 225.983 376.738 226.747 378.956 227.503 381.212 228.259 383.477 229.015 385.714 229.771 387.922 230.534 390.101 231.29 392.27 232.046 394.42 232.802 396.608 233.558 398.816 234.314 401.072 235.077 403.357 235.833 405.68 236.589 408.023 237.345 410.375 238.101 412.718 238.864 415.051 239.621 417.384 240.376 419.698 241.132 422.002 241.888 424.316 242.652 426.62 243.408 428.924 244.92 433.514 245.676 435.789 246.432 438.035 247.195 440.253 247.951 442.422 248.707 444.552 249.463 446.635 250.219 448.669 250.982 450.674 251.738 452.632 252.494 454.569 253.25 456.498 254.006 458.406 254.762 460.335 255.526 462.263 256.282 464.22 257.038 466.187 257.794 468.173 258.55 470.149 259.313 472.106 260.069 474.015 260.825 475.857 261.581 477.621 262.337 479.298 263.093 480.879 263.856 482.374 264.612 483.781 265.368 485.131 266.124 486.433 266.88 487.686 267.643 488.91 268.399 490.106 269.155 491.272 269.911 492.429 271.423 494.724 272.187 495.881 272.943 497.047 273.699 498.252 274.455 499.477 275.211 500.73 275.974 502.012 278.242 505.917 278.998 507.19 279.754 508.443 280.517 509.657 281.273 510.824 282.029 511.942 282.785 513.003 283.541 514.025 284.305 514.999 285.06 515.934 285.817 516.84 286.572 517.727 288.084 519.482 288.848 520.349 289.604 521.227 291.116 523.001 291.872 523.897 292.635 524.784 294.147 526.539 294.903 527.397 295.659 528.236 296.422 529.045 297.178 529.846 297.934 530.617 298.69 531.359 299.446 532.082 300.202 532.786 300.966 533.451 301.722 534.097 302.478 534.714 303.234 535.312 303.99 535.89 304.753 536.459 305.509 537.028 307.021 538.146 307.777 538.715 308.533 539.274 309.296 539.824 310.052 540.354 310.808 540.865 311.564 541.347 312.32 541.781 313.084 542.186 313.839 542.552 314.595 542.871 315.351 543.169 316.107 543.439 316.863 543.7 317.627 543.96 318.383 544.239 319.139 544.548 319.895 544.885 320.651 545.281 321.414 545.714 322.17 546.197 322.926 546.717 323.682 547.276 324.438 547.865 325.194 548.462 325.957 549.05 326.713 549.638 327.469 550.198 328.225 550.718 328.981 551.21 329.745 551.644 330.501 552.039 331.257 552.396 332.013 552.704 332.768 552.984 333.525 553.234 334.288 553.475 335.8 553.9 337.312 554.305 338.075 554.497 340.343 555.076 341.099 555.278 341.855 555.49 342.618 555.712 343.374 555.953 344.13 556.223 344.886 556.512 345.642 556.831 346.406 557.158 347.918 557.852 348.674 558.209 349.43 558.556 350.193 558.903 350.949 559.241 351.705 559.569 352.461 559.887 353.217 560.195 353.973 560.475 354.736 560.735 355.492 560.967 356.248 561.159 357.004 561.323 357.76 561.458 358.523 561.564 359.28 561.651 360.035 561.718 360.792 561.776 361.547 561.825 362.304 561.882 363.067 561.94 363.823 562.008 364.579 562.085 365.335 562.181 366.091 562.297 366.854 562.422 367.61 562.576 368.366 562.74 369.878 563.087 370.634 563.251 371.397 563.415 372.153 563.55 372.909 563.675 373.665 563.791 374.421 563.888 375.185 563.984 377.453 564.273 378.209 564.379 378.965 564.476 379.728 564.572 380.484 564.659 381.996 564.813 382.752 564.881 383.515 564.948 385.027 565.083 385.783 565.16 387.295 565.353 388.059 565.469 388.814 565.575 389.57 565.69 391.082 565.883 391.846 565.97 392.602 566.038 393.358 566.095 394.114 566.144 395.626 566.221 396.389 566.259 397.145 566.298 397.901 566.346 398.657 566.385 399.413 566.433 400.176 566.481 403.2 566.635 403.956 566.664 404.72 566.703 405.476 566.751 406.232 566.809 407.743 566.963 408.507 567.06 409.263 567.175 410.019 567.281 410.775 567.407 411.531 567.513 412.294 567.619 413.05 567.715 413.806 567.792 414.562 567.85 415.318 567.898 416.074 567.927 416.837 567.956 417.593 567.975 418.349 567.985 419.861 568.024 420.625 568.033 421.381 568.053 423.649 568.139 424.405 568.178 425.168 568.226 426.68 568.323 428.192 568.438 428.955 568.496 429.711 568.554 431.223 568.65 431.979 568.689 432.735 568.718 433.498 568.747 434.255 568.756 435.01 568.756 435.767 568.747 436.522 568.727 437.286 568.708 438.042 568.67 440.31 568.583 441.066 568.564 441.829 568.554 444.097 568.554 444.853 568.564 445.616 568.564 448.64 568.602 449.396 568.621 450.16 568.631 450.916 568.65 451.672 568.679 452.428 568.699 453.184 568.727 453.947 568.756 455.459 568.814 456.215 568.853 457.727 568.911 458.49 568.94 460.002 568.997 461.514 569.036 462.277 569.046 463.033 569.055 463.789 569.055 464.545 569.065 465.301 569.065 466.065 569.075 467.577 569.075 469.845 569.104 470.608 569.113 471.364 569.123 473.632 569.181 474.395 569.21 475.151 569.229 476.663 569.287 477.419 569.325 478.175 569.354 478.939 569.393 479.695 569.422 480.451 569.46 481.206 569.489 481.963 569.528 482.726 569.557 484.238 569.615 485.75 569.653 486.506 569.663 487.269 569.663 488.025 569.653 488.781 569.634 490.293 569.576 491.056 569.547 491.812 569.518 494.08 569.46 495.6 569.46 496.356 569.479 497.112 569.489 497.868 569.508 498.624 569.518 499.387 569.528 500.143 569.537 502.411 569.537 503.167 569.528 504.686 569.528 505.442 569.518 506.954 569.518 507.718 569.528 508.473 569.528 509.985 569.547 510.741 569.566 511.497 569.576 512.261 569.595 513.773 569.634 515.285 569.653 516.048 569.663 519.072 569.663 519.835 569.653 521.347 569.653 522.103 569.643 524.379 569.643 525.135 569.634 526.647 569.634 527.402 569.624 528.922 569.624 529.678 569.634 530.434 569.634 531.946 569.653 532.709 569.663 533.465 569.682 535.733 569.711 536.496 569.711 537.252 569.721 538.008 569.721 538.764 569.73 539.52 569.73 540.276 569.74 541.04 569.749 541.796 569.749 544.064 569.778 544.827 569.798 546.339 569.817 547.095 569.836 548.607 569.855 549.37 569.865 551.638 569.865 552.394 569.855 553.157 569.846 554.669 569.827 555.426 569.807 556.938 569.788 559.213 569.788 559.969 569.798 560.725 569.817 561.488 569.836 563 569.875 563 570Z" fill="#0570B0" fill-rule="evenodd" fill-opacity="0.501961"/><path d="M176.5 570.5 186.35 570.5 187.862 570.481 188.618 570.452 189.381 570.394 190.137 570.288 190.893 570.095 191.649 569.767 192.405 569.208 193.161 568.312 193.925 566.943 194.68 564.928 195.436 562.064 196.192 558.15 196.948 553.011 197.712 546.494 198.468 538.511 199.224 529.083 199.98 518.314 200.736 506.398 201.492 493.643 202.255 480.502 203.011 467.352 203.767 454.549 204.523 442.392 205.279 431.092 206.042 420.786 206.798 411.55 207.554 403.365 208.31 396.202 209.066 389.984 209.822 384.604 210.586 380.005 211.342 376.101 212.098 372.861 212.854 370.172 213.609 368.012 214.373 366.325 215.129 365.071 215.885 364.213 216.641 363.712 217.397 363.5 218.153 363.567 218.916 363.847 219.672 364.339 220.428 365.004 221.184 365.862 221.94 366.903 222.703 368.147 223.459 369.603 224.215 371.261 224.971 373.102 225.727 375.108 226.483 377.238 227.247 379.456 228.003 381.712 228.759 383.977 229.515 386.214 230.271 388.422 231.034 390.601 231.79 392.77 232.546 394.92 233.302 397.108 234.058 399.316 234.814 401.572 235.577 403.857 236.333 406.18 237.089 408.523 237.845 410.875 238.601 413.218 239.364 415.551 240.121 417.884 240.876 420.198 241.633 422.502 242.388 424.816 243.152 427.12 243.908 429.425 245.42 434.014 246.176 436.289 246.932 438.535 247.695 440.753 248.451 442.922 249.207 445.052 249.963 447.135 250.719 449.169 251.482 451.175 252.238 453.132 252.994 455.069 253.75 456.998 254.506 458.907 255.262 460.835 256.026 462.763 256.782 464.72 257.538 466.687 258.294 468.673 259.05 470.649 259.813 472.606 260.569 474.515 261.325 476.357 262.081 478.121 262.837 479.798 263.593 481.379 264.356 482.874 265.112 484.281 265.868 485.631 266.624 486.933 267.38 488.186 268.143 489.41 268.9 490.606 269.655 491.772 270.411 492.929 271.923 495.224 272.687 496.381 273.443 497.547 274.199 498.752 274.955 499.977 275.711 501.23 276.474 502.512 278.742 506.417 279.498 507.69 280.254 508.943 281.017 510.158 281.773 511.324 282.529 512.443 283.285 513.503 284.041 514.525 284.805 515.499 285.561 516.434 286.317 517.34 287.073 518.227 288.584 519.982 289.348 520.849 290.104 521.727 291.616 523.501 292.372 524.397 293.135 525.284 294.647 527.039 295.403 527.897 296.159 528.736 296.922 529.545 297.678 530.346 298.434 531.117 299.19 531.859 299.946 532.582 300.702 533.286 301.466 533.951 302.222 534.597 302.978 535.214 303.734 535.812 304.49 536.39 305.253 536.959 306.009 537.528 307.521 538.646 308.277 539.215 309.033 539.775 309.796 540.324 310.552 540.854 311.308 541.365 312.064 541.847 312.82 542.281 313.584 542.686 314.339 543.052 315.096 543.371 315.851 543.669 316.608 543.939 317.363 544.2 318.127 544.46 318.883 544.74 319.639 545.048 320.395 545.385 321.151 545.781 321.914 546.215 322.67 546.697 323.426 547.217 324.182 547.776 324.938 548.365 325.694 548.962 326.457 549.55 327.213 550.139 327.969 550.698 328.725 551.218 329.481 551.71 330.245 552.144 331.001 552.539 331.757 552.896 332.513 553.204 333.269 553.484 334.025 553.734 334.788 553.975 336.3 554.4 337.812 554.805 338.575 554.997 340.843 555.576 341.599 555.778 342.355 555.99 343.118 556.212 343.874 556.453 344.63 556.723 345.386 557.012 346.142 557.331 346.906 557.658 348.418 558.353 349.174 558.709 349.93 559.056 350.693 559.403 351.449 559.741 352.205 560.069 352.961 560.387 353.717 560.695 354.473 560.975 355.236 561.235 355.992 561.467 356.748 561.659 357.504 561.823 358.26 561.958 359.024 562.064 359.78 562.151 360.535 562.218 361.292 562.276 362.047 562.325 362.804 562.382 363.567 562.44 364.323 562.508 365.079 562.585 365.835 562.681 366.591 562.797 367.354 562.922 368.11 563.076 368.866 563.24 370.378 563.587 371.134 563.751 371.897 563.915 372.653 564.05 373.409 564.176 374.165 564.291 374.921 564.388 375.685 564.484 377.953 564.773 378.709 564.879 379.465 564.976 380.228 565.072 380.984 565.159 382.496 565.313 383.252 565.381 384.015 565.448 385.527 565.583 386.283 565.66 387.795 565.853 388.559 565.969 389.314 566.075 390.07 566.191 391.582 566.383 392.346 566.47 393.102 566.538 393.858 566.596 394.614 566.644 396.126 566.721 396.889 566.759 397.645 566.798 398.401 566.846 399.157 566.885 399.913 566.933 400.676 566.981 403.7 567.135 404.456 567.164 405.22 567.203 405.976 567.251 406.732 567.309 408.243 567.463 409.007 567.56 409.763 567.675 410.519 567.781 411.275 567.907 412.031 568.013 412.794 568.119 413.55 568.215 414.306 568.292 415.062 568.35 415.818 568.398 416.574 568.427 417.337 568.456 418.093 568.476 418.849 568.485 420.361 568.524 421.125 568.533 421.881 568.553 424.149 568.639 424.905 568.678 425.668 568.726 427.18 568.823 428.692 568.938 429.455 568.996 430.211 569.054 431.723 569.15 432.479 569.189 433.235 569.218 433.999 569.247 434.755 569.256 435.51 569.256 436.267 569.247 437.022 569.228 437.786 569.208 438.542 569.17 440.81 569.083 441.566 569.064 442.329 569.054 444.597 569.054 445.353 569.064 446.116 569.064 449.14 569.102 449.896 569.122 450.66 569.131 451.416 569.15 452.172 569.179 452.928 569.199 453.684 569.228 454.447 569.256 455.959 569.314 456.715 569.353 458.227 569.411 458.99 569.44 460.502 569.498 462.014 569.536 462.777 569.546 463.534 569.555 464.289 569.555 465.045 569.565 465.801 569.565 466.565 569.575 468.077 569.575 470.345 569.604 471.108 569.613 471.864 569.623 474.132 569.681 474.895 569.71 475.651 569.729 477.163 569.787 477.919 569.825 478.675 569.854 479.439 569.893 480.195 569.922 480.951 569.96 481.707 569.989 482.463 570.028 483.226 570.057 484.738 570.115 486.25 570.153 487.006 570.163 487.769 570.163 488.525 570.153 489.281 570.134 490.793 570.076 491.556 570.047 492.312 570.018 494.58 569.96 496.1 569.96 496.856 569.98 497.612 569.989 498.368 570.008 499.124 570.018 499.887 570.028 500.643 570.037 502.911 570.037 503.667 570.028 505.186 570.028 505.942 570.018 507.454 570.018 508.218 570.028 508.973 570.028 510.485 570.047 511.242 570.066 511.997 570.076 512.761 570.095 514.273 570.134 515.785 570.153 516.548 570.163 519.572 570.163 520.335 570.153 521.847 570.153 522.603 570.143 524.879 570.143 525.635 570.134 527.147 570.134 527.903 570.124 529.422 570.124 530.178 570.134 530.934 570.134 532.446 570.153 533.209 570.163 533.965 570.182 536.233 570.211 536.997 570.211 537.752 570.221 538.508 570.221 539.264 570.23 540.02 570.23 540.776 570.24 541.54 570.249 542.296 570.249 544.564 570.278 545.327 570.298 546.839 570.317 547.595 570.336 549.107 570.356 549.87 570.365 552.138 570.365 552.894 570.356 553.658 570.346 555.169 570.327 555.926 570.307 557.438 570.288 559.713 570.288 560.469 570.298 561.225 570.317 561.988 570.336 563.5 570.375" stroke="#000000" stroke-width="1.16735" stroke-linejoin="round" stroke-miterlimit="10" fill="none" fill-rule="evenodd"/><path d="M157.5 584.5 157.5 272.5" stroke="#4B5E68" stroke-width="1.33333" stroke-linecap="square" stroke-linejoin="round" stroke-miterlimit="10" fill="none" fill-rule="evenodd"/><path d="M167.5 570.5 157.5 570.5" stroke="#4B5E68" stroke-width="1.33333" stroke-linejoin="round" stroke-miterlimit="10" fill="none" fill-rule="evenodd"/><path d="M167.5 514.5 157.5 514.5" stroke="#4B5E68" stroke-width="1.33333" stroke-linejoin="round" stroke-miterlimit="10" fill="none" fill-rule="evenodd"/><path d="M167.5 457.5 157.5 457.5" stroke="#4B5E68" stroke-width="1.33333" stroke-linejoin="round" stroke-miterlimit="10" fill="none" fill-rule="evenodd"/><path d="M167.5 400.5 157.5 400.5" stroke="#4B5E68" stroke-width="1.33333" stroke-linejoin="round" stroke-miterlimit="10" fill="none" fill-rule="evenodd"/><path d="M167.5 343.5 157.5 343.5" stroke="#4B5E68" stroke-width="1.33333" stroke-linejoin="round" stroke-miterlimit="10" fill="none" fill-rule="evenodd"/><path d="M167.5 286.5 157.5 286.5" stroke="#4B5E68" stroke-width="1.33333" stroke-linejoin="round" stroke-miterlimit="10" fill="none" fill-rule="evenodd"/><path d="M157.5 584.5 582.5 584.5" stroke="#4B5E68" stroke-width="1.33333" stroke-linecap="square" stroke-linejoin="round" stroke-miterlimit="10" fill="none" fill-rule="evenodd"/><path d="M200.5 570.5 200.5 584.5" stroke="#4B5E68" stroke-width="1.33333" stroke-linejoin="round" stroke-miterlimit="10" fill="none" fill-rule="evenodd"/><path d="M321.5 570.5 321.5 584.5" stroke="#4B5E68" stroke-width="1.33333" stroke-linejoin="round" stroke-miterlimit="10" fill="none" fill-rule="evenodd"/><path d="M442.5 570.5 442.5 584.5" stroke="#4B5E68" stroke-width="1.33333" stroke-linejoin="round" stroke-miterlimit="10" fill="none" fill-rule="evenodd"/><path d="M563.5 570.5 563.5 584.5" stroke="#4B5E68" stroke-width="1.33333" stroke-linejoin="round" stroke-miterlimit="10" fill="none" fill-rule="evenodd"/><text fill="#4B5E68" font-family="Arial,Arial_MSFontService,sans-serif" font-weight="400" font-size="24" transform="translate(855.247 648)">Days since shedding onset</text><text fill="#4B5E68" font-family="Arial,Arial_MSFontService,sans-serif" font-weight="400" font-size="24" transform="matrix(-1.83697e-16 -1 1 -1.83697e-16 674.494 542)">Shedding amount</text><text fill="#4B5E68" font-family="Arial,Arial_MSFontService,sans-serif" font-weight="400" font-size="24" transform="matrix(-1.83697e-16 -1 1 -1.83697e-16 703.494 605)">(copies/g</text><text fill="#4B5E68" font-family="Arial,Arial_MSFontService,sans-serif" font-weight="400" font-size="24" transform="matrix(-1.83697e-16 -1 1 -1.83697e-16 703.494 508)">-</text><text fill="#4B5E68" font-family="Arial,Arial_MSFontService,sans-serif" font-weight="400" font-size="24" transform="matrix(-1.83697e-16 -1 1 -1.83697e-16 703.494 500)">wastewater/person)</text><path d="M751.5 533.5 1223.5 533.5" stroke="#EBEBEB" stroke-width="0.583727" stroke-linejoin="round" stroke-miterlimit="10" fill="none" fill-rule="evenodd"/><path d="M751.5 463.5 1223.5 463.5" stroke="#EBEBEB" stroke-width="0.583727" stroke-linejoin="round" stroke-miterlimit="10" fill="none" fill-rule="evenodd"/><path d="M751.5 392.5 1223.5 392.5" stroke="#EBEBEB" stroke-width="0.583727" stroke-linejoin="round" stroke-miterlimit="10" fill="none" fill-rule="evenodd"/><path d="M751.5 322.5 1223.5 322.5" stroke="#EBEBEB" stroke-width="0.583727" stroke-linejoin="round" stroke-miterlimit="10" fill="none" fill-rule="evenodd"/><path d="M807.5 582.5 807.5 272.5" stroke="#EBEBEB" stroke-width="0.583727" stroke-linejoin="round" stroke-miterlimit="10" fill="none" fill-rule="evenodd"/><path d="M919.5 582.5 919.5 272.5" stroke="#EBEBEB" stroke-width="0.583727" stroke-linejoin="round" stroke-miterlimit="10" fill="none" fill-rule="evenodd"/><path d="M1032.5 582.5 1032.5 272.5" stroke="#EBEBEB" stroke-width="0.583727" stroke-linejoin="round" stroke-miterlimit="10" fill="none" fill-rule="evenodd"/><path d="M1145.5 582.5 1145.5 272.5" stroke="#EBEBEB" stroke-width="0.583727" stroke-linejoin="round" stroke-miterlimit="10" fill="none" fill-rule="evenodd"/><path d="M751.5 568.5 1223.5 568.5" stroke="#EBEBEB" stroke-width="1.16735" stroke-linejoin="round" stroke-miterlimit="10" fill="none" fill-rule="evenodd"/><path d="M751.5 498.5 1223.5 498.5" stroke="#EBEBEB" stroke-width="1.16735" stroke-linejoin="round" stroke-miterlimit="10" fill="none" fill-rule="evenodd"/><path d="M751.5 427.5 1223.5 427.5" stroke="#EBEBEB" stroke-width="1.16735" stroke-linejoin="round" stroke-miterlimit="10" fill="none" fill-rule="evenodd"/><path d="M751.5 357.5 1223.5 357.5" stroke="#EBEBEB" stroke-width="1.16735" stroke-linejoin="round" stroke-miterlimit="10" fill="none" fill-rule="evenodd"/><path d="M751.5 286.5 1223.5 286.5" stroke="#EBEBEB" stroke-width="1.16735" stroke-linejoin="round" stroke-miterlimit="10" fill="none" fill-rule="evenodd"/><path d="M863.5 582.5 863.5 272.5" stroke="#EBEBEB" stroke-width="1.16735" stroke-linejoin="round" stroke-miterlimit="10" fill="none" fill-rule="evenodd"/><path d="M976.5 582.5 976.5 272.5" stroke="#EBEBEB" stroke-width="1.16735" stroke-linejoin="round" stroke-miterlimit="10" fill="none" fill-rule="evenodd"/><path d="M1089.5 582.5 1089.5 272.5" stroke="#EBEBEB" stroke-width="1.16735" stroke-linejoin="round" stroke-miterlimit="10" fill="none" fill-rule="evenodd"/><path d="M1201.5 582.5 1201.5 272.5" stroke="#EBEBEB" stroke-width="1.16735" stroke-linejoin="round" stroke-miterlimit="10" fill="none" fill-rule="evenodd"/><path d="M784.5 568.5 807.5 568.5 807.5 375.5 784.5 375.5Z" stroke="#01665E" stroke-width="1.16735" stroke-miterlimit="8" fill="#80CDC1" fill-rule="evenodd" fill-opacity="0.901961"/><path d="M807.5 568.5 829.5 568.5 829.5 457.5 807.5 457.5Z" stroke="#01665E" stroke-width="1.16735" stroke-miterlimit="8" fill="#80CDC1" fill-rule="evenodd" fill-opacity="0.901961"/><path d="M829.5 568.5 852.5 568.5 852.5 507.5 829.5 507.5Z" stroke="#01665E" stroke-width="1.16735" stroke-miterlimit="8" fill="#80CDC1" fill-rule="evenodd" fill-opacity="0.901961"/><path d="M852.5 568.5 874.5 568.5 874.5 535.5 852.5 535.5Z" stroke="#01665E" stroke-width="1.16735" stroke-miterlimit="8" fill="#80CDC1" fill-rule="evenodd" fill-opacity="0.901961"/><path d="M874.5 568.5 897.5 568.5 897.5 550.5 874.5 550.5Z" stroke="#01665E" stroke-width="1.16735" stroke-miterlimit="8" fill="#80CDC1" fill-rule="evenodd" fill-opacity="0.901961"/><path d="M897.5 568.5 919.5 568.5 919.5 559.5 897.5 559.5Z" stroke="#01665E" stroke-width="1.16735" stroke-miterlimit="8" fill="#80CDC1" fill-rule="evenodd" fill-opacity="0.901961"/><path d="M919.5 568.5 942.5 568.5 942.5 563.5 919.5 563.5Z" stroke="#01665E" stroke-width="1.16735" stroke-miterlimit="8" fill="#80CDC1" fill-rule="evenodd" fill-opacity="0.901961"/><path d="M942.5 568.5 965.5 568.5 965.5 565.5 942.5 565.5Z" stroke="#01665E" stroke-width="1.16735" stroke-miterlimit="8" fill="#80CDC1" fill-rule="evenodd" fill-opacity="0.901961"/><path d="M965.5 568.5 987.5 568.5 987.5 567.5 965.5 567.5Z" stroke="#01665E" stroke-width="1.16735" stroke-miterlimit="8" fill="#80CDC1" fill-rule="evenodd" fill-opacity="0.901961"/><path d="M987.5 569.5 1010.5 569.5 1010.5 568.5 987.5 568.5Z" stroke="#01665E" stroke-width="1.16735" stroke-miterlimit="8" fill="#80CDC1" fill-rule="evenodd" fill-opacity="0.901961"/><path d="M1010.5 569.5 1032.5 569.5 1032.5 568.5 1010.5 568.5Z" stroke="#01665E" stroke-width="1.16735" stroke-miterlimit="8" fill="#80CDC1" fill-rule="evenodd" fill-opacity="0.901961"/><path d="M1032.5 569.501 1055.5 569.501 1055.5 568.5 1032.5 568.5Z" stroke="#01665E" stroke-width="1.16735" stroke-miterlimit="8" fill="#80CDC1" fill-rule="evenodd" fill-opacity="0.901961"/><path d="M1055.5 569.502 1077.5 569.502 1077.5 568.5 1055.5 568.5Z" stroke="#01665E" stroke-width="1.16735" stroke-miterlimit="8" fill="#80CDC1" fill-rule="evenodd" fill-opacity="0.901961"/><path d="M1077.5 569.5 1100.5 569.5 1100.5 568.5 1077.5 568.5Z" stroke="#01665E" stroke-width="1.16735" stroke-miterlimit="8" fill="#80CDC1" fill-rule="evenodd" fill-opacity="0.901961"/><path d="M1100.5 569.506 1122.5 569.506 1122.5 568.5 1100.5 568.5Z" stroke="#01665E" stroke-width="1.16735" stroke-miterlimit="8" fill="#80CDC1" fill-rule="evenodd" fill-opacity="0.901961"/><path d="M1122.5 569.5 1145.5 569.5 1145.5 568.5 1122.5 568.5Z" stroke="#01665E" stroke-width="1.16735" stroke-miterlimit="8" fill="#80CDC1" fill-rule="evenodd" fill-opacity="0.901961"/><path d="M1145.5 569.523 1168.5 569.523 1168.5 568.5 1145.5 568.5Z" stroke="#01665E" stroke-width="1.16735" stroke-miterlimit="8" fill="#80CDC1" fill-rule="evenodd" fill-opacity="0.901961"/><path d="M1168.5 569.523 1190.5 569.523 1190.5 568.5 1168.5 568.5Z" stroke="#01665E" stroke-width="1.16735" stroke-miterlimit="8" fill="#80CDC1" fill-rule="evenodd" fill-opacity="0.901961"/><path d="M791 342 800 342" stroke="#01665E" stroke-width="1.86782" stroke-linejoin="round" stroke-miterlimit="10" fill="none" fill-rule="evenodd"/><path d="M795 342 795 459" stroke="#01665E" stroke-width="1.86782" stroke-linejoin="round" stroke-miterlimit="10" fill="none" fill-rule="evenodd"/><path d="M791 459 800 459" stroke="#01665E" stroke-width="1.86782" stroke-linejoin="round" stroke-miterlimit="10" fill="none" fill-rule="evenodd"/><path d="M813 436 822 436" stroke="#01665E" stroke-width="1.86782" stroke-linejoin="round" stroke-miterlimit="10" fill="none" fill-rule="evenodd"/><path d="M818 436 818 551" stroke="#01665E" stroke-width="1.86782" stroke-linejoin="round" stroke-miterlimit="10" fill="none" fill-rule="evenodd"/><path d="M813 551 822 551" stroke="#01665E" stroke-width="1.86782" stroke-linejoin="round" stroke-miterlimit="10" fill="none" fill-rule="evenodd"/><path d="M836 477 845 477" stroke="#01665E" stroke-width="1.86782" stroke-linejoin="round" stroke-miterlimit="10" fill="none" fill-rule="evenodd"/><path d="M840 477 840 566" stroke="#01665E" stroke-width="1.86782" stroke-linejoin="round" stroke-miterlimit="10" fill="none" fill-rule="evenodd"/><path d="M836 566 845 566" stroke="#01665E" stroke-width="1.86782" stroke-linejoin="round" stroke-miterlimit="10" fill="none" fill-rule="evenodd"/><path d="M859 499 868 499" stroke="#01665E" stroke-width="1.86782" stroke-linejoin="round" stroke-miterlimit="10" fill="none" fill-rule="evenodd"/><path d="M863 499 863 568" stroke="#01665E" stroke-width="1.86782" stroke-linejoin="round" stroke-miterlimit="10" fill="none" fill-rule="evenodd"/><path d="M859 568 868 568" stroke="#01665E" stroke-width="1.86782" stroke-linejoin="round" stroke-miterlimit="10" fill="none" fill-rule="evenodd"/><path d="M881 514 890 514" stroke="#01665E" stroke-width="1.86782" stroke-linejoin="round" stroke-miterlimit="10" fill="none" fill-rule="evenodd"/><path d="M886 514 886 568" stroke="#01665E" stroke-width="1.86782" stroke-linejoin="round" stroke-miterlimit="10" fill="none" fill-rule="evenodd"/><path d="M881 568 890 568" stroke="#01665E" stroke-width="1.86782" stroke-linejoin="round" stroke-miterlimit="10" fill="none" fill-rule="evenodd"/><path d="M904 525 913 525" stroke="#01665E" stroke-width="1.86782" stroke-linejoin="round" stroke-miterlimit="10" fill="none" fill-rule="evenodd"/><path d="M908 525 908 568" stroke="#01665E" stroke-width="1.86782" stroke-linejoin="round" stroke-miterlimit="10" fill="none" fill-rule="evenodd"/><path d="M904 568 913 568" stroke="#01665E" stroke-width="1.86782" stroke-linejoin="round" stroke-miterlimit="10" fill="none" fill-rule="evenodd"/><path d="M926 534 935 534" stroke="#01665E" stroke-width="1.86782" stroke-linejoin="round" stroke-miterlimit="10" fill="none" fill-rule="evenodd"/><path d="M931 534 931 568" stroke="#01665E" stroke-width="1.86782" stroke-linejoin="round" stroke-miterlimit="10" fill="none" fill-rule="evenodd"/><path d="M926 568 935 568" stroke="#01665E" stroke-width="1.86782" stroke-linejoin="round" stroke-miterlimit="10" fill="none" fill-rule="evenodd"/><path d="M949 542 958 542" stroke="#01665E" stroke-width="1.86782" stroke-linejoin="round" stroke-miterlimit="10" fill="none" fill-rule="evenodd"/><path d="M953 542 953 568" stroke="#01665E" stroke-width="1.86782" stroke-linejoin="round" stroke-miterlimit="10" fill="none" fill-rule="evenodd"/><path d="M949 568 958 568" stroke="#01665E" stroke-width="1.86782" stroke-linejoin="round" stroke-miterlimit="10" fill="none" fill-rule="evenodd"/><path d="M971 547 980 547" stroke="#01665E" stroke-width="1.86782" stroke-linejoin="round" stroke-miterlimit="10" fill="none" fill-rule="evenodd"/><path d="M976 547 976 568" stroke="#01665E" stroke-width="1.86782" stroke-linejoin="round" stroke-miterlimit="10" fill="none" fill-rule="evenodd"/><path d="M971 568 980 568" stroke="#01665E" stroke-width="1.86782" stroke-linejoin="round" stroke-miterlimit="10" fill="none" fill-rule="evenodd"/><path d="M994 552 1003 552" stroke="#01665E" stroke-width="1.86782" stroke-linejoin="round" stroke-miterlimit="10" fill="none" fill-rule="evenodd"/><path d="M998 552 998 568" stroke="#01665E" stroke-width="1.86782" stroke-linejoin="round" stroke-miterlimit="10" fill="none" fill-rule="evenodd"/><path d="M994 568 1003 568" stroke="#01665E" stroke-width="1.86782" stroke-linejoin="round" stroke-miterlimit="10" fill="none" fill-rule="evenodd"/><path d="M1016 555 1025 555" stroke="#01665E" stroke-width="1.86782" stroke-linejoin="round" stroke-miterlimit="10" fill="none" fill-rule="evenodd"/><path d="M1021 555 1021 568" stroke="#01665E" stroke-width="1.86782" stroke-linejoin="round" stroke-miterlimit="10" fill="none" fill-rule="evenodd"/><path d="M1016 568 1025 568" stroke="#01665E" stroke-width="1.86782" stroke-linejoin="round" stroke-miterlimit="10" fill="none" fill-rule="evenodd"/><path d="M1039 558 1048 558" stroke="#01665E" stroke-width="1.86782" stroke-linejoin="round" stroke-miterlimit="10" fill="none" fill-rule="evenodd"/><path d="M1043 558 1043 568" stroke="#01665E" stroke-width="1.86782" stroke-linejoin="round" stroke-miterlimit="10" fill="none" fill-rule="evenodd"/><path d="M1039 568 1048 568" stroke="#01665E" stroke-width="1.86782" stroke-linejoin="round" stroke-miterlimit="10" fill="none" fill-rule="evenodd"/><path d="M1062 560 1071 560" stroke="#01665E" stroke-width="1.86782" stroke-linejoin="round" stroke-miterlimit="10" fill="none" fill-rule="evenodd"/><path d="M1066 560 1066 568" stroke="#01665E" stroke-width="1.86782" stroke-linejoin="round" stroke-miterlimit="10" fill="none" fill-rule="evenodd"/><path d="M1062 568 1071 568" stroke="#01665E" stroke-width="1.86782" stroke-linejoin="round" stroke-miterlimit="10" fill="none" fill-rule="evenodd"/><path d="M1084 562 1093 562" stroke="#01665E" stroke-width="1.86782" stroke-linejoin="round" stroke-miterlimit="10" fill="none" fill-rule="evenodd"/><path d="M1089 562 1089 568" stroke="#01665E" stroke-width="1.86782" stroke-linejoin="round" stroke-miterlimit="10" fill="none" fill-rule="evenodd"/><path d="M1084 568 1093 568" stroke="#01665E" stroke-width="1.86782" stroke-linejoin="round" stroke-miterlimit="10" fill="none" fill-rule="evenodd"/><path d="M1107 563 1116 563" stroke="#01665E" stroke-width="1.86782" stroke-linejoin="round" stroke-miterlimit="10" fill="none" fill-rule="evenodd"/><path d="M1111 563 1111 568" stroke="#01665E" stroke-width="1.86782" stroke-linejoin="round" stroke-miterlimit="10" fill="none" fill-rule="evenodd"/><path d="M1107 568 1116 568" stroke="#01665E" stroke-width="1.86782" stroke-linejoin="round" stroke-miterlimit="10" fill="none" fill-rule="evenodd"/><path d="M1129 564 1138 564" stroke="#01665E" stroke-width="1.86782" stroke-linejoin="round" stroke-miterlimit="10" fill="none" fill-rule="evenodd"/><path d="M1134 564 1134 568" stroke="#01665E" stroke-width="1.86782" stroke-linejoin="round" stroke-miterlimit="10" fill="none" fill-rule="evenodd"/><path d="M1129 568 1138 568" stroke="#01665E" stroke-width="1.86782" stroke-linejoin="round" stroke-miterlimit="10" fill="none" fill-rule="evenodd"/><path d="M1152 565 1161 565" stroke="#01665E" stroke-width="1.86782" stroke-linejoin="round" stroke-miterlimit="10" fill="none" fill-rule="evenodd"/><path d="M1156 565 1156 568" stroke="#01665E" stroke-width="1.86782" stroke-linejoin="round" stroke-miterlimit="10" fill="none" fill-rule="evenodd"/><path d="M1152 568 1161 568" stroke="#01665E" stroke-width="1.86782" stroke-linejoin="round" stroke-miterlimit="10" fill="none" fill-rule="evenodd"/><path d="M1174 566 1183 566" stroke="#01665E" stroke-width="1.86782" stroke-linejoin="round" stroke-miterlimit="10" fill="none" fill-rule="evenodd"/><path d="M1179 566 1179 568" stroke="#01665E" stroke-width="1.86782" stroke-linejoin="round" stroke-miterlimit="10" fill="none" fill-rule="evenodd"/><path d="M1174 568 1183 568" stroke="#01665E" stroke-width="1.86782" stroke-linejoin="round" stroke-miterlimit="10" fill="none" fill-rule="evenodd"/><path d="M1201 566 1201 568" stroke="#01665E" stroke-width="1.86782" stroke-linejoin="round" stroke-miterlimit="10" fill="none" fill-rule="evenodd"/><path d="M751.5 582.5 751.5 272.5" stroke="#4B5E68" stroke-width="1.33333" stroke-linecap="square" stroke-linejoin="round" stroke-miterlimit="10" fill="none" fill-rule="evenodd"/><path d="M763.5 568.5 751.5 568.5" stroke="#4B5E68" stroke-width="1.33333" stroke-linejoin="round" stroke-miterlimit="10" fill="none" fill-rule="evenodd"/><path d="M763.5 498.5 751.5 498.5" stroke="#4B5E68" stroke-width="1.33333" stroke-linejoin="round" stroke-miterlimit="10" fill="none" fill-rule="evenodd"/><path d="M763.5 427.5 751.5 427.5" stroke="#4B5E68" stroke-width="1.33333" stroke-linejoin="round" stroke-miterlimit="10" fill="none" fill-rule="evenodd"/><path d="M763.5 357.5 751.5 357.5" stroke="#4B5E68" stroke-width="1.33333" stroke-linejoin="round" stroke-miterlimit="10" fill="none" fill-rule="evenodd"/><path d="M763.5 286.5 751.5 286.5" stroke="#4B5E68" stroke-width="1.33333" stroke-linejoin="round" stroke-miterlimit="10" fill="none" fill-rule="evenodd"/><path d="M751.5 582.5 1223.5 582.5" stroke="#4B5E68" stroke-width="1.33333" stroke-linecap="square" stroke-linejoin="round" stroke-miterlimit="10" fill="none" fill-rule="evenodd"/><path d="M863.5 569.5 863.5 582.5" stroke="#4B5E68" stroke-width="1.33333" stroke-linejoin="round" stroke-miterlimit="10" fill="none" fill-rule="evenodd"/><path d="M976.5 569.5 976.5 582.5" stroke="#4B5E68" stroke-width="1.33333" stroke-linejoin="round" stroke-miterlimit="10" fill="none" fill-rule="evenodd"/><path d="M1089.5 569.5 1089.5 582.5" stroke="#4B5E68" stroke-width="1.33333" stroke-linejoin="round" stroke-miterlimit="10" fill="none" fill-rule="evenodd"/><path d="M1201.5 569.5 1201.5 582.5" stroke="#4B5E68" stroke-width="1.33333" stroke-linejoin="round" stroke-miterlimit="10" fill="none" fill-rule="evenodd"/><text fill="#4B5E68" font-family="Arial,Arial_MSFontService,sans-serif" font-weight="400" font-size="19" transform="translate(115.524 295)">0.50</text><text fill="#4B5E68" font-family="Arial,Arial_MSFontService,sans-serif" font-weight="400" font-size="19" transform="translate(115.524 349)">0.40</text><text fill="#4B5E68" font-family="Arial,Arial_MSFontService,sans-serif" font-weight="400" font-size="19" transform="translate(115.524 405)">0.30</text><text fill="#4B5E68" font-family="Arial,Arial_MSFontService,sans-serif" font-weight="400" font-size="19" transform="translate(115.524 461)">0.20</text><text fill="#4B5E68" font-family="Arial,Arial_MSFontService,sans-serif" font-weight="400" font-size="19" transform="translate(115.524 522)">0.10</text><text fill="#4B5E68" font-family="Arial,Arial_MSFontService,sans-serif" font-weight="400" font-size="19" transform="translate(115.524 578)">0.00</text><text fill="#4B5E68" font-family="Arial,Arial_MSFontService,sans-serif" font-weight="400" font-size="21" transform="translate(193.737 611)">0</text><text fill="#4B5E68" font-family="Arial,Arial_MSFontService,sans-serif" font-weight="400" font-size="21" transform="translate(313.01 611)">5</text><text fill="#4B5E68" font-family="Arial,Arial_MSFontService,sans-serif" font-weight="400" font-size="21" transform="translate(429.748 611)">10</text><text fill="#4B5E68" font-family="Arial,Arial_MSFontService,sans-serif" font-weight="400" font-size="21" transform="translate(548.092 611)">15</text><text fill="#4B5E68" font-family="Arial,Arial_MSFontService,sans-serif" font-weight="400" font-size="19" transform="translate(855.716 608)">5</text><text fill="#4B5E68" font-family="Arial,Arial_MSFontService,sans-serif" font-weight="400" font-size="19" transform="translate(962.199 608)">10</text><text fill="#4B5E68" font-family="Arial,Arial_MSFontService,sans-serif" font-weight="400" font-size="19" transform="translate(1077.02 608)">15</text><text fill="#4B5E68" font-family="Arial,Arial_MSFontService,sans-serif" font-weight="400" font-size="19" transform="translate(1187.8 608)">20</text><text fill="#4B5E68" font-family="Arial,Arial_MSFontService,sans-serif" font-weight="400" font-size="19" transform="translate(726.74 295)">4</text><text fill="#4B5E68" font-family="Arial,Arial_MSFontService,sans-serif" font-weight="400" font-size="19" transform="translate(726.74 365)">3</text><text fill="#4B5E68" font-family="Arial,Arial_MSFontService,sans-serif" font-weight="400" font-size="19" transform="translate(726.74 433)">2</text><text fill="#4B5E68" font-family="Arial,Arial_MSFontService,sans-serif" font-weight="400" font-size="19" transform="translate(726.74 506)">1</text><text fill="#4B5E68" font-family="Arial,Arial_MSFontService,sans-serif" font-weight="400" font-size="19" transform="translate(726.74 572)">0</text><text fill="#264980" font-family="Arial,Arial_MSFontService,sans-serif" font-weight="400" font-size="24" transform="translate(268.046 299)">Shedding onset</text><text fill="#C8A314" font-family="Arial,Arial_MSFontService,sans-serif" font-weight="400" font-size="24" transform="translate(312.857 370)">Incubation time</text><text fill="#953735" font-family="Arial,Arial_MSFontService,sans-serif" font-weight="400" font-size="24" transform="translate(389.937 397)">Incubation time +</text><text fill="#953735" font-family="Arial,Arial_MSFontService,sans-serif" font-weight="400" font-size="24" transform="translate(389.937 426)">time to case</text><text fill="#953735" font-family="Arial,Arial_MSFontService,sans-serif" font-weight="400" font-size="24" transform="translate(389.937 455)">identification</text><path d="M215.448 352.932C211.676 322.189 228.774 294.793 253.637 291.743" stroke="#264980" stroke-width="3" stroke-miterlimit="8" fill="none" fill-rule="evenodd"/><path d="M227 337 216 356 205 337Z" fill="#264980" fill-rule="evenodd"/><path d="M268.744 424.287C264.972 393.543 282.07 366.147 306.933 363.097" stroke="#856D0E" stroke-width="3" stroke-miterlimit="8" fill="none" fill-rule="evenodd"/><path d="M280 408 269 427 258 408Z" fill="#856D0E" fill-rule="evenodd"/><path d="M346.941 465.014C343.169 434.27 360.267 406.874 385.13 403.824" stroke="#953735" stroke-width="3" stroke-miterlimit="8" fill="none" fill-rule="evenodd"/><path d="M358 449 347.5 468 337 449Z" fill="#953735" fill-rule="evenodd"/></g></svg>