<svg width="1282" height="723" xmlns="http://www.w3.org/2000/svg" xmlns:xlink="http://www.w3.org/1999/xlink" overflow="hidden"><g transform="translate(1 2)"><rect x="0" y="0" width="1280" height="720" fill="#FFFFFF"/><rect x="0.500053" y="0.500053" width="321" height="37" stroke="#7F7F7F" stroke-width="1.33333" stroke-miterlimit="8" fill="#D9D9D9"/><text fill="#A6A6A6" font-family="Arial,Arial_MSFontService,sans-serif" font-weight="700" font-size="21" transform="translate(98.3799 27)">Introduction</text><rect x="320.5" y="0.500053" width="321" height="37" stroke="#7F7F7F" stroke-width="1.33333" stroke-miterlimit="8" fill="#D9D9D9"/><text fill="#A6A6A6" font-family="Arial,Arial_MSFontService,sans-serif" font-weight="700" font-size="21" transform="translate(376.718 27)">Materials &amp; Methods</text><rect x="639.5" y="0.500053" width="321" height="37" stroke="#7F7F7F" stroke-width="1.33333" stroke-miterlimit="8" fill="#4B5E68"/><text fill="#FFFFFF" font-family="Arial,Arial_MSFontService,sans-serif" font-weight="700" font-size="21" transform="translate(690.449 27)">Results &amp; Discussion</text><rect x="959.5" y="0.500053" width="321" height="37" stroke="#7F7F7F" stroke-width="1.33333" stroke-miterlimit="8" fill="#D9D9D9"/><text fill="#A6A6A6" font-family="Arial,Arial_MSFontService,sans-serif" font-weight="700" font-size="21" transform="translate(1061.32 27)">Conclusion</text><text fill="#4B5E68" font-family="Arial,Arial_MSFontService,sans-serif" font-weight="700" font-size="37" transform="translate(204.848 83)">Parameter identifiability of the state</text><text fill="#4B5E68" font-family="Arial,Arial_MSFontService,sans-serif" font-weight="700" font-size="37" transform="translate(838.515 83)">-</text><text fill="#4B5E68" font-family="Arial,Arial_MSFontService,sans-serif" font-weight="700" font-size="37" transform="translate(851.015 83)">space model</text><path d="M67.5001 156.5 1216.48 156.5" stroke="#4B5E68" stroke-miterlimit="8" stroke-dasharray="8 3" fill="none" fill-rule="evenodd"/><text fill="#4B5E68" font-family="Arial,Arial_MSFontService,sans-serif" font-weight="400" font-size="24" transform="translate(51.642 133)">Shedding onset distribution and shedding load dynamics were</text><text fill="#4B5E68" font-family="Arial,Arial_MSFontService,sans-serif" font-weight="400" font-size="24" transform="translate(716.975 133)">jointl</text><text fill="#4B5E68" font-family="Arial,Arial_MSFontService,sans-serif" font-weight="400" font-size="24" transform="translate(766.309 133)">y</text><text fill="#4B5E68" font-family="Arial,Arial_MSFontService,sans-serif" font-weight="400" font-size="24" transform="translate(784.975 133)">estimated with</text><text fill="#4B5E68" font-family="Arial,Arial_MSFontService,sans-serif" font-weight="400" font-size="24" transform="translate(944.975 133)">epidemic</text><text fill="#4B5E68" font-family="Arial,Arial_MSFontService,sans-serif" font-weight="400" font-size="24" transform="translate(1047.64 133)">dynamic</text><text fill="#4B5E68" font-family="Arial,Arial_MSFontService,sans-serif" font-weight="400" font-size="24" transform="translate(1136.98 133)">s</text><text fill="#4B5E68" font-family="Arial,Arial_MSFontService,sans-serif" font-weight="400" font-size="21" transform="matrix(-1.83697e-16 -1 1 -1.83697e-16 97.3271 504)">Probability density</text><text fill="#4B5E68" font-family="Arial,Arial_MSFontService,sans-serif" font-weight="400" font-size="21" transform="translate(157.501 593)">Interval between infection and shedding onset</text><text fill="#4B5E68" font-family="Arial,Arial_MSFontService,sans-serif" font-weight="400" font-size="19" transform="translate(129.051 415)">0.2</text><text fill="#4B5E68" font-family="Arial,Arial_MSFontService,sans-serif" font-weight="400" font-size="19" transform="translate(129.266 532)">0.0</text><text fill="#4B5E68" font-family="Arial,Arial_MSFontService,sans-serif" font-weight="400" font-size="19" transform="translate(305.568 565)">5</text><text fill="#4B5E68" font-family="Arial,Arial_MSFontService,sans-serif" font-weight="400" font-size="19" transform="translate(429.009 565)">10</text><text fill="#4B5E68" font-family="Arial,Arial_MSFontService,sans-serif" font-weight="400" font-size="19" transform="translate(544.239 565)">15</text><text fill="#4B5E68" font-family="Arial,Arial_MSFontService,sans-serif" font-weight="400" font-size="19" transform="translate(186.876 565)">0</text><path d="M172 531 580 531 580 281 172 281Z" fill="#FFFFFF" fill-rule="evenodd"/><path d="M172.5 491.5 580.5 491.5" stroke="#EBEBEB" stroke-width="0.710656" stroke-linejoin="round" stroke-miterlimit="10" fill="none" fill-rule="evenodd"/><path d="M172.5 434.5 580.5 434.5" stroke="#EBEBEB" stroke-width="0.710656" stroke-linejoin="round" stroke-miterlimit="10" fill="none" fill-rule="evenodd"/><path d="M172.5 377.5 580.5 377.5" stroke="#EBEBEB" stroke-width="0.710656" stroke-linejoin="round" stroke-miterlimit="10" fill="none" fill-rule="evenodd"/><path d="M172.5 321.5 580.5 321.5" stroke="#EBEBEB" stroke-width="0.710656" stroke-linejoin="round" stroke-miterlimit="10" fill="none" fill-rule="evenodd"/><path d="M252.5 531.5 252.5 281.5" stroke="#EBEBEB" stroke-width="0.710656" stroke-linejoin="round" stroke-miterlimit="10" fill="none" fill-rule="evenodd"/><path d="M376.5 531.5 376.5 281.5" stroke="#EBEBEB" stroke-width="0.710656" stroke-linejoin="round" stroke-miterlimit="10" fill="none" fill-rule="evenodd"/><path d="M499.5 531.5 499.5 281.5" stroke="#EBEBEB" stroke-width="0.710656" stroke-linejoin="round" stroke-miterlimit="10" fill="none" fill-rule="evenodd"/><path d="M172.5 519.5 580.5 519.5" stroke="#EBEBEB" stroke-width="1.42131" stroke-linejoin="round" stroke-miterlimit="10" fill="none" fill-rule="evenodd"/><path d="M172.5 463.5 580.5 463.5" stroke="#EBEBEB" stroke-width="1.42131" stroke-linejoin="round" stroke-miterlimit="10" fill="none" fill-rule="evenodd"/><path d="M172.5 406.5 580.5 406.5" stroke="#EBEBEB" stroke-width="1.42131" stroke-linejoin="round" stroke-miterlimit="10" fill="none" fill-rule="evenodd"/><path d="M172.5 349.5 580.5 349.5" stroke="#EBEBEB" stroke-width="1.42131" stroke-linejoin="round" stroke-miterlimit="10" fill="none" fill-rule="evenodd"/><path d="M172.5 292.5 580.5 292.5" stroke="#EBEBEB" stroke-width="1.42131" stroke-linejoin="round" stroke-miterlimit="10" fill="none" fill-rule="evenodd"/><path d="M190.5 531.5 190.5 281.5" stroke="#EBEBEB" stroke-width="1.42131" stroke-linejoin="round" stroke-miterlimit="10" fill="none" fill-rule="evenodd"/><path d="M314.5 531.5 314.5 281.5" stroke="#EBEBEB" stroke-width="1.42131" stroke-linejoin="round" stroke-miterlimit="10" fill="none" fill-rule="evenodd"/><path d="M437.5 531.5 437.5 281.5" stroke="#EBEBEB" stroke-width="1.42131" stroke-linejoin="round" stroke-miterlimit="10" fill="none" fill-rule="evenodd"/><path d="M561.5 531.5 561.5 281.5" stroke="#EBEBEB" stroke-width="1.42131" stroke-linejoin="round" stroke-miterlimit="10" fill="none" fill-rule="evenodd"/><path d="M190 519 190.369 511.325 192.105 475.515 192.474 467.84 192.843 461.625 194.579 432.63 194.947 426.415 195.316 421.458 197.052 398.304 197.421 393.338 197.79 389.452 199.526 371.287 199.895 367.401 200.264 364.416 202 350.51 202.369 347.533 202.738 345.326 204.467 335.031 204.842 332.824 205.211 331.266 206.94 324.013 207.316 322.464 207.685 321.458 209.414 316.76 209.79 315.762 210.159 315.211 211.888 312.663 212.264 312.111 212.633 311.949 214.362 311.17 214.737 311 215.106 311.146 216.835 311.828 217.204 311.974 217.58 312.371 219.309 314.245 219.678 314.643 220.054 315.251 221.783 318.074 222.152 318.683 222.528 319.454 224.257 323.031 224.626 323.802 225.001 324.695 226.73 328.865 227.099 329.765 227.475 330.755 229.204 335.363 229.573 336.353 229.942 337.416 231.678 342.348 232.047 343.411 232.416 344.515 234.151 349.666 234.521 350.77 234.89 351.906 236.625 357.187 236.994 358.323 237.363 359.467 239.099 364.813 239.468 365.965 239.837 367.109 241.573 372.456 241.942 373.6 242.311 374.735 244.04 380.033 244.416 381.169 244.785 382.289 246.513 387.505 246.889 388.617 247.258 389.712 248.987 394.807 249.363 395.894 249.732 396.957 251.461 401.914 251.837 402.968 252.206 403.999 253.935 408.785 254.31 409.816 254.68 410.806 256.408 415.414 256.777 416.404 257.153 417.353 258.882 421.783 259.251 422.732 259.627 423.64 261.356 427.875 261.725 428.776 262.101 429.644 263.83 433.684 264.199 434.552 264.575 435.372 266.303 439.217 266.672 440.037 267.048 440.824 268.777 444.466 269.146 445.245 269.515 445.991 271.251 449.44 271.62 450.178 271.989 450.884 273.725 454.145 274.094 454.843 274.463 455.5 276.198 458.583 276.567 459.24 276.936 459.865 278.672 462.761 279.041 463.386 279.41 463.97 281.146 466.696 281.515 467.28 281.884 467.823 283.613 470.387 283.989 470.931 284.358 471.45 286.087 473.851 286.462 474.362 286.831 474.841 288.56 477.097 288.936 477.575 289.305 478.03 291.034 480.131 291.41 480.577 291.779 480.999 293.508 482.97 293.884 483.384 294.253 483.782 295.982 485.615 296.35 486.013 296.726 486.378 298.455 488.09 298.824 488.455 299.2 488.796 300.929 490.394 301.298 490.734 301.674 491.051 303.403 492.536 303.772 492.852 304.148 493.152 305.877 494.531 306.245 494.832 306.614 495.107 308.35 496.389 308.719 496.665 309.088 496.917 310.824 498.109 311.193 498.369 311.562 498.604 313.298 499.716 313.667 499.951 316.14 501.419 316.509 501.622 318.245 502.571 318.614 502.782 318.983 502.969 320.719 503.853 321.088 504.04 321.457 504.218 323.186 505.03 323.562 505.208 323.931 505.37 325.66 506.125 326.035 506.287 326.404 506.441 328.133 507.139 328.509 507.293 328.878 507.431 330.607 508.072 330.983 508.218 331.352 508.34 333.081 508.94 333.457 509.07 333.826 509.191 335.555 509.743 335.924 509.857 336.299 509.97 338.028 510.481 338.397 510.587 338.773 510.692 340.502 511.163 340.871 511.26 341.247 511.358 342.976 511.788 343.345 511.885 343.721 511.966 345.449 512.372 346.188 512.534 347.923 512.907 348.292 512.988 348.661 513.061 350.397 513.402 350.766 513.475 351.135 513.54 352.871 513.856 353.609 513.986 355.344 514.27 355.713 514.335 356.083 514.392 357.818 514.66 358.187 514.716 358.556 514.765 360.292 515.017 361.03 515.114 362.759 515.341 363.135 515.39 363.504 515.43 365.233 515.641 365.608 515.682 365.978 515.722 367.706 515.917 368.082 515.958 368.451 515.998 370.18 516.169 370.556 516.209 370.925 516.242 372.654 516.404 373.03 516.436 373.399 516.469 375.128 516.623 375.497 516.655 375.872 516.68 377.601 516.818 377.97 516.85 378.346 516.874 380.075 516.996 380.444 517.029 380.82 517.053 382.549 517.167 382.918 517.191 383.294 517.215 385.023 517.321 385.392 517.345 385.761 517.361 387.496 517.459 387.865 517.483 388.234 517.499 389.97 517.588 390.339 517.605 390.708 517.629 392.444 517.71 393.182 517.743 394.918 517.816 395.656 517.848 397.391 517.913 398.129 517.945 399.865 518.002 400.603 518.035 402.332 518.091 402.708 518.099 403.077 518.116 404.806 518.164 405.182 518.181 405.551 518.189 407.28 518.237 407.655 518.246 408.024 518.254 409.753 518.302 410.129 518.31 410.498 518.319 412.227 518.359 412.603 518.367 412.972 518.375 414.701 518.416 415.07 518.424 415.445 518.432 417.174 518.465 417.543 518.473 417.919 518.481 419.648 518.513 420.017 518.513 420.393 518.521 422.122 518.554 422.491 518.562 422.867 518.562 424.596 518.586 425.334 518.602 427.069 518.627 427.438 518.627 427.807 518.635 429.543 518.659 429.912 518.659 430.281 518.667 432.017 518.684 432.386 518.692 432.755 518.692 434.491 518.716 434.86 518.716 435.229 518.724 436.964 518.74 437.702 518.74 439.438 518.757 439.807 518.765 440.176 518.765 441.905 518.781 442.281 518.781 442.65 518.789 444.379 518.797 444.755 518.805 445.124 518.805 446.852 518.813 447.228 518.822 447.597 518.822 449.326 518.83 449.702 518.838 450.071 518.838 451.8 518.846 452.169 518.846 452.545 518.854 454.274 518.862 455.019 518.862 456.747 518.87 457.117 518.87 457.492 518.878 459.221 518.878 459.59 518.887 459.966 518.887 461.695 518.895 462.44 518.895 464.169 518.903 464.907 518.903 466.642 518.911 467.381 518.911 469.116 518.919 469.854 518.919 471.59 518.927 474.064 518.927 474.433 518.935 477.276 518.935 479.011 518.943 481.478 518.943 481.854 518.951 486.426 518.951 486.801 518.959 492.118 518.959 493.847 518.968 499.539 518.968 501.268 518.976 509.427 518.976 511.163 518.984 525.999 518.984 526.375 518.992 561 518.992 561 519Z" fill="#F6E8C3" fill-rule="evenodd"/><path d="M190.5 519.5 190.869 511.825 192.605 476.015 192.974 468.34 193.343 462.125 195.079 433.13 195.448 426.915 195.817 421.958 197.552 398.804 197.921 393.838 198.29 389.952 200.026 371.787 200.395 367.901 200.764 364.916 202.5 351.01 202.869 348.033 203.238 345.826 204.967 335.531 205.343 333.324 205.712 331.766 207.44 324.513 207.816 322.964 208.185 321.958 209.914 317.26 210.29 316.262 210.659 315.711 212.388 313.163 212.764 312.612 213.133 312.449 214.862 311.671 215.238 311.5 215.607 311.646 217.335 312.328 217.704 312.474 218.08 312.871 219.809 314.745 220.178 315.143 220.554 315.751 222.283 318.575 222.652 319.183 223.028 319.954 224.757 323.532 225.126 324.302 225.501 325.195 227.23 329.365 227.599 330.265 227.975 331.255 229.704 335.863 230.073 336.853 230.442 337.916 232.178 342.848 232.547 343.911 232.916 345.015 234.652 350.166 235.021 351.27 235.39 352.406 237.125 357.687 237.494 358.823 237.863 359.967 239.599 365.313 239.968 366.465 240.337 367.609 242.073 372.956 242.442 374.1 242.811 375.235 244.54 380.533 244.916 381.669 245.285 382.789 247.013 388.005 247.389 389.117 247.758 390.212 249.487 395.307 249.863 396.394 250.232 397.457 251.961 402.414 252.337 403.468 252.706 404.499 254.435 409.286 254.811 410.316 255.18 411.306 256.908 415.914 257.277 416.904 257.653 417.853 259.382 422.283 259.751 423.232 260.127 424.14 261.856 428.375 262.225 429.276 262.601 430.144 264.33 434.184 264.699 435.052 265.075 435.872 266.803 439.717 267.172 440.537 267.548 441.324 269.277 444.966 269.646 445.745 270.015 446.492 271.751 449.94 272.12 450.678 272.489 451.384 274.225 454.645 274.594 455.343 274.963 456 276.698 459.083 277.067 459.74 277.436 460.365 279.172 463.261 279.541 463.886 279.91 464.47 281.646 467.196 282.015 467.78 282.384 468.323 284.113 470.887 284.489 471.431 284.858 471.95 286.587 474.352 286.962 474.863 287.331 475.341 289.06 477.597 289.436 478.075 289.805 478.53 291.534 480.631 291.91 481.077 292.279 481.499 294.008 483.47 294.384 483.884 294.753 484.282 296.482 486.115 296.851 486.513 297.226 486.878 298.955 488.59 299.324 488.955 299.7 489.296 301.429 490.894 301.798 491.234 302.174 491.551 303.903 493.036 304.272 493.352 304.648 493.652 306.377 495.031 306.746 495.332 307.115 495.608 308.85 496.889 309.219 497.165 309.588 497.417 311.324 498.609 311.693 498.869 312.062 499.104 313.798 500.216 314.167 500.451 316.641 501.919 317.009 502.122 318.745 503.071 319.114 503.282 319.483 503.469 321.219 504.353 321.588 504.54 321.957 504.718 323.686 505.53 324.062 505.708 324.431 505.87 326.16 506.625 326.536 506.787 326.904 506.941 328.633 507.639 329.009 507.793 329.378 507.931 331.107 508.572 331.483 508.718 331.852 508.84 333.581 509.44 333.957 509.57 334.326 509.692 336.055 510.243 336.424 510.357 336.799 510.47 338.528 510.982 338.897 511.087 339.273 511.192 341.002 511.663 341.371 511.76 341.747 511.858 343.476 512.288 343.845 512.385 344.221 512.466 345.95 512.872 346.688 513.034 348.423 513.407 348.792 513.488 349.161 513.561 350.897 513.902 351.266 513.975 351.635 514.04 353.371 514.356 354.109 514.486 355.845 514.77 356.214 514.835 356.583 514.892 358.318 515.16 358.687 515.217 359.056 515.265 360.792 515.517 361.53 515.614 363.259 515.841 363.635 515.89 364.004 515.93 365.733 516.141 366.108 516.182 366.478 516.222 368.206 516.417 368.582 516.458 368.951 516.498 370.68 516.669 371.056 516.709 371.425 516.742 373.154 516.904 373.53 516.936 373.899 516.969 375.628 517.123 375.997 517.155 376.372 517.18 378.101 517.318 378.47 517.35 378.846 517.375 380.575 517.496 380.944 517.529 381.32 517.553 383.049 517.667 383.418 517.691 383.794 517.715 385.523 517.821 385.892 517.845 386.261 517.861 387.996 517.959 388.365 517.983 388.734 517.999 390.47 518.089 390.839 518.105 391.208 518.129 392.944 518.21 393.682 518.243 395.418 518.316 396.156 518.348 397.891 518.413 398.629 518.445 400.365 518.502 401.103 518.535 402.832 518.591 403.208 518.599 403.577 518.616 405.306 518.664 405.682 518.681 406.051 518.689 407.78 518.737 408.155 518.746 408.524 518.754 410.253 518.802 410.629 518.81 410.998 518.819 412.727 518.859 413.103 518.867 413.472 518.875 415.201 518.916 415.57 518.924 415.946 518.932 417.674 518.965 418.044 518.973 418.419 518.981 420.148 519.013 420.517 519.013 420.893 519.021 422.622 519.054 422.991 519.062 423.367 519.062 425.096 519.086 425.834 519.103 427.569 519.127 427.939 519.127 428.307 519.135 430.043 519.159 430.412 519.159 430.781 519.167 432.517 519.184 432.886 519.192 433.255 519.192 434.991 519.216 435.36 519.216 435.729 519.224 437.464 519.24 438.202 519.24 439.938 519.257 440.307 519.265 440.676 519.265 442.405 519.281 442.781 519.281 443.15 519.289 444.879 519.297 445.255 519.305 445.624 519.305 447.352 519.313 447.728 519.322 448.097 519.322 449.826 519.33 450.202 519.338 450.571 519.338 452.3 519.346 452.669 519.346 453.045 519.354 454.774 519.362 455.519 519.362 457.247 519.37 457.617 519.37 457.992 519.378 459.721 519.378 460.09 519.387 460.466 519.387 462.195 519.395 462.94 519.395 464.669 519.403 465.407 519.403 467.143 519.411 467.881 519.411 469.616 519.419 470.354 519.419 472.09 519.427 474.564 519.427 474.933 519.435 477.776 519.435 479.511 519.443 481.978 519.443 482.354 519.451 486.926 519.451 487.301 519.46 492.618 519.46 494.347 519.468 500.039 519.468 501.768 519.476 509.927 519.476 511.663 519.484 526.499 519.484 526.875 519.492 561.5 519.492" stroke="#BF812D" stroke-width="3" stroke-linejoin="round" stroke-miterlimit="10" fill="none" fill-rule="evenodd"/><path d="M190 519 190.369 517.16 192.105 508.57 192.474 506.731 192.843 503.619 194.579 489.096 194.947 485.984 195.316 482.499 197.052 466.234 197.421 462.75 197.79 459.273 199.526 443.032 199.895 439.548 200.264 436.274 202 420.989 202.369 417.715 202.738 414.757 204.467 400.956 204.842 397.998 205.211 395.413 206.94 383.354 207.316 380.769 207.685 378.581 209.414 368.37 209.79 366.182 210.159 364.391 211.888 356.027 212.264 354.236 212.633 352.826 214.362 346.237 214.737 344.827 215.106 343.774 216.835 338.855 217.204 337.801 217.58 337.08 219.309 333.692 219.678 332.963 220.054 332.533 221.783 330.532 222.152 330.102 222.528 329.94 224.257 329.162 224.626 329 225.001 329.065 226.73 329.373 227.099 329.438 227.475 329.705 229.204 330.937 229.573 331.204 229.942 331.642 231.678 333.676 232.047 334.114 232.416 334.697 234.151 337.396 234.521 337.979 234.89 338.676 236.625 341.934 236.994 342.631 237.363 343.425 239.099 347.121 239.468 347.915 239.837 348.79 241.573 352.842 241.942 353.709 242.311 354.633 244.04 358.953 244.416 359.877 244.785 360.841 246.513 365.347 246.889 366.319 247.258 367.308 248.987 371.943 249.363 372.94 249.732 373.945 251.461 378.646 251.837 379.659 252.206 380.672 253.935 385.388 254.31 386.401 254.68 387.414 256.408 392.115 256.777 393.119 257.153 394.116 258.882 398.768 259.251 399.757 259.627 400.737 261.356 405.3 261.725 406.281 262.101 407.229 263.83 411.686 264.199 412.642 264.575 413.566 266.303 417.894 266.672 418.817 267.048 419.717 268.777 423.899 269.146 424.798 269.515 425.657 271.251 429.693 271.62 430.552 271.989 431.387 273.725 435.253 274.094 436.079 274.463 436.873 276.198 440.577 276.567 441.371 276.936 442.125 278.672 445.658 279.041 446.42 279.41 447.133 281.146 450.496 281.515 451.218 281.884 451.898 283.613 455.091 283.989 455.772 284.358 456.42 286.087 459.443 286.462 460.092 286.831 460.699 288.56 463.56 288.936 464.168 289.305 464.743 291.034 467.434 291.41 468.017 291.779 468.56 293.508 471.089 293.884 471.64 294.253 472.15 295.982 474.533 296.35 475.044 296.726 475.522 298.455 477.758 298.824 478.236 299.2 478.682 300.929 480.781 301.298 481.227 301.674 481.648 303.403 483.61 303.772 484.031 304.148 484.42 305.877 486.251 306.245 486.648 306.614 487.013 308.35 488.723 308.719 489.088 309.088 489.428 310.824 491.025 311.193 491.365 311.562 491.689 313.298 493.172 313.667 493.488 314.036 493.788 315.771 495.166 316.14 495.466 316.509 495.733 318.245 497.022 318.614 497.297 318.983 497.549 320.719 498.74 321.088 498.999 321.457 499.234 323.186 500.344 323.562 500.579 323.931 500.798 325.66 501.819 326.035 502.046 326.404 502.249 328.133 503.197 328.509 503.4 328.878 503.586 330.607 504.461 330.983 504.656 331.352 504.826 333.081 505.636 333.457 505.815 333.826 505.977 335.555 506.722 335.924 506.884 336.299 507.03 338.028 507.727 338.397 507.873 338.773 508.011 340.502 508.651 340.871 508.789 341.247 508.919 342.976 509.502 343.345 509.632 343.721 509.745 345.449 510.288 345.819 510.41 346.188 510.515 347.923 511.018 348.292 511.123 348.661 511.22 350.397 511.682 351.135 511.877 352.871 512.298 353.24 512.387 353.609 512.468 355.344 512.865 355.713 512.946 356.083 513.019 357.818 513.384 358.556 513.53 360.292 513.854 360.661 513.927 361.03 513.992 362.759 514.3 363.135 514.365 363.504 514.421 365.233 514.697 365.608 514.753 365.978 514.81 367.706 515.07 368.082 515.118 368.451 515.175 370.18 515.402 370.556 515.459 370.925 515.499 372.654 515.718 373.03 515.758 373.399 515.807 375.128 516.002 375.497 516.042 375.872 516.083 377.601 516.261 377.97 516.301 378.346 516.334 380.075 516.496 380.444 516.536 380.82 516.569 382.549 516.715 382.918 516.747 383.294 516.78 385.023 516.917 385.392 516.95 385.761 516.974 387.496 517.104 388.234 517.152 389.97 517.266 390.708 517.314 392.444 517.42 392.813 517.444 393.182 517.46 394.918 517.557 395.287 517.582 395.656 517.598 397.391 517.687 398.129 517.72 399.865 517.801 400.603 517.833 402.332 517.906 402.708 517.922 403.077 517.938 404.806 518.003 405.182 518.02 405.551 518.036 407.28 518.092 407.655 518.109 408.024 518.125 409.753 518.173 410.129 518.19 410.498 518.198 412.227 518.255 412.603 518.263 412.972 518.271 414.701 518.319 415.07 518.327 415.445 518.336 417.174 518.376 417.543 518.392 417.919 518.4 419.648 518.433 420.017 518.441 420.393 518.449 422.122 518.49 422.491 518.498 422.867 518.498 424.596 518.53 425.334 518.546 427.069 518.579 427.438 518.579 427.807 518.587 429.543 518.611 430.281 518.627 432.017 518.652 432.386 518.652 432.755 518.66 434.491 518.684 434.86 518.684 435.229 518.692 436.964 518.708 437.333 518.716 437.702 518.716 439.438 518.733 439.807 518.741 440.176 518.741 441.905 518.757 442.281 518.765 442.65 518.765 444.379 518.781 444.755 518.781 445.124 518.789 446.852 518.806 447.597 518.806 449.326 518.822 450.071 518.822 451.8 518.838 452.545 518.838 454.274 518.854 455.019 518.854 456.747 518.862 457.117 518.87 457.492 518.87 459.221 518.878 459.966 518.878 461.695 518.887 462.064 518.887 462.44 518.895 464.169 518.895 464.538 518.903 464.907 518.903 466.642 518.911 467.381 518.911 469.116 518.919 469.854 518.919 471.59 518.927 474.064 518.927 474.433 518.935 477.276 518.935 479.011 518.943 479.749 518.943 481.478 518.951 484.697 518.951 486.426 518.96 489.644 518.96 491.373 518.968 497.065 518.968 498.794 518.976 506.954 518.976 508.689 518.984 521.796 518.984 523.525 518.992 561 518.992 561 519Z" fill="#3690C0" fill-rule="evenodd" fill-opacity="0.501961"/><path d="M190.5 519.5 190.869 517.66 192.605 509.07 192.974 507.231 193.343 504.119 195.079 489.596 195.448 486.484 195.817 482.999 197.552 466.734 197.921 463.25 198.29 459.773 200.026 443.533 200.395 440.048 200.764 436.774 202.5 421.489 202.869 418.215 203.238 415.257 204.967 401.456 205.343 398.498 205.712 395.913 207.44 383.854 207.816 381.269 208.185 379.081 209.914 368.87 210.29 366.682 210.659 364.891 212.388 356.527 212.764 354.736 213.133 353.326 214.862 346.737 215.238 345.327 215.607 344.274 217.335 339.355 217.704 338.301 218.08 337.58 219.809 334.192 220.178 333.463 220.554 333.033 222.283 331.032 222.652 330.602 223.028 330.44 224.757 329.662 225.126 329.5 225.501 329.565 227.23 329.873 227.599 329.938 227.975 330.205 229.704 331.437 230.073 331.704 230.442 332.142 232.178 334.176 232.547 334.614 232.916 335.197 234.652 337.896 235.021 338.479 235.39 339.176 237.125 342.434 237.494 343.131 237.863 343.925 239.599 347.621 239.968 348.415 240.337 349.29 242.073 353.342 242.442 354.209 242.811 355.133 244.54 359.453 244.916 360.377 245.285 361.341 247.013 365.847 247.389 366.819 247.758 367.808 249.487 372.444 249.863 373.44 250.232 374.445 251.961 379.146 252.337 380.159 252.706 381.172 254.435 385.888 254.811 386.901 255.18 387.914 256.908 392.615 257.277 393.62 257.653 394.616 259.382 399.268 259.751 400.257 260.127 401.237 261.856 405.8 262.225 406.781 262.601 407.729 264.33 412.186 264.699 413.142 265.075 414.066 266.803 418.394 267.172 419.318 267.548 420.217 269.277 424.399 269.646 425.298 270.015 426.157 271.751 430.193 272.12 431.052 272.489 431.887 274.225 435.753 274.594 436.579 274.963 437.373 276.698 441.077 277.067 441.871 277.436 442.625 279.172 446.158 279.541 446.92 279.91 447.633 281.646 450.996 282.015 451.718 282.384 452.398 284.113 455.591 284.489 456.272 284.858 456.92 286.587 459.943 286.962 460.592 287.331 461.199 289.06 464.06 289.436 464.668 289.805 465.243 291.534 467.934 291.91 468.517 292.279 469.06 294.008 471.589 294.384 472.14 294.753 472.65 296.482 475.033 296.851 475.544 297.226 476.022 298.955 478.259 299.324 478.737 299.7 479.182 301.429 481.281 301.798 481.727 302.174 482.148 303.903 484.11 304.272 484.531 304.648 484.92 306.377 486.751 306.746 487.149 307.115 487.513 308.85 489.223 309.219 489.588 309.588 489.928 311.324 491.525 311.693 491.865 312.062 492.189 313.798 493.672 314.167 493.988 314.536 494.288 316.271 495.666 316.641 495.966 317.009 496.233 318.745 497.522 319.114 497.797 319.483 498.049 321.219 499.24 321.588 499.499 321.957 499.734 323.686 500.845 324.062 501.08 324.431 501.298 326.16 502.319 326.536 502.546 326.904 502.749 328.633 503.697 329.009 503.9 329.378 504.086 331.107 504.961 331.483 505.156 331.852 505.326 333.581 506.136 333.957 506.315 334.326 506.477 336.055 507.222 336.424 507.385 336.799 507.53 338.528 508.227 338.897 508.373 339.273 508.511 341.002 509.151 341.371 509.289 341.747 509.419 343.476 510.002 343.845 510.132 344.221 510.245 345.95 510.788 346.319 510.91 346.688 511.015 348.423 511.518 348.792 511.623 349.161 511.72 350.897 512.182 351.635 512.377 353.371 512.798 353.74 512.887 354.109 512.968 355.845 513.365 356.214 513.446 356.583 513.519 358.318 513.884 359.056 514.03 360.792 514.354 361.161 514.427 361.53 514.492 363.259 514.8 363.635 514.865 364.004 514.921 365.733 515.197 366.108 515.254 366.478 515.31 368.206 515.57 368.582 515.618 368.951 515.675 370.68 515.902 371.056 515.959 371.425 515.999 373.154 516.218 373.53 516.258 373.899 516.307 375.628 516.502 375.997 516.542 376.372 516.583 378.101 516.761 378.47 516.802 378.846 516.834 380.575 516.996 380.944 517.036 381.32 517.069 383.049 517.215 383.418 517.247 383.794 517.28 385.523 517.417 385.892 517.45 386.261 517.474 387.996 517.604 388.734 517.652 390.47 517.766 391.208 517.814 392.944 517.92 393.313 517.944 393.682 517.96 395.418 518.058 395.787 518.082 396.156 518.098 397.891 518.187 398.629 518.22 400.365 518.301 401.103 518.333 402.832 518.406 403.208 518.422 403.577 518.439 405.306 518.503 405.682 518.52 406.051 518.536 407.78 518.593 408.155 518.609 408.524 518.625 410.253 518.674 410.629 518.69 410.998 518.698 412.727 518.755 413.103 518.763 413.472 518.771 415.201 518.819 415.57 518.828 415.946 518.836 417.674 518.876 418.044 518.892 418.419 518.9 420.148 518.933 420.517 518.941 420.893 518.949 422.622 518.99 422.991 518.998 423.367 518.998 425.096 519.03 425.834 519.046 427.569 519.079 427.939 519.079 428.307 519.087 430.043 519.111 430.781 519.127 432.517 519.152 432.886 519.152 433.255 519.16 434.991 519.184 435.36 519.184 435.729 519.192 437.464 519.208 437.833 519.216 438.202 519.216 439.938 519.233 440.307 519.241 440.676 519.241 442.405 519.257 442.781 519.265 443.15 519.265 444.879 519.281 445.255 519.281 445.624 519.289 447.352 519.306 448.097 519.306 449.826 519.322 450.571 519.322 452.3 519.338 453.045 519.338 454.774 519.354 455.519 519.354 457.247 519.362 457.617 519.37 457.992 519.37 459.721 519.379 460.466 519.379 462.195 519.387 462.564 519.387 462.94 519.395 464.669 519.395 465.038 519.403 465.407 519.403 467.143 519.411 467.881 519.411 469.616 519.419 470.354 519.419 472.09 519.427 474.564 519.427 474.933 519.435 477.776 519.435 479.511 519.443 480.249 519.443 481.978 519.451 485.197 519.451 486.926 519.46 490.144 519.46 491.873 519.468 497.565 519.468 499.294 519.476 507.454 519.476 509.189 519.484 522.296 519.484 524.025 519.492 561.5 519.492" stroke="#0070C0" stroke-width="3" stroke-linejoin="round" stroke-miterlimit="10" fill="none" fill-rule="evenodd"/><path d="M190 519 190.369 517.653 192.105 511.388 192.474 510.049 192.843 507.607 194.579 496.189 194.947 493.739 195.316 490.874 197.052 477.517 197.421 474.653 197.79 471.683 199.526 457.847 199.895 454.877 200.264 451.996 202 438.542 202.369 435.661 202.738 432.967 204.467 420.421 204.842 417.727 205.211 415.301 206.94 403.965 207.316 401.538 207.685 399.404 209.414 389.447 209.79 387.313 210.159 385.487 211.888 376.975 212.264 375.149 212.633 373.632 214.362 366.564 214.737 365.046 215.106 363.837 216.835 358.165 217.204 356.948 217.58 356.022 219.309 351.681 219.678 350.748 220.054 350.082 221.783 346.966 222.152 346.301 222.528 345.879 224.257 343.891 224.626 343.469 225.001 343.266 226.73 342.292 227.099 342.089 227.475 342.073 229.204 342.016 229.573 342 229.942 342.162 231.678 342.901 232.047 343.055 232.416 343.363 234.151 344.791 234.521 345.1 234.89 345.538 236.625 347.559 236.994 347.997 237.363 348.54 239.099 351.064 239.468 351.608 239.837 352.241 241.573 355.195 241.942 355.828 242.311 356.526 244.04 359.82 244.416 360.526 244.785 361.289 246.513 364.851 246.889 365.614 247.258 366.426 248.987 370.199 249.363 371.01 249.732 371.846 251.461 375.774 251.837 376.618 252.206 377.478 253.935 381.511 254.31 382.379 254.68 383.256 256.408 387.345 256.777 388.222 257.153 389.106 258.882 393.221 259.251 394.097 259.627 394.982 261.725 399.964 262.101 400.84 263.83 404.906 264.199 405.774 264.575 406.634 266.303 410.643 266.672 411.503 267.048 412.347 268.777 416.275 269.146 417.119 269.515 417.938 271.251 421.768 271.62 422.588 271.989 423.383 273.725 427.108 274.094 427.911 274.463 428.682 276.198 432.285 276.567 433.056 276.936 433.803 278.672 437.276 279.041 438.022 279.41 438.737 281.146 442.08 281.515 442.794 281.884 443.484 283.613 446.689 283.989 447.379 284.358 448.036 286.087 451.103 286.462 451.761 286.831 452.386 288.56 455.315 288.936 455.94 289.305 456.54 291.034 459.332 291.41 459.924 291.779 460.492 293.508 463.146 293.884 463.714 294.253 464.249 295.982 466.765 296.35 467.301 296.726 467.812 298.455 470.198 298.824 470.709 299.2 471.188 300.929 473.435 301.298 473.922 301.674 474.377 303.403 476.503 303.772 476.957 304.148 477.387 305.877 479.392 306.245 479.822 306.614 480.228 308.35 482.11 308.719 482.516 309.088 482.897 310.824 484.666 311.193 485.048 311.562 485.405 313.298 487.068 313.667 487.425 314.036 487.766 315.771 489.324 316.14 489.657 316.509 489.973 318.245 491.434 318.614 491.75 318.983 492.043 320.719 493.414 321.088 493.706 321.457 493.982 323.186 495.264 323.562 495.54 323.931 495.8 325.66 496.993 326.035 497.252 326.404 497.488 328.509 498.851 328.878 499.07 330.607 500.117 330.983 500.336 331.352 500.547 333.081 501.521 333.457 501.724 333.826 501.918 335.555 502.827 335.924 503.022 336.299 503.201 338.028 504.044 338.397 504.223 338.773 504.385 340.502 505.172 340.871 505.343 341.247 505.497 342.976 506.227 343.345 506.381 343.721 506.528 345.449 507.201 345.819 507.347 346.188 507.477 347.923 508.11 348.661 508.37 350.397 508.946 350.766 509.076 351.135 509.189 352.871 509.725 353.24 509.847 353.609 509.952 355.344 510.447 356.083 510.658 357.818 511.121 358.187 511.218 358.556 511.307 360.292 511.737 361.03 511.916 362.759 512.313 363.135 512.395 363.504 512.476 365.233 512.841 365.608 512.922 365.978 512.995 367.706 513.328 368.082 513.401 368.451 513.466 370.18 513.782 370.556 513.847 370.925 513.912 372.654 514.204 373.03 514.261 373.399 514.318 375.128 514.586 375.497 514.642 375.872 514.699 377.601 514.943 377.97 514.991 378.346 515.04 380.075 515.267 380.444 515.316 380.82 515.365 382.549 515.576 382.918 515.616 383.294 515.657 385.023 515.852 385.761 515.933 387.496 516.111 387.865 516.144 388.234 516.184 389.97 516.347 390.708 516.411 392.444 516.566 392.813 516.598 393.182 516.622 394.918 516.76 395.287 516.793 395.656 516.817 397.391 516.947 397.76 516.971 398.129 517.004 399.865 517.117 400.603 517.166 402.332 517.272 402.708 517.296 403.077 517.32 404.806 517.418 405.182 517.442 405.551 517.458 407.28 517.547 407.655 517.572 408.024 517.588 409.753 517.669 410.129 517.685 410.498 517.702 412.227 517.783 412.603 517.799 412.972 517.815 414.701 517.88 415.07 517.896 415.445 517.913 417.174 517.978 417.543 517.994 417.919 518.002 419.648 518.067 420.017 518.075 420.393 518.091 422.122 518.14 422.491 518.156 422.867 518.164 424.596 518.213 424.965 518.229 425.334 518.237 427.069 518.278 427.438 518.294 427.807 518.302 429.543 518.343 430.281 518.359 432.017 518.4 432.755 518.416 434.491 518.448 435.229 518.465 436.964 518.497 437.702 518.513 439.438 518.538 440.176 518.554 441.905 518.578 442.281 518.586 442.65 518.586 444.379 518.611 444.755 518.619 445.124 518.627 446.852 518.651 447.228 518.651 447.597 518.659 449.326 518.676 449.702 518.684 450.071 518.684 451.8 518.708 452.169 518.708 452.545 518.716 454.274 518.732 454.643 518.732 455.019 518.74 456.747 518.757 457.492 518.757 459.221 518.773 459.59 518.781 459.966 518.781 461.695 518.797 462.44 518.797 464.169 518.813 464.907 518.813 466.642 518.83 467.381 518.83 469.116 518.846 469.854 518.846 471.59 518.854 471.959 518.862 472.328 518.862 474.064 518.87 474.802 518.87 476.537 518.878 476.906 518.878 477.276 518.886 479.011 518.886 479.38 518.895 479.749 518.895 481.478 518.903 482.223 518.903 483.952 518.911 484.697 518.911 486.426 518.919 487.17 518.919 488.899 518.927 491.742 518.927 492.118 518.935 494.592 518.935 496.321 518.943 499.163 518.943 499.539 518.951 503.742 518.951 504.111 518.959 509.427 518.959 511.163 518.968 516.849 518.968 518.584 518.976 526.743 518.976 528.472 518.984 541.586 518.984 543.315 518.992 561 518.992 561 519Z" fill="#C7EAE5" fill-rule="evenodd" fill-opacity="0.101961"/><path d="M190.5 519.5 190.869 518.153 192.605 511.888 192.974 510.549 193.343 508.107 195.079 496.689 195.448 494.239 195.817 491.374 197.552 478.017 197.921 475.153 198.29 472.183 200.026 458.347 200.395 455.377 200.764 452.496 202.5 439.042 202.869 436.161 203.238 433.467 204.967 420.921 205.343 418.227 205.712 415.801 207.44 404.465 207.816 402.038 208.185 399.904 209.914 389.947 210.29 387.813 210.659 385.987 212.388 377.475 212.764 375.649 213.133 374.132 214.862 367.064 215.238 365.546 215.607 364.337 217.335 358.665 217.704 357.448 218.08 356.522 219.809 352.181 220.178 351.248 220.554 350.582 222.283 347.466 222.652 346.801 223.028 346.379 224.757 344.391 225.126 343.969 225.501 343.766 227.23 342.792 227.599 342.589 227.975 342.573 229.704 342.516 230.073 342.5 230.442 342.662 232.178 343.401 232.547 343.555 232.916 343.863 234.652 345.292 235.021 345.6 235.39 346.038 237.125 348.059 237.494 348.497 237.863 349.041 239.599 351.564 239.968 352.108 240.337 352.741 242.073 355.695 242.442 356.328 242.811 357.026 244.54 360.32 244.916 361.026 245.285 361.789 247.013 365.351 247.389 366.114 247.758 366.926 249.487 370.699 249.863 371.51 250.232 372.346 251.961 376.274 252.337 377.118 252.706 377.978 254.435 382.011 254.811 382.879 255.18 383.756 256.908 387.846 257.277 388.722 257.653 389.607 259.382 393.721 259.751 394.597 260.127 395.482 262.225 400.464 262.601 401.34 264.33 405.406 264.699 406.274 265.075 407.135 266.803 411.143 267.172 412.003 267.548 412.847 269.277 416.775 269.646 417.619 270.015 418.438 271.751 422.268 272.12 423.088 272.489 423.883 274.225 427.608 274.594 428.411 274.963 429.182 276.698 432.785 277.067 433.556 277.436 434.303 279.172 437.776 279.541 438.523 279.91 439.237 281.646 442.58 282.015 443.294 282.384 443.984 284.113 447.189 284.489 447.879 284.858 448.536 286.587 451.604 286.962 452.261 287.331 452.886 289.06 455.815 289.436 456.44 289.805 457.04 291.534 459.832 291.91 460.424 292.279 460.992 294.008 463.646 294.384 464.214 294.753 464.75 296.482 467.265 296.851 467.801 297.226 468.312 298.955 470.698 299.324 471.209 299.7 471.688 301.429 473.935 301.798 474.422 302.174 474.877 303.903 477.003 304.272 477.457 304.648 477.887 306.377 479.892 306.746 480.322 307.115 480.728 308.85 482.61 309.219 483.016 309.588 483.397 311.324 485.166 311.693 485.548 312.062 485.905 313.798 487.568 314.167 487.925 314.536 488.266 316.271 489.824 316.641 490.157 317.009 490.474 318.745 491.934 319.114 492.251 319.483 492.543 321.219 493.914 321.588 494.206 321.957 494.482 323.686 495.764 324.062 496.04 324.431 496.3 326.16 497.493 326.536 497.752 326.904 497.988 329.009 499.351 329.378 499.57 331.107 500.617 331.483 500.836 331.852 501.047 333.581 502.021 333.957 502.224 334.326 502.418 336.055 503.327 336.424 503.522 336.799 503.701 338.528 504.545 338.897 504.723 339.273 504.885 341.002 505.672 341.371 505.843 341.747 505.997 343.476 506.727 343.845 506.882 344.221 507.028 345.95 507.701 346.319 507.847 346.688 507.977 348.423 508.61 349.161 508.87 350.897 509.446 351.266 509.576 351.635 509.689 353.371 510.225 353.74 510.347 354.109 510.452 355.845 510.947 356.583 511.158 358.318 511.621 358.687 511.718 359.056 511.807 360.792 512.237 361.53 512.416 363.259 512.814 363.635 512.895 364.004 512.976 365.733 513.341 366.108 513.422 366.478 513.495 368.206 513.828 368.582 513.901 368.951 513.966 370.68 514.282 371.056 514.347 371.425 514.412 373.154 514.704 373.53 514.761 373.899 514.818 375.628 515.086 375.997 515.142 376.372 515.199 378.101 515.443 378.47 515.491 378.846 515.54 380.575 515.767 380.944 515.816 381.32 515.865 383.049 516.076 383.418 516.116 383.794 516.157 385.523 516.352 386.261 516.433 387.996 516.611 388.365 516.644 388.734 516.684 390.47 516.847 391.208 516.911 392.944 517.066 393.313 517.098 393.682 517.122 395.418 517.26 395.787 517.293 396.156 517.317 397.891 517.447 398.26 517.471 398.629 517.504 400.365 517.618 401.103 517.666 402.832 517.772 403.208 517.796 403.577 517.82 405.306 517.918 405.682 517.942 406.051 517.958 407.78 518.047 408.155 518.072 408.524 518.088 410.253 518.169 410.629 518.185 410.998 518.202 412.727 518.283 413.103 518.299 413.472 518.315 415.201 518.38 415.57 518.396 415.946 518.413 417.674 518.478 418.044 518.494 418.419 518.502 420.148 518.567 420.517 518.575 420.893 518.591 422.622 518.64 422.991 518.656 423.367 518.664 425.096 518.713 425.465 518.729 425.834 518.737 427.569 518.778 427.939 518.794 428.307 518.802 430.043 518.843 430.781 518.859 432.517 518.9 433.255 518.916 434.991 518.948 435.729 518.965 437.464 518.997 438.202 519.013 439.938 519.038 440.676 519.054 442.405 519.078 442.781 519.086 443.15 519.086 444.879 519.111 445.255 519.119 445.624 519.127 447.352 519.151 447.728 519.151 448.097 519.159 449.826 519.176 450.202 519.184 450.571 519.184 452.3 519.208 452.669 519.208 453.045 519.216 454.774 519.232 455.143 519.232 455.519 519.24 457.247 519.257 457.992 519.257 459.721 519.273 460.09 519.281 460.466 519.281 462.195 519.297 462.94 519.297 464.669 519.313 465.407 519.313 467.143 519.33 467.881 519.33 469.616 519.346 470.354 519.346 472.09 519.354 472.459 519.362 472.828 519.362 474.564 519.37 475.302 519.37 477.038 519.378 477.406 519.378 477.776 519.387 479.511 519.387 479.88 519.395 480.249 519.395 481.978 519.403 482.723 519.403 484.452 519.411 485.197 519.411 486.926 519.419 487.67 519.419 489.399 519.427 492.242 519.427 492.618 519.435 495.092 519.435 496.821 519.443 499.663 519.443 500.039 519.451 504.242 519.451 504.611 519.46 509.927 519.46 511.663 519.468 517.349 519.468 519.084 519.476 527.244 519.476 528.972 519.484 542.086 519.484 543.815 519.492 561.5 519.492" stroke="#007033" stroke-width="3" stroke-linejoin="round" stroke-miterlimit="10" fill="none" fill-rule="evenodd"/><path d="M172.5 531.5 172.5 281.5" stroke="#000000" stroke-linecap="square" stroke-linejoin="round" stroke-miterlimit="10" fill="none" fill-rule="evenodd"/><path d="M182.5 519.5 172.5 519.5" stroke="#333333" stroke-linejoin="round" stroke-miterlimit="10" fill="none" fill-rule="evenodd"/><path d="M182.5 463.5 172.5 463.5" stroke="#333333" stroke-linejoin="round" stroke-miterlimit="10" fill="none" fill-rule="evenodd"/><path d="M182.5 406.5 172.5 406.5" stroke="#333333" stroke-linejoin="round" stroke-miterlimit="10" fill="none" fill-rule="evenodd"/><path d="M182.5 349.5 172.5 349.5" stroke="#333333" stroke-linejoin="round" stroke-miterlimit="10" fill="none" fill-rule="evenodd"/><path d="M182.5 292.5 172.5 292.5" stroke="#333333" stroke-linejoin="round" stroke-miterlimit="10" fill="none" fill-rule="evenodd"/><path d="M172.5 531.5 580.5 531.5" stroke="#000000" stroke-linecap="square" stroke-linejoin="round" stroke-miterlimit="10" fill="none" fill-rule="evenodd"/><path d="M190.5 519.5 190.5 531.5" stroke="#333333" stroke-linejoin="round" stroke-miterlimit="10" fill="none" fill-rule="evenodd"/><path d="M314.5 519.5 314.5 531.5" stroke="#333333" stroke-linejoin="round" stroke-miterlimit="10" fill="none" fill-rule="evenodd"/><path d="M437.5 519.5 437.5 531.5" stroke="#333333" stroke-linejoin="round" stroke-miterlimit="10" fill="none" fill-rule="evenodd"/><path d="M561.5 519.5 561.5 531.5" stroke="#333333" stroke-linejoin="round" stroke-miterlimit="10" fill="none" fill-rule="evenodd"/><text fill="#4B5E68" font-family="Arial,Arial_MSFontService,sans-serif" font-weight="700" font-size="24" transform="translate(179.599 272)">Shedding onset distribution</text><text fill="#4B5E68" font-family="Arial,Arial_MSFontService,sans-serif" font-weight="400" font-size="19" transform="translate(709.827 404)">150</text><text fill="#4B5E68" font-family="Arial,Arial_MSFontService,sans-serif" font-weight="400" font-size="19" transform="translate(719.817 482)">50</text><text fill="#4B5E68" font-family="Arial,Arial_MSFontService,sans-serif" font-weight="400" font-size="21" transform="matrix(-1.83697e-16 -1 1 -1.83697e-16 694.745 508)">Shedding amount</text><text fill="#4B5E68" font-family="Arial,Arial_MSFontService,sans-serif" font-weight="400" font-size="19" transform="translate(855.808 561)">5</text><text fill="#4B5E68" font-family="Arial,Arial_MSFontService,sans-serif" font-weight="400" font-size="19" transform="translate(949.678 561)">10</text><text fill="#4B5E68" font-family="Arial,Arial_MSFontService,sans-serif" font-weight="400" font-size="19" transform="translate(1047.78 561)">15</text><text fill="#4B5E68" font-family="Arial,Arial_MSFontService,sans-serif" font-weight="400" font-size="19" transform="translate(1143.58 561)">20</text><text fill="#4B5E68" font-family="Arial,Arial_MSFontService,sans-serif" font-weight="400" font-size="21" transform="translate(834.071 592)">Days since shedding onset</text><path d="M745 531 1176 531 1176 298 745 298Z" fill="#FFFFFF" fill-rule="evenodd"/><path d="M745.5 499.5 1176.5 499.5" stroke="#EBEBEB" stroke-width="0.710656" stroke-linejoin="round" stroke-miterlimit="10" fill="none" fill-rule="evenodd"/><path d="M745.5 457.5 1176.5 457.5" stroke="#EBEBEB" stroke-width="0.710656" stroke-linejoin="round" stroke-miterlimit="10" fill="none" fill-rule="evenodd"/><path d="M745.5 414.5 1176.5 414.5" stroke="#EBEBEB" stroke-width="0.710656" stroke-linejoin="round" stroke-miterlimit="10" fill="none" fill-rule="evenodd"/><path d="M745.5 372.5 1176.5 372.5" stroke="#EBEBEB" stroke-width="0.710656" stroke-linejoin="round" stroke-miterlimit="10" fill="none" fill-rule="evenodd"/><path d="M745.5 330.5 1176.5 330.5" stroke="#EBEBEB" stroke-width="0.710656" stroke-linejoin="round" stroke-miterlimit="10" fill="none" fill-rule="evenodd"/><path d="M814.5 531.5 814.5 298.5" stroke="#EBEBEB" stroke-width="0.710656" stroke-linejoin="round" stroke-miterlimit="10" fill="none" fill-rule="evenodd"/><path d="M912.5 531.5 912.5 298.5" stroke="#EBEBEB" stroke-width="0.710656" stroke-linejoin="round" stroke-miterlimit="10" fill="none" fill-rule="evenodd"/><path d="M1009.5 531.5 1009.5 298.5" stroke="#EBEBEB" stroke-width="0.710656" stroke-linejoin="round" stroke-miterlimit="10" fill="none" fill-rule="evenodd"/><path d="M1107.5 531.5 1107.5 298.5" stroke="#EBEBEB" stroke-width="0.710656" stroke-linejoin="round" stroke-miterlimit="10" fill="none" fill-rule="evenodd"/><path d="M745.5 520.5 1176.5 520.5" stroke="#EBEBEB" stroke-width="1.42131" stroke-linejoin="round" stroke-miterlimit="10" fill="none" fill-rule="evenodd"/><path d="M745.5 478.5 1176.5 478.5" stroke="#EBEBEB" stroke-width="1.42131" stroke-linejoin="round" stroke-miterlimit="10" fill="none" fill-rule="evenodd"/><path d="M745.5 436.5 1176.5 436.5" stroke="#EBEBEB" stroke-width="1.42131" stroke-linejoin="round" stroke-miterlimit="10" fill="none" fill-rule="evenodd"/><path d="M745.5 393.5 1176.5 393.5" stroke="#EBEBEB" stroke-width="1.42131" stroke-linejoin="round" stroke-miterlimit="10" fill="none" fill-rule="evenodd"/><path d="M745.5 351.5 1176.5 351.5" stroke="#EBEBEB" stroke-width="1.42131" stroke-linejoin="round" stroke-miterlimit="10" fill="none" fill-rule="evenodd"/><path d="M745.5 309.5 1176.5 309.5" stroke="#EBEBEB" stroke-width="1.42131" stroke-linejoin="round" stroke-miterlimit="10" fill="none" fill-rule="evenodd"/><path d="M765.5 531.5 765.5 298.5" stroke="#EBEBEB" stroke-width="1.42131" stroke-linejoin="round" stroke-miterlimit="10" fill="none" fill-rule="evenodd"/><path d="M863.5 531.5 863.5 298.5" stroke="#EBEBEB" stroke-width="1.42131" stroke-linejoin="round" stroke-miterlimit="10" fill="none" fill-rule="evenodd"/><path d="M961.5 531.5 961.5 298.5" stroke="#EBEBEB" stroke-width="1.42131" stroke-linejoin="round" stroke-miterlimit="10" fill="none" fill-rule="evenodd"/><path d="M1058.5 531.5 1058.5 298.5" stroke="#EBEBEB" stroke-width="1.42131" stroke-linejoin="round" stroke-miterlimit="10" fill="none" fill-rule="evenodd"/><path d="M1156.5 531.5 1156.5 298.5" stroke="#EBEBEB" stroke-width="1.42131" stroke-linejoin="round" stroke-miterlimit="10" fill="none" fill-rule="evenodd"/><path d="M775.5 520.5 781.5 520.5 781.5 366.5 775.5 366.5Z" stroke="#BF812D" stroke-width="1.42131" stroke-miterlimit="8" fill="#FEC44F" fill-rule="evenodd"/><path d="M795.5 520.5 801.5 520.5 801.5 417.5 795.5 417.5Z" stroke="#BF812D" stroke-width="1.42131" stroke-miterlimit="8" fill="#FEC44F" fill-rule="evenodd"/><path d="M814.5 520.5 820.5 520.5 820.5 451.5 814.5 451.5Z" stroke="#BF812D" stroke-width="1.42131" stroke-miterlimit="8" fill="#FEC44F" fill-rule="evenodd"/><path d="M834.5 520.5 840.5 520.5 840.5 474.5 834.5 474.5Z" stroke="#BF812D" stroke-width="1.42131" stroke-miterlimit="8" fill="#FEC44F" fill-rule="evenodd"/><path d="M853.5 520.5 859.5 520.5 859.5 489.5 853.5 489.5Z" stroke="#BF812D" stroke-width="1.42131" stroke-miterlimit="8" fill="#FEC44F" fill-rule="evenodd"/><path d="M873.5 520.5 879.5 520.5 879.5 499.5 873.5 499.5Z" stroke="#BF812D" stroke-width="1.42131" stroke-miterlimit="8" fill="#FEC44F" fill-rule="evenodd"/><path d="M892.5 520.5 898.5 520.5 898.5 506.5 892.5 506.5Z" stroke="#BF812D" stroke-width="1.42131" stroke-miterlimit="8" fill="#FEC44F" fill-rule="evenodd"/><path d="M912.5 520.5 918.5 520.5 918.5 511.5 912.5 511.5Z" stroke="#BF812D" stroke-width="1.42131" stroke-miterlimit="8" fill="#FEC44F" fill-rule="evenodd"/><path d="M932.5 520.5 937.5 520.5 937.5 514.5 932.5 514.5Z" stroke="#BF812D" stroke-width="1.42131" stroke-miterlimit="8" fill="#FEC44F" fill-rule="evenodd"/><path d="M951.5 520.5 957.5 520.5 957.5 516.5 951.5 516.5Z" stroke="#BF812D" stroke-width="1.42131" stroke-miterlimit="8" fill="#FEC44F" fill-rule="evenodd"/><path d="M971.5 520.5 977.5 520.5 977.5 517.5 971.5 517.5Z" stroke="#BF812D" stroke-width="1.42131" stroke-miterlimit="8" fill="#FEC44F" fill-rule="evenodd"/><path d="M990.5 520.5 996.5 520.5 996.5 518.5 990.5 518.5Z" stroke="#BF812D" stroke-width="1.42131" stroke-miterlimit="8" fill="#FEC44F" fill-rule="evenodd"/><path d="M1010.5 520.5 1016.5 520.5 1016.5 519.5 1010.5 519.5Z" stroke="#BF812D" stroke-width="1.42131" stroke-miterlimit="8" fill="#FEC44F" fill-rule="evenodd"/><path d="M1029.5 520.5 1035.5 520.5 1035.5 519.5 1029.5 519.5Z" stroke="#BF812D" stroke-width="1.42131" stroke-miterlimit="8" fill="#FEC44F" fill-rule="evenodd"/><path d="M1049.5 520.5 1055.5 520.5 1055.5 519.5 1049.5 519.5Z" stroke="#BF812D" stroke-width="1.42131" stroke-miterlimit="8" fill="#FEC44F" fill-rule="evenodd"/><path d="M1068.5 521.5 1074.5 521.5 1074.5 520.5 1068.5 520.5Z" stroke="#BF812D" stroke-width="1.42131" stroke-miterlimit="8" fill="#FEC44F" fill-rule="evenodd"/><path d="M1088.5 521.501 1094.5 521.501 1094.5 520.5 1088.5 520.5Z" stroke="#BF812D" stroke-width="1.42131" stroke-miterlimit="8" fill="#FEC44F" fill-rule="evenodd"/><path d="M1108.5 521.501 1113.5 521.501 1113.5 520.5 1108.5 520.5Z" stroke="#BF812D" stroke-width="1.42131" stroke-miterlimit="8" fill="#FEC44F" fill-rule="evenodd"/><path d="M1127.5 521.5 1133.5 521.5 1133.5 520.5 1127.5 520.5Z" stroke="#BF812D" stroke-width="1.42131" stroke-miterlimit="8" fill="#FEC44F" fill-rule="evenodd"/><path d="M1147.5 521.502 1153.5 521.502 1153.5 520.5 1147.5 520.5Z" stroke="#BF812D" stroke-width="1.42131" stroke-miterlimit="8" fill="#FEC44F" fill-rule="evenodd"/><path d="M782.5 520.5 787.5 520.5 787.5 356.5 782.5 356.5Z" stroke="#045A8D" stroke-width="1.42131" stroke-miterlimit="8" fill="#3690C0" fill-rule="evenodd"/><path d="M801.5 520.5 807.5 520.5 807.5 409.5 801.5 409.5Z" stroke="#045A8D" stroke-width="1.42131" stroke-miterlimit="8" fill="#3690C0" fill-rule="evenodd"/><path d="M821.5 520.5 827.5 520.5 827.5 444.5 821.5 444.5Z" stroke="#045A8D" stroke-width="1.42131" stroke-miterlimit="8" fill="#3690C0" fill-rule="evenodd"/><path d="M840.5 520.5 846.5 520.5 846.5 469.5 840.5 469.5Z" stroke="#045A8D" stroke-width="1.42131" stroke-miterlimit="8" fill="#3690C0" fill-rule="evenodd"/><path d="M860.5 520.5 866.5 520.5 866.5 485.5 860.5 485.5Z" stroke="#045A8D" stroke-width="1.42131" stroke-miterlimit="8" fill="#3690C0" fill-rule="evenodd"/><path d="M879.5 520.5 885.5 520.5 885.5 496.5 879.5 496.5Z" stroke="#045A8D" stroke-width="1.42131" stroke-miterlimit="8" fill="#3690C0" fill-rule="evenodd"/><path d="M899.5 520.5 905.5 520.5 905.5 504.5 899.5 504.5Z" stroke="#045A8D" stroke-width="1.42131" stroke-miterlimit="8" fill="#3690C0" fill-rule="evenodd"/><path d="M919.5 520.5 924.5 520.5 924.5 509.5 919.5 509.5Z" stroke="#045A8D" stroke-width="1.42131" stroke-miterlimit="8" fill="#3690C0" fill-rule="evenodd"/><path d="M938.5 520.5 944.5 520.5 944.5 513.5 938.5 513.5Z" stroke="#045A8D" stroke-width="1.42131" stroke-miterlimit="8" fill="#3690C0" fill-rule="evenodd"/><path d="M958.5 520.5 963.5 520.5 963.5 515.5 958.5 515.5Z" stroke="#045A8D" stroke-width="1.42131" stroke-miterlimit="8" fill="#3690C0" fill-rule="evenodd"/><path d="M977.5 520.5 983.5 520.5 983.5 517.5 977.5 517.5Z" stroke="#045A8D" stroke-width="1.42131" stroke-miterlimit="8" fill="#3690C0" fill-rule="evenodd"/><path d="M997.5 520.5 1003.5 520.5 1003.5 518.5 997.5 518.5Z" stroke="#045A8D" stroke-width="1.42131" stroke-miterlimit="8" fill="#3690C0" fill-rule="evenodd"/><path d="M1016.5 520.5 1022.5 520.5 1022.5 518.5 1016.5 518.5Z" stroke="#045A8D" stroke-width="1.42131" stroke-miterlimit="8" fill="#3690C0" fill-rule="evenodd"/><path d="M1036.5 520.5 1042.5 520.5 1042.5 519.5 1036.5 519.5Z" stroke="#045A8D" stroke-width="1.42131" stroke-miterlimit="8" fill="#3690C0" fill-rule="evenodd"/><path d="M1055.5 520.5 1061.5 520.5 1061.5 519.5 1055.5 519.5Z" stroke="#045A8D" stroke-width="1.42131" stroke-miterlimit="8" fill="#3690C0" fill-rule="evenodd"/><path d="M1075.5 521.5 1081.5 521.5 1081.5 520.5 1075.5 520.5Z" stroke="#045A8D" stroke-width="1.42131" stroke-miterlimit="8" fill="#3690C0" fill-rule="evenodd"/><path d="M1095.5 521.5 1100.5 521.5 1100.5 520.5 1095.5 520.5Z" stroke="#045A8D" stroke-width="1.42131" stroke-miterlimit="8" fill="#3690C0" fill-rule="evenodd"/><path d="M1114.5 521.5 1120.5 521.5 1120.5 520.5 1114.5 520.5Z" stroke="#045A8D" stroke-width="1.42131" stroke-miterlimit="8" fill="#3690C0" fill-rule="evenodd"/><path d="M1134.5 521.501 1139.5 521.501 1139.5 520.5 1134.5 520.5Z" stroke="#045A8D" stroke-width="1.42131" stroke-miterlimit="8" fill="#3690C0" fill-rule="evenodd"/><path d="M788.5 520.5 794.5 520.5 794.5 363.5 788.5 363.5Z" stroke="#35978F" stroke-width="1.42131" stroke-miterlimit="8" fill="#C7EAE5" fill-rule="evenodd"/><path d="M808.5 520.5 814.5 520.5 814.5 411.5 808.5 411.5Z" stroke="#35978F" stroke-width="1.42131" stroke-miterlimit="8" fill="#C7EAE5" fill-rule="evenodd"/><path d="M827.5 520.5 833.5 520.5 833.5 444.5 827.5 444.5Z" stroke="#35978F" stroke-width="1.42131" stroke-miterlimit="8" fill="#C7EAE5" fill-rule="evenodd"/><path d="M847.5 520.5 853.5 520.5 853.5 467.5 847.5 467.5Z" stroke="#35978F" stroke-width="1.42131" stroke-miterlimit="8" fill="#C7EAE5" fill-rule="evenodd"/><path d="M866.5 520.5 872.5 520.5 872.5 483.5 866.5 483.5Z" stroke="#35978F" stroke-width="1.42131" stroke-miterlimit="8" fill="#C7EAE5" fill-rule="evenodd"/><path d="M886.5 520.5 892.5 520.5 892.5 495.5 886.5 495.5Z" stroke="#35978F" stroke-width="1.42131" stroke-miterlimit="8" fill="#C7EAE5" fill-rule="evenodd"/><path d="M905.5 520.5 911.5 520.5 911.5 502.5 905.5 502.5Z" stroke="#35978F" stroke-width="1.42131" stroke-miterlimit="8" fill="#C7EAE5" fill-rule="evenodd"/><path d="M925.5 520.5 931.5 520.5 931.5 508.5 925.5 508.5Z" stroke="#35978F" stroke-width="1.42131" stroke-miterlimit="8" fill="#C7EAE5" fill-rule="evenodd"/><path d="M945.5 520.5 950.5 520.5 950.5 511.5 945.5 511.5Z" stroke="#35978F" stroke-width="1.42131" stroke-miterlimit="8" fill="#C7EAE5" fill-rule="evenodd"/><path d="M964.5 520.5 970.5 520.5 970.5 514.5 964.5 514.5Z" stroke="#35978F" stroke-width="1.42131" stroke-miterlimit="8" fill="#C7EAE5" fill-rule="evenodd"/><path d="M984.5 520.5 990.5 520.5 990.5 516.5 984.5 516.5Z" stroke="#35978F" stroke-width="1.42131" stroke-miterlimit="8" fill="#C7EAE5" fill-rule="evenodd"/><path d="M1003.5 520.5 1009.5 520.5 1009.5 517.5 1003.5 517.5Z" stroke="#35978F" stroke-width="1.42131" stroke-miterlimit="8" fill="#C7EAE5" fill-rule="evenodd"/><path d="M1023.5 520.5 1029.5 520.5 1029.5 518.5 1023.5 518.5Z" stroke="#35978F" stroke-width="1.42131" stroke-miterlimit="8" fill="#C7EAE5" fill-rule="evenodd"/><path d="M1042.5 520.5 1048.5 520.5 1048.5 519.5 1042.5 519.5Z" stroke="#35978F" stroke-width="1.42131" stroke-miterlimit="8" fill="#C7EAE5" fill-rule="evenodd"/><path d="M1062.5 520.5 1068.5 520.5 1068.5 519.5 1062.5 519.5Z" stroke="#35978F" stroke-width="1.42131" stroke-miterlimit="8" fill="#C7EAE5" fill-rule="evenodd"/><path d="M1081.5 520.5 1087.5 520.5 1087.5 519.5 1081.5 519.5Z" stroke="#35978F" stroke-width="1.42131" stroke-miterlimit="8" fill="#C7EAE5" fill-rule="evenodd"/><path d="M1101.5 521.5 1107.5 521.5 1107.5 520.5 1101.5 520.5Z" stroke="#35978F" stroke-width="1.42131" stroke-miterlimit="8" fill="#C7EAE5" fill-rule="evenodd"/><path d="M1121.5 521.501 1126.5 521.501 1126.5 520.5 1121.5 520.5Z" stroke="#35978F" stroke-width="1.42131" stroke-miterlimit="8" fill="#C7EAE5" fill-rule="evenodd"/><path d="M1140.5 521.501 1146.5 521.501 1146.5 520.5 1140.5 520.5Z" stroke="#35978F" stroke-width="1.42131" stroke-miterlimit="8" fill="#C7EAE5" fill-rule="evenodd"/><path d="M745.5 531.5 745.5 298.5" stroke="#000000" stroke-linecap="square" stroke-linejoin="round" stroke-miterlimit="10" fill="none" fill-rule="evenodd"/><path d="M756.5 520.5 745.5 520.5" stroke="#333333" stroke-linejoin="round" stroke-miterlimit="10" fill="none" fill-rule="evenodd"/><path d="M756.5 478.5 745.5 478.5" stroke="#333333" stroke-linejoin="round" stroke-miterlimit="10" fill="none" fill-rule="evenodd"/><path d="M756.5 436.5 745.5 436.5" stroke="#333333" stroke-linejoin="round" stroke-miterlimit="10" fill="none" fill-rule="evenodd"/><path d="M756.5 393.5 745.5 393.5" stroke="#333333" stroke-linejoin="round" stroke-miterlimit="10" fill="none" fill-rule="evenodd"/><path d="M756.5 351.5 745.5 351.5" stroke="#333333" stroke-linejoin="round" stroke-miterlimit="10" fill="none" fill-rule="evenodd"/><path d="M756.5 309.5 745.5 309.5" stroke="#333333" stroke-linejoin="round" stroke-miterlimit="10" fill="none" fill-rule="evenodd"/><path d="M745.5 531.5 1176.5 531.5" stroke="#000000" stroke-linecap="square" stroke-linejoin="round" stroke-miterlimit="10" fill="none" fill-rule="evenodd"/><path d="M765.5 520.5 765.5 531.5" stroke="#333333" stroke-linejoin="round" stroke-miterlimit="10" fill="none" fill-rule="evenodd"/><path d="M863.5 520.5 863.5 531.5" stroke="#333333" stroke-linejoin="round" stroke-miterlimit="10" fill="none" fill-rule="evenodd"/><path d="M961.5 520.5 961.5 531.5" stroke="#333333" stroke-linejoin="round" stroke-miterlimit="10" fill="none" fill-rule="evenodd"/><path d="M1058.5 520.5 1058.5 531.5" stroke="#333333" stroke-linejoin="round" stroke-miterlimit="10" fill="none" fill-rule="evenodd"/><path d="M1156.5 520.5 1156.5 531.5" stroke="#333333" stroke-linejoin="round" stroke-miterlimit="10" fill="none" fill-rule="evenodd"/><text fill="#4B5E68" font-family="Arial,Arial_MSFontService,sans-serif" font-weight="700" font-size="24" transform="translate(755.166 280)">Shedding load dynamics</text><path d="M303.5 201.5 342.844 201.5" stroke="#C8A314" stroke-width="3" stroke-miterlimit="8" fill="none" fill-rule="evenodd"/><text fill="#4B5E68" font-family="Arial,Arial_MSFontService,sans-serif" font-weight="400" font-size="21" transform="translate(357.94 207)">True</text><path d="M452.5 201.5 491.844 201.5" stroke="#264980" stroke-width="3" stroke-miterlimit="8" fill="none" fill-rule="evenodd"/><text fill="#4B5E68" font-family="Arial,Arial_MSFontService,sans-serif" font-weight="400" font-size="21" transform="translate(506.855 203)">Estimated</text><text fill="#4B5E68" font-family="Arial,Arial_MSFontService,sans-serif" font-weight="400" font-size="21" transform="translate(506.855 228)">(Daily clinical data )</text><path d="M714.5 194.5 753.844 194.5" stroke="#00B050" stroke-width="3" stroke-miterlimit="8" fill="none" fill-rule="evenodd"/><text fill="#4B5E68" font-family="Arial,Arial_MSFontService,sans-serif" font-weight="400" font-size="21" transform="translate(770.012 205)">Estimated</text><text fill="#4B5E68" font-family="Arial,Arial_MSFontService,sans-serif" font-weight="400" font-size="21" transform="translate(770.012 230)">(Weekly aggregated clinical data)</text><text fill="#4B5E68" font-family="Arial,Arial_MSFontService,sans-serif" font-weight="400" font-size="24" transform="translate(147.746 679)">The median estimate of each parameter across 30 simulation runs was</text><text fill="#4B5E68" font-family="Arial,Arial_MSFontService,sans-serif" font-weight="400" font-size="24" transform="translate(907.746 679)">use</text><text fill="#4B5E68" font-family="Arial,Arial_MSFontService,sans-serif" font-weight="400" font-size="24" transform="translate(946.412 679)">d</text><text fill="#4B5E68" font-family="Arial,Arial_MSFontService,sans-serif" font-weight="400" font-size="24" transform="translate(966.412 679)">to create figures.</text></g></svg>