<svg width="1282" height="725" xmlns="http://www.w3.org/2000/svg" xmlns:xlink="http://www.w3.org/1999/xlink" overflow="hidden"><g transform="translate(1 3)"><rect x="0" y="0" width="1280" height="720" fill="#FFFFFF"/><text fill="#4B5E68" font-family="Arial,Arial_MSFontService,sans-serif" font-weight="700" font-size="32" transform="translate(360.75 81)">P</text><text fill="#4B5E68" font-family="Arial,Arial_MSFontService,sans-serif" font-weight="700" font-size="32" transform="translate(382.083 81)">erformance of real</text><text fill="#4B5E68" font-family="Arial,Arial_MSFontService,sans-serif" font-weight="700" font-size="32" transform="translate(661.417 81)">-</text><text fill="#4B5E68" font-family="Arial,Arial_MSFontService,sans-serif" font-weight="700" font-size="32" transform="translate(672.083 81)">time forecasting</text><rect x="0.500053" y="-1.50005" width="1280" height="37.0001" stroke="#7F7F7F" stroke-width="1.33333" stroke-miterlimit="8" fill="#D9D9D9"/><text fill="#4B5E68" font-family="Arial,Arial_MSFontService,sans-serif" font-weight="700" font-size="21" transform="translate(535.667 25)">Supplementary slide</text><path d="M107.5 238.5 1158.21 238.5" stroke="#4B5E68" stroke-miterlimit="8" stroke-dasharray="8 3" fill="none" fill-rule="evenodd"/><path d="M0 0 616.871 359.501" stroke="#4B5E68" stroke-width="3" stroke-miterlimit="8" stroke-dasharray="12 9" fill="none" fill-rule="evenodd" transform="matrix(1 0 0 -1 362.5 630.001)"/><g><path d="M360.5 581.5 985.5 581.5M360.5 528.5 985.5 528.5M360.5 475.5 985.5 475.5M360.5 422.5 985.5 422.5M360.5 369.5 985.5 369.5M360.5 315.5 985.5 315.5M360.5 262.5 985.5 262.5" stroke="#D9D9D9" stroke-linejoin="round" stroke-miterlimit="10" fill="none"/></g><g><path d="M449.5 262.5 449.5 635.5M538.5 262.5 538.5 635.5M628.5 262.5 628.5 635.5M717.5 262.5 717.5 635.5M806.5 262.5 806.5 635.5M895.5 262.5 895.5 635.5M985.5 262.5 985.5 635.5" stroke="#D9D9D9" stroke-linejoin="round" stroke-miterlimit="10" fill="none"/></g><g><path d="M0 0 0.000104987 373" stroke="#000000" stroke-linejoin="round" stroke-miterlimit="10" fill="none" fill-rule="evenodd" transform="matrix(1 0 0 -1 360.5 635.5)"/></g><g><path d="M360.5 635.5 366.5 635.5M360.5 581.5 366.5 581.5M360.5 528.5 366.5 528.5M360.5 475.5 366.5 475.5M360.5 422.5 366.5 422.5M360.5 369.5 366.5 369.5M360.5 315.5 366.5 315.5M360.5 262.5 366.5 262.5" stroke="#000000" stroke-linejoin="round" stroke-miterlimit="10" fill="none"/></g><g><path d="M360.5 635.5 985.5 635.5" stroke="#000000" stroke-linejoin="round" stroke-miterlimit="10" fill="none" fill-rule="evenodd"/></g><g><path d="M360.5 629.5 360.5 635.5M449.5 629.5 449.5 635.5M538.5 629.5 538.5 635.5M628.5 629.5 628.5 635.5M717.5 629.5 717.5 635.5M806.5 629.5 806.5 635.5M895.5 629.5 895.5 635.5M985.5 629.5 985.5 635.5" stroke="#000000" stroke-linejoin="round" stroke-miterlimit="10" fill="none"/></g><g><path d="M480.885 573.593C480.885 577.643 477.602 580.926 473.552 580.926 469.501 580.926 466.218 577.643 466.218 573.593 466.218 569.543 469.501 566.26 473.552 566.26 477.602 566.26 480.885 569.543 480.885 573.593Z" stroke="#E46C0A" stroke-linejoin="round" stroke-miterlimit="10" fill="#FDEADA"/><path d="M479.385 575.926C479.385 579.976 476.102 583.26 472.052 583.26 468.002 583.26 464.718 579.976 464.718 575.926 464.718 571.876 468.002 568.593 472.052 568.593 476.102 568.593 479.385 571.876 479.385 575.926Z" stroke="#E46C0A" stroke-linejoin="round" stroke-miterlimit="10" fill="#FDEADA"/><path d="M528.385 537.593C528.385 541.643 525.102 544.926 521.052 544.926 517.002 544.926 513.718 541.643 513.718 537.593 513.718 533.543 517.002 530.26 521.052 530.26 525.102 530.26 528.385 533.543 528.385 537.593Z" stroke="#E46C0A" stroke-linejoin="round" stroke-miterlimit="10" fill="#FDEADA"/><path d="M733.052 295.593C733.052 299.643 729.768 302.926 725.718 302.926 721.668 302.926 718.385 299.643 718.385 295.593 718.385 291.543 721.668 288.26 725.718 288.26 729.768 288.26 733.052 291.543 733.052 295.593Z" stroke="#E46C0A" stroke-linejoin="round" stroke-miterlimit="10" fill="#FDEADA"/><path d="M432.718 607.26C432.718 611.31 429.435 614.593 425.385 614.593 421.335 614.593 418.052 611.31 418.052 607.26 418.052 603.209 421.335 599.926 425.385 599.926 429.435 599.926 432.718 603.209 432.718 607.26Z" stroke="#E46C0A" stroke-linejoin="round" stroke-miterlimit="10" fill="#FDEADA"/><path d="M676.218 401.593C676.218 405.643 672.935 408.926 668.885 408.926 664.835 408.926 661.552 405.643 661.552 401.593 661.552 397.543 664.835 394.26 668.885 394.26 672.935 394.26 676.218 397.543 676.218 401.593Z" stroke="#E46C0A" stroke-linejoin="round" stroke-miterlimit="10" fill="#FDEADA"/><path d="M636.552 385.759C636.552 389.81 633.268 393.093 629.218 393.093 625.168 393.093 621.885 389.81 621.885 385.759 621.885 381.709 625.168 378.426 629.218 378.426 633.268 378.426 636.552 381.709 636.552 385.759Z" stroke="#E46C0A" stroke-linejoin="round" stroke-miterlimit="10" fill="#FDEADA"/></g><g><path d="M590.885 543.26C590.885 547.31 587.602 550.593 583.552 550.593 579.502 550.593 576.218 547.31 576.218 543.26 576.218 539.209 579.502 535.926 583.552 535.926 587.602 535.926 590.885 539.209 590.885 543.26Z" stroke="#31859C" stroke-linejoin="round" stroke-miterlimit="10" fill="#B7DEE8"/><path d="M628.718 531.093C628.718 535.143 625.435 538.426 621.385 538.426 617.335 538.426 614.052 535.143 614.052 531.093 614.052 527.043 617.335 523.759 621.385 523.759 625.435 523.759 628.718 527.043 628.718 531.093Z" stroke="#31859C" stroke-linejoin="round" stroke-miterlimit="10" fill="#B7DEE8"/><path d="M561.718 569.093C561.718 573.143 558.435 576.426 554.385 576.426 550.335 576.426 547.052 573.143 547.052 569.093 547.052 565.043 550.335 561.759 554.385 561.759 558.435 561.759 561.718 565.043 561.718 569.093Z" stroke="#31859C" stroke-linejoin="round" stroke-miterlimit="10" fill="#B7DEE8"/><path d="M595.552 548.093C595.552 552.143 592.268 555.426 588.218 555.426 584.168 555.426 580.885 552.143 580.885 548.093 580.885 544.043 584.168 540.759 588.218 540.759 592.268 540.759 595.552 544.043 595.552 548.093Z" stroke="#31859C" stroke-linejoin="round" stroke-miterlimit="10" fill="#B7DEE8"/><path d="M609.885 519.093C609.885 523.143 606.602 526.426 602.552 526.426 598.502 526.426 595.218 523.143 595.218 519.093 595.218 515.043 598.502 511.759 602.552 511.759 606.602 511.759 609.885 515.043 609.885 519.093Z" stroke="#31859C" stroke-linejoin="round" stroke-miterlimit="10" fill="#B7DEE8"/><path d="M653.385 521.426C653.385 525.476 650.102 528.76 646.052 528.76 642.002 528.76 638.718 525.476 638.718 521.426 638.718 517.376 642.002 514.093 646.052 514.093 650.102 514.093 653.385 517.376 653.385 521.426Z" stroke="#31859C" stroke-linejoin="round" stroke-miterlimit="10" fill="#B7DEE8"/></g><g><text font-family="Arial,Arial_MSFontService,sans-serif" font-weight="400" font-size="21" transform="translate(330.254 642)">0</text></g><g><text font-family="Arial,Arial_MSFontService,sans-serif" font-weight="400" font-size="21" transform="translate(270.921 588)">100000</text></g><g><text font-family="Arial,Arial_MSFontService,sans-serif" font-weight="400" font-size="21" transform="translate(270.921 535)">200000</text></g><g><text font-family="Arial,Arial_MSFontService,sans-serif" font-weight="400" font-size="21" transform="translate(270.921 482)">300000</text></g><g><text font-family="Arial,Arial_MSFontService,sans-serif" font-weight="400" font-size="21" transform="translate(270.921 429)">400000</text></g><g><text font-family="Arial,Arial_MSFontService,sans-serif" font-weight="400" font-size="21" transform="translate(270.921 376)">500000</text></g><g><text font-family="Arial,Arial_MSFontService,sans-serif" font-weight="400" font-size="21" transform="translate(270.921 322)">600000</text></g><g><text font-family="Arial,Arial_MSFontService,sans-serif" font-weight="400" font-size="21" transform="translate(270.921 269)">700000</text></g><g><text font-family="Arial,Arial_MSFontService,sans-serif" font-weight="400" font-size="19" transform="translate(355.285 663)">0</text></g><g><text font-family="Arial,Arial_MSFontService,sans-serif" font-weight="400" font-size="19" transform="translate(418.569 663)">100000</text></g><g><text font-family="Arial,Arial_MSFontService,sans-serif" font-weight="400" font-size="19" transform="translate(507.803 663)">200000</text></g><g><text font-family="Arial,Arial_MSFontService,sans-serif" font-weight="400" font-size="19" transform="translate(597.036 663)">300000</text></g><g><text font-family="Arial,Arial_MSFontService,sans-serif" font-weight="400" font-size="19" transform="translate(686.27 663)">400000</text></g><g><text font-family="Arial,Arial_MSFontService,sans-serif" font-weight="400" font-size="19" transform="translate(775.504 663)">500000</text></g><g><text font-family="Arial,Arial_MSFontService,sans-serif" font-weight="400" font-size="19" transform="translate(864.737 663)">600000</text></g><g><text font-family="Arial,Arial_MSFontService,sans-serif" font-weight="400" font-size="19" transform="translate(953.971 663)">700000</text></g><text fill="#4B5E68" font-family="Arial,Arial_MSFontService,sans-serif" font-weight="400" font-size="24" transform="translate(505.048 701)">Forecasts based on</text><text fill="#31859C" font-family="Arial,Arial_MSFontService,sans-serif" font-weight="400" font-size="24" transform="translate(722.381 701)">smoothing</text><text fill="#4B5E68" font-family="Arial,Arial_MSFontService,sans-serif" font-weight="400" font-size="24" transform="matrix(-1.83697e-16 -1 1 -1.83697e-16 210.515 598)">Forecasts based on</text><text fill="#A0234E" font-family="Arial,Arial_MSFontService,sans-serif" font-weight="400" font-size="24" transform="matrix(-1.83697e-16 -1 1 -1.83697e-16 210.515 381)">Filtering</text><text fill="#E46C0A" font-family="Arial,Arial_MSFontService,sans-serif" font-weight="400" font-size="24" transform="translate(642.193 279)">Epidemic decline phase</text><text fill="#31859C" font-family="Arial,Arial_MSFontService,sans-serif" font-weight="400" font-size="24" transform="translate(674.256 522)">Epidemic growth phase</text><text fill="#4B5E68" font-family="Arial,Arial_MSFontService,sans-serif" font-weight="400" font-size="24" transform="translate(172.379 126)">Forecasts based on data available up to the current</text><text fill="#4B5E68" font-family="Arial,Arial_MSFontService,sans-serif" font-weight="400" font-size="24" transform="translate(725.712 126)">day (i.e., filtering)</text><text fill="#4B5E68" font-family="Arial,Arial_MSFontService,sans-serif" font-weight="400" font-size="24" transform="translate(916.379 126)">tended to</text><text fill="#4B5E68" font-family="Arial,Arial_MSFontService,sans-serif" font-weight="400" font-size="24" transform="translate(172.379 155)">•</text><text fill="#4B5E68" font-family="Arial,Arial_MSFontService,sans-serif" font-weight="400" font-size="24" transform="translate(202.379 155)">underestimate cumulative new infections</text><text fill="#4B5E68" font-family="Arial,Arial_MSFontService,sans-serif" font-weight="400" font-size="24" transform="translate(641.045 155)">during the epidemic growth phase and</text><text fill="#4B5E68" font-family="Arial,Arial_MSFontService,sans-serif" font-weight="400" font-size="24" transform="translate(172.379 184)">•</text><text fill="#4B5E68" font-family="Arial,Arial_MSFontService,sans-serif" font-weight="400" font-size="24" transform="translate(202.379 184)">overestimate</text><text fill="#4B5E68" font-family="Arial,Arial_MSFontService,sans-serif" font-weight="400" font-size="24" transform="translate(346.379 184)">cumulative new infections</text><text fill="#4B5E68" font-family="Arial,Arial_MSFontService,sans-serif" font-weight="400" font-size="24" transform="translate(626.379 184)">during the epidemic decline phase.</text><text fill="#4B5E68" font-family="Arial,Arial_MSFontService,sans-serif" font-weight="400" font-size="24" transform="translate(186.152 224)">However, observed forecast error was below 50%</text></g></svg>