<svg width="1282" height="731" xmlns="http://www.w3.org/2000/svg" xmlns:xlink="http://www.w3.org/1999/xlink" overflow="hidden"><defs><clipPath id="clip0"><rect x="-1" y="-3" width="1282" height="731"/></clipPath></defs><g clip-path="url(#clip0)" transform="translate(1 3)"><rect x="0" y="0" width="1280" height="720" fill="#FFFFFF"/><rect x="0.500053" y="-1.50005" width="1280" height="37.0001" stroke="#7F7F7F" stroke-width="1.33333" stroke-miterlimit="8" fill="#D9D9D9"/><text fill="#4B5E68" font-family="Arial,Arial_MSFontService,sans-serif" font-weight="700" font-size="21" transform="translate(535.667 25)">Supplementary slide</text><text fill="#4B5E68" font-family="Arial,Arial_MSFontService,sans-serif" font-weight="700" font-size="37" transform="translate(253.757 80)">Discretization of continuous distribution</text><path d="M38.5001 99.5001 1187.48 99.5002" stroke="#4B5E68" stroke-miterlimit="8" stroke-dasharray="8 3" fill="none" fill-rule="evenodd"/><rect x="41" y="192" width="600" height="221" fill="#F2F2F2"/><text fill="#4B5E68" font-family="Cambria Math,Cambria Math_MSFontService,sans-serif" font-weight="400" font-size="24" transform="translate(163.361 157)">𝑓</text><text fill="#4B5E68" font-family="Cambria Math,Cambria Math_MSFontService,sans-serif" font-weight="400" font-size="18" transform="translate(171.841 162)">𝑢</text><path d="M209.63 138.709C211.911 139.31 213.663 140.609 214.885 142.605 216.108 144.601 216.719 147.01 216.719 149.83 216.719 152.658 216.11 155.066 214.891 157.055 213.673 159.043 211.919 160.338 209.63 160.939L209.348 160.037C211.153 159.435 212.495 158.248 213.374 156.475 214.253 154.701 214.692 152.447 214.692 149.713 214.692 147.072 214.255 144.879 213.38 143.133 212.505 141.387 211.149 140.213 209.313 139.611ZM193.667 138.709 193.983 139.611C192.155 140.213 190.802 141.387 189.923 143.133 189.044 144.879 188.605 147.072 188.605 149.713 188.605 152.447 189.044 154.701 189.923 156.475 190.802 158.248 192.144 159.435 193.948 160.037L193.667 160.939C191.378 160.338 189.624 159.043 188.405 157.055 187.187 155.066 186.577 152.658 186.577 149.83 186.577 147.01 187.189 144.601 188.411 142.605 189.634 140.609 191.386 139.31 193.667 138.709Z" fill="#4B5E68" fill-rule="evenodd"/><text fill="#4B5E68" font-family="Cambria Math,Cambria Math_MSFontService,sans-serif" font-weight="400" font-size="24" transform="translate(194.428 157)">𝑢</text><text fill="#4B5E68" font-family="Cambria Math,Cambria Math_MSFontService,sans-serif" font-weight="400" font-size="24" transform="translate(225.494 157)">=</text><text fill="#4B5E68" font-family="Cambria Math,Cambria Math_MSFontService,sans-serif" font-weight="400" font-size="24" transform="translate(246.828 157)"></text><path d="M16.4414-29.7656 15.1406-29.7656C15.1172-30.1953 15.0234-30.5215 14.8594-30.7441 14.6953-30.9668 14.3945-31.0781 13.957-31.0781 12.8633-31.0781 12.0664-29.8477 11.5664-27.3867 11.0664-24.9258 10.6172-18.1328 10.2188-7.00781 9.82031 3 9.04492 9.83984 7.89258 13.5117 6.74023 17.1836 5.18359 19.0195 3.22266 19.0195 2.82422 19.0195 2.45703 18.9883 2.12109 18.9258 1.78516 18.8633 1.48828 18.7617 1.23047 18.6211L1.45312 16.0547 2.63672 16.0547C2.75391 16.5703 2.90625 16.9316 3.09375 17.1387 3.28125 17.3457 3.56641 17.4492 3.94922 17.4492 4.65234 17.4492 5.32812 16.2344 5.97656 13.8047 6.625 11.375 7.13281 5.01953 7.5-5.26172 7.95312-16.418 8.68164-23.7637 9.68555-27.2988 10.6895-30.834 12.3516-32.6016 14.6719-32.6016 15.0859-32.6016 15.4629-32.5645 15.8027-32.4902 16.1426-32.416 16.4297-32.3242 16.6641-32.2148Z" fill="#4B5E68" transform="translate(255.494 157)"/><text fill="#000000" fill-opacity="0" font-family="Arial,Arial_MSFontService,sans-serif" font-size="51.6211" x="1.23047" y="12.5669">න</text><text fill="#4B5E68" font-family="Cambria Math,Cambria Math_MSFontService,sans-serif" font-weight="400" font-size="24" transform="translate(294.841 157)">𝑓</text><text fill="#4B5E68" font-family="Cambria Math,Cambria Math_MSFontService,sans-serif" font-weight="400" font-size="18" transform="translate(305.115 162)">𝑇1</text><path d="M351.39 138.709C353.671 139.31 355.423 140.609 356.645 142.605 357.868 144.601 358.479 147.01 358.479 149.83 358.479 152.658 357.87 155.066 356.651 157.055 355.432 159.043 353.679 160.338 351.39 160.939L351.108 160.037C352.913 159.435 354.255 158.248 355.134 156.475 356.013 154.701 356.452 152.447 356.452 149.713 356.452 147.072 356.015 144.879 355.14 143.133 354.265 141.387 352.909 140.213 351.073 139.611ZM336.307 138.709 336.623 139.611C334.795 140.213 333.442 141.387 332.563 143.133 331.684 144.879 331.245 147.072 331.245 149.713 331.245 152.447 331.684 154.701 332.563 156.475 333.442 158.248 334.784 159.435 336.588 160.037L336.307 160.939C334.018 160.338 332.264 159.043 331.045 157.055 329.827 155.066 329.217 152.658 329.217 149.83 329.217 147.01 329.829 144.601 331.051 142.605 332.274 140.609 334.026 139.31 336.307 138.709Z" fill="#4B5E68" fill-rule="evenodd"/><text fill="#4B5E68" font-family="Cambria Math,Cambria Math_MSFontService,sans-serif" font-weight="400" font-size="24" transform="translate(337.068 157)">𝑥</text><text fill="#4B5E68" font-family="Cambria Math,Cambria Math_MSFontService,sans-serif" font-weight="400" font-size="24" transform="translate(360.588 157)">𝑓</text><text fill="#4B5E68" font-family="Cambria Math,Cambria Math_MSFontService,sans-serif" font-weight="400" font-size="18" transform="translate(370.861 162)">𝑇</text><text fill="#4B5E68" font-family="Cambria Math,Cambria Math_MSFontService,sans-serif" font-weight="400" font-size="18" transform="translate(381.694 162)">2</text><path d="M460.243 138.709C462.524 139.31 464.276 140.609 465.499 142.605 466.721 144.601 467.333 147.01 467.333 149.83 467.333 152.658 466.723 155.066 465.505 157.055 464.286 159.043 462.532 160.338 460.243 160.939L459.962 160.037C461.766 159.435 463.108 158.248 463.987 156.475 464.866 154.701 465.305 152.447 465.305 149.713 465.305 147.072 464.868 144.879 463.993 143.133 463.118 141.387 461.762 140.213 459.926 139.611ZM402.054 138.709 402.37 139.611C400.542 140.213 399.188 141.387 398.31 143.133 397.431 144.879 396.991 147.072 396.991 149.713 396.991 152.447 397.431 154.701 398.31 156.475 399.188 158.248 400.53 159.435 402.335 160.037L402.054 160.939C399.765 160.338 398.011 159.043 396.792 157.055 395.573 155.066 394.964 152.658 394.964 149.83 394.964 147.01 395.575 144.601 396.798 142.605 398.021 140.609 399.772 139.31 402.054 138.709Z" fill="#4B5E68" fill-rule="evenodd"/><text fill="#4B5E68" font-family="Cambria Math,Cambria Math_MSFontService,sans-serif" font-weight="400" font-size="24" transform="translate(402.814 157)">𝑥</text><text fill="#4B5E68" font-family="Cambria Math,Cambria Math_MSFontService,sans-serif" font-weight="400" font-size="24" transform="translate(421.708 157)">+</text><text fill="#4B5E68" font-family="Cambria Math,Cambria Math_MSFontService,sans-serif" font-weight="400" font-size="24" transform="translate(445.041 157)">𝑢</text><text fill="#4B5E68" font-family="Cambria Math,Cambria Math_MSFontService,sans-serif" font-weight="400" font-size="24" transform="translate(469.441 157)">𝑑𝑥</text><text fill="#4B5E68" font-family="Cambria Math,Cambria Math_MSFontService,sans-serif" font-weight="400" font-size="18" transform="translate(274.854 129)">∞</text><text fill="#4B5E68" font-family="Cambria Math,Cambria Math_MSFontService,sans-serif" font-weight="400" font-size="18" transform="translate(266.008 179)">−</text><text fill="#4B5E68" font-family="Cambria Math,Cambria Math_MSFontService,sans-serif" font-weight="400" font-size="18" transform="translate(278.674 179)">∞</text><text fill="#4B5E68" font-family="Cambria Math,Cambria Math_MSFontService,sans-serif" font-weight="400" font-size="24" transform="translate(255.585 244)">𝑡</text><text fill="#4B5E68" font-family="Cambria Math,Cambria Math_MSFontService,sans-serif" font-weight="400" font-size="24" transform="translate(265.672 244)"></text><text fill="#4B5E68" font-family="Cambria Math,Cambria Math_MSFontService,sans-serif" font-weight="400" font-size="24" transform="translate(277.672 244)">≤</text><text fill="#4B5E68" font-family="Cambria Math,Cambria Math_MSFontService,sans-serif" font-weight="400" font-size="24" transform="translate(302.338 244)">𝑥</text><text fill="#4B5E68" font-family="Cambria Math,Cambria Math_MSFontService,sans-serif" font-weight="400" font-size="24" transform="translate(315.898 244)"></text><text fill="#4B5E68" font-family="Cambria Math,Cambria Math_MSFontService,sans-serif" font-weight="400" font-size="24" transform="translate(327.898 244)">≤</text><text fill="#4B5E68" font-family="Cambria Math,Cambria Math_MSFontService,sans-serif" font-weight="400" font-size="24" transform="translate(352.565 244)">𝑡</text><text fill="#4B5E68" font-family="Cambria Math,Cambria Math_MSFontService,sans-serif" font-weight="400" font-size="24" transform="translate(367.985 244)">+</text><text fill="#4B5E68" font-family="Cambria Math,Cambria Math_MSFontService,sans-serif" font-weight="400" font-size="24" transform="translate(391.318 244)">1</text><text fill="#4B5E68" font-family="Cambria Math,Cambria Math_MSFontService,sans-serif" font-weight="400" font-size="24" transform="translate(256.245 310)">𝑡</text><text fill="#4B5E68" font-family="Cambria Math,Cambria Math_MSFontService,sans-serif" font-weight="400" font-size="24" transform="translate(271.665 310)">+</text><text fill="#4B5E68" font-family="Cambria Math,Cambria Math_MSFontService,sans-serif" font-weight="400" font-size="24" transform="translate(294.998 310)">𝑘</text><text fill="#4B5E68" font-family="Cambria Math,Cambria Math_MSFontService,sans-serif" font-weight="400" font-size="24" transform="translate(308.865 310)"></text><text fill="#4B5E68" font-family="Cambria Math,Cambria Math_MSFontService,sans-serif" font-weight="400" font-size="24" transform="translate(320.865 310)">≤</text><text fill="#4B5E68" font-family="Cambria Math,Cambria Math_MSFontService,sans-serif" font-weight="400" font-size="24" transform="translate(345.532 310)">𝑥</text><text fill="#4B5E68" font-family="Cambria Math,Cambria Math_MSFontService,sans-serif" font-weight="400" font-size="24" transform="translate(364.425 310)">+</text><text fill="#4B5E68" font-family="Cambria Math,Cambria Math_MSFontService,sans-serif" font-weight="400" font-size="24" transform="translate(387.758 310)">𝑢</text><text fill="#4B5E68" font-family="Cambria Math,Cambria Math_MSFontService,sans-serif" font-weight="400" font-size="24" transform="translate(402.198 310)"></text><text fill="#4B5E68" font-family="Cambria Math,Cambria Math_MSFontService,sans-serif" font-weight="400" font-size="24" transform="translate(414.198 310)">≤</text><text fill="#4B5E68" font-family="Cambria Math,Cambria Math_MSFontService,sans-serif" font-weight="400" font-size="24" transform="translate(438.865 310)">𝑡</text><text fill="#4B5E68" font-family="Cambria Math,Cambria Math_MSFontService,sans-serif" font-weight="400" font-size="24" transform="translate(454.285 310)">+</text><text fill="#4B5E68" font-family="Cambria Math,Cambria Math_MSFontService,sans-serif" font-weight="400" font-size="24" transform="translate(477.618 310)">1</text><text fill="#4B5E68" font-family="Cambria Math,Cambria Math_MSFontService,sans-serif" font-weight="400" font-size="24" transform="translate(496.285 310)">+</text><text fill="#4B5E68" font-family="Cambria Math,Cambria Math_MSFontService,sans-serif" font-weight="400" font-size="24" transform="translate(519.618 310)">𝑘</text><text fill="#4B5E68" font-family="Cambria Math,Cambria Math_MSFontService,sans-serif" font-weight="400" font-size="24" transform="translate(236.289 350)">𝑡</text><text fill="#4B5E68" font-family="Cambria Math,Cambria Math_MSFontService,sans-serif" font-weight="400" font-size="24" transform="translate(251.709 350)">+</text><text fill="#4B5E68" font-family="Cambria Math,Cambria Math_MSFontService,sans-serif" font-weight="400" font-size="24" transform="translate(275.043 350)">𝑘</text><text fill="#4B5E68" font-family="Cambria Math,Cambria Math_MSFontService,sans-serif" font-weight="400" font-size="24" transform="translate(288.909 350)"></text><text fill="#4B5E68" font-family="Cambria Math,Cambria Math_MSFontService,sans-serif" font-weight="400" font-size="24" transform="translate(299.576 350)">−</text><text fill="#4B5E68" font-family="Cambria Math,Cambria Math_MSFontService,sans-serif" font-weight="400" font-size="24" transform="translate(322.909 350)">𝑢</text><text fill="#4B5E68" font-family="Cambria Math,Cambria Math_MSFontService,sans-serif" font-weight="400" font-size="24" transform="translate(337.349 350)"></text><text fill="#4B5E68" font-family="Cambria Math,Cambria Math_MSFontService,sans-serif" font-weight="400" font-size="24" transform="translate(349.349 350)">≤</text><text fill="#4B5E68" font-family="Cambria Math,Cambria Math_MSFontService,sans-serif" font-weight="400" font-size="24" transform="translate(374.016 350)">𝑥</text><text fill="#4B5E68" font-family="Cambria Math,Cambria Math_MSFontService,sans-serif" font-weight="400" font-size="24" transform="translate(387.576 350)"></text><text fill="#4B5E68" font-family="Cambria Math,Cambria Math_MSFontService,sans-serif" font-weight="400" font-size="24" transform="translate(399.576 350)">≤</text><text fill="#4B5E68" font-family="Cambria Math,Cambria Math_MSFontService,sans-serif" font-weight="400" font-size="24" transform="translate(424.243 350)">𝑡</text><text fill="#4B5E68" font-family="Cambria Math,Cambria Math_MSFontService,sans-serif" font-weight="400" font-size="24" transform="translate(439.663 350)">+</text><text fill="#4B5E68" font-family="Cambria Math,Cambria Math_MSFontService,sans-serif" font-weight="400" font-size="24" transform="translate(462.996 350)">1</text><text fill="#4B5E68" font-family="Cambria Math,Cambria Math_MSFontService,sans-serif" font-weight="400" font-size="24" transform="translate(481.663 350)">+</text><text fill="#4B5E68" font-family="Cambria Math,Cambria Math_MSFontService,sans-serif" font-weight="400" font-size="24" transform="translate(504.996 350)">𝑘</text><text fill="#4B5E68" font-family="Cambria Math,Cambria Math_MSFontService,sans-serif" font-weight="400" font-size="24" transform="translate(518.863 350)"></text><text fill="#4B5E68" font-family="Cambria Math,Cambria Math_MSFontService,sans-serif" font-weight="400" font-size="24" transform="translate(529.529 350)">−</text><text fill="#4B5E68" font-family="Cambria Math,Cambria Math_MSFontService,sans-serif" font-weight="400" font-size="24" transform="translate(552.863 350)">𝑢</text><text fill="#4B5E68" font-family="Cambria Math,Cambria Math_MSFontService,sans-serif" font-weight="400" font-size="24" transform="translate(86.373 251)">𝑓</text><text fill="#4B5E68" font-family="Cambria Math,Cambria Math_MSFontService,sans-serif" font-weight="400" font-size="18" transform="translate(96.6463 256)">𝑇1</text><path d="M142.921 232.832C145.203 233.433 146.955 234.732 148.177 236.728 149.4 238.724 150.011 241.132 150.011 243.953 150.011 246.781 149.402 249.189 148.183 251.177 146.964 253.165 145.21 254.46 142.921 255.062L142.64 254.16C144.445 253.558 145.787 252.371 146.665 250.597 147.544 248.824 147.984 246.57 147.984 243.835 147.984 241.195 147.546 239.001 146.671 237.255 145.796 235.509 144.441 234.335 142.605 233.734ZM127.839 232.832 128.155 233.734C126.327 234.335 124.974 235.509 124.095 237.255 123.216 239.001 122.776 241.195 122.776 243.835 122.776 246.57 123.216 248.824 124.095 250.597 124.974 252.371 126.315 253.558 128.12 254.16L127.839 255.062C125.55 254.46 123.796 253.165 122.577 251.177 121.358 249.189 120.749 246.781 120.749 243.953 120.749 241.132 121.36 238.724 122.583 236.728 123.806 234.732 125.558 233.433 127.839 232.832Z" fill="#4B5E68" fill-rule="evenodd"/><text fill="#4B5E68" font-family="Cambria Math,Cambria Math_MSFontService,sans-serif" font-weight="400" font-size="24" transform="translate(128.6 251)">𝑥</text><text fill="#4B5E68" font-family="Cambria Math,Cambria Math_MSFontService,sans-serif" font-weight="400" font-size="24" transform="translate(158.786 251)">=</text><text fill="#4B5E68" font-family="Cambria Math,Cambria Math_MSFontService,sans-serif" font-weight="400" font-size="24" transform="translate(183.453 251)">1</text><text fill="#4B5E68" font-family="Cambria Math,Cambria Math_MSFontService,sans-serif" font-weight="400" font-size="24" transform="translate(86.373 308)">𝑓</text><text fill="#4B5E68" font-family="Cambria Math,Cambria Math_MSFontService,sans-serif" font-weight="400" font-size="18" transform="translate(96.6463 313)">𝑇2</text><path d="M142.921 290.462C145.203 291.063 146.955 292.362 148.177 294.358 149.4 296.354 150.011 298.762 150.011 301.583 150.011 304.411 149.402 306.819 148.183 308.807 146.964 310.796 145.21 312.091 142.921 312.692L142.64 311.79C144.445 311.188 145.787 310.001 146.665 308.227 147.544 306.454 147.984 304.2 147.984 301.466 147.984 298.825 147.546 296.632 146.671 294.885 145.796 293.139 144.441 291.966 142.605 291.364ZM127.839 290.462 128.155 291.364C126.327 291.966 124.974 293.139 124.095 294.885 123.216 296.632 122.776 298.825 122.776 301.466 122.776 304.2 123.216 306.454 124.095 308.227 124.974 310.001 126.315 311.188 128.12 311.79L127.839 312.692C125.55 312.091 123.796 310.796 122.577 308.807 121.358 306.819 120.749 304.411 120.749 301.583 120.749 298.762 121.36 296.354 122.583 294.358 123.806 292.362 125.558 291.063 127.839 290.462Z" fill="#4B5E68" fill-rule="evenodd"/><text fill="#4B5E68" font-family="Cambria Math,Cambria Math_MSFontService,sans-serif" font-weight="400" font-size="24" transform="translate(128.6 308)">𝑥</text><text fill="#4B5E68" font-family="Cambria Math,Cambria Math_MSFontService,sans-serif" font-weight="400" font-size="24" transform="translate(158.786 308)">=</text><text fill="#4B5E68" font-family="Cambria Math,Cambria Math_MSFontService,sans-serif" font-weight="400" font-size="24" transform="translate(183.453 308)">1</text><text fill="#4B5E68" font-family="Cambria Math,Cambria Math_MSFontService,sans-serif" font-weight="400" font-size="24" transform="translate(72.673 390)">𝒙</text><text fill="#4B5E68" font-family="Cambria Math,Cambria Math_MSFontService,sans-serif" font-weight="400" font-size="24" transform="translate(86.5064 390)"></text><text fill="#4B5E68" font-family="Cambria Math,Cambria Math_MSFontService,sans-serif" font-weight="400" font-size="24" transform="translate(98.5064 390)">∈</text><text fill="#4B5E68" font-family="Cambria Math,Cambria Math_MSFontService,sans-serif" font-weight="400" font-size="24" transform="translate(120.173 390)">[</text><text fill="#4B5E68" font-family="Cambria Math,Cambria Math_MSFontService,sans-serif" font-weight="400" font-size="24" transform="translate(128.506 390)">𝒎𝒂𝒙</text><text fill="#4B5E68" font-family="Cambria Math,Cambria Math_MSFontService,sans-serif" font-weight="400" font-size="24" transform="translate(179.506 390)">⁡</text><text fill="#4B5E68" font-family="Cambria Math,Cambria Math_MSFontService,sans-serif" font-weight="400" font-size="24" transform="translate(179.506 390)">(</text><text fill="#4B5E68" font-family="Cambria Math,Cambria Math_MSFontService,sans-serif" font-weight="400" font-size="24" transform="translate(189.506 390)">𝒕</text><text fill="#4B5E68" font-family="Cambria Math,Cambria Math_MSFontService,sans-serif" font-weight="400" font-size="24" transform="translate(199.506 390)">,</text><text fill="#4B5E68" font-family="Cambria Math,Cambria Math_MSFontService,sans-serif" font-weight="400" font-size="24" transform="translate(208.506 390)">𝒕</text><text fill="#4B5E68" font-family="Cambria Math,Cambria Math_MSFontService,sans-serif" font-weight="400" font-size="24" transform="translate(223.84 390)">+</text><text fill="#4B5E68" font-family="Cambria Math,Cambria Math_MSFontService,sans-serif" font-weight="400" font-size="24" transform="translate(247.173 390)">𝒌</text><text fill="#4B5E68" font-family="Cambria Math,Cambria Math_MSFontService,sans-serif" font-weight="400" font-size="24" transform="translate(267.173 390)">−</text><text fill="#4B5E68" font-family="Cambria Math,Cambria Math_MSFontService,sans-serif" font-weight="400" font-size="24" transform="translate(290.506 390)">𝒖</text><text fill="#4B5E68" font-family="Cambria Math,Cambria Math_MSFontService,sans-serif" font-weight="400" font-size="24" transform="translate(306.006 390)">)</text><text fill="#4B5E68" font-family="Cambria Math,Cambria Math_MSFontService,sans-serif" font-weight="400" font-size="24" transform="translate(316.006 390)">)</text><text fill="#4B5E68" font-family="Cambria Math,Cambria Math_MSFontService,sans-serif" font-weight="400" font-size="24" transform="translate(326.006 390)">,</text><text fill="#4B5E68" font-family="Cambria Math,Cambria Math_MSFontService,sans-serif" font-weight="400" font-size="24" transform="translate(335.006 390)">𝒎𝒊𝒏</text><path d="M594.895 371.558C597.176 372.159 598.928 373.458 600.151 375.454 601.373 377.451 601.985 379.859 601.985 382.679 601.985 385.507 601.375 387.915 600.156 389.904 598.938 391.892 597.184 393.187 594.895 393.788L594.614 392.886C596.418 392.284 597.76 391.097 598.639 389.324 599.518 387.55 599.957 385.296 599.957 382.562 599.957 379.921 599.52 377.728 598.645 375.982 597.77 374.236 596.414 373.062 594.578 372.46ZM390.872 371.558 391.189 372.46C389.361 373.062 388.007 374.236 387.128 375.982 386.249 377.728 385.81 379.921 385.81 382.562 385.81 385.296 386.249 387.55 387.128 389.324 388.007 391.097 389.349 392.284 391.154 392.886L390.872 393.788C388.583 393.187 386.829 391.892 385.611 389.904 384.392 387.915 383.782 385.507 383.782 382.679 383.782 379.859 384.394 377.451 385.616 375.454 386.839 373.458 388.591 372.159 390.872 371.558Z" fill="#4B5E68" fill-rule="evenodd"/><text fill="#4B5E68" font-family="Cambria Math,Cambria Math_MSFontService,sans-serif" font-weight="400" font-size="24" transform="translate(391.633 390)">𝒕</text><text fill="#4B5E68" font-family="Cambria Math,Cambria Math_MSFontService,sans-serif" font-weight="400" font-size="24" transform="translate(406.966 390)">+</text><text fill="#4B5E68" font-family="Cambria Math,Cambria Math_MSFontService,sans-serif" font-weight="400" font-size="24" transform="translate(430.3 390)">𝟏</text><text fill="#4B5E68" font-family="Cambria Math,Cambria Math_MSFontService,sans-serif" font-weight="400" font-size="24" transform="translate(444.633 390)">,</text><text fill="#4B5E68" font-family="Cambria Math,Cambria Math_MSFontService,sans-serif" font-weight="400" font-size="24" transform="translate(453.633 390)">𝒕</text><text fill="#4B5E68" font-family="Cambria Math,Cambria Math_MSFontService,sans-serif" font-weight="400" font-size="24" transform="translate(468.966 390)">+</text><text fill="#4B5E68" font-family="Cambria Math,Cambria Math_MSFontService,sans-serif" font-weight="400" font-size="24" transform="translate(492.3 390)">𝟏</text><text fill="#4B5E68" font-family="Cambria Math,Cambria Math_MSFontService,sans-serif" font-weight="400" font-size="24" transform="translate(511.966 390)">+</text><text fill="#4B5E68" font-family="Cambria Math,Cambria Math_MSFontService,sans-serif" font-weight="400" font-size="24" transform="translate(535.3 390)">𝒌</text><text fill="#4B5E68" font-family="Cambria Math,Cambria Math_MSFontService,sans-serif" font-weight="400" font-size="24" transform="translate(555.3 390)">−</text><text fill="#4B5E68" font-family="Cambria Math,Cambria Math_MSFontService,sans-serif" font-weight="400" font-size="24" transform="translate(578.633 390)">𝒖</text><text fill="#4B5E68" font-family="Cambria Math,Cambria Math_MSFontService,sans-serif" font-weight="400" font-size="24" transform="translate(604.093 390)">)</text><text fill="#4B5E68" font-family="Arial,Arial_MSFontService,sans-serif" font-weight="400" font-size="24" transform="translate(52.2681 217)">Integral range</text><text fill="#4B5E68" font-family="Cambria Math,Cambria Math_MSFontService,sans-serif" font-weight="400" font-size="24" transform="translate(152.211 461)">𝑓</text><text fill="#4B5E68" font-family="Cambria Math,Cambria Math_MSFontService,sans-serif" font-weight="400" font-size="18" transform="translate(160.691 466)">𝑢</text><path d="M198.48 443.211C200.761 443.812 202.513 445.111 203.736 447.107 204.958 449.104 205.57 451.512 205.57 454.332 205.57 457.16 204.96 459.568 203.742 461.557 202.523 463.545 200.769 464.84 198.48 465.441L198.199 464.539C200.003 463.938 201.345 462.75 202.224 460.977 203.103 459.203 203.542 456.949 203.542 454.215 203.542 451.574 203.105 449.381 202.23 447.635 201.355 445.889 199.999 444.715 198.163 444.113ZM182.517 443.211 182.834 444.113C181.006 444.715 179.652 445.889 178.773 447.635 177.894 449.381 177.455 451.574 177.455 454.215 177.455 456.949 177.894 459.203 178.773 460.977 179.652 462.75 180.994 463.938 182.799 464.539L182.517 465.441C180.228 464.84 178.474 463.545 177.256 461.557 176.037 459.568 175.427 457.16 175.427 454.332 175.427 451.512 176.039 449.104 177.261 447.107 178.484 445.111 180.236 443.812 182.517 443.211Z" fill="#4B5E68" fill-rule="evenodd"/><text fill="#4B5E68" font-family="Cambria Math,Cambria Math_MSFontService,sans-serif" font-weight="400" font-size="24" transform="translate(183.278 461)">𝑢</text><text fill="#4B5E68" font-family="Cambria Math,Cambria Math_MSFontService,sans-serif" font-weight="400" font-size="24" transform="translate(214.345 461)">=</text><text fill="#4B5E68" font-family="Cambria Math,Cambria Math_MSFontService,sans-serif" font-weight="400" font-size="24" transform="translate(235.678 461)"></text><path d="M16.4414-29.7656 15.1406-29.7656C15.1172-30.1953 15.0234-30.5215 14.8594-30.7441 14.6953-30.9668 14.3945-31.0781 13.957-31.0781 12.8633-31.0781 12.0664-29.8477 11.5664-27.3867 11.0664-24.9258 10.6172-18.1328 10.2188-7.00781 9.82031 3 9.04492 9.83984 7.89258 13.5117 6.74023 17.1836 5.18359 19.0195 3.22266 19.0195 2.82422 19.0195 2.45703 18.9883 2.12109 18.9258 1.78516 18.8633 1.48828 18.7617 1.23047 18.6211L1.45312 16.0547 2.63672 16.0547C2.75391 16.5703 2.90625 16.9316 3.09375 17.1387 3.28125 17.3457 3.56641 17.4492 3.94922 17.4492 4.65234 17.4492 5.32812 16.2344 5.97656 13.8047 6.625 11.375 7.13281 5.01953 7.5-5.26172 7.95312-16.418 8.68164-23.7637 9.68555-27.2988 10.6895-30.834 12.3516-32.6016 14.6719-32.6016 15.0859-32.6016 15.4629-32.5645 15.8027-32.4902 16.1426-32.416 16.4297-32.3242 16.6641-32.2148Z" fill="#4B5E68" transform="translate(244.345 461)"/><text fill="#000000" fill-opacity="0" font-family="Arial,Arial_MSFontService,sans-serif" font-size="51.6211" x="1.23047" y="12.5669">න</text><text fill="#4B5E68" font-family="Cambria Math,Cambria Math_MSFontService,sans-serif" font-weight="400" font-size="24" transform="translate(433.465 461)">1𝑑𝑥</text><text fill="#4B5E68" font-family="Cambria Math,Cambria Math_MSFontService,sans-serif" font-weight="400" font-size="18" transform="translate(263.705 434)">𝑚𝑖𝑛</text><path d="M419.429 420.471C421.14 420.922 422.454 421.896 423.371 423.393 424.288 424.89 424.747 426.697 424.747 428.812 424.747 430.933 424.29 432.739 423.376 434.23 422.462 435.721 421.146 436.693 419.429 437.144L419.218 436.467C420.572 436.016 421.578 435.125 422.238 433.795 422.897 432.465 423.226 430.775 423.226 428.724 423.226 426.743 422.898 425.098 422.242 423.789 421.586 422.479 420.569 421.599 419.192 421.148ZM304.738 420.471 304.975 421.148C303.604 421.599 302.589 422.479 301.929 423.789 301.27 425.098 300.941 426.743 300.941 428.724 300.941 430.775 301.27 432.465 301.929 433.795 302.589 435.125 303.595 436.016 304.948 436.467L304.738 437.144C303.021 436.693 301.705 435.721 300.791 434.23 299.877 432.739 299.42 430.933 299.42 428.812 299.42 426.697 299.879 424.89 300.796 423.393 301.713 421.896 303.027 420.922 304.738 420.471Z" fill="#4B5E68" fill-rule="evenodd"/><text fill="#4B5E68" font-family="Cambria Math,Cambria Math_MSFontService,sans-serif" font-weight="400" font-size="18" transform="translate(305.111 434)">𝑡</text><text fill="#4B5E68" font-family="Cambria Math,Cambria Math_MSFontService,sans-serif" font-weight="400" font-size="18" transform="translate(313.245 434)">+</text><text fill="#4B5E68" font-family="Cambria Math,Cambria Math_MSFontService,sans-serif" font-weight="400" font-size="18" transform="translate(325.911 434)">1</text><text fill="#4B5E68" font-family="Cambria Math,Cambria Math_MSFontService,sans-serif" font-weight="400" font-size="18" transform="translate(336.078 434)">,</text><text fill="#4B5E68" font-family="Cambria Math,Cambria Math_MSFontService,sans-serif" font-weight="400" font-size="18" transform="translate(339.745 434)">𝑡</text><text fill="#4B5E68" font-family="Cambria Math,Cambria Math_MSFontService,sans-serif" font-weight="400" font-size="18" transform="translate(347.878 434)">+</text><text fill="#4B5E68" font-family="Cambria Math,Cambria Math_MSFontService,sans-serif" font-weight="400" font-size="18" transform="translate(360.545 434)">1</text><text fill="#4B5E68" font-family="Cambria Math,Cambria Math_MSFontService,sans-serif" font-weight="400" font-size="18" transform="translate(370.711 434)">+</text><text fill="#4B5E68" font-family="Cambria Math,Cambria Math_MSFontService,sans-serif" font-weight="400" font-size="18" transform="translate(383.378 434)">𝑘</text><text fill="#4B5E68" font-family="Cambria Math,Cambria Math_MSFontService,sans-serif" font-weight="400" font-size="18" transform="translate(394.558 434)">−</text><text fill="#4B5E68" font-family="Cambria Math,Cambria Math_MSFontService,sans-serif" font-weight="400" font-size="18" transform="translate(407.225 434)">𝑢</text><text fill="#4B5E68" font-family="Cambria Math,Cambria Math_MSFontService,sans-serif" font-weight="400" font-size="18" transform="translate(426.131 434)">)</text><text fill="#4B5E68" font-family="Cambria Math,Cambria Math_MSFontService,sans-serif" font-weight="400" font-size="18" transform="translate(254.858 484)">𝑚𝑎𝑥</text><text fill="#4B5E68" font-family="Cambria Math,Cambria Math_MSFontService,sans-serif" font-weight="400" font-size="18" transform="translate(292.991 484)">⁡</text><text fill="#4B5E68" font-family="Cambria Math,Cambria Math_MSFontService,sans-serif" font-weight="400" font-size="18" transform="translate(292.991 484)">(</text><text fill="#4B5E68" font-family="Cambria Math,Cambria Math_MSFontService,sans-serif" font-weight="400" font-size="18" transform="translate(300.325 484)">𝑡</text><text fill="#4B5E68" font-family="Cambria Math,Cambria Math_MSFontService,sans-serif" font-weight="400" font-size="18" transform="translate(308.458 484)">,</text><text fill="#4B5E68" font-family="Cambria Math,Cambria Math_MSFontService,sans-serif" font-weight="400" font-size="18" transform="translate(312.125 484)">𝑡</text><text fill="#4B5E68" font-family="Cambria Math,Cambria Math_MSFontService,sans-serif" font-weight="400" font-size="18" transform="translate(320.258 484)">+</text><text fill="#4B5E68" font-family="Cambria Math,Cambria Math_MSFontService,sans-serif" font-weight="400" font-size="18" transform="translate(332.925 484)">𝑘</text><text fill="#4B5E68" font-family="Cambria Math,Cambria Math_MSFontService,sans-serif" font-weight="400" font-size="18" transform="translate(344.105 484)">−</text><text fill="#4B5E68" font-family="Cambria Math,Cambria Math_MSFontService,sans-serif" font-weight="400" font-size="18" transform="translate(356.771 484)">𝑢</text><text fill="#4B5E68" font-family="Cambria Math,Cambria Math_MSFontService,sans-serif" font-weight="400" font-size="18" transform="translate(368.405 484)">)</text><text fill="#4B5E68" font-family="Cambria Math,Cambria Math_MSFontService,sans-serif" font-weight="400" font-size="18" transform="translate(375.738 484)">)</text><text fill="#4B5E68" font-family="Cambria Math,Cambria Math_MSFontService,sans-serif" font-weight="400" font-size="18" transform="translate(383.071 484)">,</text><text fill="#4B5E68" font-family="Arial,Arial_MSFontService,sans-serif" font-weight="400" font-size="24" transform="translate(54.3647 536)">1. u &gt; k</text><text fill="#4B5E68" font-family="Arial,Arial_MSFontService,sans-serif" font-weight="400" font-size="24" transform="translate(54.3646 598)">2. u &lt; k</text><text fill="#4B5E68" font-family="Cambria Math,Cambria Math_MSFontService,sans-serif" font-weight="400" font-size="24" transform="translate(172.379 537)">𝑓</text><text fill="#4B5E68" font-family="Cambria Math,Cambria Math_MSFontService,sans-serif" font-weight="400" font-size="18" transform="translate(180.859 542)">𝑢</text><path d="M218.647 519.207C220.929 519.808 222.681 521.107 223.903 523.103 225.126 525.099 225.737 527.508 225.737 530.328 225.737 533.156 225.128 535.564 223.909 537.553 222.69 539.541 220.936 540.836 218.647 541.437L218.366 540.535C220.171 539.933 221.513 538.746 222.391 536.973 223.27 535.199 223.71 532.945 223.71 530.211 223.71 527.57 223.272 525.377 222.397 523.631 221.522 521.885 220.167 520.711 218.331 520.109ZM202.685 519.207 203.001 520.109C201.173 520.711 199.82 521.885 198.941 523.631 198.062 525.377 197.622 527.57 197.622 530.211 197.622 532.945 198.062 535.199 198.941 536.973 199.82 538.746 201.161 539.933 202.966 540.535L202.685 541.437C200.396 540.836 198.642 539.541 197.423 537.553 196.204 535.564 195.595 533.156 195.595 530.328 195.595 527.508 196.206 525.099 197.429 523.103 198.652 521.107 200.404 519.808 202.685 519.207Z" fill="#4B5E68" fill-rule="evenodd"/><text fill="#4B5E68" font-family="Cambria Math,Cambria Math_MSFontService,sans-serif" font-weight="400" font-size="24" transform="translate(203.446 537)">𝑢</text><text fill="#4B5E68" font-family="Cambria Math,Cambria Math_MSFontService,sans-serif" font-weight="400" font-size="24" transform="translate(234.512 537)">=</text><path d="M407.627 519.207C409.909 519.808 411.661 521.107 412.883 523.103 414.106 525.099 414.717 527.508 414.717 530.328 414.717 533.156 414.108 535.564 412.889 537.553 411.67 539.541 409.916 540.836 407.627 541.437L407.346 540.535C409.151 539.933 410.493 538.746 411.371 536.973 412.25 535.199 412.69 532.945 412.69 530.211 412.69 527.57 412.252 525.377 411.377 523.631 410.502 521.885 409.147 520.711 407.311 520.109ZM268.378 519.207 268.695 520.109C266.866 520.711 265.513 521.885 264.634 523.631 263.755 525.377 263.316 527.57 263.316 530.211 263.316 532.945 263.755 535.199 264.634 536.973 265.513 538.746 266.855 539.933 268.659 540.535L268.378 541.437C266.089 540.836 264.335 539.541 263.116 537.553 261.898 535.564 261.288 533.156 261.288 530.328 261.288 527.508 261.9 525.099 263.122 523.103 264.345 521.107 266.097 519.808 268.378 519.207Z" fill="#4B5E68" fill-rule="evenodd"/><text fill="#4B5E68" font-family="Cambria Math,Cambria Math_MSFontService,sans-serif" font-weight="400" font-size="24" transform="translate(269.139 537)">𝑡</text><text fill="#4B5E68" font-family="Cambria Math,Cambria Math_MSFontService,sans-serif" font-weight="400" font-size="24" transform="translate(284.559 537)">+</text><text fill="#4B5E68" font-family="Cambria Math,Cambria Math_MSFontService,sans-serif" font-weight="400" font-size="24" transform="translate(307.892 537)">1</text><text fill="#4B5E68" font-family="Cambria Math,Cambria Math_MSFontService,sans-serif" font-weight="400" font-size="24" transform="translate(326.559 537)">+</text><text fill="#4B5E68" font-family="Cambria Math,Cambria Math_MSFontService,sans-serif" font-weight="400" font-size="24" transform="translate(349.892 537)">𝑘</text><text fill="#4B5E68" font-family="Cambria Math,Cambria Math_MSFontService,sans-serif" font-weight="400" font-size="24" transform="translate(369.092 537)">−</text><text fill="#4B5E68" font-family="Cambria Math,Cambria Math_MSFontService,sans-serif" font-weight="400" font-size="24" transform="translate(392.426 537)">𝑢</text><text fill="#4B5E68" font-family="Cambria Math,Cambria Math_MSFontService,sans-serif" font-weight="400" font-size="24" transform="translate(422.159 537)">−</text><text fill="#4B5E68" font-family="Cambria Math,Cambria Math_MSFontService,sans-serif" font-weight="400" font-size="24" transform="translate(445.492 537)">𝑡</text><text fill="#4B5E68" font-family="Cambria Math,Cambria Math_MSFontService,sans-serif" font-weight="400" font-size="24" transform="translate(462.246 537)">=</text><text fill="#4B5E68" font-family="Cambria Math,Cambria Math_MSFontService,sans-serif" font-weight="400" font-size="24" transform="translate(486.912 537)">1</text><text fill="#4B5E68" font-family="Cambria Math,Cambria Math_MSFontService,sans-serif" font-weight="400" font-size="24" transform="translate(505.579 537)">−</text><text fill="#4B5E68" font-family="Cambria Math,Cambria Math_MSFontService,sans-serif" font-weight="400" font-size="24" transform="translate(528.912 537)">(</text><text fill="#4B5E68" font-family="Cambria Math,Cambria Math_MSFontService,sans-serif" font-weight="400" font-size="24" transform="translate(538.912 537)">𝑢</text><text fill="#4B5E68" font-family="Cambria Math,Cambria Math_MSFontService,sans-serif" font-weight="400" font-size="24" transform="translate(558.686 537)">−</text><text fill="#4B5E68" font-family="Cambria Math,Cambria Math_MSFontService,sans-serif" font-weight="400" font-size="24" transform="translate(582.019 537)">𝑘</text><text fill="#4B5E68" font-family="Cambria Math,Cambria Math_MSFontService,sans-serif" font-weight="400" font-size="24" transform="translate(595.886 537)">)</text><text fill="#4B5E68" font-family="Cambria Math,Cambria Math_MSFontService,sans-serif" font-weight="400" font-size="24" transform="translate(605.886 537)"></text><text fill="#4B5E68" font-family="Cambria Math,Cambria Math_MSFontService,sans-serif" font-weight="400" font-size="24" transform="translate(172.419 598)">𝑓</text><text fill="#4B5E68" font-family="Cambria Math,Cambria Math_MSFontService,sans-serif" font-weight="400" font-size="18" transform="translate(180.899 603)">𝑢</text><path d="M218.687 580.335C220.969 580.936 222.721 582.235 223.943 584.231 225.166 586.227 225.777 588.635 225.777 591.456 225.777 594.284 225.168 596.692 223.949 598.68 222.73 600.669 220.976 601.964 218.687 602.565L218.406 601.663C220.211 601.061 221.553 599.874 222.431 598.1 223.31 596.327 223.75 594.073 223.75 591.339 223.75 588.698 223.312 586.505 222.437 584.759 221.562 583.012 220.207 581.839 218.371 581.237ZM202.725 580.335 203.041 581.237C201.213 581.839 199.86 583.012 198.981 584.759 198.102 586.505 197.662 588.698 197.662 591.339 197.662 594.073 198.102 596.327 198.981 598.1 199.86 599.874 201.201 601.061 203.006 601.663L202.725 602.565C200.436 601.964 198.682 600.669 197.463 598.68 196.244 596.692 195.635 594.284 195.635 591.456 195.635 588.635 196.246 586.227 197.469 584.231 198.692 582.235 200.444 580.936 202.725 580.335Z" fill="#4B5E68" fill-rule="evenodd"/><text fill="#4B5E68" font-family="Cambria Math,Cambria Math_MSFontService,sans-serif" font-weight="400" font-size="24" transform="translate(203.486 598)">𝑢</text><text fill="#4B5E68" font-family="Cambria Math,Cambria Math_MSFontService,sans-serif" font-weight="400" font-size="24" transform="translate(234.552 598)">=</text><path d="M322.027 580.335C324.309 580.936 326.061 582.235 327.283 584.231 328.506 586.227 329.117 588.635 329.117 591.456 329.117 594.284 328.508 596.692 327.289 598.68 326.07 600.669 324.316 601.964 322.027 602.565L321.746 601.663C323.551 601.061 324.893 599.874 325.771 598.1 326.65 596.327 327.09 594.073 327.09 591.339 327.09 588.698 326.652 586.505 325.777 584.759 324.902 583.012 323.547 581.839 321.711 581.237ZM268.418 580.335 268.735 581.237C266.906 581.839 265.553 583.012 264.674 584.759 263.795 586.505 263.356 588.698 263.356 591.339 263.356 594.073 263.795 596.327 264.674 598.1 265.553 599.874 266.895 601.061 268.699 601.663L268.418 602.565C266.129 601.964 264.375 600.669 263.156 598.68 261.938 596.692 261.328 594.284 261.328 591.456 261.328 588.635 261.94 586.227 263.162 584.231 264.385 582.235 266.137 580.936 268.418 580.335Z" fill="#4B5E68" fill-rule="evenodd"/><text fill="#4B5E68" font-family="Cambria Math,Cambria Math_MSFontService,sans-serif" font-weight="400" font-size="24" transform="translate(269.179 598)">𝑡</text><text fill="#4B5E68" font-family="Cambria Math,Cambria Math_MSFontService,sans-serif" font-weight="400" font-size="24" transform="translate(284.599 598)">+</text><text fill="#4B5E68" font-family="Cambria Math,Cambria Math_MSFontService,sans-serif" font-weight="400" font-size="24" transform="translate(307.932 598)">1</text><text fill="#4B5E68" font-family="Cambria Math,Cambria Math_MSFontService,sans-serif" font-weight="400" font-size="24" transform="translate(336.559 598)">−</text><path d="M466.341 580.335C468.622 580.936 470.374 582.235 471.597 584.231 472.819 586.227 473.431 588.635 473.431 591.456 473.431 594.284 472.821 596.692 471.602 598.68 470.384 600.669 468.63 601.964 466.341 602.565L466.059 601.663C467.864 601.061 469.206 599.874 470.085 598.1 470.964 596.327 471.403 594.073 471.403 591.339 471.403 588.698 470.966 586.505 470.091 584.759 469.216 583.012 467.86 581.839 466.024 581.237ZM369.091 580.335 369.408 581.237C367.58 581.839 366.226 583.012 365.347 584.759 364.468 586.505 364.029 588.698 364.029 591.339 364.029 594.073 364.468 596.327 365.347 598.1 366.226 599.874 367.568 601.061 369.373 601.663L369.091 602.565C366.802 601.964 365.049 600.669 363.83 598.68 362.611 596.692 362.002 594.284 362.002 591.456 362.002 588.635 362.613 586.227 363.836 584.231 365.058 582.235 366.81 580.936 369.091 580.335Z" fill="#4B5E68" fill-rule="evenodd"/><text fill="#4B5E68" font-family="Cambria Math,Cambria Math_MSFontService,sans-serif" font-weight="400" font-size="24" transform="translate(369.852 598)">𝑡</text><text fill="#4B5E68" font-family="Cambria Math,Cambria Math_MSFontService,sans-serif" font-weight="400" font-size="24" transform="translate(385.272 598)">+</text><text fill="#4B5E68" font-family="Cambria Math,Cambria Math_MSFontService,sans-serif" font-weight="400" font-size="24" transform="translate(408.606 598)">𝑘</text><text fill="#4B5E68" font-family="Cambria Math,Cambria Math_MSFontService,sans-serif" font-weight="400" font-size="24" transform="translate(427.806 598)">−</text><text fill="#4B5E68" font-family="Cambria Math,Cambria Math_MSFontService,sans-serif" font-weight="400" font-size="24" transform="translate(451.139 598)">𝑢</text><text fill="#4B5E68" font-family="Cambria Math,Cambria Math_MSFontService,sans-serif" font-weight="400" font-size="24" transform="translate(482.206 598)">=</text><text fill="#4B5E68" font-family="Cambria Math,Cambria Math_MSFontService,sans-serif" font-weight="400" font-size="24" transform="translate(506.872 598)">1</text><text fill="#4B5E68" font-family="Cambria Math,Cambria Math_MSFontService,sans-serif" font-weight="400" font-size="24" transform="translate(525.539 598)">+</text><text fill="#4B5E68" font-family="Cambria Math,Cambria Math_MSFontService,sans-serif" font-weight="400" font-size="24" transform="translate(548.872 598)">(</text><text fill="#4B5E68" font-family="Cambria Math,Cambria Math_MSFontService,sans-serif" font-weight="400" font-size="24" transform="translate(558.872 598)">𝑢</text><text fill="#4B5E68" font-family="Cambria Math,Cambria Math_MSFontService,sans-serif" font-weight="400" font-size="24" transform="translate(578.646 598)">−</text><text fill="#4B5E68" font-family="Cambria Math,Cambria Math_MSFontService,sans-serif" font-weight="400" font-size="24" transform="translate(601.979 598)">𝑘</text><text fill="#4B5E68" font-family="Cambria Math,Cambria Math_MSFontService,sans-serif" font-weight="400" font-size="24" transform="translate(615.846 598)">)</text><text fill="#4B5E68" font-family="Cambria Math,Cambria Math_MSFontService,sans-serif" font-weight="400" font-size="24" transform="translate(625.846 598)"></text><text fill="#3261AB" font-family="Cambria Math,Cambria Math_MSFontService,sans-serif" font-weight="400" font-size="27" transform="translate(245.852 655)">𝒇</text><text fill="#3261AB" font-family="Cambria Math,Cambria Math_MSFontService,sans-serif" font-weight="400" font-size="19" transform="translate(260.852 661)">𝒖</text><path d="M303.549 634.898C306.116 635.575 308.087 637.036 309.462 639.282 310.838 641.527 311.525 644.237 311.525 647.409 311.525 650.591 310.84 653.3 309.469 655.537 308.098 657.774 306.125 659.231 303.549 659.907L303.233 658.892C305.263 658.216 306.773 656.88 307.762 654.885 308.75 652.889 309.245 650.354 309.245 647.278 309.245 644.307 308.753 641.839 307.768 639.875 306.784 637.911 305.259 636.59 303.193 635.913ZM284.808 634.898 285.164 635.913C283.108 636.59 281.585 637.911 280.596 639.875 279.607 641.839 279.113 644.307 279.113 647.278 279.113 650.354 279.607 652.889 280.596 654.885 281.585 656.88 283.094 658.216 285.125 658.892L284.808 659.907C282.233 659.231 280.26 657.774 278.889 655.537 277.518 653.3 276.832 650.591 276.832 647.409 276.832 644.237 277.52 641.527 278.895 639.282 280.271 637.036 282.242 635.575 284.808 634.898Z" fill="#3261AB" fill-rule="evenodd"/><text fill="#3261AB" font-family="Cambria Math,Cambria Math_MSFontService,sans-serif" font-weight="400" font-size="27" transform="translate(285.526 655)">𝒖</text><text fill="#3261AB" font-family="Cambria Math,Cambria Math_MSFontService,sans-serif" font-weight="400" font-size="27" transform="translate(321.166 655)">=</text><text fill="#3261AB" font-family="Cambria Math,Cambria Math_MSFontService,sans-serif" font-weight="400" font-size="27" transform="translate(348.572 655)">𝟏</text><text fill="#3261AB" font-family="Cambria Math,Cambria Math_MSFontService,sans-serif" font-weight="400" font-size="27" transform="translate(370.499 655)">−</text><path d="M473.475 635.136 475.506 635.136 475.506 659.671 473.475 659.671ZM399.682 635.136 401.712 635.136 401.712 659.671 399.682 659.671Z" fill="#3261AB" fill-rule="evenodd"/><text fill="#3261AB" font-family="Cambria Math,Cambria Math_MSFontService,sans-serif" font-weight="400" font-size="27" transform="translate(404.866 655)">𝒖</text><text fill="#3261AB" font-family="Cambria Math,Cambria Math_MSFontService,sans-serif" font-weight="400" font-size="27" transform="translate(427.959 655)">−</text><text fill="#3261AB" font-family="Cambria Math,Cambria Math_MSFontService,sans-serif" font-weight="400" font-size="27" transform="translate(453.886 655)">𝒌</text><text fill="#3261AB" font-family="Cambria Math,Cambria Math_MSFontService,sans-serif" font-weight="400" font-size="24" transform="translate(657.709 163)">𝐺</text><path d="M698.517 144.93C700.798 145.531 702.55 146.83 703.773 148.826 704.995 150.822 705.607 153.231 705.607 156.051 705.607 158.879 704.997 161.287 703.779 163.275 702.56 165.264 700.806 166.559 698.517 167.16L698.236 166.258C700.04 165.656 701.382 164.469 702.261 162.695 703.14 160.922 703.579 158.668 703.579 155.934 703.579 153.293 703.142 151.1 702.267 149.354 701.392 147.607 700.036 146.434 698.201 145.832ZM683.128 144.93 683.444 145.832C681.616 146.434 680.263 147.607 679.384 149.354 678.505 151.1 678.065 153.293 678.065 155.934 678.065 158.668 678.505 160.922 679.384 162.695 680.263 164.469 681.604 165.656 683.409 166.258L683.128 167.16C680.839 166.559 679.085 165.264 677.866 163.275 676.647 161.287 676.038 158.879 676.038 156.051 676.038 153.231 676.649 150.822 677.872 148.826 679.095 146.83 680.846 145.531 683.128 144.93Z" fill="#3261AB" fill-rule="evenodd"/><text fill="#3261AB" font-family="Cambria Math,Cambria Math_MSFontService,sans-serif" font-weight="400" font-size="24" transform="translate(683.889 163)">𝑘</text><text fill="#3261AB" font-family="Cambria Math,Cambria Math_MSFontService,sans-serif" font-weight="400" font-size="24" transform="translate(714.382 163)">=</text><path d="M16.4414-29.7656 15.1406-29.7656C15.1172-30.1953 15.0234-30.5215 14.8594-30.7441 14.6953-30.9668 14.3945-31.0781 13.957-31.0781 12.8633-31.0781 12.0664-29.8477 11.5664-27.3867 11.0664-24.9258 10.6172-18.1328 10.2188-7.00781 9.82031 3 9.04492 9.83984 7.89258 13.5117 6.74023 17.1836 5.18359 19.0195 3.22266 19.0195 2.82422 19.0195 2.45703 18.9883 2.12109 18.9258 1.78516 18.8633 1.48828 18.7617 1.23047 18.6211L1.45312 16.0547 2.63672 16.0547C2.75391 16.5703 2.90625 16.9316 3.09375 17.1387 3.28125 17.3457 3.56641 17.4492 3.94922 17.4492 4.65234 17.4492 5.32812 16.2344 5.97656 13.8047 6.625 11.375 7.13281 5.01953 7.5-5.26172 7.95312-16.418 8.68164-23.7637 9.68555-27.2988 10.6895-30.834 12.3516-32.6016 14.6719-32.6016 15.0859-32.6016 15.4629-32.5645 15.8027-32.4902 16.1426-32.416 16.4297-32.3242 16.6641-32.2148Z" fill="#3261AB" transform="translate(739.049 163)"/><text fill="#000000" fill-opacity="0" font-family="Arial,Arial_MSFontService,sans-serif" font-size="51.6211" x="1.23047" y="12.5669">න</text><text fill="#3261AB" font-family="Cambria Math,Cambria Math_MSFontService,sans-serif" font-weight="400" font-size="24" transform="translate(792.422 163)">𝑔</text><path d="M832.664 144.93C834.945 145.531 836.697 146.83 837.919 148.826 839.142 150.822 839.753 153.231 839.753 156.051 839.753 158.879 839.144 161.287 837.925 163.275 836.707 165.264 834.953 166.559 832.664 167.16L832.382 166.258C834.187 165.656 835.529 164.469 836.408 162.695 837.287 160.922 837.726 158.668 837.726 155.934 837.726 153.293 837.289 151.1 836.414 149.354 835.539 147.607 834.183 146.434 832.347 145.832ZM816.701 144.93 817.018 145.832C815.189 146.434 813.836 147.607 812.957 149.354 812.078 151.1 811.639 153.293 811.639 155.934 811.639 158.668 812.078 160.922 812.957 162.695 813.836 164.469 815.178 165.656 816.982 166.258L816.701 167.16C814.412 166.559 812.658 165.264 811.439 163.275 810.221 161.287 809.611 158.879 809.611 156.051 809.611 153.231 810.223 150.822 811.445 148.826 812.668 146.83 814.42 145.531 816.701 144.93Z" fill="#3261AB" fill-rule="evenodd"/><text fill="#3261AB" font-family="Cambria Math,Cambria Math_MSFontService,sans-serif" font-weight="400" font-size="24" transform="translate(817.462 163)">𝑢</text><text fill="#3261AB" font-family="Cambria Math,Cambria Math_MSFontService,sans-serif" font-weight="400" font-size="24" transform="translate(841.862 163)">𝑓</text><text fill="#3261AB" font-family="Cambria Math,Cambria Math_MSFontService,sans-serif" font-weight="400" font-size="18" transform="translate(850.342 168)">𝑢</text><path d="M888.13 144.93C890.411 145.531 892.163 146.83 893.386 148.826 894.609 150.822 895.22 153.231 895.22 156.051 895.22 158.879 894.611 161.287 893.392 163.275 892.173 165.264 890.419 166.559 888.13 167.16L887.849 166.258C889.654 165.656 890.995 164.469 891.874 162.695 892.753 160.922 893.193 158.668 893.193 155.934 893.193 153.293 892.755 151.1 891.88 149.354 891.005 147.607 889.65 146.434 887.814 145.832ZM872.168 144.93 872.484 145.832C870.656 146.434 869.303 147.607 868.424 149.354 867.545 151.1 867.105 153.293 867.105 155.934 867.105 158.668 867.545 160.922 868.424 162.695 869.303 164.469 870.644 165.656 872.449 166.258L872.168 167.16C869.879 166.559 868.125 165.264 866.906 163.275 865.687 161.287 865.078 158.879 865.078 156.051 865.078 153.231 865.689 150.822 866.912 148.826 868.135 146.83 869.887 145.531 872.168 144.93Z" fill="#3261AB" fill-rule="evenodd"/><text fill="#3261AB" font-family="Cambria Math,Cambria Math_MSFontService,sans-serif" font-weight="400" font-size="24" transform="translate(872.929 163)">𝑢</text><text fill="#3261AB" font-family="Cambria Math,Cambria Math_MSFontService,sans-serif" font-weight="400" font-size="24" transform="translate(897.329 163)">𝑑𝑢</text><text fill="#3261AB" font-family="Cambria Math,Cambria Math_MSFontService,sans-serif" font-weight="400" font-size="18" transform="translate(758.409 136)">𝑘</text><text fill="#3261AB" font-family="Cambria Math,Cambria Math_MSFontService,sans-serif" font-weight="400" font-size="18" transform="translate(769.589 136)">+</text><text fill="#3261AB" font-family="Cambria Math,Cambria Math_MSFontService,sans-serif" font-weight="400" font-size="18" transform="translate(782.255 136)">1</text><text fill="#3261AB" font-family="Cambria Math,Cambria Math_MSFontService,sans-serif" font-weight="400" font-size="18" transform="translate(749.562 186)">𝑘</text><text fill="#3261AB" font-family="Cambria Math,Cambria Math_MSFontService,sans-serif" font-weight="400" font-size="18" transform="translate(760.742 186)">−</text><text fill="#3261AB" font-family="Cambria Math,Cambria Math_MSFontService,sans-serif" font-weight="400" font-size="18" transform="translate(773.409 186)">1</text><text fill="#4B5E68" font-family="Cambria Math,Cambria Math_MSFontService,sans-serif" font-weight="400" font-size="24" transform="translate(710.843 247)">=</text><path d="M802.098 229.424C804.379 230.026 806.131 231.325 807.354 233.321 808.576 235.317 809.188 237.725 809.188 240.545 809.188 243.373 808.578 245.782 807.359 247.77 806.141 249.758 804.387 251.053 802.098 251.655L801.817 250.752C803.621 250.151 804.963 248.963 805.842 247.19 806.721 245.416 807.16 243.163 807.16 240.428 807.16 237.788 806.723 235.594 805.848 233.848 804.973 232.102 803.617 230.928 801.781 230.327ZM744.709 229.424 745.025 230.327C743.197 230.928 741.843 232.102 740.964 233.848 740.086 235.594 739.646 237.788 739.646 240.428 739.646 243.163 740.086 245.416 740.964 247.19 741.843 248.963 743.185 250.151 744.99 250.752L744.709 251.655C742.42 251.053 740.666 249.758 739.447 247.77 738.228 245.782 737.619 243.373 737.619 240.545 737.619 237.725 738.23 235.317 739.453 233.321 740.675 231.325 742.427 230.026 744.709 229.424Z" fill="#4B5E68" fill-rule="evenodd"/><text fill="#4B5E68" font-family="Cambria Math,Cambria Math_MSFontService,sans-serif" font-weight="400" font-size="24" transform="translate(745.469 247)">1</text><text fill="#4B5E68" font-family="Cambria Math,Cambria Math_MSFontService,sans-serif" font-weight="400" font-size="24" transform="translate(764.136 247)">+</text><text fill="#4B5E68" font-family="Cambria Math,Cambria Math_MSFontService,sans-serif" font-weight="400" font-size="24" transform="translate(787.469 247)">𝑘</text><path d="M16.4414-29.7656 15.1406-29.7656C15.1172-30.1953 15.0234-30.5215 14.8594-30.7441 14.6953-30.9668 14.3945-31.0781 13.957-31.0781 12.8633-31.0781 12.0664-29.8477 11.5664-27.3867 11.0664-24.9258 10.6172-18.1328 10.2188-7.00781 9.82031 3 9.04492 9.83984 7.89258 13.5117 6.74023 17.1836 5.18359 19.0195 3.22266 19.0195 2.82422 19.0195 2.45703 18.9883 2.12109 18.9258 1.78516 18.8633 1.48828 18.7617 1.23047 18.6211L1.45312 16.0547 2.63672 16.0547C2.75391 16.5703 2.90625 16.9316 3.09375 17.1387 3.28125 17.3457 3.56641 17.4492 3.94922 17.4492 4.65234 17.4492 5.32812 16.2344 5.97656 13.8047 6.625 11.375 7.13281 5.01953 7.5-5.26172 7.95312-16.418 8.68164-23.7637 9.68555-27.2988 10.6895-30.834 12.3516-32.6016 14.6719-32.6016 15.0859-32.6016 15.4629-32.5645 15.8027-32.4902 16.1426-32.416 16.4297-32.3242 16.6641-32.2148Z" fill="#4B5E68" transform="translate(815.296 247)"/><text fill="#000000" fill-opacity="0" font-family="Arial,Arial_MSFontService,sans-serif" font-size="51.6211" x="1.23047" y="12.5669">න</text><text fill="#4B5E68" font-family="Cambria Math,Cambria Math_MSFontService,sans-serif" font-weight="400" font-size="24" transform="translate(868.669 247)">𝑔</text><path d="M908.911 229.424C911.192 230.026 912.944 231.325 914.167 233.321 915.39 235.317 916.001 237.725 916.001 240.545 916.001 243.373 915.392 245.782 914.173 247.77 912.954 249.758 911.2 251.053 908.911 251.655L908.63 250.752C910.435 250.151 911.776 248.963 912.655 247.19 913.534 245.416 913.974 243.163 913.974 240.428 913.974 237.788 913.536 235.594 912.661 233.848 911.786 232.102 910.431 230.928 908.595 230.327ZM892.949 229.424 893.265 230.327C891.437 230.928 890.083 232.102 889.204 233.848 888.326 235.594 887.886 237.788 887.886 240.428 887.886 243.163 888.326 245.416 889.204 247.19 890.083 248.963 891.425 250.151 893.23 250.752L892.949 251.655C890.66 251.053 888.906 249.758 887.687 247.77 886.468 245.782 885.859 243.373 885.859 240.545 885.859 237.725 886.47 235.317 887.693 233.321 888.915 231.325 890.667 230.026 892.949 229.424Z" fill="#4B5E68" fill-rule="evenodd"/><text fill="#4B5E68" font-family="Cambria Math,Cambria Math_MSFontService,sans-serif" font-weight="400" font-size="24" transform="translate(893.709 247)">𝑢</text><text fill="#4B5E68" font-family="Cambria Math,Cambria Math_MSFontService,sans-serif" font-weight="400" font-size="24" transform="translate(918.109 247)">𝑑𝑢</text><text fill="#4B5E68" font-family="Cambria Math,Cambria Math_MSFontService,sans-serif" font-weight="400" font-size="24" transform="translate(946.383 247)"></text><text fill="#4B5E68" font-family="Cambria Math,Cambria Math_MSFontService,sans-serif" font-weight="400" font-size="18" transform="translate(834.656 220)">𝑘</text><text fill="#4B5E68" font-family="Cambria Math,Cambria Math_MSFontService,sans-serif" font-weight="400" font-size="18" transform="translate(845.836 220)">+</text><text fill="#4B5E68" font-family="Cambria Math,Cambria Math_MSFontService,sans-serif" font-weight="400" font-size="18" transform="translate(858.503 220)">1</text><text fill="#4B5E68" font-family="Cambria Math,Cambria Math_MSFontService,sans-serif" font-weight="400" font-size="18" transform="translate(825.809 270)">0</text><text fill="#4B5E68" font-family="Cambria Math,Cambria Math_MSFontService,sans-serif" font-weight="400" font-size="24" transform="translate(957.049 247)">−</text><text fill="#4B5E68" font-family="Cambria Math,Cambria Math_MSFontService,sans-serif" font-weight="400" font-size="24" transform="translate(980.383 247)">2𝑘</text><path d="M16.4414-29.7656 15.1406-29.7656C15.1172-30.1953 15.0234-30.5215 14.8594-30.7441 14.6953-30.9668 14.3945-31.0781 13.957-31.0781 12.8633-31.0781 12.0664-29.8477 11.5664-27.3867 11.0664-24.9258 10.6172-18.1328 10.2188-7.00781 9.82031 3 9.04492 9.83984 7.89258 13.5117 6.74023 17.1836 5.18359 19.0195 3.22266 19.0195 2.82422 19.0195 2.45703 18.9883 2.12109 18.9258 1.78516 18.8633 1.48828 18.7617 1.23047 18.6211L1.45312 16.0547 2.63672 16.0547C2.75391 16.5703 2.90625 16.9316 3.09375 17.1387 3.28125 17.3457 3.56641 17.4492 3.94922 17.4492 4.65234 17.4492 5.32812 16.2344 5.97656 13.8047 6.625 11.375 7.13281 5.01953 7.5-5.26172 7.95312-16.418 8.68164-23.7637 9.68555-27.2988 10.6895-30.834 12.3516-32.6016 14.6719-32.6016 15.0859-32.6016 15.4629-32.5645 15.8027-32.4902 16.1426-32.416 16.4297-32.3242 16.6641-32.2148Z" fill="#4B5E68" transform="translate(1011.58 247)"/><text fill="#000000" fill-opacity="0" font-family="Arial,Arial_MSFontService,sans-serif" font-size="51.6211" x="1.23047" y="12.5669">න</text><text fill="#4B5E68" font-family="Cambria Math,Cambria Math_MSFontService,sans-serif" font-weight="400" font-size="24" transform="translate(1042.12 247)">𝑔</text><path d="M1082.36 229.424C1084.65 230.026 1086.4 231.325 1087.62 233.321 1088.84 235.317 1089.45 237.725 1089.45 240.545 1089.45 243.373 1088.84 245.782 1087.63 247.77 1086.41 249.758 1084.65 251.053 1082.36 251.655L1082.08 250.752C1083.89 250.151 1085.23 248.963 1086.11 247.19 1086.99 245.416 1087.43 243.163 1087.43 240.428 1087.43 237.788 1086.99 235.594 1086.11 233.848 1085.24 232.102 1083.88 230.928 1082.05 230.327ZM1066.4 229.424 1066.72 230.327C1064.89 230.928 1063.54 232.102 1062.66 233.848 1061.78 235.594 1061.34 237.788 1061.34 240.428 1061.34 243.163 1061.78 245.416 1062.66 247.19 1063.54 248.963 1064.88 250.151 1066.68 250.752L1066.4 251.655C1064.11 251.053 1062.36 249.758 1061.14 247.77 1059.92 245.782 1059.31 243.373 1059.31 240.545 1059.31 237.725 1059.92 235.317 1061.15 233.321 1062.37 231.325 1064.12 230.026 1066.4 229.424Z" fill="#4B5E68" fill-rule="evenodd"/><text fill="#4B5E68" font-family="Cambria Math,Cambria Math_MSFontService,sans-serif" font-weight="400" font-size="24" transform="translate(1067.16 247)">𝑢</text><text fill="#4B5E68" font-family="Cambria Math,Cambria Math_MSFontService,sans-serif" font-weight="400" font-size="24" transform="translate(1091.56 247)">𝑑</text><text fill="#4B5E68" font-family="Cambria Math,Cambria Math_MSFontService,sans-serif" font-weight="400" font-size="24" transform="translate(1105.4 247)">𝑢</text><text fill="#4B5E68" font-family="Cambria Math,Cambria Math_MSFontService,sans-serif" font-weight="400" font-size="24" transform="translate(1125.17 247)">+</text><text fill="#4B5E68" font-family="Cambria Math,Cambria Math_MSFontService,sans-serif" font-weight="400" font-size="24" transform="translate(1143.17 247)"></text><text fill="#4B5E68" font-family="Cambria Math,Cambria Math_MSFontService,sans-serif" font-weight="400" font-size="18" transform="translate(1030.94 220)">𝑘</text><text fill="#4B5E68" font-family="Cambria Math,Cambria Math_MSFontService,sans-serif" font-weight="400" font-size="18" transform="translate(1022.1 270)">0</text><path d="M776.861 307.565C779.142 308.167 780.894 309.466 782.117 311.462 783.34 313.458 783.951 315.866 783.951 318.686 783.951 321.515 783.342 323.923 782.123 325.911 780.904 327.899 779.15 329.194 776.861 329.796L776.58 328.893C778.385 328.292 779.726 327.104 780.605 325.331 781.484 323.558 781.924 321.304 781.924 318.569 781.924 315.929 781.486 313.735 780.611 311.989 779.736 310.243 778.381 309.069 776.545 308.468ZM719.472 307.565 719.788 308.468C717.96 309.069 716.607 310.243 715.728 311.989 714.849 313.735 714.409 315.929 714.409 318.569 714.409 321.304 714.849 323.558 715.728 325.331 716.607 327.104 717.948 328.292 719.753 328.893L719.472 329.796C717.183 329.194 715.429 327.899 714.21 325.911 712.991 323.923 712.382 321.515 712.382 318.686 712.382 315.866 712.993 313.458 714.216 311.462 715.439 309.466 717.191 308.167 719.472 307.565Z" fill="#4B5E68" fill-rule="evenodd"/><text fill="#4B5E68" font-family="Cambria Math,Cambria Math_MSFontService,sans-serif" font-weight="400" font-size="24" transform="translate(720.233 326)">𝑘</text><text fill="#4B5E68" font-family="Cambria Math,Cambria Math_MSFontService,sans-serif" font-weight="400" font-size="24" transform="translate(739.433 326)">−</text><text fill="#4B5E68" font-family="Cambria Math,Cambria Math_MSFontService,sans-serif" font-weight="400" font-size="24" transform="translate(762.766 326)">1</text><path d="M16.4414-29.7656 15.1406-29.7656C15.1172-30.1953 15.0234-30.5215 14.8594-30.7441 14.6953-30.9668 14.3945-31.0781 13.957-31.0781 12.8633-31.0781 12.0664-29.8477 11.5664-27.3867 11.0664-24.9258 10.6172-18.1328 10.2188-7.00781 9.82031 3 9.04492 9.83984 7.89258 13.5117 6.74023 17.1836 5.18359 19.0195 3.22266 19.0195 2.82422 19.0195 2.45703 18.9883 2.12109 18.9258 1.78516 18.8633 1.48828 18.7617 1.23047 18.6211L1.45312 16.0547 2.63672 16.0547C2.75391 16.5703 2.90625 16.9316 3.09375 17.1387 3.28125 17.3457 3.56641 17.4492 3.94922 17.4492 4.65234 17.4492 5.32812 16.2344 5.97656 13.8047 6.625 11.375 7.13281 5.01953 7.5-5.26172 7.95312-16.418 8.68164-23.7637 9.68555-27.2988 10.6895-30.834 12.3516-32.6016 14.6719-32.6016 15.0859-32.6016 15.4629-32.5645 15.8027-32.4902 16.1426-32.416 16.4297-32.3242 16.6641-32.2148Z" fill="#4B5E68" transform="translate(790.059 325)"/><text fill="#000000" fill-opacity="0" font-family="Arial,Arial_MSFontService,sans-serif" font-size="51.6211" x="1.23047" y="12.5669">න</text><text fill="#4B5E68" font-family="Cambria Math,Cambria Math_MSFontService,sans-serif" font-weight="400" font-size="24" transform="translate(843.433 326)">𝑔</text><path d="M883.674 307.565C885.956 308.167 887.708 309.466 888.93 311.462 890.153 313.458 890.764 315.866 890.764 318.686 890.764 321.515 890.155 323.923 888.936 325.911 887.717 327.899 885.963 329.194 883.674 329.796L883.393 328.893C885.198 328.292 886.54 327.104 887.419 325.331 888.297 323.558 888.737 321.304 888.737 318.569 888.737 315.929 888.299 313.735 887.424 311.989 886.549 310.243 885.194 309.069 883.358 308.468ZM867.712 307.565 868.028 308.468C866.2 309.069 864.847 310.243 863.968 311.989 863.089 313.735 862.649 315.929 862.649 318.569 862.649 321.304 863.089 323.558 863.968 325.331 864.847 327.104 866.188 328.292 867.993 328.893L867.712 329.796C865.423 329.194 863.669 327.899 862.45 325.911 861.231 323.923 860.622 321.515 860.622 318.686 860.622 315.866 861.233 313.458 862.456 311.462 863.679 309.466 865.431 308.167 867.712 307.565Z" fill="#4B5E68" fill-rule="evenodd"/><text fill="#4B5E68" font-family="Cambria Math,Cambria Math_MSFontService,sans-serif" font-weight="400" font-size="24" transform="translate(868.473 326)">𝑢</text><text fill="#4B5E68" font-family="Cambria Math,Cambria Math_MSFontService,sans-serif" font-weight="400" font-size="24" transform="translate(892.873 326)">𝑑𝑢</text><text fill="#4B5E68" font-family="Cambria Math,Cambria Math_MSFontService,sans-serif" font-weight="400" font-size="24" transform="translate(921.146 326)"></text><text fill="#4B5E68" font-family="Cambria Math,Cambria Math_MSFontService,sans-serif" font-weight="400" font-size="18" transform="translate(809.419 298)">𝑘</text><text fill="#4B5E68" font-family="Cambria Math,Cambria Math_MSFontService,sans-serif" font-weight="400" font-size="18" transform="translate(820.599 298)">−</text><text fill="#4B5E68" font-family="Cambria Math,Cambria Math_MSFontService,sans-serif" font-weight="400" font-size="18" transform="translate(833.266 298)">1</text><text fill="#4B5E68" font-family="Cambria Math,Cambria Math_MSFontService,sans-serif" font-weight="400" font-size="18" transform="translate(800.573 348)">0</text><text fill="#4B5E68" font-family="Cambria Math,Cambria Math_MSFontService,sans-serif" font-weight="400" font-size="24" transform="translate(931.813 326)">+</text><path d="M16.4414-29.7656 15.1406-29.7656C15.1172-30.1953 15.0234-30.5215 14.8594-30.7441 14.6953-30.9668 14.3945-31.0781 13.957-31.0781 12.8633-31.0781 12.0664-29.8477 11.5664-27.3867 11.0664-24.9258 10.6172-18.1328 10.2188-7.00781 9.82031 3 9.04492 9.83984 7.89258 13.5117 6.74023 17.1836 5.18359 19.0195 3.22266 19.0195 2.82422 19.0195 2.45703 18.9883 2.12109 18.9258 1.78516 18.8633 1.48828 18.7617 1.23047 18.6211L1.45312 16.0547 2.63672 16.0547C2.75391 16.5703 2.90625 16.9316 3.09375 17.1387 3.28125 17.3457 3.56641 17.4492 3.94922 17.4492 4.65234 17.4492 5.32812 16.2344 5.97656 13.8047 6.625 11.375 7.13281 5.01953 7.5-5.26172 7.95312-16.418 8.68164-23.7637 9.68555-27.2988 10.6895-30.834 12.3516-32.6016 14.6719-32.6016 15.0859-32.6016 15.4629-32.5645 15.8027-32.4902 16.1426-32.416 16.4297-32.3242 16.6641-32.2148Z" fill="#4B5E68" transform="translate(955.146 325)"/><text fill="#000000" fill-opacity="0" font-family="Arial,Arial_MSFontService,sans-serif" font-size="51.6211" x="1.23047" y="12.5669">න</text><text fill="#4B5E68" font-family="Cambria Math,Cambria Math_MSFontService,sans-serif" font-weight="400" font-size="24" transform="translate(999.673 326)">𝑢</text><text fill="#4B5E68" font-family="Cambria Math,Cambria Math_MSFontService,sans-serif" font-weight="400" font-size="24" transform="translate(1013.51 326)">𝑔</text><path d="M1053.75 307.565C1056.03 308.167 1057.78 309.466 1059 311.462 1060.23 313.458 1060.84 315.866 1060.84 318.686 1060.84 321.515 1060.23 323.923 1059.01 325.911 1057.79 327.899 1056.04 329.194 1053.75 329.796L1053.47 328.893C1055.27 328.292 1056.61 327.104 1057.49 325.331 1058.37 323.558 1058.81 321.304 1058.81 318.569 1058.81 315.929 1058.37 313.735 1057.5 311.989 1056.62 310.243 1055.27 309.069 1053.43 308.468ZM1037.79 307.565 1038.1 308.468C1036.27 309.069 1034.92 310.243 1034.04 311.989 1033.16 313.735 1032.72 315.929 1032.72 318.569 1032.72 321.304 1033.16 323.558 1034.04 325.331 1034.92 327.104 1036.26 328.292 1038.07 328.893L1037.79 329.796C1035.5 329.194 1033.74 327.899 1032.52 325.911 1031.3 323.923 1030.7 321.515 1030.7 318.686 1030.7 315.866 1031.31 313.458 1032.53 311.462 1033.75 309.466 1035.5 308.167 1037.79 307.565Z" fill="#4B5E68" fill-rule="evenodd"/><text fill="#4B5E68" font-family="Cambria Math,Cambria Math_MSFontService,sans-serif" font-weight="400" font-size="24" transform="translate(1038.55 326)">𝑢</text><text fill="#4B5E68" font-family="Cambria Math,Cambria Math_MSFontService,sans-serif" font-weight="400" font-size="24" transform="translate(1062.95 326)">𝑑</text><text fill="#4B5E68" font-family="Cambria Math,Cambria Math_MSFontService,sans-serif" font-weight="400" font-size="24" transform="translate(1076.78 326)">𝑢</text><text fill="#4B5E68" font-family="Cambria Math,Cambria Math_MSFontService,sans-serif" font-weight="400" font-size="18" transform="translate(974.506 298)">𝑘</text><text fill="#4B5E68" font-family="Cambria Math,Cambria Math_MSFontService,sans-serif" font-weight="400" font-size="18" transform="translate(965.659 348)">𝑘</text><text fill="#4B5E68" font-family="Cambria Math,Cambria Math_MSFontService,sans-serif" font-weight="400" font-size="18" transform="translate(976.839 348)">−</text><text fill="#4B5E68" font-family="Cambria Math,Cambria Math_MSFontService,sans-serif" font-weight="400" font-size="18" transform="translate(989.506 348)">1</text><text fill="#4B5E68" font-family="Cambria Math,Cambria Math_MSFontService,sans-serif" font-weight="400" font-size="24" transform="translate(1096.55 326)">−</text><path d="M16.4414-29.7656 15.1406-29.7656C15.1172-30.1953 15.0234-30.5215 14.8594-30.7441 14.6953-30.9668 14.3945-31.0781 13.957-31.0781 12.8633-31.0781 12.0664-29.8477 11.5664-27.3867 11.0664-24.9258 10.6172-18.1328 10.2188-7.00781 9.82031 3 9.04492 9.83984 7.89258 13.5117 6.74023 17.1836 5.18359 19.0195 3.22266 19.0195 2.82422 19.0195 2.45703 18.9883 2.12109 18.9258 1.78516 18.8633 1.48828 18.7617 1.23047 18.6211L1.45312 16.0547 2.63672 16.0547C2.75391 16.5703 2.90625 16.9316 3.09375 17.1387 3.28125 17.3457 3.56641 17.4492 3.94922 17.4492 4.65234 17.4492 5.32812 16.2344 5.97656 13.8047 6.625 11.375 7.13281 5.01953 7.5-5.26172 7.95312-16.418 8.68164-23.7637 9.68555-27.2988 10.6895-30.834 12.3516-32.6016 14.6719-32.6016 15.0859-32.6016 15.4629-32.5645 15.8027-32.4902 16.1426-32.416 16.4297-32.3242 16.6641-32.2148Z" fill="#4B5E68" transform="translate(1119.89 325)"/><text fill="#000000" fill-opacity="0" font-family="Arial,Arial_MSFontService,sans-serif" font-size="51.6211" x="1.23047" y="12.5669">න</text><text fill="#4B5E68" font-family="Cambria Math,Cambria Math_MSFontService,sans-serif" font-weight="400" font-size="24" transform="translate(1173.26 326)">𝑢𝑔</text><path d="M1227.33 307.565C1229.62 308.167 1231.37 309.466 1232.59 311.462 1233.81 313.458 1234.42 315.866 1234.42 318.686 1234.42 321.515 1233.81 323.923 1232.6 325.911 1231.38 327.899 1229.62 329.194 1227.33 329.796L1227.05 328.893C1228.86 328.292 1230.2 327.104 1231.08 325.331 1231.96 323.558 1232.4 321.304 1232.4 318.569 1232.4 315.929 1231.96 313.735 1231.08 311.989 1230.21 310.243 1228.85 309.069 1227.02 308.468ZM1211.37 307.565 1211.69 308.468C1209.86 309.069 1208.51 310.243 1207.63 311.989 1206.75 313.735 1206.31 315.929 1206.31 318.569 1206.31 321.304 1206.75 323.558 1207.63 325.331 1208.51 327.104 1209.85 328.292 1211.65 328.893L1211.37 329.796C1209.08 329.194 1207.33 327.899 1206.11 325.911 1204.89 323.923 1204.28 321.515 1204.28 318.686 1204.28 315.866 1204.89 313.458 1206.12 311.462 1207.34 309.466 1209.09 308.167 1211.37 307.565Z" fill="#4B5E68" fill-rule="evenodd"/><text fill="#4B5E68" font-family="Cambria Math,Cambria Math_MSFontService,sans-serif" font-weight="400" font-size="24" transform="translate(1212.13 326)">𝑢</text><text fill="#4B5E68" font-family="Cambria Math,Cambria Math_MSFontService,sans-serif" font-weight="400" font-size="24" transform="translate(1236.53 326)">𝑑</text><text fill="#4B5E68" font-family="Cambria Math,Cambria Math_MSFontService,sans-serif" font-weight="400" font-size="24" transform="translate(1250.37 326)">𝑢</text><text fill="#4B5E68" font-family="Cambria Math,Cambria Math_MSFontService,sans-serif" font-weight="400" font-size="24" transform="translate(1264.81 326)"></text><text fill="#4B5E68" font-family="Cambria Math,Cambria Math_MSFontService,sans-serif" font-weight="400" font-size="18" transform="translate(1139.25 298)">𝑘</text><text fill="#4B5E68" font-family="Cambria Math,Cambria Math_MSFontService,sans-serif" font-weight="400" font-size="18" transform="translate(1150.43 298)">+</text><text fill="#4B5E68" font-family="Cambria Math,Cambria Math_MSFontService,sans-serif" font-weight="400" font-size="18" transform="translate(1163.09 298)">1</text><text fill="#4B5E68" font-family="Cambria Math,Cambria Math_MSFontService,sans-serif" font-weight="400" font-size="18" transform="translate(1130.4 348)">𝑘</text><g><path d="M769.5 577.5 1180.5 577.5M769.5 536.5 1180.5 536.5M769.5 495.5 1180.5 495.5M769.5 454.5 1180.5 454.5M769.5 413.5 1180.5 413.5" stroke="#D9D9D9" stroke-linejoin="round" stroke-miterlimit="10" fill="none"/></g><g><path d="M872.5 413.5 872.5 618.5M974.5 413.5 974.5 618.5M1077.5 413.5 1077.5 618.5M1180.5 413.5 1180.5 618.5" stroke="#D9D9D9" stroke-linejoin="round" stroke-miterlimit="10" fill="none"/></g><g><rect x="770" y="414" width="410" height="205" stroke="#000000" stroke-width="1.66667" stroke-linejoin="round" stroke-miterlimit="10" fill="none"/></g><g><path d="M0 0 0.000104987 205" stroke="#000000" stroke-width="1.66667" stroke-linejoin="round" stroke-miterlimit="10" fill="none" fill-rule="evenodd" transform="matrix(1 0 0 -1 770 619)"/></g><g><path d="M764 619 770 619M764 578 770 578M764 537 770 537M764 496 770 496M764 455 770 455M764 414 770 414" stroke="#000000" stroke-width="1.66667" stroke-linejoin="round" stroke-miterlimit="10" fill="none"/></g><g><path d="M770 619 1180 619" stroke="#000000" stroke-width="1.66667" stroke-linejoin="round" stroke-miterlimit="10" fill="none" fill-rule="evenodd"/></g><g><path d="M770 619 770 624M872 619 872 624M975 619 975 624M1077 619 1077 624M1180 619 1180 624" stroke="#000000" stroke-width="1.66667" stroke-linejoin="round" stroke-miterlimit="10" fill="none"/></g><g><path d="M769.5 618.5 790.5 598.5 810.5 577.5 831.5 557.5 851.5 536.5 872.5 516.5 892.5 495.5 913.5 475.5 933.5 454.5 954.5 434.5 974.5 413.5 995.5 434.5 1015.5 454.5 1036.5 475.5 1056.5 495.5 1077.5 516.5 1098.5 536.5 1118.5 557.5 1139.5 577.5 1159.5 598.5 1180.5 618.5" stroke="#264980" stroke-width="3" stroke-linecap="round" stroke-linejoin="round" stroke-miterlimit="10" fill="none"/></g><g><text font-family="Arial,Arial_MSFontService,sans-serif" font-weight="400" font-size="19" transform="translate(743.396 625)">0</text></g><g><text font-family="Arial,Arial_MSFontService,sans-serif" font-weight="400" font-size="19" transform="translate(727.83 584)">0.2</text></g><g><text font-family="Arial,Arial_MSFontService,sans-serif" font-weight="400" font-size="19" transform="translate(727.83 543)">0.4</text></g><g><text font-family="Arial,Arial_MSFontService,sans-serif" font-weight="400" font-size="19" transform="translate(727.83 502)">0.6</text></g><g><text font-family="Arial,Arial_MSFontService,sans-serif" font-weight="400" font-size="19" transform="translate(727.83 461)">0.8</text></g><g><text font-family="Arial,Arial_MSFontService,sans-serif" font-weight="400" font-size="19" transform="translate(743.396 420)">1</text></g><g><text fill="#FFFFFF" font-family="Yu Gothic,Yu Gothic_MSFontService,sans-serif" font-weight="400" font-size="16" transform="translate(765.386 645)">1</text></g><g><text fill="#FFFFFF" font-family="Yu Gothic,Yu Gothic_MSFontService,sans-serif" font-weight="400" font-size="16" transform="translate(861.426 645)">1.5</text></g><g><text fill="#FFFFFF" font-family="Yu Gothic,Yu Gothic_MSFontService,sans-serif" font-weight="400" font-size="16" transform="translate(970.491 645)">2</text></g><g><text fill="#FFFFFF" font-family="Yu Gothic,Yu Gothic_MSFontService,sans-serif" font-weight="400" font-size="16" transform="translate(1066.53 645)">2.5</text></g><g><text fill="#FFFFFF" font-family="Yu Gothic,Yu Gothic_MSFontService,sans-serif" font-weight="400" font-size="16" transform="translate(1175.6 645)">3</text></g><text fill="#4B5E68" font-family="Arial,Arial_MSFontService,sans-serif" font-style="italic" font-weight="400" font-size="19" transform="translate(968.763 649)">k</text><text fill="#4B5E68" font-family="Arial,Arial_MSFontService,sans-serif" font-style="italic" font-weight="400" font-size="19" transform="translate(1169.99 648)">K+1</text><text fill="#4B5E68" font-family="Arial,Arial_MSFontService,sans-serif" font-style="italic" font-weight="400" font-size="19" transform="translate(745.14 649)">K</text><text fill="#4B5E68" font-family="Arial,Arial_MSFontService,sans-serif" font-style="italic" font-weight="400" font-size="19" transform="translate(757.64 649)">-</text><text fill="#4B5E68" font-family="Arial,Arial_MSFontService,sans-serif" font-style="italic" font-weight="400" font-size="19" transform="translate(763.806 649)">1</text><text fill="#4B5E68" font-family="Arial,Arial_MSFontService,sans-serif" font-style="italic" font-weight="400" font-size="24" transform="translate(779.681 442)">‘f</text><text fill="#4B5E68" font-family="Arial,Arial_MSFontService,sans-serif" font-style="italic" font-weight="400" font-size="16" transform="translate(791.681 447)">u</text><text fill="#4B5E68" font-family="Arial,Arial_MSFontService,sans-serif" font-style="italic" font-weight="400" font-size="24" transform="translate(800.514 442)">(u)</text><text fill="#4B5E68" font-family="Arial,Arial_MSFontService,sans-serif" font-style="italic" font-weight="400" font-size="24" transform="translate(965.845 674)">u</text><text fill="#4B5E68" font-family="Arial,Arial_MSFontService,sans-serif" font-weight="400" font-size="16" transform="translate(18.7414 695)">More detail is available in web appendix 11 of the Supplementary Data of the article by Cori</text><text fill="#4B5E68" font-family="Arial,Arial_MSFontService,sans-serif" font-style="italic" font-weight="400" font-size="16" transform="translate(666.555 695)">et al.,</text><text fill="#4B5E68" font-family="Arial,Arial_MSFontService,sans-serif" font-weight="400" font-size="16" transform="translate(710.221 695)">2013</text><text fill="#4B5E68" font-family="Arial,Arial_MSFontService,sans-serif" font-weight="400" font-size="16" transform="translate(18.7414 714)">(American Journal of Epidemiology, Volume 178, Issue 9, 1 November 2013, Pages 1505</text><text fill="#4B5E68" font-family="Arial,Arial_MSFontService,sans-serif" font-weight="400" font-size="16" transform="translate(648.008 714)">–</text><text fill="#4B5E68" font-family="Arial,Arial_MSFontService,sans-serif" font-weight="400" font-size="16" transform="translate(656.841 714)">1512)</text></g></svg>