<svg width="1282" height="724" xmlns="http://www.w3.org/2000/svg" xmlns:xlink="http://www.w3.org/1999/xlink" overflow="hidden"><g transform="translate(1 3)"><rect x="0" y="0" width="1280" height="720" fill="#FFFFFF"/><rect x="0.500053" y="-1.50005" width="1280" height="37.0001" stroke="#7F7F7F" stroke-width="1.33333" stroke-miterlimit="8" fill="#D9D9D9"/><text fill="#4B5E68" font-family="Arial,Arial_MSFontService,sans-serif" font-weight="700" font-size="21" transform="translate(535.667 25)">Supplementary slide</text><text fill="#4B5E68" font-family="Arial,Arial_MSFontService,sans-serif" font-weight="700" font-size="37" transform="translate(163.763 87)">Sensitivity</text><text fill="#4B5E68" font-family="Arial,Arial_MSFontService,sans-serif" font-weight="700" font-size="37" transform="translate(361.096 87)">analysis</text><text fill="#4B5E68" font-family="Arial,Arial_MSFontService,sans-serif" font-weight="700" font-size="37" transform="translate(519.096 87)">for</text><text fill="#4B5E68" font-family="Arial,Arial_MSFontService,sans-serif" font-weight="700" font-size="37" transform="translate(579.263 87)">shedding</text><text fill="#4B5E68" font-family="Arial,Arial_MSFontService,sans-serif" font-weight="700" font-size="37" transform="translate(755.763 87)">onset</text><text fill="#4B5E68" font-family="Arial,Arial_MSFontService,sans-serif" font-weight="700" font-size="37" transform="translate(865.93 87)">distributio</text><text fill="#4B5E68" font-family="Arial,Arial_MSFontService,sans-serif" font-weight="700" font-size="37" transform="translate(1048.6 87)">n</text><path d="M66.5001 213.5 1215.48 213.5" stroke="#4B5E68" stroke-miterlimit="8" stroke-dasharray="8 3" fill="none" fill-rule="evenodd"/><path d="M144 601 154.215 601 155.065 600.991 155.923 600.991 156.773 600.971 157.623 600.943 158.472 600.875 159.322 600.76 160.172 600.548 161.03 600.173 161.88 599.548 162.73 598.538 163.58 596.99 164.43 594.701 165.28 591.45 166.138 586.997 166.988 581.14 167.837 573.677 168.687 564.474 169.537 553.702 170.387 541.546 171.245 528.332 172.095 514.454 172.945 500.375 173.795 486.535 174.645 473.35 175.503 461.146 176.353 450.163 177.202 440.536 178.052 432.284 178.902 425.37 179.752 419.715 180.61 415.233 181.46 411.713 182.31 409.02 183.16 407.02 184.01 405.606 184.86 404.683 185.718 404.173 186.567 404 187.417 404.115 188.267 404.481 189.117 405.067 189.967 405.866 190.825 406.876 191.675 408.087 192.525 409.52 193.375 411.155 194.225 412.954 195.075 414.896 195.932 416.945 196.782 419.07 197.632 421.244 198.482 423.436 199.332 425.649 200.182 427.87 201.04 430.082 201.89 432.304 203.59 436.708 204.44 438.882 205.29 441.026 206.147 443.133 206.997 445.181 207.847 447.182 208.697 449.134 209.547 451.048 210.397 452.923 211.255 454.779 212.105 456.645 212.955 458.53 213.805 460.463 214.655 462.463 215.505 464.531 216.362 466.676 217.212 468.907 218.062 471.205 218.912 473.562 220.612 478.332 221.47 480.698 222.32 482.996 223.17 485.199 224.02 487.295 224.87 489.267 225.719 491.113 226.577 492.844 227.427 494.489 228.277 496.076 229.977 499.172 230.827 500.731 231.685 502.298 232.535 503.866 233.385 505.424 234.235 506.962 235.084 508.482 235.934 509.973 236.792 511.444 237.642 512.916 238.492 514.377 239.342 515.858 240.192 517.359 241.05 518.897 241.9 520.475 242.75 522.081 243.6 523.706 245.299 526.976 246.157 528.572 247.007 530.13 247.857 531.64 248.707 533.083 249.557 534.458 250.407 535.766 251.265 537.026 252.114 538.247 252.964 539.43 253.814 540.604 254.664 541.796 255.514 543.018 256.372 544.278 257.222 545.595 258.072 546.97 258.922 548.394 259.772 549.846 260.622 551.308 261.479 552.76 262.329 554.154 263.179 555.482 264.029 556.703 264.879 557.809 265.729 558.79 266.587 559.646 267.437 560.396 268.287 561.05 269.137 561.617 269.987 562.127 270.837 562.579 271.694 563.012 272.544 563.445 273.394 563.887 274.244 564.368 275.094 564.897 275.944 565.484 276.802 566.128 277.652 566.82 278.502 567.551 281.052 569.831 281.909 570.561 282.759 571.273 283.609 571.956 284.459 572.61 285.309 573.226 286.159 573.793 287.017 574.341 287.867 574.832 288.717 575.293 289.567 575.716 290.417 576.101 291.266 576.457 292.124 576.793 292.974 577.12 294.674 577.736 296.374 578.332 297.232 578.621 298.082 578.919 299.782 579.496 300.631 579.775 301.481 580.073 302.339 580.371 303.189 580.688 304.039 581.035 304.889 581.419 305.739 581.823 306.597 582.266 307.447 582.727 308.297 583.208 309.147 583.679 309.996 584.141 310.846 584.583 311.704 585.007 312.554 585.401 313.404 585.776 314.254 586.113 315.104 586.42 315.954 586.699 316.812 586.959 317.662 587.19 318.512 587.401 319.362 587.603 320.211 587.815 321.061 588.017 321.919 588.228 322.769 588.459 323.619 588.7 326.169 589.45 327.027 589.69 327.877 589.921 328.727 590.133 329.576 590.325 330.426 590.498 331.276 590.652 332.134 590.787 332.984 590.912 333.834 591.017 335.534 591.248 336.384 591.373 337.242 591.527 338.091 591.691 338.941 591.883 339.791 592.094 341.491 592.537 342.349 592.758 343.199 592.96 344.049 593.152 344.899 593.326 345.749 593.489 346.599 593.643 347.456 593.777 348.306 593.922 349.156 594.057 350.856 594.345 351.706 594.48 352.564 594.624 354.264 594.912 355.964 595.182 356.814 595.307 357.671 595.432 359.371 595.682 360.221 595.797 361.921 596.047 362.779 596.182 364.479 596.47 365.329 596.624 366.179 596.769 367.029 596.922 367.886 597.067 368.736 597.201 369.586 597.317 370.436 597.422 371.286 597.499 372.144 597.567 372.994 597.605 373.844 597.625 375.544 597.644 378.101 597.644 378.951 597.653 379.801 597.673 381.501 597.73 382.359 597.759 383.209 597.798 384.909 597.894 386.608 598.009 387.466 598.077 389.166 598.211 390.016 598.269 390.866 598.336 391.716 598.394 392.574 598.442 395.124 598.557 396.823 598.615 397.681 598.644 400.231 598.73 401.081 598.75 401.931 598.779 402.789 598.788 403.639 598.807 404.489 598.817 406.188 598.856 407.038 598.884 407.896 598.923 408.746 598.961 409.596 599.019 410.446 599.067 411.296 599.125 412.146 599.173 413.004 599.211 413.854 599.24 414.704 599.259 415.553 599.269 416.403 599.269 417.253 599.279 418.111 599.288 419.811 599.346 420.661 599.384 422.361 599.5 423.219 599.567 424.068 599.634 425.768 599.75 426.618 599.798 427.468 599.836 428.326 599.865 429.176 599.884 430.876 599.884 431.726 599.875 432.584 599.865 433.434 599.856 434.283 599.836 435.133 599.827 435.983 599.827 436.833 599.836 437.691 599.856 438.541 599.875 439.391 599.904 440.241 599.942 441.091 599.99 441.941 600.029 442.799 600.077 444.498 600.154 446.198 600.212 447.048 600.221 447.906 600.24 450.456 600.269 452.156 600.308 453.013 600.327 453.863 600.346 454.713 600.375 457.263 600.433 458.121 600.452 459.821 600.471 461.521 600.471 462.371 600.462 463.228 600.462 464.928 600.442 466.628 600.442 467.478 600.452 468.336 600.462 470.036 600.5 470.886 600.529 471.736 600.567 472.586 600.596 473.443 600.625 475.143 600.683 475.993 600.702 477.693 600.721 480.251 600.721 482.8 600.692 483.658 600.683 485.358 600.664 486.208 600.664 487.908 600.644 488.766 600.644 491.315 600.615 492.165 600.615 493.015 600.606 495.573 600.606 496.423 600.596 502.38 600.596 503.238 600.606 504.088 600.606 505.788 600.625 506.638 600.625 507.488 600.635 508.346 600.644 511.745 600.683 512.595 600.702 513.453 600.721 514.303 600.75 515.153 600.769 516.003 600.798 516.853 600.817 517.703 600.846 518.56 600.866 519.41 600.875 520.26 600.894 522.81 600.923 523.668 600.933 524.518 600.933 525.368 600.943 527.068 600.943 527.918 600.933 529.625 600.933 533.025 600.894 533.883 600.875 534.733 600.866 536.433 600.827 538.133 600.808 538.99 600.798 539.84 600.789 540.69 600.798 541.54 600.798 543.24 600.817 544.098 600.837 544.948 600.856 545.798 600.866 546.648 600.885 548.347 600.904 549.205 600.914 550.055 600.914 550.905 600.923 552.605 600.923 553.455 600.914 556.863 600.914 557.712 600.923 563.678 600.923 564.528 600.933 567.927 600.933 568.785 600.923 569.635 600.923 571.335 600.904 575.593 600.904 578.142 600.933 579 600.952 579 601Z" fill="#80CDC1" fill-rule="evenodd" fill-opacity="0.301961"/><path d="M46 700 612 700 612 294 46 294Z" stroke="#FFFFFF" stroke-width="1.62898" stroke-linecap="round" stroke-linejoin="round" stroke-miterlimit="10" fill="none" fill-rule="evenodd"/><path d="M122.5 575.5 601.5 575.5" stroke="#EBEBEB" stroke-width="0.814488" stroke-linejoin="round" stroke-miterlimit="10" fill="none" fill-rule="evenodd"/><path d="M122.5 525.5 601.5 525.5" stroke="#EBEBEB" stroke-width="0.814488" stroke-linejoin="round" stroke-miterlimit="10" fill="none" fill-rule="evenodd"/><path d="M122.5 474.5 601.5 474.5" stroke="#EBEBEB" stroke-width="0.814488" stroke-linejoin="round" stroke-miterlimit="10" fill="none" fill-rule="evenodd"/><path d="M122.5 423.5 601.5 423.5" stroke="#EBEBEB" stroke-width="0.814488" stroke-linejoin="round" stroke-miterlimit="10" fill="none" fill-rule="evenodd"/><path d="M122.5 372.5 601.5 372.5" stroke="#EBEBEB" stroke-width="0.814488" stroke-linejoin="round" stroke-miterlimit="10" fill="none" fill-rule="evenodd"/><path d="M122.5 322.5 601.5 322.5" stroke="#EBEBEB" stroke-width="0.814488" stroke-linejoin="round" stroke-miterlimit="10" fill="none" fill-rule="evenodd"/><path d="M239.5 615.5 239.5 308.5" stroke="#EBEBEB" stroke-width="0.814488" stroke-linejoin="round" stroke-miterlimit="10" fill="none" fill-rule="evenodd"/><path d="M375.5 615.5 375.5 308.5" stroke="#EBEBEB" stroke-width="0.814488" stroke-linejoin="round" stroke-miterlimit="10" fill="none" fill-rule="evenodd"/><path d="M511.5 615.5 511.5 308.5" stroke="#EBEBEB" stroke-width="0.814488" stroke-linejoin="round" stroke-miterlimit="10" fill="none" fill-rule="evenodd"/><path d="M122 601 601 601" stroke="#4B5E68" stroke-width="2" stroke-linejoin="round" stroke-miterlimit="10" fill="none" fill-rule="evenodd"/><path d="M122 550 601 550" stroke="#EBEBEB" stroke-width="1.62898" stroke-linejoin="round" stroke-miterlimit="10" fill="none" fill-rule="evenodd"/><path d="M122 499 601 499" stroke="#EBEBEB" stroke-width="1.62898" stroke-linejoin="round" stroke-miterlimit="10" fill="none" fill-rule="evenodd"/><path d="M122 448 601 448" stroke="#EBEBEB" stroke-width="1.62898" stroke-linejoin="round" stroke-miterlimit="10" fill="none" fill-rule="evenodd"/><path d="M122 398 601 398" stroke="#EBEBEB" stroke-width="1.62898" stroke-linejoin="round" stroke-miterlimit="10" fill="none" fill-rule="evenodd"/><path d="M122 347 601 347" stroke="#EBEBEB" stroke-width="1.62898" stroke-linejoin="round" stroke-miterlimit="10" fill="none" fill-rule="evenodd"/><path d="M171 615 171 308" stroke="#EBEBEB" stroke-width="1.62898" stroke-linejoin="round" stroke-miterlimit="10" fill="none" fill-rule="evenodd"/><path d="M307 615 307 308" stroke="#EBEBEB" stroke-width="1.62898" stroke-linejoin="round" stroke-miterlimit="10" fill="none" fill-rule="evenodd"/><path d="M443 615 443 308" stroke="#EBEBEB" stroke-width="1.62898" stroke-linejoin="round" stroke-miterlimit="10" fill="none" fill-rule="evenodd"/><path d="M579 615 579 308" stroke="#EBEBEB" stroke-width="1.62898" stroke-linejoin="round" stroke-miterlimit="10" fill="none" fill-rule="evenodd"/><path d="M144 601 159.322 601 160.172 600.99 161.03 600.99 163.58 600.962 164.43 600.942 165.28 600.913 166.138 600.875 166.988 600.817 167.837 600.75 168.687 600.653 169.537 600.538 170.387 600.374 171.245 600.181 172.095 599.931 172.945 599.622 173.795 599.256 174.645 598.823 175.503 598.312 176.353 597.714 177.202 597.03 178.052 596.259 178.902 595.383 179.752 594.409 180.61 593.34 181.46 592.145 182.31 590.854 183.16 589.457 184.01 587.944 184.86 586.335 185.718 584.62 186.567 582.798 187.417 580.891 188.267 578.886 189.117 576.805 189.967 574.647 190.825 572.411 191.675 570.118 192.525 567.757 193.375 565.358 194.225 562.91 195.075 560.415 195.932 557.9 196.782 555.337 197.632 552.754 198.482 550.134 199.332 547.484 200.182 544.795 201.04 542.078 201.89 539.313 202.74 536.528 203.59 533.724 204.44 530.91 205.29 528.116 206.147 525.341 206.997 522.604 207.847 519.935 208.697 517.324 209.547 514.8 210.397 512.342 211.255 509.962 212.105 507.65 212.955 505.395 213.805 503.189 214.655 501.021 215.505 498.891 216.362 496.81 217.212 494.777 218.062 492.801 218.912 490.893 219.762 489.053 220.612 487.309 221.47 485.652 222.32 484.1 223.17 482.655 224.02 481.306 224.87 480.063 225.719 478.916 226.577 477.876 227.427 476.941 228.277 476.093 229.127 475.342 229.977 474.696 230.827 474.137 231.685 473.703 232.535 473.366 233.385 473.135 234.235 473.019 235.084 473 235.934 473.077 236.792 473.26 237.642 473.52 238.492 473.858 239.342 474.243 240.192 474.686 241.05 475.149 241.9 475.611 242.75 476.064 243.6 476.488 244.449 476.874 245.299 477.201 246.157 477.471 247.007 477.693 247.857 477.866 248.707 478.01 250.407 478.28 251.265 478.454 252.114 478.666 252.964 478.955 253.814 479.311 254.664 479.755 255.514 480.275 256.372 480.872 257.222 481.547 258.072 482.289 258.922 483.069 259.772 483.898 260.622 484.746 261.479 485.623 263.179 487.376 264.879 489.169 265.729 490.074 266.587 491.009 267.437 491.963 268.287 492.955 269.137 493.977 269.987 495.037 270.837 496.126 271.694 497.253 272.544 498.39 275.094 501.859 275.944 502.996 276.802 504.123 277.652 505.231 278.502 506.32 279.352 507.39 280.202 508.44 281.052 509.471 281.909 510.483 285.309 514.453 286.159 515.464 287.017 516.486 287.867 517.546 288.717 518.635 289.567 519.762 290.417 520.909 291.266 522.084 292.124 523.279 293.824 525.669 294.674 526.854 295.524 528.029 296.374 529.195 297.232 530.361 298.932 532.693 299.782 533.888 300.631 535.102 301.481 536.335 302.339 537.588 303.189 538.841 304.039 540.103 304.889 541.336 305.739 542.541 306.597 543.697 307.447 544.805 308.297 545.846 309.147 546.828 309.996 547.763 310.846 548.63 311.704 549.459 312.554 550.239 313.404 550.991 314.254 551.733 315.954 553.178 316.812 553.891 317.662 554.604 318.512 555.327 319.362 556.059 320.211 556.782 321.061 557.524 321.919 558.256 322.769 558.998 323.619 559.731 324.469 560.473 326.169 561.937 327.027 562.66 328.727 564.086 329.576 564.78 331.276 566.148 332.134 566.803 332.984 567.458 333.834 568.104 334.684 568.73 335.534 569.337 336.384 569.935 337.242 570.523 338.091 571.081 338.941 571.631 339.791 572.161 340.641 572.671 341.491 573.172 342.349 573.673 343.199 574.165 344.899 575.186 345.749 575.716 346.599 576.275 347.456 576.853 348.306 577.441 350.006 578.655 350.856 579.252 351.706 579.84 352.564 580.399 353.414 580.91 354.264 581.391 355.114 581.816 355.964 582.191 356.814 582.529 357.671 582.827 358.521 583.097 359.371 583.338 360.221 583.569 361.921 584.013 362.779 584.253 363.629 584.494 364.479 584.754 365.329 585.024 366.179 585.313 367.029 585.612 367.886 585.911 368.736 586.219 369.586 586.537 370.436 586.865 371.286 587.183 372.144 587.51 374.694 588.464 375.544 588.772 376.394 589.071 377.251 589.36 378.951 589.919 381.501 590.7 382.359 590.96 383.209 591.22 384.059 591.49 385.759 592.049 386.608 592.347 387.466 592.636 389.166 593.234 390.866 593.793 391.716 594.053 392.574 594.284 393.424 594.496 394.274 594.679 395.124 594.833 395.973 594.959 396.823 595.055 397.681 595.132 398.531 595.18 400.231 595.238 401.931 595.257 402.789 595.277 403.639 595.306 404.489 595.354 405.339 595.411 406.188 595.498 407.038 595.614 407.896 595.739 408.746 595.893 409.596 596.057 411.296 596.423 412.146 596.616 413.004 596.799 413.854 596.972 414.704 597.136 415.553 597.281 416.403 597.416 417.253 597.531 418.111 597.637 418.961 597.724 421.511 597.926 422.361 597.975 423.219 598.032 427.468 598.322 428.326 598.37 429.176 598.418 430.026 598.456 431.726 598.514 432.584 598.543 434.283 598.601 435.983 598.678 436.833 598.726 437.691 598.784 438.541 598.851 441.941 599.16 442.799 599.237 444.498 599.372 445.348 599.43 447.048 599.526 447.906 599.564 452.156 599.757 453.013 599.796 453.863 599.844 454.713 599.882 455.563 599.931 456.413 599.969 457.263 600.017 458.121 600.056 458.971 600.094 459.821 600.143 462.371 600.258 463.228 600.297 464.078 600.326 464.928 600.364 466.628 600.422 467.478 600.441 468.336 600.47 469.186 600.48 470.036 600.499 470.886 600.499 471.736 600.509 472.586 600.509 473.443 600.518 474.293 600.518 475.143 600.528 475.993 600.528 477.693 600.547 478.551 600.557 479.401 600.576 480.251 600.586 481.1 600.605 482.8 600.624 483.658 600.644 484.508 600.644 486.208 600.663 487.058 600.663 487.908 600.672 492.165 600.672 493.015 600.663 494.723 600.663 495.573 600.653 498.131 600.653 498.98 600.663 499.83 600.663 502.38 600.692 503.238 600.701 507.488 600.75 508.346 600.75 509.195 600.759 510.045 600.759 510.895 600.769 511.745 600.769 512.595 600.779 513.453 600.779 517.703 600.827 518.56 600.836 522.81 600.884 523.668 600.884 524.518 600.894 531.325 600.894 532.175 600.904 533.025 600.904 533.883 600.913 534.733 600.923 535.583 600.923 538.133 600.952 538.99 600.962 539.84 600.971 540.69 600.971 541.54 600.981 542.39 600.981 543.24 600.99 546.648 600.99 547.498 600.981 550.055 600.981 550.905 600.971 558.562 600.971 559.42 600.962 561.12 600.962 561.97 600.952 562.82 600.952 563.678 600.942 564.528 600.942 565.378 600.933 567.077 600.933 567.927 600.923 568.785 600.923 569.635 600.933 571.335 600.933 572.185 600.942 573.035 600.942 573.893 600.952 574.743 600.962 575.593 600.962 576.442 600.971 577.292 600.971 578.142 600.981 579 600.981 579 601Z" fill="#DFC27D" fill-rule="evenodd" fill-opacity="0.8"/><path d="M144 601 159.322 601 160.172 600.99 161.03 600.99 163.58 600.962 164.43 600.942 165.28 600.913 166.138 600.875 166.988 600.817 167.837 600.75 168.687 600.653 169.537 600.538 170.387 600.374 171.245 600.181 172.095 599.931 172.945 599.622 173.795 599.256 174.645 598.823 175.503 598.312 176.353 597.714 177.202 597.03 178.052 596.259 178.902 595.383 179.752 594.409 180.61 593.34 181.46 592.145 182.31 590.854 183.16 589.457 184.01 587.944 184.86 586.335 185.718 584.62 186.567 582.798 187.417 580.891 188.267 578.886 189.117 576.805 189.967 574.647 190.825 572.411 191.675 570.118 192.525 567.757 193.375 565.358 194.225 562.91 195.075 560.415 195.932 557.9 196.782 555.337 197.632 552.754 198.482 550.134 199.332 547.484 200.182 544.795 201.04 542.078 201.89 539.313 202.74 536.528 203.59 533.724 204.44 530.91 205.29 528.116 206.147 525.341 206.997 522.604 207.847 519.935 208.697 517.324 209.547 514.8 210.397 512.342 211.255 509.962 212.105 507.65 212.955 505.395 213.805 503.189 214.655 501.021 215.505 498.891 216.362 496.81 217.212 494.777 218.062 492.801 218.912 490.893 219.762 489.053 220.612 487.309 221.47 485.652 222.32 484.1 223.17 482.655 224.02 481.306 224.87 480.063 225.719 478.916 226.577 477.876 227.427 476.941 228.277 476.093 229.127 475.342 229.977 474.696 230.827 474.137 231.685 473.703 232.535 473.366 233.385 473.135 234.235 473.019 235.084 473 235.934 473.077 236.792 473.26 237.642 473.52 238.492 473.858 239.342 474.243 240.192 474.686 241.05 475.149 241.9 475.611 242.75 476.064 243.6 476.488 244.449 476.874 245.299 477.201 246.157 477.471 247.007 477.693 247.857 477.866 248.707 478.01 250.407 478.28 251.265 478.454 252.114 478.666 252.964 478.955 253.814 479.311 254.664 479.755 255.514 480.275 256.372 480.872 257.222 481.547 258.072 482.289 258.922 483.069 259.772 483.898 260.622 484.746 261.479 485.623 263.179 487.376 264.879 489.169 265.729 490.074 266.587 491.009 267.437 491.963 268.287 492.955 269.137 493.977 269.987 495.037 270.837 496.126 271.694 497.253 272.544 498.39 275.094 501.859 275.944 502.996 276.802 504.123 277.652 505.231 278.502 506.32 279.352 507.39 280.202 508.44 281.052 509.471 281.909 510.483 285.309 514.453 286.159 515.464 287.017 516.486 287.867 517.546 288.717 518.635 289.567 519.762 290.417 520.909 291.266 522.084 292.124 523.279 293.824 525.669 294.674 526.854 295.524 528.029 296.374 529.195 297.232 530.361 298.932 532.693 299.782 533.888 300.631 535.102 301.481 536.335 302.339 537.588 303.189 538.841 304.039 540.103 304.889 541.336 305.739 542.541 306.597 543.697 307.447 544.805 308.297 545.846 309.147 546.828 309.996 547.763 310.846 548.63 311.704 549.459 312.554 550.239 313.404 550.991 314.254 551.733 315.954 553.178 316.812 553.891 317.662 554.604 318.512 555.327 319.362 556.059 320.211 556.782 321.061 557.524 321.919 558.256 322.769 558.998 323.619 559.731 324.469 560.473 326.169 561.937 327.027 562.66 328.727 564.086 329.576 564.78 331.276 566.148 332.134 566.803 332.984 567.458 333.834 568.104 334.684 568.73 335.534 569.337 336.384 569.935 337.242 570.523 338.091 571.081 338.941 571.631 339.791 572.161 340.641 572.671 341.491 573.172 342.349 573.673 343.199 574.165 344.899 575.186 345.749 575.716 346.599 576.275 347.456 576.853 348.306 577.441 350.006 578.655 350.856 579.252 351.706 579.84 352.564 580.399 353.414 580.91 354.264 581.391 355.114 581.816 355.964 582.191 356.814 582.529 357.671 582.827 358.521 583.097 359.371 583.338 360.221 583.569 361.921 584.013 362.779 584.253 363.629 584.494 364.479 584.754 365.329 585.024 366.179 585.313 367.029 585.612 367.886 585.911 368.736 586.219 369.586 586.537 370.436 586.865 371.286 587.183 372.144 587.51 374.694 588.464 375.544 588.772 376.394 589.071 377.251 589.36 378.951 589.919 381.501 590.7 382.359 590.96 383.209 591.22 384.059 591.49 385.759 592.049 386.608 592.347 387.466 592.636 389.166 593.234 390.866 593.793 391.716 594.053 392.574 594.284 393.424 594.496 394.274 594.679 395.124 594.833 395.973 594.959 396.823 595.055 397.681 595.132 398.531 595.18 400.231 595.238 401.931 595.257 402.789 595.277 403.639 595.306 404.489 595.354 405.339 595.411 406.188 595.498 407.038 595.614 407.896 595.739 408.746 595.893 409.596 596.057 411.296 596.423 412.146 596.616 413.004 596.799 413.854 596.972 414.704 597.136 415.553 597.281 416.403 597.416 417.253 597.531 418.111 597.637 418.961 597.724 421.511 597.926 422.361 597.975 423.219 598.032 427.468 598.322 428.326 598.37 429.176 598.418 430.026 598.456 431.726 598.514 432.584 598.543 434.283 598.601 435.983 598.678 436.833 598.726 437.691 598.784 438.541 598.851 441.941 599.16 442.799 599.237 444.498 599.372 445.348 599.43 447.048 599.526 447.906 599.564 452.156 599.757 453.013 599.796 453.863 599.844 454.713 599.882 455.563 599.931 456.413 599.969 457.263 600.017 458.121 600.056 458.971 600.094 459.821 600.143 462.371 600.258 463.228 600.297 464.078 600.326 464.928 600.364 466.628 600.422 467.478 600.441 468.336 600.47 469.186 600.48 470.036 600.499 470.886 600.499 471.736 600.509 472.586 600.509 473.443 600.518 474.293 600.518 475.143 600.528 475.993 600.528 477.693 600.547 478.551 600.557 479.401 600.576 480.251 600.586 481.1 600.605 482.8 600.624 483.658 600.644 484.508 600.644 486.208 600.663 487.058 600.663 487.908 600.672 492.165 600.672 493.015 600.663 494.723 600.663 495.573 600.653 498.131 600.653 498.98 600.663 499.83 600.663 502.38 600.692 503.238 600.701 507.488 600.75 508.346 600.75 509.195 600.759 510.045 600.759 510.895 600.769 511.745 600.769 512.595 600.779 513.453 600.779 517.703 600.827 518.56 600.836 522.81 600.884 523.668 600.884 524.518 600.894 531.325 600.894 532.175 600.904 533.025 600.904 533.883 600.913 534.733 600.923 535.583 600.923 538.133 600.952 538.99 600.962 539.84 600.971 540.69 600.971 541.54 600.981 542.39 600.981 543.24 600.99 546.648 600.99 547.498 600.981 550.055 600.981 550.905 600.971 558.562 600.971 559.42 600.962 561.12 600.962 561.97 600.952 562.82 600.952 563.678 600.942 564.528 600.942 565.378 600.933 567.077 600.933 567.927 600.923 568.785 600.923 569.635 600.933 571.335 600.933 572.185 600.942 573.035 600.942 573.893 600.952 574.743 600.962 575.593 600.962 576.442 600.971 577.292 600.971 578.142 600.981 579 600.981" stroke="#000000" stroke-width="1.62898" stroke-linejoin="round" stroke-miterlimit="10" fill="none" fill-rule="evenodd"/><path d="M144 601 154.215 601 155.065 600.991 155.923 600.991 156.773 600.971 157.623 600.943 158.472 600.875 159.322 600.76 160.172 600.548 161.03 600.173 161.88 599.548 162.73 598.538 163.58 596.99 164.43 594.701 165.28 591.45 166.138 586.997 166.988 581.14 167.837 573.677 168.687 564.474 169.537 553.702 170.387 541.546 171.245 528.332 172.095 514.454 172.945 500.375 173.795 486.535 174.645 473.35 175.503 461.146 176.353 450.163 177.202 440.536 178.052 432.284 178.902 425.37 179.752 419.715 180.61 415.233 181.46 411.713 182.31 409.02 183.16 407.02 184.01 405.606 184.86 404.683 185.718 404.173 186.567 404 187.417 404.115 188.267 404.481 189.117 405.067 189.967 405.866 190.825 406.876 191.675 408.087 192.525 409.52 193.375 411.155 194.225 412.954 195.075 414.896 195.932 416.945 196.782 419.07 197.632 421.244 198.482 423.436 199.332 425.649 200.182 427.87 201.04 430.082 201.89 432.304 203.59 436.708 204.44 438.882 205.29 441.026 206.147 443.133 206.997 445.181 207.847 447.182 208.697 449.134 209.547 451.048 210.397 452.923 211.255 454.779 212.105 456.645 212.955 458.53 213.805 460.463 214.655 462.463 215.505 464.531 216.362 466.676 217.212 468.907 218.062 471.205 218.912 473.562 220.612 478.332 221.47 480.698 222.32 482.996 223.17 485.199 224.02 487.295 224.87 489.267 225.719 491.113 226.577 492.844 227.427 494.489 228.277 496.076 229.977 499.172 230.827 500.731 231.685 502.298 232.535 503.866 233.385 505.424 234.235 506.962 235.084 508.482 235.934 509.973 236.792 511.444 237.642 512.916 238.492 514.377 239.342 515.858 240.192 517.359 241.05 518.897 241.9 520.475 242.75 522.081 243.6 523.706 245.299 526.976 246.157 528.572 247.007 530.13 247.857 531.64 248.707 533.083 249.557 534.458 250.407 535.766 251.265 537.026 252.114 538.247 252.964 539.43 253.814 540.604 254.664 541.796 255.514 543.018 256.372 544.278 257.222 545.595 258.072 546.97 258.922 548.394 259.772 549.846 260.622 551.308 261.479 552.76 262.329 554.154 263.179 555.482 264.029 556.703 264.879 557.809 265.729 558.79 266.587 559.646 267.437 560.396 268.287 561.05 269.137 561.617 269.987 562.127 270.837 562.579 271.694 563.012 272.544 563.445 273.394 563.887 274.244 564.368 275.094 564.897 275.944 565.484 276.802 566.128 277.652 566.82 278.502 567.551 281.052 569.831 281.909 570.561 282.759 571.273 283.609 571.956 284.459 572.61 285.309 573.226 286.159 573.793 287.017 574.341 287.867 574.832 288.717 575.293 289.567 575.716 290.417 576.101 291.266 576.457 292.124 576.793 292.974 577.12 294.674 577.736 296.374 578.332 297.232 578.621 298.082 578.919 299.782 579.496 300.631 579.775 301.481 580.073 302.339 580.371 303.189 580.688 304.039 581.035 304.889 581.419 305.739 581.823 306.597 582.266 307.447 582.727 308.297 583.208 309.147 583.679 309.996 584.141 310.846 584.583 311.704 585.007 312.554 585.401 313.404 585.776 314.254 586.113 315.104 586.42 315.954 586.699 316.812 586.959 317.662 587.19 318.512 587.401 319.362 587.603 320.211 587.815 321.061 588.017 321.919 588.228 322.769 588.459 323.619 588.7 326.169 589.45 327.027 589.69 327.877 589.921 328.727 590.133 329.576 590.325 330.426 590.498 331.276 590.652 332.134 590.787 332.984 590.912 333.834 591.017 335.534 591.248 336.384 591.373 337.242 591.527 338.091 591.691 338.941 591.883 339.791 592.094 341.491 592.537 342.349 592.758 343.199 592.96 344.049 593.152 344.899 593.326 345.749 593.489 346.599 593.643 347.456 593.777 348.306 593.922 349.156 594.057 350.856 594.345 351.706 594.48 352.564 594.624 354.264 594.912 355.964 595.182 356.814 595.307 357.671 595.432 359.371 595.682 360.221 595.797 361.921 596.047 362.779 596.182 364.479 596.47 365.329 596.624 366.179 596.769 367.029 596.922 367.886 597.067 368.736 597.201 369.586 597.317 370.436 597.422 371.286 597.499 372.144 597.567 372.994 597.605 373.844 597.625 375.544 597.644 378.101 597.644 378.951 597.653 379.801 597.673 381.501 597.73 382.359 597.759 383.209 597.798 384.909 597.894 386.608 598.009 387.466 598.077 389.166 598.211 390.016 598.269 390.866 598.336 391.716 598.394 392.574 598.442 395.124 598.557 396.823 598.615 397.681 598.644 400.231 598.73 401.081 598.75 401.931 598.779 402.789 598.788 403.639 598.807 404.489 598.817 406.188 598.856 407.038 598.884 407.896 598.923 408.746 598.961 409.596 599.019 410.446 599.067 411.296 599.125 412.146 599.173 413.004 599.211 413.854 599.24 414.704 599.259 415.553 599.269 416.403 599.269 417.253 599.279 418.111 599.288 419.811 599.346 420.661 599.384 422.361 599.5 423.219 599.567 424.068 599.634 425.768 599.75 426.618 599.798 427.468 599.836 428.326 599.865 429.176 599.884 430.876 599.884 431.726 599.875 432.584 599.865 433.434 599.856 434.283 599.836 435.133 599.827 435.983 599.827 436.833 599.836 437.691 599.856 438.541 599.875 439.391 599.904 440.241 599.942 441.091 599.99 441.941 600.029 442.799 600.077 444.498 600.154 446.198 600.212 447.048 600.221 447.906 600.24 450.456 600.269 452.156 600.308 453.013 600.327 453.863 600.346 454.713 600.375 457.263 600.433 458.121 600.452 459.821 600.471 461.521 600.471 462.371 600.462 463.228 600.462 464.928 600.442 466.628 600.442 467.478 600.452 468.336 600.462 470.036 600.5 470.886 600.529 471.736 600.567 472.586 600.596 473.443 600.625 475.143 600.683 475.993 600.702 477.693 600.721 480.251 600.721 482.8 600.692 483.658 600.683 485.358 600.664 486.208 600.664 487.908 600.644 488.766 600.644 491.315 600.615 492.165 600.615 493.015 600.606 495.573 600.606 496.423 600.596 502.38 600.596 503.238 600.606 504.088 600.606 505.788 600.625 506.638 600.625 507.488 600.635 508.346 600.644 511.745 600.683 512.595 600.702 513.453 600.721 514.303 600.75 515.153 600.769 516.003 600.798 516.853 600.817 517.703 600.846 518.56 600.866 519.41 600.875 520.26 600.894 522.81 600.923 523.668 600.933 524.518 600.933 525.368 600.943 527.068 600.943 527.918 600.933 529.625 600.933 533.025 600.894 533.883 600.875 534.733 600.866 536.433 600.827 538.133 600.808 538.99 600.798 539.84 600.789 540.69 600.798 541.54 600.798 543.24 600.817 544.098 600.837 544.948 600.856 545.798 600.866 546.648 600.885 548.347 600.904 549.205 600.914 550.055 600.914 550.905 600.923 552.605 600.923 553.455 600.914 556.863 600.914 557.712 600.923 563.678 600.923 564.528 600.933 567.927 600.933 568.785 600.923 569.635 600.923 571.335 600.904 575.593 600.904 578.142 600.933 579 600.952" stroke="#000000" stroke-width="1.62898" stroke-linejoin="round" stroke-miterlimit="10" fill="none" fill-rule="evenodd"/><path d="M122 615 122 308" stroke="#4B5E68" stroke-width="2" stroke-linecap="square" stroke-linejoin="round" stroke-miterlimit="10" fill="none" fill-rule="evenodd"/><path d="M134 601 122 601" stroke="#4B5E68" stroke-width="2" stroke-linejoin="round" stroke-miterlimit="10" fill="none" fill-rule="evenodd"/><path d="M134 550 122 550" stroke="#4B5E68" stroke-width="2" stroke-linejoin="round" stroke-miterlimit="10" fill="none" fill-rule="evenodd"/><path d="M134 499 122 499" stroke="#4B5E68" stroke-width="2" stroke-linejoin="round" stroke-miterlimit="10" fill="none" fill-rule="evenodd"/><path d="M134 448 122 448" stroke="#4B5E68" stroke-width="2" stroke-linejoin="round" stroke-miterlimit="10" fill="none" fill-rule="evenodd"/><path d="M134 398 122 398" stroke="#4B5E68" stroke-width="2" stroke-linejoin="round" stroke-miterlimit="10" fill="none" fill-rule="evenodd"/><path d="M134 347 122 347" stroke="#4B5E68" stroke-width="2" stroke-linejoin="round" stroke-miterlimit="10" fill="none" fill-rule="evenodd"/><path d="M122 615 601 615" stroke="#4B5E68" stroke-width="2" stroke-linecap="square" stroke-linejoin="round" stroke-miterlimit="10" fill="none" fill-rule="evenodd"/><path d="M171 601 171 615" stroke="#4B5E68" stroke-width="2" stroke-linejoin="round" stroke-miterlimit="10" fill="none" fill-rule="evenodd"/><path d="M307 601 307 615" stroke="#4B5E68" stroke-width="2" stroke-linejoin="round" stroke-miterlimit="10" fill="none" fill-rule="evenodd"/><path d="M443 601 443 615" stroke="#4B5E68" stroke-width="2" stroke-linejoin="round" stroke-miterlimit="10" fill="none" fill-rule="evenodd"/><path d="M579 601 579 615" stroke="#4B5E68" stroke-width="2" stroke-linejoin="round" stroke-miterlimit="10" fill="none" fill-rule="evenodd"/><path d="M599 686 1223 686 1223 281 599 281Z" stroke="#FFFFFF" stroke-width="2.32" stroke-linecap="round" stroke-linejoin="round" stroke-miterlimit="10" fill="none" fill-rule="evenodd"/><path d="M693.5 573.5 1171.5 573.5" stroke="#EBEBEB" stroke-width="0.814488" stroke-linejoin="round" stroke-miterlimit="10" fill="none" fill-rule="evenodd"/><path d="M693.5 523.5 1171.5 523.5" stroke="#EBEBEB" stroke-width="0.814488" stroke-linejoin="round" stroke-miterlimit="10" fill="none" fill-rule="evenodd"/><path d="M693.5 472.5 1171.5 472.5" stroke="#EBEBEB" stroke-width="0.814488" stroke-linejoin="round" stroke-miterlimit="10" fill="none" fill-rule="evenodd"/><path d="M693.5 421.5 1171.5 421.5" stroke="#EBEBEB" stroke-width="0.814488" stroke-linejoin="round" stroke-miterlimit="10" fill="none" fill-rule="evenodd"/><path d="M693.5 370.5 1171.5 370.5" stroke="#EBEBEB" stroke-width="0.814488" stroke-linejoin="round" stroke-miterlimit="10" fill="none" fill-rule="evenodd"/><path d="M693.5 320.5 1171.5 320.5" stroke="#EBEBEB" stroke-width="0.814488" stroke-linejoin="round" stroke-miterlimit="10" fill="none" fill-rule="evenodd"/><path d="M810.5 613.5 810.5 306.5" stroke="#EBEBEB" stroke-width="0.814488" stroke-linejoin="round" stroke-miterlimit="10" fill="none" fill-rule="evenodd"/><path d="M946.5 613.5 946.5 306.5" stroke="#EBEBEB" stroke-width="0.814488" stroke-linejoin="round" stroke-miterlimit="10" fill="none" fill-rule="evenodd"/><path d="M1081.5 613.5 1081.5 306.5" stroke="#EBEBEB" stroke-width="0.814488" stroke-linejoin="round" stroke-miterlimit="10" fill="none" fill-rule="evenodd"/><path d="M693 599 1171 599" stroke="#4B5E68" stroke-width="2" stroke-linejoin="round" stroke-miterlimit="10" fill="none" fill-rule="evenodd"/><path d="M693 548 1171 548" stroke="#EBEBEB" stroke-width="1.62898" stroke-linejoin="round" stroke-miterlimit="10" fill="none" fill-rule="evenodd"/><path d="M693 497 1171 497" stroke="#EBEBEB" stroke-width="1.62898" stroke-linejoin="round" stroke-miterlimit="10" fill="none" fill-rule="evenodd"/><path d="M693 446 1171 446" stroke="#EBEBEB" stroke-width="1.62898" stroke-linejoin="round" stroke-miterlimit="10" fill="none" fill-rule="evenodd"/><path d="M693 396 1171 396" stroke="#EBEBEB" stroke-width="1.62898" stroke-linejoin="round" stroke-miterlimit="10" fill="none" fill-rule="evenodd"/><path d="M693 345 1171 345" stroke="#EBEBEB" stroke-width="1.62898" stroke-linejoin="round" stroke-miterlimit="10" fill="none" fill-rule="evenodd"/><path d="M742 613 742 306" stroke="#EBEBEB" stroke-width="1.62898" stroke-linejoin="round" stroke-miterlimit="10" fill="none" fill-rule="evenodd"/><path d="M878 613 878 306" stroke="#EBEBEB" stroke-width="1.62898" stroke-linejoin="round" stroke-miterlimit="10" fill="none" fill-rule="evenodd"/><path d="M1013 613 1013 306" stroke="#EBEBEB" stroke-width="1.62898" stroke-linejoin="round" stroke-miterlimit="10" fill="none" fill-rule="evenodd"/><path d="M1149 613 1149 306" stroke="#EBEBEB" stroke-width="1.62898" stroke-linejoin="round" stroke-miterlimit="10" fill="none" fill-rule="evenodd"/><path d="M715 599 730.287 599 731.135 598.99 731.991 598.99 734.535 598.962 735.383 598.942 736.231 598.913 737.087 598.875 737.935 598.817 738.783 598.75 739.631 598.653 740.479 598.538 741.327 598.374 742.182 598.181 743.03 597.931 743.878 597.622 744.726 597.256 745.574 596.823 746.43 596.312 747.278 595.714 748.126 595.03 748.974 594.259 749.822 593.383 750.67 592.409 751.526 591.34 752.374 590.145 753.222 588.854 754.07 587.457 754.918 585.944 755.766 584.335 756.622 582.62 757.47 580.798 758.318 578.891 759.166 576.886 760.014 574.805 760.862 572.647 761.717 570.411 762.565 568.118 763.413 565.757 764.261 563.358 765.109 560.91 765.957 558.415 766.813 555.9 767.661 553.337 768.509 550.754 769.357 548.134 770.205 545.484 771.053 542.795 771.909 540.078 772.757 537.313 773.605 534.528 774.453 531.724 775.301 528.91 776.149 526.116 777.005 523.341 777.853 520.604 778.701 517.935 779.548 515.324 780.396 512.8 781.244 510.342 782.1 507.962 782.948 505.65 783.796 503.395 784.644 501.189 785.492 499.021 786.34 496.891 787.196 494.81 788.044 492.777 788.892 490.801 789.74 488.893 790.588 487.053 791.436 485.309 792.292 483.652 793.14 482.1 793.988 480.655 794.836 479.306 795.684 478.063 796.532 476.916 797.387 475.876 798.235 474.941 799.083 474.093 799.931 473.342 800.779 472.696 801.627 472.137 802.483 471.703 803.331 471.366 804.179 471.135 805.027 471.019 805.875 471 806.723 471.077 807.579 471.26 808.427 471.52 809.275 471.858 810.123 472.243 810.971 472.686 811.827 473.149 812.675 473.611 813.523 474.064 814.371 474.488 815.219 474.874 816.067 475.201 816.922 475.471 817.77 475.693 818.618 475.866 819.466 476.01 821.162 476.28 822.018 476.454 822.866 476.666 823.714 476.955 824.562 477.311 825.41 477.755 826.258 478.275 827.114 478.872 827.962 479.547 828.81 480.289 829.658 481.069 830.506 481.898 831.354 482.746 832.209 483.623 833.905 485.376 835.601 487.169 836.449 488.074 837.305 489.009 838.153 489.963 839.001 490.955 839.849 491.977 840.697 493.037 841.545 494.126 842.401 495.253 843.249 496.39 845.793 499.859 846.641 500.996 847.497 502.123 848.345 503.231 849.193 504.32 850.041 505.39 850.888 506.44 851.736 507.471 852.592 508.483 855.984 512.453 856.832 513.464 857.688 514.486 858.536 515.546 859.384 516.635 860.232 517.762 861.08 518.909 861.928 520.084 862.784 521.279 864.48 523.669 865.328 524.854 866.176 526.029 867.024 527.195 867.88 528.361 869.575 530.693 870.423 531.888 871.271 533.102 872.119 534.335 872.975 535.588 873.823 536.841 874.671 538.103 875.519 539.336 876.367 540.541 877.223 541.697 878.071 542.805 878.919 543.846 879.767 544.828 880.615 545.763 881.463 546.63 882.319 547.459 883.167 548.239 884.015 548.991 884.863 549.733 886.559 551.178 887.414 551.891 888.262 552.604 889.11 553.327 889.958 554.059 890.806 554.782 891.654 555.524 892.51 556.256 893.358 556.998 894.206 557.731 895.054 558.473 896.75 559.937 897.606 560.66 899.302 562.086 900.15 562.78 901.846 564.148 902.702 564.803 903.55 565.458 904.398 566.104 905.246 566.73 906.094 567.337 906.941 567.935 907.797 568.523 908.645 569.081 909.493 569.631 910.341 570.161 911.189 570.671 912.037 571.172 912.893 571.673 913.741 572.165 915.437 573.186 916.285 573.716 917.133 574.275 917.989 574.853 918.837 575.441 920.533 576.655 921.381 577.252 922.229 577.84 923.084 578.399 923.932 578.91 924.78 579.391 925.628 579.816 926.476 580.191 927.324 580.529 928.18 580.827 929.028 581.097 929.876 581.338 930.724 581.569 932.42 582.013 933.276 582.253 934.124 582.494 934.972 582.754 935.82 583.024 936.668 583.313 937.516 583.612 938.372 583.911 939.22 584.219 940.068 584.537 940.916 584.865 941.764 585.183 942.619 585.51 945.163 586.464 946.011 586.772 946.859 587.071 947.715 587.36 949.411 587.919 951.955 588.7 952.811 588.96 953.659 589.22 954.507 589.49 956.203 590.049 957.051 590.347 957.907 590.636 959.603 591.234 961.299 591.793 962.146 592.053 963.002 592.284 963.85 592.496 964.698 592.679 965.546 592.833 966.394 592.959 967.242 593.055 968.098 593.132 968.946 593.18 970.642 593.238 972.338 593.257 973.194 593.277 974.042 593.306 974.89 593.354 975.738 593.411 976.586 593.498 977.434 593.614 978.29 593.739 979.138 593.893 979.985 594.057 981.681 594.423 982.529 594.616 983.385 594.799 984.233 594.972 985.081 595.136 985.929 595.281 986.777 595.416 987.625 595.531 988.481 595.637 989.329 595.724 991.873 595.926 992.721 595.975 993.577 596.032 997.817 596.322 998.672 596.37 999.52 596.418 1000.37 596.456 1002.06 596.514 1002.92 596.543 1004.62 596.601 1006.31 596.678 1007.16 596.726 1008.02 596.784 1008.86 596.851 1012.26 597.16 1013.11 597.237 1014.81 597.372 1015.66 597.43 1017.35 597.526 1018.21 597.564 1022.45 597.757 1023.3 597.796 1024.15 597.844 1025 597.882 1025.85 597.931 1026.69 597.969 1027.54 598.017 1028.4 598.056 1029.25 598.094 1030.09 598.143 1032.64 598.258 1033.49 598.297 1034.34 598.326 1035.19 598.364 1036.89 598.422 1037.73 598.441 1038.59 598.47 1039.44 598.48 1040.29 598.499 1041.13 598.499 1041.98 598.509 1042.83 598.509 1043.69 598.518 1044.53 598.518 1045.38 598.528 1046.23 598.528 1047.93 598.547 1048.78 598.557 1049.63 598.576 1050.48 598.586 1051.33 598.605 1053.02 598.624 1053.88 598.644 1054.73 598.644 1056.42 598.663 1057.27 598.663 1058.12 598.672 1062.36 598.672 1063.21 598.663 1064.92 598.663 1065.76 598.653 1068.32 598.653 1069.16 598.663 1070.01 598.663 1072.56 598.692 1073.41 598.701 1077.65 598.75 1078.51 598.75 1079.36 598.759 1080.2 598.759 1081.05 598.769 1081.9 598.769 1082.75 598.779 1083.6 598.779 1087.84 598.827 1088.7 598.836 1092.94 598.884 1093.8 598.884 1094.64 598.894 1101.43 598.894 1102.28 598.904 1103.13 598.904 1103.99 598.913 1104.83 598.923 1105.68 598.923 1108.23 598.952 1109.08 598.962 1109.93 598.971 1110.78 598.971 1111.63 598.981 1112.47 598.981 1113.32 598.99 1116.72 598.99 1117.57 598.981 1120.12 598.981 1120.97 598.971 1128.61 598.971 1129.47 598.962 1131.16 598.962 1132.01 598.952 1132.86 598.952 1133.71 598.942 1134.56 598.942 1135.41 598.933 1137.1 598.933 1137.95 598.923 1138.81 598.923 1139.66 598.933 1141.35 598.933 1142.2 598.942 1143.05 598.942 1143.9 598.952 1144.75 598.962 1145.6 598.962 1146.45 598.971 1147.3 598.971 1148.14 598.981 1149 598.981 1149 599Z" fill="#DFC27D" fill-rule="evenodd" fill-opacity="0.8"/><path d="M715 599 730.287 599 731.135 598.99 731.991 598.99 734.535 598.962 735.383 598.942 736.231 598.913 737.087 598.875 737.935 598.817 738.783 598.75 739.631 598.653 740.479 598.538 741.327 598.374 742.182 598.181 743.03 597.931 743.878 597.622 744.726 597.256 745.574 596.823 746.43 596.312 747.278 595.714 748.126 595.03 748.974 594.259 749.822 593.383 750.67 592.409 751.526 591.34 752.374 590.145 753.222 588.854 754.07 587.457 754.918 585.944 755.766 584.335 756.622 582.62 757.47 580.798 758.318 578.891 759.166 576.886 760.014 574.805 760.862 572.647 761.717 570.411 762.565 568.118 763.413 565.757 764.261 563.358 765.109 560.91 765.957 558.415 766.813 555.9 767.661 553.337 768.509 550.754 769.357 548.134 770.205 545.484 771.053 542.795 771.909 540.078 772.757 537.313 773.605 534.528 774.453 531.724 775.301 528.91 776.149 526.116 777.005 523.341 777.853 520.604 778.701 517.935 779.548 515.324 780.396 512.8 781.244 510.342 782.1 507.962 782.948 505.65 783.796 503.395 784.644 501.189 785.492 499.021 786.34 496.891 787.196 494.81 788.044 492.777 788.892 490.801 789.74 488.893 790.588 487.053 791.436 485.309 792.292 483.652 793.14 482.1 793.988 480.655 794.836 479.306 795.684 478.063 796.532 476.916 797.387 475.876 798.235 474.941 799.083 474.093 799.931 473.342 800.779 472.696 801.627 472.137 802.483 471.703 803.331 471.366 804.179 471.135 805.027 471.019 805.875 471 806.723 471.077 807.579 471.26 808.427 471.52 809.275 471.858 810.123 472.243 810.971 472.686 811.827 473.149 812.675 473.611 813.523 474.064 814.371 474.488 815.219 474.874 816.067 475.201 816.922 475.471 817.77 475.693 818.618 475.866 819.466 476.01 821.162 476.28 822.018 476.454 822.866 476.666 823.714 476.955 824.562 477.311 825.41 477.755 826.258 478.275 827.114 478.872 827.962 479.547 828.81 480.289 829.658 481.069 830.506 481.898 831.354 482.746 832.209 483.623 833.905 485.376 835.601 487.169 836.449 488.074 837.305 489.009 838.153 489.963 839.001 490.955 839.849 491.977 840.697 493.037 841.545 494.126 842.401 495.253 843.249 496.39 845.793 499.859 846.641 500.996 847.497 502.123 848.345 503.231 849.193 504.32 850.041 505.39 850.888 506.44 851.736 507.471 852.592 508.483 855.984 512.453 856.832 513.464 857.688 514.486 858.536 515.546 859.384 516.635 860.232 517.762 861.08 518.909 861.928 520.084 862.784 521.279 864.48 523.669 865.328 524.854 866.176 526.029 867.024 527.195 867.88 528.361 869.575 530.693 870.423 531.888 871.271 533.102 872.119 534.335 872.975 535.588 873.823 536.841 874.671 538.103 875.519 539.336 876.367 540.541 877.223 541.697 878.071 542.805 878.919 543.846 879.767 544.828 880.615 545.763 881.463 546.63 882.319 547.459 883.167 548.239 884.015 548.991 884.863 549.733 886.559 551.178 887.414 551.891 888.262 552.604 889.11 553.327 889.958 554.059 890.806 554.782 891.654 555.524 892.51 556.256 893.358 556.998 894.206 557.731 895.054 558.473 896.75 559.937 897.606 560.66 899.302 562.086 900.15 562.78 901.846 564.148 902.702 564.803 903.55 565.458 904.398 566.104 905.246 566.73 906.094 567.337 906.941 567.935 907.797 568.523 908.645 569.081 909.493 569.631 910.341 570.161 911.189 570.671 912.037 571.172 912.893 571.673 913.741 572.165 915.437 573.186 916.285 573.716 917.133 574.275 917.989 574.853 918.837 575.441 920.533 576.655 921.381 577.252 922.229 577.84 923.084 578.399 923.932 578.91 924.78 579.391 925.628 579.816 926.476 580.191 927.324 580.529 928.18 580.827 929.028 581.097 929.876 581.338 930.724 581.569 932.42 582.013 933.276 582.253 934.124 582.494 934.972 582.754 935.82 583.024 936.668 583.313 937.516 583.612 938.372 583.911 939.22 584.219 940.068 584.537 940.916 584.865 941.764 585.183 942.619 585.51 945.163 586.464 946.011 586.772 946.859 587.071 947.715 587.36 949.411 587.919 951.955 588.7 952.811 588.96 953.659 589.22 954.507 589.49 956.203 590.049 957.051 590.347 957.907 590.636 959.603 591.234 961.299 591.793 962.146 592.053 963.002 592.284 963.85 592.496 964.698 592.679 965.546 592.833 966.394 592.959 967.242 593.055 968.098 593.132 968.946 593.18 970.642 593.238 972.338 593.257 973.194 593.277 974.042 593.306 974.89 593.354 975.738 593.411 976.586 593.498 977.434 593.614 978.29 593.739 979.138 593.893 979.985 594.057 981.681 594.423 982.529 594.616 983.385 594.799 984.233 594.972 985.081 595.136 985.929 595.281 986.777 595.416 987.625 595.531 988.481 595.637 989.329 595.724 991.873 595.926 992.721 595.975 993.577 596.032 997.817 596.322 998.672 596.37 999.52 596.418 1000.37 596.456 1002.06 596.514 1002.92 596.543 1004.62 596.601 1006.31 596.678 1007.16 596.726 1008.02 596.784 1008.86 596.851 1012.26 597.16 1013.11 597.237 1014.81 597.372 1015.66 597.43 1017.35 597.526 1018.21 597.564 1022.45 597.757 1023.3 597.796 1024.15 597.844 1025 597.882 1025.85 597.931 1026.69 597.969 1027.54 598.017 1028.4 598.056 1029.25 598.094 1030.09 598.143 1032.64 598.258 1033.49 598.297 1034.34 598.326 1035.19 598.364 1036.89 598.422 1037.73 598.441 1038.59 598.47 1039.44 598.48 1040.29 598.499 1041.13 598.499 1041.98 598.509 1042.83 598.509 1043.69 598.518 1044.53 598.518 1045.38 598.528 1046.23 598.528 1047.93 598.547 1048.78 598.557 1049.63 598.576 1050.48 598.586 1051.33 598.605 1053.02 598.624 1053.88 598.644 1054.73 598.644 1056.42 598.663 1057.27 598.663 1058.12 598.672 1062.36 598.672 1063.21 598.663 1064.92 598.663 1065.76 598.653 1068.32 598.653 1069.16 598.663 1070.01 598.663 1072.56 598.692 1073.41 598.701 1077.65 598.75 1078.51 598.75 1079.36 598.759 1080.2 598.759 1081.05 598.769 1081.9 598.769 1082.75 598.779 1083.6 598.779 1087.84 598.827 1088.7 598.836 1092.94 598.884 1093.8 598.884 1094.64 598.894 1101.43 598.894 1102.28 598.904 1103.13 598.904 1103.99 598.913 1104.83 598.923 1105.68 598.923 1108.23 598.952 1109.08 598.962 1109.93 598.971 1110.78 598.971 1111.63 598.981 1112.47 598.981 1113.32 598.99 1116.72 598.99 1117.57 598.981 1120.12 598.981 1120.97 598.971 1128.61 598.971 1129.47 598.962 1131.16 598.962 1132.01 598.952 1132.86 598.952 1133.71 598.942 1134.56 598.942 1135.41 598.933 1137.1 598.933 1137.95 598.923 1138.81 598.923 1139.66 598.933 1141.35 598.933 1142.2 598.942 1143.05 598.942 1143.9 598.952 1144.75 598.962 1145.6 598.962 1146.45 598.971 1147.3 598.971 1148.14 598.981 1149 598.981" stroke="#000000" stroke-width="1.62898" stroke-linejoin="round" stroke-miterlimit="10" fill="none" fill-rule="evenodd"/><path d="M715 599 725.191 599 726.039 598.99 726.895 598.99 728.591 598.952 729.439 598.904 730.287 598.808 731.135 598.635 731.991 598.337 732.839 597.838 733.687 597.041 734.535 595.821 735.383 594.015 736.231 591.451 737.087 587.964 737.935 583.363 738.783 577.543 739.631 570.406 740.479 561.983 741.327 552.349 742.182 541.707 743.03 530.306 743.878 518.569 744.726 506.812 745.574 495.373 746.43 484.5 747.278 474.405 748.126 465.194 748.974 456.944 749.822 449.634 750.67 443.228 751.526 437.666 752.374 432.864 753.222 428.753 754.07 425.257 754.918 422.366 755.766 419.965 756.622 418.034 757.47 416.526 758.318 415.402 759.166 414.644 760.014 414.183 760.862 414 761.717 414.058 762.565 414.317 763.413 414.749 764.261 415.345 765.109 416.104 765.957 417.035 766.813 418.149 767.661 419.456 768.509 420.935 769.357 422.577 770.205 424.373 771.053 426.285 771.909 428.263 773.605 432.297 774.453 434.305 775.301 436.274 776.149 438.224 777.005 440.154 777.853 442.085 778.701 444.034 779.548 446.013 780.396 448.021 781.244 450.066 782.1 452.141 782.948 454.235 783.796 456.338 784.644 458.432 786.34 462.601 787.196 464.666 788.892 468.796 789.74 470.852 790.588 472.917 791.436 474.972 792.292 477.018 793.14 479.054 793.988 481.061 794.836 483.04 795.684 484.98 796.532 486.882 797.387 488.745 798.235 490.57 799.083 492.347 799.931 494.105 800.779 495.843 801.627 497.553 802.483 499.272 803.331 500.982 804.179 502.711 805.027 504.459 805.875 506.217 806.723 507.994 807.579 509.761 808.427 511.509 809.275 513.209 810.123 514.861 810.971 516.436 811.827 517.935 812.675 519.346 813.523 520.682 814.371 521.94 815.219 523.15 816.067 524.312 816.922 525.436 817.77 526.521 818.618 527.588 819.466 528.635 820.314 529.672 821.162 530.7 822.018 531.718 822.866 532.755 823.714 533.802 824.562 534.868 825.41 535.973 826.258 537.096 827.114 538.239 827.962 539.392 828.81 540.564 829.658 541.726 830.506 542.869 831.354 543.983 832.209 545.069 833.057 546.106 833.905 547.105 834.753 548.056 835.601 548.968 836.449 549.842 837.305 550.678 838.153 551.485 839.001 552.282 839.849 553.06 840.697 553.847 841.545 554.625 842.401 555.413 843.249 556.201 844.097 556.998 844.945 557.785 845.793 558.583 846.641 559.37 847.497 560.158 848.345 560.917 849.193 561.666 850.041 562.396 850.888 563.107 851.736 563.798 852.592 564.47 853.44 565.114 854.288 565.738 855.136 566.334 855.984 566.91 856.832 567.467 857.688 567.995 858.536 568.514 859.384 569.023 861.08 570.022 861.928 570.531 862.784 571.031 864.48 572.029 865.328 572.5 866.176 572.961 867.024 573.384 867.88 573.777 868.727 574.143 869.575 574.46 870.423 574.757 871.271 575.017 872.119 575.257 872.975 575.487 874.671 575.967 875.519 576.246 876.367 576.553 877.223 576.899 878.071 577.293 878.919 577.725 879.767 578.186 880.615 578.686 881.463 579.214 882.319 579.742 883.167 580.28 884.015 580.799 884.863 581.298 885.711 581.769 886.559 582.201 887.414 582.595 888.262 582.95 889.11 583.258 889.958 583.536 890.806 583.786 891.654 584.016 892.51 584.228 894.206 584.612 895.054 584.794 896.75 585.14 897.606 585.313 899.302 585.659 900.998 586.024 901.846 586.226 902.702 586.446 903.55 586.687 904.398 586.946 905.246 587.224 906.094 587.522 906.941 587.83 907.797 588.137 909.493 588.771 910.341 589.078 912.037 589.674 912.893 589.962 913.741 590.231 914.589 590.49 915.437 590.721 916.285 590.922 917.133 591.095 917.989 591.239 918.837 591.364 919.685 591.46 921.381 591.595 922.229 591.643 923.084 591.691 923.932 591.739 925.628 591.854 926.476 591.921 927.324 592.008 928.18 592.113 929.028 592.229 929.876 592.363 930.724 592.507 932.42 592.814 933.276 592.968 934.972 593.237 936.668 593.448 937.516 593.535 938.372 593.621 941.764 593.967 942.619 594.053 944.315 594.226 946.011 594.361 946.859 594.419 947.715 594.476 948.563 594.534 949.411 594.601 951.107 594.755 951.955 594.841 952.811 594.947 955.355 595.235 956.203 595.321 957.051 595.389 957.907 595.456 959.603 595.552 960.451 595.581 962.146 595.658 963.002 595.686 964.698 595.763 965.546 595.811 967.242 595.888 968.098 595.926 970.642 596.013 972.338 596.09 973.194 596.147 974.042 596.205 974.89 596.282 975.738 596.368 976.586 596.464 977.434 596.57 978.29 596.676 979.985 596.868 980.833 596.954 981.681 597.021 982.529 597.079 983.385 597.118 984.233 597.146 985.929 597.185 986.777 597.194 987.625 597.213 988.481 597.223 991.873 597.3 992.721 597.329 993.577 597.367 994.425 597.406 997.817 597.598 998.672 597.655 1000.37 597.751 1002.06 597.828 1002.92 597.857 1003.77 597.876 1004.62 597.886 1005.46 597.886 1006.31 597.876 1007.16 597.857 1008.02 597.838 1010.56 597.751 1012.26 597.713 1013.11 597.703 1015.66 597.703 1016.5 597.713 1017.35 597.713 1018.21 597.723 1022.45 597.771 1023.3 597.79 1024.15 597.809 1025 597.838 1025.85 597.857 1026.69 597.886 1027.54 597.905 1028.4 597.934 1032.64 598.078 1033.49 598.097 1034.34 598.116 1035.19 598.126 1036.04 598.145 1036.89 598.145 1037.73 598.155 1038.59 598.155 1039.44 598.164 1041.13 598.164 1041.98 598.174 1042.83 598.174 1043.69 598.184 1046.23 598.212 1047.08 598.232 1047.93 598.241 1048.78 598.26 1049.63 598.289 1050.48 598.308 1052.17 598.366 1053.02 598.385 1053.88 598.424 1058.12 598.568 1058.97 598.597 1060.67 598.654 1061.52 598.673 1063.21 598.693 1064.07 598.693 1064.92 598.683 1066.61 598.645 1067.46 598.616 1068.32 598.597 1069.16 598.568 1070.86 598.529 1072.56 598.51 1073.41 598.52 1075.96 598.549 1076.8 598.568 1077.65 598.577 1078.51 598.577 1079.36 598.587 1080.2 598.577 1082.75 598.577 1083.6 598.568 1087 598.568 1087.84 598.577 1088.7 598.577 1089.55 598.587 1090.4 598.606 1091.24 598.616 1092.94 598.654 1093.8 598.664 1096.34 598.693 1100.59 598.693 1101.43 598.683 1103.13 598.683 1103.99 598.673 1106.53 598.673 1107.38 598.664 1111.63 598.664 1112.47 598.673 1113.32 598.673 1114.18 598.683 1115.03 598.693 1115.87 598.712 1116.72 598.721 1117.57 598.721 1118.42 598.731 1119.27 598.741 1120.12 598.741 1120.97 598.75 1121.82 598.75 1122.67 598.76 1123.51 598.76 1124.37 598.769 1125.22 598.779 1126.07 598.779 1128.61 598.808 1129.47 598.827 1132.86 598.866 1133.71 598.875 1136.26 598.875 1137.1 598.866 1137.95 598.866 1138.81 598.846 1142.2 598.808 1144.75 598.808 1146.45 598.827 1148.14 598.866 1149 598.885 1149 599Z" fill="#023858" fill-rule="evenodd" fill-opacity="0.4"/><path d="M715 599 725.191 599 726.039 598.99 726.895 598.99 728.591 598.952 729.439 598.904 730.287 598.808 731.135 598.635 731.991 598.337 732.839 597.838 733.687 597.041 734.535 595.821 735.383 594.015 736.231 591.451 737.087 587.964 737.935 583.363 738.783 577.543 739.631 570.406 740.479 561.983 741.327 552.349 742.182 541.707 743.03 530.306 743.878 518.569 744.726 506.812 745.574 495.373 746.43 484.5 747.278 474.405 748.126 465.194 748.974 456.944 749.822 449.634 750.67 443.228 751.526 437.666 752.374 432.864 753.222 428.753 754.07 425.257 754.918 422.366 755.766 419.965 756.622 418.034 757.47 416.526 758.318 415.402 759.166 414.644 760.014 414.183 760.862 414 761.717 414.058 762.565 414.317 763.413 414.749 764.261 415.345 765.109 416.104 765.957 417.035 766.813 418.149 767.661 419.456 768.509 420.935 769.357 422.577 770.205 424.373 771.053 426.285 771.909 428.263 773.605 432.297 774.453 434.305 775.301 436.274 776.149 438.224 777.005 440.154 777.853 442.085 778.701 444.034 779.548 446.013 780.396 448.021 781.244 450.066 782.1 452.141 782.948 454.235 783.796 456.338 784.644 458.432 786.34 462.601 787.196 464.666 788.892 468.796 789.74 470.852 790.588 472.917 791.436 474.972 792.292 477.018 793.14 479.054 793.988 481.061 794.836 483.04 795.684 484.98 796.532 486.882 797.387 488.745 798.235 490.57 799.083 492.347 799.931 494.105 800.779 495.843 801.627 497.553 802.483 499.272 803.331 500.982 804.179 502.711 805.027 504.459 805.875 506.217 806.723 507.994 807.579 509.761 808.427 511.509 809.275 513.209 810.123 514.861 810.971 516.436 811.827 517.935 812.675 519.346 813.523 520.682 814.371 521.94 815.219 523.15 816.067 524.312 816.922 525.436 817.77 526.521 818.618 527.588 819.466 528.635 820.314 529.672 821.162 530.7 822.018 531.718 822.866 532.755 823.714 533.802 824.562 534.868 825.41 535.973 826.258 537.096 827.114 538.239 827.962 539.392 828.81 540.564 829.658 541.726 830.506 542.869 831.354 543.983 832.209 545.069 833.057 546.106 833.905 547.105 834.753 548.056 835.601 548.968 836.449 549.842 837.305 550.678 838.153 551.485 839.001 552.282 839.849 553.06 840.697 553.847 841.545 554.625 842.401 555.413 843.249 556.201 844.097 556.998 844.945 557.785 845.793 558.583 846.641 559.37 847.497 560.158 848.345 560.917 849.193 561.666 850.041 562.396 850.888 563.107 851.736 563.798 852.592 564.47 853.44 565.114 854.288 565.738 855.136 566.334 855.984 566.91 856.832 567.467 857.688 567.995 858.536 568.514 859.384 569.023 861.08 570.022 861.928 570.531 862.784 571.031 864.48 572.029 865.328 572.5 866.176 572.961 867.024 573.384 867.88 573.777 868.727 574.143 869.575 574.46 870.423 574.757 871.271 575.017 872.119 575.257 872.975 575.487 874.671 575.967 875.519 576.246 876.367 576.553 877.223 576.899 878.071 577.293 878.919 577.725 879.767 578.186 880.615 578.686 881.463 579.214 882.319 579.742 883.167 580.28 884.015 580.799 884.863 581.298 885.711 581.769 886.559 582.201 887.414 582.595 888.262 582.95 889.11 583.258 889.958 583.536 890.806 583.786 891.654 584.016 892.51 584.228 894.206 584.612 895.054 584.794 896.75 585.14 897.606 585.313 899.302 585.659 900.998 586.024 901.846 586.226 902.702 586.446 903.55 586.687 904.398 586.946 905.246 587.224 906.094 587.522 906.941 587.83 907.797 588.137 909.493 588.771 910.341 589.078 912.037 589.674 912.893 589.962 913.741 590.231 914.589 590.49 915.437 590.721 916.285 590.922 917.133 591.095 917.989 591.239 918.837 591.364 919.685 591.46 921.381 591.595 922.229 591.643 923.084 591.691 923.932 591.739 925.628 591.854 926.476 591.921 927.324 592.008 928.18 592.113 929.028 592.229 929.876 592.363 930.724 592.507 932.42 592.814 933.276 592.968 934.972 593.237 936.668 593.448 937.516 593.535 938.372 593.621 941.764 593.967 942.619 594.053 944.315 594.226 946.011 594.361 946.859 594.419 947.715 594.476 948.563 594.534 949.411 594.601 951.107 594.755 951.955 594.841 952.811 594.947 955.355 595.235 956.203 595.321 957.051 595.389 957.907 595.456 959.603 595.552 960.451 595.581 962.146 595.658 963.002 595.686 964.698 595.763 965.546 595.811 967.242 595.888 968.098 595.926 970.642 596.013 972.338 596.09 973.194 596.147 974.042 596.205 974.89 596.282 975.738 596.368 976.586 596.464 977.434 596.57 978.29 596.676 979.985 596.868 980.833 596.954 981.681 597.021 982.529 597.079 983.385 597.118 984.233 597.146 985.929 597.185 986.777 597.194 987.625 597.213 988.481 597.223 991.873 597.3 992.721 597.329 993.577 597.367 994.425 597.406 997.817 597.598 998.672 597.655 1000.37 597.751 1002.06 597.828 1002.92 597.857 1003.77 597.876 1004.62 597.886 1005.46 597.886 1006.31 597.876 1007.16 597.857 1008.02 597.838 1010.56 597.751 1012.26 597.713 1013.11 597.703 1015.66 597.703 1016.5 597.713 1017.35 597.713 1018.21 597.723 1022.45 597.771 1023.3 597.79 1024.15 597.809 1025 597.838 1025.85 597.857 1026.69 597.886 1027.54 597.905 1028.4 597.934 1032.64 598.078 1033.49 598.097 1034.34 598.116 1035.19 598.126 1036.04 598.145 1036.89 598.145 1037.73 598.155 1038.59 598.155 1039.44 598.164 1041.13 598.164 1041.98 598.174 1042.83 598.174 1043.69 598.184 1046.23 598.212 1047.08 598.232 1047.93 598.241 1048.78 598.26 1049.63 598.289 1050.48 598.308 1052.17 598.366 1053.02 598.385 1053.88 598.424 1058.12 598.568 1058.97 598.597 1060.67 598.654 1061.52 598.673 1063.21 598.693 1064.07 598.693 1064.92 598.683 1066.61 598.645 1067.46 598.616 1068.32 598.597 1069.16 598.568 1070.86 598.529 1072.56 598.51 1073.41 598.52 1075.96 598.549 1076.8 598.568 1077.65 598.577 1078.51 598.577 1079.36 598.587 1080.2 598.577 1082.75 598.577 1083.6 598.568 1087 598.568 1087.84 598.577 1088.7 598.577 1089.55 598.587 1090.4 598.606 1091.24 598.616 1092.94 598.654 1093.8 598.664 1096.34 598.693 1100.59 598.693 1101.43 598.683 1103.13 598.683 1103.99 598.673 1106.53 598.673 1107.38 598.664 1111.63 598.664 1112.47 598.673 1113.32 598.673 1114.18 598.683 1115.03 598.693 1115.87 598.712 1116.72 598.721 1117.57 598.721 1118.42 598.731 1119.27 598.741 1120.12 598.741 1120.97 598.75 1121.82 598.75 1122.67 598.76 1123.51 598.76 1124.37 598.769 1125.22 598.779 1126.07 598.779 1128.61 598.808 1129.47 598.827 1132.86 598.866 1133.71 598.875 1136.26 598.875 1137.1 598.866 1137.95 598.866 1138.81 598.846 1142.2 598.808 1144.75 598.808 1146.45 598.827 1148.14 598.866 1149 598.885" stroke="#000000" stroke-width="1.62898" stroke-linejoin="round" stroke-miterlimit="10" fill="none" fill-rule="evenodd"/><path d="M715 599 726.039 599 726.895 598.991 727.743 598.981 728.591 598.962 729.439 598.933 730.287 598.856 731.135 598.721 731.991 598.481 732.839 598.077 733.687 597.404 734.535 596.327 735.383 594.644 736.231 592.183 737.087 588.731 737.935 584.077 738.783 578.077 739.631 570.625 740.479 561.731 741.327 551.5 742.182 540.173 743.03 528.048 743.878 515.539 744.726 503.048 745.574 490.971 746.43 479.654 747.278 469.433 748.126 460.385 748.974 452.538 749.822 445.846 750.67 440.192 751.526 435.452 752.374 431.49 753.222 428.173 754.07 425.404 754.918 423.096 755.766 421.202 756.622 419.683 757.47 418.519 758.318 417.683 759.166 417.183 760.014 417 760.862 417.096 761.717 417.442 762.565 418 763.413 418.712 764.261 419.538 765.109 420.423 765.957 421.337 766.813 422.24 767.661 423.125 768.509 424.019 769.357 424.933 770.205 425.904 771.053 426.981 771.909 428.202 772.757 429.577 773.605 431.115 774.453 432.798 775.301 434.596 776.149 436.5 777.005 438.462 777.853 440.481 778.701 442.519 779.548 444.577 780.396 446.644 781.244 448.721 782.1 450.798 782.948 452.885 783.796 454.962 784.644 457.01 785.492 459.019 786.34 460.971 787.196 462.856 788.044 464.673 788.892 466.414 789.74 468.087 790.588 469.712 791.436 471.289 792.292 472.827 793.14 474.346 793.988 475.856 795.684 478.856 796.532 480.385 797.387 481.962 798.235 483.596 799.083 485.308 799.931 487.125 800.779 489.039 801.627 491.048 802.483 493.135 803.331 495.298 804.179 497.51 805.027 499.731 805.875 501.933 806.723 504.106 807.579 506.212 808.427 508.24 809.275 510.183 810.123 512.048 810.971 513.856 811.827 515.606 812.675 517.308 813.523 518.981 814.371 520.615 815.219 522.212 816.067 523.76 816.922 525.25 817.77 526.673 818.618 528.01 819.466 529.279 820.314 530.452 821.162 531.539 822.018 532.539 822.866 533.471 823.714 534.327 824.562 535.125 825.41 535.894 826.258 536.644 827.114 537.414 827.962 538.202 828.81 539.029 829.658 539.923 830.506 540.865 831.354 541.856 832.209 542.894 833.057 543.942 833.905 545 834.753 546.039 835.601 547.058 836.449 548.048 837.305 549.01 838.153 549.952 839.001 550.865 839.849 551.76 840.697 552.635 841.545 553.481 842.401 554.308 843.249 555.115 844.097 555.894 846.641 558.173 847.497 558.942 848.345 559.75 849.193 560.587 850.041 561.462 850.888 562.375 851.736 563.298 852.592 564.231 853.44 565.154 854.288 566.039 855.136 566.865 855.984 567.635 856.832 568.327 857.688 568.942 858.536 569.481 859.384 569.962 860.232 570.423 861.08 570.865 861.928 571.317 862.784 571.798 863.632 572.298 864.48 572.827 865.328 573.375 867.024 574.49 867.88 575.029 868.727 575.548 869.575 576.039 870.423 576.519 872.119 577.442 872.975 577.894 873.823 578.346 875.519 579.231 876.367 579.654 877.223 580.077 878.071 580.471 878.919 580.856 880.615 581.587 881.463 581.933 882.319 582.269 884.015 582.942 884.863 583.269 885.711 583.606 886.559 583.933 887.414 584.26 888.262 584.577 889.11 584.866 889.958 585.135 890.806 585.375 891.654 585.587 892.51 585.76 893.358 585.914 895.902 586.317 896.75 586.481 897.606 586.664 898.454 586.865 899.302 587.087 901.846 587.779 902.702 587.99 903.55 588.183 904.398 588.346 905.246 588.49 906.094 588.606 906.941 588.702 907.797 588.789 909.493 588.962 910.341 589.058 911.189 589.164 912.037 589.298 912.893 589.462 913.741 589.654 914.589 589.875 915.437 590.135 916.285 590.404 917.133 590.702 917.989 591 918.837 591.298 919.685 591.577 920.533 591.846 921.381 592.096 922.229 592.317 923.084 592.519 923.932 592.692 924.78 592.856 925.628 592.991 926.476 593.115 927.324 593.221 928.18 593.308 929.876 593.442 930.724 593.481 932.42 593.538 933.276 593.558 934.972 593.615 935.82 593.664 936.668 593.731 937.516 593.817 938.372 593.923 940.068 594.173 940.916 594.317 941.764 594.452 942.619 594.587 943.467 594.721 945.163 594.971 946.859 595.183 947.715 595.279 948.563 595.375 949.411 595.452 950.259 595.519 951.107 595.577 951.955 595.625 952.811 595.673 953.659 595.712 955.355 595.827 956.203 595.894 957.051 595.971 957.907 596.058 958.755 596.144 959.603 596.24 960.451 596.317 961.299 596.375 962.146 596.423 963.002 596.442 963.85 596.452 964.698 596.442 965.546 596.423 967.242 596.404 968.098 596.404 968.946 596.414 969.794 596.442 971.49 596.539 972.338 596.596 973.194 596.654 974.042 596.712 974.89 596.76 976.586 596.837 977.434 596.865 978.29 596.904 979.985 596.981 980.833 597.029 982.529 597.144 983.385 597.212 984.233 597.289 985.081 597.356 987.625 597.587 988.481 597.664 990.177 597.798 991.873 597.914 992.721 597.952 993.577 597.991 994.425 598.019 996.121 598.039 997.817 598.039 998.672 598.029 1000.37 598.029 1002.06 598.048 1002.92 598.058 1003.77 598.067 1004.62 598.087 1006.31 598.106 1009.71 598.106 1011.41 598.087 1012.26 598.067 1013.11 598.058 1017.35 597.962 1018.21 597.952 1019.06 597.942 1019.9 597.942 1021.6 597.962 1022.45 597.981 1023.3 598.01 1024.15 598.039 1026.69 598.154 1027.54 598.183 1028.4 598.212 1029.25 598.241 1030.94 598.279 1031.79 598.289 1032.64 598.289 1033.49 598.298 1039.44 598.298 1040.29 598.289 1041.98 598.289 1042.83 598.279 1046.23 598.279 1047.08 598.269 1049.63 598.269 1050.48 598.26 1051.33 598.26 1052.17 598.269 1053.02 598.269 1053.88 598.279 1054.73 598.298 1055.57 598.308 1056.42 598.327 1057.27 598.356 1058.12 598.375 1058.97 598.404 1060.67 598.462 1061.52 598.481 1062.36 598.51 1063.21 598.529 1064.07 598.548 1065.76 598.587 1066.61 598.596 1067.46 598.616 1068.32 598.625 1071.71 598.664 1072.56 598.664 1073.41 598.673 1074.26 598.683 1077.65 598.683 1078.51 598.673 1079.36 598.673 1080.2 598.683 1081.05 598.683 1081.9 598.693 1082.75 598.712 1083.6 598.731 1086.15 598.789 1087.84 598.808 1088.7 598.808 1092.09 598.769 1092.94 598.75 1093.8 598.75 1094.64 598.74 1095.49 598.74 1098.04 598.769 1098.89 598.789 1099.74 598.808 1100.59 598.817 1102.28 598.856 1103.13 598.865 1103.99 598.875 1107.38 598.875 1108.23 598.865 1109.08 598.856 1111.63 598.827 1112.47 598.827 1113.32 598.817 1115.03 598.817 1115.87 598.827 1116.72 598.827 1118.42 598.846 1125.22 598.846 1126.07 598.856 1126.91 598.856 1127.76 598.865 1128.61 598.865 1129.47 598.875 1130.31 598.885 1131.16 598.885 1132.01 598.894 1132.86 598.894 1133.71 598.904 1135.41 598.904 1136.26 598.914 1139.66 598.914 1140.5 598.904 1141.35 598.904 1142.2 598.894 1143.05 598.894 1143.9 598.885 1147.3 598.885 1148.14 598.894 1149 598.904 1149 599Z" fill="#0570B0" fill-rule="evenodd" fill-opacity="0.301961"/><path d="M715 599 726.039 599 726.895 598.991 727.743 598.981 728.591 598.962 729.439 598.933 730.287 598.856 731.135 598.721 731.991 598.481 732.839 598.077 733.687 597.404 734.535 596.327 735.383 594.644 736.231 592.183 737.087 588.731 737.935 584.077 738.783 578.077 739.631 570.625 740.479 561.731 741.327 551.5 742.182 540.173 743.03 528.048 743.878 515.539 744.726 503.048 745.574 490.971 746.43 479.654 747.278 469.433 748.126 460.385 748.974 452.538 749.822 445.846 750.67 440.192 751.526 435.452 752.374 431.49 753.222 428.173 754.07 425.404 754.918 423.096 755.766 421.202 756.622 419.683 757.47 418.519 758.318 417.683 759.166 417.183 760.014 417 760.862 417.096 761.717 417.442 762.565 418 763.413 418.712 764.261 419.538 765.109 420.423 765.957 421.337 766.813 422.24 767.661 423.125 768.509 424.019 769.357 424.933 770.205 425.904 771.053 426.981 771.909 428.202 772.757 429.577 773.605 431.115 774.453 432.798 775.301 434.596 776.149 436.5 777.005 438.462 777.853 440.481 778.701 442.519 779.548 444.577 780.396 446.644 781.244 448.721 782.1 450.798 782.948 452.885 783.796 454.962 784.644 457.01 785.492 459.019 786.34 460.971 787.196 462.856 788.044 464.673 788.892 466.414 789.74 468.087 790.588 469.712 791.436 471.289 792.292 472.827 793.14 474.346 793.988 475.856 795.684 478.856 796.532 480.385 797.387 481.962 798.235 483.596 799.083 485.308 799.931 487.125 800.779 489.039 801.627 491.048 802.483 493.135 803.331 495.298 804.179 497.51 805.027 499.731 805.875 501.933 806.723 504.106 807.579 506.212 808.427 508.24 809.275 510.183 810.123 512.048 810.971 513.856 811.827 515.606 812.675 517.308 813.523 518.981 814.371 520.615 815.219 522.212 816.067 523.76 816.922 525.25 817.77 526.673 818.618 528.01 819.466 529.279 820.314 530.452 821.162 531.539 822.018 532.539 822.866 533.471 823.714 534.327 824.562 535.125 825.41 535.894 826.258 536.644 827.114 537.414 827.962 538.202 828.81 539.029 829.658 539.923 830.506 540.865 831.354 541.856 832.209 542.894 833.057 543.942 833.905 545 834.753 546.039 835.601 547.058 836.449 548.048 837.305 549.01 838.153 549.952 839.001 550.865 839.849 551.76 840.697 552.635 841.545 553.481 842.401 554.308 843.249 555.115 844.097 555.894 846.641 558.173 847.497 558.942 848.345 559.75 849.193 560.587 850.041 561.462 850.888 562.375 851.736 563.298 852.592 564.231 853.44 565.154 854.288 566.039 855.136 566.865 855.984 567.635 856.832 568.327 857.688 568.942 858.536 569.481 859.384 569.962 860.232 570.423 861.08 570.865 861.928 571.317 862.784 571.798 863.632 572.298 864.48 572.827 865.328 573.375 867.024 574.49 867.88 575.029 868.727 575.548 869.575 576.039 870.423 576.519 872.119 577.442 872.975 577.894 873.823 578.346 875.519 579.231 876.367 579.654 877.223 580.077 878.071 580.471 878.919 580.856 880.615 581.587 881.463 581.933 882.319 582.269 884.015 582.942 884.863 583.269 885.711 583.606 886.559 583.933 887.414 584.26 888.262 584.577 889.11 584.866 889.958 585.135 890.806 585.375 891.654 585.587 892.51 585.76 893.358 585.914 895.902 586.317 896.75 586.481 897.606 586.664 898.454 586.865 899.302 587.087 901.846 587.779 902.702 587.99 903.55 588.183 904.398 588.346 905.246 588.49 906.094 588.606 906.941 588.702 907.797 588.789 909.493 588.962 910.341 589.058 911.189 589.164 912.037 589.298 912.893 589.462 913.741 589.654 914.589 589.875 915.437 590.135 916.285 590.404 917.133 590.702 917.989 591 918.837 591.298 919.685 591.577 920.533 591.846 921.381 592.096 922.229 592.317 923.084 592.519 923.932 592.692 924.78 592.856 925.628 592.991 926.476 593.115 927.324 593.221 928.18 593.308 929.876 593.442 930.724 593.481 932.42 593.538 933.276 593.558 934.972 593.615 935.82 593.664 936.668 593.731 937.516 593.817 938.372 593.923 940.068 594.173 940.916 594.317 941.764 594.452 942.619 594.587 943.467 594.721 945.163 594.971 946.859 595.183 947.715 595.279 948.563 595.375 949.411 595.452 950.259 595.519 951.107 595.577 951.955 595.625 952.811 595.673 953.659 595.712 955.355 595.827 956.203 595.894 957.051 595.971 957.907 596.058 958.755 596.144 959.603 596.24 960.451 596.317 961.299 596.375 962.146 596.423 963.002 596.442 963.85 596.452 964.698 596.442 965.546 596.423 967.242 596.404 968.098 596.404 968.946 596.414 969.794 596.442 971.49 596.539 972.338 596.596 973.194 596.654 974.042 596.712 974.89 596.76 976.586 596.837 977.434 596.865 978.29 596.904 979.985 596.981 980.833 597.029 982.529 597.144 983.385 597.212 984.233 597.289 985.081 597.356 987.625 597.587 988.481 597.664 990.177 597.798 991.873 597.914 992.721 597.952 993.577 597.991 994.425 598.019 996.121 598.039 997.817 598.039 998.672 598.029 1000.37 598.029 1002.06 598.048 1002.92 598.058 1003.77 598.067 1004.62 598.087 1006.31 598.106 1009.71 598.106 1011.41 598.087 1012.26 598.067 1013.11 598.058 1017.35 597.962 1018.21 597.952 1019.06 597.942 1019.9 597.942 1021.6 597.962 1022.45 597.981 1023.3 598.01 1024.15 598.039 1026.69 598.154 1027.54 598.183 1028.4 598.212 1029.25 598.241 1030.94 598.279 1031.79 598.289 1032.64 598.289 1033.49 598.298 1039.44 598.298 1040.29 598.289 1041.98 598.289 1042.83 598.279 1046.23 598.279 1047.08 598.269 1049.63 598.269 1050.48 598.26 1051.33 598.26 1052.17 598.269 1053.02 598.269 1053.88 598.279 1054.73 598.298 1055.57 598.308 1056.42 598.327 1057.27 598.356 1058.12 598.375 1058.97 598.404 1060.67 598.462 1061.52 598.481 1062.36 598.51 1063.21 598.529 1064.07 598.548 1065.76 598.587 1066.61 598.596 1067.46 598.616 1068.32 598.625 1071.71 598.664 1072.56 598.664 1073.41 598.673 1074.26 598.683 1077.65 598.683 1078.51 598.673 1079.36 598.673 1080.2 598.683 1081.05 598.683 1081.9 598.693 1082.75 598.712 1083.6 598.731 1086.15 598.789 1087.84 598.808 1088.7 598.808 1092.09 598.769 1092.94 598.75 1093.8 598.75 1094.64 598.74 1095.49 598.74 1098.04 598.769 1098.89 598.789 1099.74 598.808 1100.59 598.817 1102.28 598.856 1103.13 598.865 1103.99 598.875 1107.38 598.875 1108.23 598.865 1109.08 598.856 1111.63 598.827 1112.47 598.827 1113.32 598.817 1115.03 598.817 1115.87 598.827 1116.72 598.827 1118.42 598.846 1125.22 598.846 1126.07 598.856 1126.91 598.856 1127.76 598.865 1128.61 598.865 1129.47 598.875 1130.31 598.885 1131.16 598.885 1132.01 598.894 1132.86 598.894 1133.71 598.904 1135.41 598.904 1136.26 598.914 1139.66 598.914 1140.5 598.904 1141.35 598.904 1142.2 598.894 1143.05 598.894 1143.9 598.885 1147.3 598.885 1148.14 598.894 1149 598.904" stroke="#000000" stroke-width="1.62898" stroke-linejoin="round" stroke-miterlimit="10" fill="none" fill-rule="evenodd"/><path d="M693 613 693 306" stroke="#4B5E68" stroke-width="2" stroke-linecap="square" stroke-linejoin="round" stroke-miterlimit="10" fill="none" fill-rule="evenodd"/><path d="M704 599 693 599" stroke="#4B5E68" stroke-width="2" stroke-linejoin="round" stroke-miterlimit="10" fill="none" fill-rule="evenodd"/><path d="M704 548 693 548" stroke="#4B5E68" stroke-width="2" stroke-linejoin="round" stroke-miterlimit="10" fill="none" fill-rule="evenodd"/><path d="M704 497 693 497" stroke="#4B5E68" stroke-width="2" stroke-linejoin="round" stroke-miterlimit="10" fill="none" fill-rule="evenodd"/><path d="M704 446 693 446" stroke="#4B5E68" stroke-width="2" stroke-linejoin="round" stroke-miterlimit="10" fill="none" fill-rule="evenodd"/><path d="M704 396 693 396" stroke="#4B5E68" stroke-width="2" stroke-linejoin="round" stroke-miterlimit="10" fill="none" fill-rule="evenodd"/><path d="M704 345 693 345" stroke="#4B5E68" stroke-width="2" stroke-linejoin="round" stroke-miterlimit="10" fill="none" fill-rule="evenodd"/><path d="M693 613 1171 613" stroke="#4B5E68" stroke-width="2" stroke-linecap="square" stroke-linejoin="round" stroke-miterlimit="10" fill="none" fill-rule="evenodd"/><path d="M742 599 742 613" stroke="#4B5E68" stroke-width="2" stroke-linejoin="round" stroke-miterlimit="10" fill="none" fill-rule="evenodd"/><path d="M878 599 878 613" stroke="#4B5E68" stroke-width="2" stroke-linejoin="round" stroke-miterlimit="10" fill="none" fill-rule="evenodd"/><path d="M1013 599 1013 613" stroke="#4B5E68" stroke-width="2" stroke-linejoin="round" stroke-miterlimit="10" fill="none" fill-rule="evenodd"/><path d="M1149 599 1149 613" stroke="#4B5E68" stroke-width="2" stroke-linejoin="round" stroke-miterlimit="10" fill="none" fill-rule="evenodd"/><text fill="#4B5E68" font-family="Arial,Arial_MSFontService,sans-serif" font-weight="400" font-size="21" transform="translate(212.454 256)">Poisson distribution for I</text><text fill="#4B5E68" font-family="Arial,Arial_MSFontService,sans-serif" font-style="italic" font-weight="400" font-size="14" transform="translate(440.121 260)">h,m</text><text fill="#4B5E68" font-family="Arial,Arial_MSFontService,sans-serif" font-weight="400" font-size="21" transform="translate(463.787 256)">(t),</text><text fill="#4B5E68" font-family="Arial,Arial_MSFontService,sans-serif" font-weight="400" font-size="21" transform="translate(164.707 281)">i</text><text fill="#4B5E68" font-family="Arial,Arial_MSFontService,sans-serif" font-weight="400" font-size="21" transform="translate(169.374 281)">nstead of</text><text fill="#4B5E68" font-family="Arial,Arial_MSFontService,sans-serif" font-weight="400" font-size="21" transform="translate(263.207 281)">negative</text><text fill="#4B5E68" font-family="Arial,Arial_MSFontService,sans-serif" font-weight="400" font-size="21" transform="translate(349.707 281)">binomial</text><text fill="#4B5E68" font-family="Arial,Arial_MSFontService,sans-serif" font-weight="400" font-size="21" transform="translate(434.874 281)">distributio</text><text fill="#4B5E68" font-family="Arial,Arial_MSFontService,sans-serif" font-weight="400" font-size="21" transform="translate(526.041 281)">n</text><text fill="#4B5E68" font-family="Arial,Arial_MSFontService,sans-serif" font-weight="400" font-size="21" transform="translate(669.903 251)">Assuming</text><text fill="#4B5E68" font-family="Arial,Arial_MSFontService,sans-serif" font-weight="400" font-size="21" transform="translate(769.403 251)">short</text><text fill="#4B5E68" font-family="Arial,Arial_MSFontService,sans-serif" font-weight="400" font-size="21" transform="translate(816.903 251)">-</text><text fill="#4B5E68" font-family="Arial,Arial_MSFontService,sans-serif" font-weight="400" font-size="21" transform="translate(824.07 251)">term</text><text fill="#4B5E68" font-family="Arial,Arial_MSFontService,sans-serif" font-weight="400" font-size="21" transform="translate(872.903 251)">delayed</text><text fill="#4B5E68" font-family="Arial,Arial_MSFontService,sans-serif" font-weight="400" font-size="21" transform="translate(953.403 251)">distribution:</text><text fill="#4B5E68" font-family="Arial,Arial_MSFontService,sans-serif" font-weight="400" font-size="21" transform="translate(1068.4 251)">Gamma(0.5, 0.5),</text><text fill="#4B5E68" font-family="Arial,Arial_MSFontService,sans-serif" font-weight="400" font-size="21" transform="translate(807.316 276)">i</text><text fill="#4B5E68" font-family="Arial,Arial_MSFontService,sans-serif" font-weight="400" font-size="21" transform="translate(811.983 276)">nstead of</text><text fill="#4B5E68" font-family="Arial,Arial_MSFontService,sans-serif" font-weight="400" font-size="21" transform="translate(905.816 276)">Gamma (4.00, 1.33</text><text fill="#4B5E68" font-family="Arial,Arial_MSFontService,sans-serif" font-weight="400" font-size="21" transform="translate(1089.98 276)">)</text><text fill="#4B5E68" font-family="Arial,Arial_MSFontService,sans-serif" font-weight="400" font-size="24" transform="translate(67.4642 361)">0.5</text><text fill="#4B5E68" font-family="Arial,Arial_MSFontService,sans-serif" font-weight="400" font-size="24" transform="translate(67.4642 413)">0.4</text><text fill="#4B5E68" font-family="Arial,Arial_MSFontService,sans-serif" font-weight="400" font-size="24" transform="translate(67.4642 456)">0.3</text><text fill="#4B5E68" font-family="Arial,Arial_MSFontService,sans-serif" font-weight="400" font-size="24" transform="translate(67.4642 508)">0.2</text><text fill="#4B5E68" font-family="Arial,Arial_MSFontService,sans-serif" font-weight="400" font-size="24" transform="translate(67.4642 559)">0.1</text><text fill="#4B5E68" font-family="Arial,Arial_MSFontService,sans-serif" font-weight="400" font-size="24" transform="translate(165.586 641)">0</text><text fill="#4B5E68" font-family="Arial,Arial_MSFontService,sans-serif" font-weight="400" font-size="24" transform="translate(298.586 641)">5</text><text fill="#4B5E68" font-family="Arial,Arial_MSFontService,sans-serif" font-weight="400" font-size="24" transform="translate(431.586 641)">10</text><text fill="#4B5E68" font-family="Arial,Arial_MSFontService,sans-serif" font-weight="400" font-size="24" transform="translate(561.587 641)">15</text><text fill="#4B5E68" font-family="Arial,Arial_MSFontService,sans-serif" font-weight="400" font-size="24" transform="translate(733.586 642)">0</text><text fill="#4B5E68" font-family="Arial,Arial_MSFontService,sans-serif" font-weight="400" font-size="24" transform="translate(866.586 642)">5</text><text fill="#4B5E68" font-family="Arial,Arial_MSFontService,sans-serif" font-weight="400" font-size="24" transform="translate(999.586 642)">10</text><text fill="#4B5E68" font-family="Arial,Arial_MSFontService,sans-serif" font-weight="400" font-size="24" transform="translate(1129.59 642)">15</text><text fill="#4B5E68" font-family="Arial,Arial_MSFontService,sans-serif" font-weight="400" font-size="24" transform="translate(249.6 677)">Days since infection</text><text fill="#4B5E68" font-family="Arial,Arial_MSFontService,sans-serif" font-weight="400" font-size="24" transform="translate(850.6 677)">Days since infection</text><text fill="#4B5E68" font-family="Arial,Arial_MSFontService,sans-serif" font-weight="400" font-size="24" transform="translate(83.5999 144)">Assuming different likelihood functions, probability distributions, and prior distributions,</text><text fill="#4B5E68" font-family="Arial,Arial_MSFontService,sans-serif" font-weight="400" font-size="24" transform="translate(83.5999 173)">the</text><text fill="#4B5E68" font-family="Arial,Arial_MSFontService,sans-serif" font-weight="400" font-size="24" transform="translate(123.6 173)">result that SARS</text><text fill="#4B5E68" font-family="Arial,Arial_MSFontService,sans-serif" font-weight="400" font-size="24" transform="translate(300.933 173)">-</text><text fill="#4B5E68" font-family="Arial,Arial_MSFontService,sans-serif" font-weight="400" font-size="24" transform="translate(308.933 173)">CoV</text><text fill="#4B5E68" font-family="Arial,Arial_MSFontService,sans-serif" font-weight="400" font-size="24" transform="translate(354.273 173)">-</text><text fill="#4B5E68" font-family="Arial,Arial_MSFontService,sans-serif" font-weight="400" font-size="24" transform="translate(362.273 173)">2</text><text fill="#4B5E68" font-family="Arial,Arial_MSFontService,sans-serif" font-weight="400" font-size="24" transform="translate(375.607 173)">-</text><text fill="#4B5E68" font-family="Arial,Arial_MSFontService,sans-serif" font-weight="400" font-size="24" transform="translate(383.607 173)">infected individuals start shedding before symptom onset remained unchanged.</text><text fill="#C8A314" font-family="Arial,Arial_MSFontService,sans-serif" font-weight="400" font-size="24" transform="translate(356.857 466)">Incubation time</text><path d="M312.744 520.648C308.972 489.904 326.07 462.509 350.933 459.458" stroke="#856D0E" stroke-width="3" stroke-miterlimit="8" fill="none" fill-rule="evenodd"/><path d="M324 504 313 524 302 504Z" fill="#856D0E" fill-rule="evenodd"/><text fill="#A0234E" font-family="Arial,Arial_MSFontService,sans-serif" font-weight="400" font-size="24" transform="translate(175.763 329)">1.4</text><text fill="#A0234E" font-family="Arial,Arial_MSFontService,sans-serif" font-weight="400" font-size="24" transform="translate(209.096 329)">8</text><text fill="#A0234E" font-family="Arial,Arial_MSFontService,sans-serif" font-weight="400" font-size="24" transform="translate(229.096 329)">days</text><text fill="#4B5E68" font-family="Arial,Arial_MSFontService,sans-serif" font-weight="400" font-size="24" transform="translate(286.43 329)">(95%</text><text fill="#4B5E68" font-family="Arial,Arial_MSFontService,sans-serif" font-weight="400" font-size="24" transform="translate(349.096 329)">CrI</text><text fill="#4B5E68" font-family="Arial,Arial_MSFontService,sans-serif" font-weight="400" font-size="24" transform="translate(381.096 329)">:</text><text fill="#4B5E68" font-family="Arial,Arial_MSFontService,sans-serif" font-weight="400" font-size="24" transform="translate(394.43 329)">−</text><text fill="#4B5E68" font-family="Arial,Arial_MSFontService,sans-serif" font-weight="400" font-size="24" transform="translate(408.43 329)">3</text><text fill="#4B5E68" font-family="Arial,Arial_MSFontService,sans-serif" font-weight="400" font-size="24" transform="translate(421.763 329)">.</text><text fill="#4B5E68" font-family="Arial,Arial_MSFontService,sans-serif" font-weight="400" font-size="24" transform="translate(428.43 329)">80</text><text fill="#4B5E68" font-family="Arial,Arial_MSFontService,sans-serif" font-weight="400" font-size="24" transform="translate(455.096 329)">—</text><text fill="#4B5E68" font-family="Arial,Arial_MSFontService,sans-serif" font-weight="400" font-size="24" transform="translate(479.096 329)">6.</text><text fill="#4B5E68" font-family="Arial,Arial_MSFontService,sans-serif" font-weight="400" font-size="24" transform="translate(499.096 329)">4</text><text fill="#4B5E68" font-family="Arial,Arial_MSFontService,sans-serif" font-weight="400" font-size="24" transform="translate(512.43 329)">9)</text><text fill="#4B5E68" font-family="Arial,Arial_MSFontService,sans-serif" font-weight="400" font-size="24" transform="translate(175.763 358)">earlier than symptom onset</text><text fill="#A0234E" font-family="Arial,Arial_MSFontService,sans-serif" font-weight="400" font-size="24" transform="translate(797.245 329)">1.</text><text fill="#A0234E" font-family="Arial,Arial_MSFontService,sans-serif" font-weight="400" font-size="24" transform="translate(817.245 329)">56</text><text fill="#A0234E" font-family="Arial,Arial_MSFontService,sans-serif" font-weight="400" font-size="24" transform="translate(850.578 329)">days</text><text fill="#4B5E68" font-family="Arial,Arial_MSFontService,sans-serif" font-weight="400" font-size="24" transform="translate(907.912 329)">(95%</text><text fill="#4B5E68" font-family="Arial,Arial_MSFontService,sans-serif" font-weight="400" font-size="24" transform="translate(970.578 329)">CrI</text><text fill="#4B5E68" font-family="Arial,Arial_MSFontService,sans-serif" font-weight="400" font-size="24" transform="translate(1002.58 329)">:</text><text fill="#4B5E68" font-family="Arial,Arial_MSFontService,sans-serif" font-weight="400" font-size="24" transform="translate(1015.91 329)">−</text><text fill="#4B5E68" font-family="Arial,Arial_MSFontService,sans-serif" font-weight="400" font-size="24" transform="translate(1029.91 329)">3</text><text fill="#4B5E68" font-family="Arial,Arial_MSFontService,sans-serif" font-weight="400" font-size="24" transform="translate(1043.25 329)">.</text><text fill="#4B5E68" font-family="Arial,Arial_MSFontService,sans-serif" font-weight="400" font-size="24" transform="translate(1049.91 329)">64</text><text fill="#4B5E68" font-family="Arial,Arial_MSFontService,sans-serif" font-weight="400" font-size="24" transform="translate(1076.58 329)">—</text><text fill="#4B5E68" font-family="Arial,Arial_MSFontService,sans-serif" font-weight="400" font-size="24" transform="translate(1100.58 329)">6.</text><text fill="#4B5E68" font-family="Arial,Arial_MSFontService,sans-serif" font-weight="400" font-size="24" transform="translate(1120.58 329)">41</text><text fill="#4B5E68" font-family="Arial,Arial_MSFontService,sans-serif" font-weight="400" font-size="24" transform="translate(1147.25 329)">)</text><text fill="#4B5E68" font-family="Arial,Arial_MSFontService,sans-serif" font-weight="400" font-size="24" transform="translate(797.245 358)">earlier than symptom onset</text><text fill="#C8A314" font-family="Arial,Arial_MSFontService,sans-serif" font-weight="400" font-size="24" transform="translate(932.857 471)">Incubation time</text><path d="M888.744 526.235C884.972 495.491 902.07 468.096 926.933 465.046" stroke="#856D0E" stroke-width="3" stroke-miterlimit="8" fill="none" fill-rule="evenodd"/><path d="M900 510 889 529 878 510Z" fill="#856D0E" fill-rule="evenodd"/><text fill="#4B5E68" font-family="Arial,Arial_MSFontService,sans-serif" font-weight="400" font-size="24" transform="matrix(-1.83697e-16 -1 1 -1.83697e-16 42.5496 567)">Probability density</text></g></svg>