<svg width="1282" height="724" xmlns="http://www.w3.org/2000/svg" xmlns:xlink="http://www.w3.org/1999/xlink" overflow="hidden"><defs><clipPath id="clip0"><rect x="-1" y="-3" width="1282" height="724"/></clipPath></defs><g clip-path="url(#clip0)" transform="translate(1 3)"><rect x="0" y="0" width="1280" height="720" fill="#FFFFFF"/><rect x="0.500053" y="-1.50005" width="1280" height="37.0001" stroke="#7F7F7F" stroke-width="1.33333" stroke-miterlimit="8" fill="#D9D9D9"/><text fill="#4B5E68" font-family="Arial,Arial_MSFontService,sans-serif" font-weight="700" font-size="21" transform="translate(535.667 25)">Supplementary slide</text><text fill="#4B5E68" font-family="Arial,Arial_MSFontService,sans-serif" font-weight="700" font-size="37" transform="translate(253.757 80)">Discretization of continuous distribution</text><path d="M73 271 629.588 271 629.588 275 73 275ZM627.588 267 639.588 273 627.588 279Z" fill="#7F7F7F"/><path d="M92 218 92.0001 297.37" stroke="#4BACC6" stroke-width="4" stroke-miterlimit="8" fill="none" fill-rule="evenodd"/><path d="M258 218 258 297.37" stroke="#4BACC6" stroke-width="4" stroke-miterlimit="8" fill="none" fill-rule="evenodd"/><path d="M247.402 229 100 229" stroke="#4BACC6" stroke-width="4" stroke-miterlimit="8" stroke-dasharray="4 4" fill="none" fill-rule="evenodd"/><path d="M393 218 393 297.37" stroke="#C8A314" stroke-width="4" stroke-miterlimit="8" fill="none" fill-rule="evenodd"/><path d="M559 218 559 297.37" stroke="#C8A314" stroke-width="4" stroke-miterlimit="8" fill="none" fill-rule="evenodd"/><path d="M549.402 229 402 229" stroke="#C8A314" stroke-width="4" stroke-miterlimit="8" stroke-dasharray="4 4" fill="none" fill-rule="evenodd"/><text fill="#4B5E68" font-family="Arial,Arial_MSFontService,sans-serif" font-style="italic" font-weight="400" font-size="19" transform="translate(253.757 324)">t</text><text fill="#4B5E68" font-family="Arial,Arial_MSFontService,sans-serif" font-style="italic" font-weight="400" font-size="19" transform="translate(83.0118 324)">t</text><text fill="#4B5E68" font-family="Arial,Arial_MSFontService,sans-serif" font-style="italic" font-weight="400" font-size="19" transform="translate(88.1784 324)">-</text><text fill="#4B5E68" font-family="Arial,Arial_MSFontService,sans-serif" font-style="italic" font-weight="400" font-size="19" transform="translate(94.3451 324)">1</text><text fill="#4B5E68" font-family="Arial,Arial_MSFontService,sans-serif" font-style="italic" font-weight="400" font-size="19" transform="translate(551.354 324)">t+k</text><text fill="#4B5E68" font-family="Arial,Arial_MSFontService,sans-serif" font-style="italic" font-weight="400" font-size="19" transform="translate(380.608 324)">t</text><text fill="#4B5E68" font-family="Arial,Arial_MSFontService,sans-serif" font-style="italic" font-weight="400" font-size="19" transform="translate(385.775 324)">-</text><text fill="#4B5E68" font-family="Arial,Arial_MSFontService,sans-serif" font-style="italic" font-weight="400" font-size="19" transform="translate(391.942 324)">1+k</text><text fill="#4B5E68" font-family="Arial,Arial_MSFontService,sans-serif" font-weight="400" font-size="19" transform="translate(101.111 178)">People who develop</text><text fill="#4B5E68" font-family="Arial,Arial_MSFontService,sans-serif" font-weight="400" font-size="19" transform="translate(73.7775 201)">symptom and identified at</text><text fill="#4B5E68" font-family="Arial,Arial_MSFontService,sans-serif" font-style="italic" font-weight="400" font-size="19" transform="translate(290.944 201)">t</text><text fill="#4B5E68" font-family="Arial,Arial_MSFontService,sans-serif" font-weight="400" font-size="19" transform="translate(351.653 178)">People who develop symptom</text><text fill="#4B5E68" font-family="Arial,Arial_MSFontService,sans-serif" font-weight="400" font-size="19" transform="translate(389.74 201)">and identified at</text><text fill="#4B5E68" font-family="Arial,Arial_MSFontService,sans-serif" font-style="italic" font-weight="400" font-size="19" transform="translate(526.24 201)">t + k</text><path d="M257 331 257 347" stroke="#4BACC6" stroke-width="4" stroke-miterlimit="8" fill="none" fill-rule="evenodd"/><path d="M92 332 92.0001 381.134" stroke="#4BACC6" stroke-width="4" stroke-miterlimit="8" fill="none" fill-rule="evenodd"/><path d="M559 332 559 381.134" stroke="#C8A314" stroke-width="4" stroke-miterlimit="8" fill="none" fill-rule="evenodd"/><path d="M395 331 395 347" stroke="#C8A314" stroke-width="4" stroke-miterlimit="8" fill="none" fill-rule="evenodd"/><path d="M257.5 347.5 393.563 347.5" stroke="#7F7F7F" stroke-width="3" stroke-miterlimit="8" fill="none" fill-rule="evenodd"/><text fill="#4B5E68" font-family="Arial,Arial_MSFontService,sans-serif" font-style="italic" font-weight="400" font-size="19" transform="translate(295.738 372)">U = k</text><text fill="#4B5E68" font-family="Arial,Arial_MSFontService,sans-serif" font-style="italic" font-weight="400" font-size="19" transform="translate(339.738 372)">-</text><text fill="#4B5E68" font-family="Arial,Arial_MSFontService,sans-serif" font-style="italic" font-weight="400" font-size="19" transform="translate(345.905 372)">1</text><path d="M92.5001 380.5 561.161 380.5" stroke="#7F7F7F" stroke-width="3" stroke-miterlimit="8" fill="none" fill-rule="evenodd"/><text fill="#4B5E68" font-family="Arial,Arial_MSFontService,sans-serif" font-style="italic" font-weight="400" font-size="19" transform="translate(295.738 406)">U = k+1</text><text fill="#4B5E68" font-family="Arial,Arial_MSFontService,sans-serif" font-weight="400" font-size="24" transform="translate(102.327 440)">When creating discretized serial interval</text><text fill="#4B5E68" font-family="Arial,Arial_MSFontService,sans-serif" font-style="italic" font-weight="400" font-size="24" transform="translate(532.994 440)">k</text><text fill="#4B5E68" font-family="Arial,Arial_MSFontService,sans-serif" font-weight="400" font-size="24" transform="translate(544.994 440)">, serial</text><text fill="#4B5E68" font-family="Arial,Arial_MSFontService,sans-serif" font-weight="400" font-size="24" transform="translate(102.327 469)">interval [</text><text fill="#4B5E68" font-family="Arial,Arial_MSFontService,sans-serif" font-style="italic" font-weight="400" font-size="24" transform="translate(192.994 469)">k</text><text fill="#4B5E68" font-family="Arial,Arial_MSFontService,sans-serif" font-style="italic" font-weight="400" font-size="24" transform="translate(204.994 469)">-</text><text fill="#4B5E68" font-family="Arial,Arial_MSFontService,sans-serif" font-style="italic" font-weight="400" font-size="24" transform="translate(212.994 469)">1</text><text fill="#4B5E68" font-family="Arial,Arial_MSFontService,sans-serif" font-weight="400" font-size="24" transform="translate(226.327 469)">,</text><text fill="#4B5E68" font-family="Arial,Arial_MSFontService,sans-serif" font-style="italic" font-weight="400" font-size="24" transform="translate(239.66 469)">k+1</text><text fill="#4B5E68" font-family="Arial,Arial_MSFontService,sans-serif" font-weight="400" font-size="24" transform="translate(278.994 469)">] should be accounted for.</text><text fill="#4B5E68" font-family="Cambria Math,Cambria Math_MSFontService,sans-serif" font-weight="400" font-size="24" transform="translate(837.704 290)">𝑓</text><text fill="#4B5E68" font-family="Cambria Math,Cambria Math_MSFontService,sans-serif" font-weight="400" font-size="18" transform="translate(847.978 295)">𝑇1</text><path d="M894.253 271.769C896.534 272.371 898.286 273.67 899.509 275.666 900.731 277.662 901.343 280.07 901.343 282.89 901.343 285.718 900.733 288.127 899.515 290.115 898.296 292.103 896.542 293.398 894.253 294L893.972 293.097C895.776 292.496 897.118 291.308 897.997 289.535 898.876 287.761 899.315 285.508 899.315 282.773 899.315 280.133 898.878 277.939 898.003 276.193 897.128 274.447 895.772 273.273 893.936 272.672ZM879.17 271.769 879.487 272.672C877.659 273.273 876.305 274.447 875.426 276.193 874.547 277.939 874.108 280.133 874.108 282.773 874.108 285.508 874.547 287.761 875.426 289.535 876.305 291.308 877.647 292.496 879.452 293.097L879.17 294C876.881 293.398 875.127 292.103 873.909 290.115 872.69 288.127 872.08 285.718 872.08 282.89 872.08 280.07 872.692 277.662 873.914 275.666 875.137 273.67 876.889 272.371 879.17 271.769Z" fill="#4B5E68" fill-rule="evenodd"/><text fill="#4B5E68" font-family="Cambria Math,Cambria Math_MSFontService,sans-serif" font-weight="400" font-size="24" transform="translate(879.931 290)">𝑥</text><text fill="#4B5E68" font-family="Cambria Math,Cambria Math_MSFontService,sans-serif" font-weight="400" font-size="24" transform="translate(910.118 290)">=</text><path d="M1.18359-7.41797C2.29297-7.44922 3.15625-7.95117 3.77344-8.92383 4.39062-9.89648 4.69922-11.3359 4.69922-13.2422 4.69922-14.1094 4.52539-15.752 4.17773-18.1699 3.83008-20.5879 3.65625-22.5859 3.65625-24.1641 3.65625-28.1406 4.31055-31.2344 5.61914-33.4453 6.92773-35.6562 8.78906-36.9141 11.2031-37.2188L11.2031-36.1758C10.3906-36.043 9.6582-35.7188 9.00586-35.2031 8.35352-34.6875 7.79687-33.9785 7.33594-33.0762 6.875-32.1738 6.51953-31.0703 6.26953-29.7656 6.01953-28.4609 5.89453-26.957 5.89453-25.2539 5.89453-23.9805 6.05469-22.0508 6.375-19.4648 6.69531-16.8789 6.85547-15.1875 6.85547-14.3906 6.85547-12.3203 6.48437-10.6426 5.74219-9.35742 5-8.07227 4.26172-7.28516 3.52734-6.99609L3.52734-6.72656C4.26172-6.4375 5-5.65625 5.74219-4.38281 6.48437-3.10938 6.85547-1.43359 6.85547 0.644531 6.85547 1.12109 6.69531 2.86719 6.375 5.88281 6.05469 8.89844 5.89453 10.7617 5.89453 11.4727 5.89453 13.1992 6.00977 14.7129 6.24023 16.0137 6.4707 17.3145 6.82422 18.4219 7.30078 19.3359 7.78516 20.2656 8.34961 20.9863 8.99414 21.498 9.63867 22.0098 10.375 22.332 11.2031 22.4648L11.2031 23.5078C8.85938 23.3281 7.01562 22.1367 5.67188 19.9336 4.32812 17.7305 3.65625 14.7656 3.65625 11.0391 3.65625 9.64062 3.83008 7.54687 4.17773 4.75781 4.52539 1.96875 4.69922 0.21875 4.69922-0.492188 4.69922-2.34375 4.39258-3.76758 3.7793-4.76367 3.16602-5.75977 2.30078-6.27344 1.18359-6.30469Z" fill="#4B5E68" transform="translate(934.784 290)"/><text fill="#000000" fill-opacity="0" font-family="Arial,Arial_MSFontService,sans-serif" font-size="60.7266" x="1.18359" y="15.917">ቊ</text><text fill="#4B5E68" font-family="Cambria Math,Cambria Math_MSFontService,sans-serif" font-weight="400" font-size="24" transform="translate(946.738 277)">1</text><text fill="#4B5E68" font-family="Cambria Math,Cambria Math_MSFontService,sans-serif" font-weight="400" font-size="24" transform="translate(946.738 305)">0</text><text fill="#4B5E68" font-family="Arial,Arial_MSFontService,sans-serif" font-weight="400" font-size="24" transform="translate(1007.12 275)">[</text><text fill="#4B5E68" font-family="Arial,Arial_MSFontService,sans-serif" font-style="italic" font-weight="400" font-size="24" transform="translate(1013.79 275)">t</text><text fill="#4B5E68" font-family="Arial,Arial_MSFontService,sans-serif" font-weight="400" font-size="24" transform="translate(1020.45 275)">,</text><text fill="#4B5E68" font-family="Arial,Arial_MSFontService,sans-serif" font-style="italic" font-weight="400" font-size="24" transform="translate(1033.79 275)">t+1</text><text fill="#4B5E68" font-family="Arial,Arial_MSFontService,sans-serif" font-weight="400" font-size="24" transform="translate(1067.79 275)">]</text><text fill="#4B5E68" font-family="Arial,Arial_MSFontService,sans-serif" font-weight="400" font-size="24" transform="translate(1007.12 305)">otherwise</text><text fill="#4B5E68" font-family="Arial,Arial_MSFontService,sans-serif" font-weight="400" font-size="24" transform="translate(764.092 179)">Ex) Time when a person get infected</text><text fill="#4B5E68" font-family="Cambria Math,Cambria Math_MSFontService,sans-serif" font-weight="400" font-size="24" transform="translate(785.269 230)">𝑇</text><text fill="#4B5E68" font-family="Cambria Math,Cambria Math_MSFontService,sans-serif" font-weight="400" font-size="18" transform="translate(796.469 235)">1</text><text fill="#4B5E68" font-family="Cambria Math,Cambria Math_MSFontService,sans-serif" font-weight="400" font-size="24" transform="translate(807.629 230)">~</text><text fill="#4B5E68" font-family="Cambria Math,Cambria Math_MSFontService,sans-serif" font-weight="400" font-size="24" transform="translate(824.795 230)"></text><text fill="#4B5E68" font-family="Cambria Math,Cambria Math_MSFontService,sans-serif" font-weight="400" font-size="24" transform="translate(830.129 230)">𝑈𝑛𝑖𝑓𝑜𝑟𝑚</text><text fill="#4B5E68" font-family="Cambria Math,Cambria Math_MSFontService,sans-serif" font-weight="400" font-size="24" transform="translate(926.042 230)">(</text><text fill="#4B5E68" font-family="Cambria Math,Cambria Math_MSFontService,sans-serif" font-weight="400" font-size="24" transform="translate(936.042 230)">𝑡</text><text fill="#4B5E68" font-family="Cambria Math,Cambria Math_MSFontService,sans-serif" font-weight="400" font-size="24" transform="translate(946.129 230)">,</text><text fill="#4B5E68" font-family="Cambria Math,Cambria Math_MSFontService,sans-serif" font-weight="400" font-size="24" transform="translate(955.129 230)">𝑡</text><text fill="#4B5E68" font-family="Cambria Math,Cambria Math_MSFontService,sans-serif" font-weight="400" font-size="24" transform="translate(970.549 230)">+</text><text fill="#4B5E68" font-family="Cambria Math,Cambria Math_MSFontService,sans-serif" font-weight="400" font-size="24" transform="translate(993.882 230)">1</text><text fill="#4B5E68" font-family="Cambria Math,Cambria Math_MSFontService,sans-serif" font-weight="400" font-size="24" transform="translate(1007.22 230)">)</text><text fill="#4B5E68" font-family="Cambria Math,Cambria Math_MSFontService,sans-serif" font-weight="400" font-size="24" transform="translate(783.03 347)">𝑇</text><text fill="#4B5E68" font-family="Cambria Math,Cambria Math_MSFontService,sans-serif" font-weight="400" font-size="18" transform="translate(794.784 352)">2</text><text fill="#4B5E68" font-family="Cambria Math,Cambria Math_MSFontService,sans-serif" font-weight="400" font-size="24" transform="translate(805.944 347)">~</text><text fill="#4B5E68" font-family="Cambria Math,Cambria Math_MSFontService,sans-serif" font-weight="400" font-size="24" transform="translate(823.11 347)"></text><text fill="#4B5E68" font-family="Cambria Math,Cambria Math_MSFontService,sans-serif" font-weight="400" font-size="24" transform="translate(828.444 347)">𝑈𝑛𝑖𝑓𝑜𝑟𝑚</text><text fill="#4B5E68" font-family="Cambria Math,Cambria Math_MSFontService,sans-serif" font-weight="400" font-size="24" transform="translate(924.357 347)">(</text><text fill="#4B5E68" font-family="Cambria Math,Cambria Math_MSFontService,sans-serif" font-weight="400" font-size="24" transform="translate(934.357 347)">𝑡</text><text fill="#4B5E68" font-family="Cambria Math,Cambria Math_MSFontService,sans-serif" font-weight="400" font-size="24" transform="translate(949.777 347)">+</text><text fill="#4B5E68" font-family="Cambria Math,Cambria Math_MSFontService,sans-serif" font-weight="400" font-size="24" transform="translate(973.11 347)">𝑘</text><text fill="#4B5E68" font-family="Cambria Math,Cambria Math_MSFontService,sans-serif" font-weight="400" font-size="24" transform="translate(986.977 347)">,</text><text fill="#4B5E68" font-family="Cambria Math,Cambria Math_MSFontService,sans-serif" font-weight="400" font-size="24" transform="translate(995.977 347)">𝑡</text><text fill="#4B5E68" font-family="Cambria Math,Cambria Math_MSFontService,sans-serif" font-weight="400" font-size="24" transform="translate(1011.4 347)">+</text><text fill="#4B5E68" font-family="Cambria Math,Cambria Math_MSFontService,sans-serif" font-weight="400" font-size="24" transform="translate(1034.73 347)">1</text><text fill="#4B5E68" font-family="Cambria Math,Cambria Math_MSFontService,sans-serif" font-weight="400" font-size="24" transform="translate(1053.4 347)">+</text><text fill="#4B5E68" font-family="Cambria Math,Cambria Math_MSFontService,sans-serif" font-weight="400" font-size="24" transform="translate(1076.73 347)">𝑘</text><text fill="#4B5E68" font-family="Cambria Math,Cambria Math_MSFontService,sans-serif" font-weight="400" font-size="24" transform="translate(1090.6 347)">)</text><text fill="#4B5E68" font-family="Cambria Math,Cambria Math_MSFontService,sans-serif" font-weight="400" font-size="27" transform="translate(809.047 516)">𝑢</text><text fill="#4B5E68" font-family="Cambria Math,Cambria Math_MSFontService,sans-serif" font-weight="400" font-size="27" transform="translate(832.467 516)">=</text><text fill="#4B5E68" font-family="Cambria Math,Cambria Math_MSFontService,sans-serif" font-weight="400" font-size="27" transform="translate(856.167 516)"></text><text fill="#4B5E68" font-family="Cambria Math,Cambria Math_MSFontService,sans-serif" font-weight="400" font-size="27" transform="translate(865.707 516)">𝑇</text><text fill="#4B5E68" font-family="Cambria Math,Cambria Math_MSFontService,sans-serif" font-weight="400" font-size="19" transform="translate(878.674 522)">2</text><text fill="#4B5E68" font-family="Cambria Math,Cambria Math_MSFontService,sans-serif" font-weight="400" font-size="19" transform="translate(890.007 522)"></text><text fill="#4B5E68" font-family="Cambria Math,Cambria Math_MSFontService,sans-serif" font-weight="400" font-size="27" transform="translate(901.374 516)">−</text><text fill="#4B5E68" font-family="Cambria Math,Cambria Math_MSFontService,sans-serif" font-weight="400" font-size="27" transform="translate(924.334 516)"></text><text fill="#4B5E68" font-family="Cambria Math,Cambria Math_MSFontService,sans-serif" font-weight="400" font-size="27" transform="translate(933.134 516)">𝑇</text><text fill="#4B5E68" font-family="Cambria Math,Cambria Math_MSFontService,sans-serif" font-weight="400" font-size="19" transform="translate(945.481 522)">1</text><text fill="#4B5E68" font-family="Arial,Arial_MSFontService,sans-serif" font-weight="400" font-size="24" transform="translate(102.327 531)">Distribution of</text><text fill="#4B5E68" font-family="Arial,Arial_MSFontService,sans-serif" font-style="italic" font-weight="400" font-size="24" transform="translate(255.66 531)">u</text><text fill="#4B5E68" font-family="Arial,Arial_MSFontService,sans-serif" font-weight="400" font-size="24" transform="translate(275.66 531)">(i.e., f</text><text fill="#4B5E68" font-family="Arial,Arial_MSFontService,sans-serif" font-weight="400" font-size="16" transform="translate(335.66 536)">u</text><text fill="#4B5E68" font-family="Arial,Arial_MSFontService,sans-serif" font-weight="400" font-size="24" transform="translate(344.494 531)">(t)) is needed for discretization.</text><text fill="#4B5E68" font-family="Arial,Arial_MSFontService,sans-serif" font-weight="400" font-size="24" transform="translate(53.3671 442)">1.</text><text fill="#4B5E68" font-family="Arial,Arial_MSFontService,sans-serif" font-weight="400" font-size="24" transform="translate(53.3671 535)">2.</text><text fill="#4B5E68" font-family="Arial,Arial_MSFontService,sans-serif" font-weight="400" font-size="24" transform="translate(53.3671 606)">3.</text><text fill="#4B5E68" font-family="Cambria Math,Cambria Math_MSFontService,sans-serif" font-weight="400" font-size="24" transform="translate(106.565 600)">𝑮</text><path d="M148.12 581.644C150.401 582.245 152.153 583.544 153.375 585.54 154.598 587.536 155.209 589.945 155.209 592.765 155.209 595.593 154.6 598.001 153.381 599.99 152.163 601.978 150.409 603.273 148.12 603.874L147.838 602.972C149.643 602.37 150.985 601.183 151.864 599.41 152.743 597.636 153.182 595.382 153.182 592.648 153.182 590.007 152.745 587.814 151.87 586.068 150.995 584.322 149.639 583.148 147.803 582.546ZM131.93 581.644 132.247 582.546C130.419 583.148 129.065 584.322 128.186 586.068 127.307 587.814 126.868 590.007 126.868 592.648 126.868 595.382 127.307 597.636 128.186 599.41 129.065 601.183 130.407 602.37 132.212 602.972L131.93 603.874C129.641 603.273 127.887 601.978 126.669 599.99 125.45 598.001 124.841 595.593 124.841 592.765 124.841 589.945 125.452 587.536 126.675 585.54 127.897 583.544 129.649 582.245 131.93 581.644Z" fill="#4B5E68" fill-rule="evenodd"/><text fill="#4B5E68" font-family="Cambria Math,Cambria Math_MSFontService,sans-serif" font-weight="400" font-size="24" transform="translate(132.691 600)">𝒌</text><text fill="#4B5E68" font-family="Cambria Math,Cambria Math_MSFontService,sans-serif" font-weight="400" font-size="24" transform="translate(163.985 600)">=</text><path d="M16.4414-29.7656 15.1406-29.7656C15.1172-30.1953 15.0234-30.5215 14.8594-30.7441 14.6953-30.9668 14.3945-31.0781 13.957-31.0781 12.8633-31.0781 12.0664-29.8477 11.5664-27.3867 11.0664-24.9258 10.6172-18.1328 10.2188-7.00781 9.82031 3 9.04492 9.83984 7.89258 13.5117 6.74023 17.1836 5.18359 19.0195 3.22266 19.0195 2.82422 19.0195 2.45703 18.9883 2.12109 18.9258 1.78516 18.8633 1.48828 18.7617 1.23047 18.6211L1.45312 16.0547 2.63672 16.0547C2.75391 16.5703 2.90625 16.9316 3.09375 17.1387 3.28125 17.3457 3.56641 17.4492 3.94922 17.4492 4.65234 17.4492 5.32812 16.2344 5.97656 13.8047 6.625 11.375 7.13281 5.01953 7.5-5.26172 7.95312-16.418 8.68164-23.7637 9.68555-27.2988 10.6895-30.834 12.3516-32.6016 14.6719-32.6016 15.0859-32.6016 15.4629-32.5645 15.8027-32.4902 16.1426-32.416 16.4297-32.3242 16.6641-32.2148Z" fill="#4B5E68" transform="translate(188.651 600)"/><text fill="#000000" fill-opacity="0" font-family="Arial,Arial_MSFontService,sans-serif" font-size="51.6211" x="1.23047" y="12.5669">න</text><text fill="#4B5E68" font-family="Cambria Math,Cambria Math_MSFontService,sans-serif" font-weight="400" font-size="24" transform="translate(241.845 600)">𝒈</text><path d="M284.233 581.644C286.514 582.245 288.266 583.544 289.489 585.54 290.711 587.536 291.323 589.945 291.323 592.765 291.323 595.593 290.713 598.001 289.495 599.99 288.276 601.978 286.522 603.273 284.233 603.874L283.952 602.972C285.756 602.37 287.098 601.183 287.977 599.41 288.856 597.636 289.295 595.382 289.295 592.648 289.295 590.007 288.858 587.814 287.983 586.068 287.108 584.322 285.752 583.148 283.917 582.546ZM267.21 581.644 267.527 582.546C265.699 583.148 264.345 584.322 263.466 586.068 262.587 587.814 262.148 590.007 262.148 592.648 262.148 595.382 262.587 597.636 263.466 599.41 264.345 601.183 265.687 602.37 267.492 602.972L267.21 603.874C264.921 603.273 263.167 601.978 261.949 599.99 260.73 598.001 260.121 595.593 260.121 592.765 260.121 589.945 260.732 587.536 261.955 585.54 263.177 583.544 264.929 582.245 267.21 581.644Z" fill="#4B5E68" fill-rule="evenodd"/><text fill="#4B5E68" font-family="Cambria Math,Cambria Math_MSFontService,sans-serif" font-weight="400" font-size="24" transform="translate(267.971 600)">𝒖</text><text fill="#4B5E68" font-family="Cambria Math,Cambria Math_MSFontService,sans-serif" font-weight="400" font-size="24" transform="translate(293.431 600)">𝒇</text><text fill="#4B5E68" font-family="Cambria Math,Cambria Math_MSFontService,sans-serif" font-weight="400" font-size="18" transform="translate(306.931 605)">𝒖</text><path d="M345.48 581.644C347.761 582.245 349.513 583.544 350.735 585.54 351.958 587.536 352.569 589.945 352.569 592.765 352.569 595.593 351.96 598.001 350.741 599.99 349.523 601.978 347.769 603.273 345.48 603.874L345.198 602.972C347.003 602.37 348.345 601.183 349.224 599.41 350.103 597.636 350.542 595.382 350.542 592.648 350.542 590.007 350.105 587.814 349.23 586.068 348.355 584.322 346.999 583.148 345.163 582.546ZM328.457 581.644 328.773 582.546C326.945 583.148 325.592 584.322 324.713 586.068 323.834 587.814 323.395 590.007 323.395 592.648 323.395 595.382 323.834 597.636 324.713 599.41 325.592 601.183 326.934 602.37 328.738 602.972L328.457 603.874C326.168 603.273 324.414 601.978 323.195 599.99 321.977 598.001 321.367 595.593 321.367 592.765 321.367 589.945 321.979 587.536 323.201 585.54 324.424 583.544 326.176 582.245 328.457 581.644Z" fill="#4B5E68" fill-rule="evenodd"/><text fill="#4B5E68" font-family="Cambria Math,Cambria Math_MSFontService,sans-serif" font-weight="400" font-size="24" transform="translate(329.218 600)">𝒖</text><text fill="#4B5E68" font-family="Cambria Math,Cambria Math_MSFontService,sans-serif" font-weight="400" font-size="24" transform="translate(354.678 600)">𝒅𝒖</text><text fill="#4B5E68" font-family="Cambria Math,Cambria Math_MSFontService,sans-serif" font-weight="400" font-size="18" transform="translate(208.011 572)">𝒌</text><text fill="#4B5E68" font-family="Cambria Math,Cambria Math_MSFontService,sans-serif" font-weight="400" font-size="18" transform="translate(218.678 572)">+</text><text fill="#4B5E68" font-family="Cambria Math,Cambria Math_MSFontService,sans-serif" font-weight="400" font-size="18" transform="translate(231.345 572)">𝟏</text><text fill="#4B5E68" font-family="Cambria Math,Cambria Math_MSFontService,sans-serif" font-weight="400" font-size="18" transform="translate(199.165 622)">𝒌</text><text fill="#4B5E68" font-family="Cambria Math,Cambria Math_MSFontService,sans-serif" font-weight="400" font-size="18" transform="translate(209.831 622)">−</text><text fill="#4B5E68" font-family="Cambria Math,Cambria Math_MSFontService,sans-serif" font-weight="400" font-size="18" transform="translate(222.498 622)">𝟏</text><text fill="#4B5E68" font-family="Arial,Arial_MSFontService,sans-serif" font-weight="400" font-size="24" transform="translate(64.5286 658)">‘</text><text fill="#4B5E68" font-family="Arial,Arial_MSFontService,sans-serif" font-style="italic" font-weight="400" font-size="24" transform="translate(69.8619 658)">g(u)</text><text fill="#4B5E68" font-family="Arial,Arial_MSFontService,sans-serif" font-weight="400" font-size="24" transform="translate(112.529 658)">: continuous distribution (e.g., serial interval)</text><text fill="#4B5E68" font-family="Arial,Arial_MSFontService,sans-serif" font-weight="400" font-size="24" transform="translate(64.5286 691)">‘</text><text fill="#4B5E68" font-family="Arial,Arial_MSFontService,sans-serif" font-style="italic" font-weight="400" font-size="24" transform="translate(69.8619 691)">G(u)</text><text fill="#4B5E68" font-family="Arial,Arial_MSFontService,sans-serif" font-weight="400" font-size="24" transform="translate(117.862 691)">: discretized distribution</text><text fill="#4B5E68" font-family="Cambria Math,Cambria Math_MSFontService,sans-serif" font-weight="400" font-size="24" transform="translate(768.771 593)">𝒇</text><text fill="#4B5E68" font-family="Cambria Math,Cambria Math_MSFontService,sans-serif" font-weight="400" font-size="18" transform="translate(782.271 598)">𝒖</text><path d="M820.819 574.652C823.101 575.254 824.852 576.553 826.075 578.549 827.298 580.545 827.909 582.953 827.909 585.773 827.909 588.601 827.3 591.01 826.081 592.998 824.862 594.986 823.108 596.281 820.819 596.883L820.538 595.98C822.343 595.379 823.685 594.191 824.563 592.418 825.442 590.644 825.882 588.39 825.882 585.656 825.882 583.015 825.444 580.822 824.569 579.076 823.694 577.33 822.339 576.156 820.503 575.555ZM803.797 574.652 804.113 575.555C802.285 576.156 800.932 577.33 800.053 579.076 799.174 580.822 798.734 583.015 798.734 585.656 798.734 588.39 799.174 590.644 800.053 592.418 800.932 594.191 802.273 595.379 804.078 595.98L803.797 596.883C801.508 596.281 799.754 594.986 798.535 592.998 797.316 591.01 796.707 588.601 796.707 585.773 796.707 582.953 797.318 580.545 798.541 578.549 799.764 576.553 801.516 575.254 803.797 574.652Z" fill="#4B5E68" fill-rule="evenodd"/><text fill="#4B5E68" font-family="Cambria Math,Cambria Math_MSFontService,sans-serif" font-weight="400" font-size="24" transform="translate(804.558 593)">𝒖</text><text fill="#4B5E68" font-family="Cambria Math,Cambria Math_MSFontService,sans-serif" font-weight="400" font-size="24" transform="translate(836.684 593)">=</text><text fill="#4B5E68" font-family="Cambria Math,Cambria Math_MSFontService,sans-serif" font-weight="400" font-size="24" transform="translate(858.018 593)"></text><path d="M16.4414-29.7656 15.1406-29.7656C15.1172-30.1953 15.0234-30.5215 14.8594-30.7441 14.6953-30.9668 14.3945-31.0781 13.957-31.0781 12.8633-31.0781 12.0664-29.8477 11.5664-27.3867 11.0664-24.9258 10.6172-18.1328 10.2188-7.00781 9.82031 3 9.04492 9.83984 7.89258 13.5117 6.74023 17.1836 5.18359 19.0195 3.22266 19.0195 2.82422 19.0195 2.45703 18.9883 2.12109 18.9258 1.78516 18.8633 1.48828 18.7617 1.23047 18.6211L1.45312 16.0547 2.63672 16.0547C2.75391 16.5703 2.90625 16.9316 3.09375 17.1387 3.28125 17.3457 3.56641 17.4492 3.94922 17.4492 4.65234 17.4492 5.32812 16.2344 5.97656 13.8047 6.625 11.375 7.13281 5.01953 7.5-5.26172 7.95312-16.418 8.68164-23.7637 9.68555-27.2988 10.6895-30.834 12.3516-32.6016 14.6719-32.6016 15.0859-32.6016 15.4629-32.5645 15.8027-32.4902 16.1426-32.416 16.4297-32.3242 16.6641-32.2148Z" fill="#4B5E68" transform="translate(866.684 593)"/><text fill="#000000" fill-opacity="0" font-family="Arial,Arial_MSFontService,sans-serif" font-size="51.6211" x="1.23047" y="12.5669">න</text><text fill="#4B5E68" font-family="Cambria Math,Cambria Math_MSFontService,sans-serif" font-weight="400" font-size="24" transform="translate(906.031 593)">𝒇</text><text fill="#4B5E68" font-family="Cambria Math,Cambria Math_MSFontService,sans-serif" font-weight="400" font-size="18" transform="translate(919.531 598)">𝑻𝟏</text><path d="M966.579 574.652C968.861 575.254 970.612 576.553 971.835 578.549 973.058 580.545 973.669 582.953 973.669 585.773 973.669 588.601 973.06 591.01 971.841 592.998 970.622 594.986 968.868 596.281 966.579 596.883L966.298 595.98C968.103 595.379 969.445 594.191 970.323 592.418 971.202 590.644 971.642 588.39 971.642 585.656 971.642 583.015 971.204 580.822 970.329 579.076 969.454 577.33 968.099 576.156 966.263 575.555ZM951.223 574.652 951.54 575.555C949.712 576.156 948.358 577.33 947.479 579.076 946.6 580.822 946.161 583.015 946.161 585.656 946.161 588.39 946.6 590.644 947.479 592.418 948.358 594.191 949.7 595.379 951.505 595.98L951.223 596.883C948.934 596.281 947.18 594.986 945.962 592.998 944.743 591.01 944.134 588.601 944.134 585.773 944.134 582.953 944.745 580.545 945.968 578.549 947.19 576.553 948.942 575.254 951.223 574.652Z" fill="#4B5E68" fill-rule="evenodd"/><text fill="#4B5E68" font-family="Cambria Math,Cambria Math_MSFontService,sans-serif" font-weight="400" font-size="24" transform="translate(951.984 593)">𝒙</text><text fill="#4B5E68" font-family="Cambria Math,Cambria Math_MSFontService,sans-serif" font-weight="400" font-size="24" transform="translate(975.778 593)">𝒇</text><text fill="#4B5E68" font-family="Cambria Math,Cambria Math_MSFontService,sans-serif" font-weight="400" font-size="18" transform="translate(989.278 598)">𝑻</text><text fill="#4B5E68" font-family="Cambria Math,Cambria Math_MSFontService,sans-serif" font-weight="400" font-size="18" transform="translate(1000.28 598)">𝟐</text><path d="M1080.49 574.652C1082.77 575.254 1084.53 576.553 1085.75 578.549 1086.97 580.545 1087.58 582.953 1087.58 585.773 1087.58 588.601 1086.97 591.01 1085.75 592.998 1084.54 594.986 1082.78 596.281 1080.49 596.883L1080.21 595.98C1082.02 595.379 1083.36 594.191 1084.24 592.418 1085.12 590.644 1085.56 588.39 1085.56 585.656 1085.56 583.015 1085.12 580.822 1084.24 579.076 1083.37 577.33 1082.01 576.156 1080.18 575.555ZM1020.97 574.652 1021.29 575.555C1019.46 576.156 1018.1 577.33 1017.23 579.076 1016.35 580.822 1015.91 583.015 1015.91 585.656 1015.91 588.39 1016.35 590.644 1017.23 592.418 1018.1 594.191 1019.45 595.379 1021.25 595.98L1020.97 596.883C1018.68 596.281 1016.93 594.986 1015.71 592.998 1014.49 591.01 1013.88 588.601 1013.88 585.773 1013.88 582.953 1014.49 580.545 1015.71 578.549 1016.94 576.553 1018.69 575.254 1020.97 574.652Z" fill="#4B5E68" fill-rule="evenodd"/><text fill="#4B5E68" font-family="Cambria Math,Cambria Math_MSFontService,sans-serif" font-weight="400" font-size="24" transform="translate(1021.73 593)">𝒙</text><text fill="#4B5E68" font-family="Cambria Math,Cambria Math_MSFontService,sans-serif" font-weight="400" font-size="24" transform="translate(1040.9 593)">+</text><text fill="#4B5E68" font-family="Cambria Math,Cambria Math_MSFontService,sans-serif" font-weight="400" font-size="24" transform="translate(1064.23 593)">𝒖</text><text fill="#4B5E68" font-family="Cambria Math,Cambria Math_MSFontService,sans-serif" font-weight="400" font-size="24" transform="translate(1089.69 593)">𝒅𝒙</text><text fill="#4B5E68" font-family="Cambria Math,Cambria Math_MSFontService,sans-serif" font-weight="400" font-size="18" transform="translate(886.044 565)">∞</text><text fill="#4B5E68" font-family="Cambria Math,Cambria Math_MSFontService,sans-serif" font-weight="400" font-size="18" transform="translate(877.198 615)">−</text><text fill="#4B5E68" font-family="Cambria Math,Cambria Math_MSFontService,sans-serif" font-weight="400" font-size="18" transform="translate(889.864 615)">∞</text><text fill="#4B5E68" font-family="Cambria Math,Cambria Math_MSFontService,sans-serif" font-weight="400" font-size="24" transform="translate(837.463 401)">𝑓</text><text fill="#4B5E68" font-family="Cambria Math,Cambria Math_MSFontService,sans-serif" font-weight="400" font-size="18" transform="translate(847.736 406)">𝑇2</text><path d="M894.011 383.49C896.292 384.091 898.044 385.39 899.267 387.386 900.49 389.382 901.101 391.79 901.101 394.611 901.101 397.439 900.491 399.847 899.273 401.835 898.054 403.824 896.3 405.119 894.011 405.72L893.73 404.818C895.534 404.216 896.876 403.029 897.755 401.255 898.634 399.482 899.073 397.228 899.073 394.494 899.073 391.853 898.636 389.66 897.761 387.913 896.886 386.167 895.531 384.994 893.695 384.392ZM878.928 383.49 879.245 384.392C877.417 384.994 876.063 386.167 875.184 387.913 874.305 389.66 873.866 391.853 873.866 394.494 873.866 397.228 874.305 399.482 875.184 401.255 876.063 403.029 877.405 404.216 879.21 404.818L878.928 405.72C876.639 405.119 874.885 403.824 873.667 401.835 872.448 399.847 871.839 397.439 871.839 394.611 871.839 391.79 872.45 389.382 873.673 387.386 874.895 385.39 876.647 384.091 878.928 383.49Z" fill="#4B5E68" fill-rule="evenodd"/><text fill="#4B5E68" font-family="Cambria Math,Cambria Math_MSFontService,sans-serif" font-weight="400" font-size="24" transform="translate(879.689 401)">𝑥</text><text fill="#4B5E68" font-family="Cambria Math,Cambria Math_MSFontService,sans-serif" font-weight="400" font-size="24" transform="translate(909.876 401)">=</text><path d="M1.18359-7.41797C2.29297-7.44922 3.15625-7.95117 3.77344-8.92383 4.39062-9.89648 4.69922-11.3359 4.69922-13.2422 4.69922-14.1094 4.52539-15.752 4.17773-18.1699 3.83008-20.5879 3.65625-22.5859 3.65625-24.1641 3.65625-28.1406 4.31055-31.2344 5.61914-33.4453 6.92773-35.6562 8.78906-36.9141 11.2031-37.2188L11.2031-36.1758C10.3906-36.043 9.6582-35.7188 9.00586-35.2031 8.35352-34.6875 7.79687-33.9785 7.33594-33.0762 6.875-32.1738 6.51953-31.0703 6.26953-29.7656 6.01953-28.4609 5.89453-26.957 5.89453-25.2539 5.89453-23.9805 6.05469-22.0508 6.375-19.4648 6.69531-16.8789 6.85547-15.1875 6.85547-14.3906 6.85547-12.3203 6.48437-10.6426 5.74219-9.35742 5-8.07227 4.26172-7.28516 3.52734-6.99609L3.52734-6.72656C4.26172-6.4375 5-5.65625 5.74219-4.38281 6.48437-3.10938 6.85547-1.43359 6.85547 0.644531 6.85547 1.12109 6.69531 2.86719 6.375 5.88281 6.05469 8.89844 5.89453 10.7617 5.89453 11.4727 5.89453 13.1992 6.00977 14.7129 6.24023 16.0137 6.4707 17.3145 6.82422 18.4219 7.30078 19.3359 7.78516 20.2656 8.34961 20.9863 8.99414 21.498 9.63867 22.0098 10.375 22.332 11.2031 22.4648L11.2031 23.5078C8.85938 23.3281 7.01562 22.1367 5.67188 19.9336 4.32812 17.7305 3.65625 14.7656 3.65625 11.0391 3.65625 9.64062 3.83008 7.54687 4.17773 4.75781 4.52539 1.96875 4.69922 0.21875 4.69922-0.492188 4.69922-2.34375 4.39258-3.76758 3.7793-4.76367 3.16602-5.75977 2.30078-6.27344 1.18359-6.30469Z" fill="#4B5E68" transform="translate(934.543 401)"/><text fill="#000000" fill-opacity="0" font-family="Arial,Arial_MSFontService,sans-serif" font-size="60.7266" x="1.18359" y="15.917">ቊ</text><text fill="#4B5E68" font-family="Cambria Math,Cambria Math_MSFontService,sans-serif" font-weight="400" font-size="24" transform="translate(946.496 389)">1</text><text fill="#4B5E68" font-family="Cambria Math,Cambria Math_MSFontService,sans-serif" font-weight="400" font-size="24" transform="translate(946.496 417)">0</text><text fill="#4B5E68" font-family="Arial,Arial_MSFontService,sans-serif" font-weight="400" font-size="24" transform="translate(1010.57 386)">[</text><text fill="#4B5E68" font-family="Arial,Arial_MSFontService,sans-serif" font-style="italic" font-weight="400" font-size="24" transform="translate(1017.23 386)">t+k</text><text fill="#4B5E68" font-family="Arial,Arial_MSFontService,sans-serif" font-weight="400" font-size="24" transform="translate(1049.9 386)">,</text><text fill="#4B5E68" font-family="Arial,Arial_MSFontService,sans-serif" font-style="italic" font-weight="400" font-size="24" transform="translate(1063.23 386)">t+k+1</text><text fill="#4B5E68" font-family="Arial,Arial_MSFontService,sans-serif" font-weight="400" font-size="24" transform="translate(1123.23 386)">]</text><text fill="#4B5E68" font-family="Arial,Arial_MSFontService,sans-serif" font-weight="400" font-size="24" transform="translate(1010.57 421)">otherwise</text><text fill="#4B5E68" font-family="Arial,Arial_MSFontService,sans-serif" font-weight="700" font-size="21" transform="translate(74.9924 138)">Overview of an approach for discretization (Cori et al., 2013)</text><text fill="#4B5E68" font-family="Arial,Arial_MSFontService,sans-serif" font-weight="700" font-size="21" transform="translate(764.092 142)">Distribution</text><text fill="#4B5E68" font-family="Arial,Arial_MSFontService,sans-serif" font-style="italic" font-weight="700" font-size="21" transform="translate(889.925 142)">f</text><text fill="#4B5E68" font-family="Arial,Arial_MSFontService,sans-serif" font-style="italic" font-weight="700" font-size="14" transform="translate(897.092 146)">u</text><text fill="#4B5E68" font-family="Arial,Arial_MSFontService,sans-serif" font-weight="400" font-size="24" transform="translate(764.092 470)">Difference of time</text><path d="M38.5001 99.5001 1187.48 99.5002" stroke="#4B5E68" stroke-miterlimit="8" stroke-dasharray="8 3" fill="none" fill-rule="evenodd"/></g></svg>