<svg width="1282" height="724" xmlns="http://www.w3.org/2000/svg" xmlns:xlink="http://www.w3.org/1999/xlink" overflow="hidden"><g transform="translate(1 3)"><rect x="0" y="0" width="1280" height="720" fill="#FFFFFF"/><text fill="#4B5E68" font-family="Arial,Arial_MSFontService,sans-serif" font-weight="700" font-size="37" transform="translate(151.917 94)">Adjustment for local fecal strength and population size</text><rect x="0.500053" y="-1.50005" width="1280" height="37.0001" stroke="#7F7F7F" stroke-width="1.33333" stroke-miterlimit="8" fill="#D9D9D9"/><text fill="#4B5E68" font-family="Arial,Arial_MSFontService,sans-serif" font-weight="700" font-size="21" transform="translate(535.667 25)">Supplementary slide</text><path d="M271.437 495.016C272.385 495.016 273.263 495.073 274.07 495.188 274.878 495.302 275.776 495.511 276.766 495.813L275.828 500.047 274.328 500.047C274.245 498.766 273.966 497.841 273.492 497.274 273.018 496.706 272.255 496.422 271.203 496.422 269.766 496.422 268.43 497.141 267.195 498.578 265.961 500.016 264.984 501.914 264.266 504.274 263.547 506.633 263.187 508.823 263.187 510.844 263.187 512.427 263.469 513.594 264.031 514.344 264.594 515.094 265.458 515.469 266.625 515.469 267.406 515.469 268.088 515.352 268.672 515.117 269.255 514.883 269.802 514.487 270.312 513.93 270.823 513.373 271.328 512.594 271.828 511.594L273.328 511.594 272.375 516.031C270.427 516.573 268.385 516.844 266.25 516.844 264.292 516.844 262.802 516.281 261.781 515.156 260.76 514.031 260.25 512.386 260.25 510.219 260.25 508.688 260.523 506.922 261.07 504.922 261.617 502.922 262.391 501.167 263.391 499.656 264.391 498.146 265.573 496.995 266.937 496.203 268.302 495.412 269.802 495.016 271.437 495.016Z" fill="#4B5E68" fill-rule="evenodd"/><text fill="#000000" fill-opacity="0" font-family="Arial,Arial_MSFontService,sans-serif" font-size="21.8281" x="260.25" y="514.115">𝐶</text><path d="M306.456 492.636C309.498 493.438 311.834 495.17 313.464 497.831 315.094 500.493 315.909 503.703 315.909 507.464 315.909 511.235 315.097 514.446 313.472 517.097 311.847 519.748 309.508 521.474 306.456 522.276L306.081 521.073C308.487 520.271 310.277 518.688 311.448 516.323 312.62 513.959 313.206 510.953 313.206 507.308 313.206 503.787 312.623 500.862 311.456 498.534 310.29 496.206 308.482 494.641 306.034 493.839ZM290.98 492.636 291.401 493.839C288.964 494.641 287.159 496.206 285.987 498.534 284.815 500.862 284.23 503.787 284.23 507.308 284.23 510.953 284.815 513.959 285.987 516.323 287.159 518.688 288.948 520.271 291.355 521.073L290.98 522.276C287.927 521.474 285.589 519.748 283.964 517.097 282.339 514.446 281.526 511.235 281.526 507.464 281.526 503.703 282.342 500.493 283.972 497.831 285.602 495.17 287.938 493.438 290.98 492.636Z" fill="#4B5E68" fill-rule="evenodd"/><path d="M298.103 497.797 300.26 497.797 299.4 501.656 304.15 501.656 303.806 503.235 299.056 503.235 297.666 509.297C297.395 510.474 297.223 511.32 297.15 511.836 297.077 512.352 297.041 512.766 297.041 513.078 297.041 514.37 297.577 515.016 298.65 515.016 299.109 515.016 299.595 514.841 300.111 514.492 300.627 514.143 301.239 513.547 301.947 512.703L302.853 513.641C301.947 514.735 301.075 515.542 300.236 516.063 299.398 516.583 298.52 516.844 297.603 516.844 295.426 516.844 294.338 515.745 294.338 513.547 294.338 512.849 294.426 512.115 294.603 511.344L296.447 503.235 293.822 503.235 294.056 502.156C294.671 502.146 295.137 502.099 295.455 502.016 295.773 501.932 296.038 501.818 296.252 501.672 296.465 501.526 296.661 501.318 296.838 501.047 297.015 500.776 297.187 500.43 297.353 500.008 297.52 499.586 297.77 498.849 298.103 497.797Z" fill="#4B5E68" fill-rule="evenodd"/><text fill="#000000" fill-opacity="0" font-family="Arial,Arial_MSFontService,sans-serif" font-size="19.0469" x="293.822" y="514.463">𝑡</text><path d="M325.391 511.661C326.118 511.661 326.786 511.706 327.396 511.796 328.006 511.886 328.6 512.017 329.176 512.189L328.637 514.727 327.638 514.727C327.555 514.053 327.332 513.555 326.969 513.233 326.606 512.911 326.043 512.75 325.279 512.75 324.972 512.75 324.688 512.792 324.426 512.874 324.164 512.956 323.939 513.07 323.752 513.216 323.565 513.362 323.419 513.536 323.314 513.739 323.209 513.941 323.157 514.162 323.157 514.401 323.157 514.618 323.183 514.817 323.235 514.996 323.288 515.176 323.391 515.352 323.544 515.524 323.698 515.696 323.915 515.876 324.195 516.063 324.476 516.25 324.845 516.464 325.302 516.703 325.781 516.965 326.179 517.216 326.498 517.456 326.816 517.695 327.069 517.939 327.256 518.186 327.443 518.433 327.574 518.697 327.649 518.978 327.724 519.258 327.761 519.571 327.761 519.915 327.761 520.447 327.653 520.924 327.435 521.347 327.218 521.77 326.915 522.128 326.526 522.42 326.136 522.712 325.678 522.936 325.15 523.094 324.622 523.251 324.044 523.329 323.415 523.329 322.726 523.329 322.049 523.284 321.382 523.195 320.716 523.105 320.012 522.951 319.271 522.734L319.855 520.174 320.832 520.174C320.869 520.87 321.088 521.392 321.489 521.74 321.889 522.088 322.509 522.263 323.348 522.263 324.096 522.263 324.686 522.102 325.116 521.78 325.547 521.458 325.762 521.008 325.762 520.432 325.762 520.17 325.736 519.943 325.683 519.753 325.631 519.562 325.528 519.38 325.375 519.208 325.221 519.036 325.012 518.858 324.746 518.674 324.48 518.491 324.134 518.279 323.707 518.04 323.265 517.793 322.885 517.549 322.567 517.31 322.249 517.07 321.987 516.827 321.781 516.58 321.575 516.333 321.423 516.075 321.326 515.805 321.229 515.535 321.18 515.247 321.18 514.94 321.18 514.469 321.279 514.032 321.478 513.632 321.676 513.231 321.959 512.885 322.326 512.593 322.692 512.301 323.134 512.073 323.651 511.908 324.167 511.743 324.748 511.661 325.391 511.661Z" fill="#4B5E68" fill-rule="evenodd"/><text fill="#000000" fill-opacity="0" font-family="Arial,Arial_MSFontService,sans-serif" font-size="11.6685" x="319.271" y="521.871">𝑠</text><path d="M385.075 509.656 404.325 509.656 404.325 511.735 385.075 511.735ZM385.075 503.172 404.325 503.172 404.325 505.25 385.075 505.25Z" fill="#4B5E68" fill-rule="evenodd"/><text fill="#000000" fill-opacity="0" font-family="Arial,Arial_MSFontService,sans-serif" font-size="8.5625" x="385.075" y="510.664">=</text><path d="M522.118 478.436C521.035 478.436 520.089 478.89 519.282 479.796 518.475 480.702 517.839 481.999 517.376 483.686 516.912 485.374 516.68 486.827 516.68 488.046 516.68 489.192 516.917 490.038 517.391 490.585 517.865 491.132 518.581 491.405 519.54 491.405 520.561 491.405 521.467 490.947 522.259 490.03 523.05 489.113 523.675 487.83 524.134 486.179 524.592 484.528 524.821 483.077 524.821 481.827 524.821 480.702 524.602 479.856 524.165 479.288 523.727 478.72 523.045 478.436 522.118 478.436ZM522.43 477.186C524.097 477.186 525.368 477.642 526.243 478.554 527.118 479.465 527.555 480.77 527.555 482.468 527.555 483.676 527.344 484.968 526.923 486.343 526.501 487.718 525.923 488.874 525.188 489.811 524.454 490.749 523.576 491.455 522.555 491.929 521.535 492.403 520.363 492.64 519.04 492.64 517.425 492.64 516.173 492.186 515.282 491.28 514.391 490.374 513.946 489.072 513.946 487.374 513.946 486.541 514.071 485.577 514.321 484.483 514.644 483.004 515.186 481.712 515.946 480.608 516.706 479.504 517.644 478.658 518.759 478.069 519.873 477.481 521.097 477.186 522.43 477.186ZM449.759 472.421C449.113 472.421 448.436 472.436 447.727 472.468L445.602 481.936 447.227 481.936C448.488 481.936 449.506 481.806 450.282 481.546 451.058 481.285 451.693 480.882 452.188 480.335 452.683 479.788 453.066 479.14 453.337 478.39 453.607 477.64 453.743 476.817 453.743 475.921 453.743 474.712 453.436 473.827 452.821 473.265 452.206 472.702 451.186 472.421 449.759 472.421ZM530.884 471.046 537.352 471.046 537.18 471.811C536.722 471.863 536.365 471.999 536.11 472.218 535.855 472.436 535.675 472.741 535.571 473.132 535.467 473.522 535.415 474.046 535.415 474.702 535.415 474.858 535.43 475.327 535.462 476.108L535.899 487.546 535.899 488.796 536.055 488.796 542.821 476.593C543.217 475.874 543.514 475.257 543.712 474.741 543.91 474.225 544.009 473.77 544.009 473.374 544.009 472.499 543.488 471.978 542.446 471.811L542.618 471.046 549.009 471.046 548.837 471.811C548.555 471.853 548.287 471.96 548.032 472.132 547.777 472.304 547.49 472.59 547.173 472.991 546.855 473.392 546.363 474.166 545.696 475.311L535.696 492.624 533.618 492.624 532.571 475.202C532.529 474.525 532.454 473.944 532.344 473.46 532.235 472.975 532.063 472.598 531.829 472.327 531.594 472.056 531.222 471.884 530.712 471.811ZM490.18 471.046 495.759 471.046 497.54 486.202 506.649 471.046 511.571 471.046 511.399 471.811C511.003 471.895 510.719 471.988 510.548 472.093 510.376 472.197 510.219 472.353 510.079 472.561 509.938 472.77 509.798 473.095 509.657 473.538 509.516 473.981 509.337 474.702 509.118 475.702L506.446 487.827C506.311 488.442 506.222 488.929 506.18 489.288 506.139 489.647 506.118 489.973 506.118 490.265 506.118 490.733 506.235 491.064 506.469 491.257 506.704 491.449 507.097 491.567 507.649 491.608L507.477 492.374 501.227 492.374 501.399 491.608C501.795 491.546 502.092 491.444 502.29 491.304 502.488 491.163 502.654 490.968 502.79 490.718 502.925 490.468 503.05 490.163 503.165 489.804 503.279 489.444 503.451 488.749 503.68 487.718L505.759 478.296C506.05 476.994 506.384 475.697 506.759 474.405L506.54 474.405C506.217 475.02 505.488 476.27 504.352 478.155L497.243 489.89 495.54 489.89 494.243 479.843C494.055 478.426 493.847 476.52 493.618 474.124L493.305 474.124C492.951 476.457 492.555 478.619 492.118 480.608L490.524 487.827C490.305 488.817 490.196 489.629 490.196 490.265 490.196 490.733 490.313 491.064 490.548 491.257 490.782 491.449 491.175 491.567 491.727 491.608L491.555 492.374 486.087 492.374 486.259 491.608C486.654 491.546 486.951 491.444 487.149 491.304 487.347 491.163 487.514 490.968 487.649 490.718 487.785 490.468 487.91 490.163 488.024 489.804 488.139 489.444 488.311 488.749 488.54 487.718L491.196 475.686C491.3 475.238 491.384 474.811 491.446 474.405 491.509 473.999 491.54 473.587 491.54 473.171 491.54 472.681 491.417 472.34 491.173 472.147 490.928 471.955 490.54 471.843 490.009 471.811ZM463.18 471.046 468.759 471.046 470.54 486.202 479.649 471.046 484.571 471.046 484.399 471.811C484.003 471.895 483.719 471.988 483.548 472.093 483.376 472.197 483.219 472.353 483.079 472.561 482.938 472.77 482.798 473.095 482.657 473.538 482.516 473.981 482.337 474.702 482.118 475.702L479.446 487.827C479.311 488.442 479.222 488.929 479.18 489.288 479.139 489.647 479.118 489.973 479.118 490.265 479.118 490.733 479.235 491.064 479.469 491.257 479.704 491.449 480.097 491.567 480.649 491.608L480.477 492.374 474.227 492.374 474.399 491.608C474.795 491.546 475.092 491.444 475.29 491.304 475.488 491.163 475.654 490.968 475.79 490.718 475.925 490.468 476.05 490.163 476.165 489.804 476.279 489.444 476.451 488.749 476.68 487.718L478.759 478.296C479.05 476.994 479.384 475.697 479.759 474.405L479.54 474.405C479.217 475.02 478.488 476.27 477.352 478.155L470.243 489.89 468.54 489.89 467.243 479.843C467.055 478.426 466.847 476.52 466.618 474.124L466.305 474.124C465.951 476.457 465.555 478.619 465.118 480.608L463.524 487.827C463.305 488.817 463.196 489.629 463.196 490.265 463.196 490.733 463.313 491.064 463.548 491.257 463.782 491.449 464.175 491.567 464.727 491.608L464.555 492.374 459.087 492.374 459.259 491.608C459.654 491.546 459.951 491.444 460.149 491.304 460.347 491.163 460.514 490.968 460.649 490.718 460.785 490.468 460.91 490.163 461.024 489.804 461.139 489.444 461.311 488.749 461.54 487.718L464.196 475.686C464.3 475.238 464.384 474.811 464.446 474.405 464.509 473.999 464.54 473.587 464.54 473.171 464.54 472.681 464.417 472.34 464.173 472.147 463.928 471.955 463.54 471.843 463.009 471.811ZM443.212 471.046 450.102 471.046C451.342 471.046 452.36 471.142 453.157 471.335 453.954 471.528 454.61 471.824 455.126 472.225 455.641 472.626 456.027 473.134 456.282 473.749 456.537 474.363 456.665 475.077 456.665 475.89 456.665 477.452 456.295 478.806 455.555 479.952 454.816 481.098 453.813 481.942 452.548 482.483 451.282 483.025 449.764 483.296 447.993 483.296 446.93 483.296 446.045 483.275 445.337 483.233L444.337 487.827C444.243 488.254 444.178 488.582 444.141 488.811 444.105 489.041 444.074 489.288 444.048 489.554 444.022 489.819 444.009 490.056 444.009 490.265 444.009 490.587 444.061 490.84 444.165 491.022 444.269 491.205 444.425 491.337 444.634 491.421 444.842 491.504 445.201 491.567 445.712 491.608L445.54 492.374 439.118 492.374 439.29 491.608C439.686 491.546 439.982 491.444 440.18 491.304 440.378 491.163 440.545 490.968 440.68 490.718 440.816 490.468 440.941 490.163 441.055 489.804 441.17 489.444 441.342 488.749 441.571 487.718L444.227 475.686C444.456 474.645 444.571 473.822 444.571 473.218 444.571 472.707 444.451 472.353 444.212 472.155 443.972 471.957 443.581 471.843 443.04 471.811Z" fill="#4B5E68" fill-rule="evenodd"/><text fill="#000000" fill-opacity="0" font-family="Arial,Arial_MSFontService,sans-serif" font-size="21.5938" x="439.118" y="489.94">𝑃𝑀𝑀𝑜𝑉</text><path d="M552.556 484.128C553.267 484.128 553.95 484.182 554.605 484.291 555.26 484.399 555.947 484.573 556.666 484.813L556.026 487.666 554.802 487.666C554.779 487.246 554.714 486.885 554.605 486.582 554.497 486.279 554.345 486.032 554.15 485.841 553.956 485.65 553.709 485.507 553.409 485.414 553.11 485.32 552.754 485.273 552.342 485.273 551.901 485.273 551.5 485.333 551.141 485.453 550.781 485.573 550.474 485.743 550.22 485.964 549.965 486.185 549.769 486.451 549.63 486.762 549.492 487.072 549.422 487.411 549.422 487.778 549.422 488.055 549.456 488.309 549.523 488.542 549.591 488.774 549.707 488.998 549.872 489.215 550.036 489.432 550.263 489.653 550.551 489.878 550.839 490.103 551.204 490.35 551.646 490.619 552.185 490.956 552.647 491.274 553.033 491.574 553.419 491.873 553.733 492.184 553.976 492.506 554.22 492.828 554.398 493.17 554.51 493.533 554.622 493.897 554.678 494.303 554.678 494.752 554.678 495.403 554.549 495.999 554.291 496.538 554.033 497.077 553.666 497.541 553.19 497.93 552.715 498.32 552.146 498.621 551.483 498.834 550.821 499.048 550.081 499.154 549.265 499.154 548.576 499.154 547.835 499.096 547.042 498.98 546.248 498.864 545.466 498.694 544.694 498.469L545.357 495.437 546.547 495.437C546.57 496.335 546.809 496.987 547.266 497.391 547.723 497.795 548.427 497.998 549.378 497.998 549.864 497.998 550.302 497.934 550.691 497.807 551.081 497.679 551.41 497.496 551.68 497.256 551.949 497.017 552.155 496.725 552.297 496.38 552.44 496.036 552.511 495.65 552.511 495.224 552.511 494.924 552.473 494.653 552.398 494.409 552.324 494.166 552.193 493.925 552.005 493.685 551.818 493.445 551.566 493.202 551.247 492.955 550.929 492.708 550.534 492.439 550.063 492.147 549.591 491.855 549.181 491.564 548.833 491.276 548.485 490.988 548.195 490.688 547.962 490.378 547.73 490.067 547.556 489.743 547.44 489.406 547.324 489.069 547.266 488.71 547.266 488.328 547.266 487.699 547.39 487.128 547.637 486.616 547.884 486.103 548.238 485.661 548.698 485.29 549.159 484.92 549.716 484.633 550.371 484.431 551.026 484.229 551.755 484.128 552.556 484.128Z" fill="#4B5E68" fill-rule="evenodd"/><text fill="#000000" fill-opacity="0" font-family="Arial,Arial_MSFontService,sans-serif" font-size="15.0264" x="544.694" y="497.276">𝑆</text><path d="M513.358 524.063C512.275 524.063 511.329 524.516 510.522 525.422 509.715 526.329 509.079 527.626 508.616 529.313 508.152 531.001 507.92 532.454 507.92 533.672 507.92 534.818 508.157 535.665 508.631 536.211 509.105 536.758 509.821 537.032 510.78 537.032 511.801 537.032 512.707 536.573 513.499 535.657 514.29 534.74 514.915 533.456 515.374 531.805 515.832 530.154 516.061 528.704 516.061 527.454 516.061 526.329 515.842 525.482 515.405 524.915 514.967 524.347 514.285 524.063 513.358 524.063ZM513.67 522.813C515.337 522.813 516.608 523.269 517.483 524.18 518.358 525.092 518.795 526.396 518.795 528.094 518.795 529.303 518.584 530.594 518.163 531.969 517.741 533.344 517.163 534.501 516.428 535.438 515.694 536.376 514.816 537.081 513.795 537.555 512.775 538.029 511.603 538.266 510.28 538.266 508.665 538.266 507.413 537.813 506.522 536.907 505.631 536.001 505.186 534.698 505.186 533.001 505.186 532.167 505.311 531.204 505.561 530.11 505.884 528.631 506.426 527.339 507.186 526.235 507.946 525.131 508.884 524.284 509.999 523.696 511.113 523.107 512.337 522.813 513.67 522.813ZM440.999 518.047C440.353 518.047 439.676 518.063 438.967 518.094L436.842 527.563 438.467 527.563C439.728 527.563 440.746 527.433 441.522 527.172 442.298 526.912 442.933 526.508 443.428 525.961 443.923 525.415 444.306 524.766 444.577 524.016 444.847 523.266 444.983 522.443 444.983 521.547 444.983 520.339 444.676 519.454 444.061 518.891 443.446 518.329 442.426 518.047 440.999 518.047ZM522.124 516.672 528.592 516.672 528.42 517.438C527.962 517.49 527.605 517.626 527.35 517.844 527.095 518.063 526.915 518.368 526.811 518.758 526.707 519.149 526.655 519.672 526.655 520.329 526.655 520.485 526.67 520.954 526.702 521.735L527.139 533.172 527.139 534.422 527.295 534.422 534.061 522.219C534.457 521.501 534.754 520.883 534.952 520.368 535.15 519.852 535.249 519.396 535.249 519.001 535.249 518.126 534.728 517.605 533.686 517.438L533.858 516.672 540.249 516.672 540.077 517.438C539.795 517.48 539.527 517.586 539.272 517.758 539.017 517.93 538.73 518.217 538.413 518.618 538.095 519.019 537.603 519.792 536.936 520.938L526.936 538.251 524.858 538.251 523.811 520.829C523.769 520.152 523.694 519.571 523.584 519.086 523.475 518.602 523.303 518.224 523.069 517.954 522.834 517.683 522.462 517.511 521.952 517.438ZM481.42 516.672 486.999 516.672 488.78 531.829 497.889 516.672 502.811 516.672 502.639 517.438C502.243 517.521 501.959 517.615 501.788 517.719 501.616 517.823 501.459 517.98 501.319 518.188 501.178 518.396 501.038 518.722 500.897 519.165 500.756 519.607 500.577 520.329 500.358 521.329L497.686 533.454C497.551 534.068 497.462 534.555 497.42 534.915 497.379 535.274 497.358 535.599 497.358 535.891 497.358 536.36 497.475 536.691 497.709 536.883 497.944 537.076 498.337 537.193 498.889 537.235L498.717 538.001 492.467 538.001 492.639 537.235C493.035 537.172 493.332 537.071 493.53 536.93 493.728 536.79 493.894 536.594 494.03 536.344 494.165 536.094 494.29 535.79 494.405 535.43 494.519 535.071 494.691 534.376 494.92 533.344L496.999 523.922C497.29 522.62 497.624 521.323 497.999 520.032L497.78 520.032C497.457 520.646 496.728 521.896 495.592 523.782L488.483 535.516 486.78 535.516 485.483 525.469C485.295 524.053 485.087 522.146 484.858 519.751L484.545 519.751C484.191 522.084 483.795 524.245 483.358 526.235L481.764 533.454C481.545 534.443 481.436 535.256 481.436 535.891 481.436 536.36 481.553 536.691 481.788 536.883 482.022 537.076 482.415 537.193 482.967 537.235L482.795 538.001 477.327 538.001 477.499 537.235C477.894 537.172 478.191 537.071 478.389 536.93 478.587 536.79 478.754 536.594 478.889 536.344 479.025 536.094 479.15 535.79 479.264 535.43 479.379 535.071 479.551 534.376 479.78 533.344L482.436 521.313C482.54 520.865 482.624 520.438 482.686 520.032 482.749 519.626 482.78 519.214 482.78 518.797 482.78 518.308 482.657 517.967 482.413 517.774 482.168 517.581 481.78 517.469 481.249 517.438ZM454.42 516.672 459.999 516.672 461.78 531.829 470.889 516.672 475.811 516.672 475.639 517.438C475.243 517.521 474.959 517.615 474.788 517.719 474.616 517.823 474.459 517.98 474.319 518.188 474.178 518.396 474.038 518.722 473.897 519.165 473.756 519.607 473.577 520.329 473.358 521.329L470.686 533.454C470.551 534.068 470.462 534.555 470.42 534.915 470.379 535.274 470.358 535.599 470.358 535.891 470.358 536.36 470.475 536.691 470.709 536.883 470.944 537.076 471.337 537.193 471.889 537.235L471.717 538.001 465.467 538.001 465.639 537.235C466.035 537.172 466.332 537.071 466.53 536.93 466.728 536.79 466.894 536.594 467.03 536.344 467.165 536.094 467.29 535.79 467.405 535.43 467.519 535.071 467.691 534.376 467.92 533.344L469.999 523.922C470.29 522.62 470.624 521.323 470.999 520.032L470.78 520.032C470.457 520.646 469.728 521.896 468.592 523.782L461.483 535.516 459.78 535.516 458.483 525.469C458.295 524.053 458.087 522.146 457.858 519.751L457.545 519.751C457.191 522.084 456.795 524.245 456.358 526.235L454.764 533.454C454.545 534.443 454.436 535.256 454.436 535.891 454.436 536.36 454.553 536.691 454.788 536.883 455.022 537.076 455.415 537.193 455.967 537.235L455.795 538.001 450.327 538.001 450.499 537.235C450.894 537.172 451.191 537.071 451.389 536.93 451.587 536.79 451.754 536.594 451.889 536.344 452.025 536.094 452.15 535.79 452.264 535.43 452.379 535.071 452.551 534.376 452.78 533.344L455.436 521.313C455.54 520.865 455.624 520.438 455.686 520.032 455.749 519.626 455.78 519.214 455.78 518.797 455.78 518.308 455.657 517.967 455.413 517.774 455.168 517.581 454.78 517.469 454.249 517.438ZM434.452 516.672 441.342 516.672C442.582 516.672 443.6 516.769 444.397 516.961 445.194 517.154 445.85 517.451 446.366 517.852 446.881 518.253 447.267 518.761 447.522 519.376 447.777 519.99 447.905 520.704 447.905 521.516 447.905 523.079 447.535 524.433 446.795 525.579 446.056 526.724 445.053 527.568 443.788 528.11 442.522 528.652 441.004 528.922 439.233 528.922 438.17 528.922 437.285 528.902 436.577 528.86L435.577 533.454C435.483 533.881 435.418 534.209 435.381 534.438 435.345 534.667 435.314 534.915 435.288 535.18 435.262 535.446 435.249 535.683 435.249 535.891 435.249 536.214 435.301 536.467 435.405 536.649 435.509 536.831 435.665 536.964 435.874 537.047 436.082 537.131 436.441 537.193 436.952 537.235L436.78 538.001 430.358 538.001 430.53 537.235C430.926 537.172 431.222 537.071 431.42 536.93 431.618 536.79 431.785 536.594 431.92 536.344 432.056 536.094 432.181 535.79 432.295 535.43 432.41 535.071 432.582 534.376 432.811 533.344L435.467 521.313C435.696 520.271 435.811 519.448 435.811 518.844 435.811 518.334 435.691 517.98 435.452 517.782 435.212 517.584 434.821 517.469 434.28 517.438Z" fill="#4B5E68" fill-rule="evenodd"/><text fill="#000000" fill-opacity="0" font-family="Arial,Arial_MSFontService,sans-serif" font-size="21.5938" x="430.358" y="535.567">𝑃𝑀𝑀𝑜𝑉</text><path d="M560.248 532.237C559.596 533.3 558.951 534.365 558.31 535.432 557.67 536.499 557.024 537.567 556.373 538.638L560.697 538.638C560.659 538.159 560.622 537.689 560.585 537.229 560.547 536.768 560.517 536.283 560.495 535.774 560.472 535.265 560.452 534.722 560.433 534.146 560.414 533.569 560.405 532.933 560.405 532.237ZM560.203 529.777 562.056 529.777 563.078 541.648C563.108 542.03 563.154 542.352 563.218 542.614 563.282 542.876 563.37 543.093 563.482 543.265 563.594 543.437 563.735 543.568 563.903 543.658 564.072 543.748 564.283 543.811 564.538 543.849L564.369 544.534 559.473 544.534 559.641 543.849C559.851 543.811 560.036 543.765 560.197 543.708 560.358 543.652 560.491 543.559 560.596 543.428 560.701 543.297 560.781 543.119 560.837 542.894 560.893 542.67 560.921 542.378 560.921 542.018 560.921 541.884 560.918 541.728 560.91 541.552 560.903 541.376 560.893 541.191 560.882 540.996 560.871 540.802 560.856 540.601 560.837 540.396 560.818 540.19 560.802 539.989 560.787 539.795L555.755 539.795C555.583 540.049 555.413 540.311 555.244 540.581 555.076 540.85 554.922 541.114 554.784 541.373 554.646 541.631 554.535 541.887 554.453 542.142 554.37 542.396 554.329 542.647 554.329 542.894 554.329 543.441 554.73 543.759 555.531 543.849L555.385 544.534 550.477 544.534 550.601 543.849C550.803 543.811 550.984 543.753 551.145 543.675 551.306 543.596 551.475 543.473 551.651 543.304 551.827 543.136 552.018 542.907 552.223 542.619 552.429 542.331 552.678 541.951 552.97 541.479ZM545.989 529.755C546.326 529.755 546.652 529.764 546.966 529.783 547.281 529.801 547.603 529.835 547.932 529.884 548.262 529.932 548.597 529.998 548.937 530.08 549.278 530.163 549.643 530.268 550.032 530.395L549.358 533.405 548.179 533.405C548.142 532.97 548.074 532.596 547.977 532.281 547.88 531.967 547.741 531.709 547.562 531.507 547.382 531.304 547.152 531.157 546.871 531.063 546.59 530.969 546.248 530.923 545.843 530.923 545.297 530.923 544.776 531.057 544.282 531.327 543.788 531.596 543.335 531.963 542.923 532.427 542.512 532.892 542.143 533.436 541.817 534.062 541.492 534.687 541.213 535.349 540.981 536.049 540.748 536.749 540.573 537.47 540.453 538.211 540.333 538.952 540.273 539.675 540.273 540.379 540.273 541.509 540.484 542.329 540.908 542.838 541.331 543.347 541.98 543.602 542.856 543.602 543.298 543.602 543.7 543.553 544.063 543.456 544.426 543.358 544.763 543.205 545.074 542.995 545.385 542.786 545.669 542.514 545.928 542.181 546.186 541.848 546.427 541.449 546.652 540.985L547.887 540.985 547.169 544.118C546.764 544.238 546.375 544.339 546.001 544.422 545.626 544.504 545.259 544.571 544.9 544.624 544.541 544.676 544.185 544.716 543.833 544.742 543.481 544.768 543.126 544.781 542.766 544.781 541.988 544.781 541.297 544.669 540.694 544.444 540.091 544.219 539.588 543.899 539.184 543.484 538.779 543.068 538.472 542.559 538.263 541.957 538.053 541.354 537.948 540.678 537.948 539.929 537.948 538.949 538.047 538.015 538.246 537.127 538.444 536.24 538.721 535.42 539.077 534.668 539.433 533.916 539.859 533.236 540.357 532.63 540.855 532.023 541.402 531.507 541.997 531.08 542.592 530.653 543.227 530.326 543.9 530.097 544.574 529.869 545.271 529.755 545.989 529.755Z" fill="#4B5E68" fill-rule="evenodd"/><text fill="#000000" fill-opacity="0" font-family="Arial,Arial_MSFontService,sans-serif" font-size="15.0264" x="537.948" y="542.903">𝐶𝐴</text><path d="M429.221 506.594 567.221 506.594 567.221 508.594 429.221 508.594Z" fill="#4B5E68" fill-rule="evenodd"/><path d="M600.127 498.891 607.205 505.953 614.283 498.891 615.752 500.344 608.752 507.469 615.767 514.563 614.205 516.125 607.205 508.985 599.986 516.063 598.533 514.594 605.674 507.469 598.564 500.453Z" fill="#4B5E68" fill-rule="evenodd"/><text fill="#000000" fill-opacity="0" font-family="Arial,Arial_MSFontService,sans-serif" font-size="17.2344" x="598.533" y="513.971">×</text><path d="M688.167 479.015C687.636 479.015 687.113 479.194 686.597 479.554 686.081 479.913 685.516 480.488 684.902 481.28 684.287 482.072 683.808 482.853 683.464 483.624 683.12 484.395 682.85 485.28 682.652 486.28L682.527 486.936C682.422 487.488 682.357 487.91 682.331 488.202 682.305 488.494 682.292 488.78 682.292 489.061 682.292 489.874 682.467 490.465 682.816 490.835 683.165 491.205 683.766 491.39 684.62 491.39 685.152 491.39 685.641 491.285 686.089 491.077 686.537 490.869 686.961 490.567 687.363 490.171 687.764 489.775 688.126 489.296 688.448 488.733 688.771 488.171 689.06 487.517 689.316 486.772 689.571 486.028 689.764 485.262 689.894 484.475 690.024 483.689 690.089 482.952 690.089 482.265 690.089 481.171 689.935 480.356 689.628 479.819 689.321 479.283 688.834 479.015 688.167 479.015ZM773.558 478.436C772.475 478.436 771.529 478.89 770.722 479.796 769.915 480.702 769.279 481.999 768.816 483.686 768.352 485.374 768.12 486.827 768.12 488.046 768.12 489.192 768.357 490.038 768.831 490.585 769.305 491.132 770.021 491.405 770.98 491.405 772.001 491.405 772.907 490.947 773.698 490.03 774.49 489.113 775.115 487.83 775.573 486.179 776.032 484.528 776.261 483.077 776.261 481.827 776.261 480.702 776.042 479.856 775.605 479.288 775.167 478.72 774.485 478.436 773.558 478.436ZM669.558 478.436C668.475 478.436 667.529 478.89 666.722 479.796 665.915 480.702 665.279 481.999 664.816 483.686 664.352 485.374 664.12 486.827 664.12 488.046 664.12 489.192 664.357 490.038 664.831 490.585 665.305 491.132 666.021 491.405 666.98 491.405 668.001 491.405 668.907 490.947 669.698 490.03 670.49 489.113 671.115 487.83 671.573 486.179 672.032 484.528 672.261 483.077 672.261 481.827 672.261 480.702 672.042 479.856 671.605 479.288 671.167 478.72 670.485 478.436 669.558 478.436ZM732.683 478.405C731.61 478.405 730.646 478.837 729.792 479.702 728.938 480.567 728.271 481.725 727.792 483.179 727.313 484.632 727.073 486.082 727.073 487.53 727.073 488.613 727.222 489.423 727.519 489.96 727.816 490.496 728.313 490.765 729.011 490.765 729.698 490.765 730.373 490.468 731.034 489.874 731.696 489.28 732.378 488.434 733.081 487.335 733.784 486.236 734.282 484.968 734.573 483.53L734.714 482.858C734.808 482.431 734.87 482.061 734.902 481.749 734.933 481.436 734.948 481.098 734.948 480.733 734.948 479.931 734.777 479.343 734.433 478.968 734.089 478.593 733.506 478.405 732.683 478.405ZM760.152 477.296 761.073 477.296 758.823 487.327C758.594 488.348 758.48 489.119 758.48 489.64 758.48 490.056 758.547 490.358 758.683 490.546 758.818 490.733 759.032 490.827 759.323 490.827 759.636 490.827 759.969 490.699 760.323 490.444 760.678 490.189 761.178 489.702 761.823 488.983L762.714 489.858C761.693 490.931 760.865 491.66 760.23 492.046 759.594 492.431 758.881 492.624 758.089 492.624 757.412 492.624 756.87 492.376 756.464 491.882 756.058 491.387 755.855 490.754 755.855 489.983 755.855 489.192 756.001 488.181 756.292 486.952L757.464 481.843C757.704 480.801 757.823 480.02 757.823 479.499 757.823 479.03 757.711 478.712 757.488 478.546 757.264 478.379 756.823 478.285 756.167 478.265L756.339 477.436ZM773.87 477.186C775.537 477.186 776.808 477.642 777.683 478.554 778.558 479.465 778.995 480.77 778.995 482.468 778.995 483.676 778.784 484.968 778.363 486.343 777.941 487.718 777.363 488.874 776.628 489.811 775.894 490.749 775.016 491.455 773.995 491.929 772.975 492.403 771.803 492.64 770.48 492.64 768.865 492.64 767.613 492.186 766.722 491.28 765.831 490.374 765.386 489.072 765.386 487.374 765.386 486.541 765.511 485.577 765.761 484.483 766.084 483.004 766.626 481.712 767.386 480.608 768.146 479.504 769.084 478.658 770.198 478.069 771.313 477.481 772.537 477.186 773.87 477.186ZM669.87 477.186C671.537 477.186 672.808 477.642 673.683 478.554 674.558 479.465 674.995 480.77 674.995 482.468 674.995 483.676 674.784 484.968 674.363 486.343 673.941 487.718 673.363 488.874 672.628 489.811 671.894 490.749 671.016 491.455 669.995 491.929 668.975 492.403 667.803 492.64 666.48 492.64 664.865 492.64 663.613 492.186 662.722 491.28 661.831 490.374 661.386 489.072 661.386 487.374 661.386 486.541 661.511 485.577 661.761 484.483 662.084 483.004 662.626 481.712 663.386 480.608 664.146 479.504 665.084 478.658 666.198 478.069 667.313 477.481 668.537 477.186 669.87 477.186ZM785.589 477.171C786.245 477.171 786.764 477.387 787.144 477.819 787.524 478.251 787.714 478.817 787.714 479.515 787.714 480.067 787.589 480.681 787.339 481.358L787.527 481.421C788.547 479.983 789.519 478.918 790.441 478.225 791.363 477.533 792.313 477.186 793.292 477.186 794.261 477.186 795.006 477.465 795.527 478.022 796.047 478.58 796.308 479.353 796.308 480.343 796.308 480.999 796.157 481.931 795.855 483.14L794.839 487.233C794.558 488.369 794.417 489.171 794.417 489.64 794.417 490.056 794.485 490.358 794.62 490.546 794.756 490.733 794.969 490.827 795.261 490.827 795.573 490.827 795.907 490.699 796.261 490.444 796.615 490.189 797.115 489.702 797.761 488.983L798.652 489.858C797.756 490.817 796.975 491.517 796.308 491.96 795.641 492.403 794.881 492.624 794.027 492.624 793.35 492.624 792.808 492.382 792.402 491.897 791.995 491.413 791.792 490.796 791.792 490.046 791.792 489.369 791.964 488.374 792.308 487.061L792.995 484.358C793.245 483.379 793.409 482.655 793.488 482.186 793.566 481.718 793.605 481.337 793.605 481.046 793.605 480.327 793.485 479.809 793.245 479.491 793.006 479.173 792.615 479.015 792.073 479.015 791.636 479.015 791.165 479.189 790.659 479.538 790.154 479.887 789.618 480.413 789.05 481.116 788.482 481.819 788.027 482.501 787.683 483.163 787.339 483.824 787.058 484.64 786.839 485.608L785.355 492.374 782.652 492.374 784.933 482.468C785.162 481.468 785.277 480.697 785.277 480.155 785.277 479.738 785.209 479.436 785.073 479.249 784.938 479.061 784.725 478.968 784.433 478.968 784.11 478.968 783.769 479.1 783.409 479.366 783.05 479.632 782.558 480.113 781.933 480.811L781.042 479.936C782.001 478.936 782.797 478.225 783.433 477.804 784.068 477.382 784.787 477.171 785.589 477.171ZM732.37 477.171C733.047 477.171 733.68 477.246 734.269 477.397 734.857 477.548 735.464 477.817 736.089 478.202L737.527 477.171 738.527 477.421 736.23 487.327C736.001 488.317 735.886 489.087 735.886 489.64 735.886 490.056 735.954 490.358 736.089 490.546 736.225 490.733 736.438 490.827 736.73 490.827 737.042 490.827 737.376 490.699 737.73 490.444 738.084 490.189 738.584 489.702 739.23 488.983L740.12 489.858C739.183 490.858 738.383 491.569 737.722 491.991 737.06 492.413 736.344 492.624 735.573 492.624 734.928 492.624 734.412 492.41 734.027 491.983 733.641 491.556 733.448 490.988 733.448 490.28 733.448 489.707 733.568 489.098 733.808 488.452L733.605 488.39C732.605 489.848 731.657 490.916 730.761 491.593 729.865 492.27 728.917 492.608 727.917 492.608 726.771 492.608 725.883 492.176 725.253 491.311 724.623 490.447 724.308 489.233 724.308 487.671 724.308 485.879 724.659 484.158 725.363 482.507 726.066 480.856 727.032 479.554 728.261 478.6 729.49 477.647 730.86 477.171 732.37 477.171ZM699.714 477.171C700.381 477.171 700.907 477.395 701.292 477.843 701.678 478.291 701.87 478.895 701.87 479.655 701.87 480.478 701.709 481.504 701.386 482.733L700.698 485.436C700.521 486.124 700.394 486.66 700.316 487.046 700.238 487.431 700.18 487.765 700.144 488.046 700.107 488.327 700.089 488.561 700.089 488.749 700.089 489.468 700.209 489.986 700.448 490.304 700.688 490.621 701.079 490.78 701.62 490.78 702.058 490.78 702.529 490.606 703.034 490.257 703.54 489.908 704.076 489.382 704.644 488.679 705.211 487.975 705.667 487.293 706.011 486.632 706.355 485.97 706.636 485.155 706.855 484.186L708.339 477.421 711.042 477.421 708.761 487.327C708.532 488.327 708.417 489.098 708.417 489.64 708.417 490.056 708.485 490.358 708.62 490.546 708.756 490.733 708.969 490.827 709.261 490.827 709.573 490.827 709.907 490.699 710.261 490.444 710.615 490.189 711.115 489.702 711.761 488.983L712.652 489.858C711.704 490.869 710.896 491.582 710.23 491.999 709.563 492.416 708.855 492.624 708.105 492.624 707.459 492.624 706.943 492.41 706.558 491.983 706.172 491.556 705.98 490.988 705.98 490.28 705.98 489.718 706.105 489.103 706.355 488.436L706.167 488.374C705.136 489.822 704.159 490.89 703.238 491.577 702.316 492.265 701.37 492.608 700.402 492.608 699.433 492.608 698.688 492.33 698.167 491.772 697.646 491.215 697.386 490.442 697.386 489.452 697.386 488.796 697.537 487.863 697.839 486.655L698.855 482.561C699.136 481.426 699.277 480.624 699.277 480.155 699.277 479.738 699.209 479.436 699.073 479.249 698.938 479.061 698.725 478.968 698.433 478.968 698.11 478.968 697.769 479.1 697.409 479.366 697.05 479.632 696.558 480.113 695.933 480.811L695.042 479.936C695.928 479.041 696.594 478.426 697.042 478.093 697.49 477.759 697.92 477.522 698.331 477.382 698.743 477.241 699.204 477.171 699.714 477.171ZM681.589 477.171C682.235 477.171 682.748 477.384 683.128 477.811 683.508 478.238 683.698 478.806 683.698 479.515 683.698 480.098 683.579 480.712 683.339 481.358L683.527 481.421C685.454 478.598 687.37 477.186 689.277 477.186 690.412 477.186 691.295 477.619 691.925 478.483 692.555 479.348 692.87 480.567 692.87 482.14 692.87 483.858 692.524 485.548 691.831 487.21 691.139 488.871 690.178 490.189 688.948 491.163 687.719 492.137 686.344 492.624 684.823 492.624 683.438 492.624 682.287 492.322 681.37 491.718L680.652 495.14C680.495 495.879 680.417 496.488 680.417 496.968 680.417 497.426 680.534 497.751 680.769 497.944 681.003 498.137 681.459 498.265 682.136 498.327L682.011 499.093 677.183 499.093 680.948 482.515C681.167 481.556 681.277 480.77 681.277 480.155 681.277 479.738 681.209 479.436 681.073 479.249 680.938 479.061 680.725 478.968 680.433 478.968 680.11 478.968 679.769 479.1 679.409 479.366 679.05 479.632 678.558 480.113 677.933 480.811L677.042 479.936C677.98 478.957 678.774 478.251 679.425 477.819 680.076 477.387 680.797 477.171 681.589 477.171ZM746.777 473.577 748.933 473.577 748.073 477.436 752.823 477.436 752.48 479.015 747.73 479.015 746.339 485.077C746.068 486.254 745.896 487.1 745.823 487.616 745.751 488.132 745.714 488.546 745.714 488.858 745.714 490.15 746.251 490.796 747.323 490.796 747.782 490.796 748.269 490.621 748.784 490.272 749.3 489.923 749.912 489.327 750.62 488.483L751.527 489.421C750.62 490.515 749.748 491.322 748.909 491.843 748.071 492.363 747.193 492.624 746.277 492.624 744.1 492.624 743.011 491.525 743.011 489.327 743.011 488.629 743.1 487.895 743.277 487.124L745.12 479.015 742.495 479.015 742.73 477.936C743.344 477.926 743.81 477.879 744.128 477.796 744.446 477.712 744.711 477.598 744.925 477.452 745.139 477.306 745.334 477.098 745.511 476.827 745.688 476.556 745.86 476.21 746.027 475.788 746.193 475.366 746.443 474.629 746.777 473.577ZM651.198 472.421C650.553 472.421 649.876 472.436 649.167 472.468L647.042 481.936 648.667 481.936C649.928 481.936 650.946 481.806 651.722 481.546 652.498 481.285 653.133 480.882 653.628 480.335 654.123 479.788 654.506 479.14 654.777 478.39 655.047 477.64 655.183 476.817 655.183 475.921 655.183 474.712 654.876 473.827 654.261 473.265 653.646 472.702 652.626 472.421 651.198 472.421ZM759.73 471.311 762.495 471.311 761.777 474.343 759.011 474.343ZM644.652 471.046 651.542 471.046C652.782 471.046 653.8 471.142 654.597 471.335 655.394 471.528 656.05 471.824 656.566 472.225 657.081 472.626 657.467 473.134 657.722 473.749 657.977 474.363 658.105 475.077 658.105 475.89 658.105 477.452 657.735 478.806 656.995 479.952 656.256 481.098 655.253 481.942 653.988 482.483 652.722 483.025 651.204 483.296 649.433 483.296 648.37 483.296 647.485 483.275 646.777 483.233L645.777 487.827C645.683 488.254 645.618 488.582 645.581 488.811 645.545 489.041 645.514 489.288 645.488 489.554 645.461 489.819 645.448 490.056 645.448 490.265 645.448 490.587 645.501 490.84 645.605 491.022 645.709 491.205 645.865 491.337 646.073 491.421 646.282 491.504 646.641 491.567 647.152 491.608L646.98 492.374 640.558 492.374 640.73 491.608C641.126 491.546 641.422 491.444 641.62 491.304 641.818 491.163 641.985 490.968 642.12 490.718 642.256 490.468 642.381 490.163 642.495 489.804 642.61 489.444 642.782 488.749 643.011 487.718L645.667 475.686C645.896 474.645 646.011 473.822 646.011 473.218 646.011 472.707 645.891 472.353 645.652 472.155 645.412 471.957 645.021 471.843 644.48 471.811ZM720.714 470.03 721.636 470.03 717.792 487.327C717.563 488.358 717.448 489.129 717.448 489.64 717.448 490.056 717.516 490.358 717.652 490.546 717.787 490.733 718.001 490.827 718.292 490.827 718.605 490.827 718.938 490.699 719.292 490.444 719.646 490.189 720.146 489.702 720.792 488.983L721.683 489.858C720.672 490.921 719.847 491.647 719.206 492.038 718.566 492.429 717.85 492.624 717.058 492.624 716.381 492.624 715.839 492.376 715.433 491.882 715.027 491.387 714.823 490.754 714.823 489.983 714.823 489.285 714.969 488.275 715.261 486.952L718.058 474.436C718.183 473.884 718.271 473.444 718.323 473.116 718.376 472.788 718.402 472.483 718.402 472.202 718.402 471.89 718.344 471.653 718.23 471.491 718.115 471.33 717.951 471.212 717.738 471.14 717.524 471.067 717.141 471.015 716.589 470.983L716.777 470.171Z" fill="#4B5E68" fill-rule="evenodd"/><text fill="#000000" fill-opacity="0" font-family="Arial,Arial_MSFontService,sans-serif" font-size="29.0625" x="640.558" y="495.46">𝑃𝑜𝑝𝑢𝑙𝑎𝑡𝑖𝑜𝑛</text><path d="M822.694 486.61C822.043 487.673 821.397 488.738 820.757 489.805 820.117 490.872 819.471 491.941 818.82 493.011L823.143 493.011C823.106 492.532 823.069 492.062 823.031 491.602 822.994 491.141 822.964 490.657 822.941 490.147 822.919 489.638 822.898 489.096 822.88 488.519 822.861 487.943 822.852 487.306 822.852 486.61ZM822.649 484.15 824.502 484.15 825.524 496.021C825.554 496.403 825.601 496.725 825.665 496.987 825.728 497.249 825.816 497.466 825.929 497.638 826.041 497.81 826.181 497.941 826.35 498.031 826.518 498.121 826.73 498.185 826.984 498.222L826.816 498.907 821.919 498.907 822.088 498.222C822.297 498.185 822.483 498.138 822.644 498.082 822.805 498.026 822.938 497.932 823.042 497.801 823.147 497.67 823.228 497.492 823.284 497.268 823.34 497.043 823.368 496.751 823.368 496.392 823.368 496.257 823.364 496.102 823.357 495.926 823.349 495.75 823.34 495.564 823.329 495.37 823.318 495.175 823.303 494.975 823.284 494.769 823.265 494.563 823.248 494.363 823.233 494.168L818.202 494.168C818.03 494.423 817.86 494.685 817.691 494.954 817.523 495.224 817.369 495.488 817.231 495.746 817.092 496.004 816.982 496.261 816.899 496.515 816.817 496.77 816.776 497.021 816.776 497.268 816.776 497.814 817.176 498.132 817.977 498.222L817.831 498.907 812.924 498.907 813.047 498.222C813.249 498.185 813.431 498.127 813.592 498.048 813.753 497.97 813.921 497.846 814.097 497.678 814.273 497.509 814.464 497.281 814.67 496.992 814.876 496.704 815.125 496.324 815.417 495.853ZM808.436 484.128C808.773 484.128 809.099 484.137 809.413 484.156 809.727 484.175 810.049 484.208 810.379 484.257 810.708 484.306 811.043 484.371 811.384 484.454 811.725 484.536 812.09 484.641 812.479 484.768L811.805 487.778 810.626 487.778C810.589 487.344 810.521 486.969 810.424 486.655 810.326 486.34 810.188 486.082 810.008 485.88 809.829 485.678 809.598 485.53 809.318 485.436 809.037 485.343 808.694 485.296 808.29 485.296 807.743 485.296 807.223 485.431 806.729 485.7 806.235 485.97 805.782 486.337 805.37 486.801 804.958 487.265 804.59 487.81 804.264 488.435 803.938 489.06 803.659 489.723 803.427 490.423 803.195 491.123 803.019 491.843 802.899 492.585 802.78 493.326 802.72 494.048 802.72 494.752 802.72 495.883 802.931 496.702 803.354 497.211 803.777 497.721 804.427 497.975 805.303 497.975 805.744 497.975 806.147 497.926 806.51 497.829 806.873 497.732 807.21 497.578 807.521 497.369 807.831 497.159 808.116 496.888 808.374 496.554 808.633 496.221 808.874 495.823 809.099 495.358L810.334 495.358 809.615 498.492C809.211 498.612 808.822 498.713 808.447 498.795 808.073 498.877 807.706 498.945 807.347 498.997 806.987 499.049 806.632 499.089 806.28 499.115 805.928 499.141 805.572 499.154 805.213 499.154 804.434 499.154 803.744 499.042 803.141 498.817 802.538 498.593 802.035 498.273 801.63 497.857 801.226 497.442 800.919 496.933 800.709 496.33 800.5 495.727 800.395 495.051 800.395 494.303 800.395 493.322 800.494 492.388 800.693 491.501 800.891 490.614 801.168 489.794 801.524 489.041 801.879 488.289 802.306 487.609 802.804 487.003 803.302 486.397 803.848 485.88 804.444 485.453 805.039 485.026 805.673 484.699 806.347 484.47 807.021 484.242 807.717 484.128 808.436 484.128Z" fill="#4B5E68" fill-rule="evenodd"/><text fill="#000000" fill-opacity="0" font-family="Arial,Arial_MSFontService,sans-serif" font-size="15.0264" x="800.395" y="497.276">𝐶𝐴</text><path d="M697.207 524.641C696.676 524.641 696.153 524.821 695.637 525.18 695.121 525.54 694.556 526.115 693.942 526.907 693.327 527.698 692.848 528.48 692.504 529.251 692.16 530.021 691.89 530.907 691.692 531.907L691.567 532.563C691.462 533.115 691.397 533.537 691.371 533.829 691.345 534.12 691.332 534.407 691.332 534.688 691.332 535.501 691.507 536.092 691.856 536.461 692.205 536.831 692.806 537.016 693.66 537.016 694.192 537.016 694.681 536.912 695.129 536.704 695.577 536.495 696.002 536.193 696.403 535.797 696.804 535.402 697.166 534.922 697.489 534.36 697.811 533.797 698.101 533.144 698.356 532.399 698.611 531.654 698.804 530.889 698.934 530.102 699.064 529.316 699.129 528.579 699.129 527.891 699.129 526.797 698.976 525.982 698.668 525.446 698.361 524.909 697.874 524.641 697.207 524.641ZM782.598 524.063C781.515 524.063 780.569 524.516 779.762 525.422 778.955 526.329 778.319 527.626 777.856 529.313 777.392 531.001 777.16 532.454 777.16 533.672 777.16 534.818 777.397 535.665 777.871 536.211 778.345 536.758 779.061 537.032 780.02 537.032 781.041 537.032 781.947 536.573 782.739 535.657 783.53 534.74 784.155 533.456 784.614 531.805 785.072 530.154 785.301 528.704 785.301 527.454 785.301 526.329 785.082 525.482 784.645 524.915 784.207 524.347 783.525 524.063 782.598 524.063ZM678.598 524.063C677.515 524.063 676.569 524.516 675.762 525.422 674.955 526.329 674.319 527.626 673.856 529.313 673.392 531.001 673.16 532.454 673.16 533.672 673.16 534.818 673.397 535.665 673.871 536.211 674.345 536.758 675.061 537.032 676.02 537.032 677.041 537.032 677.947 536.573 678.739 535.657 679.53 534.74 680.155 533.456 680.614 531.805 681.072 530.154 681.301 528.704 681.301 527.454 681.301 526.329 681.082 525.482 680.645 524.915 680.207 524.347 679.525 524.063 678.598 524.063ZM741.723 524.032C740.65 524.032 739.686 524.464 738.832 525.329 737.978 526.193 737.311 527.352 736.832 528.805 736.353 530.258 736.114 531.709 736.114 533.157 736.114 534.24 736.262 535.05 736.559 535.586 736.856 536.123 737.353 536.391 738.051 536.391 738.739 536.391 739.413 536.094 740.074 535.501 740.736 534.907 741.418 534.06 742.121 532.961 742.824 531.863 743.322 530.594 743.614 529.157L743.754 528.485C743.848 528.058 743.91 527.688 743.942 527.376 743.973 527.063 743.989 526.724 743.989 526.36 743.989 525.558 743.817 524.969 743.473 524.594 743.129 524.219 742.546 524.032 741.723 524.032ZM769.192 522.922 770.114 522.922 767.864 532.954C767.634 533.974 767.52 534.745 767.52 535.266 767.52 535.683 767.587 535.985 767.723 536.172 767.858 536.36 768.072 536.454 768.364 536.454 768.676 536.454 769.009 536.326 769.364 536.071 769.718 535.816 770.218 535.329 770.864 534.61L771.754 535.485C770.733 536.558 769.905 537.287 769.27 537.672 768.634 538.058 767.921 538.251 767.129 538.251 766.452 538.251 765.91 538.003 765.504 537.508 765.098 537.014 764.895 536.381 764.895 535.61 764.895 534.818 765.041 533.808 765.332 532.579L766.504 527.469C766.744 526.428 766.864 525.646 766.864 525.126 766.864 524.657 766.752 524.339 766.528 524.172 766.304 524.006 765.864 523.912 765.207 523.891L765.379 523.063ZM782.91 522.813C784.577 522.813 785.848 523.269 786.723 524.18 787.598 525.092 788.035 526.396 788.035 528.094 788.035 529.303 787.824 530.594 787.403 531.969 786.981 533.344 786.403 534.501 785.668 535.438 784.934 536.376 784.056 537.081 783.035 537.555 782.015 538.029 780.843 538.266 779.52 538.266 777.905 538.266 776.653 537.813 775.762 536.907 774.871 536.001 774.426 534.698 774.426 533.001 774.426 532.167 774.551 531.204 774.801 530.11 775.124 528.631 775.666 527.339 776.426 526.235 777.186 525.131 778.124 524.284 779.239 523.696 780.353 523.107 781.577 522.813 782.91 522.813ZM678.91 522.813C680.577 522.813 681.848 523.269 682.723 524.18 683.598 525.092 684.035 526.396 684.035 528.094 684.035 529.303 683.824 530.594 683.403 531.969 682.981 533.344 682.403 534.501 681.668 535.438 680.934 536.376 680.056 537.081 679.035 537.555 678.015 538.029 676.843 538.266 675.52 538.266 673.905 538.266 672.653 537.813 671.762 536.907 670.871 536.001 670.426 534.698 670.426 533.001 670.426 532.167 670.551 531.204 670.801 530.11 671.124 528.631 671.666 527.339 672.426 526.235 673.186 525.131 674.124 524.284 675.239 523.696 676.353 523.107 677.577 522.813 678.91 522.813ZM794.629 522.797C795.285 522.797 795.804 523.014 796.184 523.446 796.564 523.878 796.754 524.443 796.754 525.141 796.754 525.693 796.629 526.308 796.379 526.985L796.567 527.047C797.587 525.61 798.559 524.545 799.481 523.852 800.403 523.159 801.353 522.813 802.332 522.813 803.301 522.813 804.046 523.092 804.567 523.649 805.087 524.206 805.348 524.98 805.348 525.969 805.348 526.626 805.197 527.558 804.895 528.766L803.879 532.86C803.598 533.995 803.457 534.797 803.457 535.266 803.457 535.683 803.525 535.985 803.66 536.172 803.796 536.36 804.009 536.454 804.301 536.454 804.614 536.454 804.947 536.326 805.301 536.071 805.655 535.816 806.155 535.329 806.801 534.61L807.692 535.485C806.796 536.443 806.015 537.144 805.348 537.586 804.681 538.029 803.921 538.251 803.067 538.251 802.39 538.251 801.848 538.008 801.442 537.524 801.035 537.04 800.832 536.422 800.832 535.672 800.832 534.995 801.004 534.001 801.348 532.688L802.035 529.985C802.285 529.006 802.449 528.282 802.528 527.813 802.606 527.344 802.645 526.964 802.645 526.672 802.645 525.954 802.525 525.435 802.285 525.118 802.046 524.8 801.655 524.641 801.114 524.641 800.676 524.641 800.205 524.816 799.699 525.165 799.194 525.514 798.658 526.04 798.09 526.743 797.522 527.446 797.067 528.128 796.723 528.79 796.379 529.451 796.098 530.266 795.879 531.235L794.395 538.001 791.692 538.001 793.973 528.094C794.202 527.094 794.317 526.323 794.317 525.782 794.317 525.365 794.249 525.063 794.114 524.876 793.978 524.688 793.765 524.594 793.473 524.594 793.15 524.594 792.809 524.727 792.449 524.993 792.09 525.258 791.598 525.74 790.973 526.438L790.082 525.563C791.041 524.563 791.837 523.852 792.473 523.43 793.108 523.008 793.827 522.797 794.629 522.797ZM741.41 522.797C742.087 522.797 742.72 522.873 743.309 523.024 743.897 523.175 744.504 523.443 745.129 523.829L746.567 522.797 747.567 523.047 745.27 532.954C745.041 533.943 744.926 534.714 744.926 535.266 744.926 535.683 744.994 535.985 745.129 536.172 745.265 536.36 745.478 536.454 745.77 536.454 746.082 536.454 746.416 536.326 746.77 536.071 747.124 535.816 747.624 535.329 748.27 534.61L749.16 535.485C748.223 536.485 747.423 537.196 746.762 537.618 746.101 538.04 745.384 538.251 744.614 538.251 743.968 538.251 743.452 538.037 743.067 537.61 742.681 537.183 742.489 536.615 742.489 535.907 742.489 535.334 742.608 534.724 742.848 534.079L742.645 534.016C741.645 535.474 740.697 536.542 739.801 537.219 738.905 537.896 737.957 538.235 736.957 538.235 735.811 538.235 734.923 537.803 734.293 536.938 733.663 536.073 733.348 534.86 733.348 533.297 733.348 531.506 733.699 529.784 734.403 528.133 735.106 526.482 736.072 525.18 737.301 524.227 738.53 523.274 739.9 522.797 741.41 522.797ZM708.754 522.797C709.421 522.797 709.947 523.021 710.332 523.469 710.718 523.917 710.91 524.521 710.91 525.282 710.91 526.105 710.749 527.131 710.426 528.36L709.739 531.063C709.561 531.751 709.434 532.287 709.356 532.672 709.278 533.058 709.22 533.391 709.184 533.672 709.147 533.954 709.129 534.188 709.129 534.376 709.129 535.094 709.249 535.613 709.489 535.93 709.728 536.248 710.119 536.407 710.66 536.407 711.098 536.407 711.569 536.232 712.074 535.883 712.58 535.534 713.116 535.008 713.684 534.305 714.252 533.602 714.707 532.92 715.051 532.258 715.395 531.597 715.676 530.782 715.895 529.813L717.379 523.047 720.082 523.047 717.801 532.954C717.572 533.954 717.457 534.724 717.457 535.266 717.457 535.683 717.525 535.985 717.66 536.172 717.796 536.36 718.009 536.454 718.301 536.454 718.614 536.454 718.947 536.326 719.301 536.071 719.655 535.816 720.155 535.329 720.801 534.61L721.692 535.485C720.744 536.495 719.936 537.209 719.27 537.626 718.603 538.042 717.895 538.251 717.145 538.251 716.499 538.251 715.983 538.037 715.598 537.61 715.212 537.183 715.02 536.615 715.02 535.907 715.02 535.344 715.145 534.73 715.395 534.063L715.207 534.001C714.176 535.448 713.199 536.516 712.278 537.204 711.356 537.891 710.41 538.235 709.442 538.235 708.473 538.235 707.728 537.956 707.207 537.399 706.686 536.842 706.426 536.068 706.426 535.079 706.426 534.422 706.577 533.49 706.879 532.282L707.895 528.188C708.176 527.053 708.317 526.251 708.317 525.782 708.317 525.365 708.249 525.063 708.114 524.876 707.978 524.688 707.765 524.594 707.473 524.594 707.15 524.594 706.809 524.727 706.449 524.993 706.09 525.258 705.598 525.74 704.973 526.438L704.082 525.563C704.968 524.667 705.634 524.053 706.082 523.719 706.53 523.386 706.96 523.149 707.371 523.008 707.783 522.868 708.244 522.797 708.754 522.797ZM690.629 522.797C691.275 522.797 691.788 523.011 692.168 523.438 692.548 523.865 692.739 524.433 692.739 525.141 692.739 525.724 692.619 526.339 692.379 526.985L692.567 527.047C694.494 524.224 696.41 522.813 698.317 522.813 699.452 522.813 700.335 523.245 700.965 524.11 701.595 524.974 701.91 526.193 701.91 527.766 701.91 529.485 701.564 531.175 700.871 532.836 700.179 534.498 699.218 535.816 697.989 536.79 696.759 537.764 695.384 538.251 693.864 538.251 692.478 538.251 691.327 537.948 690.41 537.344L689.692 540.766C689.535 541.506 689.457 542.115 689.457 542.594 689.457 543.053 689.574 543.378 689.809 543.571 690.043 543.764 690.499 543.891 691.176 543.954L691.051 544.719 686.223 544.719 689.989 528.141C690.207 527.183 690.317 526.396 690.317 525.782 690.317 525.365 690.249 525.063 690.114 524.876 689.978 524.688 689.765 524.594 689.473 524.594 689.15 524.594 688.809 524.727 688.449 524.993 688.09 525.258 687.598 525.74 686.973 526.438L686.082 525.563C687.02 524.584 687.814 523.878 688.465 523.446 689.116 523.014 689.837 522.797 690.629 522.797ZM755.817 519.204 757.973 519.204 757.114 523.063 761.864 523.063 761.52 524.641 756.77 524.641 755.379 530.704C755.108 531.881 754.936 532.727 754.864 533.243 754.791 533.758 754.754 534.172 754.754 534.485 754.754 535.777 755.291 536.422 756.364 536.422 756.822 536.422 757.309 536.248 757.824 535.899 758.34 535.55 758.952 534.954 759.66 534.11L760.567 535.047C759.66 536.141 758.788 536.948 757.949 537.469 757.111 537.99 756.233 538.251 755.317 538.251 753.14 538.251 752.051 537.152 752.051 534.954 752.051 534.256 752.14 533.521 752.317 532.751L754.16 524.641 751.535 524.641 751.77 523.563C752.384 523.553 752.851 523.506 753.168 523.422 753.486 523.339 753.752 523.224 753.965 523.079 754.179 522.933 754.374 522.724 754.551 522.454 754.728 522.183 754.9 521.836 755.067 521.415 755.233 520.993 755.483 520.256 755.817 519.204ZM660.239 518.047C659.593 518.047 658.916 518.063 658.207 518.094L656.082 527.563 657.707 527.563C658.968 527.563 659.986 527.433 660.762 527.172 661.538 526.912 662.173 526.508 662.668 525.961 663.163 525.415 663.546 524.766 663.817 524.016 664.087 523.266 664.223 522.443 664.223 521.547 664.223 520.339 663.916 519.454 663.301 518.891 662.686 518.329 661.666 518.047 660.239 518.047ZM768.77 516.938 771.535 516.938 770.817 519.969 768.051 519.969ZM653.692 516.672 660.582 516.672C661.822 516.672 662.84 516.769 663.637 516.961 664.434 517.154 665.09 517.451 665.606 517.852 666.121 518.253 666.507 518.761 666.762 519.376 667.017 519.99 667.145 520.704 667.145 521.516 667.145 523.079 666.775 524.433 666.035 525.579 665.296 526.724 664.293 527.568 663.028 528.11 661.762 528.652 660.244 528.922 658.473 528.922 657.41 528.922 656.525 528.902 655.817 528.86L654.817 533.454C654.723 533.881 654.658 534.209 654.621 534.438 654.585 534.667 654.554 534.915 654.528 535.18 654.502 535.446 654.489 535.683 654.489 535.891 654.489 536.214 654.541 536.467 654.645 536.649 654.749 536.831 654.905 536.964 655.114 537.047 655.322 537.131 655.681 537.193 656.192 537.235L656.02 538.001 649.598 538.001 649.77 537.235C650.166 537.172 650.462 537.071 650.66 536.93 650.858 536.79 651.025 536.594 651.16 536.344 651.296 536.094 651.421 535.79 651.535 535.43 651.65 535.071 651.822 534.376 652.051 533.344L654.707 521.313C654.936 520.271 655.051 519.448 655.051 518.844 655.051 518.334 654.931 517.98 654.692 517.782 654.452 517.584 654.061 517.469 653.52 517.438ZM729.754 515.657 730.676 515.657 726.832 532.954C726.603 533.985 726.489 534.756 726.489 535.266 726.489 535.683 726.556 535.985 726.692 536.172 726.827 536.36 727.041 536.454 727.332 536.454 727.645 536.454 727.978 536.326 728.332 536.071 728.686 535.816 729.186 535.329 729.832 534.61L730.723 535.485C729.712 536.547 728.887 537.274 728.246 537.665 727.606 538.055 726.89 538.251 726.098 538.251 725.421 538.251 724.879 538.003 724.473 537.508 724.067 537.014 723.864 536.381 723.864 535.61 723.864 534.912 724.009 533.902 724.301 532.579L727.098 520.063C727.223 519.511 727.311 519.071 727.364 518.743 727.416 518.415 727.442 518.11 727.442 517.829 727.442 517.516 727.384 517.279 727.27 517.118 727.155 516.956 726.991 516.839 726.778 516.766 726.564 516.693 726.181 516.641 725.629 516.61L725.817 515.797Z" fill="#4B5E68" fill-rule="evenodd"/><text fill="#000000" fill-opacity="0" font-family="Arial,Arial_MSFontService,sans-serif" font-size="29.0625" x="649.598" y="541.086">𝑃𝑜𝑝𝑢𝑙𝑎𝑡𝑖𝑜𝑛</text><path d="M814.545 533.068C815.271 533.068 815.939 533.113 816.549 533.202 817.16 533.292 817.753 533.423 818.329 533.595L817.79 536.134 816.791 536.134C816.709 535.46 816.486 534.962 816.123 534.64 815.76 534.318 815.196 534.157 814.432 534.157 814.126 534.157 813.841 534.198 813.579 534.281 813.317 534.363 813.092 534.477 812.905 534.623 812.718 534.769 812.572 534.943 812.467 535.145 812.362 535.347 812.31 535.568 812.31 535.808 812.31 536.025 812.336 536.223 812.389 536.403 812.441 536.583 812.544 536.759 812.697 536.931 812.851 537.103 813.068 537.283 813.349 537.47 813.63 537.657 813.998 537.871 814.455 538.11 814.934 538.372 815.333 538.623 815.651 538.863 815.969 539.102 816.222 539.345 816.409 539.593 816.596 539.84 816.727 540.104 816.802 540.384 816.877 540.665 816.914 540.978 816.914 541.322 816.914 541.854 816.806 542.331 816.589 542.754 816.372 543.177 816.068 543.534 815.679 543.826 815.29 544.118 814.831 544.343 814.303 544.5 813.776 544.657 813.197 544.736 812.568 544.736 811.879 544.736 811.202 544.691 810.536 544.601 809.869 544.511 809.165 544.358 808.424 544.141L809.008 541.58 809.985 541.58C810.023 542.277 810.242 542.799 810.642 543.147 811.043 543.495 811.662 543.669 812.501 543.669 813.25 543.669 813.839 543.508 814.27 543.186 814.7 542.864 814.915 542.415 814.915 541.839 814.915 541.577 814.889 541.35 814.837 541.159 814.784 540.968 814.681 540.787 814.528 540.615 814.374 540.442 814.165 540.264 813.899 540.081 813.633 539.898 813.287 539.686 812.86 539.447 812.419 539.199 812.039 538.956 811.72 538.717 811.402 538.477 811.14 538.234 810.934 537.987 810.728 537.74 810.577 537.481 810.479 537.212 810.382 536.942 810.333 536.654 810.333 536.347 810.333 535.875 810.433 535.439 810.631 535.039 810.829 534.638 811.112 534.292 811.479 534 811.846 533.708 812.287 533.479 812.804 533.315 813.321 533.15 813.901 533.068 814.545 533.068Z" fill="#4B5E68" fill-rule="evenodd"/><text fill="#000000" fill-opacity="0" font-family="Arial,Arial_MSFontService,sans-serif" font-size="11.6685" x="808.424" y="543.278">𝑠</text><path d="M639.221 506.594 829.221 506.594 829.221 508.594 639.221 508.594Z" fill="#4B5E68" fill-rule="evenodd"/><path d="M862.573 498.891 869.652 505.953 876.73 498.891 878.198 500.344 871.198 507.469 878.214 514.563 876.652 516.125 869.652 508.985 862.433 516.063 860.98 514.594 868.12 507.469 861.011 500.453Z" fill="#4B5E68" fill-rule="evenodd"/><text fill="#000000" fill-opacity="0" font-family="Arial,Arial_MSFontService,sans-serif" font-size="17.2344" x="860.98" y="513.971">×</text><path d="M922.297 495.016C923.245 495.016 924.123 495.073 924.93 495.188 925.738 495.302 926.636 495.511 927.626 495.813L926.688 500.047 925.188 500.047C925.105 498.766 924.826 497.841 924.352 497.274 923.878 496.706 923.115 496.422 922.063 496.422 920.626 496.422 919.29 497.141 918.055 498.578 916.821 500.016 915.844 501.914 915.126 504.274 914.407 506.633 914.047 508.823 914.047 510.844 914.047 512.427 914.329 513.594 914.891 514.344 915.454 515.094 916.318 515.469 917.485 515.469 918.266 515.469 918.949 515.352 919.532 515.117 920.115 514.883 920.662 514.487 921.172 513.93 921.683 513.373 922.188 512.594 922.688 511.594L924.188 511.594 923.235 516.031C921.287 516.573 919.245 516.844 917.11 516.844 915.152 516.844 913.662 516.281 912.641 515.156 911.62 514.031 911.11 512.386 911.11 510.219 911.11 508.688 911.383 506.922 911.93 504.922 912.477 502.922 913.251 501.167 914.251 499.656 915.251 498.146 916.433 496.995 917.797 496.203 919.162 495.412 920.662 495.016 922.297 495.016Z" fill="#4B5E68" fill-rule="evenodd"/><text fill="#000000" fill-opacity="0" font-family="Arial,Arial_MSFontService,sans-serif" font-size="21.8281" x="911.11" y="514.115">𝐶</text><path d="M957.316 492.636C960.358 493.438 962.694 495.17 964.324 497.831 965.954 500.493 966.769 503.703 966.769 507.464 966.769 511.235 965.957 514.446 964.332 517.097 962.707 519.748 960.368 521.474 957.316 522.276L956.941 521.073C959.347 520.271 961.137 518.688 962.308 516.323 963.48 513.959 964.066 510.953 964.066 507.308 964.066 503.787 963.483 500.862 962.316 498.534 961.15 496.206 959.342 494.641 956.894 493.839ZM941.84 492.636 942.261 493.839C939.824 494.641 938.019 496.206 936.847 498.534 935.675 500.862 935.09 503.787 935.09 507.308 935.09 510.953 935.675 513.959 936.847 516.323 938.019 518.688 939.808 520.271 942.215 521.073L941.84 522.276C938.787 521.474 936.449 519.748 934.824 517.097 933.199 514.446 932.386 511.235 932.386 507.464 932.386 503.703 933.202 500.493 934.832 497.831 936.462 495.17 938.798 493.438 941.84 492.636Z" fill="#4B5E68" fill-rule="evenodd"/><path d="M948.963 497.797 951.12 497.797 950.26 501.656 955.01 501.656 954.666 503.235 949.916 503.235 948.526 509.297C948.255 510.474 948.083 511.32 948.01 511.836 947.937 512.352 947.901 512.766 947.901 513.078 947.901 514.37 948.437 515.016 949.51 515.016 949.969 515.016 950.456 514.841 950.971 514.492 951.487 514.143 952.099 513.547 952.807 512.703L953.713 513.641C952.807 514.735 951.935 515.542 951.096 516.063 950.258 516.583 949.38 516.844 948.463 516.844 946.286 516.844 945.198 515.745 945.198 513.547 945.198 512.849 945.286 512.115 945.463 511.344L947.307 503.235 944.682 503.235 944.916 502.156C945.531 502.146 945.997 502.099 946.315 502.016 946.633 501.932 946.898 501.818 947.112 501.672 947.325 501.526 947.521 501.318 947.698 501.047 947.875 500.776 948.047 500.43 948.213 500.008 948.38 499.586 948.63 498.849 948.963 497.797Z" fill="#4B5E68" fill-rule="evenodd"/><text fill="#000000" fill-opacity="0" font-family="Arial,Arial_MSFontService,sans-serif" font-size="19.0469" x="944.682" y="514.463">𝑡</text><path d="M993.441 510.83C992.79 511.893 992.144 512.958 991.504 514.025 990.864 515.092 990.218 516.161 989.566 517.231L993.89 517.231C993.853 516.752 993.815 516.282 993.778 515.822 993.74 515.361 993.71 514.877 993.688 514.367 993.666 513.858 993.645 513.316 993.626 512.739 993.607 512.163 993.598 511.526 993.598 510.83ZM993.396 508.37 995.249 508.37 996.271 520.241C996.301 520.623 996.348 520.945 996.411 521.207 996.475 521.469 996.563 521.686 996.675 521.858 996.788 522.03 996.928 522.161 997.096 522.251 997.265 522.341 997.476 522.405 997.731 522.442L997.562 523.127 992.666 523.127 992.834 522.442C993.044 522.405 993.229 522.358 993.39 522.302 993.551 522.246 993.684 522.152 993.789 522.021 993.894 521.89 993.974 521.712 994.031 521.488 994.087 521.263 994.115 520.971 994.115 520.612 994.115 520.477 994.111 520.322 994.104 520.146 994.096 519.97 994.087 519.784 994.075 519.59 994.064 519.395 994.049 519.195 994.031 518.989 994.012 518.783 993.995 518.583 993.98 518.388L988.949 518.388C988.777 518.643 988.606 518.905 988.438 519.174 988.269 519.444 988.116 519.708 987.977 519.966 987.839 520.224 987.728 520.481 987.646 520.735 987.564 520.99 987.522 521.241 987.522 521.488 987.522 522.034 987.923 522.352 988.724 522.442L988.578 523.127 983.67 523.127 983.794 522.442C983.996 522.405 984.178 522.347 984.339 522.268 984.5 522.19 984.668 522.066 984.844 521.898 985.02 521.729 985.211 521.501 985.417 521.212 985.623 520.924 985.872 520.544 986.164 520.073ZM979.183 508.348C979.52 508.348 979.845 508.357 980.16 508.376 980.474 508.395 980.796 508.428 981.125 508.477 981.455 508.526 981.79 508.591 982.131 508.674 982.471 508.756 982.836 508.861 983.226 508.988L982.552 511.998 981.373 511.998C981.335 511.564 981.268 511.189 981.17 510.875 981.073 510.56 980.935 510.302 980.755 510.1 980.575 509.898 980.345 509.75 980.064 509.656 979.783 509.563 979.441 509.516 979.037 509.516 978.49 509.516 977.97 509.651 977.476 509.92 976.981 510.19 976.529 510.557 976.117 511.021 975.705 511.485 975.336 512.03 975.01 512.655 974.685 513.28 974.406 513.943 974.174 514.643 973.942 515.343 973.766 516.063 973.646 516.805 973.526 517.546 973.466 518.268 973.466 518.972 973.466 520.103 973.678 520.922 974.101 521.431 974.524 521.941 975.173 522.195 976.049 522.195 976.491 522.195 976.893 522.146 977.257 522.049 977.62 521.952 977.957 521.798 978.267 521.589 978.578 521.379 978.863 521.108 979.121 520.774 979.379 520.441 979.621 520.043 979.845 519.578L981.081 519.578 980.362 522.712C979.958 522.832 979.568 522.933 979.194 523.015 978.82 523.097 978.453 523.165 978.093 523.217 977.734 523.27 977.378 523.309 977.026 523.335 976.674 523.361 976.319 523.374 975.959 523.374 975.181 523.374 974.49 523.262 973.887 523.037 973.285 522.813 972.781 522.493 972.377 522.077 971.973 521.662 971.666 521.153 971.456 520.55 971.246 519.947 971.142 519.271 971.142 518.523 971.142 517.542 971.241 516.608 971.439 515.721 971.638 514.834 971.915 514.014 972.27 513.261 972.626 512.509 973.053 511.829 973.551 511.223 974.048 510.617 974.595 510.1 975.19 509.673 975.785 509.246 976.42 508.919 977.094 508.69 977.768 508.462 978.464 508.348 979.183 508.348Z" fill="#4B5E68" fill-rule="evenodd"/><text fill="#000000" fill-opacity="0" font-family="Arial,Arial_MSFontService,sans-serif" font-size="15.0264" x="971.142" y="521.496">𝐶𝐴</text><text fill="#4B5E68" font-family="Arial,Arial_MSFontService,sans-serif" font-weight="400" font-size="24" transform="translate(69.186 154)">T</text><text fill="#4B5E68" font-family="Arial,Arial_MSFontService,sans-serif" font-weight="400" font-size="24" transform="translate(83.8527 154)">he</text><text fill="#4B5E68" font-family="Arial,Arial_MSFontService,sans-serif" font-weight="400" font-size="24" transform="translate(117.186 154)">shedding kinetics (i.e., shedding onset time distribution and shedding load distribution) estimated with</text><text fill="#4B5E68" font-family="Arial,Arial_MSFontService,sans-serif" font-weight="400" font-size="24" transform="translate(69.186 183)">California</text><text fill="#4B5E68" font-family="Arial,Arial_MSFontService,sans-serif" font-weight="400" font-size="24" transform="translate(177.186 183)">data was used</text><text fill="#4B5E68" font-family="Arial,Arial_MSFontService,sans-serif" font-weight="400" font-size="24" transform="translate(338.519 183)">to compute epidemic risk for Georgia, Michigan, and Texas, because of the absence</text><text fill="#4B5E68" font-family="Arial,Arial_MSFontService,sans-serif" font-weight="400" font-size="24" transform="translate(69.186 212)">of clinical surveillance data in the corresponding catchment areas of wastewater surveillance.</text><text fill="#4B5E68" font-family="Arial,Arial_MSFontService,sans-serif" font-weight="400" font-size="24" transform="translate(64.7722 285)">Notably, the shedding load distribution estimated with California data contain factors related to two local</text><text fill="#4B5E68" font-family="Arial,Arial_MSFontService,sans-serif" font-weight="400" font-size="24" transform="translate(64.7722 314)">characteristics, namely fecal load and population size in the state.</text><text fill="#4B5E68" font-family="Arial,Arial_MSFontService,sans-serif" font-weight="400" font-size="24" transform="translate(64.7722 388)">Therefore, it is required to adjust these factors when applying it to other regions in estimating</text><text fill="#4B5E68" font-family="Arial,Arial_MSFontService,sans-serif" font-style="italic" font-weight="400" font-size="24" transform="translate(1054.11 388)">R</text><text fill="#4B5E68" font-family="Arial,Arial_MSFontService,sans-serif" font-weight="400" font-size="16" transform="translate(1071.44 381)">eff</text><text fill="#4B5E68" font-family="Arial,Arial_MSFontService,sans-serif" font-weight="400" font-size="24" transform="translate(1088.99 388)">(t),</text><text fill="#4B5E68" font-family="Arial,Arial_MSFontService,sans-serif" font-style="italic" font-weight="400" font-size="24" transform="translate(1124.99 388)">I</text><text fill="#4B5E68" font-family="Arial,Arial_MSFontService,sans-serif" font-weight="400" font-size="16" transform="translate(1131.65 393)">new</text><text fill="#4B5E68" font-family="Arial,Arial_MSFontService,sans-serif" font-weight="400" font-size="24" transform="translate(1160.82 388)">(t),</text><text fill="#4B5E68" font-family="Arial,Arial_MSFontService,sans-serif" font-weight="400" font-size="24" transform="translate(64.7722 417)">and epidemic risk. To adjust these factors, we used the following equation</text><text fill="#4B5E68" font-family="Arial,Arial_MSFontService,sans-serif" font-weight="400" font-size="24" transform="translate(897.517 605)">Shedding load estimated</text><text fill="#4B5E68" font-family="Arial,Arial_MSFontService,sans-serif" font-weight="400" font-size="24" transform="translate(962.177 634)">with CA data</text><path d="M919.5 563.5 1001.16 563.5" stroke="#4B5E68" stroke-width="3" stroke-miterlimit="8" fill="none" fill-rule="evenodd"/><path d="M700.5 562.5 782.155 562.5" stroke="#4B5E68" stroke-width="3" stroke-miterlimit="8" fill="none" fill-rule="evenodd"/><path d="M451.5 564.5 533.155 564.5" stroke="#4B5E68" stroke-width="3" stroke-miterlimit="8" fill="none" fill-rule="evenodd"/><text fill="#4B5E68" font-family="Arial,Arial_MSFontService,sans-serif" font-weight="400" font-size="24" transform="translate(662.391 605)">Population size</text><text fill="#4B5E68" font-family="Arial,Arial_MSFontService,sans-serif" font-weight="400" font-size="24" transform="translate(668.391 634)">in each region</text><text fill="#4B5E68" font-family="Arial,Arial_MSFontService,sans-serif" font-weight="400" font-size="24" transform="translate(286.63 605)">Average</text><text fill="#4B5E68" font-family="Arial,Arial_MSFontService,sans-serif" font-weight="400" font-size="24" transform="translate(382.197 605)">PMMoV</text><text fill="#4B5E68" font-family="Arial,Arial_MSFontService,sans-serif" font-weight="400" font-size="24" transform="translate(474.197 605)">concentration</text><text fill="#4B5E68" font-family="Arial,Arial_MSFontService,sans-serif" font-weight="400" font-size="24" transform="translate(377.084 634)">in each region</text></g></svg>