<svg width="1282" height="723" xmlns="http://www.w3.org/2000/svg" xmlns:xlink="http://www.w3.org/1999/xlink" overflow="hidden"><defs><clipPath id="clip0"><rect x="-1" y="-2" width="1282" height="723"/></clipPath></defs><g clip-path="url(#clip0)" transform="translate(1 2)"><rect x="0" y="0" width="1280" height="720" fill="#FFFFFF"/><rect x="484" y="415" width="752" height="296" fill="#E0EBF6"/><rect x="484" y="139" width="752" height="280" fill="#FBF4D8"/><rect x="56" y="136" width="428" height="575" fill="#F2F2F2"/><rect x="0.500053" y="0.500053" width="321" height="37" stroke="#7F7F7F" stroke-width="1.33333" stroke-miterlimit="8" fill="#D9D9D9"/><text fill="#A6A6A6" font-family="Arial,Arial_MSFontService,sans-serif" font-weight="700" font-size="21" transform="translate(98.3799 27)">Introduction</text><rect x="320.5" y="0.500053" width="321" height="37" stroke="#7F7F7F" stroke-width="1.33333" stroke-miterlimit="8" fill="#4B5E68"/><text fill="#FFFFFF" font-family="Arial,Arial_MSFontService,sans-serif" font-weight="700" font-size="21" transform="translate(376.718 27)">Materials &amp; Methods</text><rect x="639.5" y="0.500053" width="321" height="37" stroke="#7F7F7F" stroke-width="1.33333" stroke-miterlimit="8" fill="#D9D9D9"/><text fill="#A6A6A6" font-family="Arial,Arial_MSFontService,sans-serif" font-weight="700" font-size="21" transform="translate(690.449 27)">Results &amp; Discussion</text><rect x="959.5" y="0.500053" width="321" height="37" stroke="#7F7F7F" stroke-width="1.33333" stroke-miterlimit="8" fill="#D9D9D9"/><text fill="#A6A6A6" font-family="Arial,Arial_MSFontService,sans-serif" font-weight="700" font-size="21" transform="translate(1061.32 27)">Conclusion</text><text fill="#4B5E68" font-family="Arial,Arial_MSFontService,sans-serif" font-weight="700" font-size="37" transform="translate(275.538 79)">Development of a state</text><text fill="#4B5E68" font-family="Arial,Arial_MSFontService,sans-serif" font-weight="700" font-size="37" transform="translate(685.038 79)">-</text><text fill="#4B5E68" font-family="Arial,Arial_MSFontService,sans-serif" font-weight="700" font-size="37" transform="translate(697.538 79)">space model</text><text fill="#4B5E68" font-family="Arial,Arial_MSFontService,sans-serif" font-weight="400" font-size="24" transform="translate(206.809 114)">The model is used to jointly estimates shedding dynamics, R</text><text fill="#4B5E68" font-family="Arial,Arial_MSFontService,sans-serif" font-weight="400" font-size="16" transform="translate(849.476 107)">eff</text><text fill="#4B5E68" font-family="Arial,Arial_MSFontService,sans-serif" font-weight="400" font-size="24" transform="translate(867.023 114)">(t), and I</text><text fill="#4B5E68" font-family="Arial,Arial_MSFontService,sans-serif" font-weight="400" font-size="16" transform="translate(956.356 119)">new</text><text fill="#4B5E68" font-family="Arial,Arial_MSFontService,sans-serif" font-weight="400" font-size="24" transform="translate(985.523 114)">(t).</text><path d="M68.5001 641C68.5001 618.08 87.0802 599.5 110 599.5 132.92 599.5 151.5 618.08 151.5 641 151.5 663.92 132.92 682.5 110 682.5 87.0802 682.5 68.5001 663.92 68.5001 641Z" stroke="#000000" stroke-width="1.33333" stroke-miterlimit="8" stroke-dasharray="5.33333 4" fill="#D9D9D9" fill-rule="evenodd"/><text font-family="Arial,Arial_MSFontService,sans-serif" font-weight="400" font-size="19" transform="translate(79.1653 647)">R</text><text font-family="Arial,Arial_MSFontService,sans-serif" font-weight="400" font-size="12" transform="translate(92.6653 641)">eff</text><text font-family="Arial,Arial_MSFontService,sans-serif" font-weight="400" font-size="19" transform="translate(106.439 647)">(t+1)</text><path d="M73.5001 274.5C73.5001 251.304 92.0802 232.5 115 232.5 137.92 232.5 156.5 251.304 156.5 274.5 156.5 297.696 137.92 316.5 115 316.5 92.0802 316.5 73.5001 297.696 73.5001 274.5Z" stroke="#000000" stroke-width="1.33333" stroke-miterlimit="8" stroke-dasharray="5.33333 4" fill="#D9D9D9" fill-rule="evenodd"/><text font-family="Arial,Arial_MSFontService,sans-serif" font-weight="400" font-size="19" transform="translate(86.5824 277)">R</text><text font-family="Arial,Arial_MSFontService,sans-serif" font-weight="400" font-size="12" transform="translate(100.082 271)">eff</text><text font-family="Arial,Arial_MSFontService,sans-serif" font-weight="400" font-size="19" transform="translate(113.856 277)">(t</text><text font-family="Arial,Arial_MSFontService,sans-serif" font-weight="400" font-size="19" transform="translate(125.189 277)">-</text><text font-family="Arial,Arial_MSFontService,sans-serif" font-weight="400" font-size="19" transform="translate(131.356 277)">1)</text><path d="M211.5 212C211.5 189.08 230.08 170.5 253 170.5 275.92 170.5 294.5 189.08 294.5 212 294.5 234.92 275.92 253.5 253 253.5 230.08 253.5 211.5 234.92 211.5 212Z" stroke="#000000" stroke-width="1.33333" stroke-miterlimit="8" stroke-dasharray="5.33333 4" fill="#D9D9D9" fill-rule="evenodd"/><text font-family="Arial,Arial_MSFontService,sans-serif" font-weight="400" font-size="19" transform="translate(216.299 218)">CAR(t</text><text font-family="Arial,Arial_MSFontService,sans-serif" font-weight="400" font-size="19" transform="translate(267.133 218)">-</text><text font-family="Arial,Arial_MSFontService,sans-serif" font-weight="400" font-size="19" transform="translate(273.299 218)">1)</text><path d="M0.016999-1.99993 16.0164-1.86394 15.9824 2.13592-0.016999 1.99993ZM28.016-1.76194 44.0154-1.62595 43.9814 2.37391 27.982 2.23791ZM56.015-1.52396 72.0144-1.38796 71.9804 2.61189 55.981 2.4759ZM84.014-1.28597 100.013-1.14998 99.9794 2.84988 83.98 2.71389ZM112.013-1.04798 128.012-0.911992 127.978 3.08786 111.979 2.95187ZM140.012-0.809998 156.011-0.674006 155.977 3.32585 139.978 3.18986ZM168.011-0.572012 174.836-0.514003 174.802 3.48585 167.977 3.42784ZM172.87-4.53086 184.818 1.57092 172.768 7.46871Z" fill="#7F7F7F" transform="matrix(1 0 0 -1 175 276.571)"/><path d="M209.5 364C209.5 341.08 228.08 322.5 251 322.5 273.92 322.5 292.5 341.08 292.5 364 292.5 386.92 273.92 405.5 251 405.5 228.08 405.5 209.5 386.92 209.5 364Z" stroke="#953735" stroke-width="1.33333" stroke-miterlimit="8" fill="#F2DCDB" fill-rule="evenodd"/><text font-family="Arial,Arial_MSFontService,sans-serif" font-weight="400" font-size="19" transform="translate(223.209 369)">CAR(t)</text><path d="M208.5 571C208.5 548.08 227.08 529.5 250 529.5 272.92 529.5 291.5 548.08 291.5 571 291.5 593.92 272.92 612.5 250 612.5 227.08 612.5 208.5 593.92 208.5 571Z" stroke="#000000" stroke-width="1.33333" stroke-miterlimit="8" stroke-dasharray="5.33333 4" fill="#D9D9D9" fill-rule="evenodd"/><text font-family="Arial,Arial_MSFontService,sans-serif" font-weight="400" font-size="19" transform="translate(214.955 576)">CAR(t+1)</text><path d="M379.5 646C379.5 623.08 398.08 604.5 421 604.5 443.92 604.5 462.5 623.08 462.5 646 462.5 668.92 443.92 687.5 421 687.5 398.08 687.5 379.5 668.92 379.5 646Z" stroke="#984807" stroke-width="1.33333" stroke-miterlimit="8" stroke-dasharray="5.33333 4" fill="#D9D9D9" fill-rule="evenodd"/><text font-family="Arial,Arial_MSFontService,sans-serif" font-weight="400" font-size="19" transform="translate(387.604 650)">I</text><text font-family="Arial,Arial_MSFontService,sans-serif" font-weight="400" font-size="12" transform="translate(392.771 654)">new</text><text font-family="Arial,Arial_MSFontService,sans-serif" font-weight="400" font-size="19" transform="translate(415.771 650)">(t+1)</text><path d="M591.5 370C591.5 347.08 610.08 328.5 633 328.5 655.92 328.5 674.5 347.08 674.5 370 674.5 392.92 655.92 411.5 633 411.5 610.08 411.5 591.5 392.92 591.5 370Z" stroke="#000000" stroke-width="1.33333" stroke-miterlimit="8" fill="#F7E9B1" fill-rule="evenodd"/><path d="M591.5 504.5C591.5 481.304 610.08 462.5 633 462.5 655.92 462.5 674.5 481.304 674.5 504.5 674.5 527.696 655.92 546.5 633 546.5 610.08 546.5 591.5 527.696 591.5 504.5Z" stroke="#000000" stroke-width="1.33333" stroke-miterlimit="8" fill="#E0EBF6" fill-rule="evenodd"/><path d="M483.658 442.111 568.941 471.844 567.624 475.621 482.342 445.889ZM568.369 467.409 577.725 477.025 564.419 478.74Z" fill="#3477B2"/><text font-family="Arial,Arial_MSFontService,sans-serif" font-weight="400" font-size="19" transform="translate(607.876 507)">I</text><text font-family="Arial,Arial_MSFontService,sans-serif" font-weight="400" font-size="12" transform="translate(613.043 511)">shed</text><text font-family="Arial,Arial_MSFontService,sans-serif" font-weight="400" font-size="19" transform="translate(640.209 507)">(t)</text><path d="M700 499 776.929 499 776.929 503 700 503ZM774.929 495 786.929 501 774.929 507Z" fill="#3261AB"/><path d="M1045.5 495C1045.5 472.08 1064.3 453.5 1087.5 453.5 1110.7 453.5 1129.5 472.08 1129.5 495 1129.5 517.92 1110.7 536.5 1087.5 536.5 1064.3 536.5 1045.5 517.92 1045.5 495Z" stroke="#000000" stroke-width="1.33333" stroke-miterlimit="8" fill="#E0EBF6" fill-rule="evenodd"/><text font-family="Arial,Arial_MSFontService,sans-serif" font-weight="400" font-size="19" transform="translate(1071.94 501)">P(t)</text><text font-family="Arial,Arial_MSFontService,sans-serif" font-weight="400" font-size="19" transform="translate(617.553 375)">I</text><text font-family="Arial,Arial_MSFontService,sans-serif" font-weight="400" font-size="12" transform="translate(622.72 379)">s</text><text font-family="Arial,Arial_MSFontService,sans-serif" font-weight="400" font-size="19" transform="translate(628.886 375)">(t)</text><path d="M1045.5 327C1045.5 304.08 1064.3 285.5 1087.5 285.5 1110.7 285.5 1129.5 304.08 1129.5 327 1129.5 349.92 1110.7 368.5 1087.5 368.5 1064.3 368.5 1045.5 349.92 1045.5 327Z" stroke="#000000" stroke-width="1.33333" stroke-miterlimit="8" fill="#F7E9B1" fill-rule="evenodd"/><path d="M0.612637-1.90386 85.0594 25.27 83.8341 29.0777-0.612637 1.90386ZM84.3809 20.8497 93.9661 30.2371 80.705 32.2728Z" fill="#C8A314" transform="matrix(1 0 0 -1 487 396.237)"/><text font-family="Arial,Arial_MSFontService,sans-serif" font-weight="400" font-size="19" transform="translate(1071.9 330)">I</text><text font-family="Arial,Arial_MSFontService,sans-serif" font-weight="400" font-size="12" transform="translate(1077.07 334)">h</text><text font-family="Arial,Arial_MSFontService,sans-serif" font-weight="400" font-size="19" transform="translate(1084.07 330)">(t)</text><path d="M814.5 630C814.5 607.08 833.08 588.5 856 588.5 878.92 588.5 897.5 607.08 897.5 630 897.5 652.92 878.92 671.5 856 671.5 833.08 671.5 814.5 652.92 814.5 630Z" stroke="#000000" stroke-width="1.33333" stroke-miterlimit="8" fill="#264980" fill-rule="evenodd"/><text fill="#FFFFFF" font-family="Arial,Arial_MSFontService,sans-serif" font-weight="400" font-size="19" transform="translate(833.946 636)">W</text><text fill="#FFFFFF" font-family="Arial,Arial_MSFontService,sans-serif" font-weight="400" font-size="12" transform="translate(851.613 640)">m</text><text fill="#FFFFFF" font-family="Arial,Arial_MSFontService,sans-serif" font-weight="400" font-size="19" transform="translate(861.946 636)">(t)</text><path d="M1045.5 630C1045.5 607.08 1064.3 588.5 1087.5 588.5 1110.7 588.5 1129.5 607.08 1129.5 630 1129.5 652.92 1110.7 671.5 1087.5 671.5 1064.3 671.5 1045.5 652.92 1045.5 630Z" stroke="#000000" stroke-width="1.33333" stroke-miterlimit="8" fill="#264980" fill-rule="evenodd"/><text fill="#FFFFFF" font-family="Arial,Arial_MSFontService,sans-serif" font-weight="400" font-size="19" transform="translate(1066.37 636)">N</text><text fill="#FFFFFF" font-family="Arial,Arial_MSFontService,sans-serif" font-weight="400" font-size="12" transform="translate(1079.87 640)">m</text><text fill="#FFFFFF" font-family="Arial,Arial_MSFontService,sans-serif" font-weight="400" font-size="19" transform="translate(1090.2 636)">(t)</text><path d="M379.5 270C379.5 247.08 398.08 228.5 421 228.5 443.92 228.5 462.5 247.08 462.5 270 462.5 292.92 443.92 311.5 421 311.5 398.08 311.5 379.5 292.92 379.5 270Z" stroke="#984807" stroke-width="1.33333" stroke-miterlimit="8" stroke-dasharray="5.33333 4" fill="#D9D9D9" fill-rule="evenodd"/><text font-family="Arial,Arial_MSFontService,sans-serif" font-weight="400" font-size="19" transform="translate(389.937 281)">I</text><text font-family="Arial,Arial_MSFontService,sans-serif" font-weight="400" font-size="12" transform="translate(395.104 285)">new</text><text font-family="Arial,Arial_MSFontService,sans-serif" font-weight="400" font-size="19" transform="translate(418.104 281)">(t</text><text font-family="Arial,Arial_MSFontService,sans-serif" font-weight="400" font-size="19" transform="translate(429.437 281)">-</text><text font-family="Arial,Arial_MSFontService,sans-serif" font-weight="400" font-size="19" transform="translate(435.604 281)">1)</text><text fill="#264980" font-family="Arial,Arial_MSFontService,sans-serif" font-weight="700" font-size="24" transform="translate(504.07 697)">Wastewater data</text><text fill="#856D0E" font-family="Arial,Arial_MSFontService,sans-serif" font-weight="700" font-size="24" transform="translate(499.097 163)">Clinical data</text><path d="M1088 543 1088 574.575 1084 574.575 1084 543ZM1092 572.575 1086 584.575 1080 572.575Z" fill="#264980"/><path d="M1045.5 200C1045.5 177.08 1064.3 158.5 1087.5 158.5 1110.7 158.5 1129.5 177.08 1129.5 200 1129.5 222.92 1110.7 241.5 1087.5 241.5 1064.3 241.5 1045.5 222.92 1045.5 200Z" stroke="#000000" stroke-width="1.33333" stroke-miterlimit="8" fill="#856D0E" fill-rule="evenodd"/><text fill="#FFFFFF" font-family="Arial,Arial_MSFontService,sans-serif" font-weight="400" font-size="19" transform="translate(1066.17 205)">I</text><text fill="#FFFFFF" font-family="Arial,Arial_MSFontService,sans-serif" font-weight="400" font-size="12" transform="translate(1071.34 209)">h,m</text><text fill="#FFFFFF" font-family="Arial,Arial_MSFontService,sans-serif" font-weight="400" font-size="19" transform="translate(1092.17 205)">(t)</text><path d="M815.5 322.5C815.5 299.304 834.08 280.5 857 280.5 879.92 280.5 898.5 299.304 898.5 322.5 898.5 345.696 879.92 364.5 857 364.5 834.08 364.5 815.5 345.696 815.5 322.5Z" stroke="#000000" stroke-width="1.33333" stroke-miterlimit="8" fill="#F7E9B1" fill-rule="evenodd"/><text font-family="Arial,Arial_MSFontService,sans-serif" font-weight="400" font-size="19" transform="translate(845.516 329)">I</text><text font-family="Arial,Arial_MSFontService,sans-serif" font-weight="400" font-size="12" transform="translate(850.682 333)">c</text><text font-family="Arial,Arial_MSFontService,sans-serif" font-weight="400" font-size="19" transform="translate(856.849 329)">(t)</text><path d="M815.5 203C815.5 180.08 834.08 161.5 857 161.5 879.92 161.5 898.5 180.08 898.5 203 898.5 225.92 879.92 244.5 857 244.5 834.08 244.5 815.5 225.92 815.5 203Z" stroke="#000000" stroke-width="1.33333" stroke-miterlimit="8" fill="#856D0E" fill-rule="evenodd"/><text fill="#FFFFFF" font-family="Arial,Arial_MSFontService,sans-serif" font-weight="400" font-size="19" transform="translate(836.252 203)">I</text><text fill="#FFFFFF" font-family="Arial,Arial_MSFontService,sans-serif" font-weight="400" font-size="12" transform="translate(841.418 207)">c,m</text><text fill="#FFFFFF" font-family="Arial,Arial_MSFontService,sans-serif" font-weight="400" font-size="19" transform="translate(861.418 203)">(t)</text><path d="M815.5 495C815.5 472.08 834.08 453.5 857 453.5 879.92 453.5 898.5 472.08 898.5 495 898.5 517.92 879.92 536.5 857 536.5 834.08 536.5 815.5 517.92 815.5 495Z" stroke="#000000" stroke-width="1.33333" stroke-miterlimit="8" fill="#E0EBF6" fill-rule="evenodd"/><text font-family="Arial,Arial_MSFontService,sans-serif" font-weight="400" font-size="19" transform="translate(838.774 501)">W(t)</text><path d="M860 543 860 574.575 856 574.575 856 543ZM864 572.575 858 584.575 852 572.575Z" fill="#264980"/><path d="M931 499 1007.93 499 1007.93 503 931 503ZM1005.93 495 1017.93 501 1005.93 507Z" fill="#3261AB"/><path d="M0.016999-1.99993 16.0164-1.86394 15.9824 2.13592-0.016999 1.99993ZM28.016-1.76194 44.0154-1.62595 43.9814 2.37391 27.982 2.23791ZM56.015-1.52396 72.0144-1.38796 71.9804 2.61189 55.981 2.4759ZM84.014-1.28597 100.013-1.14998 99.9794 2.84988 83.98 2.71389ZM112.013-1.04798 128.012-0.911992 127.978 3.08786 111.979 2.95187ZM140.012-0.809998 156.011-0.674006 155.977 3.32585 139.978 3.18986ZM168.011-0.572012 174.836-0.514003 174.802 3.48585 167.977 3.42784ZM172.87-4.53086 184.818 1.57092 172.768 7.46871Z" fill="#7F7F7F" transform="matrix(1 0 0 -1 161 652.571)"/><path d="M117 322 117 383.254 113 383.254 113 322ZM121 381.254 115 393.254 109 381.254Z" fill="#4B5E68"/><path d="M115 499 115 560.254 111 560.254 111 499ZM119 558.254 113 570.254 107 558.254Z" fill="#4B5E68"/><path d="M251 257 251 307.472 247 307.472 247 257ZM255 305.472 249 317.472 243 305.472Z" fill="#4B5E68"/><path d="M251 414 251 509.827 247 509.827 247 414ZM255 507.827 249 519.827 243 507.827Z" fill="#4B5E68"/><path d="M1.6835e-06-2 114.724-1.9999 114.724 2.0001-1.6835e-06 2ZM112.724-5.99991 124.724 0.000104987 112.724 6.00009Z" fill="#C8A314" transform="matrix(1 0 0 -1 684 342)"/><path d="M674 402 1085.97 402" stroke="#C8A314" stroke-width="4" stroke-miterlimit="8" fill="none" fill-rule="evenodd"/><path d="M1084 403.016 1084 379 1088 379 1088 403.016ZM1080 381 1086 369 1092 381Z" fill="#C8A314"/><path d="M6.17284e-06-2 24.0158-1.99993 24.0157 2.00007-6.17284e-06 2ZM22.0158-5.99993 34.0157 0.000104987 22.0157 6.00007Z" fill="#C8A314" transform="matrix(-1.83697e-16 -1 -1 1.83697e-16 858 281.016)"/><path d="M6.17284e-06-2 24.0158-1.99993 24.0157 2.00007-6.17284e-06 2ZM22.0158-5.99993 34.0157 0.000104987 22.0157 6.00007Z" fill="#C8A314" transform="matrix(-1.83697e-16 -1 -1 1.83697e-16 1088 281.016)"/><path d="M308.021 354.662C468.858 288.983 679.806 257.068 779.188 283.378 794.494 287.43 806.578 292.756 815.145 299.227" stroke="#C8A314" stroke-width="3" stroke-miterlimit="8" fill="none" fill-rule="evenodd"/><path d="M812.743 284.88 819.832 302.643 800.902 305.376Z" fill="#C8A314" fill-rule="evenodd"/><text fill="#264980" font-family="Arial,Arial_MSFontService,sans-serif" font-weight="700" font-size="16" transform="translate(552.786 438)">Individuals who start</text><text fill="#264980" font-family="Arial,Arial_MSFontService,sans-serif" font-weight="700" font-size="16" transform="translate(563.873 457)">shedding on day t</text><text fill="#264980" font-family="Arial,Arial_MSFontService,sans-serif" font-weight="700" font-size="16" transform="translate(755.141 444)">Wastewater concentration</text><text fill="#264980" font-family="Arial,Arial_MSFontService,sans-serif" font-weight="700" font-size="16" transform="translate(1023.69 442)">Detection probability</text><text fill="#264980" font-family="Arial,Arial_MSFontService,sans-serif" font-weight="700" font-size="16" transform="translate(1033.59 687)">The number of</text><text fill="#264980" font-family="Arial,Arial_MSFontService,sans-serif" font-weight="700" font-size="16" transform="translate(1024.84 706)">positive samples</text><text fill="#264980" font-family="Arial,Arial_MSFontService,sans-serif" font-weight="700" font-size="16" transform="translate(775.544 698)">Observed concentration</text><text fill="#856D0E" font-family="Arial,Arial_MSFontService,sans-serif" font-weight="700" font-size="16" transform="translate(1150.43 376)">New</text><text fill="#856D0E" font-family="Arial,Arial_MSFontService,sans-serif" font-weight="700" font-size="16" transform="translate(1106.26 395)">hospitalizations</text><text fill="#856D0E" font-family="Arial,Arial_MSFontService,sans-serif" font-weight="700" font-size="16" transform="translate(784.545 378)">Individuals who are</text><text fill="#856D0E" font-family="Arial,Arial_MSFontService,sans-serif" font-weight="700" font-size="16" transform="translate(790.298 397)">identified on day t</text><text fill="#856D0E" font-family="Arial,Arial_MSFontService,sans-serif" font-weight="700" font-size="16" transform="translate(544.671 303)">Individuals who develop</text><text fill="#856D0E" font-family="Arial,Arial_MSFontService,sans-serif" font-weight="700" font-size="16" transform="translate(562.258 322)">symptoms on day t</text><path d="M251 618 251 683.591 247 683.591 247 618ZM255 681.591 249 693.591 243 681.591Z" fill="#4B5E68"/><text fill="#4B5E68" font-family="Arial,Arial_MSFontService,sans-serif" font-weight="700" font-size="24" transform="translate(58.8821 161)">State formulas (Gaussian process)</text><text fill="#856D0E" font-family="Arial,Arial_MSFontService,sans-serif" font-weight="700" font-size="16" transform="translate(799.073 156)">Reported cases</text><text fill="#856D0E" font-family="Arial,Arial_MSFontService,sans-serif" font-weight="700" font-size="16" transform="translate(978.722 156)">Reported new hospitalizations</text><text fill="#4B5E68" font-family="Cambria Math,Cambria Math_MSFontService,sans-serif" font-weight="400" font-size="16" transform="translate(1042.03 568)">𝑁</text><text fill="#4B5E68" font-family="Cambria Math,Cambria Math_MSFontService,sans-serif" font-weight="400" font-size="12" transform="translate(1052.37 572)">𝑚</text><path d="M1078.11 556.444C1079.63 556.845 1080.8 557.711 1081.62 559.041 1082.43 560.372 1082.84 561.978 1082.84 563.858 1082.84 565.743 1082.43 567.349 1081.62 568.674 1080.81 570 1079.64 570.863 1078.11 571.264L1077.92 570.662C1079.13 570.261 1080.02 569.47 1080.61 568.287 1081.19 567.105 1081.49 565.603 1081.49 563.78 1081.49 562.019 1081.2 560.557 1080.61 559.393 1080.03 558.229 1079.13 557.446 1077.9 557.045ZM1070.37 556.444 1070.58 557.045C1069.36 557.446 1068.46 558.229 1067.87 559.393 1067.29 560.557 1067 562.019 1067 563.78 1067 565.603 1067.29 567.105 1067.87 568.287 1068.46 569.47 1069.36 570.261 1070.56 570.662L1070.37 571.264C1068.84 570.863 1067.68 570 1066.86 568.674 1066.05 567.349 1065.64 565.743 1065.64 563.858 1065.64 561.978 1066.05 560.372 1066.87 559.041 1067.68 557.711 1068.85 556.845 1070.37 556.444Z" fill="#4B5E68" fill-rule="evenodd"/><text fill="#4B5E68" font-family="Cambria Math,Cambria Math_MSFontService,sans-serif" font-weight="400" font-size="16" transform="translate(1070.88 568)">𝑡</text><text fill="#4B5E68" font-family="Cambria Math,Cambria Math_MSFontService,sans-serif" font-weight="400" font-size="16" transform="translate(1084.24 568)"></text><text fill="#4B5E68" font-family="Cambria Math,Cambria Math_MSFontService,sans-serif" font-weight="400" font-size="16" transform="translate(1087.74 568)"></text><text fill="#4B5E68" font-family="Cambria Math,Cambria Math_MSFontService,sans-serif" font-weight="400" font-size="16" transform="translate(1091.24 568)">~</text><text fill="#4B5E68" font-family="Cambria Math,Cambria Math_MSFontService,sans-serif" font-weight="400" font-size="16" transform="translate(1102.58 568)"></text><text fill="#4B5E68" font-family="Cambria Math,Cambria Math_MSFontService,sans-serif" font-weight="400" font-size="16" transform="translate(1106.08 568)">𝐵</text><text fill="#4B5E68" font-family="Cambria Math,Cambria Math_MSFontService,sans-serif" font-weight="400" font-size="16" transform="translate(1116.58 568)">𝑁</text><path d="M1204.99 554.192C1206.62 554.619 1207.87 555.726 1208.75 557.512 1209.63 559.299 1210.07 561.413 1210.07 563.856 1210.07 566.299 1209.63 568.413 1208.75 570.2 1207.87 571.986 1206.62 573.093 1204.99 573.52L1204.8 572.879C1206.06 572.405 1207.01 571.373 1207.66 569.782 1208.31 568.19 1208.64 566.218 1208.64 563.864 1208.64 561.504 1208.31 559.528 1207.66 557.934 1207.01 556.34 1206.06 555.306 1204.8 554.832ZM1135.12 554.192 1135.32 554.832C1134.06 555.306 1133.1 556.34 1132.45 557.934 1131.81 559.528 1131.48 561.504 1131.48 563.864 1131.48 566.218 1131.81 568.19 1132.45 569.782 1133.1 571.373 1134.06 572.405 1135.32 572.879L1135.12 573.52C1133.5 573.093 1132.24 571.986 1131.36 570.2 1130.48 568.413 1130.04 566.299 1130.04 563.856 1130.04 561.413 1130.48 559.299 1131.36 557.512 1132.24 555.726 1133.5 554.619 1135.12 554.192Z" fill="#4B5E68" fill-rule="evenodd"/><text fill="#4B5E68" font-family="Cambria Math,Cambria Math_MSFontService,sans-serif" font-weight="400" font-size="16" transform="translate(1135.82 568)">𝑁</text><path d="M1161.76 556.444C1163.28 556.845 1164.45 557.711 1165.26 559.041 1166.08 560.372 1166.49 561.978 1166.49 563.858 1166.49 565.743 1166.08 567.349 1165.27 568.674 1164.45 570 1163.29 570.863 1161.76 571.264L1161.57 570.662C1162.77 570.261 1163.67 569.47 1164.26 568.287 1164.84 567.105 1165.13 565.603 1165.13 563.78 1165.13 562.019 1164.84 560.557 1164.26 559.393 1163.68 558.229 1162.77 557.446 1161.55 557.045ZM1154.02 556.444 1154.23 557.045C1153.01 557.446 1152.11 558.229 1151.52 559.393 1150.94 560.557 1150.64 562.019 1150.64 563.78 1150.64 565.603 1150.94 567.105 1151.52 568.287 1152.11 569.47 1153 570.261 1154.2 570.662L1154.02 571.264C1152.49 570.863 1151.32 570 1150.51 568.674 1149.7 567.349 1149.29 565.743 1149.29 563.858 1149.29 561.978 1149.7 560.372 1150.51 559.041 1151.33 557.711 1152.5 556.845 1154.02 556.444Z" fill="#4B5E68" fill-rule="evenodd"/><text fill="#4B5E68" font-family="Cambria Math,Cambria Math_MSFontService,sans-serif" font-weight="400" font-size="16" transform="translate(1154.52 568)">𝑡</text><text fill="#4B5E68" font-family="Cambria Math,Cambria Math_MSFontService,sans-serif" font-weight="400" font-size="16" transform="translate(1167.89 568)">,</text><text fill="#4B5E68" font-family="Cambria Math,Cambria Math_MSFontService,sans-serif" font-weight="400" font-size="16" transform="translate(1173.89 568)">𝑃</text><path d="M1198.16 556.444C1199.68 556.845 1200.85 557.711 1201.66 559.041 1202.48 560.372 1202.89 561.978 1202.89 563.858 1202.89 565.743 1202.48 567.349 1201.67 568.674 1200.85 570 1199.69 570.863 1198.16 571.264L1197.97 570.662C1199.17 570.261 1200.07 569.47 1200.66 568.287 1201.24 567.105 1201.53 565.603 1201.53 563.78 1201.53 562.019 1201.24 560.557 1200.66 559.393 1200.08 558.229 1199.17 557.446 1197.95 557.045ZM1190.42 556.444 1190.63 557.045C1189.41 557.446 1188.51 558.229 1187.92 559.393 1187.34 560.557 1187.04 562.019 1187.04 563.78 1187.04 565.603 1187.34 567.105 1187.92 568.287 1188.51 569.47 1189.4 570.261 1190.6 570.662L1190.42 571.264C1188.89 570.863 1187.72 570 1186.91 568.674 1186.1 567.349 1185.69 565.743 1185.69 563.858 1185.69 561.978 1186.1 560.372 1186.91 559.041 1187.73 557.711 1188.9 556.845 1190.42 556.444Z" fill="#4B5E68" fill-rule="evenodd"/><text fill="#4B5E68" font-family="Cambria Math,Cambria Math_MSFontService,sans-serif" font-weight="400" font-size="16" transform="translate(1190.92 568)">𝑡</text><text fill="#4B5E68" font-family="Cambria Math,Cambria Math_MSFontService,sans-serif" font-weight="400" font-size="16" transform="translate(1211.48 568)"></text><text fill="#4B5E68" font-family="Cambria Math,Cambria Math_MSFontService,sans-serif" font-weight="400" font-size="16" transform="translate(775.734 570)">𝑙𝑜𝑔</text><text fill="#4B5E68" font-family="Cambria Math,Cambria Math_MSFontService,sans-serif" font-weight="400" font-size="12" transform="translate(798.147 574)">10</text><text fill="#4B5E68" font-family="Cambria Math,Cambria Math_MSFontService,sans-serif" font-weight="400" font-size="16" transform="translate(812.481 570)">𝑊</text><text fill="#4B5E68" font-family="Cambria Math,Cambria Math_MSFontService,sans-serif" font-weight="400" font-size="12" transform="translate(824.207 574)">𝑚</text><path d="M849.948 558.294C851.469 558.695 852.637 559.561 853.452 560.892 854.267 562.223 854.675 563.828 854.675 565.708 854.675 567.594 854.269 569.199 853.456 570.525 852.644 571.85 851.474 572.714 849.948 573.115L849.761 572.513C850.964 572.112 851.859 571.32 852.444 570.138 853.03 568.956 853.323 567.453 853.323 565.63 853.323 563.87 853.032 562.408 852.448 561.244 851.865 560.079 850.961 559.297 849.737 558.896ZM842.207 558.294 842.418 558.896C841.199 559.297 840.297 560.079 839.711 561.244 839.125 562.408 838.832 563.87 838.832 565.63 838.832 567.453 839.125 568.956 839.711 570.138 840.297 571.32 841.191 572.112 842.394 572.513L842.207 573.115C840.681 572.714 839.511 571.85 838.699 570.525 837.886 569.199 837.48 567.594 837.48 565.708 837.48 563.828 837.888 562.223 838.703 560.892 839.518 559.561 840.686 558.695 842.207 558.294Z" fill="#4B5E68" fill-rule="evenodd"/><text fill="#4B5E68" font-family="Cambria Math,Cambria Math_MSFontService,sans-serif" font-weight="400" font-size="16" transform="translate(842.714 570)">𝑡</text><text fill="#4B5E68" font-family="Cambria Math,Cambria Math_MSFontService,sans-serif" font-weight="400" font-size="16" transform="translate(856.081 570)"></text><text fill="#4B5E68" font-family="Cambria Math,Cambria Math_MSFontService,sans-serif" font-weight="400" font-size="16" transform="translate(859.581 570)"></text><text fill="#4B5E68" font-family="Cambria Math,Cambria Math_MSFontService,sans-serif" font-weight="400" font-size="16" transform="translate(863.081 570)">~</text><text fill="#4B5E68" font-family="Cambria Math,Cambria Math_MSFontService,sans-serif" font-weight="400" font-size="16" transform="translate(874.414 570)"></text><text fill="#4B5E68" font-family="Cambria Math,Cambria Math_MSFontService,sans-serif" font-weight="400" font-size="16" transform="translate(877.914 570)"></text><text fill="#4B5E68" font-family="Cambria Math,Cambria Math_MSFontService,sans-serif" font-weight="400" font-size="16" transform="translate(881.414 570)">𝑁</text><path d="M996.942 558.294C998.463 558.695 999.63 559.561 1000.45 560.892 1001.26 562.223 1001.67 563.828 1001.67 565.708 1001.67 567.594 1001.26 569.199 1000.45 570.525 999.637 571.85 998.468 572.714 996.942 573.115L996.754 572.513C997.957 572.112 998.852 571.32 999.438 570.138 1000.02 568.956 1000.32 567.453 1000.32 565.63 1000.32 563.87 1000.03 562.408 999.442 561.244 998.858 560.079 997.955 559.297 996.731 558.896ZM899.607 558.294 899.818 558.896C898.599 559.297 897.697 560.079 897.111 561.244 896.525 562.408 896.232 563.87 896.232 565.63 896.232 567.453 896.525 568.956 897.111 570.138 897.697 571.32 898.591 572.112 899.794 572.513L899.607 573.115C898.081 572.714 896.911 571.85 896.099 570.525 895.286 569.199 894.88 567.594 894.88 565.708 894.88 563.828 895.288 562.223 896.103 560.892 896.918 559.561 898.086 558.695 899.607 558.294Z" fill="#4B5E68" fill-rule="evenodd"/><text fill="#4B5E68" font-family="Cambria Math,Cambria Math_MSFontService,sans-serif" font-weight="400" font-size="16" transform="translate(900.114 570)">𝑙𝑜𝑔</text><text fill="#4B5E68" font-family="Cambria Math,Cambria Math_MSFontService,sans-serif" font-weight="400" font-size="12" transform="translate(922.527 574)">10</text><text fill="#4B5E68" font-family="Cambria Math,Cambria Math_MSFontService,sans-serif" font-weight="400" font-size="16" transform="translate(936.861 570)">𝑊</text><path d="M966.528 558.294C968.049 558.695 969.217 559.561 970.032 560.892 970.847 562.223 971.255 563.828 971.255 565.708 971.255 567.594 970.849 569.199 970.036 570.525 969.224 571.85 968.054 572.714 966.528 573.115L966.341 572.513C967.544 572.112 968.438 571.32 969.024 570.138 969.61 568.956 969.903 567.453 969.903 565.63 969.903 563.87 969.612 562.408 969.028 561.244 968.445 560.079 967.541 559.297 966.317 558.896ZM958.787 558.294 958.998 558.896C957.779 559.297 956.877 560.079 956.291 561.244 955.705 562.408 955.412 563.87 955.412 565.63 955.412 567.453 955.705 568.956 956.291 570.138 956.877 571.32 957.771 572.112 958.974 572.513L958.787 573.115C957.261 572.714 956.091 571.85 955.279 570.525 954.466 569.199 954.06 567.594 954.06 565.708 954.06 563.828 954.468 562.223 955.283 560.892 956.098 559.561 957.266 558.695 958.787 558.294Z" fill="#4B5E68" fill-rule="evenodd"/><text fill="#4B5E68" font-family="Cambria Math,Cambria Math_MSFontService,sans-serif" font-weight="400" font-size="16" transform="translate(959.294 570)">𝑡</text><text fill="#4B5E68" font-family="Cambria Math,Cambria Math_MSFontService,sans-serif" font-weight="400" font-size="16" transform="translate(972.661 570)">,</text><text fill="#4B5E68" font-family="Cambria Math,Cambria Math_MSFontService,sans-serif" font-weight="400" font-size="16" transform="translate(978.661 570)">𝜎</text><text fill="#4B5E68" font-family="Cambria Math,Cambria Math_MSFontService,sans-serif" font-weight="400" font-size="12" transform="translate(986.901 574)">3</text><text fill="#4B5E68" font-family="Cambria Math,Cambria Math_MSFontService,sans-serif" font-weight="400" font-size="12" transform="translate(988.934 564)">2</text><text font-family="Cambria Math,Cambria Math_MSFontService,sans-serif" font-weight="400" font-size="16" transform="translate(1035.26 278)"></text><text fill="#4B5E68" font-family="Cambria Math,Cambria Math_MSFontService,sans-serif" font-weight="400" font-size="16" transform="translate(1038.76 278)">𝐼</text><text fill="#4B5E68" font-family="Cambria Math,Cambria Math_MSFontService,sans-serif" font-weight="400" font-size="12" transform="translate(1043.82 282)">𝑚</text><text fill="#4B5E68" font-family="Cambria Math,Cambria Math_MSFontService,sans-serif" font-weight="400" font-size="12" transform="translate(1055.02 282)">,</text><text fill="#4B5E68" font-family="Cambria Math,Cambria Math_MSFontService,sans-serif" font-weight="400" font-size="12" transform="translate(1057.36 282)">ℎ</text><path d="M1079.53 266.517C1081.05 266.918 1082.21 267.783 1083.03 269.114 1083.84 270.445 1084.25 272.05 1084.25 273.931 1084.25 275.816 1083.85 277.421 1083.03 278.747 1082.22 280.073 1081.05 280.936 1079.53 281.337L1079.34 280.735C1080.54 280.334 1081.44 279.543 1082.02 278.36 1082.61 277.178 1082.9 275.675 1082.9 273.852 1082.9 272.092 1082.61 270.63 1082.03 269.466 1081.44 268.302 1080.54 267.519 1079.31 267.118ZM1071.78 266.517 1071.99 267.118C1070.78 267.519 1069.87 268.302 1069.29 269.466 1068.7 270.63 1068.41 272.092 1068.41 273.852 1068.41 275.675 1068.7 277.178 1069.29 278.36 1069.87 279.543 1070.77 280.334 1071.97 280.735L1071.78 281.337C1070.26 280.936 1069.09 280.073 1068.28 278.747 1067.46 277.421 1067.06 275.816 1067.06 273.931 1067.06 272.05 1067.46 270.445 1068.28 269.114 1069.09 267.783 1070.26 266.918 1071.78 266.517Z" fill="#4B5E68" fill-rule="evenodd"/><text fill="#4B5E68" font-family="Cambria Math,Cambria Math_MSFontService,sans-serif" font-weight="400" font-size="16" transform="translate(1072.29 278)">𝑡</text><text fill="#4B5E68" font-family="Cambria Math,Cambria Math_MSFontService,sans-serif" font-weight="400" font-size="16" transform="translate(1085.66 278)"></text><text fill="#4B5E68" font-family="Cambria Math,Cambria Math_MSFontService,sans-serif" font-weight="400" font-size="16" transform="translate(1089.16 278)"></text><text fill="#4B5E68" font-family="Cambria Math,Cambria Math_MSFontService,sans-serif" font-weight="400" font-size="16" transform="translate(1092.66 278)">~</text><text fill="#4B5E68" font-family="Cambria Math,Cambria Math_MSFontService,sans-serif" font-weight="400" font-size="16" transform="translate(1103.99 278)"></text><text fill="#4B5E68" font-family="Cambria Math,Cambria Math_MSFontService,sans-serif" font-weight="400" font-size="16" transform="translate(1107.49 278)"></text><text fill="#4B5E68" font-family="Cambria Math,Cambria Math_MSFontService,sans-serif" font-weight="400" font-size="16" transform="translate(1110.99 278)">𝑁</text><text fill="#4B5E68" font-family="Cambria Math,Cambria Math_MSFontService,sans-serif" font-weight="400" font-size="16" transform="translate(1122.66 278)">𝐵</text><path d="M1189.39 266.517C1190.91 266.918 1192.08 267.783 1192.9 269.114 1193.71 270.445 1194.12 272.05 1194.12 273.931 1194.12 275.816 1193.71 277.421 1192.9 278.747 1192.09 280.073 1190.92 280.936 1189.39 281.337L1189.2 280.735C1190.41 280.334 1191.3 279.543 1191.89 278.36 1192.47 277.178 1192.77 275.675 1192.77 273.852 1192.77 272.092 1192.48 270.63 1191.89 269.466 1191.31 268.302 1190.41 267.519 1189.18 267.118ZM1139.72 266.517 1139.93 267.118C1138.71 267.519 1137.81 268.302 1137.22 269.466 1136.63 270.63 1136.34 272.092 1136.34 273.852 1136.34 275.675 1136.63 277.178 1137.22 278.36 1137.81 279.543 1138.7 280.334 1139.9 280.735L1139.72 281.337C1138.19 280.936 1137.02 280.073 1136.21 278.747 1135.4 277.421 1134.99 275.816 1134.99 273.931 1134.99 272.05 1135.4 270.445 1136.21 269.114 1137.03 267.783 1138.2 266.918 1139.72 266.517Z" fill="#4B5E68" fill-rule="evenodd"/><text fill="#4B5E68" font-family="Cambria Math,Cambria Math_MSFontService,sans-serif" font-weight="400" font-size="16" transform="translate(1140.22 278)">𝐼</text><text fill="#4B5E68" font-family="Cambria Math,Cambria Math_MSFontService,sans-serif" font-weight="400" font-size="12" transform="translate(1145.28 282)">ℎ</text><path d="M1167.45 266.517C1168.97 266.918 1170.14 267.783 1170.96 269.114 1171.77 270.445 1172.18 272.05 1172.18 273.931 1172.18 275.816 1171.77 277.421 1170.96 278.747 1170.15 280.073 1168.98 280.936 1167.45 281.337L1167.26 280.735C1168.47 280.334 1169.36 279.543 1169.95 278.36 1170.53 277.178 1170.83 275.675 1170.83 273.852 1170.83 272.092 1170.54 270.63 1169.95 269.466 1169.37 268.302 1168.46 267.519 1167.24 267.118ZM1159.71 266.517 1159.92 267.118C1158.7 267.519 1157.8 268.302 1157.21 269.466 1156.63 270.63 1156.34 272.092 1156.34 273.852 1156.34 275.675 1156.63 277.178 1157.21 278.36 1157.8 279.543 1158.69 280.334 1159.9 280.735L1159.71 281.337C1158.18 280.936 1157.02 280.073 1156.2 278.747 1155.39 277.421 1154.98 275.816 1154.98 273.931 1154.98 272.05 1155.39 270.445 1156.21 269.114 1157.02 267.783 1158.19 266.918 1159.71 266.517Z" fill="#4B5E68" fill-rule="evenodd"/><text fill="#4B5E68" font-family="Cambria Math,Cambria Math_MSFontService,sans-serif" font-weight="400" font-size="16" transform="translate(1160.22 278)">𝑡</text><text fill="#4B5E68" font-family="Cambria Math,Cambria Math_MSFontService,sans-serif" font-weight="400" font-size="16" transform="translate(1173.58 278)">,</text><text fill="#4B5E68" font-family="Cambria Math,Cambria Math_MSFontService,sans-serif" font-weight="400" font-size="16" transform="translate(1179.58 278)">𝑘</text><text fill="#4B5E68" font-family="Cambria Math,Cambria Math_MSFontService,sans-serif" font-weight="400" font-size="16" transform="translate(808.432 276)">𝐼</text><text fill="#4B5E68" font-family="Cambria Math,Cambria Math_MSFontService,sans-serif" font-weight="400" font-size="12" transform="translate(813.492 279)">𝑚</text><text fill="#4B5E68" font-family="Cambria Math,Cambria Math_MSFontService,sans-serif" font-weight="400" font-size="12" transform="translate(824.692 279)">,</text><text fill="#4B5E68" font-family="Cambria Math,Cambria Math_MSFontService,sans-serif" font-weight="400" font-size="12" transform="translate(827.026 279)">𝑐</text><path d="M847.773 264.015C849.294 264.416 850.462 265.281 851.277 266.612 852.092 267.943 852.5 269.548 852.5 271.429 852.5 273.314 852.094 274.919 851.281 276.245 850.469 277.571 849.299 278.434 847.773 278.835L847.586 278.233C848.789 277.832 849.684 277.041 850.269 275.858 850.855 274.676 851.148 273.173 851.148 271.35 851.148 269.59 850.857 268.128 850.273 266.964 849.69 265.8 848.786 265.017 847.562 264.616ZM840.032 264.015 840.243 264.616C839.024 265.017 838.122 265.8 837.536 266.964 836.95 268.128 836.657 269.59 836.657 271.35 836.657 273.173 836.95 274.676 837.536 275.858 838.122 277.041 839.016 277.832 840.219 278.233L840.032 278.835C838.506 278.434 837.336 277.571 836.524 276.245 835.711 274.919 835.305 273.314 835.305 271.429 835.305 269.548 835.713 267.943 836.528 266.612 837.343 265.281 838.511 264.416 840.032 264.015Z" fill="#4B5E68" fill-rule="evenodd"/><text fill="#4B5E68" font-family="Cambria Math,Cambria Math_MSFontService,sans-serif" font-weight="400" font-size="16" transform="translate(840.539 276)">𝑡</text><text fill="#4B5E68" font-family="Cambria Math,Cambria Math_MSFontService,sans-serif" font-weight="400" font-size="16" transform="translate(853.906 276)"></text><text fill="#4B5E68" font-family="Cambria Math,Cambria Math_MSFontService,sans-serif" font-weight="400" font-size="16" transform="translate(857.406 276)"></text><text fill="#4B5E68" font-family="Cambria Math,Cambria Math_MSFontService,sans-serif" font-weight="400" font-size="16" transform="translate(860.906 276)">~</text><text fill="#4B5E68" font-family="Cambria Math,Cambria Math_MSFontService,sans-serif" font-weight="400" font-size="16" transform="translate(872.239 276)"></text><text fill="#4B5E68" font-family="Cambria Math,Cambria Math_MSFontService,sans-serif" font-weight="400" font-size="16" transform="translate(875.739 276)"></text><text fill="#4B5E68" font-family="Cambria Math,Cambria Math_MSFontService,sans-serif" font-weight="400" font-size="16" transform="translate(879.239 276)">𝑃𝑜𝑖𝑠𝑠𝑜𝑛</text><path d="M980.898 258.23C982.643 259.116 984.029 260.741 985.058 263.105 986.087 265.47 986.601 268.241 986.601 271.418 986.601 274.574 986.087 277.345 985.058 279.73 984.029 282.116 982.643 283.746 980.898 284.621L980.648 283.996C982.044 283.09 983.136 281.532 983.925 279.324 984.714 277.116 985.109 274.485 985.109 271.433 985.109 268.324 984.712 265.677 983.917 263.492 983.123 261.307 982.033 259.761 980.648 258.855ZM945.083 258.23 945.34 258.855C943.955 259.761 942.865 261.307 942.071 263.492 941.277 265.677 940.879 268.324 940.879 271.433 940.879 274.485 941.273 277.116 942.059 279.324 942.846 281.532 943.939 283.09 945.34 283.996L945.083 284.621C943.343 283.746 941.959 282.116 940.93 279.73 939.902 277.345 939.387 274.574 939.387 271.418 939.387 268.241 939.902 265.47 940.93 263.105 941.959 260.741 943.343 259.116 945.083 258.23Z" fill="#4B5E68" fill-rule="evenodd"/><text fill="#4B5E68" font-family="Cambria Math,Cambria Math_MSFontService,sans-serif" font-weight="400" font-size="16" transform="translate(945.859 276)">𝐼</text><text fill="#4B5E68" font-family="Cambria Math,Cambria Math_MSFontService,sans-serif" font-weight="400" font-size="12" transform="translate(950.919 279)">𝑐</text><text fill="#4B5E68" font-family="Cambria Math,Cambria Math_MSFontService,sans-serif" font-weight="400" font-size="12" transform="translate(957.126 279)">,</text><path d="M974 264.015C975.521 264.416 976.689 265.281 977.504 266.612 978.319 267.943 978.727 269.548 978.727 271.429 978.727 273.314 978.32 274.919 977.508 276.245 976.695 277.571 975.526 278.434 974 278.835L973.813 278.233C975.016 277.832 975.91 277.041 976.496 275.858 977.082 274.676 977.375 273.173 977.375 271.35 977.375 269.59 977.083 268.128 976.5 266.964 975.917 265.8 975.013 265.017 973.789 264.616ZM966.258 264.015 966.469 264.616C965.251 265.017 964.348 265.8 963.762 266.964 963.176 268.128 962.883 269.59 962.883 271.35 962.883 273.173 963.176 274.676 963.762 275.858 964.348 277.041 965.243 277.832 966.446 278.233L966.258 278.835C964.732 278.434 963.563 277.571 962.751 276.245 961.938 274.919 961.532 273.314 961.532 271.429 961.532 269.548 961.939 267.943 962.755 266.612 963.57 265.281 964.738 264.416 966.258 264.015Z" fill="#4B5E68" fill-rule="evenodd"/><text fill="#4B5E68" font-family="Cambria Math,Cambria Math_MSFontService,sans-serif" font-weight="400" font-size="16" transform="translate(966.766 276)">𝑡</text><rect x="145" y="429" width="257" height="60" fill="#F2F2F2"/><text fill="#953735" font-family="Cambria Math,Cambria Math_MSFontService,sans-serif" font-weight="400" font-size="14" transform="translate(156.771 463)">𝐼</text><text fill="#953735" font-family="Cambria Math,Cambria Math_MSFontService,sans-serif" font-weight="400" font-size="10" transform="translate(161.284 466)">𝑛𝑒𝑤</text><path d="M194.722 452.601C196.052 452.952 197.074 453.71 197.788 454.874 198.501 456.038 198.857 457.443 198.857 459.088 198.857 460.738 198.502 462.143 197.791 463.303 197.08 464.463 196.057 465.218 194.722 465.569L194.558 465.043C195.61 464.692 196.393 463.999 196.906 462.964 197.418 461.93 197.675 460.615 197.675 459.02 197.675 457.48 197.42 456.2 196.909 455.182 196.399 454.163 195.608 453.478 194.537 453.127ZM187.99 452.601 188.175 453.127C187.108 453.478 186.319 454.163 185.806 455.182 185.293 456.2 185.037 457.48 185.037 459.02 185.037 460.615 185.293 461.93 185.806 462.964 186.319 463.999 187.102 464.692 188.154 465.043L187.99 465.569C186.655 465.218 185.632 464.463 184.921 463.303 184.21 462.143 183.854 460.738 183.854 459.088 183.854 457.443 184.211 456.038 184.924 454.874 185.637 453.71 186.659 452.952 187.99 452.601Z" fill="#953735" fill-rule="evenodd"/><text fill="#953735" font-family="Cambria Math,Cambria Math_MSFontService,sans-serif" font-weight="400" font-size="14" transform="translate(188.437 463)">𝑡</text><text fill="#953735" font-family="Cambria Math,Cambria Math_MSFontService,sans-serif" font-weight="400" font-size="14" transform="translate(203.977 463)">=</text><text fill="#953735" font-family="Cambria Math,Cambria Math_MSFontService,sans-serif" font-weight="400" font-size="14" transform="translate(216.417 463)"></text><text fill="#953735" font-family="Cambria Math,Cambria Math_MSFontService,sans-serif" font-weight="400" font-size="14" transform="translate(221.364 463)">𝑅</text><text fill="#953735" font-family="Cambria Math,Cambria Math_MSFontService,sans-serif" font-weight="400" font-size="10" transform="translate(230.777 458)">𝑒𝑓𝑓</text><path d="M261.562 452.601C262.892 452.952 263.914 453.71 264.628 454.874 265.341 456.038 265.697 457.443 265.697 459.088 265.697 460.738 265.342 462.143 264.631 463.303 263.92 464.463 262.897 465.218 261.562 465.569L261.398 465.043C262.45 464.692 263.233 463.999 263.746 462.964 264.258 461.93 264.515 460.615 264.515 459.02 264.515 457.48 264.26 456.2 263.749 455.182 263.239 454.163 262.448 453.478 261.377 453.127ZM254.83 452.601 255.015 453.127C253.948 453.478 253.159 454.163 252.646 455.182 252.133 456.2 251.877 457.48 251.877 459.02 251.877 460.615 252.133 461.93 252.646 462.964 253.159 463.999 253.942 464.692 254.994 465.043L254.83 465.569C253.495 465.218 252.472 464.463 251.761 463.303 251.05 462.143 250.694 460.738 250.694 459.088 250.694 457.443 251.051 456.038 251.764 454.874 252.477 453.71 253.499 452.952 254.83 452.601Z" fill="#953735" fill-rule="evenodd"/><text fill="#953735" font-family="Cambria Math,Cambria Math_MSFontService,sans-serif" font-weight="400" font-size="14" transform="translate(255.277 463)">𝑡</text><path d="M3.19238-16.4678 11.3477-5.39355 11.3477-4.56641 2.54297 7.38281 14.4033 7.38281C14.9274 7.38281 15.3285 7.19824 15.6064 6.8291 15.8844 6.45996 16.1237 5.63509 16.3242 4.35449L17.3359 4.35449 16.9873 9.36523 0.177734 9.36523 0.177734 8.68848 9.75488-4.29297 0.458008-16.7139 0.458008-17.3633 16.9668-17.3633 16.9668-13.3164 16.0645-13.3164C15.9596-14.2871 15.7477-15.055 15.4287-15.6201 15.1097-16.1852 14.6266-16.4678 13.9795-16.4678Z" fill="#953735" transform="translate(269.344 463)"/><text fill="#000000" fill-opacity="0" font-family="Arial,Arial_MSFontService,sans-serif" font-size="26.7285" x="0.177734" y="6.02417">෍</text><text fill="#953735" font-family="Cambria Math,Cambria Math_MSFontService,sans-serif" font-weight="400" font-size="14" transform="translate(290.317 463)">𝐼</text><text fill="#953735" font-family="Cambria Math,Cambria Math_MSFontService,sans-serif" font-weight="400" font-size="10" transform="translate(294.831 466)">𝑛𝑒𝑤</text><path d="M351.795 452.601C353.126 452.952 354.148 453.71 354.861 454.874 355.574 456.038 355.931 457.443 355.931 459.088 355.931 460.738 355.575 462.143 354.864 463.303 354.153 464.463 353.13 465.218 351.795 465.569L351.631 465.043C352.684 464.692 353.466 463.999 353.979 462.964 354.492 461.93 354.748 460.615 354.748 459.02 354.748 457.48 354.493 456.2 353.982 455.182 353.472 454.163 352.681 453.478 351.61 453.127ZM321.537 452.601 321.721 453.127C320.655 453.478 319.865 454.163 319.353 455.182 318.84 456.2 318.584 457.48 318.584 459.02 318.584 460.615 318.84 461.93 319.353 462.964 319.865 463.999 320.648 464.692 321.701 465.043L321.537 465.569C320.202 465.218 319.178 464.463 318.468 463.303 317.757 462.143 317.401 460.738 317.401 459.088 317.401 457.443 317.758 456.038 318.471 454.874 319.184 453.71 320.206 452.952 321.537 452.601Z" fill="#953735" fill-rule="evenodd"/><text fill="#953735" font-family="Cambria Math,Cambria Math_MSFontService,sans-serif" font-weight="400" font-size="14" transform="translate(321.984 463)">𝑡</text><text fill="#953735" font-family="Cambria Math,Cambria Math_MSFontService,sans-serif" font-weight="400" font-size="14" transform="translate(330.937 463)">−</text><text fill="#953735" font-family="Cambria Math,Cambria Math_MSFontService,sans-serif" font-weight="400" font-size="14" transform="translate(344.551 463)">𝜏</text><text fill="#953735" font-family="Cambria Math,Cambria Math_MSFontService,sans-serif" font-weight="400" font-size="14" transform="translate(357.164 463)">𝑔</text><text fill="#953735" font-family="Cambria Math,Cambria Math_MSFontService,sans-serif" font-weight="400" font-size="10" transform="translate(364.857 466)">1</text><path d="M384.328 452.601C385.659 452.952 386.681 453.71 387.394 454.874 388.107 456.038 388.464 457.443 388.464 459.088 388.464 460.738 388.109 462.143 387.398 463.303 386.687 464.463 385.664 465.218 384.328 465.569L384.164 465.043C385.217 464.692 386 463.999 386.512 462.964 387.025 461.93 387.281 460.615 387.281 459.02 387.281 457.48 387.026 456.2 386.516 455.182 386.005 454.163 385.215 453.478 384.144 453.127ZM376.637 452.601 376.821 453.127C375.755 453.478 374.965 454.163 374.453 455.182 373.94 456.2 373.684 457.48 373.684 459.02 373.684 460.615 373.94 461.93 374.453 462.964 374.965 463.999 375.748 464.692 376.801 465.043L376.637 465.569C375.302 465.218 374.278 464.463 373.568 463.303 372.857 462.143 372.501 460.738 372.501 459.088 372.501 457.443 372.858 456.038 373.571 454.874 374.284 453.71 375.306 452.952 376.637 452.601Z" fill="#953735" fill-rule="evenodd"/><text fill="#953735" font-family="Cambria Math,Cambria Math_MSFontService,sans-serif" font-weight="400" font-size="14" transform="translate(377.084 463)">𝜏</text><text fill="#953735" font-family="Cambria Math,Cambria Math_MSFontService,sans-serif" font-weight="400" font-size="10" transform="translate(269.571 442)">𝑡</text><text fill="#953735" font-family="Cambria Math,Cambria Math_MSFontService,sans-serif" font-weight="400" font-size="10" transform="translate(274.344 442)">−</text><text fill="#953735" font-family="Cambria Math,Cambria Math_MSFontService,sans-serif" font-weight="400" font-size="10" transform="translate(281.844 442)">1</text><text fill="#953735" font-family="Cambria Math,Cambria Math_MSFontService,sans-serif" font-weight="400" font-size="10" transform="translate(269.264 481)">𝜏</text><text fill="#953735" font-family="Cambria Math,Cambria Math_MSFontService,sans-serif" font-weight="400" font-size="10" transform="translate(274.651 481)">=</text><text fill="#953735" font-family="Cambria Math,Cambria Math_MSFontService,sans-serif" font-weight="400" font-size="10" transform="translate(282.151 481)">1</text><path d="M73.5001 440C73.5001 417.08 92.0802 398.5 115 398.5 137.92 398.5 156.5 417.08 156.5 440 156.5 462.92 137.92 481.5 115 481.5 92.0802 481.5 73.5001 462.92 73.5001 440Z" stroke="#953735" stroke-width="1.33333" stroke-miterlimit="8" fill="#F2DCDB" fill-rule="evenodd"/><text font-family="Arial,Arial_MSFontService,sans-serif" font-weight="400" font-size="19" transform="translate(94.54 443)">R</text><text font-family="Arial,Arial_MSFontService,sans-serif" font-weight="400" font-size="12" transform="translate(108.04 437)">eff</text><text font-family="Arial,Arial_MSFontService,sans-serif" font-weight="400" font-size="19" transform="translate(121.813 443)">(t)</text><path d="M379.5 426C379.5 403.08 398.08 384.5 421 384.5 443.92 384.5 462.5 403.08 462.5 426 462.5 448.92 443.92 467.5 421 467.5 398.08 467.5 379.5 448.92 379.5 426Z" stroke="#984807" stroke-width="1.33333" stroke-miterlimit="8" fill="#D99694" fill-rule="evenodd"/><text font-family="Arial,Arial_MSFontService,sans-serif" font-weight="400" font-size="19" transform="translate(398.187 432)">I</text><text font-family="Arial,Arial_MSFontService,sans-serif" font-weight="400" font-size="12" transform="translate(403.354 436)">new</text><text font-family="Arial,Arial_MSFontService,sans-serif" font-weight="400" font-size="19" transform="translate(426.354 432)">(t)</text><path d="M0.016999-1.99993 174.836-0.514003 174.802 3.48585-0.016999 1.99993ZM172.87-4.53086 184.818 1.57092 172.768 7.46871Z" fill="#4B5E68" transform="matrix(1 0 0 -1 172 427.571)"/><text fill="#4B5E68" font-family="Arial,Arial_MSFontService,sans-serif" font-weight="700" font-size="15" transform="matrix(0.934499 0.355966 -0.355966 0.934499 466.822 465)">Shedding onset</text><text fill="#4B5E68" font-family="Arial,Arial_MSFontService,sans-serif" font-weight="700" font-size="15" transform="matrix(0.934499 0.355966 -0.355966 0.934499 474.276 487)">distribution</text><text fill="#4B5E68" font-family="Arial,Arial_MSFontService,sans-serif" font-weight="700" font-size="15" transform="translate(691.835 526)">Shedding load</text><text fill="#4B5E68" font-family="Arial,Arial_MSFontService,sans-serif" font-weight="700" font-size="15" transform="translate(708.581 544)">dynamics</text><text fill="#4B5E68" font-family="Arial,Arial_MSFontService,sans-serif" font-weight="400" font-size="15" transform="translate(924.28 523)">Logistic model</text><text fill="#953735" font-family="Arial,Arial_MSFontService,sans-serif" font-weight="700" font-size="16" transform="translate(311.209 489)">Newly infected</text><text fill="#953735" font-family="Arial,Arial_MSFontService,sans-serif" font-weight="700" font-size="16" transform="translate(292.295 508)">individuals on day t</text><text fill="#4B5E68" font-family="Arial,Arial_MSFontService,sans-serif" font-weight="400" font-size="15" transform="matrix(0.948529 -0.316692 0.316692 0.948529 479.956 388)">Incubation time</text><text fill="#4B5E68" font-family="Arial,Arial_MSFontService,sans-serif" font-weight="400" font-size="15" transform="translate(690.202 360)">Identification delay</text><path d="M84.5001 128.5 1180.56 128.5" stroke="#4B5E68" stroke-miterlimit="8" stroke-dasharray="8 3" fill="none" fill-rule="evenodd"/></g></svg>