<svg width="1305" height="723" xmlns="http://www.w3.org/2000/svg" xmlns:xlink="http://www.w3.org/1999/xlink" overflow="hidden"><defs><clipPath id="clip0"><rect x="-1" y="-2" width="1305" height="723"/></clipPath></defs><g clip-path="url(#clip0)" transform="translate(1 2)"><rect x="1" y="0" width="1280" height="720" fill="#FFFFFF"/><text fill="#FFFFFF" font-family="Cambria Math,Cambria Math_MSFontService,sans-serif" font-weight="400" font-size="24" transform="translate(366.794 366)"></text><text fill="#FFFFFF" font-family="Cambria Math,Cambria Math_MSFontService,sans-serif" font-weight="400" font-size="24" transform="translate(372.128 366)"></text><text fill="#FFFFFF" font-family="Cambria Math,Cambria Math_MSFontService,sans-serif" font-weight="400" font-size="24" transform="translate(377.461 366)"></text><text fill="#FFFFFF" font-family="Cambria Math,Cambria Math_MSFontService,sans-serif" font-weight="400" font-size="24" transform="translate(382.794 366)"></text><text fill="#FFFFFF" font-family="Cambria Math,Cambria Math_MSFontService,sans-serif" font-weight="400" font-size="24" transform="translate(388.128 366)"></text><text fill="#FFFFFF" font-family="Cambria Math,Cambria Math_MSFontService,sans-serif" font-weight="400" font-size="24" transform="translate(393.461 366)"></text><text fill="#FFFFFF" font-family="Cambria Math,Cambria Math_MSFontService,sans-serif" font-weight="400" font-size="24" transform="translate(398.794 366)"></text><text fill="#FFFFFF" font-family="Cambria Math,Cambria Math_MSFontService,sans-serif" font-weight="400" font-size="24" transform="translate(404.128 366)"></text><text fill="#FFFFFF" font-family="Cambria Math,Cambria Math_MSFontService,sans-serif" font-weight="400" font-size="24" transform="translate(409.461 366)"></text><text fill="#FFFFFF" font-family="Cambria Math,Cambria Math_MSFontService,sans-serif" font-weight="400" font-size="24" transform="translate(414.794 366)"></text><text fill="#FFFFFF" font-family="Cambria Math,Cambria Math_MSFontService,sans-serif" font-weight="400" font-size="24" transform="translate(420.128 366)"></text><text fill="#FFFFFF" font-family="Cambria Math,Cambria Math_MSFontService,sans-serif" font-weight="400" font-size="24" transform="translate(425.461 366)"></text><text fill="#FFFFFF" font-family="Cambria Math,Cambria Math_MSFontService,sans-serif" font-weight="400" font-size="24" transform="translate(430.794 366)"></text><text fill="#FFFFFF" font-family="Cambria Math,Cambria Math_MSFontService,sans-serif" font-weight="400" font-size="24" transform="translate(436.128 366)"></text><text fill="#FFFFFF" font-family="Cambria Math,Cambria Math_MSFontService,sans-serif" font-weight="400" font-size="24" transform="translate(441.461 366)"></text><text fill="#FFFFFF" font-family="Cambria Math,Cambria Math_MSFontService,sans-serif" font-weight="400" font-size="24" transform="translate(446.794 366)"></text><text fill="#FFFFFF" font-family="Cambria Math,Cambria Math_MSFontService,sans-serif" font-weight="400" font-size="24" transform="translate(452.128 366)">𝑠</text><text fill="#FFFFFF" font-family="Cambria Math,Cambria Math_MSFontService,sans-serif" font-weight="400" font-size="18" transform="translate(462.708 371)">𝑖</text><text fill="#FFFFFF" font-family="Cambria Math,Cambria Math_MSFontService,sans-serif" font-weight="400" font-size="18" transform="translate(469.474 371)">,</text><text fill="#FFFFFF" font-family="Cambria Math,Cambria Math_MSFontService,sans-serif" font-weight="400" font-size="18" transform="translate(473.141 371)">𝑡</text><text fill="#FFFFFF" font-family="Cambria Math,Cambria Math_MSFontService,sans-serif" font-weight="400" font-size="24" transform="translate(485.601 366)"></text><text fill="#FFFFFF" font-family="Cambria Math,Cambria Math_MSFontService,sans-serif" font-weight="400" font-size="24" transform="translate(490.934 366)"></text><text fill="#FFFFFF" font-family="Cambria Math,Cambria Math_MSFontService,sans-serif" font-weight="400" font-size="24" transform="translate(496.268 366)"></text><text fill="#FFFFFF" font-family="Cambria Math,Cambria Math_MSFontService,sans-serif" font-weight="400" font-size="24" transform="translate(504.934 366)">=</text><text fill="#FFFFFF" font-family="Cambria Math,Cambria Math_MSFontService,sans-serif" font-weight="400" font-size="24" transform="translate(526.268 366)"></text><text fill="#FFFFFF" font-family="Cambria Math,Cambria Math_MSFontService,sans-serif" font-weight="400" font-size="24" transform="translate(534.934 366)">𝐴</text><text fill="#FFFFFF" font-family="Cambria Math,Cambria Math_MSFontService,sans-serif" font-weight="400" font-size="18" transform="translate(550.101 371)">𝑖</text><text fill="#FFFFFF" font-family="Cambria Math,Cambria Math_MSFontService,sans-serif" font-weight="400" font-size="24" transform="translate(563.194 366)">×</text><text fill="#FFFFFF" font-family="Cambria Math,Cambria Math_MSFontService,sans-serif" font-weight="400" font-size="24" transform="translate(607.641 348)">𝛼</text><text fill="#FFFFFF" font-family="Cambria Math,Cambria Math_MSFontService,sans-serif" font-weight="400" font-size="24" transform="translate(585.694 382)">𝛽</text><text fill="#FFFFFF" font-family="Cambria Math,Cambria Math_MSFontService,sans-serif" font-weight="400" font-size="24" transform="translate(606.254 382)">−</text><text fill="#FFFFFF" font-family="Cambria Math,Cambria Math_MSFontService,sans-serif" font-weight="400" font-size="24" transform="translate(629.588 382)">𝛼</text><path d="M585.808 358.117 644.808 358.117 644.808 360.117 585.808 360.117Z" fill="#FFFFFF" fill-rule="evenodd"/><text fill="#FFFFFF" font-family="Cambria Math,Cambria Math_MSFontService,sans-serif" font-weight="400" font-size="24" transform="translate(646.648 366)"></text><text fill="#FFFFFF" font-family="Cambria Math,Cambria Math_MSFontService,sans-serif" font-weight="400" font-size="24" transform="translate(653.981 366)">𝑒</text><text fill="#FFFFFF" font-family="Cambria Math,Cambria Math_MSFontService,sans-serif" font-weight="400" font-size="18" transform="translate(667.101 357)">−</text><text fill="#FFFFFF" font-family="Cambria Math,Cambria Math_MSFontService,sans-serif" font-weight="400" font-size="18" transform="translate(679.768 357)">𝛼𝑡</text><path d="M845.276 344.772C847.713 345.412 849.592 347.073 850.912 349.752 852.233 352.432 852.893 355.604 852.893 359.268 852.893 362.932 852.233 366.104 850.912 368.783 849.592 371.463 847.713 373.123 845.276 373.764L844.983 372.803C846.873 372.092 848.305 370.543 849.278 368.156 850.25 365.77 850.737 362.811 850.737 359.28 850.737 355.74 850.25 352.776 849.278 350.385 848.305 347.994 846.873 346.444 844.983 345.733ZM710.288 344.772 710.581 345.733C708.69 346.444 707.258 347.994 706.286 350.385 705.313 352.776 704.827 355.74 704.827 359.28 704.827 362.811 705.313 365.77 706.286 368.156 707.258 370.543 708.69 372.092 710.581 372.803L710.288 373.764C707.85 373.123 705.971 371.463 704.651 368.783 703.331 366.104 702.67 362.932 702.67 359.268 702.67 355.604 703.331 352.432 704.651 349.752 705.971 347.073 707.85 345.412 710.288 344.772Z" fill="#FFFFFF" fill-rule="evenodd"/><text fill="#FFFFFF" font-family="Cambria Math,Cambria Math_MSFontService,sans-serif" font-weight="400" font-size="24" transform="translate(711.341 366)">1</text><text fill="#FFFFFF" font-family="Cambria Math,Cambria Math_MSFontService,sans-serif" font-weight="400" font-size="24" transform="translate(730.008 366)">−</text><text fill="#FFFFFF" font-family="Cambria Math,Cambria Math_MSFontService,sans-serif" font-weight="400" font-size="24" transform="translate(753.341 366)">𝑒</text><text fill="#FFFFFF" font-family="Cambria Math,Cambria Math_MSFontService,sans-serif" font-weight="400" font-size="18" transform="translate(766.461 357)">−</text><path d="M824.359 343.89C826.07 344.341 827.384 345.315 828.301 346.812 829.218 348.309 829.676 350.115 829.676 352.231 829.676 354.352 829.219 356.158 828.305 357.649 827.391 359.14 826.076 360.111 824.359 360.563L824.148 359.886C825.502 359.435 826.508 358.544 827.167 357.214 827.826 355.884 828.156 354.193 828.156 352.143 828.156 350.162 827.828 348.517 827.172 347.208 826.515 345.898 825.499 345.018 824.122 344.567ZM786.027 343.89 786.264 344.567C784.893 345.018 783.878 345.898 783.219 347.208 782.56 348.517 782.23 350.162 782.23 352.143 782.23 354.193 782.56 355.884 783.219 357.214 783.878 358.544 784.885 359.435 786.238 359.886L786.027 360.563C784.31 360.111 782.995 359.14 782.081 357.649 781.167 356.158 780.71 354.352 780.71 352.231 780.71 350.115 781.168 348.309 782.085 346.812 783.002 345.315 784.316 344.341 786.027 343.89Z" fill="#FFFFFF" fill-rule="evenodd"/><text fill="#FFFFFF" font-family="Cambria Math,Cambria Math_MSFontService,sans-serif" font-weight="400" font-size="18" transform="translate(786.401 357)">𝛽</text><text fill="#FFFFFF" font-family="Cambria Math,Cambria Math_MSFontService,sans-serif" font-weight="400" font-size="18" transform="translate(798.928 357)">−</text><text fill="#FFFFFF" font-family="Cambria Math,Cambria Math_MSFontService,sans-serif" font-weight="400" font-size="18" transform="translate(811.594 357)">𝛼</text><text fill="#FFFFFF" font-family="Cambria Math,Cambria Math_MSFontService,sans-serif" font-weight="400" font-size="18" transform="translate(831.061 357)">t</text><text fill="#FFFFFF" font-family="Cambria Math,Cambria Math_MSFontService,sans-serif" font-weight="400" font-size="24" transform="translate(838.888 366)"></text><text fill="#FFFFFF" font-family="Cambria Math,Cambria Math_MSFontService,sans-serif" font-weight="400" font-size="24" transform="translate(855.001 366)"></text><text fill="#FFFFFF" font-family="Cambria Math,Cambria Math_MSFontService,sans-serif" font-weight="400" font-size="24" transform="translate(860.334 366)"></text><text fill="#FFFFFF" font-family="Cambria Math,Cambria Math_MSFontService,sans-serif" font-weight="400" font-size="24" transform="translate(865.668 366)">(</text><text fill="#FFFFFF" font-family="Cambria Math,Cambria Math_MSFontService,sans-serif" font-weight="400" font-size="24" transform="translate(875.668 366)">1𝐵</text><text fill="#FFFFFF" font-family="Cambria Math,Cambria Math_MSFontService,sans-serif" font-weight="400" font-size="24" transform="translate(905.481 366)">)</text><text fill="#FFFFFF" font-family="Cambria Math,Cambria Math_MSFontService,sans-serif" font-weight="400" font-size="24" transform="translate(366.228 410)"></text><text fill="#FFFFFF" font-family="Cambria Math,Cambria Math_MSFontService,sans-serif" font-weight="400" font-size="24" transform="translate(371.561 410)"></text><text fill="#FFFFFF" font-family="Cambria Math,Cambria Math_MSFontService,sans-serif" font-weight="400" font-size="24" transform="translate(376.894 410)"></text><text fill="#FFFFFF" font-family="Cambria Math,Cambria Math_MSFontService,sans-serif" font-weight="400" font-size="24" transform="translate(382.228 410)"></text><text fill="#FFFFFF" font-family="Cambria Math,Cambria Math_MSFontService,sans-serif" font-weight="400" font-size="24" transform="translate(387.561 410)"></text><text fill="#FFFFFF" font-family="Cambria Math,Cambria Math_MSFontService,sans-serif" font-weight="400" font-size="24" transform="translate(392.894 410)"></text><text fill="#FFFFFF" font-family="Cambria Math,Cambria Math_MSFontService,sans-serif" font-weight="400" font-size="24" transform="translate(398.228 410)">𝑙𝑜𝑔</text><text fill="#FFFFFF" font-family="Cambria Math,Cambria Math_MSFontService,sans-serif" font-weight="400" font-size="18" transform="translate(431.854 415)">10</text><text fill="#FFFFFF" font-family="Cambria Math,Cambria Math_MSFontService,sans-serif" font-weight="400" font-size="24" transform="translate(453.181 410)">(</text><text fill="#FFFFFF" font-family="Cambria Math,Cambria Math_MSFontService,sans-serif" font-weight="400" font-size="24" transform="translate(463.181 410)">𝐴</text><text fill="#FFFFFF" font-family="Cambria Math,Cambria Math_MSFontService,sans-serif" font-weight="400" font-size="18" transform="translate(478.348 415)">𝑖</text><text fill="#FFFFFF" font-family="Cambria Math,Cambria Math_MSFontService,sans-serif" font-weight="400" font-size="24" transform="translate(486.108 410)">)</text><text fill="#FFFFFF" font-family="Cambria Math,Cambria Math_MSFontService,sans-serif" font-weight="400" font-size="24" transform="translate(496.108 410)"></text><text fill="#FFFFFF" font-family="Cambria Math,Cambria Math_MSFontService,sans-serif" font-weight="400" font-size="24" transform="translate(501.441 410)"></text><text fill="#FFFFFF" font-family="Cambria Math,Cambria Math_MSFontService,sans-serif" font-weight="400" font-size="24" transform="translate(506.774 410)">~</text><text fill="#FFFFFF" font-family="Cambria Math,Cambria Math_MSFontService,sans-serif" font-weight="400" font-size="24" transform="translate(523.941 410)"></text><text fill="#FFFFFF" font-family="Cambria Math,Cambria Math_MSFontService,sans-serif" font-weight="400" font-size="24" transform="translate(529.274 410)"></text><text fill="#FFFFFF" font-family="Cambria Math,Cambria Math_MSFontService,sans-serif" font-weight="400" font-size="24" transform="translate(534.608 410)">𝑁</text><path d="M612.796 392.15C615.077 392.751 616.829 394.05 618.052 396.046 619.275 398.042 619.886 400.451 619.886 403.271 619.886 406.099 619.277 408.507 618.058 410.495 616.839 412.484 615.085 413.779 612.796 414.38L612.515 413.478C614.32 412.876 615.661 411.689 616.54 409.915 617.419 408.142 617.859 405.888 617.859 403.154 617.859 400.513 617.421 398.32 616.546 396.574 615.671 394.827 614.316 393.654 612.48 393.052ZM561.894 392.15 562.21 393.052C560.382 393.654 559.028 394.827 558.149 396.574 557.271 398.32 556.831 400.513 556.831 403.154 556.831 405.888 557.271 408.142 558.149 409.915 559.028 411.689 560.37 412.876 562.175 413.478L561.894 414.38C559.604 413.779 557.851 412.484 556.632 410.495 555.413 408.507 554.804 406.099 554.804 403.271 554.804 400.451 555.415 398.042 556.638 396.046 557.86 394.05 559.612 392.751 561.894 392.15Z" fill="#FFFFFF" fill-rule="evenodd"/><text fill="#FFFFFF" font-family="Cambria Math,Cambria Math_MSFontService,sans-serif" font-weight="400" font-size="24" transform="translate(562.654 410)">𝜇</text><text fill="#FFFFFF" font-family="Cambria Math,Cambria Math_MSFontService,sans-serif" font-weight="400" font-size="24" transform="translate(576.468 410)">,</text><text fill="#FFFFFF" font-family="Cambria Math,Cambria Math_MSFontService,sans-serif" font-weight="400" font-size="24" transform="translate(585.468 410)">𝜎</text><text fill="#FFFFFF" font-family="Cambria Math,Cambria Math_MSFontService,sans-serif" font-weight="400" font-size="18" transform="translate(597.828 415)">𝑣</text><text fill="#FFFFFF" font-family="Cambria Math,Cambria Math_MSFontService,sans-serif" font-weight="400" font-size="18" transform="translate(600.874 401)">2</text><text fill="#FFFFFF" font-family="Cambria Math,Cambria Math_MSFontService,sans-serif" font-weight="400" font-size="24" transform="translate(621.994 410)"></text><text fill="#FFFFFF" font-family="Cambria Math,Cambria Math_MSFontService,sans-serif" font-weight="400" font-size="24" transform="translate(627.328 410)"></text><text fill="#FFFFFF" font-family="Cambria Math,Cambria Math_MSFontService,sans-serif" font-weight="400" font-size="24" transform="translate(632.661 410)"></text><text fill="#FFFFFF" font-family="Cambria Math,Cambria Math_MSFontService,sans-serif" font-weight="400" font-size="24" transform="translate(637.994 410)"></text><text fill="#FFFFFF" font-family="Cambria Math,Cambria Math_MSFontService,sans-serif" font-weight="400" font-size="24" transform="translate(643.328 410)"></text><text fill="#FFFFFF" font-family="Cambria Math,Cambria Math_MSFontService,sans-serif" font-weight="400" font-size="24" transform="translate(648.661 410)"></text><text fill="#FFFFFF" font-family="Cambria Math,Cambria Math_MSFontService,sans-serif" font-weight="400" font-size="24" transform="translate(653.994 410)"></text><text fill="#FFFFFF" font-family="Cambria Math,Cambria Math_MSFontService,sans-serif" font-weight="400" font-size="24" transform="translate(659.328 410)"></text><text fill="#FFFFFF" font-family="Cambria Math,Cambria Math_MSFontService,sans-serif" font-weight="400" font-size="24" transform="translate(664.661 410)"></text><text fill="#FFFFFF" font-family="Cambria Math,Cambria Math_MSFontService,sans-serif" font-weight="400" font-size="24" transform="translate(669.994 410)"></text><text fill="#FFFFFF" font-family="Cambria Math,Cambria Math_MSFontService,sans-serif" font-weight="400" font-size="24" transform="translate(675.328 410)"></text><text fill="#FFFFFF" font-family="Cambria Math,Cambria Math_MSFontService,sans-serif" font-weight="400" font-size="24" transform="translate(680.661 410)"></text><text fill="#FFFFFF" font-family="Cambria Math,Cambria Math_MSFontService,sans-serif" font-weight="400" font-size="24" transform="translate(685.994 410)"></text><text fill="#FFFFFF" font-family="Cambria Math,Cambria Math_MSFontService,sans-serif" font-weight="400" font-size="24" transform="translate(691.328 410)"></text><text fill="#FFFFFF" font-family="Cambria Math,Cambria Math_MSFontService,sans-serif" font-weight="400" font-size="24" transform="translate(696.661 410)"></text><text fill="#FFFFFF" font-family="Cambria Math,Cambria Math_MSFontService,sans-serif" font-weight="400" font-size="24" transform="translate(701.994 410)"></text><text fill="#FFFFFF" font-family="Cambria Math,Cambria Math_MSFontService,sans-serif" font-weight="400" font-size="24" transform="translate(707.328 410)"></text><text fill="#FFFFFF" font-family="Cambria Math,Cambria Math_MSFontService,sans-serif" font-weight="400" font-size="24" transform="translate(712.661 410)"></text><text fill="#FFFFFF" font-family="Cambria Math,Cambria Math_MSFontService,sans-serif" font-weight="400" font-size="24" transform="translate(717.994 410)"></text><text fill="#FFFFFF" font-family="Cambria Math,Cambria Math_MSFontService,sans-serif" font-weight="400" font-size="24" transform="translate(723.328 410)"></text><text fill="#FFFFFF" font-family="Cambria Math,Cambria Math_MSFontService,sans-serif" font-weight="400" font-size="24" transform="translate(728.661 410)"></text><text fill="#FFFFFF" font-family="Cambria Math,Cambria Math_MSFontService,sans-serif" font-weight="400" font-size="24" transform="translate(733.994 410)"></text><text fill="#FFFFFF" font-family="Cambria Math,Cambria Math_MSFontService,sans-serif" font-weight="400" font-size="24" transform="translate(739.328 410)"></text><text fill="#FFFFFF" font-family="Cambria Math,Cambria Math_MSFontService,sans-serif" font-weight="400" font-size="24" transform="translate(744.661 410)"></text><text fill="#FFFFFF" font-family="Cambria Math,Cambria Math_MSFontService,sans-serif" font-weight="400" font-size="24" transform="translate(749.994 410)"></text><text fill="#FFFFFF" font-family="Cambria Math,Cambria Math_MSFontService,sans-serif" font-weight="400" font-size="24" transform="translate(755.328 410)"></text><text fill="#FFFFFF" font-family="Cambria Math,Cambria Math_MSFontService,sans-serif" font-weight="400" font-size="24" transform="translate(760.661 410)"></text><text fill="#FFFFFF" font-family="Cambria Math,Cambria Math_MSFontService,sans-serif" font-weight="400" font-size="24" transform="translate(765.994 410)"></text><text fill="#FFFFFF" font-family="Cambria Math,Cambria Math_MSFontService,sans-serif" font-weight="400" font-size="24" transform="translate(771.328 410)"></text><text fill="#FFFFFF" font-family="Cambria Math,Cambria Math_MSFontService,sans-serif" font-weight="400" font-size="24" transform="translate(776.661 410)"></text><text fill="#FFFFFF" font-family="Cambria Math,Cambria Math_MSFontService,sans-serif" font-weight="400" font-size="24" transform="translate(781.994 410)"></text><text fill="#FFFFFF" font-family="Cambria Math,Cambria Math_MSFontService,sans-serif" font-weight="400" font-size="24" transform="translate(787.328 410)"></text><text fill="#FFFFFF" font-family="Cambria Math,Cambria Math_MSFontService,sans-serif" font-weight="400" font-size="24" transform="translate(792.661 410)"></text><text fill="#FFFFFF" font-family="Cambria Math,Cambria Math_MSFontService,sans-serif" font-weight="400" font-size="24" transform="translate(797.994 410)"></text><text fill="#FFFFFF" font-family="Cambria Math,Cambria Math_MSFontService,sans-serif" font-weight="400" font-size="24" transform="translate(803.328 410)"></text><text fill="#FFFFFF" font-family="Cambria Math,Cambria Math_MSFontService,sans-serif" font-weight="400" font-size="24" transform="translate(808.661 410)"></text><text fill="#FFFFFF" font-family="Cambria Math,Cambria Math_MSFontService,sans-serif" font-weight="400" font-size="24" transform="translate(813.994 410)"></text><text fill="#FFFFFF" font-family="Cambria Math,Cambria Math_MSFontService,sans-serif" font-weight="400" font-size="24" transform="translate(819.328 410)"></text><text fill="#FFFFFF" font-family="Cambria Math,Cambria Math_MSFontService,sans-serif" font-weight="400" font-size="24" transform="translate(824.661 410)"></text><text fill="#FFFFFF" font-family="Cambria Math,Cambria Math_MSFontService,sans-serif" font-weight="400" font-size="24" transform="translate(829.994 410)"></text><text fill="#FFFFFF" font-family="Cambria Math,Cambria Math_MSFontService,sans-serif" font-weight="400" font-size="24" transform="translate(835.328 410)"></text><text fill="#FFFFFF" font-family="Cambria Math,Cambria Math_MSFontService,sans-serif" font-weight="400" font-size="24" transform="translate(840.661 410)"></text><text fill="#FFFFFF" font-family="Cambria Math,Cambria Math_MSFontService,sans-serif" font-weight="400" font-size="24" transform="translate(845.994 410)"></text><text fill="#FFFFFF" font-family="Cambria Math,Cambria Math_MSFontService,sans-serif" font-weight="400" font-size="24" transform="translate(851.328 410)"></text><text fill="#FFFFFF" font-family="Cambria Math,Cambria Math_MSFontService,sans-serif" font-weight="400" font-size="24" transform="translate(856.661 410)"></text><text fill="#FFFFFF" font-family="Cambria Math,Cambria Math_MSFontService,sans-serif" font-weight="400" font-size="24" transform="translate(861.994 410)"></text><text fill="#FFFFFF" font-family="Cambria Math,Cambria Math_MSFontService,sans-serif" font-weight="400" font-size="24" transform="translate(867.328 410)">(</text><text fill="#FFFFFF" font-family="Cambria Math,Cambria Math_MSFontService,sans-serif" font-weight="400" font-size="24" transform="translate(877.328 410)">1𝐶</text><text fill="#FFFFFF" font-family="Cambria Math,Cambria Math_MSFontService,sans-serif" font-weight="400" font-size="24" transform="translate(906.048 410)">)</text><rect x="0.500053" y="0.500053" width="321" height="37" stroke="#7F7F7F" stroke-width="1.33333" stroke-miterlimit="8" fill="#D9D9D9"/><text fill="#A6A6A6" font-family="Arial,Arial_MSFontService,sans-serif" font-weight="700" font-size="21" transform="translate(98.3799 27)">Introduction</text><rect x="320.5" y="0.500053" width="321" height="37" stroke="#7F7F7F" stroke-width="1.33333" stroke-miterlimit="8" fill="#4B5E68"/><text fill="#FFFFFF" font-family="Arial,Arial_MSFontService,sans-serif" font-weight="700" font-size="21" transform="translate(376.718 27)">Materials &amp; Methods</text><rect x="639.5" y="0.500053" width="321" height="37" stroke="#7F7F7F" stroke-width="1.33333" stroke-miterlimit="8" fill="#D9D9D9"/><text fill="#A6A6A6" font-family="Arial,Arial_MSFontService,sans-serif" font-weight="700" font-size="21" transform="translate(690.449 27)">Results &amp; Discussion</text><rect x="959.5" y="0.500053" width="321" height="37" stroke="#7F7F7F" stroke-width="1.33333" stroke-miterlimit="8" fill="#D9D9D9"/><text fill="#A6A6A6" font-family="Arial,Arial_MSFontService,sans-serif" font-weight="700" font-size="21" transform="translate(1061.32 27)">Conclusion</text><text fill="#4B5E68" font-family="Arial,Arial_MSFontService,sans-serif" font-weight="700" font-size="37" transform="translate(94.5099 94)">Necessary information to estimate nosocomial infection risk</text><path d="M76.5001 180.5 1172.56 180.5" stroke="#4B5E68" stroke-miterlimit="8" stroke-dasharray="8 3" fill="none" fill-rule="evenodd"/><text fill="#4B5E68" font-family="Cambria Math,Cambria Math_MSFontService,sans-serif" font-weight="400" font-size="24" transform="translate(339.544 568)">1</text><text fill="#4B5E68" font-family="Cambria Math,Cambria Math_MSFontService,sans-serif" font-weight="400" font-size="24" transform="translate(358.211 568)">−</text><text fill="#4B5E68" font-family="Cambria Math,Cambria Math_MSFontService,sans-serif" font-weight="400" font-size="24" transform="translate(378.877 568)"></text><text fill="#4B5E68" font-family="Cambria Math,Cambria Math_MSFontService,sans-serif" font-weight="400" font-size="24" transform="translate(386.877 568)">𝑃</text><text fill="#4B5E68" font-family="Cambria Math,Cambria Math_MSFontService,sans-serif" font-weight="400" font-size="18" transform="translate(397.024 573)">𝑒</text><text fill="#4B5E68" font-family="Cambria Math,Cambria Math_MSFontService,sans-serif" font-weight="400" font-size="18" transform="translate(402.297 560)">7</text><path d="M434.266 550.39C436.547 550.992 438.299 552.291 439.521 554.287 440.744 556.283 441.355 558.691 441.355 561.511 441.355 564.34 440.746 566.748 439.527 568.736 438.309 570.724 436.555 572.019 434.266 572.621L433.984 571.719C435.789 571.117 437.131 569.929 438.01 568.156 438.889 566.383 439.328 564.129 439.328 561.394 439.328 558.754 438.891 556.56 438.016 554.814 437.141 553.068 435.785 551.894 433.949 551.293ZM422.656 550.39 422.973 551.293C421.145 551.894 419.791 553.068 418.912 554.814 418.033 556.56 417.594 558.754 417.594 561.394 417.594 564.129 418.033 566.383 418.912 568.156 419.791 569.929 421.133 571.117 422.938 571.719L422.656 572.621C420.367 572.019 418.613 570.724 417.395 568.736 416.176 566.748 415.567 564.34 415.567 561.511 415.567 558.691 416.178 556.283 417.401 554.287 418.623 552.291 420.375 550.992 422.656 550.39Z" fill="#4B5E68" fill-rule="evenodd"/><text fill="#4B5E68" font-family="Cambria Math,Cambria Math_MSFontService,sans-serif" font-weight="400" font-size="24" transform="translate(423.417 568)">𝑡</text><text fill="#4B5E68" font-family="Cambria Math,Cambria Math_MSFontService,sans-serif" font-weight="400" font-size="24" transform="translate(450.131 568)">=</text><path d="M34.957-29.7656 34.957-28.8398C33.9414-28.6211 33.1504-28.2461 32.584-27.7148 32.0176-27.1836 31.7344-25.8555 31.7344-23.7305L31.7344 9.76172C31.7344 11.9336 31.9746 13.3047 32.4551 13.875 32.9355 14.4453 33.7773 14.8555 34.9805 15.1055L34.9805 16.0547 25.5469 16.0547 25.5469 15.1055C26.7734 14.8555 27.6191 14.4473 28.084 13.8809 28.5488 13.3145 28.7812 11.9453 28.7812 9.77344L28.7812-28.1953 7.39453-28.1953 7.39453 9.76172C7.39453 11.9336 7.63672 13.3047 8.12109 13.875 8.60547 14.4453 9.45703 14.8555 10.6758 15.1055L10.6758 16.0547 1.23047 16.0547 1.23047 15.1055C2.44922 14.8555 3.28906 14.4473 3.75 13.8809 4.21094 13.3145 4.44141 11.9453 4.44141 9.77344L4.44141-23.7773C4.44141-25.8711 4.17773-27.1758 3.65039-27.6914 3.12305-28.207 2.31641-28.5898 1.23047-28.8398L1.23047-29.7656Z" fill="#4B5E68" transform="translate(474.797 568)"/><text fill="#000000" fill-opacity="0" font-family="Arial,Arial_MSFontService,sans-serif" font-size="45.8203" x="1.23047" y="10.3271">ෑ</text><text fill="#4B5E68" font-family="Cambria Math,Cambria Math_MSFontService,sans-serif" font-weight="400" font-size="24" transform="translate(515.011 568)">𝑞</text><path d="M589.726 550.39C592.007 550.992 593.759 552.291 594.981 554.287 596.204 556.283 596.815 558.691 596.815 561.511 596.815 564.34 596.206 566.748 594.987 568.736 593.769 570.724 592.015 572.019 589.726 572.621L589.444 571.719C591.249 571.117 592.591 569.929 593.47 568.156 594.349 566.383 594.788 564.129 594.788 561.394 594.788 558.754 594.351 556.56 593.476 554.814 592.601 553.068 591.245 551.894 589.409 551.293ZM537.936 550.39 538.253 551.293C536.425 551.894 535.071 553.068 534.192 554.814 533.313 556.56 532.874 558.754 532.874 561.394 532.874 564.129 533.313 566.383 534.192 568.156 535.071 569.929 536.413 571.117 538.218 571.719L537.936 572.621C535.647 572.019 533.893 570.724 532.675 568.736 531.456 566.748 530.847 564.34 530.847 561.511 530.847 558.691 531.458 556.283 532.681 554.287 533.903 552.291 535.655 550.992 537.936 550.39Z" fill="#4B5E68" fill-rule="evenodd"/><text fill="#4B5E68" font-family="Cambria Math,Cambria Math_MSFontService,sans-serif" font-weight="400" font-size="24" transform="translate(538.697 568)">𝑡</text><text fill="#4B5E68" font-family="Cambria Math,Cambria Math_MSFontService,sans-serif" font-weight="400" font-size="24" transform="translate(554.117 568)">+</text><text fill="#4B5E68" font-family="Cambria Math,Cambria Math_MSFontService,sans-serif" font-weight="400" font-size="24" transform="translate(577.451 568)">𝜏</text><text fill="#4B5E68" font-family="Cambria Math,Cambria Math_MSFontService,sans-serif" font-weight="400" font-size="18" transform="translate(598.924 560)">𝐼</text><text fill="#4B5E68" font-family="Cambria Math,Cambria Math_MSFontService,sans-serif" font-weight="400" font-size="14" transform="translate(605.757 563)">ℎ</text><path d="M654.002 546.13C655.713 546.582 657.027 547.556 657.944 549.053 658.861 550.55 659.319 552.356 659.319 554.471 659.319 556.592 658.862 558.398 657.948 559.89 657.034 561.381 655.719 562.352 654.002 562.803L653.791 562.127C655.144 561.675 656.151 560.785 656.81 559.455 657.469 558.125 657.799 556.434 657.799 554.383 657.799 552.403 657.471 550.758 656.814 549.448 656.158 548.139 655.141 547.258 653.765 546.807ZM623.05 546.13 623.287 546.807C621.916 547.258 620.901 548.139 620.242 549.448 619.583 550.758 619.253 552.403 619.253 554.383 619.253 556.434 619.583 558.125 620.242 559.455 620.901 560.785 621.907 561.675 623.261 562.127L623.05 562.803C621.333 562.352 620.018 561.381 619.104 559.89 618.19 558.398 617.733 556.592 617.733 554.471 617.733 552.356 618.191 550.55 619.108 549.053 620.025 547.556 621.339 546.582 623.05 546.13Z" fill="#4B5E68" fill-rule="evenodd"/><text fill="#4B5E68" font-family="Cambria Math,Cambria Math_MSFontService,sans-serif" font-weight="400" font-size="18" transform="translate(623.424 560)">𝑡</text><text fill="#4B5E68" font-family="Cambria Math,Cambria Math_MSFontService,sans-serif" font-weight="400" font-size="18" transform="translate(631.557 560)">+</text><text fill="#4B5E68" font-family="Cambria Math,Cambria Math_MSFontService,sans-serif" font-weight="400" font-size="18" transform="translate(644.224 560)">𝜏</text><text fill="#4B5E68" font-family="Cambria Math,Cambria Math_MSFontService,sans-serif" font-weight="400" font-size="18" transform="translate(487.817 533)">6</text><text fill="#4B5E68" font-family="Cambria Math,Cambria Math_MSFontService,sans-serif" font-weight="400" font-size="18" transform="translate(476.884 599)">𝜏</text><text fill="#4B5E68" font-family="Cambria Math,Cambria Math_MSFontService,sans-serif" font-weight="400" font-size="18" transform="translate(486.091 599)">=</text><text fill="#4B5E68" font-family="Cambria Math,Cambria Math_MSFontService,sans-serif" font-weight="400" font-size="18" transform="translate(498.757 599)">0</text><text fill="#4B5E68" font-family="Cambria Math,Cambria Math_MSFontService,sans-serif" font-weight="400" font-size="24" transform="translate(668.364 568)">≈</text><text fill="#4B5E68" font-family="Cambria Math,Cambria Math_MSFontService,sans-serif" font-weight="400" font-size="24" transform="translate(689.364 568)"></text><path d="M34.957-29.7656 34.957-28.8398C33.9414-28.6211 33.1504-28.2461 32.584-27.7148 32.0176-27.1836 31.7344-25.8555 31.7344-23.7305L31.7344 9.76172C31.7344 11.9336 31.9746 13.3047 32.4551 13.875 32.9355 14.4453 33.7773 14.8555 34.9805 15.1055L34.9805 16.0547 25.5469 16.0547 25.5469 15.1055C26.7734 14.8555 27.6191 14.4473 28.084 13.8809 28.5488 13.3145 28.7812 11.9453 28.7812 9.77344L28.7812-28.1953 7.39453-28.1953 7.39453 9.76172C7.39453 11.9336 7.63672 13.3047 8.12109 13.875 8.60547 14.4453 9.45703 14.8555 10.6758 15.1055L10.6758 16.0547 1.23047 16.0547 1.23047 15.1055C2.44922 14.8555 3.28906 14.4473 3.75 13.8809 4.21094 13.3145 4.44141 11.9453 4.44141 9.77344L4.44141-23.7773C4.44141-25.8711 4.17773-27.1758 3.65039-27.6914 3.12305-28.207 2.31641-28.5898 1.23047-28.8398L1.23047-29.7656Z" fill="#4B5E68" transform="translate(698.031 568)"/><text fill="#000000" fill-opacity="0" font-family="Arial,Arial_MSFontService,sans-serif" font-size="45.8203" x="1.23047" y="10.3271">ෑ</text><text fill="#A0234E" font-family="Cambria Math,Cambria Math_MSFontService,sans-serif" font-weight="400" font-size="24" transform="translate(738.244 568)">𝑞</text><path d="M812.959 550.39C815.24 550.992 816.992 552.291 818.215 554.287 819.438 556.283 820.049 558.691 820.049 561.511 820.049 564.34 819.439 566.748 818.221 568.736 817.002 570.724 815.248 572.019 812.959 572.621L812.678 571.719C814.482 571.117 815.824 569.929 816.703 568.156 817.582 566.383 818.021 564.129 818.021 561.394 818.021 558.754 817.584 556.56 816.709 554.814 815.834 553.068 814.479 551.894 812.643 551.293ZM761.17 550.39 761.486 551.293C759.658 551.894 758.305 553.068 757.426 554.814 756.547 556.56 756.107 558.754 756.107 561.394 756.107 564.129 756.547 566.383 757.426 568.156 758.305 569.929 759.646 571.117 761.451 571.719L761.17 572.621C758.881 572.019 757.127 570.724 755.908 568.736 754.689 566.748 754.08 564.34 754.08 561.511 754.08 558.691 754.691 556.283 755.914 554.287 757.137 552.291 758.889 550.992 761.17 550.39Z" fill="#A0234E" fill-rule="evenodd"/><text fill="#A0234E" font-family="Cambria Math,Cambria Math_MSFontService,sans-serif" font-weight="400" font-size="24" transform="translate(761.931 568)">𝑡</text><text fill="#A0234E" font-family="Cambria Math,Cambria Math_MSFontService,sans-serif" font-weight="400" font-size="24" transform="translate(777.351 568)">−</text><text fill="#A0234E" font-family="Cambria Math,Cambria Math_MSFontService,sans-serif" font-weight="400" font-size="24" transform="translate(800.684 568)">𝜏</text><text fill="#A0234E" font-family="Cambria Math,Cambria Math_MSFontService,sans-serif" font-weight="400" font-size="18" transform="translate(822.157 560)">𝐼</text><text fill="#A0234E" font-family="Cambria Math,Cambria Math_MSFontService,sans-serif" font-weight="400" font-size="14" transform="translate(828.991 563)">ℎ</text><path d="M877.235 546.13C878.946 546.582 880.26 547.556 881.177 549.053 882.094 550.55 882.553 552.356 882.553 554.471 882.553 556.592 882.096 558.398 881.181 559.89 880.267 561.381 878.952 562.352 877.235 562.803L877.024 562.127C878.378 561.675 879.384 560.785 880.043 559.455 880.702 558.125 881.032 556.434 881.032 554.383 881.032 552.403 880.704 550.758 880.048 549.448 879.391 548.139 878.375 547.258 876.998 546.807ZM846.283 546.13 846.521 546.807C845.15 547.258 844.134 548.139 843.475 549.448 842.816 550.758 842.486 552.403 842.486 554.383 842.486 556.434 842.816 558.125 843.475 559.455 844.134 560.785 845.141 561.675 846.494 562.127L846.283 562.803C844.567 562.352 843.251 561.381 842.337 559.89 841.423 558.398 840.966 556.592 840.966 554.471 840.966 552.356 841.424 550.55 842.341 549.053 843.258 547.556 844.572 546.582 846.283 546.13Z" fill="#A0234E" fill-rule="evenodd"/><text fill="#A0234E" font-family="Cambria Math,Cambria Math_MSFontService,sans-serif" font-weight="400" font-size="18" transform="translate(846.657 560)">𝑡</text><text fill="#A0234E" font-family="Cambria Math,Cambria Math_MSFontService,sans-serif" font-weight="400" font-size="18" transform="translate(854.791 560)">−</text><text fill="#A0234E" font-family="Cambria Math,Cambria Math_MSFontService,sans-serif" font-weight="400" font-size="18" transform="translate(867.457 560)">𝜏</text><text fill="#4B5E68" font-family="Cambria Math,Cambria Math_MSFontService,sans-serif" font-weight="400" font-size="18" transform="translate(711.051 533)">6</text><text fill="#4B5E68" font-family="Cambria Math,Cambria Math_MSFontService,sans-serif" font-weight="400" font-size="18" transform="translate(700.117 599)">𝜏</text><text fill="#4B5E68" font-family="Cambria Math,Cambria Math_MSFontService,sans-serif" font-weight="400" font-size="18" transform="translate(709.324 599)">=</text><text fill="#4B5E68" font-family="Cambria Math,Cambria Math_MSFontService,sans-serif" font-weight="400" font-size="18" transform="translate(721.991 599)">0</text><path d="M315.301 312.331 316.026 312.331C315.974 313.175 315.947 314.344 315.947 315.838L315.947 327.097C315.947 327.606 315.976 327.991 316.033 328.25 316.09 328.509 316.191 328.72 316.336 328.883 316.481 329.046 316.69 329.173 316.962 329.265 317.235 329.358 317.578 329.428 317.991 329.476 318.404 329.525 318.949 329.558 319.625 329.575L319.625 330.538 309.883 330.538 309.883 329.575C310.858 329.531 311.555 329.472 311.972 329.397 312.39 329.322 312.708 329.21 312.928 329.061 313.148 328.912 313.308 328.701 313.409 328.428 313.51 328.156 313.561 327.712 313.561 327.097L313.561 316.405C313.561 316.053 313.499 315.796 313.376 315.633 313.253 315.471 313.073 315.39 312.836 315.39 312.555 315.39 312.155 315.535 311.636 315.825 311.118 316.115 310.476 316.515 309.711 317.024L309.131 316.009Z" fill="#4B5E68" fill-rule="evenodd"/><text fill="#000000" fill-opacity="0" font-family="Arial,Arial_MSFontService,sans-serif" font-size="18.2065" x="309.131" y="328.262">1</text><path d="M329.509 321.942 345.751 321.942 345.751 323.695 329.509 323.695Z" fill="#4B5E68" fill-rule="evenodd"/><text fill="#000000" fill-opacity="0" font-family="Arial,Arial_MSFontService,sans-serif" font-size="1.75342" x="329.509" y="323.476">−</text><path d="M369.034 313.702C368.489 313.702 367.918 313.715 367.32 313.742L365.527 321.731 366.898 321.731C367.962 321.731 368.821 321.621 369.476 321.401 370.13 321.182 370.667 320.841 371.084 320.38 371.502 319.918 371.825 319.371 372.053 318.738 372.282 318.105 372.396 317.411 372.396 316.655 372.396 315.636 372.137 314.889 371.618 314.414 371.099 313.939 370.238 313.702 369.034 313.702ZM363.51 312.542 369.324 312.542C370.37 312.542 371.229 312.623 371.901 312.786 372.574 312.948 373.128 313.199 373.563 313.537 373.998 313.876 374.323 314.304 374.538 314.823 374.754 315.341 374.861 315.943 374.861 316.629 374.861 317.947 374.549 319.09 373.925 320.057 373.301 321.023 372.455 321.735 371.387 322.192 370.319 322.649 369.038 322.878 367.544 322.878 366.648 322.878 365.901 322.86 365.303 322.825L364.459 326.701C364.38 327.061 364.325 327.338 364.295 327.532 364.264 327.725 364.237 327.934 364.215 328.158 364.193 328.382 364.182 328.582 364.182 328.758 364.182 329.03 364.226 329.243 364.314 329.397 364.402 329.551 364.534 329.663 364.71 329.733 364.886 329.804 365.189 329.856 365.62 329.892L365.474 330.538 360.056 330.538 360.201 329.892C360.535 329.839 360.786 329.753 360.953 329.634 361.12 329.516 361.26 329.351 361.374 329.14 361.489 328.929 361.594 328.672 361.691 328.369 361.787 328.066 361.932 327.479 362.126 326.609L364.367 316.457C364.56 315.579 364.657 314.884 364.657 314.374 364.657 313.944 364.556 313.645 364.354 313.478 364.152 313.311 363.822 313.214 363.365 313.188Z" fill="#4B5E68" fill-rule="evenodd"/><text fill="#000000" fill-opacity="0" font-family="Arial,Arial_MSFontService,sans-serif" font-size="17.9956" x="360.056" y="328.288">𝑃</text><path d="M377.391 327.691 377.846 327.691 376.473 333.87C376.386 334.235 376.326 334.526 376.292 334.742 376.258 334.959 376.241 335.154 376.241 335.327 376.241 335.562 376.289 335.732 376.384 335.837 376.48 335.942 376.624 335.995 376.816 335.995 376.927 335.995 377.038 335.973 377.15 335.93 377.261 335.886 377.38 335.818 377.507 335.726 377.634 335.633 377.773 335.514 377.924 335.368 378.076 335.223 378.245 335.048 378.43 334.844L379.061 335.457C378.739 335.784 378.447 336.061 378.184 336.287 377.921 336.513 377.672 336.697 377.437 336.839 377.202 336.981 376.972 337.083 376.746 337.145 376.521 337.207 376.281 337.238 376.027 337.238 375.792 337.238 375.58 337.195 375.392 337.108 375.203 337.021 375.041 336.902 374.905 336.751 374.769 336.599 374.663 336.418 374.589 336.208 374.515 335.998 374.478 335.766 374.478 335.512 374.478 335.308 374.503 335.055 374.552 334.752 374.602 334.448 374.665 334.119 374.742 333.763 374.82 333.408 374.905 333.035 374.997 332.646 375.09 332.256 375.181 331.869 375.271 331.486 375.361 331.102 375.441 330.733 375.512 330.377 375.583 330.022 375.635 329.698 375.665 329.408 375.678 329.358 375.684 329.31 375.684 329.264 375.684 329.218 375.684 329.176 375.684 329.139 375.672 328.898 375.587 328.721 375.429 328.61 375.271 328.499 374.991 328.437 374.589 328.424L374.701 327.794ZM376.853 323.953 378.708 323.953 378.254 325.947 376.417 325.947Z" fill="#4B5E68" fill-rule="evenodd"/><text fill="#000000" fill-opacity="0" font-family="Arial,Arial_MSFontService,sans-serif" font-size="13.2852" x="374.478" y="335.577">𝑖</text><path d="M378.202 307.84 386.273 307.84 386.273 308.285 380.828 319.724 379.408 319.724 379.408 319.306 384.399 309.602 384.399 309.463 380.466 309.463C380.194 309.463 379.982 309.485 379.83 309.528 379.679 309.571 379.544 309.633 379.427 309.714 379.377 309.757 379.334 309.802 379.297 309.848 379.26 309.895 379.223 309.956 379.185 310.034 379.148 310.111 379.11 310.213 379.069 310.34 379.029 310.467 378.981 310.629 378.926 310.827L377.998 310.827Z" fill="#4B5E68" fill-rule="evenodd"/><text fill="#000000" fill-opacity="0" font-family="Arial,Arial_MSFontService,sans-serif" font-size="11.8843" x="377.998" y="318.238">7</text><path d="M411.975 310.334C414.541 311.011 416.512 312.472 417.888 314.717 419.263 316.963 419.951 319.672 419.951 322.845 419.951 326.027 419.265 328.736 417.894 330.973 416.523 333.21 414.55 334.666 411.975 335.343L411.658 334.328C413.689 333.651 415.198 332.315 416.187 330.32 417.176 328.325 417.67 325.789 417.67 322.713 417.67 319.743 417.178 317.275 416.194 315.311 415.209 313.346 413.684 312.026 411.619 311.349ZM399.247 310.334 399.603 311.349C397.546 312.026 396.024 313.346 395.035 315.311 394.046 317.275 393.552 319.743 393.552 322.713 393.552 325.789 394.046 328.325 395.035 330.32 396.024 332.315 397.533 333.651 399.563 334.328L399.247 335.343C396.672 334.666 394.699 333.21 393.328 330.973 391.956 328.736 391.271 326.027 391.271 322.845 391.271 319.672 391.959 316.963 393.334 314.717 394.71 312.472 396.681 311.011 399.247 310.334Z" fill="#4B5E68" fill-rule="evenodd"/><path d="M405.119 314.678 406.939 314.678 406.214 317.934 410.221 317.934 409.931 319.266 405.924 319.266 404.75 324.381C404.522 325.374 404.377 326.088 404.315 326.523 404.254 326.958 404.223 327.308 404.223 327.571 404.223 328.661 404.676 329.206 405.581 329.206 405.967 329.206 406.378 329.059 406.813 328.764 407.249 328.47 407.765 327.967 408.363 327.255L409.127 328.046C408.363 328.969 407.626 329.65 406.919 330.089 406.211 330.529 405.471 330.748 404.697 330.748 402.861 330.748 401.942 329.821 401.942 327.967 401.942 327.378 402.017 326.758 402.166 326.108L403.722 319.266 401.507 319.266 401.705 318.356C402.223 318.347 402.617 318.308 402.885 318.237 403.153 318.167 403.377 318.07 403.557 317.947 403.737 317.824 403.902 317.648 404.051 317.42 404.201 317.191 404.346 316.899 404.487 316.543 404.627 316.187 404.838 315.565 405.119 314.678Z" fill="#4B5E68" fill-rule="evenodd"/><text fill="#000000" fill-opacity="0" font-family="Arial,Arial_MSFontService,sans-serif" font-size="16.0708" x="401.507" y="328.74">𝑡</text><path d="M437.389 324.684 453.631 324.684 453.631 326.437 437.389 326.437ZM437.389 319.213 453.631 319.213 453.631 320.966 437.389 320.966Z" fill="#4B5E68" fill-rule="evenodd"/><text fill="#000000" fill-opacity="0" font-family="Arial,Arial_MSFontService,sans-serif" font-size="7.22461" x="437.389" y="325.534">=</text><path d="M464.389 297.051 502.331 297.051 502.331 298.093C501.189 298.339 500.299 298.761 499.662 299.358 499.024 299.956 498.706 301.45 498.706 303.841L498.706 341.519C498.706 343.963 498.976 345.505 499.517 346.147 500.057 346.789 501.004 347.25 502.358 347.531L502.358 348.599 491.745 348.599 491.745 347.531C493.125 347.25 494.076 346.791 494.599 346.154 495.122 345.516 495.383 343.976 495.383 341.533L495.383 298.818 471.323 298.818 471.323 341.519C471.323 343.963 471.596 345.505 472.141 346.147 472.686 346.789 473.644 347.25 475.015 347.531L475.015 348.599 464.389 348.599 464.389 347.531C465.76 347.25 466.705 346.791 467.223 346.154 467.742 345.516 468.001 343.976 468.001 341.533L468.001 303.788C468.001 301.433 467.705 299.965 467.111 299.385 466.518 298.805 465.611 298.374 464.389 298.093Z" fill="#4B5E68" fill-rule="evenodd"/><text fill="#000000" fill-opacity="0" font-family="Arial,Arial_MSFontService,sans-serif" font-size="51.5479" x="464.389" y="342.156">ෑ</text><path d="M945.552 282.932C949.525 286.825 952.625 292.164 954.853 298.95 957.081 305.735 958.195 313.676 958.195 322.772 958.195 331.939 957.081 339.915 954.853 346.701 952.625 353.486 949.525 358.825 945.552 362.719L944.708 361.783C948.268 357.801 950.957 352.453 952.776 345.738 954.596 339.023 955.505 331.377 955.505 322.799 955.505 314.265 954.596 306.638 952.776 299.919 950.957 293.199 948.268 287.849 944.708 283.868ZM522.617 282.932 523.461 283.868C519.901 287.849 517.212 293.199 515.392 299.919 513.573 306.638 512.663 314.265 512.663 322.799 512.663 331.377 513.573 339.023 515.392 345.738 517.212 352.453 519.901 357.801 523.461 361.783L522.617 362.719C518.644 358.825 515.544 353.486 513.316 346.701 511.088 339.915 509.974 331.939 509.974 322.772 509.974 313.676 511.088 305.735 513.316 298.95 515.544 292.164 518.644 286.825 522.617 282.932Z" fill="#4B5E68" fill-rule="evenodd"/><path d="M735.081 292.151 735.806 292.151C735.754 292.995 735.727 294.164 735.727 295.658L735.727 306.917C735.727 307.426 735.756 307.811 735.813 308.07 735.87 308.329 735.971 308.54 736.116 308.703 736.261 308.866 736.47 308.993 736.742 309.085 737.015 309.178 737.358 309.248 737.771 309.296 738.184 309.345 738.729 309.378 739.405 309.395L739.405 310.358 729.663 310.358 729.663 309.395C730.638 309.351 731.335 309.292 731.752 309.217 732.17 309.142 732.488 309.03 732.708 308.881 732.928 308.732 733.088 308.521 733.189 308.248 733.29 307.976 733.341 307.532 733.341 306.917L733.341 296.225C733.341 295.873 733.279 295.616 733.156 295.453 733.033 295.291 732.853 295.21 732.616 295.21 732.335 295.21 731.935 295.355 731.416 295.645 730.898 295.935 730.256 296.335 729.491 296.844L728.911 295.829Z" fill="#4B5E68" fill-rule="evenodd"/><text fill="#000000" fill-opacity="0" font-family="Arial,Arial_MSFontService,sans-serif" font-size="18.2065" x="728.911" y="308.082">1</text><path d="M532.635 335.998 533.36 335.998C533.307 336.841 533.281 338.01 533.281 339.504L533.281 350.763C533.281 351.273 533.309 351.658 533.366 351.917 533.423 352.176 533.524 352.387 533.669 352.55 533.814 352.712 534.023 352.84 534.296 352.932 534.568 353.024 534.911 353.095 535.324 353.143 535.737 353.191 536.282 353.224 536.959 353.242L536.959 354.204 527.216 354.204 527.216 353.242C528.192 353.198 528.888 353.139 529.306 353.064 529.723 352.989 530.042 352.877 530.261 352.728 530.481 352.578 530.642 352.367 530.743 352.095 530.844 351.822 530.894 351.379 530.894 350.763L530.894 340.071C530.894 339.72 530.833 339.463 530.71 339.3 530.587 339.138 530.406 339.056 530.169 339.056 529.888 339.056 529.488 339.201 528.969 339.491 528.451 339.781 527.809 340.181 527.045 340.691L526.465 339.676Z" fill="#4B5E68" fill-rule="evenodd"/><text fill="#000000" fill-opacity="0" font-family="Arial,Arial_MSFontService,sans-serif" font-size="18.2065" x="526.465" y="351.928">1</text><path d="M554.027 338.015 555.899 338.015 555.899 345.608 563.084 345.608 563.084 347.362 555.899 347.362 555.899 354.956 554.027 354.956 554.027 347.362 546.842 347.362 546.842 345.608 554.027 345.608Z" fill="#4B5E68" fill-rule="evenodd"/><text fill="#000000" fill-opacity="0" font-family="Arial,Arial_MSFontService,sans-serif" font-size="16.9409" x="546.842" y="352.838">+</text><path d="M580.297 337.369C579.831 337.369 579.339 337.386 578.82 337.421L577.133 345.055 578.688 345.055C579.963 345.055 580.969 344.883 581.707 344.541 582.446 344.198 583.03 343.635 583.461 342.853 583.891 342.071 584.107 341.227 584.107 340.322 584.107 339.944 584.072 339.608 584.001 339.313 583.931 339.019 583.839 338.775 583.724 338.582 583.61 338.388 583.465 338.217 583.289 338.067 583.114 337.918 582.894 337.788 582.63 337.679 582.367 337.569 582.061 337.49 581.714 337.441 581.367 337.393 580.894 337.369 580.297 337.369ZM575.01 336.209 580.877 336.209C581.808 336.209 582.569 336.264 583.158 336.373 583.746 336.483 584.25 336.648 584.667 336.868 585.085 337.087 585.434 337.371 585.715 337.718 585.996 338.065 586.207 338.456 586.348 338.891 586.489 339.327 586.559 339.79 586.559 340.282 586.559 341.636 586.146 342.787 585.32 343.736 584.494 344.686 583.276 345.406 581.668 345.899L581.668 346.044C582.09 346.36 582.43 346.738 582.69 347.177 582.949 347.617 583.158 348.228 583.316 349.01L583.619 350.539C583.716 351.023 583.826 351.458 583.949 351.844 584.072 352.231 584.219 352.539 584.39 352.767 584.562 352.996 584.755 353.167 584.97 353.281 585.186 353.396 585.5 353.488 585.913 353.558L585.781 354.204 582.129 354.204C581.848 353.422 581.598 352.49 581.378 351.409L580.798 348.614C580.701 348.131 580.585 347.724 580.448 347.395 580.312 347.065 580.15 346.81 579.961 346.63 579.772 346.45 579.552 346.331 579.301 346.274 579.051 346.217 578.745 346.189 578.385 346.189L576.882 346.189 575.959 350.368C575.88 350.711 575.825 350.983 575.795 351.185 575.764 351.387 575.737 351.6 575.715 351.825 575.693 352.049 575.682 352.249 575.682 352.424 575.682 352.697 575.726 352.91 575.814 353.064 575.902 353.218 576.034 353.33 576.21 353.4 576.386 353.47 576.689 353.523 577.12 353.558L576.974 354.204 571.556 354.204 571.701 353.558C572.035 353.505 572.286 353.42 572.453 353.301 572.62 353.182 572.76 353.018 572.874 352.807 572.989 352.596 573.094 352.339 573.191 352.035 573.287 351.732 573.432 351.146 573.626 350.275L575.867 340.124C576.06 339.245 576.157 338.551 576.157 338.041 576.157 337.61 576.056 337.312 575.854 337.145 575.652 336.978 575.322 336.881 574.865 336.855Z" fill="#A0234E" fill-rule="evenodd"/><text fill="#000000" fill-opacity="0" font-family="Arial,Arial_MSFontService,sans-serif" font-size="17.9956" x="571.556" y="351.955">𝑅</text><path d="M591.804 354.111 592.259 354.111 590.886 360.29C590.799 360.655 590.739 360.946 590.705 361.162 590.671 361.379 590.654 361.574 590.654 361.747 590.654 361.982 590.702 362.152 590.798 362.257 590.894 362.362 591.037 362.415 591.229 362.415 591.341 362.415 591.452 362.393 591.563 362.35 591.674 362.306 591.794 362.238 591.92 362.146 592.047 362.053 592.186 361.934 592.338 361.788 592.489 361.643 592.658 361.468 592.843 361.264L593.474 361.877C593.153 362.204 592.86 362.481 592.598 362.707 592.335 362.933 592.086 363.117 591.851 363.259 591.616 363.401 591.385 363.503 591.16 363.565 590.934 363.627 590.694 363.658 590.441 363.658 590.206 363.658 589.994 363.615 589.805 363.528 589.616 363.441 589.454 363.322 589.318 363.171 589.182 363.019 589.077 362.838 589.003 362.628 588.928 362.418 588.891 362.186 588.891 361.932 588.891 361.728 588.916 361.475 588.966 361.172 589.015 360.868 589.078 360.539 589.156 360.184 589.233 359.828 589.318 359.455 589.411 359.066 589.504 358.676 589.595 358.289 589.685 357.906 589.774 357.522 589.855 357.153 589.926 356.797 589.997 356.442 590.048 356.118 590.079 355.828 590.091 355.778 590.097 355.73 590.097 355.684 590.097 355.638 590.097 355.596 590.097 355.559 590.085 355.318 590 355.141 589.842 355.03 589.685 354.919 589.405 354.857 589.003 354.844L589.114 354.214ZM591.266 350.373 593.122 350.373 592.667 352.367 590.83 352.367Z" fill="#A0234E" fill-rule="evenodd"/><text fill="#000000" fill-opacity="0" font-family="Arial,Arial_MSFontService,sans-serif" font-size="13.2852" x="588.891" y="361.997">𝑖</text><path d="M595.19 331.904C594.85 331.904 594.514 331.987 594.183 332.154 593.853 332.321 593.54 332.558 593.246 332.864 592.953 333.17 592.685 333.541 592.444 333.977 592.203 334.413 592.002 334.9 591.841 335.438 592.626 335.432 593.302 335.37 593.868 335.253 594.434 335.135 594.898 334.975 595.26 334.771 595.621 334.566 595.887 334.325 596.057 334.047 596.228 333.769 596.313 333.462 596.313 333.128 596.313 332.745 596.217 332.445 596.025 332.229 595.833 332.012 595.555 331.904 595.19 331.904ZM595.589 330.985C596.381 330.985 596.982 331.159 597.393 331.505 597.805 331.851 598.01 332.343 598.01 332.98 598.01 335.219 595.892 336.338 591.655 336.338 591.624 336.499 591.6 336.674 591.581 336.863 591.563 337.051 591.553 337.257 591.553 337.479 591.553 338.154 591.691 338.645 591.966 338.955 592.241 339.264 592.67 339.418 593.251 339.418 593.554 339.418 593.842 339.386 594.114 339.321 594.386 339.256 594.654 339.156 594.916 339.02 595.179 338.883 595.444 338.709 595.71 338.495 595.976 338.282 596.254 338.027 596.545 337.73L597.24 338.481C596.523 339.193 595.807 339.728 595.093 340.086 594.378 340.445 593.61 340.625 592.787 340.625 592.305 340.625 591.877 340.552 591.502 340.406 591.128 340.261 590.813 340.049 590.556 339.771 590.299 339.493 590.105 339.154 589.972 338.755 589.839 338.356 589.772 337.906 589.772 337.405 589.772 337.053 589.803 336.686 589.865 336.306 589.927 335.926 590.023 335.545 590.152 335.165 590.282 334.784 590.443 334.413 590.635 334.052 590.827 333.69 591.052 333.351 591.312 333.036 591.832 332.392 592.458 331.89 593.191 331.528 593.924 331.166 594.723 330.985 595.589 330.985ZM619.927 327.488C620.267 327.488 620.567 327.505 620.827 327.539 621.087 327.573 621.337 327.615 621.578 327.664L621.198 329.39 620.279 329.39C620.236 329.037 620.131 328.779 619.964 328.615 619.797 328.451 619.574 328.369 619.296 328.369 618.974 328.369 618.704 328.439 618.484 328.578 618.265 328.717 618.073 328.927 617.909 329.209 617.745 329.49 617.604 329.819 617.487 330.197 617.369 330.574 617.289 330.902 617.246 331.18L619.816 331.18 619.611 332.21 617.032 332.21 615.353 340.161C615.062 341.515 614.591 342.519 613.938 343.171 613.286 343.824 612.415 344.15 611.327 344.15 611.042 344.15 610.835 344.131 610.705 344.094 610.742 343.94 610.776 343.78 610.807 343.616 610.838 343.453 610.875 343.293 610.919 343.139 610.956 343.151 611.008 343.157 611.076 343.157 611.144 343.157 611.24 343.157 611.364 343.157 611.605 343.157 611.826 343.119 612.027 343.041 612.228 342.964 612.412 342.825 612.579 342.624 612.746 342.423 612.899 342.148 613.038 341.798 613.178 341.449 613.309 340.999 613.433 340.448L615.288 332.21 613.693 332.21 613.859 331.496C614.2 331.477 614.47 331.455 614.671 331.431 614.872 331.406 615.042 331.352 615.182 331.268 615.321 331.185 615.424 331.044 615.492 330.846 615.851 329.714 616.391 328.872 617.111 328.318 617.832 327.765 618.77 327.488 619.927 327.488ZM608.927 327.488C609.267 327.488 609.567 327.505 609.827 327.539 610.087 327.573 610.337 327.615 610.578 327.664L610.198 329.39 609.279 329.39C609.236 329.037 609.131 328.779 608.964 328.615 608.797 328.451 608.574 328.369 608.296 328.369 607.974 328.369 607.704 328.439 607.484 328.578 607.265 328.717 607.073 328.927 606.909 329.209 606.745 329.49 606.604 329.819 606.487 330.197 606.369 330.574 606.289 330.902 606.246 331.18L608.816 331.18 608.611 332.21 606.032 332.21 604.353 340.161C604.062 341.515 603.591 342.519 602.938 343.171 602.286 343.824 601.415 344.15 600.327 344.15 600.042 344.15 599.835 344.131 599.705 344.094 599.742 343.94 599.776 343.78 599.807 343.616 599.838 343.453 599.875 343.293 599.919 343.139 599.956 343.151 600.008 343.157 600.076 343.157 600.144 343.157 600.24 343.157 600.364 343.157 600.605 343.157 600.826 343.119 601.027 343.041 601.228 342.964 601.412 342.825 601.579 342.624 601.746 342.423 601.899 342.148 602.038 341.798 602.178 341.449 602.309 340.999 602.433 340.448L604.288 332.21 602.693 332.21 602.859 331.496C603.2 331.477 603.47 331.455 603.671 331.431 603.872 331.406 604.042 331.352 604.182 331.268 604.321 331.185 604.424 331.044 604.492 330.846 604.851 329.714 605.391 328.872 606.111 328.318 606.832 327.765 607.77 327.488 608.927 327.488Z" fill="#A0234E" fill-rule="evenodd"/><text fill="#000000" fill-opacity="0" font-family="Arial,Arial_MSFontService,sans-serif" font-size="16.6621" x="589.772" y="342.067">𝑒𝑓𝑓</text><path d="M647.122 334.001C649.688 334.677 651.659 336.139 653.034 338.384 654.41 340.63 655.098 343.339 655.098 346.512 655.098 349.693 654.412 352.403 653.041 354.639 651.67 356.876 649.697 358.333 647.122 359.01L646.805 357.995C648.835 357.318 650.345 355.982 651.334 353.987 652.322 351.992 652.817 349.456 652.817 346.38 652.817 343.409 652.325 340.942 651.34 338.977 650.356 337.013 648.831 335.692 646.766 335.016ZM634.394 334.001 634.75 335.016C632.693 335.692 631.17 337.013 630.182 338.977 629.193 340.942 628.698 343.409 628.698 346.38 628.698 349.456 629.193 351.992 630.182 353.987 631.17 355.982 632.68 357.318 634.71 357.995L634.394 359.01C631.818 358.333 629.845 356.876 628.474 354.639 627.103 352.403 626.418 349.693 626.418 346.512 626.418 343.339 627.105 340.63 628.481 338.384 629.856 336.139 631.827 334.677 634.394 334.001Z" fill="#A0234E" fill-rule="evenodd"/><path d="M640.266 338.344 642.085 338.344 641.36 341.601 645.368 341.601 645.078 342.932 641.07 342.932 639.897 348.047C639.668 349.041 639.523 349.755 639.462 350.19 639.4 350.625 639.37 350.974 639.37 351.238 639.37 352.328 639.822 352.873 640.727 352.873 641.114 352.873 641.525 352.725 641.96 352.431 642.395 352.137 642.912 351.633 643.509 350.921L644.274 351.712C643.509 352.635 642.773 353.316 642.066 353.756 641.358 354.195 640.618 354.415 639.844 354.415 638.007 354.415 637.089 353.488 637.089 351.633 637.089 351.045 637.164 350.425 637.313 349.775L638.869 342.932 636.654 342.932 636.852 342.023C637.37 342.014 637.763 341.974 638.031 341.904 638.299 341.834 638.524 341.737 638.704 341.614 638.884 341.491 639.049 341.315 639.198 341.087 639.348 340.858 639.493 340.566 639.633 340.21 639.774 339.854 639.985 339.232 640.266 338.344Z" fill="#A0234E" fill-rule="evenodd"/><text fill="#000000" fill-opacity="0" font-family="Arial,Arial_MSFontService,sans-serif" font-size="16.0708" x="636.654" y="352.406">𝑡</text><path d="M662.622 334.238 678.903 334.238 678.903 340.105 677.48 340.105C677.26 339.27 677.051 338.589 676.853 338.062 676.656 337.534 676.453 337.117 676.247 336.809 676.04 336.502 675.829 336.267 675.614 336.104 675.399 335.941 675.15 335.818 674.869 335.735 674.588 335.651 674.214 335.61 673.749 335.61L666.405 335.61 672.826 345.352 672.826 346.354 665.628 356.242 674.302 356.242C674.847 356.242 675.258 356.207 675.535 356.136 675.812 356.066 676.049 355.958 676.247 355.813 676.445 355.668 676.625 355.466 676.787 355.207 676.95 354.948 677.106 354.59 677.255 354.133 677.405 353.675 677.545 353.078 677.677 352.34L679.22 352.34 678.837 358.773 662.121 358.773 662.121 358.035 670.268 346.842 662.622 334.99Z" fill="#4B5E68" fill-rule="evenodd"/><text fill="#000000" fill-opacity="0" font-family="Arial,Arial_MSFontService,sans-serif" font-size="24.5347" x="662.121" y="355.706">σ</text><path d="M730.957 342.418C730.06 342.418 729.256 342.781 728.544 343.506 727.832 344.231 727.272 345.209 726.863 346.439 726.454 347.67 726.25 348.896 726.25 350.117 726.25 351.031 726.382 351.715 726.646 352.167 726.909 352.62 727.322 352.846 727.885 352.846 728.333 352.846 728.779 352.692 729.223 352.385 729.667 352.077 730.141 351.589 730.647 350.921 731.152 350.254 731.546 349.616 731.827 349.01 732.108 348.403 732.348 347.648 732.545 346.742 732.743 345.837 732.842 345.05 732.842 344.382 732.842 343.697 732.697 343.198 732.407 342.886 732.117 342.574 731.633 342.418 730.957 342.418ZM730.746 341.377C731.299 341.377 731.822 341.442 732.315 341.574 732.807 341.706 733.303 341.93 733.804 342.247L735.017 341.377 735.861 341.587 734.503 347.731C734.406 348.162 734.187 349.247 733.844 350.987 733.484 352.833 733.191 354.138 732.967 354.903 732.743 355.668 732.464 356.364 732.13 356.993 731.796 357.621 731.365 358.168 730.838 358.634 730.311 359.1 729.671 359.46 728.92 359.715 728.168 359.97 727.278 360.097 726.25 360.097 722.928 360.097 721.267 359.13 721.267 357.197 721.267 356.705 721.416 356.256 721.715 355.852 722.014 355.448 722.493 355.022 723.152 354.573L724.101 355.338C723.934 355.54 723.794 355.74 723.679 355.938 723.565 356.136 723.484 356.327 723.435 356.511 723.387 356.696 723.363 356.916 723.363 357.171 723.363 357.83 723.6 358.311 724.075 358.614 724.549 358.917 725.266 359.069 726.224 359.069 727.305 359.069 728.173 358.825 728.828 358.337 729.482 357.849 730.043 357.065 730.508 355.984 730.974 354.903 731.427 353.268 731.866 351.08L731.682 351.04C730.829 352.209 730.038 353.062 729.309 353.598 728.579 354.134 727.793 354.402 726.949 354.402 725.991 354.402 725.246 354.042 724.714 353.321 724.182 352.6 723.917 351.572 723.917 350.236 723.917 348.733 724.211 347.289 724.8 345.905 725.389 344.521 726.206 343.42 727.252 342.603 728.298 341.785 729.463 341.377 730.746 341.377Z" fill="#4B5E68" fill-rule="evenodd"/><text fill="#000000" fill-opacity="0" font-family="Arial,Arial_MSFontService,sans-serif" font-size="18.7207" x="721.267" y="357.757">𝑔</text><path d="M743.889 351.09C743.531 351.09 743.194 351.171 742.878 351.332 742.563 351.492 742.275 351.709 742.015 351.981 741.756 352.253 741.524 352.572 741.32 352.937 741.115 353.302 740.944 353.688 740.805 354.096 740.666 354.505 740.559 354.925 740.485 355.358 740.41 355.791 740.373 356.208 740.373 356.611 740.373 357.928 740.772 358.587 741.57 358.587 741.904 358.587 742.237 358.486 742.567 358.285 742.898 358.084 743.255 357.749 743.639 357.278 743.843 357.031 744.019 356.799 744.168 356.583 744.316 356.366 744.443 356.148 744.548 355.929 744.653 355.709 744.743 355.476 744.817 355.228 744.891 354.981 744.959 354.702 745.021 354.393 745.089 354.041 745.156 353.697 745.221 353.363 745.286 353.029 745.318 352.733 745.318 352.473 745.318 351.972 745.201 351.616 744.966 351.406 744.731 351.196 744.372 351.09 743.889 351.09ZM743.722 350.172C744.205 350.172 744.632 350.229 745.003 350.344 745.374 350.458 745.711 350.614 746.014 350.812L746.923 350.172 747.628 350.367C747.461 351.159 747.294 351.939 747.127 352.709 746.96 353.479 746.79 354.26 746.617 355.052 746.419 355.986 746.246 356.847 746.097 357.636 745.949 358.424 745.785 359.125 745.606 359.737 745.426 360.349 745.211 360.878 744.961 361.323 744.71 361.769 744.389 362.14 743.996 362.437 743.603 362.734 743.119 362.962 742.544 363.123 741.969 363.284 741.264 363.367 740.429 363.374 739.143 363.374 738.173 363.218 737.521 362.905 736.868 362.593 736.542 362.112 736.542 361.463 736.542 361.296 736.568 361.138 736.621 360.989 736.673 360.841 736.755 360.699 736.866 360.563 736.978 360.427 737.122 360.292 737.298 360.159 737.474 360.026 737.683 359.885 737.924 359.737L738.768 360.377C738.552 360.563 738.405 360.739 738.328 360.906 738.25 361.073 738.212 361.249 738.212 361.435 738.212 361.781 738.388 362.044 738.74 362.223 739.093 362.403 739.643 362.492 740.392 362.492 740.775 362.492 741.122 362.465 741.431 362.409 741.74 362.353 742.023 362.259 742.28 362.126 742.536 361.993 742.77 361.809 742.98 361.574 743.19 361.339 743.385 361.047 743.565 360.697 743.744 360.348 743.914 359.904 744.075 359.366 744.236 358.828 744.393 358.191 744.548 357.455L744.409 357.399C744.081 357.826 743.769 358.192 743.472 358.498 743.175 358.805 742.883 359.055 742.595 359.25 742.308 359.445 742.018 359.587 741.728 359.677 741.437 359.766 741.134 359.811 740.819 359.811 740.095 359.811 739.534 359.548 739.135 359.023 738.736 358.497 738.536 357.727 738.536 356.713 738.536 356.137 738.598 355.575 738.722 355.024 738.846 354.474 739.022 353.954 739.251 353.465 739.48 352.977 739.753 352.53 740.072 352.125 740.39 351.72 740.743 351.372 741.129 351.081 741.516 350.791 741.927 350.566 742.363 350.409 742.799 350.251 743.252 350.172 743.722 350.172Z" fill="#4B5E68" fill-rule="evenodd"/><text fill="#000000" fill-opacity="0" font-family="Arial,Arial_MSFontService,sans-serif" font-size="13.2017" x="736.542" y="361.723">𝑔</text><path d="M825.655 334.001C828.221 334.677 830.192 336.139 831.568 338.384 832.943 340.63 833.631 343.339 833.631 346.512 833.631 349.693 832.945 352.403 831.574 354.639 830.203 356.876 828.23 358.333 825.655 359.01L825.339 357.995C827.369 357.318 828.878 355.982 829.867 353.987 830.856 351.992 831.35 349.456 831.35 346.38 831.35 343.409 830.858 340.942 829.874 338.977 828.889 337.013 827.364 335.692 825.299 335.016ZM760.914 334.001 761.27 335.016C759.213 335.692 757.69 337.013 756.702 338.977 755.713 340.942 755.218 343.409 755.218 346.38 755.218 349.456 755.713 351.992 756.702 353.987 757.69 355.982 759.2 357.318 761.23 357.995L760.914 359.01C758.339 358.333 756.365 356.876 754.994 354.639 753.623 352.403 752.938 349.693 752.938 346.512 752.938 343.339 753.625 340.63 755.001 338.384 756.376 336.139 758.347 334.677 760.914 334.001Z" fill="#4B5E68" fill-rule="evenodd"/><path d="M766.905 341.601 773.813 341.601 773.417 343.341 769.291 343.341 767.801 349.946C767.608 350.807 767.511 351.458 767.511 351.897 767.511 352.249 767.568 352.504 767.682 352.662 767.797 352.82 767.977 352.899 768.223 352.899 768.522 352.899 768.847 352.776 769.199 352.53 769.55 352.284 769.95 351.893 770.398 351.357L771.163 352.068C770.407 352.912 769.733 353.514 769.139 353.875 768.546 354.235 767.937 354.415 767.313 354.415 766.689 354.415 766.197 354.209 765.837 353.796 765.476 353.382 765.296 352.846 765.296 352.187 765.296 351.598 765.419 350.746 765.665 349.629L765.85 348.799C765.991 348.157 766.199 347.314 766.476 346.268 766.753 345.222 767.032 344.286 767.313 343.46L767.247 343.341 766.114 343.341C765.534 343.341 765.088 343.387 764.776 343.479 764.464 343.572 764.158 343.73 763.859 343.954 763.56 344.178 763.248 344.501 762.923 344.923L762.093 344.224C762.567 343.635 762.983 343.174 763.339 342.84 763.694 342.506 764.035 342.253 764.36 342.082 764.685 341.91 765.037 341.787 765.415 341.713 765.793 341.638 766.289 341.601 766.905 341.601Z" fill="#4B5E68" fill-rule="evenodd"/><text fill="#000000" fill-opacity="0" font-family="Arial,Arial_MSFontService,sans-serif" font-size="12.8145" x="762.093" y="352.813">𝜏</text><path d="M789.447 338.015 791.319 338.015 791.319 345.608 798.504 345.608 798.504 347.362 791.319 347.362 791.319 354.956 789.447 354.956 789.447 347.362 782.262 347.362 782.262 345.608 789.447 345.608Z" fill="#4B5E68" fill-rule="evenodd"/><text fill="#000000" fill-opacity="0" font-family="Arial,Arial_MSFontService,sans-serif" font-size="16.9409" x="782.262" y="352.838">+</text><path d="M819.369 342.431C818.657 342.431 818.048 342.831 817.543 343.631 817.037 344.431 816.591 345.692 816.205 347.415L814.86 353.387C816.108 353.343 817.185 352.932 818.09 352.154 818.995 351.376 819.694 350.324 820.186 348.997 820.678 347.67 820.924 346.298 820.924 344.883 820.924 344.119 820.79 343.519 820.522 343.084 820.254 342.649 819.87 342.431 819.369 342.431ZM813.278 341.35 813.963 342.26C812.671 343.183 811.643 344.277 810.878 345.543 810.114 346.808 809.731 348.056 809.731 349.287 809.731 350.429 809.986 351.33 810.496 351.989 811.006 352.649 811.775 353.084 812.803 353.295L814.148 347.243C814.596 345.239 815.306 343.761 816.277 342.807 817.248 341.853 818.345 341.377 819.566 341.377 820.771 341.377 821.676 341.713 822.282 342.385 822.889 343.057 823.192 344.066 823.192 345.411 823.192 347.089 822.843 348.614 822.144 349.985 821.445 351.357 820.45 352.429 819.158 353.202 817.866 353.976 816.363 354.376 814.649 354.402L813.41 359.9 811.34 359.9 812.579 354.376C810.944 354.191 809.685 353.648 808.802 352.747 807.919 351.847 807.477 350.662 807.477 349.194 807.477 346.276 809.411 343.662 813.278 341.35Z" fill="#4B5E68" fill-rule="evenodd"/><text fill="#000000" fill-opacity="0" font-family="Arial,Arial_MSFontService,sans-serif" font-size="18.5493" x="807.477" y="357.581">𝜑</text><path d="M840.07 336.209 845.344 336.209 845.199 336.855C844.865 336.925 844.625 337.004 844.48 337.092 844.335 337.18 844.205 337.312 844.091 337.487 843.977 337.663 843.858 337.938 843.735 338.311 843.612 338.685 843.458 339.294 843.274 340.137L841.019 350.368C840.905 350.886 840.83 351.297 840.795 351.6 840.76 351.904 840.742 352.178 840.742 352.424 840.742 352.82 840.841 353.099 841.039 353.262 841.237 353.424 841.569 353.523 842.034 353.558L841.889 354.204 836.616 354.204 836.761 353.558C837.095 353.505 837.346 353.42 837.513 353.301 837.68 353.182 837.82 353.018 837.934 352.807 838.049 352.596 838.154 352.339 838.251 352.035 838.347 351.732 838.492 351.146 838.686 350.275L840.927 340.124C841.12 339.245 841.217 338.538 841.217 338.002 841.217 337.588 841.114 337.301 840.907 337.138 840.701 336.975 840.373 336.881 839.925 336.855Z" fill="#4B5E68" fill-rule="evenodd"/><text fill="#000000" fill-opacity="0" font-family="Arial,Arial_MSFontService,sans-serif" font-size="17.9956" x="836.616" y="351.955">𝐼</text><path d="M848.924 350.265 849.379 350.265 848.006 356.444C847.919 356.808 847.859 357.099 847.825 357.316 847.791 357.532 847.774 357.727 847.774 357.9 847.774 358.135 847.822 358.305 847.918 358.41 848.014 358.515 848.157 358.568 848.349 358.568 848.461 358.568 848.572 358.546 848.683 358.503 848.794 358.46 848.914 358.392 849.04 358.299 849.167 358.206 849.306 358.087 849.458 357.942 849.609 357.796 849.778 357.622 849.963 357.418L850.594 358.03C850.273 358.358 849.98 358.635 849.718 358.86 849.455 359.086 849.206 359.27 848.971 359.412 848.736 359.555 848.505 359.657 848.28 359.718 848.054 359.78 847.814 359.811 847.561 359.811 847.326 359.811 847.114 359.768 846.925 359.681 846.736 359.595 846.574 359.476 846.438 359.324 846.302 359.173 846.197 358.992 846.123 358.781 846.048 358.571 846.011 358.339 846.011 358.086 846.011 357.882 846.036 357.628 846.086 357.325 846.135 357.022 846.198 356.692 846.276 356.337 846.353 355.981 846.438 355.609 846.531 355.219 846.624 354.829 846.715 354.443 846.805 354.059 846.894 353.676 846.975 353.306 847.046 352.951 847.117 352.595 847.168 352.272 847.199 351.981 847.211 351.932 847.217 351.884 847.217 351.837 847.217 351.791 847.217 351.749 847.217 351.712 847.205 351.471 847.12 351.295 846.962 351.183 846.805 351.072 846.525 351.01 846.123 350.998L846.234 350.367ZM848.386 346.526 850.242 346.526 849.787 348.521 847.95 348.521Z" fill="#4B5E68" fill-rule="evenodd"/><text fill="#000000" fill-opacity="0" font-family="Arial,Arial_MSFontService,sans-serif" font-size="13.2852" x="846.011" y="358.151">𝑖</text><path d="M933.058 330.184C935.8 330.904 937.914 332.772 939.399 335.787 940.884 338.801 941.627 342.37 941.627 346.492 941.627 350.614 940.884 354.182 939.399 357.197 937.914 360.212 935.8 362.079 933.058 362.8L932.728 361.719C934.855 360.919 936.466 359.177 937.56 356.492 938.654 353.807 939.201 350.478 939.201 346.505 939.201 342.524 938.654 339.188 937.56 336.499 936.466 333.809 934.855 332.065 932.728 331.265ZM864.02 330.184 864.35 331.265C862.223 332.065 860.612 333.809 859.518 336.499 858.424 339.188 857.877 342.524 857.877 346.505 857.877 350.478 858.424 353.807 859.518 356.492 860.612 359.177 862.223 360.919 864.35 361.719L864.02 362.8C861.278 362.079 859.164 360.212 857.679 357.197 856.194 354.182 855.451 350.614 855.451 346.492 855.451 342.37 856.194 338.801 857.679 335.787 859.164 332.772 861.278 330.904 864.02 330.184Z" fill="#4B5E68" fill-rule="evenodd"/><path d="M870.213 338.344 872.032 338.344 871.307 341.601 875.315 341.601 875.025 342.932 871.017 342.932 869.844 348.047C869.615 349.041 869.47 349.755 869.409 350.19 869.347 350.625 869.316 350.974 869.316 351.238 869.316 352.328 869.769 352.873 870.674 352.873 871.061 352.873 871.472 352.725 871.907 352.431 872.342 352.137 872.858 351.633 873.456 350.921L874.221 351.712C873.456 352.635 872.72 353.316 872.012 353.756 871.305 354.195 870.564 354.415 869.791 354.415 867.954 354.415 867.035 353.488 867.035 351.633 867.035 351.045 867.11 350.425 867.26 349.775L868.815 342.932 866.6 342.932 866.798 342.023C867.317 342.014 867.71 341.974 867.978 341.904 868.246 341.834 868.47 341.737 868.65 341.614 868.831 341.491 868.995 341.315 869.145 341.087 869.294 340.858 869.439 340.566 869.58 340.21 869.721 339.854 869.931 339.232 870.213 338.344Z" fill="#4B5E68" fill-rule="evenodd"/><text fill="#000000" fill-opacity="0" font-family="Arial,Arial_MSFontService,sans-serif" font-size="16.0708" x="866.6" y="352.406">𝑡</text><path d="M884.102 345.608 900.344 345.608 900.344 347.362 884.102 347.362Z" fill="#4B5E68" fill-rule="evenodd"/><text fill="#000000" fill-opacity="0" font-family="Arial,Arial_MSFontService,sans-serif" font-size="1.75342" x="884.102" y="347.143">−</text><path d="M913.338 341.601 920.246 341.601 919.851 343.341 915.724 343.341 914.234 349.946C914.041 350.807 913.944 351.458 913.944 351.897 913.944 352.249 914.002 352.504 914.116 352.662 914.23 352.82 914.41 352.899 914.656 352.899 914.955 352.899 915.28 352.776 915.632 352.53 915.984 352.284 916.383 351.893 916.832 351.357L917.596 352.068C916.84 352.912 916.166 353.514 915.573 353.875 914.979 354.235 914.371 354.415 913.747 354.415 913.123 354.415 912.63 354.209 912.27 353.796 911.91 353.382 911.73 352.846 911.73 352.187 911.73 351.598 911.853 350.746 912.099 349.629L912.283 348.799C912.424 348.157 912.633 347.314 912.91 346.268 913.186 345.222 913.465 344.286 913.747 343.46L913.681 343.341 912.547 343.341C911.967 343.341 911.521 343.387 911.209 343.479 910.897 343.572 910.591 343.73 910.293 343.954 909.994 344.178 909.682 344.501 909.357 344.923L908.526 344.224C909.001 343.635 909.416 343.174 909.772 342.84 910.128 342.506 910.468 342.253 910.794 342.082 911.119 341.91 911.47 341.787 911.848 341.713 912.226 341.638 912.723 341.601 913.338 341.601Z" fill="#4B5E68" fill-rule="evenodd"/><text fill="#000000" fill-opacity="0" font-family="Arial,Arial_MSFontService,sans-serif" font-size="12.8145" x="908.526" y="352.813">𝜏</text><path d="M921.661 334.001C924.228 334.677 926.199 336.139 927.574 338.384 928.95 340.63 929.638 343.339 929.638 346.512 929.638 349.693 928.952 352.403 927.581 354.639 926.21 356.876 924.237 358.333 921.661 359.01L921.345 357.995C923.375 357.318 924.885 355.982 925.874 353.987 926.862 351.992 927.357 349.456 927.357 346.38 927.357 343.409 926.865 340.942 925.88 338.977 924.896 337.013 923.371 335.692 921.306 335.016Z" fill="#4B5E68" fill-rule="evenodd"/><text fill="#000000" fill-opacity="0" font-family="Arial,Arial_MSFontService,sans-serif" font-size="25.0093" x="921.306" y="355.884">ሻ</text><path d="M684.661 332.437 686.108 332.437 685.579 334.794 688.733 334.794 688.52 335.823 685.375 335.823 684.429 339.711C684.367 339.97 684.316 340.204 684.276 340.411 684.235 340.618 684.203 340.805 684.178 340.972 684.153 341.139 684.136 341.291 684.127 341.427 684.118 341.563 684.113 341.69 684.113 341.807 684.113 342.178 684.19 342.469 684.345 342.679 684.5 342.89 684.753 342.995 685.106 342.995 685.403 342.995 685.718 342.885 686.052 342.665 686.386 342.446 686.766 342.101 687.193 341.631L687.833 342.28C687.518 342.633 687.218 342.933 686.933 343.18 686.649 343.428 686.371 343.63 686.099 343.788 685.826 343.946 685.557 344.06 685.291 344.131 685.025 344.202 684.753 344.238 684.475 344.238 683.739 344.238 683.19 344.065 682.828 343.718 682.466 343.372 682.286 342.862 682.286 342.188 682.286 341.959 682.303 341.707 682.337 341.431 682.371 341.156 682.419 340.889 682.48 340.629L683.584 335.823 681.989 335.823 682.174 335.109C682.545 335.109 682.834 335.073 683.042 335.002 683.249 334.931 683.424 334.834 683.566 334.71 683.659 334.623 683.748 334.517 683.835 334.39 683.921 334.263 684.008 334.11 684.095 333.931 684.181 333.751 684.269 333.54 684.359 333.295 684.449 333.051 684.549 332.765 684.661 332.437Z" fill="#4B5E68" fill-rule="evenodd"/><text fill="#000000" fill-opacity="0" font-family="Arial,Arial_MSFontService,sans-serif" font-size="11.8008" x="681.989" y="342.763">𝑡</text><path d="M691.259 337.929 701.947 337.929 701.947 339.349 691.259 339.349Z" fill="#4B5E68" fill-rule="evenodd"/><text fill="#000000" fill-opacity="0" font-family="Arial,Arial_MSFontService,sans-serif" font-size="1.41943" x="691.259" y="339.171">−</text><path d="M710.12 332.122 710.686 332.122C710.674 332.462 710.664 332.766 710.658 333.035 710.652 333.305 710.647 333.566 710.644 333.819 710.641 334.073 710.64 334.323 710.64 334.571L710.64 341.622C710.64 341.813 710.646 341.979 710.658 342.118 710.671 342.257 710.691 342.375 710.719 342.471 710.746 342.566 710.783 342.648 710.83 342.716 710.876 342.784 710.93 342.843 710.992 342.893 711.066 342.967 711.165 343.024 711.289 343.064 711.413 343.104 711.57 343.138 711.762 343.166 711.954 343.194 712.184 343.216 712.453 343.231 712.722 343.247 713.046 343.258 713.423 343.264L713.423 344.071 706.066 344.071 706.066 343.264C706.431 343.251 706.74 343.237 706.994 343.222 707.247 343.207 707.464 343.185 707.643 343.157 707.822 343.129 707.966 343.098 708.074 343.064 708.183 343.03 708.277 342.988 708.357 342.939 708.444 342.883 708.518 342.823 708.58 342.758 708.642 342.693 708.691 342.611 708.729 342.512 708.766 342.413 708.795 342.293 708.817 342.15 708.838 342.008 708.849 341.832 708.849 341.622L708.849 334.97C708.849 334.729 708.803 334.559 708.71 334.46 708.617 334.361 708.484 334.311 708.311 334.311 708.119 334.311 707.835 334.41 707.458 334.608 707.08 334.806 706.592 335.1 705.992 335.489 705.911 335.347 705.837 335.205 705.769 335.063 705.701 334.92 705.63 334.775 705.556 334.627 706.323 334.206 707.082 333.787 707.833 333.369 708.585 332.952 709.347 332.536 710.12 332.122Z" fill="#4B5E68" fill-rule="evenodd"/><text fill="#000000" fill-opacity="0" font-family="Arial,Arial_MSFontService,sans-serif" font-size="11.9492" x="705.556" y="342.577">1</text><path d="M684.809 351.807 690.116 351.807 689.828 353.245 686.655 353.245C686.476 354.043 686.295 354.841 686.112 355.638 685.93 356.436 685.746 357.24 685.56 358.051 685.492 358.329 685.444 358.576 685.417 358.793 685.389 359.009 685.375 359.198 685.375 359.359 685.375 359.557 685.414 359.714 685.491 359.832 685.568 359.949 685.715 360.008 685.932 360.008 686.167 360.008 686.423 359.904 686.702 359.697 686.98 359.49 687.289 359.185 687.629 358.783L688.269 359.396C687.948 359.73 687.654 360.014 687.388 360.249 687.122 360.484 686.867 360.676 686.623 360.824 686.378 360.973 686.139 361.081 685.904 361.149 685.669 361.217 685.427 361.251 685.18 361.251 684.939 361.251 684.721 361.208 684.526 361.121 684.331 361.035 684.164 360.913 684.025 360.755 683.886 360.597 683.778 360.41 683.7 360.194 683.623 359.977 683.584 359.742 683.584 359.488 683.584 359.309 683.604 359.079 683.645 358.797 683.685 358.516 683.741 358.202 683.812 357.856 683.883 357.509 683.966 357.141 684.062 356.752 684.158 356.362 684.26 355.966 684.368 355.564 684.477 355.162 684.591 354.766 684.712 354.377 684.832 353.987 684.951 353.622 685.069 353.282 685.069 353.257 685.063 353.245 685.05 353.245L684.048 353.245C683.77 353.251 683.532 353.271 683.334 353.305 683.136 353.339 682.953 353.399 682.786 353.486 682.62 353.573 682.453 353.692 682.286 353.843 682.119 353.995 681.927 354.191 681.71 354.432L681.033 353.783C681.28 353.511 681.503 353.274 681.701 353.073 681.899 352.872 682.085 352.699 682.258 352.554 682.431 352.408 682.602 352.288 682.773 352.192 682.943 352.096 683.127 352.02 683.325 351.965 683.523 351.909 683.741 351.87 683.979 351.849 684.217 351.827 684.494 351.813 684.809 351.807Z" fill="#4B5E68" fill-rule="evenodd"/><text fill="#000000" fill-opacity="0" font-family="Arial,Arial_MSFontService,sans-serif" font-size="9.44434" x="681.033" y="360.071">𝜏</text><path d="M692.492 356.965 703.18 356.965 703.18 358.384 692.492 358.384ZM692.492 352.929 703.18 352.929 703.18 354.349 692.492 354.349Z" fill="#4B5E68" fill-rule="evenodd"/><text fill="#000000" fill-opacity="0" font-family="Arial,Arial_MSFontService,sans-serif" font-size="5.45508" x="692.492" y="357.703">=</text><path d="M711.353 349.135 711.919 349.135C711.907 349.475 711.898 349.78 711.892 350.049 711.885 350.318 711.881 350.579 711.878 350.833 711.875 351.086 711.873 351.337 711.873 351.584L711.873 358.635C711.873 358.827 711.879 358.992 711.892 359.131 711.904 359.27 711.924 359.388 711.952 359.484 711.98 359.58 712.017 359.662 712.063 359.73 712.11 359.798 712.164 359.857 712.226 359.906 712.3 359.98 712.399 360.037 712.522 360.078 712.646 360.118 712.804 360.152 712.996 360.18 713.187 360.207 713.418 360.229 713.687 360.245 713.956 360.26 714.279 360.271 714.656 360.277L714.656 361.084 707.299 361.084 707.299 360.277C707.664 360.265 707.973 360.251 708.227 360.235 708.481 360.22 708.697 360.198 708.876 360.17 709.056 360.143 709.2 360.112 709.308 360.078 709.416 360.044 709.51 360.002 709.591 359.952 709.677 359.897 709.752 359.836 709.813 359.771 709.875 359.707 709.925 359.625 709.962 359.526 709.999 359.427 710.028 359.306 710.05 359.164 710.072 359.022 710.082 358.845 710.082 358.635L710.082 351.983C710.082 351.742 710.036 351.572 709.943 351.473 709.851 351.374 709.718 351.324 709.544 351.324 709.353 351.324 709.068 351.423 708.691 351.621 708.314 351.819 707.825 352.113 707.225 352.503 707.145 352.36 707.07 352.218 707.002 352.076 706.934 351.934 706.863 351.788 706.789 351.64 707.556 351.219 708.315 350.8 709.067 350.383 709.818 349.965 710.58 349.549 711.353 349.135Z" fill="#4B5E68" fill-rule="evenodd"/><text fill="#000000" fill-opacity="0" font-family="Arial,Arial_MSFontService,sans-serif" font-size="11.9492" x="706.789" y="359.591">1</text><path d="M524.198 322.538 664.198 322.538 804.198 322.538 944.198 322.538 944.198 324.538 804.198 324.538 664.198 324.538 524.198 324.538Z" fill="#4B5E68" fill-rule="evenodd"/><path d="M483.352 284.793C482.937 284.793 482.555 284.849 482.206 284.96 481.856 285.072 481.524 285.223 481.209 285.415 481.079 285.501 480.978 285.582 480.907 285.656 480.836 285.73 480.783 285.818 480.749 285.921 480.715 286.023 480.692 286.149 480.68 286.301 480.667 286.452 480.661 286.658 480.661 286.918 480.661 289.107 481.456 290.202 483.045 290.202 483.478 290.202 483.851 290.139 484.163 290.012 484.476 289.885 484.731 289.703 484.929 289.464 485.127 289.226 485.272 288.933 485.365 288.583 485.458 288.234 485.504 287.836 485.504 287.391 485.504 286.562 485.318 285.922 484.947 285.471 484.576 285.019 484.044 284.793 483.352 284.793ZM485.81 278.93C485.884 279.017 485.952 279.1 486.014 279.181 486.076 279.261 486.144 279.341 486.218 279.422L486.218 279.969C485.47 279.957 484.796 280.056 484.196 280.266 483.596 280.476 483.067 280.784 482.609 281.189 482.152 281.594 481.768 282.092 481.459 282.683 481.15 283.273 480.909 283.94 480.735 284.682L480.837 284.728C481.091 284.555 481.342 284.405 481.589 284.278 481.836 284.152 482.087 284.047 482.34 283.963 482.594 283.88 482.857 283.819 483.129 283.782 483.401 283.745 483.692 283.726 484.001 283.726 484.545 283.726 485.026 283.807 485.444 283.968 485.861 284.128 486.215 284.363 486.506 284.673 486.797 284.982 487.016 285.353 487.165 285.786 487.313 286.219 487.387 286.701 487.387 287.233 487.387 287.796 487.294 288.319 487.109 288.801 486.923 289.284 486.645 289.698 486.274 290.044 485.903 290.391 485.444 290.66 484.896 290.851 484.349 291.043 483.707 291.139 482.971 291.139 481.58 291.139 480.53 290.742 479.822 289.947 479.113 289.152 478.759 287.982 478.759 286.435 478.759 285.743 478.837 285.079 478.991 284.445 479.146 283.811 479.373 283.221 479.673 282.673 479.973 282.126 480.336 281.631 480.763 281.189 481.19 280.747 481.666 280.363 482.192 280.039 482.718 279.714 483.287 279.457 483.899 279.269 484.511 279.08 485.148 278.967 485.81 278.93Z" fill="#4B5E68" fill-rule="evenodd"/><text fill="#000000" fill-opacity="0" font-family="Arial,Arial_MSFontService,sans-serif" font-size="12.209" x="478.759" y="289.613">6</text><path d="M473.018 356.026C472.634 356.026 472.313 356.139 472.053 356.365 471.793 356.591 471.578 356.873 471.408 357.214 471.238 357.554 471.099 357.923 470.991 358.322 470.882 358.721 470.791 359.097 470.717 359.449L469.734 363.754C470.488 363.717 471.147 363.533 471.71 363.202 472.272 362.871 472.741 362.445 473.115 361.922 473.489 361.399 473.769 360.807 473.955 360.145 474.14 359.484 474.233 358.803 474.233 358.104 474.233 357.9 474.222 357.678 474.201 357.436 474.179 357.195 474.128 356.971 474.048 356.764 473.967 356.557 473.847 356.382 473.686 356.24 473.525 356.097 473.302 356.026 473.018 356.026ZM468.342 355.052 468.936 355.822C467.909 356.601 467.124 357.425 466.579 358.294 466.035 359.163 465.763 360.031 465.763 360.897 465.763 361.701 465.952 362.332 466.329 362.789 466.706 363.247 467.287 363.544 468.073 363.68L469.01 359.487C469.177 358.72 469.403 358.056 469.687 357.497 469.972 356.937 470.298 356.476 470.666 356.114 471.034 355.752 471.434 355.485 471.867 355.312 472.3 355.139 472.749 355.052 473.213 355.052 474.147 355.052 474.85 355.33 475.323 355.887 475.796 356.444 476.033 357.226 476.033 358.234 476.033 359.137 475.883 359.98 475.583 360.762 475.283 361.545 474.852 362.225 474.289 362.803 473.726 363.382 473.046 363.836 472.248 364.167 471.45 364.498 470.556 364.666 469.567 364.673L468.704 368.495 466.969 368.495 467.86 364.617C467.235 364.537 466.678 364.393 466.19 364.186 465.701 363.978 465.29 363.714 464.956 363.392 464.622 363.071 464.367 362.693 464.19 362.261 464.014 361.828 463.926 361.342 463.926 360.804 463.926 359.771 464.299 358.777 465.044 357.821 465.789 356.866 466.889 355.943 468.342 355.052Z" fill="#4B5E68" fill-rule="evenodd"/><text fill="#000000" fill-opacity="0" font-family="Arial,Arial_MSFontService,sans-serif" font-size="13.4429" x="463.926" y="366.815">𝜑</text><path d="M479.486 360.405 490.173 360.405 490.173 361.824 479.486 361.824ZM479.486 356.369 490.173 356.369 490.173 357.789 479.486 357.789Z" fill="#4B5E68" fill-rule="evenodd"/><text fill="#000000" fill-opacity="0" font-family="Arial,Arial_MSFontService,sans-serif" font-size="5.45508" x="479.486" y="361.143">=</text><path d="M497.586 353.41C497.153 353.41 496.791 353.523 496.501 353.749 496.21 353.974 495.979 354.305 495.809 354.741 495.639 355.177 495.519 355.709 495.448 356.337 495.376 356.965 495.341 357.678 495.341 358.475 495.341 359.397 495.386 360.193 495.475 360.864 495.565 361.535 495.704 362.087 495.893 362.52 496.082 362.953 496.318 363.272 496.603 363.476 496.887 363.68 497.227 363.782 497.623 363.782 497.994 363.782 498.319 363.686 498.597 363.494 498.876 363.303 499.106 363.004 499.288 362.599 499.471 362.194 499.608 361.681 499.701 361.059 499.794 360.438 499.84 359.703 499.84 358.856 499.84 357.903 499.789 357.084 499.687 356.397 499.585 355.711 499.441 355.146 499.256 354.704 499.07 354.262 498.837 353.936 498.556 353.725 498.274 353.515 497.951 353.41 497.586 353.41ZM497.623 352.51C498.359 352.51 498.988 352.648 499.511 352.923 500.034 353.198 500.46 353.591 500.791 354.101 501.122 354.611 501.365 355.234 501.52 355.97 501.674 356.706 501.752 357.538 501.752 358.466 501.752 360.526 501.387 362.083 500.657 363.137 499.927 364.192 498.869 364.719 497.484 364.719 496.111 364.719 495.09 364.221 494.422 363.225 493.754 362.23 493.421 360.72 493.421 358.698 493.421 357.64 493.524 356.725 493.731 355.952 493.938 355.179 494.229 354.537 494.603 354.027 494.978 353.517 495.421 353.136 495.935 352.886 496.448 352.635 497.011 352.51 497.623 352.51Z" fill="#4B5E68" fill-rule="evenodd"/><text fill="#000000" fill-opacity="0" font-family="Arial,Arial_MSFontService,sans-serif" font-size="12.209" x="493.421" y="363.193">0</text><text fill="#4B5E68" font-family="Arial,Arial_MSFontService,sans-serif" font-weight="700" font-size="24" transform="translate(231.503 502)">External source (e.g., visitors)</text><text fill="#4B5E68" font-family="Arial,Arial_MSFontService,sans-serif" font-weight="700" font-size="24" transform="translate(225.198 252)">Internal source (i.e., infected inpatients)</text><text fill="#4B5E68" font-family="Cambria Math,Cambria Math_MSFontService,sans-serif" font-weight="400" font-size="24" transform="translate(957.4 554)">1</text><text fill="#4B5E68" font-family="Cambria Math,Cambria Math_MSFontService,sans-serif" font-weight="400" font-size="24" transform="translate(976.066 554)">−</text><text fill="#4B5E68" font-family="Cambria Math,Cambria Math_MSFontService,sans-serif" font-weight="400" font-size="24" transform="translate(999.4 554)">𝑞</text><text fill="#4B5E68" font-family="Cambria Math,Cambria Math_MSFontService,sans-serif" font-weight="400" font-size="24" transform="translate(1013.13 554)">(</text><text fill="#4B5E68" font-family="Cambria Math,Cambria Math_MSFontService,sans-serif" font-weight="400" font-size="24" transform="translate(1023.13 554)">𝑡</text><text fill="#4B5E68" font-family="Cambria Math,Cambria Math_MSFontService,sans-serif" font-weight="400" font-size="24" transform="translate(1033.21 554)">)</text><text fill="#4B5E68" font-family="Cambria Math,Cambria Math_MSFontService,sans-serif" font-weight="400" font-size="24" transform="translate(978.4 588)">𝑞</text><text fill="#4B5E68" font-family="Cambria Math,Cambria Math_MSFontService,sans-serif" font-weight="400" font-size="24" transform="translate(992.126 588)">(</text><text fill="#4B5E68" font-family="Cambria Math,Cambria Math_MSFontService,sans-serif" font-weight="400" font-size="24" transform="translate(1002.13 588)">𝑡</text><text fill="#4B5E68" font-family="Cambria Math,Cambria Math_MSFontService,sans-serif" font-weight="400" font-size="24" transform="translate(1012.21 588)">)</text><path d="M957.346 564.432 1000.35 564.432 1043.35 564.432 1043.35 566.432 1000.35 566.432 957.346 566.432Z" fill="#4B5E68" fill-rule="evenodd"/><text fill="#4B5E68" font-family="Cambria Math,Cambria Math_MSFontService,sans-serif" font-weight="400" font-size="24" transform="translate(1049.88 572)">=</text><text fill="#4B5E68" font-family="Cambria Math,Cambria Math_MSFontService,sans-serif" font-weight="400" font-size="24" transform="translate(1071.21 572)"></text><text fill="#4B5E68" font-family="Cambria Math,Cambria Math_MSFontService,sans-serif" font-weight="400" font-size="24" transform="translate(1079.88 572)">𝑅</text><text fill="#4B5E68" font-family="Cambria Math,Cambria Math_MSFontService,sans-serif" font-weight="400" font-size="18" transform="translate(1094.8 578)">𝑒</text><text fill="#4B5E68" font-family="Cambria Math,Cambria Math_MSFontService,sans-serif" font-weight="400" font-size="18" transform="translate(1095.91 560)">𝑒𝑓𝑓</text><text fill="#4B5E68" font-family="Cambria Math,Cambria Math_MSFontService,sans-serif" font-weight="400" font-size="24" transform="translate(1127.87 572)">(</text><text fill="#4B5E68" font-family="Cambria Math,Cambria Math_MSFontService,sans-serif" font-weight="400" font-size="24" transform="translate(1137.87 572)">𝑡</text><text fill="#4B5E68" font-family="Cambria Math,Cambria Math_MSFontService,sans-serif" font-weight="400" font-size="24" transform="translate(1147.96 572)">)</text><path d="M831.5 376.5 952.445 376.5" stroke="#5F696E" stroke-width="3" stroke-miterlimit="8" fill="none" fill-rule="evenodd"/><text fill="#4B5E68" font-family="Arial,Arial_MSFontService,sans-serif" font-weight="400" font-size="24" transform="translate(825.556 402)">Hospital</text><text fill="#4B5E68" font-family="Arial,Arial_MSFontService,sans-serif" font-weight="400" font-size="24" transform="translate(918.889 402)">data</text><text fill="#4B5E68" font-family="Arial,Arial_MSFontService,sans-serif" font-weight="400" font-size="24" transform="translate(972.223 402)">on</text><text fill="#4B5E68" font-family="Arial,Arial_MSFontService,sans-serif" font-weight="400" font-size="24" transform="translate(825.556 431)">the number of infected inpatients</text><path d="M752.5 594.5 881.004 594.5" stroke="#5F696E" stroke-width="3" stroke-miterlimit="8" fill="none" fill-rule="evenodd"/><text fill="#4B5E68" font-family="Arial,Arial_MSFontService,sans-serif" font-weight="400" font-size="24" transform="translate(736.383 632)">Wastewater data</text><text fill="#4B5E68" font-family="Arial,Arial_MSFontService,sans-serif" font-weight="400" font-size="24" transform="translate(242.269 150)">Wastewater data and hospital data are used to estimate the risk</text></g></svg>