<svg width="1282" height="723" xmlns="http://www.w3.org/2000/svg" xmlns:xlink="http://www.w3.org/1999/xlink" overflow="hidden"><g transform="translate(1 2)"><rect x="0" y="0" width="1280" height="720" fill="#FFFFFF"/><rect x="799" y="161" width="440" height="148" fill="#A0234E" fill-opacity="0.101961"/><text fill="#4B5E68" font-family="Arial,Arial_MSFontService,sans-serif" font-weight="700" font-size="37" transform="translate(121.462 87)">Simple version of state</text><text fill="#4B5E68" font-family="Arial,Arial_MSFontService,sans-serif" font-weight="700" font-size="37" transform="translate(530.629 87)">-</text><text fill="#4B5E68" font-family="Arial,Arial_MSFontService,sans-serif" font-weight="700" font-size="37" transform="translate(543.129 87)">space model including normalization</text><text fill="#4B5E68" font-family="Arial,Arial_MSFontService,sans-serif" font-weight="400" font-size="19" transform="translate(192.047 534)">W</text><text fill="#4B5E68" font-family="Arial,Arial_MSFontService,sans-serif" font-weight="400" font-size="12" transform="translate(209.713 538)">i,ave</text><text fill="#4B5E68" font-family="Arial,Arial_MSFontService,sans-serif" font-weight="400" font-size="19" transform="translate(236.213 534)">: a constant parameter for average concentration of an indicator</text><rect x="798" y="421" width="440" height="281" fill="#FBF4D8"/><rect x="799" y="309" width="440" height="114" fill="#E0EBF6" fill-opacity="0.6"/><path d="M814.5 366.5C814.5 340.543 835.767 319.5 862 319.5 888.234 319.5 909.5 340.543 909.5 366.5 909.5 392.457 888.234 413.5 862 413.5 835.767 413.5 814.5 392.457 814.5 366.5Z" stroke="#000000" stroke-width="1.33333" stroke-miterlimit="8" stroke-dasharray="5.33333 4" fill="#E0EBF6" fill-rule="evenodd"/><path d="M968.5 366.5C968.5 340.543 989.767 319.5 1016 319.5 1042.23 319.5 1063.5 340.543 1063.5 366.5 1063.5 392.457 1042.23 413.5 1016 413.5 989.767 413.5 968.5 392.457 968.5 366.5Z" stroke="#264980" stroke-width="1.33333" stroke-miterlimit="8" fill="#DBEEF4" fill-rule="evenodd"/><path d="M1123.5 366.5C1123.5 340.543 1144.77 319.5 1171 319.5 1197.23 319.5 1218.5 340.543 1218.5 366.5 1218.5 392.457 1197.23 413.5 1171 413.5 1144.77 413.5 1123.5 392.457 1123.5 366.5Z" stroke="#000000" stroke-width="1.33333" stroke-miterlimit="8" stroke-dasharray="5.33333 4" fill="#E0EBF6" fill-rule="evenodd"/><path d="M963.5 647C963.5 620.767 984.543 599.5 1010.5 599.5 1036.46 599.5 1057.5 620.767 1057.5 647 1057.5 673.234 1036.46 694.5 1010.5 694.5 984.543 694.5 963.5 673.234 963.5 647Z" stroke="#000000" stroke-width="1.33333" stroke-miterlimit="8" fill="#EBC73B" fill-rule="evenodd"/><path d="M811.5 648C811.5 621.767 832.767 600.5 859 600.5 885.234 600.5 906.5 621.767 906.5 648 906.5 674.234 885.234 695.5 859 695.5 832.767 695.5 811.5 674.234 811.5 648Z" stroke="#000000" stroke-width="1.33333" stroke-miterlimit="8" stroke-dasharray="5.33333 4" fill="#F2F2F2" fill-rule="evenodd"/><path d="M1024 413 1024 444.575 1020 444.575 1020 413ZM1028 442.575 1022 454.575 1016 442.575Z" fill="#3261AB"/><path d="M1012 414 1012 581.638 1008 581.638 1008 414ZM1016 579.638 1010 591.638 1004 579.638Z" fill="#3261AB"/><path d="M1118.5 647C1118.5 620.767 1139.54 599.5 1165.5 599.5 1191.46 599.5 1212.5 620.767 1212.5 647 1212.5 673.234 1191.46 694.5 1165.5 694.5 1139.54 694.5 1118.5 673.234 1118.5 647Z" stroke="#000000" stroke-width="1.33333" stroke-miterlimit="8" stroke-dasharray="5.33333 4" fill="#F2F2F2" fill-rule="evenodd"/><path d="M869 413 869 444.575 865 444.575 865 413ZM873 442.575 867 454.575 861 442.575Z" fill="#595959"/><path d="M1179 413 1179 444.575 1175 444.575 1175 413ZM1183 442.575 1177 454.575 1171 442.575Z" fill="#595959"/><path d="M927 369 952.202 369 952.202 373 927 373ZM950.202 365 962.202 371 950.202 377Z" fill="#3261AB"/><text font-family="Arial,Arial_MSFontService,sans-serif" font-weight="400" font-size="19" transform="translate(991.065 653)">N</text><text font-family="Arial,Arial_MSFontService,sans-serif" font-weight="400" font-size="12" transform="translate(1004.56 657)">m</text><text font-family="Arial,Arial_MSFontService,sans-serif" font-weight="400" font-size="19" transform="translate(1014.9 653)">(t)</text><text font-family="Arial,Arial_MSFontService,sans-serif" font-weight="400" font-size="19" transform="translate(1137.84 653)">N</text><text font-family="Arial,Arial_MSFontService,sans-serif" font-weight="400" font-size="12" transform="translate(1151.34 657)">m</text><text font-family="Arial,Arial_MSFontService,sans-serif" font-weight="400" font-size="19" transform="translate(1165.18 653)">(t+1)</text><text font-family="Arial,Arial_MSFontService,sans-serif" font-weight="400" font-size="19" transform="translate(836.856 659)">N</text><text font-family="Arial,Arial_MSFontService,sans-serif" font-weight="400" font-size="12" transform="translate(850.356 663)">m</text><text font-family="Arial,Arial_MSFontService,sans-serif" font-weight="400" font-size="19" transform="translate(860.689 659)">(t</text><text font-family="Arial,Arial_MSFontService,sans-serif" font-weight="400" font-size="19" transform="translate(872.023 659)">-</text><text font-family="Arial,Arial_MSFontService,sans-serif" font-weight="400" font-size="19" transform="translate(878.189 659)">1)</text><text font-family="Arial,Arial_MSFontService,sans-serif" font-weight="400" font-size="19" transform="translate(998.081 375)">W(t)</text><text font-family="Arial,Arial_MSFontService,sans-serif" font-weight="400" font-size="19" transform="translate(836.816 378)">W(t</text><text font-family="Arial,Arial_MSFontService,sans-serif" font-weight="400" font-size="19" transform="translate(865.816 378)">-</text><text font-family="Arial,Arial_MSFontService,sans-serif" font-weight="400" font-size="19" transform="translate(871.983 378)">1)</text><text font-family="Arial,Arial_MSFontService,sans-serif" font-weight="400" font-size="19" transform="translate(1145.77 373)">W(t+1)</text><path d="M853 415 853 582.638 849 582.638 849 415ZM857 580.638 851 592.638 845 580.638Z" fill="#595959"/><path d="M1169 415 1169 578.858 1165 578.858 1165 415ZM1173 576.858 1167 588.858 1161 576.858Z" fill="#595959"/><path d="M813.5 502.5C813.5 476.543 834.767 455.5 861 455.5 887.234 455.5 908.5 476.543 908.5 502.5 908.5 528.457 887.234 549.5 861 549.5 834.767 549.5 813.5 528.457 813.5 502.5Z" stroke="#000000" stroke-width="1.33333" stroke-miterlimit="8" stroke-dasharray="5.33333 4" fill="#F2F2F2" fill-rule="evenodd"/><text font-family="Arial,Arial_MSFontService,sans-serif" font-weight="400" font-size="19" transform="translate(836.532 510)">W</text><text font-family="Arial,Arial_MSFontService,sans-serif" font-weight="400" font-size="12" transform="translate(854.199 514)">m</text><text font-family="Arial,Arial_MSFontService,sans-serif" font-weight="400" font-size="19" transform="translate(864.532 510)">(t</text><text font-family="Arial,Arial_MSFontService,sans-serif" font-weight="400" font-size="19" transform="translate(875.866 510)">-</text><text font-family="Arial,Arial_MSFontService,sans-serif" font-weight="400" font-size="19" transform="translate(882.032 510)">1)</text><path d="M965.5 501.5C965.5 475.543 986.767 454.5 1013 454.5 1039.23 454.5 1060.5 475.543 1060.5 501.5 1060.5 527.457 1039.23 548.5 1013 548.5 986.767 548.5 965.5 527.457 965.5 501.5Z" stroke="#000000" stroke-width="1.33333" stroke-miterlimit="8" fill="#F7E9B1" fill-rule="evenodd"/><text font-family="Arial,Arial_MSFontService,sans-serif" font-weight="400" font-size="19" transform="translate(992.788 509)">W</text><text font-family="Arial,Arial_MSFontService,sans-serif" font-weight="400" font-size="12" transform="translate(1010.45 513)">m</text><text font-family="Arial,Arial_MSFontService,sans-serif" font-weight="400" font-size="19" transform="translate(1020.79 509)">(t)</text><path d="M1120.5 500.5C1120.5 474.543 1141.77 453.5 1168 453.5 1194.23 453.5 1215.5 474.543 1215.5 500.5 1215.5 526.457 1194.23 547.5 1168 547.5 1141.77 547.5 1120.5 526.457 1120.5 500.5Z" stroke="#000000" stroke-width="1.33333" stroke-miterlimit="8" stroke-dasharray="5.33333 4" fill="#F2F2F2" fill-rule="evenodd"/><text font-family="Arial,Arial_MSFontService,sans-serif" font-weight="400" font-size="19" transform="translate(1138.1 506)">W</text><text font-family="Arial,Arial_MSFontService,sans-serif" font-weight="400" font-size="12" transform="translate(1155.77 510)">m</text><text font-family="Arial,Arial_MSFontService,sans-serif" font-weight="400" font-size="19" transform="translate(1166.1 506)">(t+1)</text><path d="M818.5 239C818.5 212.767 839.767 191.5 866 191.5 892.234 191.5 913.5 212.767 913.5 239 913.5 265.234 892.234 286.5 866 286.5 839.767 286.5 818.5 265.234 818.5 239Z" stroke="#000000" stroke-width="1.33333" stroke-miterlimit="8" stroke-dasharray="5.33333 4" fill="#EDADC3" fill-rule="evenodd" fill-opacity="0.101961"/><path d="M973.5 239C973.5 212.767 994.543 191.5 1020.5 191.5 1046.46 191.5 1067.5 212.767 1067.5 239 1067.5 265.234 1046.46 286.5 1020.5 286.5 994.543 286.5 973.5 265.234 973.5 239Z" stroke="#264980" stroke-width="1.33333" stroke-miterlimit="8" fill="#A0234E" fill-rule="evenodd" fill-opacity="0.501961"/><path d="M1127.5 239C1127.5 212.767 1148.77 191.5 1175 191.5 1201.23 191.5 1222.5 212.767 1222.5 239 1222.5 265.234 1201.23 286.5 1175 286.5 1148.77 286.5 1127.5 265.234 1127.5 239Z" stroke="#000000" stroke-width="1.33333" stroke-miterlimit="8" stroke-dasharray="5.33333 4" fill="#EDADC3" fill-rule="evenodd" fill-opacity="0.101961"/><text font-family="Arial,Arial_MSFontService,sans-serif" font-weight="400" font-size="19" transform="translate(1000.89 248)">W</text><text font-family="Arial,Arial_MSFontService,sans-serif" font-weight="400" font-size="12" transform="translate(1018.56 252)">i</text><text font-family="Arial,Arial_MSFontService,sans-serif" font-weight="400" font-size="19" transform="translate(1021.39 248)">(t)</text><text font-family="Arial,Arial_MSFontService,sans-serif" font-weight="400" font-size="19" transform="translate(840.273 245)">W</text><text font-family="Arial,Arial_MSFontService,sans-serif" font-weight="400" font-size="12" transform="translate(857.94 249)">i</text><text font-family="Arial,Arial_MSFontService,sans-serif" font-weight="400" font-size="19" transform="translate(860.773 245)">(t</text><text font-family="Arial,Arial_MSFontService,sans-serif" font-weight="400" font-size="19" transform="translate(872.107 245)">-</text><text font-family="Arial,Arial_MSFontService,sans-serif" font-weight="400" font-size="19" transform="translate(878.273 245)">1)</text><text font-family="Arial,Arial_MSFontService,sans-serif" font-weight="400" font-size="19" transform="translate(1148.58 245)">W</text><text font-family="Arial,Arial_MSFontService,sans-serif" font-weight="400" font-size="12" transform="translate(1166.25 249)">i</text><text font-family="Arial,Arial_MSFontService,sans-serif" font-weight="400" font-size="19" transform="translate(1169.08 245)">(t+1)</text><path d="M1077.33 285.961C1124.63 340.069 1119.33 422.079 1065.5 469.135" stroke="#A0234E" stroke-width="4" stroke-miterlimit="8" fill="none" fill-rule="evenodd"/><path d="M1080.67 473.3 1058.69 476.76 1059.39 454.518Z" stroke="#A0234E" stroke-width="1.33333" stroke-miterlimit="8" fill="#A0234E" fill-rule="evenodd"/><path d="M1108.58 356.124C1134.07 443.48 1110.2 536.592 1047.43 594.654" stroke="#A0234E" stroke-width="4" stroke-miterlimit="8" fill="none" fill-rule="evenodd"/><path d="M1065.68 598.952 1043.7 602.412 1044.4 580.171Z" stroke="#A0234E" stroke-width="1.33333" stroke-miterlimit="8" fill="#A0234E" fill-rule="evenodd"/><text fill="#4B5E68" font-family="Cambria Math,Cambria Math_MSFontService,sans-serif" font-weight="400" font-size="24" transform="translate(128.783 273)">ğ‘Š</text><path d="M173.365 255.417C175.646 256.018 177.398 257.317 178.621 259.313 179.844 261.309 180.455 263.718 180.455 266.538 180.455 269.366 179.846 271.774 178.627 273.763 177.408 275.751 175.654 277.046 173.365 277.647L173.084 276.745C174.889 276.143 176.23 274.956 177.109 273.183 177.988 271.409 178.428 269.155 178.428 266.421 178.428 263.78 177.99 261.587 177.115 259.841 176.24 258.095 174.885 256.921 173.049 256.319ZM161.756 255.417 162.072 256.319C160.244 256.921 158.891 258.095 158.012 259.841 157.133 261.587 156.693 263.78 156.693 266.421 156.693 269.155 157.133 271.409 158.012 273.183 158.891 274.956 160.232 276.143 162.037 276.745L161.756 277.647C159.467 277.046 157.713 275.751 156.494 273.763 155.275 271.774 154.666 269.366 154.666 266.538 154.666 263.718 155.277 261.309 156.5 259.313 157.723 257.317 159.475 256.018 161.756 255.417Z" fill="#4B5E68" fill-rule="evenodd"/><text fill="#4B5E68" font-family="Cambria Math,Cambria Math_MSFontService,sans-serif" font-weight="400" font-size="24" transform="translate(162.517 273)">ğ‘¡</text><text fill="#4B5E68" font-family="Cambria Math,Cambria Math_MSFontService,sans-serif" font-weight="400" font-size="24" transform="translate(182.563 273)"></text><text fill="#4B5E68" font-family="Cambria Math,Cambria Math_MSFontService,sans-serif" font-weight="400" font-size="24" transform="translate(187.897 273)">~</text><text fill="#4B5E68" font-family="Cambria Math,Cambria Math_MSFontService,sans-serif" font-weight="400" font-size="24" transform="translate(205.063 273)"></text><text fill="#4B5E68" font-family="Cambria Math,Cambria Math_MSFontService,sans-serif" font-weight="400" font-size="24" transform="translate(210.397 273)">ğ‘ğ‘œğ‘Ÿğ‘šğ‘ğ‘™</text><text fill="#4B5E68" font-family="Cambria Math,Cambria Math_MSFontService,sans-serif" font-weight="400" font-size="24" transform="translate(293.823 273)">(</text><text fill="#4B5E68" font-family="Cambria Math,Cambria Math_MSFontService,sans-serif" font-weight="400" font-size="24" transform="translate(303.823 273)">2ğ‘Š</text><path d="M403.738 255.417C406.02 256.018 407.772 257.317 408.994 259.313 410.217 261.309 410.828 263.718 410.828 266.538 410.828 269.366 410.219 271.774 409 273.763 407.781 275.751 406.027 277.046 403.738 277.647L403.457 276.745C405.262 276.143 406.604 274.956 407.483 273.183 408.361 271.409 408.801 269.155 408.801 266.421 408.801 263.78 408.363 261.587 407.488 259.841 406.613 258.095 405.258 256.921 403.422 256.319ZM350.129 255.417 350.446 256.319C348.618 256.921 347.264 258.095 346.385 259.841 345.506 261.587 345.067 263.78 345.067 266.421 345.067 269.155 345.506 271.409 346.385 273.183 347.264 274.956 348.606 276.143 350.41 276.745L350.129 277.647C347.84 277.046 346.086 275.751 344.868 273.763 343.649 271.774 343.039 269.366 343.039 266.538 343.039 263.718 343.651 261.309 344.873 259.313 346.096 257.317 347.848 256.018 350.129 255.417Z" fill="#4B5E68" fill-rule="evenodd"/><text fill="#4B5E68" font-family="Cambria Math,Cambria Math_MSFontService,sans-serif" font-weight="400" font-size="24" transform="translate(350.89 273)">ğ‘¡</text><text fill="#4B5E68" font-family="Cambria Math,Cambria Math_MSFontService,sans-serif" font-weight="400" font-size="24" transform="translate(366.31 273)">âˆ’</text><text fill="#4B5E68" font-family="Cambria Math,Cambria Math_MSFontService,sans-serif" font-weight="400" font-size="24" transform="translate(389.643 273)">1</text><text fill="#4B5E68" font-family="Cambria Math,Cambria Math_MSFontService,sans-serif" font-weight="400" font-size="24" transform="translate(418.27 273)">âˆ’</text><text fill="#4B5E68" font-family="Cambria Math,Cambria Math_MSFontService,sans-serif" font-weight="400" font-size="24" transform="translate(441.603 273)">ğ‘Š</text><path d="M528.185 255.417C530.466 256.018 532.218 257.317 533.441 259.313 534.664 261.309 535.275 263.718 535.275 266.538 535.275 269.366 534.666 271.774 533.447 273.763 532.228 275.751 530.474 277.046 528.185 277.647L527.904 276.745C529.709 276.143 531.05 274.956 531.929 273.183 532.808 271.409 533.248 269.155 533.248 266.421 533.248 263.78 532.81 261.587 531.935 259.841 531.06 258.095 529.705 256.921 527.869 256.319ZM474.576 255.417 474.892 256.319C473.064 256.921 471.711 258.095 470.832 259.841 469.953 261.587 469.513 263.78 469.513 266.421 469.513 269.155 469.953 271.409 470.832 273.183 471.711 274.956 473.052 276.143 474.857 276.745L474.576 277.647C472.287 277.046 470.533 275.751 469.314 273.763 468.095 271.774 467.486 269.366 467.486 266.538 467.486 263.718 468.097 261.309 469.32 259.313 470.543 257.317 472.295 256.018 474.576 255.417Z" fill="#4B5E68" fill-rule="evenodd"/><text fill="#4B5E68" font-family="Cambria Math,Cambria Math_MSFontService,sans-serif" font-weight="400" font-size="24" transform="translate(475.337 273)">ğ‘¡</text><text fill="#4B5E68" font-family="Cambria Math,Cambria Math_MSFontService,sans-serif" font-weight="400" font-size="24" transform="translate(490.757 273)">âˆ’</text><text fill="#4B5E68" font-family="Cambria Math,Cambria Math_MSFontService,sans-serif" font-weight="400" font-size="24" transform="translate(514.09 273)">2</text><text fill="#4B5E68" font-family="Cambria Math,Cambria Math_MSFontService,sans-serif" font-weight="400" font-size="24" transform="translate(537.383 273)">,</text><text fill="#4B5E68" font-family="Cambria Math,Cambria Math_MSFontService,sans-serif" font-weight="400" font-size="24" transform="translate(546.383 273)">Ïƒ</text><text fill="#4B5E68" font-family="Cambria Math,Cambria Math_MSFontService,sans-serif" font-weight="400" font-size="18" transform="translate(559.497 279)">1</text><text fill="#4B5E68" font-family="Cambria Math,Cambria Math_MSFontService,sans-serif" font-weight="400" font-size="18" transform="translate(560.05 264)">2</text><text fill="#4B5E68" font-family="Cambria Math,Cambria Math_MSFontService,sans-serif" font-weight="400" font-size="24" transform="translate(571.21 273)">)</text><text fill="#4B5E68" font-family="Cambria Math,Cambria Math_MSFontService,sans-serif" font-weight="400" font-size="24" transform="translate(116.849 411)">ğ‘Š</text><text fill="#4B5E68" font-family="Cambria Math,Cambria Math_MSFontService,sans-serif" font-weight="400" font-size="18" transform="translate(134.529 416)">ğ‘š</text><path d="M172.964 393.123C175.245 393.725 176.997 395.023 178.22 397.019 179.443 399.016 180.054 401.424 180.054 404.244 180.054 407.072 179.444 409.48 178.226 411.469 177.007 413.457 175.253 414.752 172.964 415.353L172.683 414.451C174.487 413.85 175.829 412.662 176.708 410.889 177.587 409.115 178.026 406.861 178.026 404.127 178.026 401.486 177.589 399.293 176.714 397.547 175.839 395.801 174.484 394.627 172.648 394.025ZM161.355 393.123 161.671 394.025C159.843 394.627 158.49 395.801 157.611 397.547 156.732 399.293 156.292 401.486 156.292 404.127 156.292 406.861 156.732 409.115 157.611 410.889 158.49 412.662 159.831 413.85 161.636 414.451L161.355 415.353C159.066 414.752 157.312 413.457 156.093 411.469 154.874 409.48 154.265 407.072 154.265 404.244 154.265 401.424 154.876 399.016 156.099 397.019 157.322 395.023 159.074 393.725 161.355 393.123Z" fill="#4B5E68" fill-rule="evenodd"/><text fill="#4B5E68" font-family="Cambria Math,Cambria Math_MSFontService,sans-serif" font-weight="400" font-size="24" transform="translate(162.116 411)">ğ‘¡</text><text fill="#4B5E68" font-family="Cambria Math,Cambria Math_MSFontService,sans-serif" font-weight="400" font-size="24" transform="translate(182.162 411)"></text><text fill="#4B5E68" font-family="Cambria Math,Cambria Math_MSFontService,sans-serif" font-weight="400" font-size="24" transform="translate(187.496 411)">~</text><text fill="#4B5E68" font-family="Cambria Math,Cambria Math_MSFontService,sans-serif" font-weight="400" font-size="24" transform="translate(204.662 411)"></text><text fill="#4B5E68" font-family="Cambria Math,Cambria Math_MSFontService,sans-serif" font-weight="400" font-size="24" transform="translate(209.996 411)">ğ‘ğ‘œğ‘Ÿğ‘šğ‘ğ‘™</text><text fill="#4B5E68" font-family="Cambria Math,Cambria Math_MSFontService,sans-serif" font-weight="400" font-size="24" transform="translate(293.422 411)">(</text><text fill="#4B5E68" font-family="Cambria Math,Cambria Math_MSFontService,sans-serif" font-weight="400" font-size="24" transform="translate(303.422 411)">ğ‘Š</text><path d="M348.004 393.123C350.285 393.725 352.037 395.023 353.26 397.019 354.482 399.016 355.094 401.424 355.094 404.244 355.094 407.072 354.484 409.48 353.266 411.469 352.047 413.457 350.293 414.752 348.004 415.353L347.723 414.451C349.527 413.85 350.869 412.662 351.748 410.889 352.627 409.115 353.066 406.861 353.066 404.127 353.066 401.486 352.629 399.293 351.754 397.547 350.879 395.801 349.523 394.627 347.688 394.025ZM336.395 393.123 336.711 394.025C334.883 394.627 333.53 395.801 332.651 397.547 331.772 399.293 331.332 401.486 331.332 404.127 331.332 406.861 331.772 409.115 332.651 410.889 333.53 412.662 334.871 413.85 336.676 414.451L336.395 415.353C334.106 414.752 332.352 413.457 331.133 411.469 329.914 409.48 329.305 407.072 329.305 404.244 329.305 401.424 329.916 399.016 331.139 397.019 332.362 395.023 334.114 393.725 336.395 393.123Z" fill="#4B5E68" fill-rule="evenodd"/><text fill="#4B5E68" font-family="Cambria Math,Cambria Math_MSFontService,sans-serif" font-weight="400" font-size="24" transform="translate(337.156 411)">ğ‘¡</text><text fill="#4B5E68" font-family="Cambria Math,Cambria Math_MSFontService,sans-serif" font-weight="400" font-size="24" transform="translate(362.536 411)">+</text><text fill="#A0234E" font-family="Cambria Math,Cambria Math_MSFontService,sans-serif" font-weight="400" font-size="24" transform="translate(385.869 411)">ğ‘Š</text><text fill="#A0234E" font-family="Cambria Math,Cambria Math_MSFontService,sans-serif" font-weight="400" font-size="18" transform="translate(405.516 416)">ğ‘–</text><path d="M434.084 393.123C436.365 393.725 438.117 395.023 439.34 397.019 440.562 399.016 441.174 401.424 441.174 404.244 441.174 407.072 440.564 409.48 439.346 411.469 438.127 413.457 436.373 414.752 434.084 415.353L433.803 414.451C435.607 413.85 436.949 412.662 437.828 410.889 438.707 409.115 439.146 406.861 439.146 404.127 439.146 401.486 438.709 399.293 437.834 397.547 436.959 395.801 435.604 394.627 433.768 394.025ZM422.475 393.123 422.791 394.025C420.963 394.627 419.61 395.801 418.731 397.547 417.852 399.293 417.412 401.486 417.412 404.127 417.412 406.861 417.852 409.115 418.731 410.889 419.61 412.662 420.951 413.85 422.756 414.451L422.475 415.353C420.186 414.752 418.432 413.457 417.213 411.469 415.994 409.48 415.385 407.072 415.385 404.244 415.385 401.424 415.996 399.016 417.219 397.019 418.442 395.023 420.194 393.725 422.475 393.123Z" fill="#A0234E" fill-rule="evenodd"/><text fill="#A0234E" font-family="Cambria Math,Cambria Math_MSFontService,sans-serif" font-weight="400" font-size="24" transform="translate(423.236 411)">ğ‘¡</text><text fill="#A0234E" font-family="Cambria Math,Cambria Math_MSFontService,sans-serif" font-weight="400" font-size="24" transform="translate(448.616 411)">âˆ’</text><text fill="#A0234E" font-family="Cambria Math,Cambria Math_MSFontService,sans-serif" font-weight="400" font-size="24" transform="translate(471.949 411)">ğ‘Š</text><text fill="#A0234E" font-family="Cambria Math,Cambria Math_MSFontService,sans-serif" font-weight="400" font-size="18" transform="translate(491.596 416)">ğ‘–</text><text fill="#A0234E" font-family="Cambria Math,Cambria Math_MSFontService,sans-serif" font-weight="400" font-size="18" transform="translate(498.362 416)">,</text><text fill="#A0234E" font-family="Cambria Math,Cambria Math_MSFontService,sans-serif" font-weight="400" font-size="18" transform="translate(502.029 416)">ğ‘ğ‘£ğ‘’</text><text fill="#264980" font-family="Cambria Math,Cambria Math_MSFontService,sans-serif" font-weight="400" font-size="24" transform="translate(533.882 411)">,</text><text fill="#4B5E68" font-family="Cambria Math,Cambria Math_MSFontService,sans-serif" font-weight="400" font-size="24" transform="translate(542.882 411)">Ïƒ</text><text fill="#4B5E68" font-family="Cambria Math,Cambria Math_MSFontService,sans-serif" font-weight="400" font-size="18" transform="translate(556.549 416)">2</text><text fill="#4B5E68" font-family="Cambria Math,Cambria Math_MSFontService,sans-serif" font-weight="400" font-size="18" transform="translate(556.549 402)">2</text><text fill="#4B5E68" font-family="Cambria Math,Cambria Math_MSFontService,sans-serif" font-weight="400" font-size="24" transform="translate(567.709 411)">)</text><text fill="#4B5E68" font-family="Cambria Math,Cambria Math_MSFontService,sans-serif" font-weight="400" font-size="24" transform="translate(116.109 592)">ğ‘</text><text fill="#4B5E68" font-family="Cambria Math,Cambria Math_MSFontService,sans-serif" font-weight="400" font-size="18" transform="translate(131.616 597)">ğ‘š</text><path d="M170.051 574.391C172.332 574.993 174.084 576.291 175.307 578.287 176.529 580.284 177.14 582.692 177.14 585.512 177.14 588.34 176.531 590.748 175.312 592.737 174.094 594.725 172.34 596.02 170.051 596.621L169.769 595.719C171.574 595.118 172.916 593.93 173.795 592.157 174.674 590.383 175.113 588.129 175.113 585.395 175.113 582.754 174.676 580.561 173.801 578.815 172.926 577.069 171.57 575.895 169.734 575.293ZM158.441 574.391 158.758 575.293C156.93 575.895 155.576 577.069 154.697 578.815 153.818 580.561 153.379 582.754 153.379 585.395 153.379 588.129 153.818 590.383 154.697 592.157 155.576 593.93 156.918 595.118 158.723 595.719L158.441 596.621C156.152 596.02 154.399 594.725 153.18 592.737 151.961 590.748 151.352 588.34 151.352 585.512 151.352 582.692 151.963 580.284 153.186 578.287 154.408 576.291 156.16 574.993 158.441 574.391Z" fill="#4B5E68" fill-rule="evenodd"/><text fill="#4B5E68" font-family="Cambria Math,Cambria Math_MSFontService,sans-serif" font-weight="400" font-size="24" transform="translate(159.202 592)">ğ‘¡</text><text fill="#4B5E68" font-family="Cambria Math,Cambria Math_MSFontService,sans-serif" font-weight="400" font-size="24" transform="translate(179.249 592)"></text><text fill="#4B5E68" font-family="Cambria Math,Cambria Math_MSFontService,sans-serif" font-weight="400" font-size="24" transform="translate(184.582 592)">~</text><text fill="#4B5E68" font-family="Cambria Math,Cambria Math_MSFontService,sans-serif" font-weight="400" font-size="24" transform="translate(201.749 592)"></text><text fill="#4B5E68" font-family="Cambria Math,Cambria Math_MSFontService,sans-serif" font-weight="400" font-size="24" transform="translate(207.082 592)">ğµğ‘–ğ‘›ğ‘œğ‘šğ‘–ğ‘ğ‘™</text><text fill="#4B5E68" font-family="Cambria Math,Cambria Math_MSFontService,sans-serif" font-weight="400" font-size="24" transform="translate(306.676 592)">(</text><text fill="#4B5E68" font-family="Cambria Math,Cambria Math_MSFontService,sans-serif" font-weight="400" font-size="24" transform="translate(316.676 592)">ğ‘</text><path d="M355.571 574.391C357.852 574.993 359.604 576.291 360.827 578.287 362.049 580.284 362.66 582.692 362.66 585.512 362.66 588.34 362.051 590.748 360.832 592.737 359.614 594.725 357.86 596.02 355.571 596.621L355.289 595.719C357.094 595.118 358.436 593.93 359.315 592.157 360.194 590.383 360.633 588.129 360.633 585.395 360.633 582.754 360.196 580.561 359.321 578.815 358.446 577.069 357.09 575.895 355.254 575.293ZM343.961 574.391 344.278 575.293C342.45 575.895 341.096 577.069 340.217 578.815 339.338 580.561 338.899 582.754 338.899 585.395 338.899 588.129 339.338 590.383 340.217 592.157 341.096 593.93 342.438 595.118 344.243 595.719L343.961 596.621C341.672 596.02 339.919 594.725 338.7 592.737 337.481 590.748 336.872 588.34 336.872 585.512 336.872 582.692 337.483 580.284 338.706 578.287 339.928 576.291 341.68 574.993 343.961 574.391Z" fill="#4B5E68" fill-rule="evenodd"/><text fill="#4B5E68" font-family="Cambria Math,Cambria Math_MSFontService,sans-serif" font-weight="400" font-size="24" transform="translate(344.722 592)">ğ‘¡</text><text fill="#4B5E68" font-family="Cambria Math,Cambria Math_MSFontService,sans-serif" font-weight="400" font-size="24" transform="translate(364.769 592)">,</text><text fill="#4B5E68" font-family="Cambria Math,Cambria Math_MSFontService,sans-serif" font-weight="400" font-size="24" transform="translate(373.769 592)">ğ‘ƒ</text><text fill="#4B5E68" font-family="Cambria Math,Cambria Math_MSFontService,sans-serif" font-weight="400" font-size="24" transform="translate(389.189 592)">(</text><text fill="#4B5E68" font-family="Cambria Math,Cambria Math_MSFontService,sans-serif" font-weight="400" font-size="24" transform="translate(399.189 592)">ğ‘¡</text><text fill="#4B5E68" font-family="Cambria Math,Cambria Math_MSFontService,sans-serif" font-weight="400" font-size="24" transform="translate(409.276 592)">)</text><text fill="#4B5E68" font-family="Cambria Math,Cambria Math_MSFontService,sans-serif" font-weight="400" font-size="24" transform="translate(419.276 592)">)</text><text fill="#4B5E68" font-family="Cambria Math,Cambria Math_MSFontService,sans-serif" font-weight="400" font-size="24" transform="translate(90.1796 491)">ln</text><path d="M184.181 464.249C186.799 465.577 188.879 468.014 190.422 471.561 191.965 475.108 192.736 479.264 192.736 484.03 192.736 488.764 191.965 492.921 190.422 496.499 188.879 500.077 186.799 502.522 184.181 503.835L183.806 502.897C185.9 501.538 187.539 499.202 188.722 495.889 189.906 492.577 190.498 488.632 190.498 484.053 190.498 479.389 189.902 475.419 188.711 472.141 187.519 468.864 185.885 466.546 183.806 465.186ZM124.618 464.249 125.005 465.186C122.927 466.546 121.292 468.864 120.101 472.141 118.909 475.419 118.314 479.389 118.314 484.053 118.314 488.632 118.904 492.577 120.083 495.889 121.263 499.202 122.904 501.538 125.005 502.897L124.618 503.835C122.009 502.522 119.933 500.077 118.39 496.499 116.847 492.921 116.075 488.764 116.075 484.03 116.075 479.264 116.847 475.108 118.39 471.561 119.933 468.014 122.009 465.577 124.618 464.249Z" fill="#4B5E68" fill-rule="evenodd"/><text fill="#4B5E68" font-family="Cambria Math,Cambria Math_MSFontService,sans-serif" font-weight="400" font-size="18" transform="translate(137.193 477)">ğ‘ƒ</text><path d="M164.911 463.395C166.622 463.847 167.936 464.821 168.853 466.318 169.77 467.815 170.228 469.621 170.228 471.736 170.228 473.857 169.771 475.663 168.857 477.155 167.943 478.646 166.628 479.617 164.911 480.068L164.7 479.391C166.053 478.94 167.06 478.05 167.719 476.72 168.378 475.389 168.708 473.699 168.708 471.648 168.708 469.668 168.38 468.023 167.723 466.713 167.067 465.404 166.051 464.523 164.674 464.072ZM155.832 463.395 156.07 464.072C154.699 464.523 153.683 465.404 153.024 466.713 152.365 468.023 152.036 469.668 152.036 471.648 152.036 473.699 152.365 475.389 153.024 476.72 153.683 478.05 154.69 478.94 156.043 479.391L155.832 480.068C154.116 479.617 152.8 478.646 151.886 477.155 150.972 475.663 150.515 473.857 150.515 471.736 150.515 469.621 150.973 467.815 151.89 466.318 152.807 464.821 154.121 463.847 155.832 463.395Z" fill="#4B5E68" fill-rule="evenodd"/><text fill="#4B5E68" font-family="Cambria Math,Cambria Math_MSFontService,sans-serif" font-weight="400" font-size="18" transform="translate(156.206 477)">ğ‘¡</text><text fill="#4B5E68" font-family="Cambria Math,Cambria Math_MSFontService,sans-serif" font-weight="400" font-size="18" transform="translate(125.78 503)">1</text><text fill="#4B5E68" font-family="Cambria Math,Cambria Math_MSFontService,sans-serif" font-weight="400" font-size="18" transform="translate(135.946 503)">âˆ’</text><text fill="#4B5E68" font-family="Cambria Math,Cambria Math_MSFontService,sans-serif" font-weight="400" font-size="18" transform="translate(148.613 503)">ğ‘ƒ</text><path d="M176.331 489.529C178.042 489.98 179.356 490.954 180.273 492.451 181.19 493.948 181.648 495.754 181.648 497.87 181.648 499.991 181.191 501.797 180.277 503.288 179.363 504.779 178.048 505.75 176.331 506.202L176.12 505.525C177.474 505.074 178.48 504.183 179.139 502.853 179.798 501.523 180.128 499.832 180.128 497.782 180.128 495.801 179.8 494.156 179.143 492.847 178.487 491.537 177.471 490.657 176.094 490.205ZM167.252 489.529 167.49 490.205C166.119 490.657 165.103 491.537 164.444 492.847 163.785 494.156 163.456 495.801 163.456 497.782 163.456 499.832 163.785 501.523 164.444 502.853 165.103 504.183 166.11 505.074 167.463 505.525L167.252 506.202C165.536 505.75 164.22 504.779 163.306 503.288 162.392 501.797 161.935 499.991 161.935 497.87 161.935 495.754 162.393 493.948 163.31 492.451 164.227 490.954 165.541 489.98 167.252 489.529Z" fill="#4B5E68" fill-rule="evenodd"/><text fill="#4B5E68" font-family="Cambria Math,Cambria Math_MSFontService,sans-serif" font-weight="400" font-size="18" transform="translate(167.626 503)">ğ‘¡</text><path d="M126.18 482.896 183.18 482.896 183.18 484.896 126.18 484.896Z" fill="#4B5E68" fill-rule="evenodd"/><text fill="#4B5E68" font-family="Cambria Math,Cambria Math_MSFontService,sans-serif" font-weight="400" font-size="24" transform="translate(201.466 491)">=</text><text fill="#4B5E68" font-family="Cambria Math,Cambria Math_MSFontService,sans-serif" font-weight="400" font-size="24" transform="translate(226.133 491)">ğ¾</text><text fill="#4B5E68" font-family="Cambria Math,Cambria Math_MSFontService,sans-serif" font-weight="400" font-size="18" transform="translate(240.493 496)">1</text><text fill="#4B5E68" font-family="Cambria Math,Cambria Math_MSFontService,sans-serif" font-weight="400" font-size="24" transform="translate(256.986 491)">+</text><text fill="#4B5E68" font-family="Cambria Math,Cambria Math_MSFontService,sans-serif" font-weight="400" font-size="24" transform="translate(280.32 491)">ğ¾</text><text fill="#4B5E68" font-family="Cambria Math,Cambria Math_MSFontService,sans-serif" font-weight="400" font-size="18" transform="translate(295.233 496)">2</text><text fill="#4B5E68" font-family="Cambria Math,Cambria Math_MSFontService,sans-serif" font-weight="400" font-size="24" transform="translate(311.726 491)">Ã—</text><text fill="#4B5E68" font-family="Cambria Math,Cambria Math_MSFontService,sans-serif" font-weight="400" font-size="24" transform="translate(334.226 491)">(</text><text fill="#4B5E68" font-family="Cambria Math,Cambria Math_MSFontService,sans-serif" font-weight="400" font-size="24" transform="translate(344.226 491)">ğ‘Š</text><path d="M388.808 472.929C391.089 473.53 392.841 474.829 394.064 476.825 395.287 478.821 395.898 481.229 395.898 484.05 395.898 486.878 395.288 489.286 394.07 491.274 392.851 493.263 391.097 494.558 388.808 495.159L388.527 494.257C390.331 493.655 391.673 492.468 392.552 490.694 393.431 488.921 393.871 486.667 393.871 483.933 393.871 481.292 393.433 479.099 392.558 477.352 391.683 475.606 390.328 474.433 388.492 473.831ZM377.199 472.929 377.515 473.831C375.687 474.433 374.334 475.606 373.455 477.352 372.576 479.099 372.136 481.292 372.136 483.933 372.136 486.667 372.576 488.921 373.455 490.694 374.334 492.468 375.675 493.655 377.48 494.257L377.199 495.159C374.91 494.558 373.156 493.263 371.937 491.274 370.718 489.286 370.109 486.878 370.109 484.05 370.109 481.229 370.72 478.821 371.943 476.825 373.166 474.829 374.918 473.53 377.199 472.929Z" fill="#4B5E68" fill-rule="evenodd"/><text fill="#4B5E68" font-family="Cambria Math,Cambria Math_MSFontService,sans-serif" font-weight="400" font-size="24" transform="translate(377.96 491)">ğ‘¡</text><text fill="#4B5E68" font-family="Cambria Math,Cambria Math_MSFontService,sans-serif" font-weight="400" font-size="24" transform="translate(403.34 491)">+</text><text fill="#A0234E" font-family="Cambria Math,Cambria Math_MSFontService,sans-serif" font-weight="400" font-size="24" transform="translate(428.173 491)">ğ‘Š</text><text fill="#A0234E" font-family="Cambria Math,Cambria Math_MSFontService,sans-serif" font-weight="400" font-size="18" transform="translate(447.82 496)">ğ‘–</text><path d="M476.388 472.929C478.669 473.53 480.421 474.829 481.644 476.825 482.867 478.821 483.478 481.229 483.478 484.05 483.478 486.878 482.868 489.286 481.65 491.274 480.431 493.263 478.677 494.558 476.388 495.159L476.107 494.257C477.911 493.655 479.253 492.468 480.132 490.694 481.011 488.921 481.451 486.667 481.451 483.933 481.451 481.292 481.013 479.099 480.138 477.352 479.263 475.606 477.908 474.433 476.072 473.831ZM464.779 472.929 465.095 473.831C463.267 474.433 461.914 475.606 461.035 477.352 460.156 479.099 459.716 481.292 459.716 483.933 459.716 486.667 460.156 488.921 461.035 490.694 461.914 492.468 463.255 493.655 465.06 494.257L464.779 495.159C462.49 494.558 460.736 493.263 459.517 491.274 458.298 489.286 457.689 486.878 457.689 484.05 457.689 481.229 458.3 478.821 459.523 476.825 460.746 474.829 462.498 473.53 464.779 472.929Z" fill="#A0234E" fill-rule="evenodd"/><text fill="#A0234E" font-family="Cambria Math,Cambria Math_MSFontService,sans-serif" font-weight="400" font-size="24" transform="translate(465.54 491)">ğ‘¡</text><text fill="#A0234E" font-family="Cambria Math,Cambria Math_MSFontService,sans-serif" font-weight="400" font-size="24" transform="translate(490.92 491)">âˆ’</text><text fill="#A0234E" font-family="Cambria Math,Cambria Math_MSFontService,sans-serif" font-weight="400" font-size="24" transform="translate(514.253 491)">ğ‘Š</text><text fill="#A0234E" font-family="Cambria Math,Cambria Math_MSFontService,sans-serif" font-weight="400" font-size="18" transform="translate(533.9 496)">ğ‘–</text><text fill="#A0234E" font-family="Cambria Math,Cambria Math_MSFontService,sans-serif" font-weight="400" font-size="18" transform="translate(540.666 496)">,</text><text fill="#A0234E" font-family="Cambria Math,Cambria Math_MSFontService,sans-serif" font-weight="400" font-size="18" transform="translate(544.333 496)">ğ‘ğ‘£ğ‘’</text><text fill="#264980" font-family="Yu Gothic,Yu Gothic_MSFontService,sans-serif" font-weight="400" font-size="24" transform="translate(576.186 491)">)</text><text font-family="Arial,Arial_MSFontService,sans-serif" font-weight="700" font-size="21" transform="translate(814.841 179)">Normalzing</text><text font-family="Arial,Arial_MSFontService,sans-serif" font-weight="700" font-size="21" transform="translate(937.008 179)">Indicators</text><text font-family="Arial,Arial_MSFontService,sans-serif" font-weight="700" font-size="21" transform="translate(811.626 311)">Target pathogen</text><path d="M1080 369 1105.2 369 1105.2 373 1080 373ZM1103.2 365 1115.2 371 1103.2 377Z" fill="#3261AB"/><path d="M55.5001 150.5 1170.46 150.5" stroke="#4B5E68" stroke-miterlimit="8" stroke-dasharray="8 3" fill="none" fill-rule="evenodd"/><text fill="#4B5E68" font-family="Arial,Arial_MSFontService,sans-serif" font-weight="700" font-size="24" transform="translate(98.7939 132)">The model can be simplified by assuming no measurement error for a normalizing indicator</text><rect x="0.500053" y="0.500053" width="321" height="37" stroke="#7F7F7F" stroke-width="1.33333" stroke-miterlimit="8" fill="#D9D9D9"/><text fill="#A6A6A6" font-family="Arial,Arial_MSFontService,sans-serif" font-weight="700" font-size="21" transform="translate(98.3799 27)">Introduction</text><rect x="320.5" y="0.500053" width="321" height="37" stroke="#7F7F7F" stroke-width="1.33333" stroke-miterlimit="8" fill="#4B5E68"/><text fill="#FFFFFF" font-family="Arial,Arial_MSFontService,sans-serif" font-weight="700" font-size="21" transform="translate(376.718 27)">Materials &amp; Methods</text><rect x="639.5" y="0.500053" width="321" height="37" stroke="#7F7F7F" stroke-width="1.33333" stroke-miterlimit="8" fill="#D9D9D9"/><text fill="#A6A6A6" font-family="Arial,Arial_MSFontService,sans-serif" font-weight="700" font-size="21" transform="translate(690.449 27)">Results &amp; Discussion</text><rect x="959.5" y="0.500053" width="321" height="37" stroke="#7F7F7F" stroke-width="1.33333" stroke-miterlimit="8" fill="#D9D9D9"/><text fill="#A6A6A6" font-family="Arial,Arial_MSFontService,sans-serif" font-weight="700" font-size="21" transform="translate(1061.32 27)">Conclusion</text><text fill="#4B5E68" font-family="Arial,Arial_MSFontService,sans-serif" font-weight="400" font-size="24" transform="translate(94.4425 227)">State formula</text><text fill="#4B5E68" font-family="Arial,Arial_MSFontService,sans-serif" font-weight="400" font-size="24" transform="translate(50.3148 229)">1.</text><text fill="#4B5E68" font-family="Arial,Arial_MSFontService,sans-serif" font-weight="400" font-size="24" transform="translate(98.794 348)">Observation formula</text><text fill="#4B5E68" font-family="Arial,Arial_MSFontService,sans-serif" font-weight="400" font-size="24" transform="translate(54.0092 349)">2.</text><text fill="#4B5E68" font-family="Arial,Arial_MSFontService,sans-serif" font-weight="700" font-size="24" transform="translate(102.293 185)">Model 3</text></g></svg>