<svg width="1282" height="723" xmlns="http://www.w3.org/2000/svg" xmlns:xlink="http://www.w3.org/1999/xlink" overflow="hidden"><g transform="translate(1 2)"><rect x="0" y="0" width="1280" height="720" fill="#FFFFFF"/><rect x="0.500053" y="0.500053" width="321" height="37" stroke="#7F7F7F" stroke-width="1.33333" stroke-miterlimit="8" fill="#D9D9D9"/><text fill="#A6A6A6" font-family="Arial,Arial_MSFontService,sans-serif" font-weight="700" font-size="21" transform="translate(98.3799 27)">Introduction</text><rect x="320.5" y="0.500053" width="321" height="37" stroke="#7F7F7F" stroke-width="1.33333" stroke-miterlimit="8" fill="#D9D9D9"/><text fill="#A6A6A6" font-family="Arial,Arial_MSFontService,sans-serif" font-weight="700" font-size="21" transform="translate(376.718 27)">Materials &amp; Methods</text><rect x="639.5" y="0.500053" width="321" height="37" stroke="#7F7F7F" stroke-width="1.33333" stroke-miterlimit="8" fill="#4B5E68"/><text fill="#FFFFFF" font-family="Arial,Arial_MSFontService,sans-serif" font-weight="700" font-size="21" transform="translate(690.449 27)">Results &amp; Discussion</text><rect x="959.5" y="0.500053" width="321" height="37" stroke="#7F7F7F" stroke-width="1.33333" stroke-miterlimit="8" fill="#D9D9D9"/><text fill="#A6A6A6" font-family="Arial,Arial_MSFontService,sans-serif" font-weight="700" font-size="21" transform="translate(1061.32 27)">Conclusion</text><text fill="#4B5E68" font-family="Arial,Arial_MSFontService,sans-serif" font-weight="700" font-size="32" transform="translate(141.558 87)">Conditions under which the model generates unreliable estimates</text><path d="M119.5 242.5 1170.21 242.5" stroke="#4B5E68" stroke-miterlimit="8" stroke-dasharray="8 3" fill="none" fill-rule="evenodd"/><rect x="639" y="291" width="438" height="344" fill="#F2F2F2"/><text fill="#4B5E68" font-family="Arial,Arial_MSFontService,sans-serif" font-weight="400" font-size="21" transform="translate(747.195 415)">Normal sensitivity (N(t) = 3)</text><text fill="#4B5E68" font-family="Arial,Arial_MSFontService,sans-serif" font-weight="400" font-size="21" transform="translate(959.521 568)">Normal sensitivity (</text><text fill="#953735" font-family="Arial,Arial_MSFontService,sans-serif" font-weight="400" font-size="21" transform="translate(1139.69 568)">N(t) = 15</text><text fill="#4B5E68" font-family="Arial,Arial_MSFontService,sans-serif" font-weight="400" font-size="21" transform="translate(1223.52 568)">)</text><text fill="#C8A314" font-family="Arial,Arial_MSFontService,sans-serif" font-weight="400" font-size="21" transform="translate(691.897 619)">High</text><text font-family="Arial,Arial_MSFontService,sans-serif" font-weight="400" font-size="21" transform="translate(741.563 619)">sensitivity (N(t) = 3)</text><path d="M155.5 461.5 1076.5 461.5" stroke="#000000" stroke-width="1.42205" stroke-linejoin="round" stroke-miterlimit="10" stroke-dasharray="4.55187 4.55187" fill="none" fill-rule="evenodd"/><path d="M197 329.38 221.859 319.827 238.436 316.6 255.013 316 279.871 319.432 296.448 324.003 313.018 329.9 337.884 340.412 354.454 348.119 371.031 356.157 395.889 368.543 412.466 376.904 429.037 385.301 453.902 397.883 470.472 406.271 487.049 414.624 511.908 427.125 528.485 435.442 545.062 444.404 569.92 458.258 586.497 467.337 603.067 476.227 627.933 489.4 644.503 497.789 661.08 505.881 685.938 517.253 702.515 524.324 719.086 530.785 743.951 539.478 760.521 544.255 777.098 548.135 801.957 552.652 818.534 554.337 835.111 555 859.969 554.086 876.546 551.953 893.116 549.059 917.982 542.911 934.552 537.588 951.129 531.682 975.987 521.77 992.564 514.834 1009.13 507.485 1034 496.749" stroke="#EBC73B" stroke-width="3.55496" stroke-linejoin="round" stroke-miterlimit="10" fill="none" fill-rule="evenodd"/><path d="M197 329.348 221.859 319.818 238.436 316.599 255.013 316 279.871 319.424 296.448 323.984 313.018 329.866 337.884 340.353 354.454 348.042 371.031 356.061 395.889 368.417 412.466 376.758 429.037 385.126 453.902 397.687 470.472 406.055 487.049 414.468 511.908 426.958 528.485 435.156 545.062 443.417 569.92 455.835 586.497 464.132 603.067 472.33 627.933 484.328 644.503 492.052 661.08 499.544 685.938 510.103 702.515 516.674 719.086 522.735 743.951 530.54 760.521 534.554 777.098 537.71 801.957 540.401 818.534 541 835.111 540.669 859.969 538.711 876.546 536.709 893.116 534.259 917.982 530.066 934.552 526.982 951.129 523.424 975.987 517.952 992.564 514.188 1009.13 510.228 1034 504.354" stroke="#953735" stroke-width="3.55496" stroke-linejoin="round" stroke-miterlimit="10" fill="none" fill-rule="evenodd"/><path d="M197 329.341 221.859 319.815 238.436 316.599 255.013 316 279.871 319.413 296.448 323.979 313.018 329.859 337.884 340.34 354.454 348.025 371.031 356.04 395.889 368.389 412.466 376.725 429.037 385.089 453.902 397.643 470.472 405.998 487.049 414.335 511.908 426.782 528.485 435.092 545.062 443.58 569.92 456.483 586.497 465.088 603.067 473.55 627.933 485.729 644.503 493.422 661.08 500.517 685.938 510.578 702.515 516.672 719.086 522.436 743.951 530.102 760.521 534.668 777.098 538.931 801.957 544.739 818.534 548.268 835.111 551.556 859.969 556.122 876.546 558.973 893.116 561.555 917.982 565.424 934.552 568.123 951.129 570.446 975.987 574.485 992.564 576.799 1009.13 578.747 1034 583" stroke="#4BACC6" stroke-width="3.55496" stroke-linejoin="round" stroke-miterlimit="10" fill="none" fill-rule="evenodd"/><path d="M200.5 330C200.5 336 194.5 336 194.5 330 194.5 324 200.5 324 200.5 330" stroke="#0570B0" stroke-width="0.944462" stroke-linecap="round" stroke-linejoin="round" stroke-miterlimit="10" fill="#FFFFFF" fill-rule="evenodd"/><path d="M225.5 320.5C225.5 325.833 218.5 325.833 218.5 320.5 218.5 315.167 225.5 315.167 225.5 320.5" stroke="#0570B0" stroke-width="0.944462" stroke-linecap="round" stroke-linejoin="round" stroke-miterlimit="10" fill="#FFFFFF" fill-rule="evenodd"/><path d="M241.5 317.5C241.5 322.833 235.5 322.833 235.5 317.5 235.5 312.167 241.5 312.167 241.5 317.5" stroke="#0570B0" stroke-width="0.944462" stroke-linecap="round" stroke-linejoin="round" stroke-miterlimit="10" fill="#FFFFFF" fill-rule="evenodd"/><path d="M258.5 316.5C258.5 321.833 252.5 321.833 252.5 316.5 252.5 311.167 258.5 311.167 258.5 316.5" stroke="#0570B0" stroke-width="0.944462" stroke-linecap="round" stroke-linejoin="round" stroke-miterlimit="10" fill="#FFFFFF" fill-rule="evenodd"/><path d="M283.5 320.004C283.5 325.999 276.5 325.999 276.5 320.004 276.5 313.999 283.5 313.999 283.5 320.004" stroke="#0570B0" stroke-width="0.944462" stroke-linecap="round" stroke-linejoin="round" stroke-miterlimit="10" fill="#FFFFFF" fill-rule="evenodd"/><path d="M299.5 324.5C299.5 329.833 293.5 329.833 293.5 324.5 293.5 319.167 299.5 319.167 299.5 324.5" stroke="#0570B0" stroke-width="0.944462" stroke-linecap="round" stroke-linejoin="round" stroke-miterlimit="10" fill="#FFFFFF" fill-rule="evenodd"/><path d="M316.5 330.5C316.5 335.833 310.5 335.833 310.5 330.5 310.5 325.167 316.5 325.167 316.5 330.5" stroke="#0570B0" stroke-width="0.944462" stroke-linecap="round" stroke-linejoin="round" stroke-miterlimit="10" fill="#FFFFFF" fill-rule="evenodd"/><path d="M341.5 341C341.5 347 335.5 347 335.5 341 335.5 335 341.5 335 341.5 341" stroke="#0570B0" stroke-width="0.944462" stroke-linecap="round" stroke-linejoin="round" stroke-miterlimit="10" fill="#FFFFFF" fill-rule="evenodd"/><path d="M357.5 349C357.5 355 351.5 355 351.5 349 351.5 343 357.5 343 357.5 349" stroke="#0570B0" stroke-width="0.944462" stroke-linecap="round" stroke-linejoin="round" stroke-miterlimit="10" fill="#FFFFFF" fill-rule="evenodd"/><path d="M374.5 357.004C374.5 362.999 368.5 362.999 368.5 357.004 368.5 350.999 374.5 350.999 374.5 357.004" stroke="#0570B0" stroke-width="0.944462" stroke-linecap="round" stroke-linejoin="round" stroke-miterlimit="10" fill="#FFFFFF" fill-rule="evenodd"/><path d="M399.5 369.004C399.5 374.999 393.5 374.999 393.5 369.004 393.5 362.999 399.5 362.999 399.5 369.004" stroke="#0570B0" stroke-width="0.944462" stroke-linecap="round" stroke-linejoin="round" stroke-miterlimit="10" fill="#FFFFFF" fill-rule="evenodd"/><path d="M416.5 377.5C416.5 382.833 409.5 382.833 409.5 377.5 409.5 372.167 416.5 372.167 416.5 377.5" stroke="#0570B0" stroke-width="0.944462" stroke-linecap="round" stroke-linejoin="round" stroke-miterlimit="10" fill="#FFFFFF" fill-rule="evenodd"/><path d="M432.5 385.997C432.5 392.001 426.5 392.001 426.5 385.997 426.5 380.001 432.5 380.001 432.5 385.997" stroke="#0570B0" stroke-width="0.944462" stroke-linecap="round" stroke-linejoin="round" stroke-miterlimit="10" fill="#FFFFFF" fill-rule="evenodd"/><path d="M457.5 398.503C457.5 403.832 451.5 403.832 451.5 398.503 451.5 393.166 457.5 393.166 457.5 398.503" stroke="#0570B0" stroke-width="0.944462" stroke-linecap="round" stroke-linejoin="round" stroke-miterlimit="10" fill="#FFFFFF" fill-rule="evenodd"/><path d="M474.5 406.497C474.5 411.835 467.5 411.835 467.5 406.497 467.5 401.168 474.5 401.168 474.5 406.497" stroke="#0570B0" stroke-width="0.944462" stroke-linecap="round" stroke-linejoin="round" stroke-miterlimit="10" fill="#FFFFFF" fill-rule="evenodd"/><path d="M490.5 415C490.5 421 484.5 421 484.5 415 484.5 409 490.5 409 490.5 415" stroke="#0570B0" stroke-width="0.944462" stroke-linecap="round" stroke-linejoin="round" stroke-miterlimit="10" fill="#FFFFFF" fill-rule="evenodd"/><path d="M512.497 420.5 516.5 430.5 508.5 430.5Z" stroke="#0570B0" stroke-width="0.944462" stroke-linecap="round" stroke-linejoin="round" stroke-miterlimit="10" fill="#FFFFFF" fill-rule="evenodd"/><path d="M532.5 436C532.5 442 525.5 442 525.5 436 525.5 430 532.5 430 532.5 436" stroke="#0570B0" stroke-width="0.944462" stroke-linecap="round" stroke-linejoin="round" stroke-miterlimit="10" fill="#FFFFFF" fill-rule="evenodd"/><path d="M545.503 437.5 549.5 447.5 541.5 447.5Z" stroke="#0570B0" stroke-width="0.944462" stroke-linecap="round" stroke-linejoin="round" stroke-miterlimit="10" fill="#FFFFFF" fill-rule="evenodd"/><path d="M570.5 449.5 574.5 459.5 566.5 459.5Z" stroke="#0570B0" stroke-width="0.944462" stroke-linecap="round" stroke-linejoin="round" stroke-miterlimit="10" fill="#FFFFFF" fill-rule="evenodd"/><path d="M587.004 471.5 591.5 461.5 582.5 461.5Z" stroke="#0570B0" stroke-width="0.944462" stroke-linecap="round" stroke-linejoin="round" stroke-miterlimit="10" fill="#FFFFFF" fill-rule="evenodd"/><path d="M600.5 477.5 606.5 468.5" stroke="#0570B0" stroke-width="0.944462" stroke-linecap="round" stroke-linejoin="round" stroke-miterlimit="10" fill="none" fill-rule="evenodd"/><path d="M600.5 468.5 606.5 477.5" stroke="#0570B0" stroke-width="0.944462" stroke-linecap="round" stroke-linejoin="round" stroke-miterlimit="10" fill="none" fill-rule="evenodd"/><path d="M628.503 491.5 632.5 482.5 624.5 482.5Z" stroke="#0570B0" stroke-width="0.944462" stroke-linecap="round" stroke-linejoin="round" stroke-miterlimit="10" fill="#FFFFFF" fill-rule="evenodd"/><path d="M641.5 497.5 648.5 489.5" stroke="#0570B0" stroke-width="0.944462" stroke-linecap="round" stroke-linejoin="round" stroke-miterlimit="10" fill="none" fill-rule="evenodd"/><path d="M641.5 489.5 648.5 497.5" stroke="#0570B0" stroke-width="0.944462" stroke-linecap="round" stroke-linejoin="round" stroke-miterlimit="10" fill="none" fill-rule="evenodd"/><path d="M658.5 506.5 664.5 497.5" stroke="#0570B0" stroke-width="0.944462" stroke-linecap="round" stroke-linejoin="round" stroke-miterlimit="10" fill="none" fill-rule="evenodd"/><path d="M658.5 497.5 664.5 506.5" stroke="#0570B0" stroke-width="0.944462" stroke-linecap="round" stroke-linejoin="round" stroke-miterlimit="10" fill="none" fill-rule="evenodd"/><path d="M683.5 518.5 689.5 509.5" stroke="#0570B0" stroke-width="0.944462" stroke-linecap="round" stroke-linejoin="round" stroke-miterlimit="10" fill="none" fill-rule="evenodd"/><path d="M683.5 509.5 689.5 518.5" stroke="#0570B0" stroke-width="0.944462" stroke-linecap="round" stroke-linejoin="round" stroke-miterlimit="10" fill="none" fill-rule="evenodd"/><path d="M699.5 526.5 706.5 518.5" stroke="#0570B0" stroke-width="0.944462" stroke-linecap="round" stroke-linejoin="round" stroke-miterlimit="10" fill="none" fill-rule="evenodd"/><path d="M699.5 518.5 706.5 526.5" stroke="#0570B0" stroke-width="0.944462" stroke-linecap="round" stroke-linejoin="round" stroke-miterlimit="10" fill="none" fill-rule="evenodd"/><path d="M716.5 532.5 722.5 523.5" stroke="#0570B0" stroke-width="0.944462" stroke-linecap="round" stroke-linejoin="round" stroke-miterlimit="10" fill="none" fill-rule="evenodd"/><path d="M716.5 523.5 722.5 532.5" stroke="#0570B0" stroke-width="0.944462" stroke-linecap="round" stroke-linejoin="round" stroke-miterlimit="10" fill="none" fill-rule="evenodd"/><path d="M741.5 535.5 747.5 527.5" stroke="#0570B0" stroke-width="0.944462" stroke-linecap="round" stroke-linejoin="round" stroke-miterlimit="10" fill="none" fill-rule="evenodd"/><path d="M741.5 527.5 747.5 535.5" stroke="#0570B0" stroke-width="0.944462" stroke-linecap="round" stroke-linejoin="round" stroke-miterlimit="10" fill="none" fill-rule="evenodd"/><path d="M757.5 536.5 764.5 528.5" stroke="#0570B0" stroke-width="0.944462" stroke-linecap="round" stroke-linejoin="round" stroke-miterlimit="10" fill="none" fill-rule="evenodd"/><path d="M757.5 528.5 764.5 536.5" stroke="#0570B0" stroke-width="0.944462" stroke-linecap="round" stroke-linejoin="round" stroke-miterlimit="10" fill="none" fill-rule="evenodd"/><path d="M774.5 537.5 780.5 528.5" stroke="#0570B0" stroke-width="0.944462" stroke-linecap="round" stroke-linejoin="round" stroke-miterlimit="10" fill="none" fill-rule="evenodd"/><path d="M774.5 528.5 780.5 537.5" stroke="#0570B0" stroke-width="0.944462" stroke-linecap="round" stroke-linejoin="round" stroke-miterlimit="10" fill="none" fill-rule="evenodd"/><path d="M799.5 537.5 805.5 528.5" stroke="#0570B0" stroke-width="0.944462" stroke-linecap="round" stroke-linejoin="round" stroke-miterlimit="10" fill="none" fill-rule="evenodd"/><path d="M799.5 528.5 805.5 537.5" stroke="#0570B0" stroke-width="0.944462" stroke-linecap="round" stroke-linejoin="round" stroke-miterlimit="10" fill="none" fill-rule="evenodd"/><path d="M815.5 537.5 822.5 528.5" stroke="#0570B0" stroke-width="0.944462" stroke-linecap="round" stroke-linejoin="round" stroke-miterlimit="10" fill="none" fill-rule="evenodd"/><path d="M815.5 528.5 822.5 537.5" stroke="#0570B0" stroke-width="0.944462" stroke-linecap="round" stroke-linejoin="round" stroke-miterlimit="10" fill="none" fill-rule="evenodd"/><path d="M832.5 537.5 838.5 528.5" stroke="#0570B0" stroke-width="0.944462" stroke-linecap="round" stroke-linejoin="round" stroke-miterlimit="10" fill="none" fill-rule="evenodd"/><path d="M832.5 528.5 838.5 537.5" stroke="#0570B0" stroke-width="0.944462" stroke-linecap="round" stroke-linejoin="round" stroke-miterlimit="10" fill="none" fill-rule="evenodd"/><path d="M857.5 543.5 863.5 535.5" stroke="#0570B0" stroke-width="0.944462" stroke-linecap="round" stroke-linejoin="round" stroke-miterlimit="10" fill="none" fill-rule="evenodd"/><path d="M857.5 535.5 863.5 543.5" stroke="#0570B0" stroke-width="0.944462" stroke-linecap="round" stroke-linejoin="round" stroke-miterlimit="10" fill="none" fill-rule="evenodd"/><path d="M873.5 550.5 880.5 541.5" stroke="#0570B0" stroke-width="0.944462" stroke-linecap="round" stroke-linejoin="round" stroke-miterlimit="10" fill="none" fill-rule="evenodd"/><path d="M873.5 541.5 880.5 550.5" stroke="#0570B0" stroke-width="0.944462" stroke-linecap="round" stroke-linejoin="round" stroke-miterlimit="10" fill="none" fill-rule="evenodd"/><path d="M890.5 550.5 896.5 541.5" stroke="#0570B0" stroke-width="0.944462" stroke-linecap="round" stroke-linejoin="round" stroke-miterlimit="10" fill="none" fill-rule="evenodd"/><path d="M890.5 541.5 896.5 550.5" stroke="#0570B0" stroke-width="0.944462" stroke-linecap="round" stroke-linejoin="round" stroke-miterlimit="10" fill="none" fill-rule="evenodd"/><path d="M915.5 543.5 921.5 535.5" stroke="#0570B0" stroke-width="0.944462" stroke-linecap="round" stroke-linejoin="round" stroke-miterlimit="10" fill="none" fill-rule="evenodd"/><path d="M915.5 535.5 921.5 543.5" stroke="#0570B0" stroke-width="0.944462" stroke-linecap="round" stroke-linejoin="round" stroke-miterlimit="10" fill="none" fill-rule="evenodd"/><path d="M931.5 537.5 938.5 528.5" stroke="#0570B0" stroke-width="0.944462" stroke-linecap="round" stroke-linejoin="round" stroke-miterlimit="10" fill="none" fill-rule="evenodd"/><path d="M931.5 528.5 938.5 537.5" stroke="#0570B0" stroke-width="0.944462" stroke-linecap="round" stroke-linejoin="round" stroke-miterlimit="10" fill="none" fill-rule="evenodd"/><path d="M948.5 530.5 954.5 522.5" stroke="#0570B0" stroke-width="0.944462" stroke-linecap="round" stroke-linejoin="round" stroke-miterlimit="10" fill="none" fill-rule="evenodd"/><path d="M948.5 522.5 954.5 530.5" stroke="#0570B0" stroke-width="0.944462" stroke-linecap="round" stroke-linejoin="round" stroke-miterlimit="10" fill="none" fill-rule="evenodd"/><path d="M973.5 520.5 979.5 511.5" stroke="#0570B0" stroke-width="0.944462" stroke-linecap="round" stroke-linejoin="round" stroke-miterlimit="10" fill="none" fill-rule="evenodd"/><path d="M973.5 511.5 979.5 520.5" stroke="#0570B0" stroke-width="0.944462" stroke-linecap="round" stroke-linejoin="round" stroke-miterlimit="10" fill="none" fill-rule="evenodd"/><path d="M990.5 513.5 996.5 504.5" stroke="#0570B0" stroke-width="0.944462" stroke-linecap="round" stroke-linejoin="round" stroke-miterlimit="10" fill="none" fill-rule="evenodd"/><path d="M990.5 504.5 996.5 513.5" stroke="#0570B0" stroke-width="0.944462" stroke-linecap="round" stroke-linejoin="round" stroke-miterlimit="10" fill="none" fill-rule="evenodd"/><path d="M1006.5 506.5 1013.5 498.5" stroke="#0570B0" stroke-width="0.944462" stroke-linecap="round" stroke-linejoin="round" stroke-miterlimit="10" fill="none" fill-rule="evenodd"/><path d="M1006.5 498.5 1013.5 506.5" stroke="#0570B0" stroke-width="0.944462" stroke-linecap="round" stroke-linejoin="round" stroke-miterlimit="10" fill="none" fill-rule="evenodd"/><path d="M1031.5 496.5 1037.5 487.5" stroke="#0570B0" stroke-width="0.944462" stroke-linecap="round" stroke-linejoin="round" stroke-miterlimit="10" fill="none" fill-rule="evenodd"/><path d="M1031.5 487.5 1037.5 496.5" stroke="#0570B0" stroke-width="0.944462" stroke-linecap="round" stroke-linejoin="round" stroke-miterlimit="10" fill="none" fill-rule="evenodd"/><path d="M155 642 155 291" stroke="#4B5E68" stroke-width="2" stroke-linecap="square" stroke-linejoin="round" stroke-miterlimit="10" fill="none" fill-rule="evenodd"/><path d="M165 626 155 626" stroke="#333333" stroke-width="2" stroke-linejoin="round" stroke-miterlimit="10" fill="none" fill-rule="evenodd"/><path d="M165 562 155 562" stroke="#333333" stroke-width="2" stroke-linejoin="round" stroke-miterlimit="10" fill="none" fill-rule="evenodd"/><path d="M165 498 155 498" stroke="#333333" stroke-width="2" stroke-linejoin="round" stroke-miterlimit="10" fill="none" fill-rule="evenodd"/><path d="M165 435 155 435" stroke="#333333" stroke-width="2" stroke-linejoin="round" stroke-miterlimit="10" fill="none" fill-rule="evenodd"/><path d="M165 371 155 371" stroke="#333333" stroke-width="2" stroke-linejoin="round" stroke-miterlimit="10" fill="none" fill-rule="evenodd"/><path d="M166 309 156 309" stroke="#333333" stroke-width="2" stroke-linejoin="round" stroke-miterlimit="10" fill="none" fill-rule="evenodd"/><path d="M155 642 1076 642" stroke="#4B5E68" stroke-width="2" stroke-linecap="square" stroke-linejoin="round" stroke-miterlimit="10" fill="none" fill-rule="evenodd"/><path d="M326 629 326 642" stroke="#333333" stroke-width="2" stroke-linejoin="round" stroke-miterlimit="10" fill="none" fill-rule="evenodd"/><path d="M584 629 584 642" stroke="#333333" stroke-width="2" stroke-linejoin="round" stroke-miterlimit="10" fill="none" fill-rule="evenodd"/><path d="M841 629 841 642" stroke="#333333" stroke-width="2" stroke-linejoin="round" stroke-miterlimit="10" fill="none" fill-rule="evenodd"/><text fill="#4B5E68" font-family="Arial,Arial_MSFontService,sans-serif" font-weight="400" font-size="21" transform="translate(309.692 673)">40</text><text fill="#4B5E68" font-family="Arial,Arial_MSFontService,sans-serif" font-weight="400" font-size="21" transform="translate(570.445 673)">80</text><text fill="#4B5E68" font-family="Arial,Arial_MSFontService,sans-serif" font-weight="400" font-size="21" transform="translate(820.66 673)">120</text><text fill="#4B5E68" font-family="Arial,Arial_MSFontService,sans-serif" font-weight="400" font-size="21" transform="translate(101.587 322)">5.5</text><text fill="#4B5E68" font-family="Arial,Arial_MSFontService,sans-serif" font-weight="400" font-size="21" transform="translate(101.587 382)">4.5</text><text fill="#4B5E68" font-family="Arial,Arial_MSFontService,sans-serif" font-weight="400" font-size="21" transform="translate(101.587 443)">3.5</text><text fill="#4B5E68" font-family="Arial,Arial_MSFontService,sans-serif" font-weight="400" font-size="21" transform="translate(101.587 501)">2.5</text><text fill="#4B5E68" font-family="Arial,Arial_MSFontService,sans-serif" font-weight="400" font-size="21" transform="translate(101.587 563)">1.5</text><text fill="#4B5E68" font-family="Arial,Arial_MSFontService,sans-serif" font-weight="400" font-size="21" transform="translate(101.587 626)">0.5</text><text fill="#31859C" font-family="Arial,Arial_MSFontService,sans-serif" font-weight="700" font-size="21" transform="translate(686.38 327)">No positive samples</text><text fill="#4B5E68" font-family="Arial,Arial_MSFontService,sans-serif" font-weight="400" font-size="21" transform="translate(898.713 327)">with a normal</text><text fill="#4B5E68" font-family="Arial,Arial_MSFontService,sans-serif" font-weight="400" font-size="21" transform="translate(716.213 352)">sensitive method and N(t) = 3</text><text font-family="Arial,Arial_MSFontService,sans-serif" font-weight="400" font-size="21" transform="matrix(-1.83697e-16 -1 1 -1.83697e-16 80.8111 620)">Concentration (log</text><text font-family="Arial,Arial_MSFontService,sans-serif" font-weight="400" font-size="14" transform="matrix(-1.83697e-16 -1 1 -1.83697e-16 84.8111 445)">10</text><text font-family="Arial,Arial_MSFontService,sans-serif" font-weight="400" font-size="21" transform="matrix(-1.83697e-16 -1 1 -1.83697e-16 80.8111 424)">copies/L)</text><text fill="#4B5E68" font-family="Arial,Arial_MSFontService,sans-serif" font-weight="400" font-size="24" transform="translate(190.387 130)">Important to detect at least positive samples on the most recent sampling</text><text fill="#4B5E68" font-family="Arial,Arial_MSFontService,sans-serif" font-weight="400" font-size="24" transform="translate(973.054 130)">day</text><text fill="#4B5E68" font-family="Arial,Arial_MSFontService,sans-serif" font-weight="400" font-size="24" transform="translate(214.396 174)">•</text><text fill="#4B5E68" font-family="Arial,Arial_MSFontService,sans-serif" font-weight="400" font-size="24" transform="translate(244.396 174)">Use a highly sensitive method</text><text fill="#4B5E68" font-family="Arial,Arial_MSFontService,sans-serif" font-weight="400" font-size="24" transform="translate(214.396 216)">•</text><text fill="#4B5E68" font-family="Arial,Arial_MSFontService,sans-serif" font-weight="400" font-size="24" transform="translate(244.396 216)">Increase the number of tested samples or sampling frequency</text><path d="M890.918 428.01 936.401 559.613 933.565 560.593 888.082 428.99ZM938.746 557.215 937.433 567.191 930.24 560.155Z" fill="#31859C"/><path d="M1.4358-0.434157 15.265 45.3002 12.3934 46.1686-1.4358 0.434157ZM17.7024 42.9961 16 52.9134 9.08767 45.6011Z" fill="#C8A314" transform="matrix(1 0 0 -1 740.5 599.413)"/><path d="M1031.71 547.783 1018.38 527.586 1020.88 525.933 1034.22 546.13ZM1016.7 530.49 1015.5 520.5 1024.21 525.532Z" fill="#953735"/><rect x="181" y="482" width="248" height="110" fill="#F2F2F2"/><text fill="#4B5E68" font-family="Arial,Arial_MSFontService,sans-serif" font-weight="400" font-size="19" transform="translate(236.285 501)">3/3 samples positive</text><text fill="#4B5E68" font-family="Arial,Arial_MSFontService,sans-serif" font-weight="400" font-size="19" transform="translate(235.063 527)">2/3 samples positive</text><text fill="#4B5E68" font-family="Arial,Arial_MSFontService,sans-serif" font-weight="400" font-size="19" transform="translate(236.797 555)">1/3 samples positive</text><text fill="#4B5E68" font-family="Arial,Arial_MSFontService,sans-serif" font-weight="400" font-size="19" transform="translate(235.945 585)">0/3 samples positive</text><path d="M199.5 490C199.5 485.858 202.858 482.5 207 482.5 211.142 482.5 214.5 485.858 214.5 490 214.5 494.142 211.142 497.5 207 497.5 202.858 497.5 199.5 494.142 199.5 490Z" stroke="#0070C0" stroke-width="1.33333" stroke-miterlimit="8" fill="#FFFFFF" fill-rule="evenodd"/><path d="M197.5 528.5 207 509.5 216.5 528.5Z" stroke="#0070C0" stroke-width="1.33333" stroke-miterlimit="8" fill="#FFFFFF" fill-rule="evenodd"/><text fill="#0070C0" font-family="Meiryo,Meiryo_MSFontService,sans-serif" font-weight="700" font-size="24" transform="translate(196.976 592)">×</text><path d="M0 19 9.5 0 19 19Z" stroke="#0070C0" stroke-width="1.33333" stroke-miterlimit="8" fill="#FFFFFF" fill-rule="evenodd" transform="matrix(1 0 0 -1 198.5 564.5)"/></g></svg>